<svg width="349" height="106" viewBox="0 0 349 106" fill="none" xmlns="http://www.w3.org/2000/svg">
<path d="M26.798 17.4C26.798 17.1333 28.558 17 32.078 17C35.598 17 37.358 17.1333 37.358 17.4C37.358 17.6667 37.6247 17.8 38.158 17.8C38.6913 17.8 38.958 17.9333 38.958 18.2C38.958 18.4667 39.2247 18.6 39.758 18.6C40.2913 18.6 40.558 18.7333 40.558 19C40.558 19.2667 40.8247 19.4 41.358 19.4C41.8913 19.4 42.158 19.5333 42.158 19.8C42.158 20.0667 42.2913 20.2 42.558 20.2C42.878 20.2 43.038 20.36 43.038 20.68C43.038 20.9467 43.1713 21.08 43.438 21.08C43.7047 21.08 43.838 21.2133 43.838 21.48C43.838 21.7467 43.9713 21.88 44.238 21.88C44.5047 21.88 44.638 22.0133 44.638 22.28C44.638 22.5467 44.7713 22.68 45.038 22.68C45.3047 22.68 45.438 22.9467 45.438 23.48C45.438 24.0133 45.5713 24.28 45.838 24.28C46.1047 24.28 46.238 24.5467 46.238 25.08C46.238 25.6133 46.3713 25.88 46.638 25.88C46.9047 25.88 47.038 26.1467 47.038 26.68C47.038 27.2133 47.1713 27.48 47.438 27.48C47.6513 27.48 47.758 27.56 47.758 27.72C47.8113 27.88 47.838 28.2267 47.838 28.76C47.838 29.2933 47.8647 29.64 47.918 29.8C47.9713 29.9067 48.078 29.96 48.238 29.96C48.5047 29.96 48.638 30.2267 48.638 30.76C48.638 31.2933 48.7713 31.56 49.038 31.56C49.2513 31.56 49.3847 31.64 49.438 31.8C49.4913 31.96 49.518 32.4133 49.518 33.16C49.518 33.9067 49.518 34.36 49.518 34.52C49.5713 34.68 49.678 34.76 49.838 34.76C50.0513 34.76 50.1847 34.8667 50.238 35.08C50.2913 35.24 50.318 35.6933 50.318 36.44C50.318 37.1333 50.318 37.5867 50.318 37.8C50.3713 37.96 50.478 38.04 50.638 38.04C50.8513 38.04 50.9847 38.2267 51.038 38.6C51.0913 38.92 51.118 39.96 51.118 41.72C51.118 43.4267 51.118 44.4667 51.118 44.84C51.1713 45.16 51.3047 45.32 51.518 45.32C51.678 45.32 51.7847 45.4 51.838 45.56C51.8913 45.6667 51.918 45.9867 51.918 46.52C51.918 47.0533 51.8913 47.4 51.838 47.56C51.7847 47.6667 51.6513 47.72 51.438 47.72C51.278 47.72 51.1713 47.8533 51.118 48.12C51.118 48.3333 51.118 49.0267 51.118 50.2C51.118 51.32 51.0913 52.0133 51.038 52.28C50.9847 52.4933 50.8513 52.6 50.638 52.6C50.478 52.6 50.3713 52.68 50.318 52.84C50.318 53 50.318 53.4533 50.318 54.2C50.318 54.9467 50.2913 55.4 50.238 55.56C50.1847 55.72 50.0513 55.8 49.838 55.8C49.678 55.8 49.5713 55.88 49.518 56.04C49.518 56.1467 49.518 56.4933 49.518 57.08C49.518 57.6133 49.4913 57.96 49.438 58.12C49.3847 58.2267 49.2513 58.28 49.038 58.28C48.878 58.28 48.7713 58.36 48.718 58.52C48.6647 58.6267 48.638 58.9467 48.638 59.48C48.638 60.0133 48.6113 60.36 48.558 60.52C48.558 60.6267 48.4513 60.68 48.238 60.68C47.9713 60.68 47.838 60.9467 47.838 61.48C47.838 62.0133 47.7047 62.28 47.438 62.28C47.1713 62.28 47.038 62.5733 47.038 63.16C47.038 63.6933 46.9047 63.96 46.638 63.96C46.3713 63.96 46.238 64.2267 46.238 64.76C46.238 65.2933 46.1047 65.56 45.838 65.56C45.5713 65.56 45.438 65.8267 45.438 66.36C45.438 66.8933 45.3047 67.16 45.038 67.16C44.7713 67.16 44.638 67.4267 44.638 67.96C44.638 68.4933 44.5047 68.76 44.238 68.76C43.9713 68.76 43.838 69.0267 43.838 69.56C43.838 70.0933 43.7047 70.36 43.438 70.36C43.1713 70.36 43.038 70.52 43.038 70.84C43.038 71.1067 42.878 71.24 42.558 71.24C42.2913 71.24 42.158 71.3733 42.158 71.64C42.158 71.9067 42.0247 72.04 41.758 72.04C41.4913 72.04 41.358 72.3067 41.358 72.84C41.358 73.3733 41.2247 73.64 40.958 73.64C40.6913 73.64 40.558 73.7733 40.558 74.04C40.558 74.3067 40.4247 74.44 40.158 74.44C39.8913 74.44 39.758 74.5733 39.758 74.84C39.758 75.1067 39.6247 75.24 39.358 75.24C39.0913 75.24 38.958 75.5067 38.958 76.04C38.958 76.5733 38.8247 76.84 38.558 76.84C38.2913 76.84 38.158 76.9733 38.158 77.24C38.158 77.5067 38.0247 77.64 37.758 77.64C37.4913 77.64 37.358 77.7733 37.358 78.04C37.358 78.36 37.2247 78.52 36.958 78.52C36.6913 78.52 36.558 78.6533 36.558 78.92C36.558 79.1867 36.4247 79.32 36.158 79.32C35.8913 79.32 35.758 79.4533 35.758 79.72C35.758 79.9867 35.598 80.12 35.278 80.12C35.0113 80.12 34.878 80.2533 34.878 80.52C34.878 80.7867 34.7447 80.92 34.478 80.92C34.2113 80.92 34.078 81.0533 34.078 81.32C34.078 81.5867 33.9447 81.72 33.678 81.72C33.4113 81.72 33.278 81.8533 33.278 82.12C33.278 82.3867 33.1447 82.52 32.878 82.52C32.6113 82.52 32.478 82.6533 32.478 82.92C32.478 83.1867 32.3447 83.32 32.078 83.32C31.8113 83.32 31.678 83.4533 31.678 83.72C31.678 83.9867 31.4113 84.12 30.878 84.12C30.3447 84.12 30.078 84.2533 30.078 84.52C30.078 84.7867 29.9447 84.92 29.678 84.92C29.4113 84.92 29.278 85.0533 29.278 85.32C29.278 85.64 29.1447 85.8 28.878 85.8C28.6113 85.8 28.478 85.9333 28.478 86.2C28.478 86.4667 28.1847 86.6 27.598 86.6C27.0647 86.6 26.798 86.7333 26.798 87C26.798 87.2667 26.5313 87.4 25.998 87.4C25.4647 87.4 25.198 87.5333 25.198 87.8C25.198 87.96 25.118 88.0667 24.958 88.12C24.798 88.1733 24.3447 88.2 23.598 88.2C22.8513 88.2 22.398 88.2267 22.238 88.28C22.078 88.3333 21.998 88.44 21.998 88.6C21.998 88.8133 21.8113 88.92 21.438 88.92C21.118 88.9733 20.078 89 18.318 89C16.558 89 15.518 88.9733 15.198 88.92C14.878 88.92 14.718 88.8133 14.718 88.6C14.718 88.3333 14.4247 88.2 13.838 88.2C13.3047 88.2 13.038 88.0667 13.038 87.8C13.038 87.5333 12.7713 87.4 12.238 87.4C11.7047 87.4 11.438 87.2667 11.438 87C11.438 86.7333 11.3047 86.6 11.038 86.6C10.7713 86.6 10.638 86.4667 10.638 86.2C10.638 85.9333 10.5047 85.8 10.238 85.8C10.0247 85.8 9.89132 85.64 9.83799 85.32C9.83799 85 9.83799 84.0667 9.83799 82.52C9.83799 80.9733 9.83799 80.04 9.83799 79.72C9.89132 79.4533 10.0247 79.32 10.238 79.32C10.4513 79.32 10.558 79 10.558 78.36C10.6113 77.7733 10.638 75.8 10.638 72.44C10.638 69.0267 10.638 67.0267 10.638 66.44C10.6913 65.8533 10.8247 65.56 11.038 65.56C11.2513 65.56 11.358 65.1867 11.358 64.44C11.4113 63.6933 11.438 61.24 11.438 57.08C11.438 52.8667 11.4647 50.3867 11.518 49.64C11.5713 48.8933 11.678 48.52 11.838 48.52C12.0513 48.52 12.158 48.3333 12.158 47.96C12.2113 47.5333 12.238 46.2533 12.238 44.12C12.238 41.9867 12.2647 40.7067 12.318 40.28C12.3713 39.8533 12.478 39.64 12.638 39.64C12.8513 39.64 12.958 39.5067 12.958 39.24C13.0113 38.92 13.038 37.9867 13.038 36.44C13.038 34.8933 13.0647 33.96 13.118 33.64C13.1713 33.32 13.278 33.16 13.438 33.16C13.6513 33.16 13.7847 33.08 13.838 32.92C13.8913 32.76 13.918 32.3067 13.918 31.56C13.918 30.8133 13.918 30.36 13.918 30.2C13.9713 30.04 14.1047 29.96 14.318 29.96C14.5847 29.96 14.718 29.6933 14.718 29.16C14.718 28.6267 14.8513 28.36 15.118 28.36C15.3847 28.36 15.518 28.0933 15.518 27.56C15.518 26.9733 15.6513 26.68 15.918 26.68C16.1847 26.68 16.318 26.4133 16.318 25.88C16.318 25.3467 16.4513 25.08 16.718 25.08C16.9847 25.08 17.118 24.8133 17.118 24.28C17.118 23.7467 17.2513 23.48 17.518 23.48C17.7847 23.48 17.918 23.3467 17.918 23.08C17.918 22.8133 18.0513 22.68 18.318 22.68C18.5847 22.68 18.718 22.5467 18.718 22.28C18.718 22.0133 18.8513 21.88 19.118 21.88C19.3847 21.88 19.518 21.7467 19.518 21.48C19.518 21.2133 19.6513 21.08 19.918 21.08C20.1847 21.08 20.318 20.9467 20.318 20.68C20.318 20.36 20.4513 20.2 20.718 20.2C21.038 20.2 21.198 20.0667 21.198 19.8C21.198 19.5333 21.4647 19.4 21.998 19.4C22.5313 19.4 22.798 19.2667 22.798 19C22.798 18.7333 23.0647 18.6 23.598 18.6C24.1313 18.6 24.398 18.4667 24.398 18.2C24.398 18.04 24.4513 17.9333 24.558 17.88C24.718 17.8267 25.0647 17.8 25.598 17.8C26.1313 17.8 26.4513 17.7733 26.558 17.72C26.718 17.6667 26.798 17.56 26.798 17.4ZM33.278 20.68C33.278 20.4667 33.198 20.3333 33.038 20.28C32.878 20.2267 32.4247 20.2 31.678 20.2C30.9313 20.2 30.478 20.2267 30.318 20.28C30.158 20.3333 30.078 20.4667 30.078 20.68C30.078 20.9467 29.8113 21.08 29.278 21.08C28.7447 21.08 28.478 21.2133 28.478 21.48C28.478 21.7467 28.318 21.88 27.998 21.88C27.7313 21.88 27.598 22.0133 27.598 22.28C27.598 22.5467 27.4647 22.68 27.198 22.68C26.9313 22.68 26.798 22.8133 26.798 23.08C26.798 23.3467 26.6647 23.48 26.398 23.48C26.1313 23.48 25.998 23.6133 25.998 23.88C25.998 24.1467 25.8647 24.28 25.598 24.28C25.3313 24.28 25.198 24.5467 25.198 25.08C25.198 25.6133 25.0647 25.88 24.798 25.88C24.5313 25.88 24.398 26.0133 24.398 26.28C24.398 26.5467 24.2647 26.68 23.998 26.68C23.7313 26.68 23.598 26.9733 23.598 27.56C23.598 28.0933 23.4647 28.36 23.198 28.36C22.9847 28.36 22.8513 28.6533 22.798 29.24C22.798 29.8267 22.798 31.8267 22.798 35.24C22.798 38.6 22.7713 40.5733 22.718 41.16C22.718 41.7467 22.6113 42.04 22.398 42.04C22.1847 42.04 22.0513 42.3333 21.998 42.92C21.998 43.5067 21.998 45.4 21.998 48.6C21.998 51.7467 21.9713 53.6133 21.918 54.2C21.8647 54.7333 21.7313 55 21.518 55C21.358 55 21.2513 55.2133 21.198 55.64C21.198 56.0667 21.198 57.3467 21.198 59.48C21.198 61.6133 21.1713 62.8933 21.118 63.32C21.0647 63.7467 20.9313 63.96 20.718 63.96C20.558 63.96 20.4513 64.0933 20.398 64.36C20.3447 64.6267 20.318 65.4267 20.318 66.76C20.318 68.6267 20.1847 69.56 19.918 69.56C19.758 69.56 19.6513 69.72 19.598 70.04C19.5447 70.36 19.518 71.2933 19.518 72.84C19.518 74.3867 19.4913 75.2933 19.438 75.56C19.438 75.88 19.3313 76.04 19.118 76.04C18.958 76.04 18.8513 76.1733 18.798 76.44C18.7447 76.7067 18.718 77.5067 18.718 78.84C18.718 80.2267 18.6913 81.0533 18.638 81.32C18.638 81.5867 18.5313 81.72 18.318 81.72C18.0513 81.72 17.918 81.9867 17.918 82.52V83.32H19.118C19.6513 83.32 19.9713 83.2933 20.078 83.24C20.238 83.24 20.318 83.1333 20.318 82.92C20.318 82.6533 20.5847 82.52 21.118 82.52C21.7047 82.52 21.998 82.3867 21.998 82.12C21.998 81.8533 22.1313 81.72 22.398 81.72C22.6647 81.72 22.798 81.5867 22.798 81.32C22.798 81.0533 22.9313 80.92 23.198 80.92C23.4647 80.92 23.598 80.7867 23.598 80.52C23.598 80.2533 23.7313 80.12 23.998 80.12C24.2647 80.12 24.398 79.9867 24.398 79.72C24.398 79.4533 24.5313 79.32 24.798 79.32C25.0647 79.32 25.198 79.1867 25.198 78.92C25.198 78.6533 25.3313 78.52 25.598 78.52C25.8647 78.52 25.998 78.36 25.998 78.04C25.998 77.7733 26.1313 77.64 26.398 77.64C26.6647 77.64 26.798 77.5067 26.798 77.24C26.798 76.9733 26.9313 76.84 27.198 76.84C27.4647 76.84 27.598 76.7067 27.598 76.44C27.598 76.1733 27.7313 76.04 27.998 76.04C28.318 76.04 28.478 75.9067 28.478 75.64C28.478 75.3733 28.6113 75.24 28.878 75.24C29.1447 75.24 29.278 75.1067 29.278 74.84C29.278 74.5733 29.4113 74.44 29.678 74.44C29.9447 74.44 30.078 74.3067 30.078 74.04C30.078 73.7733 30.2113 73.64 30.478 73.64C30.7447 73.64 30.878 73.5067 30.878 73.24C30.878 72.9733 31.0113 72.84 31.278 72.84C31.5447 72.84 31.678 72.5733 31.678 72.04C31.678 71.5067 31.8113 71.24 32.078 71.24C32.3447 71.24 32.478 71.1067 32.478 70.84C32.478 70.52 32.6113 70.36 32.878 70.36C33.1447 70.36 33.278 70.2267 33.278 69.96C33.278 69.6933 33.4113 69.56 33.678 69.56C33.9447 69.56 34.078 69.2933 34.078 68.76C34.078 68.2267 34.2113 67.96 34.478 67.96C34.7447 67.96 34.878 67.6933 34.878 67.16C34.878 66.6267 35.0113 66.36 35.278 66.36C35.598 66.36 35.758 66.2267 35.758 65.96C35.758 65.6933 35.8913 65.56 36.158 65.56C36.4247 65.56 36.558 65.2933 36.558 64.76C36.558 64.2267 36.6913 63.96 36.958 63.96C37.2247 63.96 37.358 63.6933 37.358 63.16C37.358 62.5733 37.4913 62.28 37.758 62.28C37.918 62.28 38.0247 62.2267 38.078 62.12C38.1313 61.96 38.158 61.6133 38.158 61.08C38.158 60.5467 38.1847 60.2267 38.238 60.12C38.2913 59.96 38.398 59.88 38.558 59.88C38.8247 59.88 38.958 59.6133 38.958 59.08C38.958 58.5467 39.0913 58.28 39.358 58.28C39.518 58.28 39.6247 58.2267 39.678 58.12C39.7313 57.96 39.758 57.6133 39.758 57.08C39.758 56.4933 39.7847 56.1467 39.838 56.04C39.8913 55.88 39.998 55.8 40.158 55.8C40.3713 55.8 40.478 55.7467 40.478 55.64C40.5313 55.48 40.558 55.1333 40.558 54.6C40.558 54.0667 40.5847 53.7467 40.638 53.64C40.6913 53.48 40.798 53.4 40.958 53.4C41.1713 53.4 41.278 53.32 41.278 53.16C41.3313 52.9467 41.358 52.36 41.358 51.4C41.358 50.44 41.3847 49.8533 41.438 49.64C41.4913 49.4267 41.598 49.32 41.758 49.32C41.9713 49.32 42.078 49.0533 42.078 48.52C42.1313 47.9333 42.158 46.0667 42.158 42.92C42.158 39.72 42.1313 37.8533 42.078 37.32C42.078 36.7333 41.9713 36.44 41.758 36.44C41.598 36.44 41.4913 36.36 41.438 36.2C41.3847 35.9867 41.358 35.5333 41.358 34.84C41.358 34.0933 41.3313 33.64 41.278 33.48C41.278 33.2667 41.1713 33.16 40.958 33.16C40.798 33.16 40.6913 33.1067 40.638 33C40.5847 32.84 40.558 32.4933 40.558 31.96C40.558 31.4267 40.5313 31.1067 40.478 31C40.478 30.84 40.3713 30.76 40.158 30.76C39.998 30.76 39.8913 30.7067 39.838 30.6C39.7847 30.44 39.758 30.0933 39.758 29.56C39.758 29.0267 39.7313 28.7067 39.678 28.6C39.6247 28.44 39.518 28.36 39.358 28.36C39.0913 28.36 38.958 28.0933 38.958 27.56C38.958 26.9733 38.8247 26.68 38.558 26.68C38.2913 26.68 38.158 26.4133 38.158 25.88C38.158 25.3467 38.0247 25.08 37.758 25.08C37.4913 25.08 37.358 24.8133 37.358 24.28C37.358 23.7467 37.2247 23.48 36.958 23.48C36.6913 23.48 36.558 23.3467 36.558 23.08C36.558 22.8133 36.4247 22.68 36.158 22.68C35.8913 22.68 35.758 22.5467 35.758 22.28C35.758 22.0133 35.4647 21.88 34.878 21.88C34.3447 21.88 34.078 21.7467 34.078 21.48C34.078 21.2133 33.9447 21.08 33.678 21.08C33.4113 21.08 33.278 20.9467 33.278 20.68ZM74.3949 17.48C74.3949 17.2667 74.7149 17.1333 75.3549 17.08C75.9949 17.0267 78.1282 17 81.7549 17C85.4349 17 87.5949 17.0267 88.2349 17.08C88.8749 17.1333 89.1949 17.2667 89.1949 17.48C89.1949 17.6933 89.2749 17.8267 89.4349 17.88C89.5949 17.9333 89.9949 17.96 90.6349 17.96C91.3282 17.96 91.7549 17.9867 91.9149 18.04C92.0749 18.0933 92.1549 18.2267 92.1549 18.44C92.1549 18.8133 92.4749 19 93.1149 19C93.7549 19 94.0749 19.16 94.0749 19.48C94.0749 19.8 94.3949 19.96 95.0349 19.96C95.7282 19.96 96.0749 20.12 96.0749 20.44C96.0749 20.76 96.2349 20.92 96.5549 20.92C96.8749 20.92 97.0349 21.1067 97.0349 21.48C97.0349 21.8 97.1949 21.96 97.5149 21.96C97.8882 21.96 98.0749 22.28 98.0749 22.92C98.0749 23.56 98.2349 23.88 98.5549 23.88C98.8749 23.88 99.0349 24.2267 99.0349 24.92C99.0349 25.56 99.1949 25.88 99.5149 25.88C99.8349 25.88 99.9949 26.2267 99.9949 26.92C99.9949 27.56 100.182 27.88 100.555 27.88C100.768 27.88 100.902 28.0133 100.955 28.28C101.008 28.4933 101.035 29.1867 101.035 30.36C101.035 31.48 101.062 32.1733 101.115 32.44C101.168 32.6533 101.302 32.76 101.515 32.76C101.728 32.76 101.862 33.0267 101.915 33.56C101.968 34.04 101.995 35.5867 101.995 38.2C101.995 40.8133 101.968 42.3867 101.915 42.92C101.862 43.4 101.728 43.64 101.515 43.64C101.302 43.64 101.168 43.8267 101.115 44.2C101.062 44.5733 101.035 45.6933 101.035 47.56C101.035 49.4267 101.008 50.5733 100.955 51C100.902 51.3733 100.742 51.56 100.475 51.56C100.262 51.56 100.128 51.72 100.075 52.04C100.022 52.36 99.9949 53.3467 99.9949 55C99.9949 56.6 99.9682 57.5867 99.9149 57.96C99.9149 58.28 99.7815 58.44 99.5149 58.44C99.3015 58.44 99.1682 58.5467 99.1149 58.76C99.0615 58.9733 99.0349 59.5333 99.0349 60.44C99.0349 61.2933 99.0082 61.8267 98.9549 62.04C98.9015 62.2533 98.7682 62.36 98.5549 62.36C98.3415 62.36 98.2082 62.44 98.1549 62.6C98.1015 62.76 98.0749 63.1867 98.0749 63.88C98.0749 64.52 98.0482 64.92 97.9949 65.08C97.9415 65.24 97.8082 65.32 97.5949 65.32C97.3815 65.32 97.2215 65.4 97.1149 65.56C97.0615 65.72 97.0349 66.1467 97.0349 66.84C97.0349 67.48 97.0082 67.88 96.9549 68.04C96.9015 68.2 96.7682 68.28 96.5549 68.28C96.3415 68.28 96.2082 68.36 96.1549 68.52C96.1015 68.68 96.0749 69.1067 96.0749 69.8C96.0749 70.44 96.0482 70.84 95.9949 71C95.9415 71.16 95.8082 71.24 95.5949 71.24C95.3815 71.24 95.2482 71.32 95.1949 71.48C95.1415 71.64 95.1149 72.0667 95.1149 72.76C95.1149 73.4 95.0882 73.8 95.0349 73.96C94.9815 74.12 94.8482 74.2 94.6349 74.2C94.2615 74.2 94.0749 74.52 94.0749 75.16C94.0749 75.8533 93.9149 76.2 93.5949 76.2C93.2749 76.2 93.1149 76.52 93.1149 77.16C93.1149 77.8 92.9549 78.12 92.6349 78.12C92.3149 78.12 92.1549 78.28 92.1549 78.6C92.1549 78.9733 91.9949 79.16 91.6749 79.16C91.3549 79.16 91.1949 79.32 91.1949 79.64C91.1949 79.96 91.0082 80.12 90.6349 80.12C90.3149 80.12 90.1549 80.44 90.1549 81.08C90.1549 81.7733 89.9949 82.12 89.6749 82.12C89.3549 82.12 89.1949 82.28 89.1949 82.6C89.1949 82.92 89.0349 83.08 88.7149 83.08C88.3949 83.08 88.2349 83.24 88.2349 83.56C88.2349 83.88 88.0482 84.04 87.6749 84.04C87.3549 84.04 87.1949 84.2 87.1949 84.52C87.1949 84.8933 87.0349 85.08 86.7149 85.08C86.3949 85.08 86.2349 85.24 86.2349 85.56C86.2349 85.88 86.0749 86.04 85.7549 86.04C85.4349 86.04 85.2749 86.2 85.2749 86.52C85.2749 86.84 84.9282 87 84.2349 87C83.5949 87 83.2749 87.1867 83.2749 87.56C83.2749 87.7733 83.1949 87.9067 83.0349 87.96C82.8749 88.0133 82.4482 88.04 81.7549 88.04C81.1149 88.04 80.7149 88.0667 80.5549 88.12C80.3949 88.1733 80.3149 88.3067 80.3149 88.52C80.3149 88.7333 80.1282 88.8667 79.7549 88.92C79.3815 88.9733 78.2349 89 76.3149 89C74.4482 89 73.3282 88.9733 72.9549 88.92C72.5815 88.8667 72.3949 88.7333 72.3949 88.52C72.3949 88.3067 72.3149 88.1733 72.1549 88.12C71.9949 88.0667 71.5682 88.04 70.8749 88.04C70.2349 88.04 69.8349 88.0133 69.6749 87.96C69.5149 87.9067 69.4349 87.7733 69.4349 87.56C69.4349 87.1867 69.1149 87 68.4749 87C67.8349 87 67.5149 86.84 67.5149 86.52C67.5149 86.2 67.1682 86.04 66.4749 86.04C65.8349 86.04 65.5149 85.88 65.5149 85.56C65.5149 85.24 65.3549 85.08 65.0349 85.08C64.7149 85.08 64.5549 84.8933 64.5549 84.52C64.5549 84.2 64.3682 84.04 63.9949 84.04C63.6749 84.04 63.5149 83.88 63.5149 83.56C63.5149 83.24 63.3549 83.08 63.0349 83.08C62.7149 83.08 62.5549 82.92 62.5549 82.6C62.5549 82.28 62.3949 82.12 62.0749 82.12C61.7549 82.12 61.5949 81.9333 61.5949 81.56C61.5949 81.24 61.4082 81.08 61.0349 81.08C60.7149 81.08 60.5549 80.76 60.5549 80.12C60.5549 79.48 60.3949 79.16 60.0749 79.16C59.7549 79.16 59.5949 78.9733 59.5949 78.6C59.5949 78.28 59.4349 78.12 59.1149 78.12C58.9015 78.12 58.7682 78.04 58.7149 77.88C58.6615 77.72 58.6349 77.32 58.6349 76.68C58.6349 76.04 58.6082 75.6133 58.5549 75.4C58.5015 75.24 58.3415 75.16 58.0749 75.16C57.8615 75.16 57.7282 75.08 57.6749 74.92C57.6215 74.76 57.5949 74.36 57.5949 73.72C57.5949 73.08 57.5682 72.68 57.5149 72.52C57.4615 72.3067 57.3282 72.2 57.1149 72.2C56.9015 72.2 56.7682 71.96 56.7149 71.48C56.6615 71 56.6349 69.4533 56.6349 66.84C56.6349 64.2267 56.6615 62.68 56.7149 62.2C56.7682 61.6667 56.9015 61.4 57.1149 61.4C57.4349 61.4 57.5949 59.2667 57.5949 55C57.5949 50.7333 57.7549 48.6 58.0749 48.6C58.3415 48.6 58.5015 48.4667 58.5549 48.2C58.6082 47.88 58.6349 47.0267 58.6349 45.64C58.6349 44.2 58.6349 43.3467 58.6349 43.08C58.6882 42.8133 58.8482 42.68 59.1149 42.68C59.3282 42.68 59.4615 42.5733 59.5149 42.36C59.5682 42.1467 59.5949 41.5867 59.5949 40.68C59.5949 39.7733 59.6215 39.2133 59.6749 39C59.7282 38.7867 59.8615 38.68 60.0749 38.68C60.2882 38.68 60.4215 38.5733 60.4749 38.36C60.5282 38.1467 60.5549 37.6133 60.5549 36.76C60.5549 35.8533 60.5815 35.2933 60.6349 35.08C60.6882 34.8667 60.8215 34.76 61.0349 34.76C61.4082 34.76 61.5949 34.44 61.5949 33.8C61.5949 33.1067 61.7549 32.76 62.0749 32.76C62.2882 32.76 62.4215 32.68 62.4749 32.52C62.5282 32.36 62.5549 31.96 62.5549 31.32C62.5549 30.6267 62.5815 30.2 62.6349 30.04C62.6882 29.88 62.8215 29.8 63.0349 29.8C63.3549 29.8 63.5149 29.48 63.5149 28.84C63.5149 28.2 63.6749 27.88 63.9949 27.88C64.3682 27.88 64.5549 27.56 64.5549 26.92C64.5549 26.2267 64.7149 25.88 65.0349 25.88C65.3549 25.88 65.5149 25.56 65.5149 24.92C65.5149 24.2267 65.6749 23.88 65.9949 23.88C66.3149 23.88 66.4749 23.72 66.4749 23.4C66.4749 23.08 66.6349 22.92 66.9549 22.92C67.3282 22.92 67.5149 22.76 67.5149 22.44C67.5149 22.12 67.6749 21.96 67.9949 21.96C68.3149 21.96 68.4749 21.8 68.4749 21.48C68.4749 21.1067 68.6349 20.92 68.9549 20.92C69.2749 20.92 69.4349 20.76 69.4349 20.44C69.4349 20.12 69.5949 19.96 69.9149 19.96C70.2882 19.96 70.4749 19.8 70.4749 19.48C70.4749 19.16 70.7949 19 71.4349 19C72.0749 19 72.3949 18.84 72.3949 18.52C72.3949 18.1467 72.7149 17.96 73.3549 17.96C74.0482 17.96 74.3949 17.8 74.3949 17.48ZM81.2749 22.92C80.6349 22.92 80.3149 22.76 80.3149 22.44C80.3149 22.12 79.9682 21.96 79.2749 21.96C78.6349 21.96 78.3149 22.12 78.3149 22.44C78.3149 22.76 77.9949 22.92 77.3549 22.92C76.7149 22.92 76.3949 23.08 76.3949 23.4C76.3949 23.72 76.2082 23.88 75.8349 23.88C75.5149 23.88 75.3549 24.2267 75.3549 24.92C75.3549 25.56 75.1949 25.88 74.8749 25.88C74.5549 25.88 74.3949 26.2267 74.3949 26.92C74.3949 27.56 74.2349 27.88 73.9149 27.88C73.7015 27.88 73.5682 27.96 73.5149 28.12C73.4615 28.28 73.4349 28.68 73.4349 29.32C73.4349 29.96 73.4082 30.3867 73.3549 30.6C73.3015 30.76 73.1415 30.84 72.8749 30.84C72.6615 30.84 72.5282 30.92 72.4749 31.08C72.4215 31.24 72.3949 31.64 72.3949 32.28C72.3949 32.92 72.3682 33.3467 72.3149 33.56C72.2615 33.72 72.1282 33.8 71.9149 33.8C71.7015 33.8 71.5682 33.9067 71.5149 34.12C71.4615 34.28 71.4349 34.8133 71.4349 35.72C71.4349 36.6267 71.4082 37.1867 71.3549 37.4C71.3015 37.6133 71.1682 37.72 70.9549 37.72C70.7415 37.72 70.6082 37.8267 70.5549 38.04C70.5015 38.2533 70.4749 38.8133 70.4749 39.72C70.4749 40.5733 70.4482 41.1067 70.3949 41.32C70.3415 41.5333 70.1815 41.64 69.9149 41.64C69.7015 41.64 69.5682 41.7733 69.5149 42.04C69.4615 42.2533 69.4349 42.9467 69.4349 44.12C69.4349 45.2933 69.4082 46.0133 69.3549 46.28C69.3015 46.4933 69.1682 46.6 68.9549 46.6C68.7415 46.6 68.6082 46.8133 68.5549 47.24C68.5015 47.6133 68.4749 48.8667 68.4749 51C68.4749 53.1333 68.4482 54.4133 68.3949 54.84C68.3415 55.2667 68.1815 55.48 67.9149 55.48C67.7015 55.48 67.5682 55.88 67.5149 56.68C67.5149 57.48 67.5149 60.2 67.5149 64.84C67.5149 69.48 67.5149 72.2 67.5149 73C67.5682 73.8 67.7282 74.2 67.9949 74.2C68.2082 74.2 68.3415 74.28 68.3949 74.44C68.4482 74.6 68.4749 75 68.4749 75.64C68.4749 76.3333 68.5015 76.76 68.5549 76.92C68.6082 77.08 68.7415 77.16 68.9549 77.16C69.2749 77.16 69.4349 77.32 69.4349 77.64C69.4349 77.96 69.5949 78.12 69.9149 78.12C70.2882 78.12 70.4749 78.44 70.4749 79.08C70.4749 79.7733 70.6349 80.12 70.9549 80.12C71.2749 80.12 71.4349 80.28 71.4349 80.6C71.4349 80.92 71.5949 81.08 71.9149 81.08C72.2349 81.08 72.3949 81.4 72.3949 82.04C72.3949 82.7333 72.5549 83.08 72.8749 83.08C73.2482 83.08 73.4349 83.24 73.4349 83.56C73.4349 83.7733 73.5149 83.9067 73.6749 83.96C73.8882 84.0133 74.4482 84.04 75.3549 84.04C76.2615 84.04 76.8215 84.0133 77.0349 83.96C77.2482 83.9067 77.3549 83.7733 77.3549 83.56C77.3549 83.24 77.5149 83.08 77.8349 83.08C78.1549 83.08 78.3149 82.92 78.3149 82.6C78.3149 82.28 78.4749 82.12 78.7949 82.12C79.1682 82.12 79.3549 81.9333 79.3549 81.56C79.3549 81.24 79.5149 81.08 79.8349 81.08C80.1549 81.08 80.3149 80.92 80.3149 80.6C80.3149 80.28 80.4749 80.12 80.7949 80.12C81.1149 80.12 81.2749 79.7733 81.2749 79.08C81.2749 78.44 81.4349 78.12 81.7549 78.12C82.0215 78.12 82.1815 78.04 82.2349 77.88C82.2882 77.72 82.3149 77.32 82.3149 76.68C82.3149 76.04 82.3415 75.6133 82.3949 75.4C82.4482 75.24 82.5815 75.16 82.7949 75.16C83.1149 75.16 83.2749 74.84 83.2749 74.2C83.2749 73.56 83.4349 73.24 83.7549 73.24C83.9682 73.24 84.1015 73.16 84.1549 73C84.2082 72.84 84.2349 72.44 84.2349 71.8C84.2349 71.1067 84.2615 70.68 84.3149 70.52C84.3682 70.36 84.5015 70.28 84.7149 70.28C84.9815 70.28 85.1415 70.1733 85.1949 69.96C85.2482 69.7467 85.2749 69.1867 85.2749 68.28C85.2749 67.3733 85.3015 66.8133 85.3549 66.6C85.4082 66.3867 85.5415 66.28 85.7549 66.28C85.9682 66.28 86.1015 66.1467 86.1549 65.88C86.2082 65.6133 86.2349 64.7867 86.2349 63.4C86.2349 61.96 86.2615 61.1067 86.3149 60.84C86.3682 60.52 86.5015 60.36 86.7149 60.36C86.9282 60.36 87.0615 60.1467 87.1149 59.72C87.1682 59.24 87.1949 57.8267 87.1949 55.48C87.1949 53.08 87.2215 51.6667 87.2749 51.24C87.3282 50.76 87.4615 50.52 87.6749 50.52C87.9415 50.52 88.1015 50.1733 88.1549 49.48C88.2082 48.7333 88.2349 46.3067 88.2349 42.2C88.2349 38.04 88.2082 35.6133 88.1549 34.92C88.1015 34.1733 87.9415 33.8 87.6749 33.8C87.4615 33.8 87.3282 33.72 87.2749 33.56C87.2215 33.3467 87.1949 32.92 87.1949 32.28C87.1949 31.64 87.1682 31.24 87.1149 31.08C87.0615 30.92 86.9282 30.84 86.7149 30.84C86.5015 30.84 86.3682 30.76 86.3149 30.6C86.2615 30.3867 86.2349 29.96 86.2349 29.32C86.2349 28.68 86.2082 28.28 86.1549 28.12C86.1015 27.96 85.9682 27.88 85.7549 27.88C85.4349 27.88 85.2749 27.56 85.2749 26.92C85.2749 26.2267 85.0882 25.88 84.7149 25.88C84.3949 25.88 84.2349 25.72 84.2349 25.4C84.2349 25.08 84.0749 24.92 83.7549 24.92C83.4349 24.92 83.2749 24.76 83.2749 24.44C83.2749 24.0667 83.1149 23.88 82.7949 23.88C82.4749 23.88 82.3149 23.72 82.3149 23.4C82.3149 23.08 81.9682 22.92 81.2749 22.92ZM124.551 17.48C124.551 17.2667 124.871 17.1333 125.511 17.08C126.151 17.0267 128.284 17 131.911 17C135.591 17 137.751 17.0267 138.391 17.08C139.031 17.1333 139.351 17.2667 139.351 17.48C139.351 17.6933 139.431 17.8267 139.591 17.88C139.751 17.9333 140.151 17.96 140.791 17.96C141.484 17.96 141.911 17.9867 142.071 18.04C142.231 18.0933 142.311 18.2267 142.311 18.44C142.311 18.8133 142.631 19 143.271 19C143.911 19 144.231 19.16 144.231 19.48C144.231 19.8 144.551 19.96 145.191 19.96C145.884 19.96 146.231 20.12 146.231 20.44C146.231 20.76 146.391 20.92 146.711 20.92C147.031 20.92 147.191 21.1067 147.191 21.48C147.191 21.8 147.351 21.96 147.671 21.96C148.044 21.96 148.231 22.28 148.231 22.92C148.231 23.56 148.391 23.88 148.711 23.88C149.031 23.88 149.191 24.2267 149.191 24.92C149.191 25.56 149.351 25.88 149.671 25.88C149.991 25.88 150.151 26.2267 150.151 26.92C150.151 27.56 150.338 27.88 150.711 27.88C150.924 27.88 151.058 28.0133 151.111 28.28C151.164 28.4933 151.191 29.1867 151.191 30.36C151.191 31.48 151.218 32.1733 151.271 32.44C151.324 32.6533 151.458 32.76 151.671 32.76C151.884 32.76 152.018 33.0267 152.071 33.56C152.124 34.04 152.151 35.5867 152.151 38.2C152.151 40.8133 152.124 42.3867 152.071 42.92C152.018 43.4 151.884 43.64 151.671 43.64C151.458 43.64 151.324 43.8267 151.271 44.2C151.218 44.5733 151.191 45.6933 151.191 47.56C151.191 49.4267 151.164 50.5733 151.111 51C151.058 51.3733 150.898 51.56 150.631 51.56C150.418 51.56 150.284 51.72 150.231 52.04C150.178 52.36 150.151 53.3467 150.151 55C150.151 56.6 150.124 57.5867 150.071 57.96C150.071 58.28 149.938 58.44 149.671 58.44C149.458 58.44 149.324 58.5467 149.271 58.76C149.218 58.9733 149.191 59.5333 149.191 60.44C149.191 61.2933 149.164 61.8267 149.111 62.04C149.058 62.2533 148.924 62.36 148.711 62.36C148.498 62.36 148.364 62.44 148.311 62.6C148.258 62.76 148.231 63.1867 148.231 63.88C148.231 64.52 148.204 64.92 148.151 65.08C148.098 65.24 147.964 65.32 147.751 65.32C147.538 65.32 147.378 65.4 147.271 65.56C147.218 65.72 147.191 66.1467 147.191 66.84C147.191 67.48 147.164 67.88 147.111 68.04C147.058 68.2 146.924 68.28 146.711 68.28C146.498 68.28 146.364 68.36 146.311 68.52C146.258 68.68 146.231 69.1067 146.231 69.8C146.231 70.44 146.204 70.84 146.151 71C146.098 71.16 145.964 71.24 145.751 71.24C145.538 71.24 145.404 71.32 145.351 71.48C145.298 71.64 145.271 72.0667 145.271 72.76C145.271 73.4 145.244 73.8 145.191 73.96C145.138 74.12 145.004 74.2 144.791 74.2C144.418 74.2 144.231 74.52 144.231 75.16C144.231 75.8533 144.071 76.2 143.751 76.2C143.431 76.2 143.271 76.52 143.271 77.16C143.271 77.8 143.111 78.12 142.791 78.12C142.471 78.12 142.311 78.28 142.311 78.6C142.311 78.9733 142.151 79.16 141.831 79.16C141.511 79.16 141.351 79.32 141.351 79.64C141.351 79.96 141.164 80.12 140.791 80.12C140.471 80.12 140.311 80.44 140.311 81.08C140.311 81.7733 140.151 82.12 139.831 82.12C139.511 82.12 139.351 82.28 139.351 82.6C139.351 82.92 139.191 83.08 138.871 83.08C138.551 83.08 138.391 83.24 138.391 83.56C138.391 83.88 138.204 84.04 137.831 84.04C137.511 84.04 137.351 84.2 137.351 84.52C137.351 84.8933 137.191 85.08 136.871 85.08C136.551 85.08 136.391 85.24 136.391 85.56C136.391 85.88 136.231 86.04 135.911 86.04C135.591 86.04 135.431 86.2 135.431 86.52C135.431 86.84 135.084 87 134.391 87C133.751 87 133.431 87.1867 133.431 87.56C133.431 87.7733 133.351 87.9067 133.191 87.96C133.031 88.0133 132.604 88.04 131.911 88.04C131.271 88.04 130.871 88.0667 130.711 88.12C130.551 88.1733 130.471 88.3067 130.471 88.52C130.471 88.7333 130.284 88.8667 129.911 88.92C129.538 88.9733 128.391 89 126.471 89C124.604 89 123.484 88.9733 123.111 88.92C122.738 88.8667 122.551 88.7333 122.551 88.52C122.551 88.3067 122.471 88.1733 122.311 88.12C122.151 88.0667 121.724 88.04 121.031 88.04C120.391 88.04 119.991 88.0133 119.831 87.96C119.671 87.9067 119.591 87.7733 119.591 87.56C119.591 87.1867 119.271 87 118.631 87C117.991 87 117.671 86.84 117.671 86.52C117.671 86.2 117.324 86.04 116.631 86.04C115.991 86.04 115.671 85.88 115.671 85.56C115.671 85.24 115.511 85.08 115.191 85.08C114.871 85.08 114.711 84.8933 114.711 84.52C114.711 84.2 114.524 84.04 114.151 84.04C113.831 84.04 113.671 83.88 113.671 83.56C113.671 83.24 113.511 83.08 113.191 83.08C112.871 83.08 112.711 82.92 112.711 82.6C112.711 82.28 112.551 82.12 112.231 82.12C111.911 82.12 111.751 81.9333 111.751 81.56C111.751 81.24 111.564 81.08 111.191 81.08C110.871 81.08 110.711 80.76 110.711 80.12C110.711 79.48 110.551 79.16 110.231 79.16C109.911 79.16 109.751 78.9733 109.751 78.6C109.751 78.28 109.591 78.12 109.271 78.12C109.058 78.12 108.924 78.04 108.871 77.88C108.818 77.72 108.791 77.32 108.791 76.68C108.791 76.04 108.764 75.6133 108.711 75.4C108.658 75.24 108.498 75.16 108.231 75.16C108.018 75.16 107.884 75.08 107.831 74.92C107.778 74.76 107.751 74.36 107.751 73.72C107.751 73.08 107.724 72.68 107.671 72.52C107.618 72.3067 107.484 72.2 107.271 72.2C107.058 72.2 106.924 71.96 106.871 71.48C106.818 71 106.791 69.4533 106.791 66.84C106.791 64.2267 106.818 62.68 106.871 62.2C106.924 61.6667 107.058 61.4 107.271 61.4C107.591 61.4 107.751 59.2667 107.751 55C107.751 50.7333 107.911 48.6 108.231 48.6C108.498 48.6 108.658 48.4667 108.711 48.2C108.764 47.88 108.791 47.0267 108.791 45.64C108.791 44.2 108.791 43.3467 108.791 43.08C108.844 42.8133 109.004 42.68 109.271 42.68C109.484 42.68 109.618 42.5733 109.671 42.36C109.724 42.1467 109.751 41.5867 109.751 40.68C109.751 39.7733 109.778 39.2133 109.831 39C109.884 38.7867 110.018 38.68 110.231 38.68C110.444 38.68 110.578 38.5733 110.631 38.36C110.684 38.1467 110.711 37.6133 110.711 36.76C110.711 35.8533 110.738 35.2933 110.791 35.08C110.844 34.8667 110.978 34.76 111.191 34.76C111.564 34.76 111.751 34.44 111.751 33.8C111.751 33.1067 111.911 32.76 112.231 32.76C112.444 32.76 112.578 32.68 112.631 32.52C112.684 32.36 112.711 31.96 112.711 31.32C112.711 30.6267 112.738 30.2 112.791 30.04C112.844 29.88 112.978 29.8 113.191 29.8C113.511 29.8 113.671 29.48 113.671 28.84C113.671 28.2 113.831 27.88 114.151 27.88C114.524 27.88 114.711 27.56 114.711 26.92C114.711 26.2267 114.871 25.88 115.191 25.88C115.511 25.88 115.671 25.56 115.671 24.92C115.671 24.2267 115.831 23.88 116.151 23.88C116.471 23.88 116.631 23.72 116.631 23.4C116.631 23.08 116.791 22.92 117.111 22.92C117.484 22.92 117.671 22.76 117.671 22.44C117.671 22.12 117.831 21.96 118.151 21.96C118.471 21.96 118.631 21.8 118.631 21.48C118.631 21.1067 118.791 20.92 119.111 20.92C119.431 20.92 119.591 20.76 119.591 20.44C119.591 20.12 119.751 19.96 120.071 19.96C120.444 19.96 120.631 19.8 120.631 19.48C120.631 19.16 120.951 19 121.591 19C122.231 19 122.551 18.84 122.551 18.52C122.551 18.1467 122.871 17.96 123.511 17.96C124.204 17.96 124.551 17.8 124.551 17.48ZM131.431 22.92C130.791 22.92 130.471 22.76 130.471 22.44C130.471 22.12 130.124 21.96 129.431 21.96C128.791 21.96 128.471 22.12 128.471 22.44C128.471 22.76 128.151 22.92 127.511 22.92C126.871 22.92 126.551 23.08 126.551 23.4C126.551 23.72 126.364 23.88 125.991 23.88C125.671 23.88 125.511 24.2267 125.511 24.92C125.511 25.56 125.351 25.88 125.031 25.88C124.711 25.88 124.551 26.2267 124.551 26.92C124.551 27.56 124.391 27.88 124.071 27.88C123.858 27.88 123.724 27.96 123.671 28.12C123.618 28.28 123.591 28.68 123.591 29.32C123.591 29.96 123.564 30.3867 123.511 30.6C123.458 30.76 123.298 30.84 123.031 30.84C122.818 30.84 122.684 30.92 122.631 31.08C122.578 31.24 122.551 31.64 122.551 32.28C122.551 32.92 122.524 33.3467 122.471 33.56C122.418 33.72 122.284 33.8 122.071 33.8C121.858 33.8 121.724 33.9067 121.671 34.12C121.618 34.28 121.591 34.8133 121.591 35.72C121.591 36.6267 121.564 37.1867 121.511 37.4C121.458 37.6133 121.324 37.72 121.111 37.72C120.898 37.72 120.764 37.8267 120.711 38.04C120.658 38.2533 120.631 38.8133 120.631 39.72C120.631 40.5733 120.604 41.1067 120.551 41.32C120.498 41.5333 120.338 41.64 120.071 41.64C119.858 41.64 119.724 41.7733 119.671 42.04C119.618 42.2533 119.591 42.9467 119.591 44.12C119.591 45.2933 119.564 46.0133 119.511 46.28C119.458 46.4933 119.324 46.6 119.111 46.6C118.898 46.6 118.764 46.8133 118.711 47.24C118.658 47.6133 118.631 48.8667 118.631 51C118.631 53.1333 118.604 54.4133 118.551 54.84C118.498 55.2667 118.338 55.48 118.071 55.48C117.858 55.48 117.724 55.88 117.671 56.68C117.671 57.48 117.671 60.2 117.671 64.84C117.671 69.48 117.671 72.2 117.671 73C117.724 73.8 117.884 74.2 118.151 74.2C118.364 74.2 118.498 74.28 118.551 74.44C118.604 74.6 118.631 75 118.631 75.64C118.631 76.3333 118.658 76.76 118.711 76.92C118.764 77.08 118.898 77.16 119.111 77.16C119.431 77.16 119.591 77.32 119.591 77.64C119.591 77.96 119.751 78.12 120.071 78.12C120.444 78.12 120.631 78.44 120.631 79.08C120.631 79.7733 120.791 80.12 121.111 80.12C121.431 80.12 121.591 80.28 121.591 80.6C121.591 80.92 121.751 81.08 122.071 81.08C122.391 81.08 122.551 81.4 122.551 82.04C122.551 82.7333 122.711 83.08 123.031 83.08C123.404 83.08 123.591 83.24 123.591 83.56C123.591 83.7733 123.671 83.9067 123.831 83.96C124.044 84.0133 124.604 84.04 125.511 84.04C126.418 84.04 126.978 84.0133 127.191 83.96C127.404 83.9067 127.511 83.7733 127.511 83.56C127.511 83.24 127.671 83.08 127.991 83.08C128.311 83.08 128.471 82.92 128.471 82.6C128.471 82.28 128.631 82.12 128.951 82.12C129.324 82.12 129.511 81.9333 129.511 81.56C129.511 81.24 129.671 81.08 129.991 81.08C130.311 81.08 130.471 80.92 130.471 80.6C130.471 80.28 130.631 80.12 130.951 80.12C131.271 80.12 131.431 79.7733 131.431 79.08C131.431 78.44 131.591 78.12 131.911 78.12C132.178 78.12 132.338 78.04 132.391 77.88C132.444 77.72 132.471 77.32 132.471 76.68C132.471 76.04 132.498 75.6133 132.551 75.4C132.604 75.24 132.738 75.16 132.951 75.16C133.271 75.16 133.431 74.84 133.431 74.2C133.431 73.56 133.591 73.24 133.911 73.24C134.124 73.24 134.258 73.16 134.311 73C134.364 72.84 134.391 72.44 134.391 71.8C134.391 71.1067 134.418 70.68 134.471 70.52C134.524 70.36 134.658 70.28 134.871 70.28C135.138 70.28 135.298 70.1733 135.351 69.96C135.404 69.7467 135.431 69.1867 135.431 68.28C135.431 67.3733 135.458 66.8133 135.511 66.6C135.564 66.3867 135.698 66.28 135.911 66.28C136.124 66.28 136.258 66.1467 136.311 65.88C136.364 65.6133 136.391 64.7867 136.391 63.4C136.391 61.96 136.418 61.1067 136.471 60.84C136.524 60.52 136.658 60.36 136.871 60.36C137.084 60.36 137.218 60.1467 137.271 59.72C137.324 59.24 137.351 57.8267 137.351 55.48C137.351 53.08 137.378 51.6667 137.431 51.24C137.484 50.76 137.618 50.52 137.831 50.52C138.098 50.52 138.258 50.1733 138.311 49.48C138.364 48.7333 138.391 46.3067 138.391 42.2C138.391 38.04 138.364 35.6133 138.311 34.92C138.258 34.1733 138.098 33.8 137.831 33.8C137.618 33.8 137.484 33.72 137.431 33.56C137.378 33.3467 137.351 32.92 137.351 32.28C137.351 31.64 137.324 31.24 137.271 31.08C137.218 30.92 137.084 30.84 136.871 30.84C136.658 30.84 136.524 30.76 136.471 30.6C136.418 30.3867 136.391 29.96 136.391 29.32C136.391 28.68 136.364 28.28 136.311 28.12C136.258 27.96 136.124 27.88 135.911 27.88C135.591 27.88 135.431 27.56 135.431 26.92C135.431 26.2267 135.244 25.88 134.871 25.88C134.551 25.88 134.391 25.72 134.391 25.4C134.391 25.08 134.231 24.92 133.911 24.92C133.591 24.92 133.431 24.76 133.431 24.44C133.431 24.0667 133.271 23.88 132.951 23.88C132.631 23.88 132.471 23.72 132.471 23.4C132.471 23.08 132.124 22.92 131.431 22.92ZM173.907 17.4C173.907 17.1333 175.667 17 179.187 17C182.707 17 184.467 17.1333 184.467 17.4C184.467 17.6667 184.734 17.8 185.267 17.8C185.801 17.8 186.067 17.9333 186.067 18.2C186.067 18.4667 186.334 18.6 186.867 18.6C187.401 18.6 187.667 18.7333 187.667 19C187.667 19.2667 187.934 19.4 188.467 19.4C189.001 19.4 189.267 19.5333 189.267 19.8C189.267 20.0667 189.401 20.2 189.667 20.2C189.987 20.2 190.147 20.36 190.147 20.68C190.147 20.9467 190.281 21.08 190.547 21.08C190.814 21.08 190.947 21.2133 190.947 21.48C190.947 21.7467 191.081 21.88 191.347 21.88C191.614 21.88 191.747 22.0133 191.747 22.28C191.747 22.5467 191.881 22.68 192.147 22.68C192.414 22.68 192.547 22.9467 192.547 23.48C192.547 24.0133 192.681 24.28 192.947 24.28C193.214 24.28 193.347 24.5467 193.347 25.08C193.347 25.6133 193.481 25.88 193.747 25.88C194.014 25.88 194.147 26.1467 194.147 26.68C194.147 27.2133 194.281 27.48 194.547 27.48C194.761 27.48 194.867 27.56 194.867 27.72C194.921 27.88 194.947 28.2267 194.947 28.76C194.947 29.2933 194.974 29.64 195.027 29.8C195.081 29.9067 195.187 29.96 195.347 29.96C195.614 29.96 195.747 30.2267 195.747 30.76C195.747 31.2933 195.881 31.56 196.147 31.56C196.361 31.56 196.494 31.64 196.547 31.8C196.601 31.96 196.627 32.4133 196.627 33.16C196.627 33.9067 196.627 34.36 196.627 34.52C196.681 34.68 196.787 34.76 196.947 34.76C197.161 34.76 197.294 34.8667 197.347 35.08C197.401 35.24 197.427 35.6933 197.427 36.44C197.427 37.1333 197.427 37.5867 197.427 37.8C197.481 37.96 197.587 38.04 197.747 38.04C197.961 38.04 198.094 38.2267 198.147 38.6C198.201 38.92 198.227 39.96 198.227 41.72C198.227 43.4267 198.227 44.4667 198.227 44.84C198.281 45.16 198.414 45.32 198.627 45.32C198.787 45.32 198.894 45.4 198.947 45.56C199.001 45.6667 199.027 45.9867 199.027 46.52C199.027 47.0533 199.001 47.4 198.947 47.56C198.894 47.6667 198.761 47.72 198.547 47.72C198.387 47.72 198.281 47.8533 198.227 48.12C198.227 48.3333 198.227 49.0267 198.227 50.2C198.227 51.32 198.201 52.0133 198.147 52.28C198.094 52.4933 197.961 52.6 197.747 52.6C197.587 52.6 197.481 52.68 197.427 52.84C197.427 53 197.427 53.4533 197.427 54.2C197.427 54.9467 197.401 55.4 197.347 55.56C197.294 55.72 197.161 55.8 196.947 55.8C196.787 55.8 196.681 55.88 196.627 56.04C196.627 56.1467 196.627 56.4933 196.627 57.08C196.627 57.6133 196.601 57.96 196.547 58.12C196.494 58.2267 196.361 58.28 196.147 58.28C195.987 58.28 195.881 58.36 195.827 58.52C195.774 58.6267 195.747 58.9467 195.747 59.48C195.747 60.0133 195.721 60.36 195.667 60.52C195.667 60.6267 195.561 60.68 195.347 60.68C195.081 60.68 194.947 60.9467 194.947 61.48C194.947 62.0133 194.814 62.28 194.547 62.28C194.281 62.28 194.147 62.5733 194.147 63.16C194.147 63.6933 194.014 63.96 193.747 63.96C193.481 63.96 193.347 64.2267 193.347 64.76C193.347 65.2933 193.214 65.56 192.947 65.56C192.681 65.56 192.547 65.8267 192.547 66.36C192.547 66.8933 192.414 67.16 192.147 67.16C191.881 67.16 191.747 67.4267 191.747 67.96C191.747 68.4933 191.614 68.76 191.347 68.76C191.081 68.76 190.947 69.0267 190.947 69.56C190.947 70.0933 190.814 70.36 190.547 70.36C190.281 70.36 190.147 70.52 190.147 70.84C190.147 71.1067 189.987 71.24 189.667 71.24C189.401 71.24 189.267 71.3733 189.267 71.64C189.267 71.9067 189.134 72.04 188.867 72.04C188.601 72.04 188.467 72.3067 188.467 72.84C188.467 73.3733 188.334 73.64 188.067 73.64C187.801 73.64 187.667 73.7733 187.667 74.04C187.667 74.3067 187.534 74.44 187.267 74.44C187.001 74.44 186.867 74.5733 186.867 74.84C186.867 75.1067 186.734 75.24 186.467 75.24C186.201 75.24 186.067 75.5067 186.067 76.04C186.067 76.5733 185.934 76.84 185.667 76.84C185.401 76.84 185.267 76.9733 185.267 77.24C185.267 77.5067 185.134 77.64 184.867 77.64C184.601 77.64 184.467 77.7733 184.467 78.04C184.467 78.36 184.334 78.52 184.067 78.52C183.801 78.52 183.667 78.6533 183.667 78.92C183.667 79.1867 183.534 79.32 183.267 79.32C183.001 79.32 182.867 79.4533 182.867 79.72C182.867 79.9867 182.707 80.12 182.387 80.12C182.121 80.12 181.987 80.2533 181.987 80.52C181.987 80.7867 181.854 80.92 181.587 80.92C181.321 80.92 181.187 81.0533 181.187 81.32C181.187 81.5867 181.054 81.72 180.787 81.72C180.521 81.72 180.387 81.8533 180.387 82.12C180.387 82.3867 180.254 82.52 179.987 82.52C179.721 82.52 179.587 82.6533 179.587 82.92C179.587 83.1867 179.454 83.32 179.187 83.32C178.921 83.32 178.787 83.4533 178.787 83.72C178.787 83.9867 178.521 84.12 177.987 84.12C177.454 84.12 177.187 84.2533 177.187 84.52C177.187 84.7867 177.054 84.92 176.787 84.92C176.521 84.92 176.387 85.0533 176.387 85.32C176.387 85.64 176.254 85.8 175.987 85.8C175.721 85.8 175.587 85.9333 175.587 86.2C175.587 86.4667 175.294 86.6 174.707 86.6C174.174 86.6 173.907 86.7333 173.907 87C173.907 87.2667 173.641 87.4 173.107 87.4C172.574 87.4 172.307 87.5333 172.307 87.8C172.307 87.96 172.227 88.0667 172.067 88.12C171.907 88.1733 171.454 88.2 170.707 88.2C169.961 88.2 169.507 88.2267 169.347 88.28C169.187 88.3333 169.107 88.44 169.107 88.6C169.107 88.8133 168.921 88.92 168.547 88.92C168.227 88.9733 167.187 89 165.427 89C163.667 89 162.627 88.9733 162.307 88.92C161.987 88.92 161.827 88.8133 161.827 88.6C161.827 88.3333 161.534 88.2 160.947 88.2C160.414 88.2 160.147 88.0667 160.147 87.8C160.147 87.5333 159.881 87.4 159.347 87.4C158.814 87.4 158.547 87.2667 158.547 87C158.547 86.7333 158.414 86.6 158.147 86.6C157.881 86.6 157.747 86.4667 157.747 86.2C157.747 85.9333 157.614 85.8 157.347 85.8C157.134 85.8 157.001 85.64 156.947 85.32C156.947 85 156.947 84.0667 156.947 82.52C156.947 80.9733 156.947 80.04 156.947 79.72C157.001 79.4533 157.134 79.32 157.347 79.32C157.561 79.32 157.667 79 157.667 78.36C157.721 77.7733 157.747 75.8 157.747 72.44C157.747 69.0267 157.747 67.0267 157.747 66.44C157.801 65.8533 157.934 65.56 158.147 65.56C158.361 65.56 158.467 65.1867 158.467 64.44C158.521 63.6933 158.547 61.24 158.547 57.08C158.547 52.8667 158.574 50.3867 158.627 49.64C158.681 48.8933 158.787 48.52 158.947 48.52C159.161 48.52 159.267 48.3333 159.267 47.96C159.321 47.5333 159.347 46.2533 159.347 44.12C159.347 41.9867 159.374 40.7067 159.427 40.28C159.481 39.8533 159.587 39.64 159.747 39.64C159.961 39.64 160.067 39.5067 160.067 39.24C160.121 38.92 160.147 37.9867 160.147 36.44C160.147 34.8933 160.174 33.96 160.227 33.64C160.281 33.32 160.387 33.16 160.547 33.16C160.761 33.16 160.894 33.08 160.947 32.92C161.001 32.76 161.027 32.3067 161.027 31.56C161.027 30.8133 161.027 30.36 161.027 30.2C161.081 30.04 161.214 29.96 161.427 29.96C161.694 29.96 161.827 29.6933 161.827 29.16C161.827 28.6267 161.961 28.36 162.227 28.36C162.494 28.36 162.627 28.0933 162.627 27.56C162.627 26.9733 162.761 26.68 163.027 26.68C163.294 26.68 163.427 26.4133 163.427 25.88C163.427 25.3467 163.561 25.08 163.827 25.08C164.094 25.08 164.227 24.8133 164.227 24.28C164.227 23.7467 164.361 23.48 164.627 23.48C164.894 23.48 165.027 23.3467 165.027 23.08C165.027 22.8133 165.161 22.68 165.427 22.68C165.694 22.68 165.827 22.5467 165.827 22.28C165.827 22.0133 165.961 21.88 166.227 21.88C166.494 21.88 166.627 21.7467 166.627 21.48C166.627 21.2133 166.761 21.08 167.027 21.08C167.294 21.08 167.427 20.9467 167.427 20.68C167.427 20.36 167.561 20.2 167.827 20.2C168.147 20.2 168.307 20.0667 168.307 19.8C168.307 19.5333 168.574 19.4 169.107 19.4C169.641 19.4 169.907 19.2667 169.907 19C169.907 18.7333 170.174 18.6 170.707 18.6C171.241 18.6 171.507 18.4667 171.507 18.2C171.507 18.04 171.561 17.9333 171.667 17.88C171.827 17.8267 172.174 17.8 172.707 17.8C173.241 17.8 173.561 17.7733 173.667 17.72C173.827 17.6667 173.907 17.56 173.907 17.4ZM180.387 20.68C180.387 20.4667 180.307 20.3333 180.147 20.28C179.987 20.2267 179.534 20.2 178.787 20.2C178.041 20.2 177.587 20.2267 177.427 20.28C177.267 20.3333 177.187 20.4667 177.187 20.68C177.187 20.9467 176.921 21.08 176.387 21.08C175.854 21.08 175.587 21.2133 175.587 21.48C175.587 21.7467 175.427 21.88 175.107 21.88C174.841 21.88 174.707 22.0133 174.707 22.28C174.707 22.5467 174.574 22.68 174.307 22.68C174.041 22.68 173.907 22.8133 173.907 23.08C173.907 23.3467 173.774 23.48 173.507 23.48C173.241 23.48 173.107 23.6133 173.107 23.88C173.107 24.1467 172.974 24.28 172.707 24.28C172.441 24.28 172.307 24.5467 172.307 25.08C172.307 25.6133 172.174 25.88 171.907 25.88C171.641 25.88 171.507 26.0133 171.507 26.28C171.507 26.5467 171.374 26.68 171.107 26.68C170.841 26.68 170.707 26.9733 170.707 27.56C170.707 28.0933 170.574 28.36 170.307 28.36C170.094 28.36 169.961 28.6533 169.907 29.24C169.907 29.8267 169.907 31.8267 169.907 35.24C169.907 38.6 169.881 40.5733 169.827 41.16C169.827 41.7467 169.721 42.04 169.507 42.04C169.294 42.04 169.161 42.3333 169.107 42.92C169.107 43.5067 169.107 45.4 169.107 48.6C169.107 51.7467 169.081 53.6133 169.027 54.2C168.974 54.7333 168.841 55 168.627 55C168.467 55 168.361 55.2133 168.307 55.64C168.307 56.0667 168.307 57.3467 168.307 59.48C168.307 61.6133 168.281 62.8933 168.227 63.32C168.174 63.7467 168.041 63.96 167.827 63.96C167.667 63.96 167.561 64.0933 167.507 64.36C167.454 64.6267 167.427 65.4267 167.427 66.76C167.427 68.6267 167.294 69.56 167.027 69.56C166.867 69.56 166.761 69.72 166.707 70.04C166.654 70.36 166.627 71.2933 166.627 72.84C166.627 74.3867 166.601 75.2933 166.547 75.56C166.547 75.88 166.441 76.04 166.227 76.04C166.067 76.04 165.961 76.1733 165.907 76.44C165.854 76.7067 165.827 77.5067 165.827 78.84C165.827 80.2267 165.801 81.0533 165.747 81.32C165.747 81.5867 165.641 81.72 165.427 81.72C165.161 81.72 165.027 81.9867 165.027 82.52V83.32H166.227C166.761 83.32 167.081 83.2933 167.187 83.24C167.347 83.24 167.427 83.1333 167.427 82.92C167.427 82.6533 167.694 82.52 168.227 82.52C168.814 82.52 169.107 82.3867 169.107 82.12C169.107 81.8533 169.241 81.72 169.507 81.72C169.774 81.72 169.907 81.5867 169.907 81.32C169.907 81.0533 170.041 80.92 170.307 80.92C170.574 80.92 170.707 80.7867 170.707 80.52C170.707 80.2533 170.841 80.12 171.107 80.12C171.374 80.12 171.507 79.9867 171.507 79.72C171.507 79.4533 171.641 79.32 171.907 79.32C172.174 79.32 172.307 79.1867 172.307 78.92C172.307 78.6533 172.441 78.52 172.707 78.52C172.974 78.52 173.107 78.36 173.107 78.04C173.107 77.7733 173.241 77.64 173.507 77.64C173.774 77.64 173.907 77.5067 173.907 77.24C173.907 76.9733 174.041 76.84 174.307 76.84C174.574 76.84 174.707 76.7067 174.707 76.44C174.707 76.1733 174.841 76.04 175.107 76.04C175.427 76.04 175.587 75.9067 175.587 75.64C175.587 75.3733 175.721 75.24 175.987 75.24C176.254 75.24 176.387 75.1067 176.387 74.84C176.387 74.5733 176.521 74.44 176.787 74.44C177.054 74.44 177.187 74.3067 177.187 74.04C177.187 73.7733 177.321 73.64 177.587 73.64C177.854 73.64 177.987 73.5067 177.987 73.24C177.987 72.9733 178.121 72.84 178.387 72.84C178.654 72.84 178.787 72.5733 178.787 72.04C178.787 71.5067 178.921 71.24 179.187 71.24C179.454 71.24 179.587 71.1067 179.587 70.84C179.587 70.52 179.721 70.36 179.987 70.36C180.254 70.36 180.387 70.2267 180.387 69.96C180.387 69.6933 180.521 69.56 180.787 69.56C181.054 69.56 181.187 69.2933 181.187 68.76C181.187 68.2267 181.321 67.96 181.587 67.96C181.854 67.96 181.987 67.6933 181.987 67.16C181.987 66.6267 182.121 66.36 182.387 66.36C182.707 66.36 182.867 66.2267 182.867 65.96C182.867 65.6933 183.001 65.56 183.267 65.56C183.534 65.56 183.667 65.2933 183.667 64.76C183.667 64.2267 183.801 63.96 184.067 63.96C184.334 63.96 184.467 63.6933 184.467 63.16C184.467 62.5733 184.601 62.28 184.867 62.28C185.027 62.28 185.134 62.2267 185.187 62.12C185.241 61.96 185.267 61.6133 185.267 61.08C185.267 60.5467 185.294 60.2267 185.347 60.12C185.401 59.96 185.507 59.88 185.667 59.88C185.934 59.88 186.067 59.6133 186.067 59.08C186.067 58.5467 186.201 58.28 186.467 58.28C186.627 58.28 186.734 58.2267 186.787 58.12C186.841 57.96 186.867 57.6133 186.867 57.08C186.867 56.4933 186.894 56.1467 186.947 56.04C187.001 55.88 187.107 55.8 187.267 55.8C187.481 55.8 187.587 55.7467 187.587 55.64C187.641 55.48 187.667 55.1333 187.667 54.6C187.667 54.0667 187.694 53.7467 187.747 53.64C187.801 53.48 187.907 53.4 188.067 53.4C188.281 53.4 188.387 53.32 188.387 53.16C188.441 52.9467 188.467 52.36 188.467 51.4C188.467 50.44 188.494 49.8533 188.547 49.64C188.601 49.4267 188.707 49.32 188.867 49.32C189.081 49.32 189.187 49.0533 189.187 48.52C189.241 47.9333 189.267 46.0667 189.267 42.92C189.267 39.72 189.241 37.8533 189.187 37.32C189.187 36.7333 189.081 36.44 188.867 36.44C188.707 36.44 188.601 36.36 188.547 36.2C188.494 35.9867 188.467 35.5333 188.467 34.84C188.467 34.0933 188.441 33.64 188.387 33.48C188.387 33.2667 188.281 33.16 188.067 33.16C187.907 33.16 187.801 33.1067 187.747 33C187.694 32.84 187.667 32.4933 187.667 31.96C187.667 31.4267 187.641 31.1067 187.587 31C187.587 30.84 187.481 30.76 187.267 30.76C187.107 30.76 187.001 30.7067 186.947 30.6C186.894 30.44 186.867 30.0933 186.867 29.56C186.867 29.0267 186.841 28.7067 186.787 28.6C186.734 28.44 186.627 28.36 186.467 28.36C186.201 28.36 186.067 28.0933 186.067 27.56C186.067 26.9733 185.934 26.68 185.667 26.68C185.401 26.68 185.267 26.4133 185.267 25.88C185.267 25.3467 185.134 25.08 184.867 25.08C184.601 25.08 184.467 24.8133 184.467 24.28C184.467 23.7467 184.334 23.48 184.067 23.48C183.801 23.48 183.667 23.3467 183.667 23.08C183.667 22.8133 183.534 22.68 183.267 22.68C183.001 22.68 182.867 22.5467 182.867 22.28C182.867 22.0133 182.574 21.88 181.987 21.88C181.454 21.88 181.187 21.7467 181.187 21.48C181.187 21.2133 181.054 21.08 180.787 21.08C180.521 21.08 180.387 20.9467 180.387 20.68ZM222.944 17.96C223.318 17.96 223.504 17.8 223.504 17.48C223.504 17.16 223.824 17 224.464 17C225.104 17 225.424 17.16 225.424 17.48C225.424 17.8 225.584 17.96 225.904 17.96C226.278 17.96 226.464 18.1467 226.464 18.52C226.464 18.84 226.624 19 226.944 19C227.158 19 227.291 19.3733 227.344 20.12C227.398 20.8667 227.424 23.4533 227.424 27.88C227.424 32.2533 227.398 34.84 227.344 35.64C227.291 36.3867 227.158 36.76 226.944 36.76C226.678 36.76 226.518 36.8933 226.464 37.16C226.464 37.4267 226.464 38.28 226.464 39.72C226.464 41.1067 226.438 41.96 226.384 42.28C226.331 42.5467 226.171 42.68 225.904 42.68C225.691 42.68 225.558 42.8133 225.504 43.08C225.451 43.2933 225.424 43.9867 225.424 45.16C225.424 46.28 225.398 46.9733 225.344 47.24C225.291 47.4533 225.158 47.56 224.944 47.56C224.731 47.56 224.598 47.64 224.544 47.8C224.491 47.96 224.464 48.3867 224.464 49.08C224.464 49.72 224.438 50.12 224.384 50.28C224.331 50.44 224.198 50.52 223.984 50.52C223.771 50.52 223.638 50.6267 223.584 50.84C223.531 51.0533 223.504 51.6133 223.504 52.52C223.504 53.4267 223.478 53.9867 223.424 54.2C223.371 54.36 223.211 54.44 222.944 54.44C222.731 54.44 222.598 54.5467 222.544 54.76C222.491 54.92 222.464 55.32 222.464 55.96C222.464 56.6 222.438 57 222.384 57.16C222.331 57.32 222.198 57.4 221.984 57.4C221.771 57.4 221.638 57.5067 221.584 57.72C221.531 57.88 221.504 58.28 221.504 58.92C221.504 59.56 221.478 59.96 221.424 60.12C221.371 60.28 221.238 60.36 221.024 60.36C220.811 60.36 220.678 60.4667 220.624 60.68C220.571 60.84 220.544 61.24 220.544 61.88C220.544 62.52 220.518 62.92 220.464 63.08C220.411 63.24 220.251 63.32 219.984 63.32C219.771 63.32 219.638 63.4267 219.584 63.64C219.531 63.8 219.504 64.2 219.504 64.84C219.504 65.48 219.478 65.88 219.424 66.04C219.371 66.2 219.238 66.28 219.024 66.28C218.811 66.28 218.678 66.3867 218.624 66.6C218.571 66.76 218.544 67.16 218.544 67.8C218.544 68.44 218.518 68.84 218.464 69C218.411 69.16 218.278 69.24 218.064 69.24C217.851 69.24 217.718 69.3467 217.664 69.56C217.611 69.72 217.584 70.12 217.584 70.76C217.584 71.4 217.558 71.8 217.504 71.96C217.451 72.12 217.291 72.2 217.024 72.2C216.811 72.2 216.678 72.3067 216.624 72.52C216.571 72.68 216.544 73.08 216.544 73.72C216.544 74.36 216.518 74.76 216.464 74.92C216.411 75.08 216.278 75.16 216.064 75.16C215.851 75.16 215.718 75.24 215.664 75.4C215.611 75.6133 215.584 76.04 215.584 76.68C215.584 77.32 215.558 77.72 215.504 77.88C215.451 78.04 215.318 78.12 215.104 78.12C214.891 78.12 214.758 78.2 214.704 78.36C214.651 78.5733 214.624 79 214.624 79.64C214.624 80.28 214.598 80.68 214.544 80.84C214.491 81 214.331 81.08 214.064 81.08C213.851 81.08 213.718 81.16 213.664 81.32C213.611 81.5333 213.584 81.96 213.584 82.6V84.04H225.424C231.291 84.04 234.731 84.0133 235.744 83.96C236.758 83.96 237.264 83.8267 237.264 83.56C237.264 83.3467 237.478 83.2133 237.904 83.16C238.331 83.1067 239.611 83.08 241.744 83.08C243.878 83.08 245.131 83.0533 245.504 83C245.931 82.9467 246.144 82.8133 246.144 82.6C246.144 82.3867 246.251 82.2533 246.464 82.2C246.731 82.1467 247.451 82.12 248.624 82.12C249.798 82.12 250.491 82.1467 250.704 82.2C250.971 82.2533 251.104 82.3867 251.104 82.6C251.104 82.92 251.264 83.08 251.584 83.08C251.904 83.08 252.064 83.4 252.064 84.04V85.08H251.104C250.411 85.08 250.064 85.24 250.064 85.56C250.064 85.7733 249.958 85.9067 249.744 85.96C249.584 86.0133 249.051 86.04 248.144 86.04C247.238 86.04 246.678 86.0667 246.464 86.12C246.251 86.1733 246.144 86.3067 246.144 86.52C246.144 86.7867 245.478 86.92 244.144 86.92C242.811 86.9733 238.224 87 230.384 87C222.544 87 217.958 87.0267 216.624 87.08C215.291 87.1333 214.624 87.2933 214.624 87.56C214.624 87.7733 214.518 87.9067 214.304 87.96C214.091 88.0133 213.531 88.04 212.624 88.04C211.718 88.04 211.158 88.0667 210.944 88.12C210.731 88.1733 210.624 88.3067 210.624 88.52C210.624 88.7333 210.491 88.8667 210.224 88.92C210.011 88.9733 209.318 89 208.144 89C207.024 89 206.331 88.9733 206.064 88.92C205.851 88.8667 205.744 88.7333 205.744 88.52C205.744 88.2 205.558 88.04 205.184 88.04C204.864 88.04 204.704 87.8533 204.704 87.48C204.704 87.16 204.544 87 204.224 87C204.011 87 203.878 86.92 203.824 86.76C203.771 86.6 203.744 86.2 203.744 85.56C203.744 84.92 203.771 84.4933 203.824 84.28C203.878 84.12 204.011 84.04 204.224 84.04C204.491 84.04 204.624 83.9067 204.624 83.64C204.678 83.4267 204.704 82.7333 204.704 81.56C204.704 80.44 204.731 79.7467 204.784 79.48C204.838 79.2667 204.971 79.16 205.184 79.16C205.451 79.16 205.611 79.0533 205.664 78.84C205.718 78.6267 205.744 78.0667 205.744 77.16C205.744 76.2533 205.771 75.6933 205.824 75.48C205.878 75.2667 206.011 75.16 206.224 75.16C206.438 75.16 206.571 75.0533 206.624 74.84C206.678 74.68 206.704 74.1467 206.704 73.24C206.704 72.3333 206.731 71.7733 206.784 71.56C206.838 71.3467 206.971 71.24 207.184 71.24C207.398 71.24 207.531 71.1333 207.584 70.92C207.638 70.7067 207.664 70.1733 207.664 69.32C207.664 68.4133 207.691 67.8533 207.744 67.64C207.798 67.4267 207.931 67.32 208.144 67.32C208.411 67.32 208.571 67.24 208.624 67.08C208.678 66.92 208.704 66.52 208.704 65.88C208.704 65.1867 208.731 64.76 208.784 64.6C208.838 64.44 208.971 64.36 209.184 64.36C209.398 64.36 209.531 64.2533 209.584 64.04C209.638 63.8267 209.664 63.2667 209.664 62.36C209.664 61.4533 209.691 60.8933 209.744 60.68C209.798 60.4667 209.931 60.36 210.144 60.36C210.358 60.36 210.491 60.28 210.544 60.12C210.598 59.96 210.624 59.56 210.624 58.92C210.624 58.28 210.651 57.88 210.704 57.72C210.758 57.5067 210.891 57.4 211.104 57.4C211.371 57.4 211.531 57.32 211.584 57.16C211.638 57 211.664 56.6 211.664 55.96C211.664 55.32 211.691 54.92 211.744 54.76C211.798 54.5467 211.931 54.44 212.144 54.44C212.358 54.44 212.491 54.36 212.544 54.2C212.598 54.04 212.624 53.64 212.624 53C212.624 52.36 212.651 51.96 212.704 51.8C212.758 51.64 212.891 51.56 213.104 51.56C213.318 51.56 213.451 51.48 213.504 51.32C213.558 51.1067 213.584 50.68 213.584 50.04C213.584 49.4 213.611 49 213.664 48.84C213.718 48.68 213.851 48.6 214.064 48.6C214.331 48.6 214.491 48.52 214.544 48.36C214.598 48.1467 214.624 47.72 214.624 47.08C214.624 46.44 214.651 46.04 214.704 45.88C214.758 45.72 214.891 45.64 215.104 45.64C215.318 45.64 215.451 45.56 215.504 45.4C215.558 45.1867 215.584 44.76 215.584 44.12C215.584 43.48 215.611 43.08 215.664 42.92C215.718 42.76 215.851 42.68 216.064 42.68C216.278 42.68 216.411 42.5733 216.464 42.36C216.518 42.1467 216.544 41.5867 216.544 40.68C216.544 39.7733 216.571 39.2133 216.624 39C216.678 38.7867 216.811 38.68 217.024 38.68C217.291 38.68 217.451 38.5733 217.504 38.36C217.558 38.1467 217.584 37.6133 217.584 36.76C217.584 35.8533 217.611 35.2933 217.664 35.08C217.718 34.8667 217.851 34.76 218.064 34.76C218.278 34.76 218.411 34.6533 218.464 34.44C218.518 34.1733 218.544 33.4533 218.544 32.28C218.544 31.1067 218.571 30.4133 218.624 30.2C218.678 29.9333 218.811 29.8 219.024 29.8C219.238 29.8 219.371 29.6933 219.424 29.48C219.478 29.2133 219.504 28.52 219.504 27.4C219.504 26.2267 219.531 25.5333 219.584 25.32C219.638 25.0533 219.771 24.92 219.984 24.92C220.251 24.92 220.411 24.84 220.464 24.68C220.518 24.4667 220.544 24.04 220.544 23.4C220.544 22.76 220.571 22.36 220.624 22.2C220.678 22.04 220.811 21.96 221.024 21.96C221.238 21.96 221.371 21.88 221.424 21.72C221.478 21.5067 221.504 21.08 221.504 20.44C221.504 19.8 221.531 19.4 221.584 19.24C221.638 19.08 221.771 19 221.984 19C222.304 19 222.464 18.84 222.464 18.52C222.464 18.1467 222.624 17.96 222.944 17.96ZM273.989 17.48C273.989 17.2133 274.416 17.08 275.269 17.08C276.176 17.0267 279.189 17 284.309 17H294.629V17.88C294.629 18.52 294.469 18.84 294.149 18.84C293.883 18.84 293.749 19 293.749 19.32C293.749 19.5867 293.456 19.72 292.869 19.72C292.283 19.72 291.989 19.8533 291.989 20.12C291.989 20.3333 291.776 20.4667 291.349 20.52C290.976 20.5733 289.829 20.6 287.909 20.6C285.989 20.6 284.843 20.6267 284.469 20.68C284.096 20.7333 283.909 20.8667 283.909 21.08C283.909 21.2933 283.696 21.4267 283.269 21.48C282.896 21.48 281.749 21.48 279.829 21.48C277.909 21.48 276.736 21.5067 276.309 21.56C275.936 21.6133 275.749 21.7467 275.749 21.96C275.749 22.1733 275.669 22.3067 275.509 22.36C275.403 22.36 275.029 22.36 274.389 22.36C273.803 22.36 273.429 22.3867 273.269 22.44C273.109 22.4933 273.029 22.6267 273.029 22.84C273.029 23.16 272.869 23.32 272.549 23.32C272.283 23.32 272.149 23.48 272.149 23.8C272.149 24.0667 271.989 24.2 271.669 24.2C271.403 24.2 271.269 24.36 271.269 24.68C271.269 24.9467 271.109 25.08 270.789 25.08C270.523 25.08 270.389 25.4 270.389 26.04C270.389 26.6267 270.229 26.92 269.909 26.92C269.696 26.92 269.563 27.1867 269.509 27.72C269.456 28.2533 269.429 30.0933 269.429 33.24C269.429 36.3333 269.403 38.1467 269.349 38.68C269.349 39.2133 269.243 39.48 269.029 39.48C268.816 39.48 268.683 39.6933 268.629 40.12C268.576 40.5467 268.549 41.8533 268.549 44.04C268.549 46.1733 268.523 47.4533 268.469 47.88C268.469 48.3067 268.363 48.52 268.149 48.52C267.936 48.52 267.803 48.68 267.749 49C267.696 49.2667 267.669 50.1467 267.669 51.64V54.84H269.429C270.283 54.84 270.789 54.8133 270.949 54.76C271.163 54.7067 271.269 54.5733 271.269 54.36C271.269 54.1467 271.456 54.0133 271.829 53.96C272.203 53.9067 273.349 53.88 275.269 53.88C277.243 53.88 278.416 53.88 278.789 53.88C279.163 53.8267 279.349 53.6933 279.349 53.48C279.349 53.2667 279.509 53.1333 279.829 53.08C280.149 53.0267 281.056 53 282.549 53C284.043 53 284.923 52.9733 285.189 52.92C285.509 52.8667 285.669 52.7333 285.669 52.52C285.669 52.36 285.749 52.2533 285.909 52.2C286.069 52.1467 286.443 52.12 287.029 52.12C287.616 52.12 287.989 52.1467 288.149 52.2C288.309 52.2533 288.389 52.36 288.389 52.52C288.389 52.84 288.523 53 288.789 53C289.109 53 289.269 53.16 289.269 53.48C289.269 53.7467 289.109 53.88 288.789 53.88C288.523 53.88 288.389 54.04 288.389 54.36C288.389 54.68 288.069 54.84 287.429 54.84C286.843 54.84 286.549 54.9733 286.549 55.24C286.549 55.4533 286.469 55.5867 286.309 55.64C286.203 55.6933 285.829 55.72 285.189 55.72C284.603 55.72 284.229 55.7467 284.069 55.8C283.963 55.8533 283.909 55.9867 283.909 56.2C283.909 56.36 283.829 56.4667 283.669 56.52C283.509 56.5733 283.109 56.6 282.469 56.6C281.883 56.6 281.509 56.6267 281.349 56.68C281.243 56.7333 281.189 56.8667 281.189 57.08C281.189 57.2933 281.056 57.4267 280.789 57.48C280.523 57.48 279.749 57.48 278.469 57.48C277.189 57.48 276.416 57.5067 276.149 57.56C275.883 57.6133 275.749 57.7467 275.749 57.96C275.749 58.1733 275.563 58.3067 275.189 58.36C274.816 58.36 273.643 58.36 271.669 58.36C269.749 58.36 268.603 58.3867 268.229 58.44C267.856 58.4933 267.669 58.6267 267.669 58.84C267.669 59.16 267.509 59.32 267.189 59.32C266.976 59.32 266.843 59.56 266.789 60.04C266.789 60.4667 266.789 61.88 266.789 64.28C266.789 66.6267 266.763 68.04 266.709 68.52C266.656 68.9467 266.523 69.16 266.309 69.16C266.096 69.16 265.963 69.32 265.909 69.64C265.856 69.96 265.829 70.8667 265.829 72.36C265.829 73.8533 265.856 74.7333 265.909 75C265.963 75.32 266.096 75.48 266.309 75.48C266.523 75.48 266.656 75.6133 266.709 75.88C266.763 76.1467 266.789 76.92 266.789 78.2C266.789 79.48 266.789 80.2533 266.789 80.52C266.843 80.7867 266.976 80.92 267.189 80.92C267.509 80.92 267.669 81.0533 267.669 81.32C267.669 81.64 267.803 81.8 268.069 81.8C268.389 81.8 268.549 82.0933 268.549 82.68V83.56H269.429C270.069 83.56 270.389 83.72 270.389 84.04C270.389 84.36 270.683 84.52 271.269 84.52C271.856 84.52 272.149 84.6533 272.149 84.92C272.149 85.1333 272.309 85.2667 272.629 85.32C273.003 85.3733 274.043 85.4 275.749 85.4C277.456 85.4 278.469 85.3733 278.789 85.32C279.163 85.2667 279.349 85.1333 279.349 84.92C279.349 84.7067 279.483 84.5733 279.749 84.52C280.016 84.52 280.789 84.52 282.069 84.52C283.349 84.52 284.123 84.4933 284.389 84.44C284.656 84.3867 284.789 84.2533 284.789 84.04C284.789 83.8267 284.869 83.6933 285.029 83.64C285.243 83.5867 285.749 83.56 286.549 83.56C287.403 83.56 287.909 83.5333 288.069 83.48C288.283 83.48 288.389 83.3733 288.389 83.16C288.389 82.9467 288.496 82.8133 288.709 82.76C288.923 82.7067 289.563 82.68 290.629 82.68C291.696 82.68 292.336 82.6533 292.549 82.6C292.763 82.6 292.869 82.4933 292.869 82.28C292.869 81.96 293.163 81.8 293.749 81.8C294.336 81.8 294.629 81.9333 294.629 82.2C294.629 82.52 294.789 82.68 295.109 82.68C295.429 82.68 295.589 82.9733 295.589 83.56V84.52H294.629C294.043 84.52 293.749 84.6533 293.749 84.92C293.749 85.24 293.456 85.4 292.869 85.4C292.283 85.4 291.989 85.56 291.989 85.88C291.989 86.04 291.909 86.1467 291.749 86.2C291.589 86.2533 291.216 86.28 290.629 86.28C290.043 86.28 289.669 86.3067 289.509 86.36C289.349 86.4133 289.269 86.5467 289.269 86.76C289.269 86.9733 289.163 87.1067 288.949 87.16C288.789 87.2133 288.283 87.24 287.429 87.24C286.629 87.24 286.123 87.24 285.909 87.24C285.749 87.2933 285.669 87.4267 285.669 87.64C285.669 87.8533 285.563 87.9867 285.349 88.04C285.189 88.0933 284.683 88.12 283.829 88.12C283.029 88.12 282.523 88.1467 282.309 88.2C282.149 88.2533 282.069 88.36 282.069 88.52C282.069 88.84 280.256 89 276.629 89C273.056 89 271.269 88.84 271.269 88.52C271.269 88.36 271.163 88.2533 270.949 88.2C270.789 88.1467 270.283 88.12 269.429 88.12C268.629 88.12 268.123 88.0933 267.909 88.04C267.749 87.9867 267.669 87.8533 267.669 87.64C267.669 87.4267 267.589 87.2933 267.429 87.24C267.269 87.24 266.896 87.24 266.309 87.24C265.723 87.24 265.349 87.2133 265.189 87.16C265.029 87.1067 264.949 86.9733 264.949 86.76C264.949 86.44 264.656 86.28 264.069 86.28C263.483 86.28 263.189 86.12 263.189 85.8C263.189 85.5333 263.029 85.4 262.709 85.4C262.389 85.4 262.229 85.24 262.229 84.92C262.229 84.6533 262.069 84.52 261.749 84.52C261.483 84.52 261.349 84.36 261.349 84.04C261.349 83.72 261.189 83.56 260.869 83.56C260.603 83.56 260.469 83.4 260.469 83.08C260.469 82.8133 260.309 82.68 259.989 82.68C259.723 82.68 259.589 82.3867 259.589 81.8C259.589 81.2133 259.429 80.92 259.109 80.92C258.789 80.92 258.629 80.6 258.629 79.96C258.629 79.3733 258.496 79.08 258.229 79.08C258.016 79.08 257.883 78.9733 257.829 78.76C257.776 78.6 257.749 78.0933 257.749 77.24C257.749 76.44 257.723 75.9333 257.669 75.72C257.616 75.56 257.509 75.48 257.349 75.48C257.083 75.48 256.923 75.08 256.869 74.28C256.869 73.48 256.869 70.76 256.869 66.12C256.869 61.4267 256.869 58.68 256.869 57.88C256.923 57.0267 257.056 56.6 257.269 56.6C257.536 56.6 257.669 56.4667 257.669 56.2C257.723 55.88 257.749 54.9733 257.749 53.48C257.749 51.9867 257.776 51.08 257.829 50.76C257.883 50.44 258.016 50.28 258.229 50.28C258.443 50.28 258.549 50.1467 258.549 49.88C258.603 49.6133 258.629 48.8667 258.629 47.64C258.629 46.36 258.656 45.5867 258.709 45.32C258.763 45.0533 258.896 44.92 259.109 44.92C259.323 44.92 259.456 44.7867 259.509 44.52C259.563 44.2533 259.589 43.48 259.589 42.2C259.589 40.92 259.589 40.1467 259.589 39.88C259.643 39.6133 259.776 39.48 259.989 39.48C260.203 39.48 260.336 39.4 260.389 39.24C260.443 39.0267 260.469 38.52 260.469 37.72C260.469 36.8667 260.496 36.36 260.549 36.2C260.603 35.9867 260.709 35.88 260.869 35.88C261.083 35.88 261.216 35.8 261.269 35.64C261.323 35.4267 261.349 34.92 261.349 34.12C261.349 33.2667 261.376 32.76 261.429 32.6C261.483 32.3867 261.616 32.28 261.829 32.28C262.043 32.28 262.149 32.1733 262.149 31.96C262.203 31.7467 262.229 31.1067 262.229 30.04C262.229 28.9733 262.256 28.3333 262.309 28.12C262.363 27.9067 262.496 27.8 262.709 27.8C262.923 27.8 263.056 27.72 263.109 27.56C263.163 27.3467 263.189 26.84 263.189 26.04C263.189 25.1867 263.216 24.68 263.269 24.52C263.323 24.3067 263.429 24.2 263.589 24.2C263.909 24.2 264.069 23.9067 264.069 23.32C264.069 22.68 264.203 22.36 264.469 22.36C264.789 22.36 264.949 22.0667 264.949 21.48C264.949 20.8933 265.083 20.6 265.349 20.6C265.669 20.6 265.829 20.4667 265.829 20.2C265.829 19.88 266.123 19.72 266.709 19.72C267.349 19.72 267.669 19.56 267.669 19.24C267.669 19.0267 267.749 18.92 267.909 18.92C268.069 18.8667 268.443 18.84 269.029 18.84C269.616 18.84 269.989 18.8133 270.149 18.76C270.309 18.7067 270.389 18.5733 270.389 18.36C270.389 18.1467 270.469 18.0133 270.629 17.96C270.843 17.9067 271.349 17.88 272.149 17.88C273.003 17.88 273.509 17.8533 273.669 17.8C273.883 17.7467 273.989 17.64 273.989 17.48ZM323.667 17.48C323.667 17.2667 323.853 17.1333 324.227 17.08C324.653 17.0267 325.827 17 327.747 17C329.667 17 330.813 17.0267 331.187 17.08C331.613 17.1333 331.827 17.2667 331.827 17.48C331.827 17.64 331.88 17.7467 331.987 17.8C332.147 17.8533 332.52 17.88 333.107 17.88C333.747 17.88 334.12 17.9067 334.227 17.96C334.387 18.0133 334.467 18.1467 334.467 18.36C334.467 18.68 334.76 18.84 335.347 18.84C335.987 18.84 336.307 19 336.307 19.32C336.307 19.5867 336.44 19.72 336.707 19.72C337.027 19.72 337.187 19.88 337.187 20.2C337.187 20.4667 337.32 20.6 337.587 20.6C337.907 20.6 338.067 20.76 338.067 21.08C338.067 21.3467 338.227 21.48 338.547 21.48C338.76 21.48 338.893 21.6133 338.947 21.88C339 22.0933 339.027 22.7333 339.027 23.8C339.027 24.8133 339 25.4267 338.947 25.64C338.893 25.8533 338.76 25.96 338.547 25.96C338.227 25.96 338.067 26.12 338.067 26.44C338.067 26.76 337.907 26.92 337.587 26.92C337.32 26.92 337.187 27.08 337.187 27.4C337.187 27.6667 336.893 27.8 336.307 27.8C335.72 27.8 335.427 27.6667 335.427 27.4C335.427 27.08 335.267 26.92 334.947 26.92C334.627 26.92 334.467 26.76 334.467 26.44C334.467 26.12 334.307 25.96 333.987 25.96C333.72 25.96 333.587 25.8267 333.587 25.56C333.587 25.24 333.427 25.08 333.107 25.08C332.84 25.08 332.707 24.9467 332.707 24.68C332.707 24.36 332.547 24.2 332.227 24.2C331.96 24.2 331.827 23.9067 331.827 23.32V22.36H330.867C330.28 22.36 329.987 22.2267 329.987 21.96C329.987 21.64 329.827 21.48 329.507 21.48C329.24 21.48 329.107 21.3467 329.107 21.08C329.107 20.76 328.813 20.6 328.227 20.6C327.64 20.6 327.347 20.76 327.347 21.08C327.347 21.3467 327.027 21.48 326.387 21.48C325.8 21.48 325.507 21.64 325.507 21.96C325.507 22.2267 325.187 22.36 324.547 22.36C323.96 22.36 323.667 22.52 323.667 22.84C323.667 23.16 323.507 23.32 323.187 23.32C322.92 23.32 322.787 23.48 322.787 23.8C322.787 24.0667 322.627 24.2 322.307 24.2C322.04 24.2 321.907 24.36 321.907 24.68C321.907 24.9467 321.747 25.08 321.427 25.08C321.16 25.08 321.027 25.24 321.027 25.56C321.027 25.8267 320.867 25.96 320.547 25.96C320.227 25.96 320.067 26.28 320.067 26.92C320.067 27.5067 319.907 27.8 319.587 27.8C319.32 27.8 319.187 27.96 319.187 28.28C319.187 28.5467 319.027 28.68 318.707 28.68C318.44 28.68 318.307 29 318.307 29.64C318.307 30.2267 318.147 30.52 317.827 30.52C317.56 30.52 317.427 30.8133 317.427 31.4C317.427 31.9867 317.267 32.28 316.947 32.28C316.733 32.28 316.6 32.36 316.547 32.52C316.493 32.68 316.467 33.0533 316.467 33.64C316.467 34.2267 316.44 34.6 316.387 34.76C316.387 34.92 316.28 35 316.067 35C315.853 35 315.72 35.1067 315.667 35.32C315.613 35.48 315.587 35.9867 315.587 36.84C315.587 37.64 315.56 38.1467 315.507 38.36C315.453 38.52 315.32 38.6 315.107 38.6C314.947 38.6 314.84 38.76 314.787 39.08C314.733 39.3467 314.707 40.2267 314.707 41.72C314.707 43.2133 314.733 44.12 314.787 44.44C314.84 44.76 314.973 44.92 315.187 44.92C315.347 44.92 315.453 45 315.507 45.16C315.56 45.2667 315.587 45.64 315.587 46.28C315.587 46.8667 315.613 47.24 315.667 47.4C315.72 47.5067 315.853 47.56 316.067 47.56C316.333 47.56 316.467 47.72 316.467 48.04C316.467 48.36 316.627 48.52 316.947 48.52C317.267 48.52 317.427 48.68 317.427 49C317.427 49.2667 317.56 49.4 317.827 49.4C318.147 49.4 318.307 49.56 318.307 49.88C318.307 50.1467 318.44 50.28 318.707 50.28C319.027 50.28 319.187 50.44 319.187 50.76C319.187 51.08 319.32 51.24 319.587 51.24C319.907 51.24 320.067 51.4 320.067 51.72C320.067 51.9867 320.227 52.12 320.547 52.12C320.867 52.12 321.027 52.28 321.027 52.6C321.027 52.8667 321.16 53 321.427 53C321.747 53 321.907 53.16 321.907 53.48C321.907 53.7467 322.2 53.88 322.787 53.88C323.373 53.88 323.667 54.04 323.667 54.36C323.667 54.68 323.827 54.84 324.147 54.84C324.467 54.84 324.627 55 324.627 55.32C324.627 55.5867 324.76 55.72 325.027 55.72C325.347 55.72 325.507 55.88 325.507 56.2C325.507 56.4667 325.64 56.6 325.907 56.6C326.227 56.6 326.387 56.76 326.387 57.08C326.387 57.3467 326.547 57.48 326.867 57.48C327.187 57.48 327.347 57.64 327.347 57.96C327.347 58.2267 327.64 58.36 328.227 58.36C328.813 58.36 329.107 58.52 329.107 58.84C329.107 59.16 329.24 59.32 329.507 59.32C329.827 59.32 329.987 59.48 329.987 59.8C329.987 60.0667 330.12 60.2 330.387 60.2C330.707 60.2 330.867 60.4933 330.867 61.08C330.867 61.6667 331.027 61.96 331.347 61.96C331.667 61.96 331.827 62.28 331.827 62.92C331.827 63.5067 331.96 63.8 332.227 63.8C332.44 63.8 332.573 63.88 332.627 64.04C332.68 64.2 332.707 64.5733 332.707 65.16C332.707 65.7467 332.733 66.12 332.787 66.28C332.84 66.44 332.947 66.52 333.107 66.52C333.32 66.52 333.453 66.6267 333.507 66.84C333.56 67 333.587 67.5067 333.587 68.36C333.587 69.16 333.613 69.6667 333.667 69.88C333.72 70.04 333.853 70.12 334.067 70.12C334.28 70.12 334.387 70.2 334.387 70.36C334.44 70.4667 334.467 70.84 334.467 71.48C334.467 72.0667 334.493 72.44 334.547 72.6C334.6 72.76 334.733 72.84 334.947 72.84C335.16 72.84 335.293 73 335.347 73.32C335.4 73.64 335.427 74.6533 335.427 76.36C335.427 78.12 335.4 79.16 335.347 79.48C335.293 79.8533 335.16 80.04 334.947 80.04C334.733 80.04 334.6 80.0933 334.547 80.2C334.493 80.36 334.467 80.7333 334.467 81.32C334.467 81.96 334.44 82.3333 334.387 82.44C334.387 82.6 334.28 82.68 334.067 82.68C333.747 82.68 333.587 82.8133 333.587 83.08C333.587 83.4 333.427 83.56 333.107 83.56C332.84 83.56 332.707 83.72 332.707 84.04C332.707 84.36 332.547 84.52 332.227 84.52C331.96 84.52 331.827 84.6533 331.827 84.92C331.827 85.24 331.667 85.4 331.347 85.4C331.027 85.4 330.867 85.5333 330.867 85.8C330.867 86.12 330.707 86.28 330.387 86.28C330.12 86.28 329.987 86.44 329.987 86.76C329.987 86.9733 329.907 87.1067 329.747 87.16C329.64 87.2133 329.267 87.24 328.627 87.24C328.04 87.24 327.667 87.24 327.507 87.24C327.4 87.2933 327.347 87.4267 327.347 87.64C327.347 87.96 327.027 88.12 326.387 88.12C325.8 88.12 325.507 88.2533 325.507 88.52C325.507 88.84 323.693 89 320.067 89C316.493 89 314.707 88.84 314.707 88.52C314.707 88.36 314.627 88.2533 314.467 88.2C314.307 88.1467 313.933 88.12 313.347 88.12C312.76 88.12 312.387 88.0933 312.227 88.04C312.067 87.9867 311.987 87.8533 311.987 87.64C311.987 87.4267 311.907 87.2933 311.747 87.24C311.64 87.24 311.267 87.24 310.627 87.24C310.04 87.24 309.667 87.2133 309.507 87.16C309.347 87.1067 309.267 86.9733 309.267 86.76C309.267 86.44 308.973 86.28 308.387 86.28C307.8 86.28 307.507 86.12 307.507 85.8C307.507 85.5333 307.347 85.4 307.027 85.4C306.76 85.4 306.627 85.24 306.627 84.92C306.627 84.6533 306.467 84.52 306.147 84.52C305.827 84.52 305.667 84.36 305.667 84.04C305.667 83.72 305.507 83.56 305.187 83.56C304.92 83.56 304.787 83.4 304.787 83.08C304.787 82.8133 304.627 82.68 304.307 82.68C304.04 82.68 303.907 82.52 303.907 82.2C303.907 81.9333 303.747 81.8 303.427 81.8C303.16 81.8 303.027 81.64 303.027 81.32C303.027 81.0533 302.867 80.92 302.547 80.92C302.227 80.92 302.067 80.76 302.067 80.44C302.067 80.1733 301.907 80.04 301.587 80.04C301.32 80.04 301.187 79.72 301.187 79.08C301.187 78.4933 301.053 78.2 300.787 78.2C300.573 78.2 300.44 78.0933 300.387 77.88C300.333 77.6667 300.307 77.0267 300.307 75.96C300.307 74.8933 300.333 74.2533 300.387 74.04C300.44 73.8267 300.573 73.72 300.787 73.72C301.053 73.72 301.187 73.56 301.187 73.24C301.187 72.9733 301.32 72.84 301.587 72.84C301.907 72.84 302.067 72.68 302.067 72.36C302.067 72.1467 302.227 72.0133 302.547 71.96C302.867 71.9067 303.773 71.88 305.267 71.88C306.76 71.88 307.64 71.9067 307.907 71.96C308.227 72.0133 308.387 72.1467 308.387 72.36C308.387 72.68 308.68 72.84 309.267 72.84H310.227V73.72C310.227 74.3067 310.36 74.6 310.627 74.6C310.947 74.6 311.107 74.8933 311.107 75.48C311.107 76.0667 311.24 76.36 311.507 76.36C311.827 76.36 311.987 76.6533 311.987 77.24C311.987 77.88 312.12 78.2 312.387 78.2C312.707 78.2 312.867 78.3333 312.867 78.6C312.867 78.92 313.027 79.08 313.347 79.08C313.667 79.08 313.827 79.3733 313.827 79.96C313.827 80.6 313.96 80.92 314.227 80.92C314.547 80.92 314.707 81.0533 314.707 81.32C314.707 81.64 314.84 81.8 315.107 81.8C315.427 81.8 315.587 81.9333 315.587 82.2C315.587 82.52 315.72 82.68 315.987 82.68C316.307 82.68 316.467 82.8133 316.467 83.08C316.467 83.4 316.627 83.56 316.947 83.56C317.267 83.56 317.427 83.72 317.427 84.04C317.427 84.36 317.72 84.52 318.307 84.52C318.893 84.52 319.187 84.6533 319.187 84.92C319.187 85.24 319.48 85.4 320.067 85.4C320.707 85.4 321.027 85.24 321.027 84.92C321.027 84.6533 321.32 84.52 321.907 84.52C322.493 84.52 322.787 84.36 322.787 84.04C322.787 83.72 322.92 83.56 323.187 83.56C323.507 83.56 323.667 83.4 323.667 83.08C323.667 82.8133 323.827 82.68 324.147 82.68C324.467 82.68 324.627 82.52 324.627 82.2C324.627 81.9333 324.76 81.8 325.027 81.8C325.347 81.8 325.507 81.5067 325.507 80.92C325.507 80.3333 325.667 80.04 325.987 80.04C326.2 80.04 326.307 79.8533 326.307 79.48C326.36 79.16 326.387 78.12 326.387 76.36C326.387 74.6533 326.36 73.64 326.307 73.32C326.307 73 326.2 72.84 325.987 72.84C325.773 72.84 325.64 72.7333 325.587 72.52C325.533 72.3067 325.507 71.8 325.507 71C325.507 70.2 325.48 69.6933 325.427 69.48C325.373 69.2667 325.24 69.16 325.027 69.16C324.867 69.16 324.76 69.1067 324.707 69C324.653 68.84 324.627 68.4667 324.627 67.88C324.627 67.24 324.6 66.8667 324.547 66.76C324.493 66.6 324.36 66.52 324.147 66.52C323.933 66.52 323.8 66.44 323.747 66.28C323.693 66.12 323.667 65.7467 323.667 65.16C323.667 64.5733 323.64 64.2 323.587 64.04C323.587 63.88 323.48 63.8 323.267 63.8C322.947 63.8 322.787 63.6667 322.787 63.4C322.787 63.08 322.627 62.92 322.307 62.92C322.04 62.92 321.907 62.6 321.907 61.96V61.08H321.027C320.387 61.08 320.067 60.9467 320.067 60.68C320.067 60.36 319.907 60.2 319.587 60.2C319.32 60.2 319.187 60.0667 319.187 59.8C319.187 59.48 319.027 59.32 318.707 59.32C318.44 59.32 318.307 59.16 318.307 58.84C318.307 58.52 318.147 58.36 317.827 58.36C317.56 58.36 317.427 58.2267 317.427 57.96C317.427 57.64 317.107 57.48 316.467 57.48C315.88 57.48 315.587 57.3467 315.587 57.08C315.587 56.76 315.427 56.6 315.107 56.6C314.84 56.6 314.707 56.4667 314.707 56.2C314.707 55.88 314.547 55.72 314.227 55.72C313.96 55.72 313.827 55.5867 313.827 55.32C313.827 55 313.507 54.84 312.867 54.84C312.28 54.84 311.987 54.68 311.987 54.36C311.987 54.04 311.827 53.88 311.507 53.88C311.24 53.88 311.107 53.7467 311.107 53.48C311.107 53.16 310.947 53 310.627 53C310.36 53 310.227 52.8667 310.227 52.6C310.227 52.28 310.067 52.12 309.747 52.12C309.427 52.12 309.267 51.9867 309.267 51.72C309.267 51.4 309.107 51.24 308.787 51.24C308.52 51.24 308.387 51.08 308.387 50.76C308.387 50.44 308.227 50.28 307.907 50.28C307.64 50.28 307.507 50.1467 307.507 49.88C307.507 49.56 307.347 49.4 307.027 49.4C306.76 49.4 306.627 49.2667 306.627 49C306.627 48.68 306.467 48.52 306.147 48.52C305.827 48.52 305.667 48.2267 305.667 47.64C305.667 47 305.533 46.68 305.267 46.68C305.053 46.68 304.92 46.4667 304.867 46.04C304.813 45.56 304.787 44.1467 304.787 41.8C304.787 39.4 304.813 37.9867 304.867 37.56C304.92 37.08 305.053 36.84 305.267 36.84C305.48 36.84 305.587 36.76 305.587 36.6C305.64 36.44 305.667 36.0667 305.667 35.48C305.667 34.84 305.693 34.4667 305.747 34.36C305.8 34.2 305.933 34.12 306.147 34.12C306.467 34.12 306.627 33.8267 306.627 33.24C306.627 32.6 306.76 32.28 307.027 32.28C307.347 32.28 307.507 31.9867 307.507 31.4C307.507 30.8133 307.64 30.52 307.907 30.52C308.227 30.52 308.387 30.2267 308.387 29.64C308.387 29 308.52 28.68 308.787 28.68C309.107 28.68 309.267 28.5467 309.267 28.28C309.267 27.96 309.427 27.8 309.747 27.8C310.067 27.8 310.227 27.6667 310.227 27.4C310.227 27.08 310.36 26.92 310.627 26.92C310.947 26.92 311.107 26.6267 311.107 26.04C311.107 25.4 311.24 25.08 311.507 25.08C311.827 25.08 311.987 24.9467 311.987 24.68C311.987 24.36 312.12 24.2 312.387 24.2C312.707 24.2 312.867 24.0667 312.867 23.8C312.867 23.48 313.027 23.32 313.347 23.32C313.667 23.32 313.827 23.16 313.827 22.84C313.827 22.52 313.96 22.36 314.227 22.36C314.547 22.36 314.707 22.2267 314.707 21.96C314.707 21.64 314.84 21.48 315.107 21.48C315.427 21.48 315.587 21.3467 315.587 21.08C315.587 20.76 315.88 20.6 316.467 20.6C317.107 20.6 317.427 20.4667 317.427 20.2C317.427 19.88 317.56 19.72 317.827 19.72C318.147 19.72 318.307 19.56 318.307 19.24C318.307 19.0267 318.387 18.92 318.547 18.92C318.707 18.8667 319.08 18.84 319.667 18.84C320.253 18.84 320.627 18.8133 320.787 18.76C320.947 18.7067 321.027 18.5733 321.027 18.36C321.027 18.1467 321.08 18.0133 321.187 17.96C321.347 17.9067 321.72 17.88 322.307 17.88C322.947 17.88 323.32 17.8533 323.427 17.8C323.587 17.7467 323.667 17.64 323.667 17.48Z" fill="black"/>
</svg>
