<svg width="259" height="259" viewBox="0 0 259 259" fill="none" xmlns="http://www.w3.org/2000/svg">
<path d="M221.729 8.16797C238.297 8.1682 251.729 21.5996 251.729 38.168V220.832C251.729 237.4 238.297 250.832 221.729 250.832H37.2715C20.7029 250.832 7.27148 237.401 7.27148 220.832V38.168C7.27149 21.5994 20.7029 8.16797 37.2715 8.16797H221.729ZM182.053 45.8291C179.965 25.8231 140.287 17.4091 124.896 34.6426C122.709 37.0904 121.333 37.7637 118.251 38.8223C110.123 49.3827 107.088 67.5751 105.35 80.6299C98.3843 67.7761 89.6477 57.3488 75.125 52.3057C70.2396 50.6093 62.2127 50.5271 57.5195 52.9238C55.3916 54.0097 51.6379 57.4388 50.123 58.1426C41.0724 62.1356 33.3811 66.4831 30.8691 76.8398C28.4052 86.9891 32.4267 99.4363 37.792 108.036C46.7626 122.43 60.2878 132.478 77.5781 132.695C78.9861 135.025 80.6661 137.658 81.8555 140.067C60.3196 150.939 40.656 164.699 31.1787 187.946C28.3309 194.946 29.3387 210.195 36.9648 214.777C38.7462 215.846 39.7857 220.662 41.999 222.096C42.4363 223.416 42.3307 223.09 43.5615 224.998C44.596 226.601 44.6911 225.977 45.8057 227.262C47.2618 228.933 50.2615 229.02 53.0293 228.982C71.7013 228.724 87.3494 212.289 98.208 198.518C101.339 194.55 103.68 190.408 106.73 187.174C109.088 194.885 108.394 209.234 107.424 217.664C104.981 238.844 119.744 234.145 134.336 230.533C146.101 227.621 156.709 220.244 165.013 211.35C176.789 200.582 181.04 184.671 176.005 168.902C175.493 167.233 174.864 165.6 174.128 164.016C186.933 166.667 205.039 166.133 216.111 158.481C220.991 155.11 221.765 153.713 225.632 149.6C225.68 149.501 233.822 132.656 225.632 119.271C210.528 94.584 195.413 99.3906 169.84 103.831C164.149 104.82 165.503 103.831 157.301 105.9L152.187 101.854C170.234 79.6203 184.953 73.6181 182.053 45.8291ZM140.49 157.616C148.688 160.976 152.651 166.858 156.347 174.631C164.187 191.129 153.947 208.735 138.197 215.605C131.264 217.209 128.656 217.014 129.157 208.982C130.192 192.42 126.08 183.067 119.562 167.783C128.25 164.245 132.714 163.083 140.49 157.616ZM89.0928 151.809C90.2874 152.644 92.5118 159.922 93.8984 162.224C95.1037 164.231 96.1811 166.033 97.541 168.056C94.5864 180.147 86.7994 189.144 78.8848 198.319C72.9541 205.192 69.0448 209.379 59.9355 210.986C58.5439 210.791 58.4748 210.883 57.3604 209.963C56.3576 207.667 52.8159 205.099 53.0879 202.506C48.8429 199.46 51.3013 196.883 53.0879 191.324C58.3572 174.931 74.7675 160.373 89.0928 151.809ZM193.322 117.514C199.274 115.961 207.259 120.694 210.438 125.724C212.917 129.728 213.68 134.561 212.555 139.133C209.147 153.493 190.053 151.808 179.162 149.083C171.898 146.325 164.223 143.378 157.322 139.805C160.634 134.073 162.213 128.645 163.12 122.155C173.003 119.567 183.125 118.011 193.322 117.514ZM117.675 108.931C125.013 107.803 132.587 108.438 137.675 114.488C142.64 120.396 141.92 127.549 141.333 134.709C137.541 139.911 126.955 149.008 120.459 150.134C112.747 150.496 104.784 145.381 101.365 139.133C94.507 135.083 98.2078 134.708 96.0479 125.724C94.1389 124.132 96.3994 120.427 96.3408 117.913C104.469 112.204 107.872 110.246 117.675 108.931ZM62.4902 68.7305C72.3035 68.0841 96.3195 91.9965 96.0479 100.354C94.5012 103.473 86.3895 105.306 82.8535 108.245C79.1096 112.039 77.9149 113.534 76.043 118.488C70.1925 117.073 64.8002 114.177 60.3896 110.079C50.5923 101.128 41.8721 79.9662 52.3574 68.8105C55.5253 68.7524 59.349 68.9374 62.4902 68.7305ZM140.837 45.499C144.272 45.074 147.92 44.8546 151.2 46.0273C155.382 47.5228 164.976 50.1301 165.504 55.2393L164.891 55.7256C159.92 59.7671 158.965 65.7807 155.664 71.1934C151.749 77.6082 147.323 83.6123 142.715 89.5439C141.318 91.3001 139.568 92.7766 137.904 94.3018C133.024 93.3103 127.627 93.2444 122.656 93.2129C125.707 79.8578 127.184 51.8996 140.837 45.499Z" fill="#0A0A0A"/>
</svg>
