<svg width="772" height="1025" viewBox="0 0 772 1025" fill="none" xmlns="http://www.w3.org/2000/svg">
<path d="M48.8584 208.273C52.7843 208.112 58.7484 208.921 62.1863 210.761C66.2027 212.228 70.9792 215.034 72.1228 219.252C75.2107 230.641 76.6843 236.875 83.484 246.844C94.6447 263.205 108.595 277.316 121.138 292.627C126.471 299.175 133.156 305.06 138.562 311.581C143.904 318.371 157.807 338.716 159.729 346.049C163.188 367.536 163.468 383.381 162.034 405.173C161.914 418.094 163.045 430.921 163.095 443.844C163.127 452.225 164.665 457.607 165.808 465.76C168.352 483.894 178.489 510.66 194.445 520.771C209.054 530.032 236.138 529.037 252.511 526.107C293.696 519.031 338.647 518.571 376.082 498.117C382.61 494.55 388.299 491.482 388.268 483.45C388.222 471.516 388.92 459.975 389.53 448.104L390.699 420.494C391.724 398.644 395.733 376.556 399.273 355.01C403.196 331.131 408.072 307.712 419.497 286.054C424.278 276.837 428.299 263.749 439.801 261.071C464.485 256.891 468.436 300.955 469.543 316.821C470.516 330.603 470.813 344.425 470.432 358.236C470.129 366.96 469.13 376.836 468.705 386.111C477.793 385.902 492.589 379.653 503.059 377.738C504.474 370.53 505.054 363.471 506.344 356.376C511.15 329.922 518.681 302.632 532.492 279.393C535.142 274.934 537.988 269.883 541.273 265.835C556.52 261.899 564.736 269.442 567.741 283.705C572.136 304.547 568.921 325.363 566.471 346.28C565.211 357.4 564.996 368.569 563.971 379.677C562.95 389.669 562.12 399.68 561.475 409.704C561.14 414.426 560.495 421 560.69 425.629C573.092 438.99 610.276 442.933 627.867 446.621C639.109 448.952 650.215 451.891 661.136 455.425C674.287 459.754 686.499 467.747 700.13 470.633C701.765 470.98 709.521 467.083 711.771 466.345C733.029 459.38 747.775 470.917 751.036 492.164C751.616 495.95 749.675 500.379 747.335 503.084C743.75 507.225 736.554 506.99 731.289 507.415C730.238 512.21 729.248 515.701 727.793 520.396C726.553 524.151 724.933 527.767 722.963 531.197C718.377 533.582 710.746 534.553 705.601 536.433C701.43 537.963 696.275 541.673 692.629 542.793C688.094 544.608 678.953 545.564 673.957 546.694C663.871 548.969 653.84 550.464 643.609 551.809C637.853 552.564 631.083 554.394 625.357 554.749C610.07 555.705 593.399 555.815 578.317 557.08C569.426 557.82 537.883 563.98 532.987 570.171C532.457 577.867 541.323 617.251 545.554 625.316C549.934 633.552 555.295 641.888 561.34 649.089C589.483 682.582 589.693 730.467 579.592 770.881C575.312 788.022 558.88 805.369 543.213 812.965C534.257 817.305 515.535 814.12 509.495 805.679C502.054 795.188 511.015 785.252 512.68 774.906C516.4 751.839 509.875 733.922 501.039 713.255C495.42 700.124 496.904 697.684 487.845 684.542C486.931 694.848 486.914 705.029 486.3 715.31C485.909 721.851 484.92 728.352 484.525 734.897C483.3 755.189 483.564 777.121 474.878 795.983C467.78 811.4 453.748 827.081 437.635 832.912C426.488 836.942 409.636 836.662 398.96 831.577C382.472 823.726 386.692 805.544 389.107 791.053C390.332 783.707 391.093 776.186 392.638 768.911C394.2 761.55 397.038 754.019 397.433 746.503C397.726 740.938 391.16 705.019 389.161 699.224C376.659 697.464 362.092 701.139 349.876 702.339C340.234 703.284 329.157 702.359 319.53 702.144C310.123 701.929 302.432 701.964 293.045 700.894C292.834 706.059 293.676 711.325 293.75 716.47C294.154 744.708 299.177 772.331 308.83 798.859C311.355 805.799 315.622 811.89 312.848 819.431C310.04 827.061 303.742 825.471 296.81 828.601C286.161 826.556 274.683 819.461 267.869 811.175C262.035 804.614 257.568 795.908 252.738 788.948C239.936 770.511 233.681 752.214 229.564 730.292C227.646 720.076 225.515 713.135 226.588 701.969C222.123 702.869 221.008 703.534 216.966 705.554C217.346 721.771 213.527 737.167 212.515 753.584C211.159 768.931 210.932 784.647 209.345 799.959C207.459 808.965 211.113 829.857 200.713 833.987C197.001 835.462 186.024 837.507 182.987 836.637C143.303 825.281 155.835 748.034 158.815 722.286C160.607 706.029 162.557 689.793 164.663 673.576C165.526 666.961 167.612 655.319 167.579 648.564C167.466 625.126 163.433 599.019 155.344 577.047C151.734 567.241 137.786 567.166 129.35 563.82C106.658 554.825 93.8677 541.008 79.9317 521.706C75.9952 516.256 67.5939 506.16 64.8866 500.864C54.1054 480.103 53.0568 450.62 60.7026 428.455C66.2102 412.489 71.3853 397.833 75.6132 381.113C79.2416 366.763 82.5594 359.042 82.5569 343.441C82.5529 317.073 71.8413 294.904 61.1472 271.348C53.5788 253.997 41.7303 226.769 48.8584 208.273ZM415.27 373.525C415.2 373.685 415.128 373.844 415.061 374.005C412.621 379.899 412.713 387.937 411.973 394.307C410.884 403.668 409.18 412.873 408.518 422.298C407.622 435.047 407.826 489.763 402.79 497.289C397.392 505.355 382.083 512.12 373.212 515.916C360.04 521.546 346.847 524.687 332.94 527.607C322.641 529.767 312.471 532.462 302.051 534.082C290.245 535.918 278.194 536.708 266.338 538.238C255.761 539.603 244.859 542.268 234.186 542.333C219.681 542.423 202.749 540.283 189.259 534.863C172.932 528.297 162.472 514.456 155.808 498.57C150.285 485.404 146.49 468.232 145.566 453.971C145.087 446.587 145.361 439.192 145.506 431.802C138.149 443.067 136.358 447.233 127.389 457.593C120.199 457.708 111.848 459.45 110.318 450.358C107.273 455.858 104.169 459.943 98.9837 463.506C95.9714 463.471 87.8665 463.785 85.8323 461.778C84.4612 460.425 85.9613 458.653 84.0101 456.304C79.9782 460.731 79.0401 474.777 77.3694 481.096C84.2936 502.924 110.797 536.373 130.722 548.799C139.926 554.534 158.873 559.7 168.109 566.911C171.576 571.241 175.276 579.082 176.644 584.567C180.703 600.854 185.887 622.551 185.025 639.478C182.337 692.238 167.558 746.078 175.07 799.069C175.811 804.299 186.314 818.85 190.339 822.191C190.043 814.61 191.152 806.379 191.525 798.719C192.632 777.376 194.171 756.064 196.14 734.782C196.797 728.332 198.326 721.841 198.731 715.525C199.108 709.64 197.674 702.479 197.784 696.483C205.752 692.073 238.66 681.427 245.755 687.238C246.873 693.013 245.224 698.284 245.195 703.779C245.031 735.142 266.983 789.898 292.275 808.014L292.15 807.284C291.167 801.794 288.549 797.253 287.407 792.233C284.209 778.162 278.799 764.405 277.675 750.004C276.264 731.947 274.69 713.865 274.251 695.778C274.148 691.588 275.793 688.973 278.521 685.917C294.412 680.162 314.755 687.593 331.166 688.093C344.281 688.498 356.922 686.432 369.981 685.327C377.678 684.677 384.274 684.777 391.83 684.497C393.439 682.182 394.978 679.227 398.036 678.822C402.508 678.232 406.027 682.757 408.503 685.937C408.5 689.928 408.308 695.818 408.792 699.539C410.626 713.625 413.72 728.177 414.831 742.343C415.622 752.414 411.778 764.385 410.146 774.336C409.083 780.817 408.74 787.047 407.49 793.653C406.022 801.409 402.23 812.005 408.549 818.66C411.073 821.316 415.28 821.806 418.658 821.661C427.375 821.291 439.745 817.03 445.383 810.035C450.265 803.974 458.504 793.273 460.794 785.997C465.63 770.646 464.886 753.999 465.744 738.458L469.298 678.162C470.183 664.69 466.342 661.16 476.513 649.579C478.004 649.964 481.288 650.784 482.466 651.764C493.193 660.8 502.399 672.641 510.195 684.227C515.72 692.443 515.995 702.919 519.276 710.265C529.677 733.577 535.432 756.994 529.577 782.477C528.337 787.887 520.771 798.103 528.927 801.704C531.912 802.574 536.043 800.239 538.308 798.774C566.371 780.542 570.511 746.638 568.131 715.95C568.021 714.59 567.651 711.885 567.306 710.505C565.531 703.674 565.206 695.023 563.266 688.398C561.565 682.597 557.175 672.641 553.609 667.756C544.553 655.339 533.637 643.288 526.987 629.232C521.211 617.021 519.306 602.424 516.46 589.338C515.455 584.387 513.96 579.192 513.1 574.431C511.14 573.381 509.37 572.091 508.76 569.826C508.32 568.211 508.77 566.651 509.62 565.246C514.75 556.76 554.194 547.614 564.601 545.504C578.117 542.758 592.349 542.968 606.06 542.268C617.721 541.678 629.703 540.328 641.319 539.053C653.675 537.698 665.842 534.788 678.098 532.822C682.313 532.152 686.619 531.912 690.859 531.417C695.31 530.897 699.375 529.947 703.901 530.322C704.016 530.332 704.131 530.337 704.246 530.347C704.651 523.216 707.816 519.086 711.771 512.985C712.021 512.48 712.261 511.98 712.491 511.47C713.257 509.75 713.492 509.375 712.932 507.955C710.686 506.34 702.005 502.614 699.535 502.819C688.219 503.769 676.683 505.515 665.301 506.395C651.985 507.535 638.654 508.54 625.312 509.405C619.251 509.795 613.151 509.815 607.11 510.255C596.104 511.055 585.248 513.28 574.197 512.93C570.971 512.825 560.525 517.596 558.16 514.586L558.56 513.585C572.131 500.439 674.562 495.982 698.82 493.838C698.47 492.007 697.545 486.176 696.585 485.004C693.769 481.558 683.143 481.057 679.093 479.42C670.132 475.729 661.186 471.848 652.075 468.533C620.142 456.922 585.073 458.994 555.065 441.541C544.768 435.553 546.214 433.629 544.913 422.665C542.023 398.262 546.079 373.597 546.874 349.26C547.269 337.234 554.795 296.865 548.799 287.851C540.758 298.184 519.361 364.059 520.341 374.023C523.216 374.29 530.057 378.429 529.177 381.304C526.542 389.944 519.521 399.635 513.78 406.64C511.725 409.15 503.474 409.747 501.384 406.798C499.219 403.877 500.494 396.502 500.949 393.057C494.522 394.114 487.802 397.049 481.445 398.537C473.158 400.477 464.646 402.32 456.426 404.411C451.366 405.697 438.584 406.062 440.117 397.779C440.75 394.356 447.107 391.328 449.937 389.352C450.359 384.031 450.235 376.673 450.417 371.042C451.328 342.845 452.036 305.644 443.766 278.489C442.351 285.839 438.873 292.085 436.547 299.162C432.083 312.741 427.923 326.525 423.865 340.237C421.414 348.517 423.684 356.194 421.703 364.016C420.79 367.619 417.724 370.699 415.27 373.525ZM124.149 434.893C125.571 432.992 145.027 398.888 145.173 398.052C146.876 388.311 145.913 367.38 143.564 356.979C137.29 329.198 112.38 309.536 94.8773 288.327C93.2721 286.381 81.9089 272.612 80.8713 271.968C81.8229 275.726 85.9478 281.146 87.4495 285.104C91.1409 294.791 94.6577 304.653 97.4891 314.624C106.656 346.904 95.6103 379.558 86.1168 410.362C83.6766 418.279 79.8887 432.161 76.0638 438.981L76.4628 439.83C85.3042 439.582 85.3748 437.739 93.9657 440.844L94.4922 440.311C101.238 433.409 100.064 430.323 109.439 426.002L115.529 426.85C120.166 427.62 120.189 427.404 122.422 431.634L124.149 434.893Z" fill="black"/>
<path d="M62.1855 210.761C66.202 212.228 70.9785 215.034 72.1221 219.252C75.2099 230.641 76.6836 236.875 83.4833 246.844C94.644 263.205 108.595 277.316 121.137 292.627C126.47 299.175 133.156 305.06 138.562 311.581C143.903 318.371 157.806 338.716 159.729 346.049C158.031 345.599 156.264 340.814 155.211 338.924C152.357 333.807 148.447 327.233 144.501 322.878C141.715 319.804 138.522 317.402 135.527 314.078C135.753 312.804 135.96 312.209 136.358 311.01C135.606 309.298 127.522 301.93 125.661 299.759C122.405 295.597 118 291.252 114.917 287.037C111.575 282.469 109.448 281.664 105.187 278.301C103.952 277.326 102.453 271.894 101.138 270.387C97.0813 265.738 92.2628 261.709 88.9249 256.442C87.9873 254.973 85.063 257.574 83.1298 255.515C83.5663 254.506 83.7189 254.339 83.7874 253.226L81.8522 253.007C80.023 250.501 78.6658 247.279 77.0531 244.916C74.7634 241.56 76.5626 240.691 75.2429 237.363L72.4636 236.485C70.8605 234.724 71.2475 231.538 72.7132 229.905L73.0882 230.952C72.6067 232.669 72.3436 233.204 72.4466 234.944C73.7328 236.117 73.3182 236.111 74.7059 236.226C76.2046 233.924 71.3335 220.402 70.0549 217.586L69.2023 217.286C68.5467 219.655 69.8109 221.377 71.096 223.263L71.4565 223.789L71.2215 224.655L70.3229 224.546C67.8867 222.71 66.4095 218.087 67.9652 215.387C67.1376 213.804 64.2073 213.581 62.1855 210.761Z" fill="black"/>
<path d="M692.629 542.793L692.439 541.928C693.04 540.683 694.385 540.253 695.655 539.498C700.55 536.563 705.841 534.342 711.361 532.902C714.132 532.212 718.207 531.617 720.668 530.587C717.797 525.852 720.567 525.231 724.633 524.646C725.788 523.381 725.688 522.516 727.418 520.766L727.793 520.396C726.553 524.151 724.933 527.767 722.963 531.197C718.377 533.582 710.746 534.552 705.601 536.433C701.43 537.963 696.275 541.673 692.629 542.793Z" fill="black"/>
<path d="M461.27 457.126C473.464 455.7 473.327 463.631 472.961 473.044C469.72 477.907 465.738 479.67 460.316 480.946C440.314 482.87 452.186 463.324 461.27 457.126Z" fill="black"/>
<path d="M529.007 452.082C530.472 452.455 532.778 453.004 533.938 453.932C538.603 457.661 539.468 467.843 535.993 472.507C533.658 475.639 530.057 476.089 526.532 476.599C520.761 475.554 519.991 475.361 517.166 470.226C519.166 463.044 521.151 454.505 529.007 452.082Z" fill="black"/>
<path d="M423.906 319.011C424.476 318.148 424.64 317.726 425.064 316.795L424.126 315.01C424.657 314.143 424.729 313.976 425.094 313.025C424.338 312.227 424.302 312.254 423.839 311.274C425.235 309.72 425.007 311.086 427.387 310.047C427.571 307.693 428.142 305.375 428.63 303.057C427.984 302.236 427.85 302.249 427.752 301.241C428.975 300.533 429.194 300.474 430.086 299.316C429.858 298.196 429.614 297.559 429.237 296.503C432.056 293.689 433.789 292.258 433.723 288.098C434.675 288.29 434.723 288.234 435.708 288.227C438.647 285.684 436.714 280.158 443.524 277.541L443.766 278.49C442.352 285.839 438.873 292.085 436.547 299.163C432.083 312.741 427.924 326.525 423.865 340.238C421.414 348.517 423.685 356.195 421.703 364.016C420.79 367.619 417.724 370.7 415.27 373.525C415.38 372.22 415.823 370.424 416.1 369.096C412.179 356.6 415.264 359.061 415.983 347.455C415.122 346.75 414.98 346.764 414.514 345.782C415.142 345.282 415.745 344.767 416.331 344.217C416.408 345.041 416.383 345.946 416.388 346.782L416.948 346.756C419.014 343.407 417.643 333.062 420.644 326.933C421.287 324.448 420.836 324.175 421.981 321.387C423.123 320.66 423.303 320.154 423.906 319.011Z" fill="black"/>
<path d="M420.644 326.933C421.287 324.447 420.836 324.174 421.981 321.386C423.123 320.66 423.303 320.154 423.906 319.01C424.228 319.633 424.511 320.169 424.867 320.772C424.221 328.5 419.876 328.449 421.943 334.322L421.551 334.774L419.55 334.464C421.146 342.829 414.116 347.962 419.251 354.108L417.423 354.829C417.214 356.385 417.915 357.024 418.756 358.652L418.824 359.38C418.932 360.427 419.032 360.604 419.428 361.56C419.047 363.926 418.928 364.908 417.037 366.505L416.954 366.894L416.694 366.972L416.1 369.095C412.179 356.6 415.264 359.061 415.983 347.455C415.122 346.749 414.98 346.764 414.514 345.782C415.142 345.281 415.745 344.766 416.331 344.216C416.408 345.041 416.383 345.945 416.388 346.782L416.948 346.755C419.014 343.407 417.643 333.062 420.644 326.933Z" fill="black"/>
<path d="M418.756 358.652L418.824 359.38C418.932 360.428 419.032 360.605 419.428 361.561C419.047 363.926 418.928 364.908 417.037 366.505L416.954 366.894L416.694 366.972C416.269 364.391 415.441 361.853 416.49 359.59C417.406 359.362 417.934 359.116 418.756 358.652Z" fill="black"/>
<path d="M704.246 530.347C704.651 523.216 707.816 519.086 711.772 512.985L712.252 513.81C710.712 517.481 708.981 520.691 707.316 524.271C706.596 525.827 707.431 529.827 706.636 531.072C705.501 531.087 702.291 531.292 701.471 530.917L704.246 530.347Z" fill="black"/>
<path d="M115.528 426.851C120.165 427.62 120.189 427.404 122.422 431.634L121.679 432.19C117.855 432.991 116.747 429.804 115.528 426.851Z" fill="black"/>
<path d="M74.6738 263.167C77.4951 265.437 79.9144 268.412 80.8715 271.968C78.2732 269.647 76.3125 266.232 74.6738 263.167Z" fill="black"/>
</svg>
