<svg width="772" height="1248" viewBox="0 0 772 1248" fill="none" xmlns="http://www.w3.org/2000/svg">
<g clip-path="url(#clip0_2117_7)">
<path d="M400.357 403.673C403.172 403.072 413.109 405.807 417.561 405.811C420.841 405.814 426.451 406.308 429.979 406.345C430.653 406.14 434.788 408.926 434.812 408.923C440.909 408.252 443.101 410.1 448.497 412.286C465.087 419.005 477.758 430.599 488.342 444.841C489.716 445.392 489.892 445.406 491.128 446.305C493.355 451.408 497.218 459.919 498.864 465.527C498.595 466.599 498.368 467.499 498.184 468.23C499.15 468.564 499.216 468.6 500.087 469.139C500.186 470.923 498.257 473.733 498.29 473.862C500.076 481.069 500.413 486.56 497.917 493.621C498.137 493.001 496.352 494.354 496.126 494.651C497.731 495.693 497.203 495.017 497.953 496.578C496.959 499.606 495.767 498.537 495.528 499.265C494.789 501.518 496.016 503.368 494.52 505.943C493.816 506.226 493.186 506.361 492.43 506.416C493.389 512.665 487.78 519.943 486.024 526.111C485.217 528.946 482.644 532.901 480 534.039C479.559 534.229 479.017 534.583 478.569 534.796C476.986 535.882 477.648 540.086 475.87 541.635C470.475 549.737 465.625 552.261 459.233 559.279C456.509 562.269 448.027 567.111 444.106 569.356C442.764 569.313 441.642 569.277 440.74 569.248C429.701 579.088 397.151 580.864 382.68 579.992C377.447 579.676 366.748 581.365 362.638 578.767C350.481 578.566 337.897 576.977 325.834 575.118C323.623 574.777 319.454 572.863 316.725 572.382C314.306 571.956 309.066 572.438 307.357 572.112C302.587 571.201 292.512 568.861 288.354 567.033C279.019 562.93 268.638 554.794 265.037 544.876C261.168 534.218 264.427 516.097 264.998 504.675C265.126 502.101 266.783 499.71 266.902 498.119C267.148 494.858 265.849 491.103 267.302 487.866C268.755 486.471 268.12 486.884 270.668 486.79L271.095 485.643C270.469 484.385 269.937 483.976 268.959 482.999C268.429 480.06 271.804 473.373 273.201 470.432C272.504 469.228 272.481 469.307 272.305 467.943C272.932 467.511 273.452 467.162 274.108 466.766L274.632 466.454L273.121 464.789L273.418 464.063C273.777 463.997 276.77 463.314 276.748 462.858C276.502 457.86 275.044 452.297 277.752 447.718C279.626 444.55 281.728 448.138 283.481 446.667C285.175 445.658 286.367 441.398 287.651 440.374C295.178 434.374 299.809 430.032 309.133 427.227C312.108 422.292 313.37 423.264 317.581 420.942C322.927 417.994 323.304 417.131 329.066 416.627C330.826 416.474 336.485 412.044 340.313 411.325C341.208 411.574 342.158 411.887 343.079 411.999C344.806 412.208 346.002 410.823 347.26 409.811C350.374 407.307 376.573 404.391 381.784 404.175C386.572 403.976 395.957 406.194 400.038 403.874C400.147 403.812 400.25 403.74 400.357 403.673ZM358.524 544.708C359.942 545.97 376.506 558.505 376.977 558.579C382.896 549.209 378.719 537.405 394.852 532.516C407.38 528.719 417.265 542.742 422.216 541.621C423.335 539.077 421.01 537.156 422.944 536.407C425.068 535.585 425.615 535.914 427.014 533.926L427.177 533.111C427.608 531.016 427.572 529.951 429.156 528.649C430.857 528.495 431.086 528.555 432.79 528.843C437.006 523.8 437.892 524.131 444.302 524.243C449.481 527.279 455.123 531.565 459.009 536.145C459.414 538.293 459.461 540.249 460.981 541.633L462.306 541.872C466.614 537.608 464.143 537.062 471.112 534.741C470.808 529.278 468.453 532.99 474.161 526.423L475.974 526.987C476.614 524.756 475.15 523.994 475.402 523.538C476.218 522.063 478.191 518.467 479.065 517.125L481.446 516.778C481.431 515.434 480.96 514.903 480.277 513.746C480.317 511.749 481.064 510.536 482.448 509.176C485.072 506.597 487.749 494.496 488.483 490.746L489.34 490.301L491.194 490.991L491.409 490.285L490.847 489.83C490.187 489.289 490.103 489.214 489.63 488.47C490.918 469.332 486.787 461.934 476.281 446.25C467.734 442.701 467.219 436.244 460.579 432.427C458.955 434.132 457.901 438.004 457.771 440.293C457.474 440.667 453.097 446.064 453.084 445.844C453.326 450.012 454.463 450.087 450.517 452.169C443.705 464.905 435.077 468.094 422.095 460.955C421.573 460.668 421.055 460.371 420.542 460.065C418.471 460.099 417.214 460.429 415.644 458.562C409.381 451.116 398.754 435.388 396.627 426.361L395.091 425.486C394.352 427.349 389.824 437.372 388.249 438.67C388.487 438.475 385.956 439.37 385.905 439.389C381.097 447.969 376.213 457.516 366.355 460.088C353.849 463.351 349.36 459.703 340.805 451.603C338.454 449.377 337.809 443.492 334.274 443.168C333.879 449.473 327.249 449.79 328.803 455.574C327.888 457.533 324.422 459.657 322.486 461.131C325.069 465.581 320.283 470.469 316.75 471.666C315.787 471.992 317.12 474.584 316.675 475.04C314.22 479.958 311.564 485.083 308.259 489.472C306.858 491.334 304.089 491.292 301.839 491.547L302.111 491.459C298.145 487.288 290.698 483.042 289.202 480.832L289.584 478.801L288.925 478.21L287.117 478.983C284.253 476.857 285.915 473.002 281.694 471.088L281.006 471.405C279.864 474.926 278.182 478.605 281.65 481.089L282.039 482.432L281.439 482.844L280.053 481.056L278.882 481.118C278.532 482.77 278.945 482.282 279.41 483.728C279.418 483.753 277.386 486 277.381 485.967C277.397 486.078 277.692 488.122 277.692 488.122C276.611 489.463 275.15 489.287 275.794 490.713L277.195 490.649C277.134 491.384 277.271 491.815 276.769 492.365C273.867 495.544 272.141 524.876 272.612 530.46C273.286 538.461 277.862 545.029 283.895 550.082C286.685 552.418 292.599 557.49 296.35 557.161C298.348 556.986 300.419 555.25 301.945 554.039C302.647 555.718 302.728 555.213 302.386 556.699C300.695 557.567 301.316 556.926 300.555 558.774L301.166 559.785C303.379 560.103 306.075 559.885 307.539 560.221C308.526 556.662 308.31 549.554 308.266 546.146C308.264 545.987 312.627 540.232 313.15 539.549C312.607 538.619 312.387 538.331 311.711 537.488C313.036 532.775 316.872 533.825 319.358 528.802C330.552 522.032 340.449 534.179 348.75 535.029C348.383 536.805 348.24 536.03 348.818 537.466C352.014 539.964 355.133 542.476 358.524 544.708ZM326.883 538.557C319.643 543.894 318.659 544.266 316.829 553.892C316.516 555.54 316.265 560.487 317.438 561.238C326.536 567.051 345.363 567.991 356.067 569.261C358.106 569.502 365.027 569.398 365.506 569.263C367.277 569.369 369.05 569.43 370.824 569.447L370.76 568.36C367.874 565.925 365.045 563.424 362.277 560.856L362.795 558.802L362.285 558.13C361.037 558.586 359.793 559.054 358.554 559.535C357.403 557.498 358.961 556.778 357.347 554.001L356.585 554.029L356.824 557.074L356.159 557.548C352.799 555.983 343.089 547.231 339.901 544.249C332.145 536.992 335.352 541.191 326.883 538.557ZM330.54 425.343C318.53 432.768 297.307 441.45 289.514 454.787C286.083 460.658 291.976 468.513 297.287 471.917C299.688 475.059 301.52 475.844 304.913 477.892C306.657 472.787 307.022 474.226 308.694 470.755C312.347 463.173 314.908 457.491 319.687 450.49C321.521 449.805 323.081 449.531 324.059 447.964C323.578 447.114 323.136 446.833 322.399 446.186C321.659 442.27 328.699 434.311 330.676 430.649C332.152 427.917 333.777 427.664 330.54 425.343ZM381.542 412.435C377.71 415.758 349.336 417.129 346.816 419.243C345.68 420.195 345.182 421.737 345.029 423.156C344.675 426.419 345.181 430.815 346.003 433.96C346.299 435.091 347.3 437.089 347.325 438.148C347.349 439.154 346.552 440.81 346.188 441.758C347.279 441.742 347.394 441.488 348.341 440.864C350.177 442.637 351.694 444.561 352.061 447.113C363.614 456.376 378.86 435.479 384.025 426.733C383.423 425.405 383.257 425.365 382.243 424.369C384.551 420.989 392.645 422.402 388.972 413.881C387.053 413.423 382.943 412.922 381.542 412.435ZM405.657 414.556C408.328 428.789 412.48 439.238 424.842 448.63C427.036 450.296 426.746 449.39 428.143 452.227C431.223 453.587 440.681 449.962 442.381 447.221L441.97 444.622C443.606 444.125 442.754 444.181 444.603 444.771L444.511 443.244C445.835 442.738 445.993 442.841 447.38 442.903C447.811 442.003 447.761 441.524 447.538 440.526C446.217 434.611 453.162 431.831 451.056 426.86C448.401 425.035 445.597 424.449 443.76 423.21C433.381 416.212 427.808 416.018 415.605 415.512C412.599 415.387 408.7 415.297 405.657 414.556ZM439.924 535.36C435.79 536.495 436.135 536.173 433.546 540.31C431.883 542.965 430.313 548.037 430.614 551.129L432.293 552.741L431.733 553.666L429.332 554.201C427.872 557.598 426.636 561.036 421.975 560.786C421.115 559.191 421.423 559.623 421.996 557.278C419.649 556.594 418.898 556.868 417.934 555.195C417.935 554.201 418.253 552.508 417.336 552.055C403.896 545.428 392.652 537.036 387.807 556.891C387.077 556.965 386.435 557.053 385.762 557.353C384.999 563.422 385.151 563.662 387.12 569.5C389.631 569.783 400.642 569.037 403.219 568.977C413.979 568.726 451.778 558.134 455.629 548.086L455.207 547.139C452.71 546.781 444.156 537.441 442.58 535.159C441.846 535.306 440.614 535.673 439.924 535.36Z" fill="black"/>
<path d="M296.564 229.093C306.472 229.874 311.976 233.681 319.427 239.82C322.45 242.311 321.889 240.766 325.385 244.719C335.862 245.425 345.151 245.064 355.926 247.335C364.971 249.24 373.604 251.662 382.529 253.795C388.585 255.086 394.515 254.994 400.6 256.243C416.008 259.406 429.459 266.641 443.263 273.813C443.219 273.79 445.152 276.828 445.422 277.238L448.158 277.224C452.962 279.993 478.685 296.383 480.542 300.218C480.883 300.921 481.165 301.18 481.76 301.662L484.006 300.073C488.588 301.124 504.778 312.912 509.07 315.316C510.257 315.98 509.317 315.052 510.909 313.904C511.506 316.684 512.387 323.111 513.935 325.174C515.629 327.431 516.062 326.858 516.009 329.312L515.369 329.636C514.995 328.33 515.188 328.154 514.33 327.417C512.322 328.48 511.279 329.839 509.726 331.501C513.715 337.583 517.687 343.107 521.945 348.982C521.68 352.965 534.391 371.006 537.042 376.221C543.063 388.065 548.453 400 552.837 412.603C554.052 416.096 556.726 421.274 557.128 425.138C556.284 432.732 565.075 432.038 566.958 436.514C571.484 447.279 572.863 491.704 570.998 501.408C573.163 506.469 573.696 510.66 574.783 516.069L573.443 516.971L573.32 517.991C577.176 521.517 580.324 539.421 580.11 545.386C579.995 548.687 585.706 555.989 584.597 560.924C583.317 561.092 583.731 560.878 582.725 561.538C584.139 562.023 584.292 561.97 585.401 563.019C590.076 575.43 594.27 595.475 597.701 608.643C599.274 614.664 601.231 621.703 602.559 627.699C606.509 646.212 609.776 664.871 612.354 683.627C613.037 688.429 615.164 693.024 614.28 697.807L614.896 698.002C620.644 695.132 630.823 682.256 635.858 677.393C636.79 673.664 645.165 667.936 646.055 666.333C656.277 647.936 669.138 632.373 677.384 612.751C678.457 610.204 682.059 599.765 683.26 599.044L685.948 599.891L686.82 599.324L686.899 598.117C685.381 597.471 685.046 597.342 683.711 596.398C683.638 594.221 686.838 588.727 688.027 586.283C689.075 586.398 689.118 586.414 690.154 586.274L690.197 585.375C688.996 584.282 688.929 584.205 687.99 582.876C688.21 580.728 688.051 581.466 689.898 579.559C690.501 577.541 689.112 565.049 687.314 563.742C681.34 559.807 662.085 564.504 657.24 559.82C645.774 548.737 683.717 551.501 688.856 551.573C687.911 547.639 688.77 516.338 690.459 513.234C692.598 512.257 695.798 512.398 698.279 512.317C698.608 516.124 699.443 519.158 699.723 522.992C700.132 528.629 699.541 533.787 699.504 539.453C701.918 535.775 703.807 532.282 705.831 528.412C706.654 526.827 710.299 523.819 711.816 522.206C711.469 520.963 711.39 520.91 711.426 519.638C713.956 518.021 714.712 517.797 717.509 516.824C733.028 519.864 710.335 536.7 710.475 542.959C710.555 546.474 708.001 547.517 706.501 550.462C709.476 554.27 726.616 551.217 728.115 558.014C727.091 561.666 723.891 563.971 721.002 566.236C719.338 565.721 705.764 562.771 704.972 564.245C702.095 569.586 700.607 576.7 698.821 582.525C699.065 581.732 696.609 583.834 696.7 583.733C697.688 584.478 697.34 584.016 697.785 585.163C696.566 588.748 697.432 586.366 693.823 588.889L693.982 589.823L695.445 590.273L695.762 590.996C693.604 599.833 687.594 614.207 683.437 622.288L681.389 622.927C681.31 623.835 681.17 624.463 681.529 625.225C683.644 629.643 675.976 633.701 675.556 637.802C675.428 639.021 674.861 641.739 674.038 642.629C673.215 643.506 673.538 643.159 671.917 643.201C670.783 644.006 669.04 649.959 667.071 652.83C660.854 661.921 654.46 670.562 647.859 679.325C643.702 684.852 640.837 683.134 639.35 685.126L640.197 686.894C638.71 690.105 627.458 701.354 624.551 703.828L622.728 703.182C621.619 704.328 618.693 710.422 617.785 712.201C613.695 712.201 614.268 720.872 615.231 723.578C615.493 724.309 616.962 724.401 617.755 724.589C616.889 726.21 616.542 725.668 615.688 727.167C617.816 750.884 616.968 774.528 617.304 798.245C617.322 799.189 619.346 799.549 620.12 799.799L620.309 800.579L617.694 800.243C617.322 804.734 618.76 815.606 619.297 820.67L617.669 822.882C617.797 826.751 617.938 831.431 618.029 835.246C618.218 837.354 617.493 839.56 617.554 841.614C618.303 869.225 618.425 896.525 621.186 924.075C621.93 931.472 622.82 938.779 624.35 946.061C624.405 946.317 626.599 948.187 626.867 948.413C621.723 959.254 631.591 966.042 629.317 976.341C629.086 977.383 628.525 977.108 628.598 978.845C630.128 978.193 630.36 978.102 631.975 977.742C633.529 979.357 634.773 982.94 633.682 985.073L632.444 984.293C632.091 985.567 634.62 989.229 633.877 993.933L622.247 993.939C622.338 983.872 616.676 967.925 615.006 957.566C615.378 956.755 615.694 956.073 615.95 955.512C610.818 949.76 613.269 940.613 611.458 933.276C611.483 933.374 612.757 932.46 613.025 931.222C612.013 931.472 612.342 931.466 611.385 931.32C609.55 924.209 610.221 912.021 609.496 904.306C609.215 901.357 608.027 897.329 608.057 894.885C608.082 891.004 608.081 887.128 608.063 883.246L609.983 881.595L609.88 880.529L608.289 879.931C607.131 878.14 608.52 877.445 608.728 875.05C608.301 874.593 607.88 874.13 607.454 873.673C608.124 862.515 608.081 846.641 607.679 836.026L609.221 835.173C609.825 832.687 607.972 835.496 607.484 832.485C606.862 828.64 610.739 825.532 607.612 823.192C607.039 822.76 608.52 810.188 608.435 808.647C608.362 807.306 609.106 807.861 607.192 806.587C608.728 792.98 607.826 779.555 607.356 765.936C607.21 761.725 607.679 757.179 607.667 752.956C607.667 752.73 605.881 751.183 606.137 750.683C605.589 745.485 608.74 738.276 606.021 733.779C604.034 730.5 607.496 727.636 605.138 723.499C603.419 722.993 603.346 722.926 601.7 723.456C599.14 726.247 591.679 732.834 587.955 733.224C578.749 724.931 602.181 714.553 604.144 708.094C606.052 701.811 601.023 695.961 603.9 690.434C604.065 687.911 601.694 687.082 601.493 684.852C599.859 666.717 595.903 648.881 592.246 631.044C590.131 620.728 585.944 610.514 583.725 600.242C584.517 598.373 584.286 598.947 586.267 597.615L586.035 597.144C580.519 597.746 582.53 593.19 581.305 588.864C579.922 583.986 576.878 579.812 578.69 574.836C577.649 574.254 576.946 574.388 575.751 574.401C574.209 575.809 574.635 576.767 574.24 579.385L571.172 580.484C571.937 582.619 571.945 580.208 573.945 582.168C575.033 587.088 574.521 599.545 569.099 602.115C565.339 602.533 566.643 600.396 562.765 601.051C560.754 589.943 565.833 565.682 566.439 553.488C566.449 553.306 567.857 552.023 568.093 551.816C564.733 549.096 566.675 541.558 566.611 536.917C566.558 533.059 563.779 515.681 561.746 513.277L561.024 513.419C560.395 517.911 559.439 516.804 558.104 520.621C556.969 523.863 557.635 530.594 554.687 532.967C552.412 534.797 548.629 534.14 545.841 533.902C545.967 519.658 552.786 510.149 555.619 496.322C560.539 472.306 551.457 444.933 544.827 421.886C542.574 414.054 537.98 405.654 535.171 397.846L536.008 396.534C535.31 395.287 532.855 391.887 531.602 389.836C527.481 383.084 524.32 374.997 520.38 368.441C514.494 358.649 508.641 349.578 502.321 339.781C495.741 329.58 484.921 317.729 475.835 309.595C474.486 308.387 471.251 308.7 469.437 307.554C468.154 306.744 464.76 303.631 463.849 303.567C454.019 302.878 441.191 301.003 431.535 301.312C420.455 301.667 425.728 305.374 412.972 302.989C415.15 297.026 417.827 293.64 424.768 293.316C431.926 292.982 444.065 291.139 450.659 293.466C450.358 286.791 408.743 267.837 401.761 267.237C399.67 269.342 400.21 275.3 398.327 277.245C395.354 280.317 363.503 274.069 361.828 273.099C361.657 271.418 361.65 271.306 360.974 269.736L360.818 269.382L361.955 266.615C366.26 263.733 375.213 268.011 377.255 265.243C376.409 264.132 368.013 260.482 366.258 260.184C362.892 259.613 359.125 259.468 355.861 258.267L355.134 256.49C354.064 255.663 339.575 255.571 337.263 255.698L336.544 254.059C335.045 253.201 335.721 253.372 333.743 253.744C332.997 260.053 351.823 272.631 343.597 280.041C332.41 290.12 334.878 272.445 327.65 266.705C324.38 264.107 321.815 252.595 314.008 254.442C308.257 254.697 273.855 262.16 274.511 267.635C278.234 268.678 277.642 269.272 281.535 268.836L282.191 268.759C284.029 269.689 284.038 269.872 285.107 271.737C284.808 272.078 282.88 273.763 282.876 273.612C282.907 274.784 283.26 277.908 282.607 278.904C277.031 287.423 272.094 297.023 265.964 305.058C264.661 306.321 266.084 308.494 264.676 309.974C259.52 315.395 258.092 317.581 254.995 324.242C249.565 335.919 242.345 347.238 235.478 358.124C233.285 361.598 230.492 364.468 230.49 369.02C233.001 368.963 235.207 366.703 237.558 365.342C242.311 364.711 251.566 368.417 252.707 373.316L250.848 373.292C250.008 374.789 251.85 373.373 252.102 376.605C250.294 379.168 250.642 377.689 248.681 379.121C242.333 383.759 240.783 395.823 234.106 400.446L233.441 400.9C230.457 414.08 216.265 428.334 213.767 443.308C213.635 444.101 209.17 448.555 208.274 450.317C211.438 456.469 206.934 455.085 205.206 457.64C206.107 458.6 206.406 458.837 207.014 460.051L205.546 462.117L205.873 463.148C209.176 464.505 210.534 460.617 213.567 459.407C214.027 459.223 214.052 460.108 215.976 459.811C216.06 458.435 215.991 458.325 216.557 457.02C219.663 456.18 220.708 456.31 223.947 456.441C228.703 451.441 232.778 455.822 234.734 460.761C233.411 462.808 234.152 462.127 231.467 463.14C230.436 465.188 231.819 465.357 231.638 466.353C230.355 473.406 224.954 481.008 222.697 487.516C220.443 494.015 217.891 499.55 215.507 505.453C214.006 506.603 213.431 506.848 212.627 508.484C212.816 510.759 213.238 512.272 212.12 514.171C208.548 516.019 205.921 525.46 204.198 529.94C204.673 531.11 204.852 531.268 204.747 532.538L202.148 533.789C201.093 536.575 203.134 539.13 202.474 541.935L200.825 541.31C199.12 542.312 196.205 550.482 197.284 553.013C200.992 553.736 204.809 547.616 209.517 550.222C210.593 552.116 210.512 552.339 210.638 554.587L209.233 555.645C208.703 558.596 210.345 556.054 211.219 560.047C210.618 561.17 210.084 561.312 208.965 561.917C206.833 561.624 207.28 561.476 205.32 559.813L204.719 560.116L205.074 563.088L204.326 563.752C202.937 563.641 202.615 563.58 201.186 563.819L200.819 566.389L198.52 565.588L197.841 566.409C198.563 567.012 198.555 567.023 199.091 567.8C194.654 572.688 191.381 578.187 187.121 583.015C186.598 583.608 185.525 583.163 184.494 582.971C183.077 583.966 182.27 587.792 181.171 589.263C171.968 601.569 162.198 616.078 159.879 631.477C159.727 632.482 155.877 635.371 155.592 637.083C158.107 639.582 156.927 639.886 155.303 642.732L155.68 643.512C159.938 643.561 158.781 639.387 162.512 635.986C169.259 634.457 163.708 632.269 166.458 627.412C169.836 626.437 168.016 627.102 171.931 627.851C173.28 626.218 172.869 626.846 173.187 624.487C174.647 623.647 176.099 623.927 177.853 623.988C180.531 626.285 177.777 629.911 178.56 632.726C178.798 633.579 178.785 632.647 178.974 634.329L178.088 635.389L175.837 635.072C174.919 635.7 168.402 645.017 167.1 646.687L168.139 648.454C167.702 650.032 164.793 652.513 163.405 654.255L164.223 656.047C158.598 658.509 163.748 657.18 160.991 662.884C157.285 670.55 153.833 678.143 150.028 685.736L150.948 687.814C149.792 688.009 148.88 688.1 147.727 688.204C148.703 690.477 149.6 691.561 149.119 694.09L147.255 694.31L147.049 695.339L148.495 696.893C147.636 696.96 147.098 697.027 146.248 697.174C145.576 700.184 144.636 704.37 143.616 707.411C143.521 707.692 142.482 707.478 141.665 708.679C141.846 715.321 139.211 720.836 139.432 726.375C145.921 734.614 161.091 744.284 170.206 750.159C171.341 750.89 179.206 747.935 182.174 752.03C182.108 754.028 178.628 760.159 177.371 761.859C167.991 766.326 156.44 754.906 149.305 750.397C147.7 749.379 135.696 740.055 135.312 739.964C135.465 740.842 135.669 741.122 136.095 741.896C130.177 751.347 129.497 783.461 126.802 786.843L125.067 786.758L124.53 787.934L124.914 788.818L126.825 788.184C126.984 792.474 125.698 801.334 124.714 805.563C123.772 806.209 123.073 806.124 121.989 806.124L122.05 806.752L124.1 807.513L124.452 808.482C123.581 809.439 123.36 809.561 122.825 810.761L124.398 811.901C124.374 816.203 123.892 821.663 123.616 826.044L122.623 826.002C121.493 827.921 122.888 832.784 122.596 835.295C121.558 844.179 123.392 852.302 124.404 860.547C125.139 866.531 125.961 876.007 119.236 878.048C109.265 875.678 113.836 842.967 114.099 835.276C114.227 831.541 113.777 825.989 114.313 822.479L115.521 822.376L115.859 821.791L114.543 820.523C114.429 817.513 115.885 806.465 116.338 802.919C117.929 790.469 119.17 777.294 121.188 764.967C123.284 752.17 126.819 742.645 126.641 729.373C118.209 720.671 108.956 704.894 103.569 694.011C100.331 687.472 99.1749 677.412 95.1923 670.715C93.9056 668.551 96.1194 669.002 96.8996 667.339C95.8116 666.199 95.0923 665.651 93.8513 664.67L93.8757 663.408C94.6352 662.97 95.3861 662.519 96.1279 662.055L95.8378 661.08C94.5663 661.653 95.1978 661.58 93.8995 661.44C91.9386 653.561 90.0235 634.585 90.207 626.255C91.0762 626.163 91.5553 626.072 92.411 625.889L92.5707 624.548L92.038 623.969L90.1156 624.847C88.8295 623.714 91.3346 615.31 90.8884 611.099L89.6773 610.21L89.4512 611.215C87.4489 612.812 84.8755 611.325 83.3322 612.16C78.957 614.518 74.7379 621.459 68.7962 617.394C66.5886 614.36 67.2072 611.106 67.5741 607.507C68.9377 605.592 71.917 607.021 75.1591 604.863L75.0122 603.987C70.993 602.602 63.672 604.812 59.96 603.251C54.8004 601.08 41.1696 603.159 40.2852 596.247C40.7405 593.986 42.4983 592.775 44.2269 591.235C47.8859 591.881 70.6321 593.74 73.1257 592.33C72.991 588.409 65.5975 585.977 63.8311 582.199C61.6148 577.455 58.1533 573.256 56.2778 568.326C57.9272 568.677 57.3134 568.878 58.4965 568.335C54.5828 565.962 53.6544 564.763 54.3847 560.286L53.3619 558.934L53.5911 557.41C55.7945 554.259 57.7797 553.108 61.396 554.452C63.3252 556.459 63.0923 561.095 67.2273 565.65C72.2778 571.213 71.9499 574.967 79.0698 579.666C82.2698 570.165 80.393 561.134 85.7952 552.695C85.9251 552.492 84.7414 551.061 85.2918 549.282C88.048 549.327 90.697 549.44 93.4338 549.514C94.6876 555.373 93.961 567.795 92.0477 573.38C81.0105 605.593 106.189 584.381 113.185 592.481C115.543 602.367 102.753 602.375 96.596 604.017C97.019 604.883 98.2472 607.423 98.4368 608.237C98.8787 610.131 97.7401 613.135 99.0725 614.859C99.782 613.458 99.9581 613.159 100.881 611.892L101.624 612.41C101.645 614.975 99.131 616.675 99.0743 617.541C98.9457 619.509 98.7482 622.842 98.6202 624.914L100.779 625.456C100.807 627.345 100.177 627.425 98.6873 629.192L100.657 629.472C101.668 631.648 99.9484 637.089 100.415 639.21C103.159 651.702 105.693 667.113 108.972 679.282C110.956 686.644 123.816 709.373 129.267 714.401L130.29 714.254C132.841 710.434 143.714 668.856 141.433 664.621C143.904 659.423 140.023 658.088 145.823 650.611L147.749 650.575C148.721 647.766 147.506 644.481 148.378 640.837L149.972 640.386L150.266 639.594L148.787 638.643C149.495 630.734 152.288 622.623 154.51 615.054C155.719 610.935 157.839 610.636 158.992 608.121C161.231 603.244 163.422 597.885 165.876 593.057C166.587 591.659 170.052 589.013 171.289 587.862L171.988 584.314C174.566 581.42 178.109 577.055 180.509 574.264L181.756 575.092C183.228 573.945 180.887 567.961 181.45 567.149C182.88 565.089 184.303 563.43 185.48 560.646C181.735 556.794 190.839 546.492 189.591 541.517C188.729 538.079 192.53 536.582 192.953 534.282C193.448 531.58 191.641 529.784 193.844 526.842C195.295 526.477 195.642 526.452 196.958 525.64C196.376 514.545 199.707 516.478 202.088 508.659C204.025 502.3 218.012 476.012 218.156 471.228C213.716 469.885 213.657 472.799 210.014 474.305C207.151 475.487 197.417 476.544 195.258 474.478C195.593 472.813 195.82 472.383 195.353 470.818L193.458 470.338C193.723 469.005 193.566 466.45 194.061 465.537C195.304 463.24 197.847 462.341 198.352 459.814L196.97 458.489C197.846 452.203 202.987 448.034 202.718 441.554C202.68 440.635 202.853 440.212 203.375 439.46L205.604 439.955C206.129 438.782 206.124 437.61 205.662 436.159C204.545 432.653 210.507 425.433 212.451 422.407C213.547 420.703 212.502 419.372 212.828 418.876C218.979 409.394 223.395 398.911 229.236 389.227C231.13 386.089 235.725 382.768 235.451 379.672C233.707 379.063 229.317 378.482 227.285 378.158L226.898 378.896L228.094 381.071C227.961 382.791 228.318 382.123 227.107 383.2C225.872 383.137 224.934 383.069 223.707 382.914L224.012 384.052C222.95 386.901 219.517 387.256 217.098 388.468C216.71 388.662 217.952 389.49 216.814 391.142C212.217 391.704 206.952 387.487 210.551 382.718L211.763 382.875C211.973 382.129 211.565 381.447 211.277 380.542C216.379 371.133 221.798 361.972 226.128 352.189L228.238 351.547C232.601 342.493 243.222 321.189 250.046 315.107L250.569 314.646C251.344 309.779 249.449 314 251.907 308.968C254.373 303.917 268.932 282.191 268.854 278.447C265.837 276.408 260.205 276.371 256.12 274.357L255.806 273.277C257.241 271.222 256.413 270.105 257.995 268.188C259.322 266.582 257.557 267.639 257.118 265.398C265.254 255.72 287.317 249.415 299.261 246.611C302.194 245.922 306.61 245.697 308.822 244.349L308.75 243.28C306.492 241.294 301.611 239.309 298.188 237.061C297.878 234.437 297.164 231.69 296.564 229.093Z" fill="black"/>
<path d="M154.551 788.184C159.175 789.592 159.79 790.999 159.885 795.826C159.954 799.372 159.268 800.055 157.022 802.468C155.976 803.589 157.032 808.921 155.77 811.365C154.668 811.127 154.341 810.932 153.271 811.261C153.271 814.022 153.872 816.678 154.373 819.396C151.773 822.492 151.048 821.468 148.983 823.247C150 825.752 149.284 822.931 151.484 824.74C149.901 828.555 147.779 833.674 146.17 837.556C146.002 837.958 147.593 840.919 146.774 843.418C142.195 847.622 144.675 848.104 143.485 853.704C143.399 854.106 139.723 857.19 139.067 857.878L139.366 858.725C140.677 859.152 141.039 859.152 141.858 860.273C140.982 864.082 140.423 867.275 139.802 871.108L137.89 871.065L137.399 871.748C137.863 879.036 136.097 884.477 135.72 891.327C135.254 899.773 133.937 906.543 132.111 914.776C131.63 916.945 133.498 919.376 133.085 922.259C131.964 922.606 131.759 922.576 130.835 923.264C131.556 936.378 130.424 952.916 129.921 966.17C129.64 966.591 128.143 968.931 128.166 969.199C129.286 982.227 129.053 1005.25 130.726 1017.3C131.252 1022 130.994 1029.87 130.959 1034.85L128.178 1034.85C122.347 1034.86 120.322 1031.6 120.207 1025.97C119.738 1003.15 120.674 980.466 120.56 957.542C120.439 933.191 124.615 905.964 128.57 882.089C128.683 881.412 127.73 878.981 127.529 878.244C132.379 860.511 135.865 841.961 142.099 824.631C142.285 824.113 143.576 824.222 144.238 824.186C144.08 822.925 143.728 819.366 143.699 818.458C143.533 813.26 146.81 812.961 147.152 811.596C148.638 805.655 146.34 803.748 151.328 798.842L151.809 798.373C149.704 793.26 151.014 791.603 154.551 788.184Z" fill="black"/>
<path d="M273.009 352.41C274.426 352.878 277.105 353.678 277.879 354.921C282.174 361.823 280.662 375.045 273.474 379.696C271.23 381.149 265.894 382.468 263.309 381.841C261.143 380.12 262.195 380.574 258.815 380.585C255.295 376.465 257.489 366.98 259.287 362.421C262.79 353.535 264.893 355.915 272.476 352.643L273.009 352.41Z" fill="black"/>
<path d="M466.586 330.242C481.125 330.598 475.889 343.209 475.619 353.824C473.009 357.503 470.725 362.446 465.374 360.861L465.278 359.422L465.132 359.14C457.302 358.422 461.936 349.516 460.874 344.731C460.241 341.881 457.279 340.508 456.793 337.807L458.393 336.732C458.269 335.38 458.256 335.447 458.583 334.132C459.976 334.879 460.092 334.813 461.608 335.031C464.48 332.594 464.883 333.639 466.586 330.242Z" fill="black"/>
</g>
<defs>
<clipPath id="clip0_2117_7">
<rect width="772" height="1248" fill="white"/>
</clipPath>
</defs>
</svg>
