<svg width="772" height="1025" viewBox="0 0 772 1025" fill="none" xmlns="http://www.w3.org/2000/svg">
<g clip-path="url(#clip0_2091_9564)">
<path d="M202.049 127.745C211.485 116.589 231.192 104.75 245.985 106.513C248.481 106.81 249.135 107.648 250.422 109.419C251.376 114.514 249.824 116.569 247.125 120.688C256.499 121.994 270.371 118.108 279.032 125.615C282.83 128.908 279.975 134.026 276.813 136.687C277.138 136.889 277.46 137.097 277.778 137.311C285.613 142.623 298.877 156.764 300.616 166.362C299.9 168.724 299.158 168.175 296.3 169.915C296.86 174.811 310.548 192.318 314.55 196.782C319.763 202.599 325.881 206.948 330.388 213.886C331.323 226.718 328.828 241.063 329.062 254.041C329.141 258.428 332.64 264.35 332.368 268.569C332.102 272.688 330.403 278.926 329.001 282.666C327.116 287.693 325.827 285.965 321.896 287.122C320.71 287.47 320.418 290.466 319.588 292.529L316.433 293.79C315.06 304.373 327.385 320.019 316.043 333.506C316.364 336.17 316.625 339.436 316.698 342.135C318.006 381.581 369.353 388.398 400.343 393.305C475.527 405.212 569.147 379.804 633.476 432.127C651.123 446.484 663.987 472.464 671.308 493.191C672.434 496.366 683.046 505.756 685.045 509.633C700.027 529.613 706.982 552.93 709.5 577.553C710.273 585.146 706.429 600.71 697.669 587.89C695.191 584.266 692.706 572.804 690.614 568.076C686.55 558.911 681.741 551.758 676.085 543.533C676.058 560.789 674.552 571.805 670.988 588.442C667.891 602.868 661.562 619.359 662.108 633.585C662.528 644.488 665.399 657.515 667.578 668.184C670.589 683.616 673.993 698.968 677.783 714.226C679.516 721.186 682.64 730.27 683.806 736.99C685.238 745.242 684.825 758.549 684.705 767.201C684.458 784.997 684.245 803.752 682.473 821.421C681.061 829.46 685.564 839.477 681.281 846.943C677.184 854.063 673.893 864.592 665.692 867.809C658.797 870.52 652.262 865.911 646.513 866.044C633.409 866.344 629.392 870.4 616.888 864.12C609.34 851.285 621.178 846.004 627.081 836.327C636.127 821.501 640.524 804.498 643.422 787.701C647.699 762.912 637.053 746.361 621.278 728.739C616.595 723.231 609.787 713.9 605.223 707.826C604.084 706.5 600.254 701.632 599.281 700.986C599.181 704.389 600.007 704.356 598.675 707.193C588.313 712.055 582.874 714.752 579.274 726.667C581.303 732.089 590.578 745.209 590.329 749.012C588.795 770.058 582.736 789.166 582.972 810.559C582.152 822.214 580.816 835.694 576.458 846.57C575.181 849.754 558.837 864.273 555.381 864.646C524.925 867.889 487.215 860.683 527.565 827.502C537.122 819.643 546.998 778.863 543.422 765.329C538.089 750.397 516.28 734.093 505.537 722.338C485.77 699.68 476.811 670.382 473.625 641.011C473.303 638.034 473.292 635.37 472.418 632.573C469.336 633.592 467.266 639.479 462.922 640.958C461.21 639.492 462.539 622.07 462.155 617.9C448.633 632.579 434.859 623.488 421.047 638.52C416.867 643.069 408.309 653.645 402.53 648.83C401.231 646.193 401.401 643.175 401.259 640.152C396.198 644.787 390.872 648.484 385.966 653.585C386.059 663.789 382.562 673.226 382.728 681.665C383.047 697.889 386.966 716.058 386.99 732.721C387.012 748.739 386.535 764.444 387.663 780.295C388.06 785.876 392.048 791.604 394.323 796.532C398.41 807.695 407.134 818.058 392.848 823.945C391.61 827.342 406.045 850.579 391.435 851.678C390.775 853.07 392.899 865.705 393.037 868.495C394.176 891.38 395.064 911.127 366.707 908.097L362.719 912.972C358.066 913.025 353.716 913.951 349.11 914.617C341.397 915.742 336.145 914.357 328.674 912.792C326.446 910.614 324.515 908.723 322.449 906.392C318.026 907.317 311.168 908.629 307.249 906.238C294.213 898.293 310.825 883.427 315.305 876.78C328.605 857.053 331.127 836.267 331.345 813.096C331.435 803.352 328.442 792.656 327.396 782.979C322.919 755.552 319.588 727.68 310.704 701.232C306.944 689.936 302.536 682.097 298.542 671.854C290.417 671.867 286.589 671.781 278.764 668.81C279.905 672.294 281.101 673.499 278.925 676.849C272.335 680.079 268.189 674.205 261.478 672.434C258.077 671.541 255.026 670.982 251.582 670.449C252.939 678.854 255.25 701.825 253.661 710.323C253.262 712.461 249.498 710.283 246.628 711.602L246.401 713.3C248.001 715.984 248.868 715.505 251.951 717.616C252.331 720.054 252.504 719.141 251.61 721.319C247.711 723.117 245.919 725.175 246.451 729.771C247.896 742.259 249.026 754.527 249.607 767.088C249.593 770.777 253.679 780.168 253.378 783.192C252.682 790.178 258.71 814.575 248.894 814.894C246.593 813.902 247.323 814.242 245.625 812.024C243.154 827.142 243.041 843.46 240.619 858.845C237.427 879.125 222.992 885.272 205.297 891.333C203.252 890.887 199.948 889.781 197.864 889.148C185.595 893.011 186.545 888.589 175.578 886.171C164.982 883.834 151.436 883.447 156.239 866.604C159.361 855.654 168.308 845.904 178.698 840.443C200.962 799.063 191.171 740.867 180.386 696.843C178.475 689.044 175.801 681.278 173.743 673.499C166.169 644.468 158.891 615.356 151.909 586.171C151.601 584.879 151.913 585.239 151.103 584.739C150.498 585.865 150.459 585.978 149.622 586.937C143.342 587.83 141.983 583.727 139.837 579.018C134.789 567.929 134.106 556.78 134.9 544.812C135.017 543.053 135.196 537.799 134.377 536.62C132.666 538.598 131.727 539.111 129.253 539.523C128.003 539.144 126.785 538.931 126.128 537.712C123.286 532.417 126.461 520.069 126.892 514.195C127.704 503.126 127.994 493.716 128.092 482.983C128.227 468.206 124.354 455.738 121.181 441.529C119.346 432.98 117.878 423.49 116.573 414.815C115.034 404.582 119.192 393.603 119.65 383.466C119.71 379.407 115.527 373.409 115.948 369.302C117.127 357.8 118.85 346.167 120.363 334.696C120.931 330.394 122.332 326.408 122.703 322.093C122.361 322.267 122.019 322.439 121.677 322.612C118.038 324.928 113.646 323.874 109.658 324.522C105.736 325.316 102.358 327.481 98.2593 326.317C90.8547 324.213 90.0493 315.021 90.1612 308.563C90.2372 304.148 91.6035 300.218 93.0045 295.988C86.8576 290.479 83.9911 281.426 82.5841 273.579C81.5755 274.607 76.314 278.276 76.2801 278.032C76.5479 279.95 77.4059 282.819 76.2474 284.83C75.1595 286.719 76.0116 286.228 74.1276 286.957C66.9755 283.645 67.2793 269.348 65.6099 263.465C64.1223 263.348 64.8558 263.33 63.2822 264.121C58.9101 263.857 56.3327 260.613 55.2994 256.657C41.7913 204.962 94.4288 168.464 133.553 147.613C142.929 142.615 150.863 139.905 159.52 134.185C172.672 125.494 187.265 120.843 202.049 127.745ZM184.669 669.463C183.804 663.496 183.322 642.996 177.872 640.904C178.25 648.024 181.64 662.89 184.669 669.463ZM327.435 728.818C332.864 753.621 337.344 781.9 340.715 807.275C342.131 817.931 338.716 836.553 337.918 847.702C336.571 857.06 328.642 869.255 326.34 876.947C323.025 882.109 312.763 894.117 311.187 897.28C319.473 901.929 325.244 882.761 327.473 877.353C327.84 877.56 328.96 878.565 329.351 878.898C333.098 878.565 332.256 874.969 336.184 874.489C338.712 875.828 339.972 878.013 341.728 880.35C337.175 891.266 333.91 887.996 332.344 903.821C343.134 906.864 346.996 906.558 356.471 901.949C355.739 896.415 354.276 888.476 359.976 884.913C364.933 885.572 364.635 890.607 364.789 894.59C367.814 896.801 374.581 902.802 378.551 898.866C387.251 890.234 384.574 875.675 383.358 864.659C382.634 858.092 379.557 851.119 379.427 844.232C379.355 840.383 385.566 835.308 385.105 833.649C382.586 824.578 376.276 822.5 386.537 815.374C386.502 813.083 385.452 811.478 384.587 809.4C374.484 785.097 378.278 757.124 377.314 731.482C377.129 726.581 377.171 722.198 376.172 717.35L373.99 708.039C372.714 710.43 371.91 712.674 369.656 713.946C366.239 713.853 365.234 712.488 362.464 710.177C348.217 714.406 349.535 719.514 337.78 726.601C335.865 727.759 330.644 727.62 327.435 728.818ZM188.162 689.011C200.909 732.588 210.7 801.254 186.954 843.773C185.81 845.824 181.676 848.968 179.605 850.326C174.24 853.863 162.187 866.024 164.743 873.211C166.022 874.696 166.186 874.669 168.14 875.269C169.413 866.81 174.019 863.787 180.779 859.417C184.906 856.753 189.288 851.532 194.11 855.308C195.788 856.627 195.644 857.1 195.721 858.898C192.15 866.244 178.558 868.309 178.62 875.708C180.636 878.819 182.248 878.552 184.719 879.764C194.617 884.619 193.763 874.183 202.324 870.686C207.499 868.575 207.422 876.354 211.648 878.386C218.486 878.053 229.514 869.108 230.701 861.868C234.642 837.839 236.107 813.329 237.733 789.033C238.062 784.124 240.083 780.515 240.58 775.773C240.383 755.899 237.399 736.265 237.82 716.377C237.951 710.223 234.651 694.878 238.862 691.029C241.207 690.896 242.671 690.942 244.272 689.337L244.095 685.541L243.442 682.697C242.095 680.086 242.091 678.767 240.205 676.143C239.036 677.522 239.126 680.053 238.967 681.978C237.259 696.517 225.584 684.682 224.709 684.675C214.312 684.608 198.942 683.476 189.319 686.959C188.533 688.025 188.438 687.845 188.162 689.011ZM663.96 743.691C659.677 744.663 653.168 746.754 649.477 744.383C646.626 742.558 643.222 737.503 640.87 736.364C641.13 736.864 641.084 736.831 641.397 737.25C663.267 766.921 652.282 808.647 636.747 838.551C634.235 843.373 624.116 853.45 623.996 856.66C627.6 860.037 639.312 857.213 643.948 856.447C644.461 850.633 652.036 825.924 660.909 832.377C664.32 838.092 653.594 848.108 653.914 856.187C656.093 860.643 661.509 860.516 664.207 857.22C668.17 852.371 671.361 844.665 674.079 839.077C671.774 826.676 673.78 813.289 674.632 800.748C676.338 785.103 675.092 768.819 675.752 753.268C676.398 738.163 673.54 737.43 670.269 724.216C668.723 732.222 669.443 737.796 663.96 743.691ZM547.321 725.182C545.681 722.398 545.566 721.739 546.22 718.615C548.914 710.43 548.214 707.493 546.113 699.74C547.811 693.173 545.494 685.587 542.652 679.667C542.749 674.771 543.824 667.006 541.358 662.876C539.186 661.211 536.922 662.004 534.119 661.331C526.921 659.613 527.747 660.212 523.971 654.758C520.134 653.672 518.895 657.848 513.985 658.447C512.874 657.835 512.692 657.035 512.158 655.863C514.055 650.222 523.162 652.759 526.625 649.916C523.5 646.992 506.561 648.344 501.58 648.71C499.991 648.83 496.749 650.615 495.282 651.487C492.825 650.608 491.527 650.142 488.903 649.629C482.811 652.613 492.809 675.198 495.136 680.166C496.089 683.223 497.018 686.58 496.593 689.83C498.119 696.697 502.358 701.638 506.496 707.326C511.352 715.045 526.77 728.592 533.56 735.832C539.866 742.552 544.252 747.973 549.938 755.299C555.893 771.943 553.181 788.014 549.613 805.117C548.098 812.383 540.014 827.835 535.097 833.576C530.798 838.631 519.707 844.885 520.117 851.732C522.621 855.235 526.742 854.556 530.79 854.809C532.786 849.727 534.466 846.011 538.324 841.968C541.38 838.764 550.6 831.531 553.585 838.025C553.475 846.95 545.444 849.627 541.336 856.414C555.39 857.186 558.551 851.312 567.673 841.815C568.701 837.645 569.435 834.515 570.075 830.219L570.673 832.304L571.094 832.191C573.739 823.679 573.965 803.086 574.701 793.968C575.229 787.435 576.695 780.941 576.967 774.481C578.42 766.029 580.288 758.223 581.611 749.545C579.977 746.621 578.178 744.024 576.587 740.987C574.697 739.381 574.316 738.949 572.12 737.903C569.98 740.094 568.488 741.912 565.469 742.379C561.92 741.899 559.444 739.308 557.195 736.717C557.156 736.358 556.705 735.379 556.546 734.992C550.844 730.79 549.207 726.427 547.321 725.182ZM697.509 560.223C694.911 548.268 686.424 523.279 676.897 515.227C678.083 521.088 678.523 525.031 678.037 530.998C683.792 537.932 688.715 544.372 693.112 552.258C693.892 553.663 696.876 559.544 697.509 560.223ZM375.224 615.796L375.842 615.409C380.108 612.739 383.997 608.969 381.175 603.694C379.054 602.189 380.043 602.529 377.428 602.409C370.657 605.193 370.886 616.442 371.32 622.676L372.376 622.363C374.026 619.812 372.25 619.146 373.959 615.849L375.224 615.796ZM404.285 628.157C400.21 627.105 390.504 632.839 386.222 635.09L385.973 636.575L386.312 638.647C390.207 638.547 400.844 630.728 404.285 628.157Z" fill="black"/>
<path d="M580.476 655.53C585.01 670.136 591.561 684.329 599.474 697.403C601.486 700.719 603.625 704.323 605.223 707.826C604.084 706.5 600.254 701.632 599.281 700.986C599.181 704.389 600.007 704.356 598.675 707.193C588.313 712.055 582.875 714.752 579.274 726.667C575.994 722.678 571.567 709.651 570.5 704.009C566.69 683.863 569.695 671.988 580.476 655.53Z" fill="#FEFEFE"/>
<path d="M221.715 122.523C229.17 118.112 231.225 116.758 239.882 114.889C234.994 118.375 232.756 120.197 228.342 124.519C226.87 127.08 225.346 129.131 226.263 132.124C226.796 133.851 228.053 135.263 229.708 135.991C234.162 137.966 238.174 135.133 241.038 131.925L242.494 133.556C248.874 132.97 256.957 125.586 265.392 131.748C268.432 133.968 266.845 139.715 268.728 141.876C273.238 147.051 283.094 150.869 285.934 158.1L285.721 158.898C283.606 159.686 281.115 160.645 280.305 163.183C277.961 170.527 281.953 181.482 280.864 188.573C279.126 199.88 274.976 208.381 276.148 220.604C276.737 226.745 270.765 226.244 270.793 230.961C270.904 235.589 276.069 242.277 276.72 246.324C278.955 260.213 281.059 274.139 282.854 288.087C283.193 290.722 283.436 291.064 281.372 292.96C280.596 297.789 282.025 309.296 284.787 312.478C289.999 318.482 292.75 314.677 294.411 323.949C297.074 325.222 301.255 327.073 303.592 328.61C307.972 337.646 307.118 341.985 308.844 351.465C312.668 372.463 330.683 384.465 349.483 391.049C422.919 416.766 501.455 397.265 576.077 413.879C579.186 414.572 582.124 416.867 585.089 417.976C588.841 419.18 593.632 419.083 597.676 420.732C622.778 430.966 641.211 449.416 653.395 473.409C661.096 488.58 668.091 508.394 668.837 525.351C669.097 531.352 667.498 543.4 667.172 549.887C666.532 562.794 664.301 579.338 661.27 591.892C657.459 607.704 653.868 612.352 653.688 629.635C653.489 649.136 657.006 661.305 661.136 680.08L670.689 723.191L670.27 724.216C668.724 732.222 669.444 737.796 663.961 743.691C659.677 744.663 653.169 746.754 649.478 744.383C646.627 742.558 643.223 737.503 640.871 736.364L639.978 736.671C619.38 713.64 596.025 682.018 588.637 651.86C582.765 627.897 590.249 613.991 562.192 598.619C538.855 585.838 509.966 587.144 487.692 601.909C484.738 603.867 476.625 612.812 474.899 613.331C466.921 611.387 464.821 594.756 455.178 615.523C448.697 616.082 436.485 615.216 430.892 618.793C427.249 621.124 423.328 626.878 416.816 628.137C412.804 628.91 409.023 626.612 404.286 628.157C400.211 627.105 390.505 632.839 386.222 635.09L385.973 636.575L385.295 636.602C381.766 634.198 377.979 621.15 377.54 617.108C377.449 616.262 376.324 616.162 375.224 615.796L375.843 615.409C380.109 612.739 383.997 608.969 381.175 603.694C379.054 602.189 380.044 602.529 377.429 602.409C370.658 605.193 370.886 616.442 371.321 622.676C371.792 625.979 372.213 629.329 373.278 632.506C374.723 636.815 377.914 641.897 378.583 646.259L377.476 647.698L376.599 647.731C376.452 645.154 376.538 643.329 375.514 640.958L374.566 640.591L374.646 641.124C375.787 649.116 371.256 655.81 372.553 665.227C373.549 672.46 372.315 682.091 373.639 689.57C374.116 696.39 376.837 711.349 376.173 717.35L373.991 708.039C372.714 710.43 371.911 712.674 369.657 713.946C366.24 713.853 365.235 712.488 362.465 710.177C348.218 714.406 349.535 719.514 337.781 726.601C335.865 727.76 330.645 727.62 327.436 728.818C321.818 698.575 309.375 671.368 294.774 644.561C288.825 631.62 282.824 618.673 275.825 606.258C271.987 599.452 265.35 577.193 257.571 575.302C255.06 576.241 255.823 575.548 254.653 577.813C254.124 588.209 290.154 649.083 288.673 653.539L286.914 651.134L286.456 651.8L287.543 655.131L286.876 655.956C284.791 656.556 283.143 655.583 280.99 654.778L280.158 655.277L281.464 657.255L281.213 657.688C277.674 656.11 272.654 653.445 268.826 653.792C265.353 656.243 268.471 661.624 270.289 664.475C262.56 663.729 254.436 660.419 246.952 659.886C238.845 659.306 243.024 678.541 243.442 682.697C242.095 680.086 242.092 678.767 240.206 676.143C239.037 677.522 239.127 680.053 238.968 681.978C237.26 696.517 225.585 684.682 224.709 684.675C214.313 684.608 198.942 683.476 189.32 686.959C188.534 688.025 188.439 687.845 188.163 689.011C185.886 685.647 181.349 666.526 180.057 661.424C172.939 633.319 165.569 605.239 159.108 576.98C157.821 571.352 155.104 566.484 148.862 566.271C144.283 562.741 147.112 558.032 144.919 552.191C143.935 555.122 146.046 566.084 146.382 570.147C143.187 561.835 143.778 552.864 143.933 544.146C144.026 538.944 144.886 528.767 139.526 525.89C137.267 525.531 136.639 525.87 134.603 526.869C134.394 523.373 135.993 511.937 136.304 507.755C137.092 497.238 137.752 484.987 136.672 474.575C133.832 447.216 121.707 421.023 127.533 393.069C128.702 387.46 133.723 370.006 131.408 365.35C129.204 363.733 130.183 364.209 127.037 363.911C125.128 361.791 128.122 343.129 128.728 338.519C129.787 330.47 138.883 311.5 129.541 304.774C124.386 301.063 119.128 313.603 114.501 314.867C112.874 313.072 112.972 306.241 112.893 303.564C114.643 300.981 119.033 296.603 121.239 294.31C128.457 286.809 133.856 280.993 138.854 271.891C157.125 238.616 130.444 215.223 137.46 182.499C139.389 173.503 146.932 167.335 151.5 159.628C153.984 155.435 155.501 151.301 157.271 146.768C165.808 140.022 182.138 130.348 192.442 134.164C211.901 141.37 205.853 132.874 220.971 123.005L221.715 122.523ZM184.669 669.463C183.805 663.496 183.323 642.996 177.872 640.904C178.251 648.024 181.64 662.89 184.669 669.463Z" fill="#FEFEFE"/>
<path d="M221.715 122.523C229.17 118.112 231.225 116.758 239.882 114.889C234.994 118.375 232.756 120.197 228.342 124.519C225.758 123.923 226.707 124.044 223.569 125.348C222.015 124.433 222.502 124.691 221.715 122.523Z" fill="#EBEAEA"/>
<path d="M168.46 227.471C178.796 228.338 179.337 234.27 175.216 241.96C164.091 262.712 163.511 282.13 162.703 305.225C165.016 300.427 167.685 292.672 174.09 294.205C178.185 297.484 178.82 302.833 179.209 307.746C179.78 314.958 180.775 321.163 182.611 328.17C184.451 319.551 183.248 316.135 192.654 316.022C212.081 284.462 252.394 285.268 266.095 321.372C266.345 318.578 266.785 311.592 268.283 309.808C271.987 305.399 272.508 310.492 274.704 303.01C276.273 301.95 275.505 302.144 277.697 302.555C281.875 305.79 284.209 312.838 282.812 317.936C279.7 321.671 277.361 319.39 274.525 316.9C273.364 322.784 273.171 326.492 269.131 331.017L266.818 331.906C259.41 330.529 258.121 332.551 252.064 328.415C237.511 353.84 236.002 333.939 228.787 332.89C225.969 336.383 225.79 348.964 220.447 348.387C213.116 347.597 214.702 340.851 215.288 335.667L213.745 334.939C206.704 339.75 210.53 345.776 205.489 350.901C202.999 351.811 204.086 351.722 201.314 351.035C196.054 346.975 192.632 334.577 190.53 328.182C189.712 333.482 188.958 341.713 184.601 345.148C175.247 346.458 171.37 314.723 170.376 307.459C167.433 313.452 166.088 323.069 161.64 325.296C159.367 325.234 159.111 325.17 157.314 323.785C154.581 319.645 154.544 312.452 154.418 307.537C153.959 289.687 155.968 240.81 168.46 227.471Z" fill="black"/>
<path d="M223.358 304.382C230.81 303.753 246.278 305.924 249.605 314.688C250.448 316.908 242.48 328.967 240.515 331.958C236.717 327.29 232.071 318.41 225.404 317.929C219.33 320.512 221.418 331.237 222.025 336.636L220.235 336.523C216.768 334.075 217.83 328.41 212.619 321.719C209.84 322.279 206.897 322.707 204.354 323.912C203.454 325.529 203.616 326.379 203.843 328.424C204.224 331.848 203.199 333.632 201.917 336.878C199.915 331.374 198.197 327.928 195.565 322.688C203.873 313.006 210.895 307.007 223.358 304.382Z" fill="#FEFEFE"/>
<path d="M230.152 241.157C242.146 240.656 257.782 248.362 262.073 259.46C266.592 271.146 253.499 282.517 243.823 285.646C230.477 286.436 215.934 276.957 211.928 263.657C208.963 253.814 220.811 243.23 230.152 241.157Z" fill="black"/>
<path d="M232.047 252.491C241.255 251.344 251.798 253.727 256.789 262.257L256.583 262.994C246.382 258.288 247.29 261.294 236.693 259.538C230.94 259.744 230.05 260.414 225.234 263.559L222.935 270.486C215.037 259.023 221.503 256.77 232.047 252.491Z" fill="#FEFEFE"/>
<path d="M183.079 175.288C205.511 175.749 208.176 200.994 181.861 201.159C178.494 200.31 167.367 197.833 165.531 196.113C153.744 185.068 175.06 176.456 183.079 175.288Z" fill="black"/>
<path d="M181.4 183.759C184.955 183.625 190.763 184.568 191.428 188.751C189.773 190.883 189.52 190.515 186.839 191.623C182.742 192.361 177.038 192.655 176.96 186.962C177.946 185.002 179.331 184.7 181.4 183.759Z" fill="#FEFEFE"/>
<path d="M251.564 181.218C273.662 178.278 276.164 199.187 256.005 204.357C252.777 204.492 250.517 204.944 248.151 202.857C248.203 201.248 248.369 200.731 247.503 199.369L246.235 201.17L245.015 201.03C234.645 192.984 241.429 184.262 251.564 181.218Z" fill="black"/>
<path d="M254.515 188.983L254.957 188.979C258.016 188.976 258.612 189.05 260.483 190.895C260.173 193.415 260.522 192.438 258.695 194.662C256.633 195.396 256.094 195.727 253.96 195.706C253.051 193.86 254.034 191.462 254.515 188.983Z" fill="#FEFEFE"/>
<path d="M177.872 640.904C183.323 642.996 183.804 663.496 184.669 669.463C181.64 662.889 178.25 648.024 177.872 640.904Z" fill="#EBEAEA" fill-opacity="0.129412"/>
<path d="M144.848 151.628L145.715 152.128C144.27 157.912 136.203 164.401 133.204 169.707C122.578 188.51 128.425 209.693 133.846 228.811C140.479 252.208 135.045 267.742 118.63 284.513C113.863 289.383 110.131 292.687 106.639 298.462C101.95 306.216 106.932 312.694 104.296 317.149C101.636 317.693 100.424 316.668 98.9628 314.716C96.4394 304.497 112.328 290.131 93.1451 284.293L92.2864 284.035C91.1379 280.858 89.8928 271.66 88.9842 267.516L88.264 266.765C87.9263 266.407 87.5892 266.049 87.2514 265.692C83.6427 263.424 81.3051 251.667 76.7751 251.25L75.8818 260.299C74.6287 254.144 78.9182 239.782 68.4572 241.935C66.2835 243.523 64.4015 248.566 63.1984 251.2C56.0396 202.537 107.61 170.41 144.848 151.628Z" fill="#FEFEFE"/>
<path d="M496.594 689.83C492.649 684.009 485.322 661.051 484.488 652.973C484.317 651.321 486.91 648.41 486.341 646.379C485.134 645.533 483.206 644.521 483.122 642.856C482.761 635.936 479.181 621.756 484.112 616.215C503.334 594.61 541.659 593.384 564.302 610.334C577.527 620.231 576.62 628.703 578.362 643.302C571.676 650.488 565.039 663.655 562.416 673.06C555.627 697.396 565.577 719.967 576.587 740.987C574.697 739.381 574.316 738.949 572.121 737.903C569.98 740.094 568.489 741.912 565.47 742.379C561.92 741.899 559.445 739.308 557.196 736.717C557.157 736.358 556.705 735.379 556.547 734.992C550.844 730.79 549.207 726.427 547.322 725.182C545.681 722.398 545.566 721.739 546.221 718.615C548.914 710.43 548.214 707.493 546.114 699.74C547.812 693.173 545.495 685.587 542.652 679.667C542.75 674.771 543.824 667.006 541.359 662.876C539.186 661.211 536.922 662.004 534.119 661.331C526.921 659.613 527.747 660.212 523.972 654.758C520.135 653.672 518.896 657.848 513.986 658.447C512.875 657.835 512.693 657.035 512.159 655.863C514.056 650.222 523.163 652.759 526.625 649.916C523.501 646.992 506.562 648.344 501.58 648.71C499.991 648.83 496.75 650.615 495.283 651.487C492.825 650.608 491.527 650.142 488.904 649.629C482.811 652.613 492.809 675.198 495.136 680.166C496.089 683.223 497.019 686.58 496.594 689.83Z" fill="#FEFEFE"/>
<path d="M289.264 177.561C289.859 178.093 299.239 191.458 299.385 191.984C300.922 197.538 319.728 214.183 320.19 215.677C324.532 229.702 317.306 248.069 321.731 262.635C322.504 265.179 323.534 269.669 321.802 271.808L318.557 271.089C313.848 272.694 315.636 276.136 313.287 279.705C312.888 280.311 307.915 280.237 307.196 282.287C304.552 289.821 310.031 304.259 311.069 312.756L311.64 323.263C303.846 317.987 303.347 317.27 298.322 309.394C296.752 308.872 291.6 307.372 291.072 305.869C288.141 297.534 290.722 286.828 290.053 278.068C289.787 271.752 288.871 265.365 288.411 259.078C287.542 247.216 289.595 240.684 281.747 230.899C286.771 220.481 284.019 217.392 285.72 207.754C288.126 194.116 290.447 191.935 289.264 177.561Z" fill="#FEFEFE"/>
<path d="M495.283 651.487C496.75 650.615 499.991 648.83 501.58 648.71C506.562 648.343 523.501 646.991 526.625 649.915C523.162 652.759 514.056 650.222 512.158 655.863C512.693 657.035 512.874 657.834 513.986 658.447C518.895 657.848 520.134 653.672 523.972 654.757C527.747 660.212 526.921 659.612 534.119 661.331C536.922 662.003 539.186 661.211 541.358 662.876C543.824 667.005 542.749 674.771 542.652 679.666C536.183 676.996 527.924 668.43 522.446 664.115C520.38 662.49 517.402 663.502 514.664 664.022C510.186 662.103 505.961 659.539 501.313 660.845C495.925 665.647 502.042 673.919 495.136 680.166C492.809 675.197 482.811 652.613 488.903 649.629C491.527 650.142 492.825 650.608 495.283 651.487Z" fill="#FEFEFE" fill-opacity="0.901961"/>
<path d="M506.496 707.326C512.934 712.075 518.461 719.614 524.855 723.477C528.628 726.547 531.716 729.278 535.289 732.548C535.512 731.363 535.492 730.996 535.5 729.784C541.423 723.943 541.651 729.724 546.162 727.22L547.322 725.182C549.207 726.428 550.844 730.79 556.547 734.992C556.705 735.379 557.157 736.358 557.196 736.717C556.257 739.868 555.214 743.151 554.53 746.355C551.826 745.975 549.449 744.849 547.471 745.535C547.433 746.688 549.446 751.556 549.939 755.299C544.252 747.973 539.867 742.552 533.56 735.832C526.771 728.592 511.353 715.045 506.496 707.326Z" fill="#FEFEFE" fill-opacity="0.831373"/>
<path d="M570.075 830.219C571.494 825.304 575.191 807.541 570.726 804.358C569.671 804.604 568.697 804.891 567.657 805.19C563.937 802.493 563.776 788.813 566.284 784.944C569.098 783.911 567.905 786.562 571.893 786.196C573.283 784.531 575.734 777.304 576.967 774.48C576.695 780.941 575.229 787.434 574.701 793.968C573.965 803.086 573.739 823.679 571.094 832.191L570.673 832.304L570.075 830.219Z" fill="#EBEAEA" fill-opacity="0.760784"/>
<path d="M539.944 724.11C542.026 722.265 544.119 720.433 546.22 718.615C545.566 721.739 545.681 722.398 547.321 725.182L546.162 727.22C541.65 729.724 541.423 723.943 535.499 729.784C535.491 730.996 535.512 731.363 535.288 732.548C531.716 729.278 528.627 726.547 524.855 723.477C525.688 721.379 524.281 722.758 524.155 720.214C527.644 719.434 536.204 722.851 539.944 724.11Z" fill="#EBEAEA" fill-opacity="0.533333"/>
<path d="M371.32 622.676C370.886 616.442 370.657 605.193 377.428 602.409C380.043 602.529 379.054 602.189 381.175 603.694C383.997 608.969 380.108 612.739 375.842 615.409L375.224 615.796L373.959 615.849C372.25 619.146 374.026 619.812 372.377 622.362L371.32 622.676Z" fill="black" fill-opacity="0.94902"/>
<path d="M326.34 876.947L327.474 877.353C325.244 882.761 319.473 901.929 311.188 897.28C312.763 894.117 323.025 882.108 326.34 876.947Z" fill="black" fill-opacity="0.0117647"/>
<path d="M238.967 681.977C239.126 680.053 239.036 677.522 240.205 676.143C242.091 678.767 242.095 680.086 243.442 682.697L244.095 685.541C242.166 683.955 241.04 683.256 238.967 681.977Z" fill="#FEFEFE" fill-opacity="0.180392"/>
</g>
<defs>
<clipPath id="clip0_2091_9564">
<rect width="771.583" height="1024.1" fill="white"/>
</clipPath>
</defs>
</svg>
