<svg width="880" height="1168" viewBox="0 0 880 1168" fill="none" xmlns="http://www.w3.org/2000/svg">
<path d="M484.476 260.608C491.661 250.206 498.239 248.041 509.316 242.341C515.456 239.181 523.239 237.795 529.945 236.363C557.57 230.465 578.935 236.588 604.639 246.477C632.699 257.274 658.728 273.972 680.343 294.961C683.6 298.125 689.691 304.595 691.459 308.549C712.8 336.568 725.221 375.993 720.277 412.308C717.037 436.092 702.842 468.099 692.753 490.015C688.567 497.966 677.743 508.543 671.144 513.692C660.873 521.709 635.927 531.153 627.452 539.541C624.384 551.964 623.106 563.462 622.502 576.232C618.007 601.703 620.597 626.996 615.777 651.742C608.62 682.271 612.817 718.189 607.639 749.488C605.706 761.168 602.261 771.861 598.314 782.891C596.495 788.486 597.054 787.499 600.727 792.027C600.316 794.274 599.906 796.299 599.695 798.58C595.554 802.761 591.579 807.123 586.326 809.918C577.732 814.498 538.718 820.566 529.249 820.731C528.56 820.748 527.87 820.731 527.182 820.691C506.043 822.915 483.399 822.123 462.125 821.786C457.727 821.712 452.87 821.98 448.535 821.712C423.192 821.809 397.482 824.067 372.146 825.18C361.747 825.733 351.128 828.698 340.923 829.628C319.311 831.59 297.351 831.943 275.73 833.774C265.719 834.618 249.293 831.504 239.034 830.352C217.133 827.894 189.107 830.826 174.625 810.905C170.584 805.413 168.055 800.707 166.928 793.818C163.495 774.656 165.033 755.504 162.647 736.302C158.281 689.291 147.57 642.816 152.424 595.418C152.587 593.821 153.737 592.811 153.971 590.604C152.271 587.952 148.544 589.013 145.465 589.133C131.22 589.686 107.687 580.846 97.1637 571.14C85.1329 559.04 71.8667 540.316 66.8012 523.838C59.7652 500.948 60.3269 474.6 63.3901 451.116C65.4952 434.976 65.1313 422.397 73.4288 407.497C85.6753 385.507 105.02 363.028 128.277 352.461C139.009 348.119 159.093 344.532 170.635 341.298C184.823 337.523 200.51 331.709 215.292 330.423C227.14 329.391 242.352 330.248 254.504 329.53C258.362 329.303 266.778 330.491 270.64 331.013C276.48 331.803 283.622 334.657 289.591 335.577C316.267 340.805 341.467 342.349 367.89 334.634C391.78 326.806 409.701 302.14 429.281 288.264C441.893 279.328 470.107 265.216 484.476 260.608ZM137.97 480.27C138.521 500.479 138.905 521.611 154.853 536.796C162.163 543.755 175.524 554.261 184.812 558.646C189.255 560.743 192.7 559.311 198.802 563.211C198.943 568.531 198.559 572.406 198.299 577.647C198.124 581.183 198.61 585.409 198.717 589.047C196.081 605.073 205.858 614.244 213.506 626.893C217.134 632.893 221.591 641.607 223.409 648.314C232.771 668.395 228.748 715.497 232.055 738.041C232.898 743.79 233.428 753.902 235.086 759.508C239.671 775.003 249.65 794.229 261.992 804.797C268.383 810.272 278.504 815.256 286.924 815.809C294.126 816.619 302.05 814.395 309.122 814.509C336.821 814.971 364.027 809.256 391.465 807.477C416.539 805.738 441.672 805.008 466.805 805.276C482.486 805.293 501.617 805.783 517.088 805.156C534.005 804.472 555.834 799.612 572.981 797.782C568.827 783.056 574.612 781.117 578.382 767.818C583.954 748.153 585.243 728.785 585.157 708.522C583.235 711.533 579.368 714.163 576.466 716.66C572.701 716.843 568.644 717.276 564.909 716.717C559.135 715.845 553.555 713.079 548.028 711.237C540.558 708.75 532.837 706.572 525.175 704.758C513.105 701.895 500.688 699.009 488.499 696.705C480.526 695.2 472.452 694.196 464.537 692.377C446.889 688.322 429.434 682.898 411.706 679.242C403.833 677.617 395.82 676.59 387.926 675.022C369.687 671.395 351.538 667.129 333.128 664.414C324.824 663.194 316.007 662.743 307.615 661.95C297.131 660.964 286.258 660.211 275.738 659.926C268.073 659.72 259.597 660.633 252.106 659.11C250.782 658.842 249.89 658.477 249.182 657.251C247.935 655.09 248.028 651.907 248.634 649.569C249.117 647.71 250.442 646.392 252.097 645.486C264.348 638.801 342.595 649.107 359.872 651.89C370.982 653.687 381.885 656.578 392.951 658.397C398.03 659.23 403.297 659.201 408.327 660.274C429.906 664.87 451.175 671.275 472.761 675.9C484.135 678.335 495.739 680.058 507.17 682.311C522.837 685.51 538.423 689.103 553.912 693.072C563.106 695.422 575.639 700.213 585.505 703.213C586.446 698.222 589.885 669.895 588.79 666.108C584.222 663.872 579.009 672.296 569.922 670.465C563.917 669.262 558.332 667.089 552.414 665.635C546.62 664.876 540.606 663.627 534.826 662.954C523.829 661.671 512.5 657.639 501.919 655.745C472.41 650.47 442.981 645.029 413.245 641.22C408.173 640.569 403.046 639.064 397.95 638.414C377.758 636.184 358.505 635.368 338.469 631.536C321.998 628.382 304.062 627.789 287.636 623.711C280.304 621.892 260.626 625.485 257.258 618.96C254.821 598.304 297.099 610.89 308.607 610.126C313.928 609.773 322.67 613.308 329.268 612.504C331.161 611.301 330.559 612.116 331.188 610.012C329.651 607.531 318.403 594.693 315.92 592.652C313.721 590.844 301.921 591.699 298.134 590.924C282.681 587.764 266.85 584.787 251.136 583.139C240.346 582.044 229.161 583.259 218.335 582.825C216.948 582.768 214.617 581.93 213.598 580.869C209.844 576.54 213.815 571.881 216.754 568.946C216.902 568.903 217.051 568.859 217.2 568.817L217.947 568.618C233.04 564.5 263.108 569.552 278.576 569.288C272.835 562.995 267.778 554.847 263.587 549.092C259.131 542.975 238.123 550.328 230.993 546.856C224.896 543.887 224.679 542.688 221.615 536.632C213.779 536.421 206.348 538.114 198.709 539.592C195.32 540.247 186.348 542.103 183.468 539.869C182.123 538.826 181.344 537.073 181.315 535.396C181.011 517.745 215.081 527.192 226.272 515.242C229.536 511.756 231.389 504.46 231.067 499.723C230.985 498.519 230.923 497.894 229.901 497.136C226.034 494.269 169.325 479.018 161.178 477.632C155.81 476.733 150.349 476.528 144.93 477.021C142.198 477.295 139.764 477.558 138.131 479.591L137.97 480.27ZM330.662 380.127C347.259 383.674 361.796 390.281 376.107 393.512C375.072 397.814 371.173 406.066 370.843 408.371L371.566 409.183C374.607 409.197 380.28 406.534 383.086 405.098C384.313 403.552 387.74 402.207 389.448 401.071C404.744 390.896 402.73 385.977 406.221 370.064C407.788 362.92 411.671 357.036 414.912 350.624C421.08 338.424 423.092 328.88 436.03 320.885C455.187 309.044 515.818 288.027 537.728 293.554C547.666 296.061 560.449 300.224 568.916 306.099C582.026 315.197 589.098 328.852 599.934 340.11C611.842 352.485 623.568 357.017 633.252 373.241C637.569 380.477 641.316 388.415 641.556 396.984C642.257 422.282 613.747 448.517 594.716 461.661C588.089 466.239 574.789 472.102 571.298 478.988C568.846 483.829 566.86 490.583 567.708 496.064C568.549 501.509 573.146 506.253 575.41 511.206C578.387 517.732 583.549 538.002 584.142 545.222C584.381 548.11 584.017 550.966 583.304 553.765C580.612 564.272 574.532 573.484 565.064 579.061C554.368 585.363 535.396 583.915 524.506 578.679C521.693 577.327 519.171 573.689 516.124 573.312C513.137 572.947 509.897 573.598 506.939 573.991C497.309 575.274 489.071 575.445 480.125 571.008C474.372 568.159 469.24 556.69 465.435 555.458C460.892 553.987 453.224 555.69 448.32 555.568C441.901 555.372 435.523 554.472 429.301 552.884C408.246 559.537 415.041 564.47 406.761 580.949C398.409 597.568 371.925 605.672 357.174 614.101L357.404 615.162C359.396 616.879 363.207 617.962 365.822 618.225C418.096 623.266 469.403 632.499 521.02 641.796C541.168 645.423 560.442 649.649 580.332 654.234C582.363 654.702 584.279 653.316 587.718 654.65C588.642 655.848 588.545 659.606 588.927 661.717L589.703 661.762C590.541 660.148 590.94 655.255 591.294 653.265C595.32 635.693 593.94 617.814 595.571 600.345C597.47 580.031 600.111 558.705 603.111 538.527C604.679 527.987 610.354 525.889 618.948 522.569C630.509 518.104 641.841 507.952 653.053 502.075C667.015 494.378 674.879 474.044 680.092 459.613C684.883 446.347 692.383 429.7 695.074 415.85C701.006 384.714 694.35 352.498 676.573 326.258C653.418 291.932 604.827 263.22 564.727 254.747C545.889 250.767 502.085 273.087 483.717 281.094C473.803 285.416 454.978 293.141 446.646 299.293C430.252 311.903 417.314 326.538 400.244 338.549C373.381 357.241 334.739 358.832 303.294 355.5C285.695 353.635 269.367 348.388 252.349 346.652C239.644 345.356 223.945 344.765 211.676 347.769C208.824 348.467 200.997 355.846 197.03 356.505C192.227 358.617 175.817 362.437 174.945 367.561C177.416 371.67 184.074 369.868 188.412 370.2C206.407 371.58 228.117 378.643 245.511 383.435L252.892 381.273L248.17 377.614C248.077 373.651 247.148 367.246 251.37 365.626C253.379 364.854 256.59 363.386 258.704 363.667C279.962 366.49 300.387 372.896 321.215 377.724C324.362 378.453 327.603 379.112 330.662 380.127ZM245.724 530.436C256.322 531.775 273.185 526.392 281.082 535.311C285.512 540.315 287.065 549.068 291.967 553.896C299.948 561.63 313.023 562.721 321.545 568.822C327.294 572.936 333.726 579.632 337.902 585.3C340.366 588.648 343.488 593.564 346.381 596.325C348.2 596.313 352.8 596.29 354.484 595.788C364.599 592.521 375.324 586.07 383.171 578.941C389.777 572.936 389.637 565.051 392.95 557.798C399.828 542.736 426.536 533.38 441.906 536.454C446.012 537.127 451.577 538.205 455.615 538.493C465.619 536.151 466.943 535.391 477.009 536.344C489.535 539.69 486.192 554.819 497 557.773C504.06 559.702 515.76 554.194 523.446 555.917C533.738 557.318 536.916 564.843 545.89 565.273C546.691 565.312 547.495 565.366 548.292 565.404C550.372 564.674 552.456 563.782 554.213 562.427C566.099 553.258 559.657 528.621 553.965 517.129C551.695 512.546 547.648 508.507 546.156 503.58C544.708 498.799 544.727 493.219 545.331 488.303C548.571 461.929 568.5 458.838 586.56 444.523C599.672 434.126 615.994 417.857 617.848 400.299C618.851 390.8 613.462 381.474 607.668 374.37C600.356 365.413 591.117 359.884 582.927 352.089C565.571 335.575 563.989 322.937 538.189 314.03C533.907 312.551 528.655 310.301 524.148 310.015C512.687 309.286 458.904 326.073 449.734 332.951C443.866 337.353 441.441 345.121 435.741 349.907L435.175 350.377C433.986 354.034 434.459 356.939 431.631 359.372C427.035 364.19 428.522 371.478 426.933 377.926C424.426 388.098 418.407 405.575 408.464 410.349C393.65 421.767 374.789 428.049 356.346 430.241C350.541 430.931 340.448 431.05 335.255 432.234C327.204 434.069 315.611 436.141 307.99 438.045C293.291 441.714 277.75 452.394 268.002 463.738C256.787 476.554 255.761 474.205 252.643 491.068C253.332 500.485 252.679 513.594 246.841 521.373C245.045 525.251 243.937 526.359 245.724 530.436ZM363.914 411.623C359.113 409.664 356.744 408.569 352.809 405.215C335.939 397.669 318.654 394.647 300.792 391.054C294.582 389.805 287.529 387.176 281.385 386.654C276.681 388.602 275.025 401.991 268.086 402.372C237.508 404.052 208.512 387.494 178.366 387.932C166.097 388.11 166.951 387.829 162.307 377.058C152.306 385.996 139.2 419.197 138.961 432.819C138.809 441.48 138.779 453.837 138.748 462.825C158.387 458.324 169.436 461.004 188.542 466.309C200.314 469.577 211.959 473.396 223.765 476.513C232.63 478.666 233.735 476.138 238.348 469.497C254.12 446.789 278.282 428.868 305.344 422.356C320.849 418.746 334.648 415.419 350.402 414.055C353.929 413.749 361.635 413.701 363.914 411.623ZM115.436 505.818C113.846 465.792 109.106 419.832 130.323 384.124C132.643 380.218 137.004 374.186 136.63 369.763C132.426 369.393 128.536 372.281 125.59 375.139C107.24 392.943 91.6111 410.227 88.2309 436.508C84.1223 468.45 80.6536 503.051 96.4172 532.623C108.016 555.034 118.177 564.544 142.293 572.155C152.692 575.44 161.425 573.598 154.593 587.89C157.553 588.066 168.276 587.907 169.978 590.736C175.08 599.216 170.853 612.088 171.72 622.177C174.369 652.957 178.478 683.006 183.126 713.535C187.016 739.085 183.711 768.205 191.804 793.06C194.336 801.323 206.323 811.526 215.368 811.178C219.708 811.013 230.352 812.661 233.224 810.34C233.526 807.175 224.219 795.711 221.939 791.309C217.715 783.279 214.483 774.77 212.317 765.958C207.936 748.501 207.783 728.443 207.27 710.25C206.637 687.808 208.681 666.051 197.647 645.138C191.684 634.159 182.3 624.338 178.342 611.9C175.07 603.299 176.705 582.717 174.325 575.981C171.233 572.52 165.451 571.208 161.521 568.31C155.184 563.637 147.21 559.379 141.11 554.585C125.302 542.16 118.45 525.087 115.436 505.818Z" fill="#252626"/>
<path d="M694.225 479.554C692.987 483.661 687.98 488.316 686.999 491.948C687.985 492.144 688.396 492.188 689.126 492.903C695.958 489.111 714.345 433.193 717.037 422.392C724.269 393.331 717.283 352.707 702.471 326.302C698.964 320.043 694.379 315.376 691.116 309.782L691.459 308.549C712.8 336.568 725.221 375.993 720.277 412.308C717.037 436.092 702.842 468.099 692.753 490.015C688.567 497.965 677.742 508.543 671.144 513.692C660.873 521.709 635.927 531.153 627.452 539.541C624.384 551.964 623.106 563.462 622.502 576.232C620.465 571.784 622.867 558.87 623.522 553.183L622.559 552.837C619.382 555.937 622.718 565.455 619.393 570.489C619.889 564.399 621.743 542.836 624.013 537.798C626.653 531.939 650.322 522.654 656.242 518.512C660.45 515.569 672.684 507.233 676.117 504.063C680.469 500.049 690.17 484.823 693.62 479.424L694.225 479.554Z" fill="#2C2D2D"/>
<path d="M612.476 649.945C615.156 650.567 614.66 650.002 615.778 651.742C608.62 682.271 612.818 718.189 607.639 749.488C605.706 761.168 602.261 771.861 598.315 782.891C594.665 785.36 595.628 788.885 596.467 792.58C594.197 793.031 593.199 793.288 590.821 793.219C592.56 789.546 592.56 786.752 593.82 782.788C596.547 774.251 601.075 764.441 602.581 755.761C603.795 749.904 604.411 745.598 604.594 739.638C605.284 736.296 605.957 726.624 606.305 722.711C607.269 710.518 607.993 698.302 608.466 686.08C608.729 678.427 608.181 670.802 609.407 663.216C609.818 660.69 610.137 658.152 610.445 655.609C609.35 653.812 609.059 653.607 609.105 651.611C609.983 650.139 610.154 650.55 612.476 649.945Z" fill="#454747"/>
<path d="M619.393 570.489C622.718 565.455 619.382 555.937 622.559 552.837L623.522 553.183C622.867 558.87 620.465 571.784 622.501 576.232C618.007 601.702 620.597 626.996 615.777 651.742C614.66 650.002 615.156 650.567 612.475 649.945C612.972 642.297 615.002 633.378 615.566 625.57C616.165 617.38 615.224 610.212 614.865 602.182C614.797 600.699 616.342 592.549 616.644 590.587C617.631 583.897 618.549 577.196 619.393 570.489Z" fill="#3A3C3C"/>
<path d="M596.467 792.58C595.628 788.885 594.664 785.36 598.314 782.891C596.495 788.486 597.054 787.499 600.727 792.027C600.316 794.274 599.906 796.299 599.695 798.58C595.554 802.761 591.579 807.123 586.326 809.918C577.732 814.498 538.719 820.566 529.25 820.731C528.56 820.748 527.871 820.731 527.182 820.691L528.334 818.803L527.7 817.589C528.279 817.395 531.545 817.469 532.929 817.224C551.016 814.024 574.116 814.572 589.509 803.04C593.193 800.285 593.917 796.447 596.666 793.573L596.929 793.299L596.467 792.58Z" fill="#3A3C3C"/>
<path d="M527.7 817.589L528.334 818.803L527.182 820.691C506.043 822.915 483.4 822.123 462.125 821.786C457.727 821.712 452.87 821.98 448.535 821.712C444.068 821.279 439.633 821.102 435.152 820.885C444.686 818.644 502.014 823.303 506.759 819.916L506.436 819.556L436.642 819.448C442.049 818.609 461.313 819.003 467.048 819.009C487.647 819.032 507.097 819.693 527.7 817.589Z" fill="#454747"/>
<path d="M695.822 470.033C697.276 464.035 706.498 439.74 711.123 436.109L711.779 436.486L711.705 438.307L711.175 438.643L709.504 437.682C706.777 445.721 699.677 469.977 695.497 476.424C696.187 473.439 696.152 473.028 695.822 470.033Z" fill="#2C2D2D"/>
<path d="M604.594 739.638C604.411 745.598 603.795 749.904 602.58 755.761C601.451 751.261 601.925 747.52 602.238 742.975L604.594 739.638Z" fill="#2C2D2D"/>
<path d="M695.822 470.033C696.152 473.028 696.187 473.439 695.496 476.424C695.114 478.606 695.519 478.276 694.225 479.554L693.62 479.424C692.291 478.434 692.748 479.041 692.097 477.616C692.474 475.026 694.419 472.329 695.822 470.033Z" fill="#2C2D2D"/>
<path d="M271.526 754.278C273.397 752.841 276.17 750.634 278.4 750.218C292.592 747.56 309.601 747.674 323.677 747.092L355.333 745.49C368.967 744.811 382.797 743.921 396.444 743.203C407.012 742.644 419.917 743.779 430.304 743.077C439.82 741.663 451.609 742.986 460.921 742.108C487.589 739.598 511.684 741.857 537.315 749.573C540.887 750.645 547.457 750.354 549.02 753.85C548.926 758.806 549.188 761.236 545.445 764.846C545.155 765.126 544.86 765.399 544.56 765.667C541.227 766.164 534.701 767.361 531.682 766.289C517.164 765.553 504.689 758.955 488.115 758.841C424.523 758.407 361.014 762.006 297.5 764.133C291.494 764.333 275.691 767.703 271.245 764.43C269.633 761.059 270.687 757.78 271.526 754.278Z" fill="#2C2D2D"/>
<path d="M531.683 766.289C533.304 764.994 539.489 766.728 541.721 764.994L541.121 763.426C538.402 762.776 535.976 765.359 532.935 764.504L540.544 761.875L541.858 762.679C544.307 760.455 544.204 756.673 549.02 753.85C548.926 758.806 549.188 761.236 545.445 764.846C545.155 765.125 544.86 765.399 544.56 765.667C541.227 766.163 534.701 767.361 531.683 766.289Z" fill="#454747"/>
<path d="M265.127 701.182C281.955 700.92 310.11 699.722 326.219 701.245C374.522 705.807 428.123 701.336 475.288 708.642C480.305 712.531 471.356 723.595 464.381 723.755C452.991 723.938 443.008 720.362 432.75 720.664C388.28 721.987 344.286 718.24 299.866 718.554C293.277 718.605 286.087 717.06 279.454 716.906C271.402 716.649 263.557 717.932 255.545 717.516C251.087 717.179 253.003 710.598 253.572 708.225C257.265 704.227 259.483 701.735 265.127 701.182Z" fill="#252626"/>
<path d="M560.618 380.402C565.951 376.123 575.992 382.378 580.344 385.957C581.171 391.126 581.838 393.078 580.68 398.161C576.192 403.036 572.799 404.43 567.253 400.331C564.531 398.678 562.983 397.426 561.112 394.888C558.94 391.438 557.369 383.832 560.618 380.402Z" fill="#151516"/>
<path d="M560.618 380.402C565.951 376.123 575.992 382.378 580.344 385.957C581.171 391.126 581.838 393.078 580.68 398.161C577.76 395.437 577.732 392.598 576.745 388.8C572.017 383.799 567.641 382.743 561.041 381.585L560.618 380.402Z" fill="#3A3C3C"/>
<path d="M561.112 394.888C562.978 394.136 563.243 394.049 565.249 393.987C568.467 395.46 568.432 397.218 567.253 400.331C564.531 398.678 562.983 397.426 561.112 394.888Z" fill="#252626"/>
<path d="M512.796 516.063C520.412 516.733 525.515 524.434 524.722 531.639C524.43 534.163 523.073 536.443 520.994 537.903C520.774 538.053 520.554 538.203 520.334 538.353C517.271 539.208 515.261 540.004 512.121 539.3C510.265 538.547 508.291 537.327 506.529 536.321C506.227 533.205 506.343 529.644 506.368 526.477C506.4 520.747 506.046 516.686 512.796 516.063Z" fill="#151516"/>
<path d="M512.796 516.063C520.413 516.733 525.515 524.434 524.722 531.639C524.43 534.163 523.074 536.443 520.994 537.903C520.774 538.053 520.554 538.203 520.334 538.353L519.255 536.192C519.419 534.328 520.711 533.391 522.075 531.945C521.116 527.76 518.015 517.515 511.379 518.447C510.674 518.546 510.05 518.748 509.259 518.847L509.243 518.298C510.435 517.564 511.619 516.819 512.796 516.063Z" fill="#2C2D2D"/>
<path d="M506.368 526.477C508.227 526.639 508.895 526.316 509.811 527.337C510.154 529.373 512.126 538.175 512.121 539.299C510.265 538.547 508.291 537.327 506.529 536.321C506.227 533.205 506.343 529.644 506.368 526.477Z" fill="#252626"/>
<path d="M468.697 503.075C473.18 501.589 475.792 502.477 480.217 503.119C486.497 504.031 496.527 510.411 489.275 517.259C484.195 520.241 475.909 518.416 471.024 515.743C464.869 512.866 461.909 507.142 468.697 503.075Z" fill="#151516"/>
<path d="M468.697 503.075C473.181 501.589 475.792 502.477 480.217 503.119C486.497 504.031 496.527 510.411 489.276 517.259L486.783 515.029C486.894 514.117 487.292 511.24 486.898 510.559C483.727 505.077 474.106 505.577 468.697 503.075Z" fill="#2C2D2D"/>
<path d="M471.024 515.743C472.206 514.094 471.442 514.596 473.346 514.114C478.658 515.793 481.54 516.716 486.783 515.029L489.275 517.259C484.195 520.241 475.909 518.416 471.024 515.743Z" fill="#252626"/>
<path d="M521.693 348.233L522.207 347.889C524.889 346.063 538.547 345.113 541.244 346.232C551.929 352.437 541.478 358.76 534.026 359.482C528.884 359.981 526.579 359.465 521.493 358.136C519.769 355.196 519.265 350.909 521.693 348.233Z" fill="#151516"/>
<path d="M541.244 346.232C551.929 352.437 541.478 358.76 534.027 359.482C528.885 359.981 526.579 359.465 521.493 358.136C528.118 352.519 536.923 359.382 541.158 353.058C541.436 351.078 540.932 350.436 540.104 348.504L541.244 346.232Z" fill="#3A3C3C"/>
<path d="M521.693 348.233L522.207 347.889C524.889 346.063 538.547 345.113 541.244 346.232L540.104 348.504C536.801 349.218 524.364 349.971 521.693 348.233Z" fill="#2C2D2D"/>
<path d="M415.801 464.11C419.591 459.601 426.964 460.376 430.618 463.876C443.156 475.886 420.71 480.855 413.376 476.557C412.307 472.595 412.612 467.081 415.801 464.11Z" fill="#151516"/>
<path d="M415.801 464.11C419.591 459.601 426.964 460.376 430.618 463.876C443.156 475.886 420.71 480.855 413.376 476.557C414.158 475.354 414.403 475.347 415.63 474.632C420.847 474.656 428.82 475.397 430.945 469.429C429.15 464.553 422.448 464.644 418.009 465.089C417.562 464.96 416.296 464.338 415.801 464.11Z" fill="#2C2D2D"/>
<path d="M415.801 464.11C416.296 464.338 417.561 464.96 418.009 465.089C415.61 467.825 415.9 470.765 415.63 474.632C414.403 475.348 414.158 475.354 413.376 476.557C412.307 472.595 412.612 467.081 415.801 464.11Z" fill="#252626"/>
<path d="M285.76 501.374C289.774 501.155 296.26 500.258 298.955 504.1C302.486 509.135 296.221 514.883 292.471 517.694C287.007 518.486 277.677 519.549 278.858 509.879C279.359 505.773 282.452 503.504 285.76 501.374Z" fill="#2C2D2D"/>
<path d="M286.649 504.275L294.815 504.112C296.999 511.146 296.135 511.97 290.069 514.994C287.857 515.795 285.425 515.734 283.256 514.823C279.659 510.792 283.585 506.98 286.649 504.275Z" fill="#151516"/>
<path d="M536.139 449.685C544.847 444.993 552.146 456.326 549.013 463.774C547 468.562 541.485 467.883 537.354 467.7C534.48 465.746 533.825 465.306 531.647 462.56C529.08 458.689 532.947 451.877 536.139 449.685Z" fill="#151516"/>
<path d="M536.138 449.685C544.847 444.993 552.146 456.326 549.013 463.774C547 468.562 541.485 467.883 537.354 467.7C534.48 465.746 533.825 465.306 531.647 462.56L532.646 461.637C534.79 461.571 535.633 461.311 537.345 462.393C541.223 469.375 547.142 463.04 546.507 459.099C546.25 457.508 542.751 451.853 541.116 450.983C538.889 450.881 538.002 450.947 536.138 449.685Z" fill="#252626"/>
<path d="M459.638 443.262C465.69 443.108 478.404 441.734 480.132 449.413C479.368 453.007 477.378 454.316 474.536 456.221C466.706 458.52 446.937 455.205 459.638 443.262Z" fill="#2C2D2D"/>
<path d="M464.739 445.564C468.515 445.173 471.823 445.638 474.623 448.378C475.357 450.39 475.388 449.418 474.501 451.388C472.563 452.966 471.36 452.968 468.899 453.449C465.98 453.14 457.249 452.466 457.497 448.593C459.061 446.662 462.421 445.966 464.739 445.564Z" fill="#151516"/>
<path d="M473.546 374.321C477.124 374.095 480.928 374.363 484.503 374.606C494.127 375.259 493.995 383.121 486.938 387.906C476.312 391.033 460.237 382.034 473.546 374.321Z" fill="#2C2D2D"/>
<path d="M472.386 377.028C476.502 377.099 485.316 376.295 487.523 380.086C487.654 382.542 487.264 382.383 485.98 384.743C485.834 384.775 473.5 382.544 472.105 382.317C471.319 380.462 471.922 379.074 472.386 377.028Z" fill="#151516"/>
<path d="M345.294 554.363C348.569 554.182 351.386 554.311 354.666 554.433C362.184 559.048 364.151 563.79 356.375 569.212C354.333 570.179 351.957 570.866 349.792 571.579C348.234 571.048 344.446 569.781 343.376 568.72C339.008 564.391 342.11 558.038 345.294 554.363Z" fill="#151516"/>
<path d="M498.662 409.59C500.898 409.068 503.306 408.558 505.5 407.926C513.859 410.372 519.689 413.551 512.201 422.033C507.401 423.338 505.251 424.402 500.475 423.092C494.96 420.778 494.916 413.413 498.662 409.59Z" fill="#151516"/>
<path d="M498.662 409.59C500.898 409.068 503.306 408.558 505.501 407.926C513.859 410.372 519.689 413.551 512.201 422.033C507.401 423.338 505.251 424.402 500.475 423.092L501.334 421.179C503.759 419.72 512.636 420.967 511.323 414.804C508.847 412.192 500.956 410.39 498.206 412.659L498.662 409.59Z" fill="#2C2D2D"/>
<path d="M387.779 525.359C394.79 522.94 406.177 523.72 401.558 533.932C397.453 545.186 376.283 538.481 387.779 525.359Z" fill="#1A1C1E"/>
<path d="M401.558 533.932C397.453 545.186 376.283 538.481 387.779 525.359C386.733 528.347 386.075 531.911 387.436 534.942C388.046 536.334 389.226 537.398 390.674 537.859C392.619 538.495 394.135 538.532 396.113 538.223C397.821 536.448 399.21 534.625 401.558 533.932Z" fill="#252626"/>
<path d="M324.312 455.173C338.876 455.063 338.736 466.807 328.519 469.595C322.788 470.219 322.347 469.812 317.256 466.869C317.123 464.274 317.251 460.754 317.272 458.084C319.67 456.768 321.747 456.094 324.312 455.173Z" fill="#2C2D2D"/>
<path d="M324.771 457.794C325.772 457.81 326.771 457.846 327.771 457.903C330.272 458.065 330.828 458.395 332.269 460.052C332.264 463.108 330.889 464.104 328.793 466.493C318.426 467.287 315.769 460.535 324.771 457.794Z" fill="#151516"/>
<path d="M348.09 498.901C349.306 496.187 349.48 495.002 352.62 494.001C360.912 491.359 371.719 495.359 362.714 504.396L358.045 506.983C353.391 507.767 351.369 507.689 348.191 504.142C347.594 501.25 347.145 501.252 348.09 498.901Z" fill="#151516"/>
<path d="M348.09 498.901C349.306 496.187 349.48 495.002 352.62 494.001C360.912 491.359 371.719 495.359 362.714 504.396L359.408 503.8C360.793 501.022 362.941 500.137 362.024 496.725C358.957 495.032 351.221 497.611 348.09 498.901Z" fill="#2C2D2D"/>
<path d="M348.191 504.142C350.916 503.927 354.751 503.353 357.177 504.305C358.278 505.783 357.917 504.949 358.045 506.983C353.391 507.767 351.369 507.689 348.191 504.142Z" fill="#252626"/>
<path d="M409.396 590.775C410.621 588.294 412.437 584.582 414.997 583.355C426.051 578.32 442.147 583.224 453.769 585.118C472.634 588.192 491.57 592.344 510.22 596.484C525.669 599.917 540.612 608.016 556.14 610.234C558.629 610.594 560.449 610.833 562.931 611.415C564.65 616.143 564.71 622.194 561.266 626.163C556.62 629.739 552.752 629.043 547.123 628.33C541.921 627.663 536.656 624.532 531.532 622.753C524.087 620.163 516.013 616.861 508.483 614.666C476.667 605.444 444.03 599.324 411.033 596.404C410.423 594.716 409.887 592.538 409.396 590.775Z" fill="#252626"/>
<path d="M562.931 611.415C564.65 616.143 564.71 622.194 561.266 626.163C558.697 624.817 557.968 624.429 557.086 621.726C559.053 618.418 560.717 613.941 562.931 611.415Z" fill="#454747"/>
<path d="M557.086 621.726C557.969 624.43 558.697 624.817 561.266 626.163C556.62 629.739 552.752 629.043 547.123 628.331C548.535 627.572 548.775 626.802 548.78 625.251C551.681 624.036 552.481 625.696 556.378 624.926C557.575 623.5 557.243 624.133 557.086 621.726Z" fill="#3A3C3C"/>
<path d="M164.158 427.216C171.539 426.93 179.605 432.034 186.74 432.915C202.261 434.83 217.071 438.421 232.055 442.901C236.01 444.084 241.547 443.499 244.372 444.034C249.72 445.048 242.353 458.257 238.822 459.76C236.371 460.309 233.461 461.05 230.972 460.641C222.938 459.32 216.015 456.037 207.911 454.03C193.455 450.452 178.157 450.097 164.229 444.904C160.744 443.439 157.422 440.956 156.088 437.348C153.428 430.148 158.453 429.021 164.158 427.216Z" fill="#2C2D2D"/>
<path d="M223.409 648.314C223.133 650.641 224.12 652.808 223.515 653.88C220.141 651.93 220.141 648.765 219.222 645.617C214.218 628.467 199.118 616.451 194.882 599.136C194.231 596.473 193.44 589.395 194.796 587.182C196.777 587.359 196.932 587.855 198.717 589.047C196.081 605.073 205.858 614.244 213.506 626.893C217.134 632.893 221.591 641.607 223.409 648.314Z" fill="#2C2D2D"/>
<path d="M408.464 410.349L408.204 409.734L409.092 408.671L407.319 407.439C407.522 404.835 424.238 389.222 421.049 384.305C419.666 382.172 423.183 380.414 423.362 378.001C422.271 377.543 422.056 377.593 421.33 376.702C422.073 374.15 424.011 375.259 424.015 373.437C424.024 368.781 423.372 360.868 428.569 358.232C430.8 358.447 429.818 358.076 431.631 359.372C427.036 364.19 428.522 371.478 426.933 377.926C424.426 388.098 418.407 405.575 408.464 410.349Z" fill="#3A3C3C"/>
<path d="M136.63 369.763C138.482 367.228 138.859 366.974 141.378 365.243C141.97 363.552 141.866 362.831 144.14 362.697C147.309 362.511 151.595 358.451 154.348 358.908L154.935 359.561L154.572 360.627C153.228 361.093 151.87 361.52 150.501 361.908L151.309 363.329L150.5 364.387C148.512 363.96 145.324 362.805 144.056 363.928C139.316 367.927 137.507 372.102 135.586 377.802C134.517 380.974 129.309 386.366 128.033 389.68C125.859 395.326 122.658 402.754 120.623 408.417C118.635 413.948 118.657 420.834 116.804 426.538C114.711 446.722 115.121 467.023 115.361 487.275C115.411 491.439 117.582 502.977 115.436 505.818C113.846 465.792 109.106 419.832 130.323 384.124C132.643 380.218 137.004 374.185 136.63 369.763Z" fill="#2C2D2D"/>
<path d="M477.009 536.344C489.535 539.689 486.192 554.819 497 557.772C504.06 559.702 515.76 554.194 523.447 555.917C533.738 557.318 536.916 564.843 545.89 565.273C546.691 565.311 547.495 565.366 548.292 565.404C541.227 570.421 533.524 558.273 525.583 557.915C515.153 557.445 503.199 560.927 493.29 559.898C490.28 557.589 485.758 553.068 484.367 549.505C484.198 549.072 485.839 547.932 484.751 546.664C482.04 543.508 477.502 540.871 477.009 536.344Z" fill="#2C2D2D"/>
<path d="M330.662 380.127C347.259 383.674 361.796 390.281 376.107 393.512C375.072 397.813 371.173 406.066 370.843 408.371L371.566 409.183C374.607 409.197 380.28 406.534 383.086 405.098C381.387 408.826 373.426 410.37 369.656 409.933C367.602 406.244 374.209 402.492 373.403 397.577C371.45 397.754 370.618 399.63 370.086 401.344L369.501 403.183C368.861 405.153 366.655 404.459 364.934 404.287C362.806 405.302 357.749 406.189 357.228 406.915C358.876 408.588 366.402 411.986 369.282 411.766L369.585 412.293C367.825 412.832 365.633 412.784 364.015 411.936L363.914 411.622C359.113 409.664 356.744 408.568 352.809 405.215C357.173 404.016 361.999 404.764 365.254 401.729C367.796 399.358 371.252 398.133 373.698 396.007L373.555 395.187C370.944 393.55 369.297 395.755 367.68 395.059C361.234 392.289 354.561 390.475 347.937 388.153L348.19 387.621C352.605 388.332 366.934 394.041 369.029 393.704C362.949 387.486 335.628 384.68 330.662 380.127Z" fill="#2C2D2D"/>
<path d="M233.89 482.008C238.573 482.197 246.787 481.732 249.774 484.952C250.318 487.548 249.71 488.753 248.356 491.197C244.259 492.808 238.433 492.753 233.818 493.172C233.635 488.87 233.549 486.315 233.89 482.008Z" fill="#151516"/>
<path d="M243.012 519.418C246.548 517.954 246.704 507.96 249.367 503.056L249.725 503.296C250.31 508.325 246.841 508.233 247.544 512.416L248.31 512.694C254.296 507.846 250.812 494.374 252.643 491.068C253.332 500.485 252.679 513.594 246.841 521.373C245.482 520.19 244.741 520.058 243.012 519.418Z" fill="#2C2D2D"/>
<path d="M137.97 480.27C137.406 478.299 137.191 478.429 135.412 477.821C134.332 478.9 134.66 479.184 134.415 481.138C133.627 477.245 132.959 454.996 135.577 452.768L136.055 453.552C133.743 456.515 133.57 465.907 135.643 468.674C142.397 469.315 137.264 474.41 138.132 479.591L137.97 480.27Z" fill="#454747"/>
<path d="M243.012 519.418C244.741 520.058 245.482 520.19 246.841 521.373C245.045 525.251 243.937 526.359 245.724 530.436L244.863 531.077L244.617 530.479C243.71 531.364 243.794 531.328 242.545 531.528C239.099 529.12 241.46 522.502 243.012 519.418Z" fill="#3A3C3C"/>
<path d="M441.906 536.454C446.012 537.127 451.577 538.205 455.615 538.493L458.503 539.326C456.369 541.444 449.063 541.938 446.421 540.821C443.597 539.626 443.24 539.127 441.906 536.454Z" fill="#2C2D2D"/>
<path d="M426.016 349.276L429.589 349.138C431.13 350.197 430.651 349.499 431.112 351.274L430.221 352.752C428.063 353.736 429.039 353.594 426.361 352.954C423.525 351.887 418.523 350.949 415.42 350.269C418.561 349.705 422.76 349.517 426.016 349.276Z" fill="#8C8C8B"/>
<path d="M240.228 812.068C242.362 812.604 244.624 813.642 245.939 815.45C242.649 815.165 241.131 815.285 240.228 812.068Z" fill="#2C2D2D"/>
</svg>
