<svg width="880" height="1168" viewBox="0 0 880 1168" fill="none" xmlns="http://www.w3.org/2000/svg">
<path d="M296.322 195.283C309.479 193.59 330.501 199.096 343.077 204.054C382.39 219.554 414.321 249.032 436.222 284.877C441.941 294.829 445.191 306.648 449.711 316.976C455.863 331.032 457.403 349.102 463.533 362.505L463.861 363.21C464.995 363.48 466.118 363.796 467.228 364.157C481.135 368.745 490.902 385.345 497.137 397.834C509.708 423.012 523.552 446.807 533.934 473.106C550.198 514.306 573.072 552.129 595.925 589.874C600.767 597.87 605.786 605.119 610.057 613.508C613.787 607.851 618.68 605.564 623.169 600.956C641.51 582.129 660.935 566.652 681.849 550.921C698.918 538.08 713.849 522.507 736.097 518.394C744.361 516.866 751.433 517.132 759.703 518.167C770.784 519.429 787.899 520.812 790.409 534.555C791.857 542.465 786.371 548.849 781.865 554.788C786.194 556.518 796.893 559.477 799.785 562.386C813.786 576.472 800.572 603.83 789.388 615.761C775.911 629.99 756.555 637.29 740.928 648.605C715.115 667.368 689.793 687.192 662.68 704.057C657.154 707.496 649.877 713.974 643.489 715.189C640.997 715.662 638.145 712.965 636.372 711.345C635.664 705.271 637.182 703.977 632.362 700.184C631.798 698.274 632.699 696.665 633.343 694.424C631.028 693.124 628.587 692.245 626.117 691.27C612.84 694.886 605.472 690.882 592.189 687.415C585.819 694.418 579.112 702.089 570.226 706.275C557.375 711.362 533.737 704.188 521.343 699.083C498.67 689.747 479.141 671.726 464.526 652.637C448.598 631.832 430.318 620.095 434.771 590.245C437.236 572.4 436.566 552.649 443.093 535.637C447.448 524.287 459.007 521.711 463.96 535.486C463.138 539.068 460.643 545.108 460.107 548.618C457.822 563.558 451.328 593.718 457.646 607.246C463.263 619.782 474.117 629.021 482.483 639.366C494.602 654.348 507.546 672.21 526.555 679.254C539.873 684.158 548.506 684.695 560.892 688.595C565.494 686.691 566.606 685.385 570.223 682.02C549.777 675.535 537.998 657.291 525.47 641.26C518.652 632.534 514.279 621.549 506.597 613.622C505.316 613.753 504.034 613.873 502.75 613.981C498.801 614.301 494.456 614.654 491.407 611.569C482.679 602.735 472.372 577.864 471.09 565.934C469.802 551.917 481.139 546.31 489.242 537.814C492.622 534.271 490.609 526.699 499.851 524.154C511.185 521.033 525.725 534.983 529.502 544.72C533.375 554.708 536.028 565.513 539.819 575.725C564.469 586.509 556.136 595.247 573.62 611.381C583.526 620.523 587.182 615.23 597.556 623.403C594.927 616.702 589.948 611.022 586.127 604.697C574.218 584.992 561.254 565.293 550.181 545.13C543.461 533.314 538.796 520.255 532.643 508.219C521.775 486.959 511.935 464.623 501.206 443.383C495.183 431.657 488.702 420.173 481.776 408.956C479.546 405.268 473.402 394.534 470.818 391.846L470.495 391.515C464.961 385.754 457.455 383.322 453.021 376.486C446.372 366.476 445.122 353.69 441.353 342.588C432.507 316.533 422.255 291.923 403.36 271.382C399.198 266.857 394.526 259.778 389.821 255.986C363.486 234.585 327.568 211.011 292.162 213.574C263.212 215.668 225.891 237.075 204.125 256.252C198.221 261.452 197.683 268.547 198.018 275.874C198.981 274.729 199.973 273.609 200.991 272.513C203.267 270.113 208.475 267.633 210.644 271.1C214.868 277.851 211.476 290.142 210.714 297.804C213.565 302.988 227.732 316.663 232.676 321.323C235.928 324.388 241.281 328.074 244.088 331.694C243.828 333.347 242.432 340.169 241.597 340.938C230.972 350.723 209.343 322.283 204.11 317.884C194.794 345.994 186.931 375.232 175.024 402.311C174.445 403.627 171.696 405.22 170.43 405.982C167.65 406.14 164.228 406.534 161.749 405.379C159.398 401.63 168.864 379.756 170.492 374.721C176.33 356.68 182.657 338.754 188.678 320.77C190.481 315.386 192.397 310.311 193.637 304.749C189.596 296.186 188.766 293.874 186.451 284.678C185.539 284.32 181.679 282.814 181.24 282.376C173.35 274.579 187.215 254.326 193.217 248.109C218.239 222.192 260.657 198.185 296.322 195.283ZM614.819 620.067C622.028 632.79 628.615 645.411 638.459 656.39C639.594 657.662 641.413 660.468 642.936 660.867C642.987 660.582 643.159 659.817 643.136 659.567C647.898 652.483 670.876 633.001 678.296 626.506C689.48 616.719 699.204 606.322 710.062 596.199C717.14 589.601 727.491 582.346 734.928 575.691C741.612 569.712 747.566 563.163 753.954 556.907C759.041 551.922 764.146 548.048 768.617 542.318C756.868 538.18 750.715 536.076 737.883 537.39C709.72 542.281 696.295 561.098 673.824 575.674C653.567 588.814 634.986 607.605 614.819 620.067ZM588.351 642.577C591.345 651.782 593.655 654.987 594.442 665.104C598.468 665.709 608.683 667.494 612.23 667.346C605.483 661.141 593.786 646.957 588.351 642.577ZM498.157 552.965C492.353 558.198 491.888 560.17 491.129 567.607L496.63 578.77C497.477 577.453 498.575 575.611 499.478 574.396C503.09 571.276 504.134 572.001 508.595 573.444C505.916 565.597 504.387 558.58 498.157 552.965ZM661.038 683.6C665.099 683.771 671.435 678.062 674.942 675.798C678.199 673.693 682.134 670.665 685.379 668.355C703.909 655.187 722.079 641.488 740.723 628.49C751.468 621.726 763.997 617.112 773.448 608.432C780.063 602.364 785.903 594.095 786.679 584.844C787.323 577.151 776.094 579.238 776.06 573.598C776.037 569.289 778.569 567.868 776.447 562.616L775.643 562.157C766.598 566.199 756.116 579.951 748.405 586.726C739.787 594.254 730.052 600.602 721.509 608.221C700.019 627.395 679.362 647.339 655.551 663.707C651.976 666.165 652.477 666.713 648.211 666.701L647.983 667.408C651.742 670.049 660.696 670.745 661.711 678.957C661.973 681.107 662.042 681.74 661.038 683.6Z" fill="black"/>
<path d="M142.107 420.363C144.283 420.099 146.657 419.941 148.565 421.02C149.371 422.574 148.759 425.265 148.49 426.965C147.267 434.668 144.784 442.183 143.083 449.797C141.633 456.286 140.887 462.938 139.354 469.4C137.488 477.268 135.055 485.032 133.023 492.864C125.721 521.013 122.399 550.07 118.729 578.861C116.415 597.009 113.376 615.618 113.132 633.931C113 643.763 114.162 654.143 115.618 663.878C119.973 693.004 152.432 761.789 170.593 784.784C174.887 790.225 180.046 794.776 185.61 798.877C202.837 811.56 222.37 818.147 241.38 827.426C256.711 834.903 270.833 843.943 286.738 850.416C300.499 856.016 315.625 858.816 330.072 862.09C371.085 871.392 401.699 876.211 444.125 871.477C453.13 870.468 462.119 868.506 471.09 867.16C470.515 859.136 468.561 842.386 480.521 841.81C483.07 841.707 485.536 842.722 487.274 844.587C491.539 849.087 490.938 855.497 490.707 861.115C501.321 859.929 508.064 857.664 518.285 854.841L542.148 848.499C556.361 844.616 571.082 841.154 585.134 837.008C628.576 824.187 670.123 807.922 711.716 790.191C719.786 786.752 742.85 785.805 734.124 800.873C727.845 805.424 716.604 806.844 709.224 810.294C676.488 825.607 642.719 837.618 608.837 850.102C596.746 854.556 584.496 856.227 572.61 860.025C546.752 868.278 519.993 876.114 493.399 881.646C498.559 900.985 506.493 920.239 510.693 939.852C511.792 944.985 506.869 956.659 509.554 960.919C511.128 963.412 526.542 966.731 529.667 968.294C548.139 975.793 562.391 982.802 579.808 993.262C592.611 999.649 603.966 1001.34 585.442 1012.89C578.188 1017.4 561.602 1008.32 555.156 1005.1C541.11 998.087 526.36 991.773 511.914 985.585C503.907 982.158 495.456 982.494 486.995 981.81C483.832 981.542 477.431 977.419 474.366 978.833C474.362 979.472 474.303 982.181 474.733 982.58C490.416 996.484 509.203 998.965 526.573 1011.4C538.918 1020.24 537.618 1026.57 523.772 1033.43C518.234 1036.17 503.148 1024.95 497.221 1022.25C484.347 1016.38 471.487 1009.85 458.931 1002.92C448.162 1021.01 441.519 1019.6 426.608 1028.02L426.243 1028.23C419.656 1033.19 418.278 1031.47 411.659 1035.2C410.012 1036.13 410.944 1036.06 408.606 1036.55C407.039 1036.21 405.915 1035.58 405.048 1034.17C397.841 1022.42 436.513 993.627 442.824 985.7C444.07 984.137 444.404 982.192 444.797 980.282C421.623 983.07 403.895 982.626 381.963 974.145C376.749 974.875 371.691 977.162 366.367 977.989C358.016 979.284 357.412 971.425 362.515 967.512C367.42 963.742 380.674 955.439 386.455 954.526C396.545 952.935 409.576 959.938 420.1 959.596C435.895 960.805 448.326 957.201 462.485 957.646C467.027 945.156 462.661 924.322 461.487 911.348C460.874 904.573 461.319 896.394 459.094 890.018C458.839 889.288 453.749 890.703 452.882 890.628C420.18 896.149 384.647 895.778 352.153 889.34C338.733 886.676 327.633 882.593 313.966 880.87C313.126 892.761 311.273 901.829 309.385 913.418C307.343 925.948 307.998 931.28 303.232 943.542C309.321 946.126 311.939 949.696 316.485 951.543C322.004 953.785 326.813 953.323 333.365 956.374C341.716 967.124 334.623 974.47 324.138 976.979C317.627 978.542 293.707 968.322 288.53 964.798C285.338 971.664 283.901 972.086 276.842 974.071C275.088 974.567 276.053 987.245 275.665 989.407C273.617 1000.84 269.196 1012.98 255.505 1011.07C254.428 1010.42 254.35 1010.05 253.891 1008.93C249.348 997.887 253.941 981.513 258.276 970.946L254.779 965.066C247.241 969.007 242.753 970.455 234.699 972.702C233.481 973.044 223.726 979.369 222.091 980.344C214.222 984.935 206.296 989.424 198.314 993.815C188.808 999.045 177.825 1005.25 167.411 1008.27C164.987 1009.05 161.071 1008.52 158.801 1009.25C150.043 1012.09 141.265 1010.81 144.803 998.731C149.352 983.202 163.455 977.903 176.625 971.402C182.09 968.704 187.761 965.225 193.293 962.345C181.564 961.501 167.92 958.49 156.033 957.224C148.946 955.547 142.076 953.939 134.934 952.524C127.237 951.002 114.518 956.614 109.001 950.044C107.098 944.842 112.822 940.713 117.096 939.094C143.416 929.142 172.082 940.411 198.602 942.806C206.237 943.496 243.078 945.549 247.391 943.365C250.841 939.966 252.448 931.491 254.374 926.775C259.427 914.405 264.088 901.173 270.517 889.459C274.215 882.724 277.3 879.781 279.805 872.065C275.188 869.088 263.113 864.987 257.068 862.119C246.745 857.22 233.413 848.739 223.452 844.553C191.484 831.447 157.614 816.881 139.183 785.497C121.491 755.367 102.41 715.845 93.0633 681.974C83.957 648.976 89.3573 611.215 93.3473 577.869C96.3061 553.139 100.261 527.966 105.948 503.621C112.271 480.253 118.632 454.627 126.609 431.867C127.05 430.608 139.785 421.796 142.107 420.363ZM267.039 940.901C272.909 940.468 277.529 939.909 283.325 938.358C291.206 927.168 292.949 906.603 294.008 893.081C294.031 892.796 293.732 892.168 293.517 891.923C285.023 904.248 281.866 919.891 272.441 931.788C270.739 933.938 267.283 937.976 266.537 940.491L267.039 940.901ZM482.053 971.938C483.924 972.93 485.773 974.231 487.773 974.128L487.985 973.021C486.9 970.33 486.407 968.584 485.634 965.801C486.807 961.022 491.696 953.163 492.312 951.013C492.959 948.755 484.068 927.898 482.785 924.528C481.979 920.969 480.45 913.076 478.788 910.281C478.877 913.914 480.931 923.832 481.684 927.898C483.463 938.711 483.685 946.992 482.612 957.828C482.106 962.933 483.845 966.605 482.053 971.938Z" fill="black"/>
<path d="M481.684 927.898C480.931 923.832 478.877 913.914 478.788 910.281C480.45 913.076 481.979 920.969 482.785 924.528C482.062 925.954 481.804 926.262 481.684 927.898Z" fill="black"/>
<path d="M301.126 357.229C303.367 357.054 306.351 356.687 308.141 357.937C316.677 376.011 362.373 376.978 340.396 410.697C335.585 418.079 331.454 427.003 325.857 434.004C321.45 439.515 315.824 443.736 312.672 450.144C302.523 468.591 299.291 495.732 285.096 511.199C277.922 516.356 269.514 515.244 266.928 506.317C258.307 476.554 255.649 444.34 249.41 414.107C241.345 410.001 243.487 400.832 248.916 395.02C251.901 391.824 254.584 392.335 258.563 392.666C261.685 388.477 262.482 380.655 268.318 373.804C277.787 362.687 286.826 358.968 301.126 357.229ZM318.796 402.067C321.462 404.081 323.432 405.492 325.759 407.88C326.952 403.814 327.558 402.491 329.632 398.764C321.754 391.299 303.993 377.504 292.721 378.213C283.255 381.536 280.743 388.943 275.994 397.687C284.377 396.03 310.938 397.066 318.796 402.067ZM281.804 449.785C283.484 446.42 284.846 443.093 286.297 439.632C288.054 435.315 293.988 421.379 296.788 417.835C290.449 417.254 284.766 417.212 278.401 417.408C280.467 432.208 281.613 434.15 281.804 449.785Z" fill="black"/>
<path d="M391.821 306.91L392.483 306.844C395.119 306.588 396.871 306.263 398.949 307.987C404.337 317.396 365.598 378.489 354.44 359.187C352.768 350.225 351.314 337.474 357.232 330.007C365.62 319.423 370.623 325.979 370.559 336.459C376.564 327.854 384.004 312.165 391.821 306.91Z" fill="black"/>
</svg>
