<svg width="772" height="1025" viewBox="0 0 772 1025" fill="none" xmlns="http://www.w3.org/2000/svg">
<g clip-path="url(#clip0_2096_9654)">
<path d="M483.697 165.543C519.893 160.722 543.653 193.923 566.223 215.41C570.122 215.243 573.135 214.285 574.849 218.259C574.618 219.514 574.46 220.08 573.611 221.055C561.634 234.798 551.3 222.137 542.362 213.132C537.664 208.4 533.145 203.667 528.48 199.308C514.443 186.192 497.749 175.661 477.723 176.983C444.925 178.949 416.107 218.111 417.93 249.775C418.845 263.639 425.163 276.591 435.528 285.849C457.753 305.308 501.662 308.063 520.954 281.972C524.377 277.343 526.332 270.472 530.687 266.195C533.104 263.823 533.356 262.976 537.131 262.949C539.611 261.518 544.653 256.776 546.636 255.004C570.656 233.544 608.416 226.458 631.261 254.017C647.042 273.058 649.809 299.503 629.238 316.611C611.659 331.236 596.963 332.074 575.35 330.121C580.153 343.898 587.656 353.577 595.988 365.062C646.536 434.769 636.57 536.658 573.689 595.383C569.568 599.234 564.935 603.378 561.174 607.522L560.649 608.107C562.514 614.133 563.533 620.142 565.816 626.394C570.935 640.428 576.527 654.236 581.78 668.228C591.709 655.077 594.806 643.542 608.794 634.097C630.78 619.246 641.58 641.89 636.838 661.098C631.225 683.828 612.652 704.717 593.294 717.118C593.715 740.859 591.709 755.106 581.238 776.806C597.932 817.89 577.645 852.947 530.721 850.839C509.177 849.876 489.333 842.271 474.566 825.934C457.66 835.653 407.62 847.104 389.449 844.099C365.55 869.748 332.567 864.532 307.455 844.678C277.232 854.66 238.753 862.886 208.97 846.415C200.711 841.845 196.212 829.682 205.18 823.033C206.917 821.741 210.675 816.647 212.04 814.77C208.109 811.876 203.644 809.493 199.362 806.263C186.14 796.306 176.374 782.455 171.436 766.66C153.648 710.64 187.679 650.586 227.857 612.397C229.357 610.971 236.938 604.298 237.294 603.53C241.409 594.627 243.128 589.283 253.48 586.291C255.674 585.67 257.554 585.06 260.001 586.37C260.91 588.582 260.609 589.649 260.259 591.879C258.988 599.996 254.052 601.062 248.154 605.31C244.738 607.766 240.503 612.135 237.619 615.328C217.099 638.1 202.531 666.259 191.556 694.699C189.957 698.715 186.727 702.066 185.686 706.314C179.568 731.255 182.102 759.433 197.217 780.798C200.956 786.081 214.72 801.279 220.858 802.333C223.709 800.322 223.934 799.633 227.133 801.224C229.968 805.983 192.999 835.008 240.707 840.736C263.381 843.453 276.345 840.407 298.732 836.336C288.061 823.874 280.929 811.876 276.385 795.959C274.595 789.682 270.558 778.226 276.395 772.943C278.345 771.175 282.813 769.737 285.428 769.92C288.48 771.693 289.012 778.476 289.822 781.98C291.03 787.281 292.597 792.491 294.51 797.58C302.055 817.305 316.349 834.691 335.889 843.344C344.493 847.152 359.734 850.766 368.594 846.982C387.275 838.999 386.07 805.995 381.609 789.39C379.627 782.205 376.77 775.264 374.232 768.244C371.225 759.933 380.234 757.038 386.556 754.777C390.369 763.126 393.331 770.079 396.072 778.811C401.577 798.933 401.442 811.882 396.479 831.827C425.222 833.667 443.302 827.841 469.865 820.413C465.32 809.079 455.724 788.494 463.491 777.288C465.279 774.704 467.848 772.425 471.048 771.949C472.3 772.169 474.669 773.162 474.807 774.399C476.644 790.846 478.317 805.106 490.483 818.055C502.281 830.614 520.882 837.122 538.095 837.573C556.698 838.054 572.185 834.636 571.276 812.595C571.108 793.826 565.553 778.531 558.95 761.139C554.301 748.293 546.505 734.735 545.614 720.92C545.14 713.565 551.567 710.634 557.9 710.878C560.183 712.493 562.495 725.399 563.61 728.793C566.841 738.635 570.811 748.275 574.722 757.861C585.608 724.68 570.559 679.525 557.432 649.313C554.752 643.146 547.224 623.445 546.387 617.857C541.235 621.208 523.024 634.621 518.243 629.654C517.177 621.379 535.459 612.775 541.898 608.271C611.263 559.783 633.315 463.082 592.038 389.286C578.985 365.942 565.113 355.707 558.91 328.591C561.165 324.853 564.533 319.656 568.656 317.82C574.844 315.065 598.847 323.78 615.395 316.568C620.576 314.309 624.148 310.401 626.123 305.121C629.999 294.735 628.805 282.544 624.178 272.625C619.223 262.001 611.171 254.171 600.035 250.301C594.007 248.262 587.601 247.602 581.286 248.371C560.47 250.785 554.369 264.018 541.273 276.179C529.858 286.778 514.2 300.836 500.16 307.536C483.786 315.351 462.113 315.433 445.21 309.113C425.692 301.814 414.718 291.719 405.92 272.911C368.4 264.578 336.247 273.574 301.224 288.671C292.999 292.216 285.662 298.265 277.139 301.691C284.837 313.198 294.152 323.46 273.668 327.356C268.474 316.002 264.919 310.946 256.203 301.884C241.841 286.952 224.272 277.815 203.197 277.398C186.145 276.936 171.599 283.245 159.269 295.089C143.618 310.124 128.856 341.922 147.169 360.022C162.125 374.804 189.587 370.903 207.164 363.216C213.236 360.608 217.904 358.235 224.064 355.476C227.722 353.839 237.113 349.858 240.967 353.324C241.096 353.44 241.696 354.279 241.679 354.315C239.941 358.085 237.773 361.654 235.829 365.32C219.116 394.714 206.087 426.474 204.186 460.625C203.187 478.556 204.524 501.192 218.592 514.476C222.037 517.736 228.342 518.236 231.012 521.24L230.742 522.636C229.277 524.702 222.825 528.218 220.321 528.736C204.123 532.051 193.335 507.73 191.169 495.867C183.212 452.296 200.377 402.688 222.977 366.182C204.901 376.482 185.317 385.659 164.679 383.185C105.324 375.635 115.856 317.106 152.385 287.672C193.13 254.84 239.729 257.585 273.817 298.444C279.069 293.006 286.242 288.019 292.959 284.462C327.949 265.932 362.743 255.172 402.558 258.518C397.119 212.182 439.988 171.385 483.697 165.543ZM585.004 675.388C586.528 684.864 589.923 695.016 591.813 704.943C606.112 693.151 620.46 677.32 622.74 658.13C623.392 652.658 622.545 642.896 616.724 640.276C607.715 654.864 600.322 666.54 585.004 675.388Z" fill="black"/>
<path d="M364.631 433.037C370.32 432.201 375.761 432.397 381.295 433.942C389.22 436.155 397.894 443.962 394.541 453.039C390.091 465.087 375.474 471.485 364.678 476.934C369.92 496.974 380.819 505.14 401.362 509.211C415.257 511.484 430.369 510.527 442.823 503.489C446.804 501.24 452 494.506 455.958 495.475C457.517 497.548 457.653 501.277 455.663 503.136C430.66 526.475 389.151 530.399 362.086 508.358C357.013 503.495 355.599 500.442 352.843 494.267C340.936 515.286 319.482 537.821 293.522 537.072C289.11 536.944 281.56 536.054 281.919 530.277C285.624 524.122 299.838 525.171 306.559 523.385C317.241 520.539 327.751 516.536 333.894 506.646C339.142 498.2 342.937 489.801 344.501 479.909C338.655 479.816 332.821 478.473 327.306 476.743C301.973 468.798 319.161 453.227 332.738 444.775C342.886 438.458 352.748 434.745 364.631 433.037Z" fill="black"/>
<path d="M434.714 377.198C435.869 377.274 436.197 377.52 437.252 377.991C441.811 383.79 442.413 393.761 441.99 400.856C438.89 404.784 435.733 406.655 431.634 409.34C422.384 408.254 423.82 393.014 424.015 386.363C427.25 381.598 429.891 380.201 434.714 377.198Z" fill="black"/>
<path d="M281.119 422.283C287.21 422.825 289.755 439.546 288.001 444.75C286.05 450.539 282.948 452.572 277.966 455.322C271.388 454.472 269.469 436.699 271.867 431.541C274.603 425.655 275.529 425.044 281.119 422.283Z" fill="black"/>
</g>
<defs>
<clipPath id="clip0_2096_9654">
<rect width="771.583" height="1024.1" fill="white"/>
</clipPath>
</defs>
</svg>
