<svg width="772" height="1248" viewBox="0 0 772 1248" fill="none" xmlns="http://www.w3.org/2000/svg">
<g clip-path="url(#clip0_2149_42)">
<path d="M418.467 213.417C440.771 211.784 438.188 230.74 431.624 245.252C417.12 277.311 390.436 303.736 365.457 328.117C370.023 329.551 371.274 330.181 375.228 332.875C379.503 327.978 392.071 316.475 397.746 311.945C419.853 294.3 453.131 266.444 482.729 266.91C485.952 267.135 490.462 268.628 492.29 271.362C502.492 286.624 482.344 304.841 471.685 313.332C458.69 323.682 445.457 332.495 432.038 341.628C449.428 343.266 478.978 355.753 469.888 377.963C482.654 378.079 492.969 378.086 505.298 381.554C534.966 389.902 551.213 410.167 551.109 441.012C567.526 441.571 586.521 452.778 590.337 471.346C596.95 503.491 560.483 520.443 533.317 513.026C531.781 512.607 531.528 510.278 531.434 508.836C533.597 504.742 537.546 505.081 542.149 505.596C567.234 508.402 593.379 490.77 578.245 464.097C572.991 454.838 561.18 450.91 550.718 448.796C548.356 455.204 543.654 465.845 534.668 462.871C532.539 462.176 530.802 460.615 529.884 458.572C526.107 450.043 536.081 444.278 542.45 441.762C542.349 432.144 542.244 426.929 538.559 417.828C535.914 412.017 532.127 406.797 527.424 402.477C510.224 386.562 486.756 386.212 464.885 387.004C459.742 390.89 451.156 394.72 444.822 391.388C441.793 389.795 441.094 386.067 443.394 383.469C447.679 378.63 454.449 378.508 460.412 378.067C460.788 377.442 461.151 376.81 461.5 376.168C470.682 359.154 437.56 349.441 425.973 349.032C421.212 348.381 413.15 354.901 411.133 347.674C410.113 343.238 415.984 341.442 418.852 339.812C434.931 330.674 450.531 319.458 464.999 307.999C470.341 305.212 490.799 284.866 486.556 278.282C477.571 264.337 431.505 296.267 426.453 300.115C409.258 313.211 400.078 319.927 385.055 334.383C382.808 336.546 383.556 341.612 382.14 344.504C381.06 345.151 379.036 346.174 377.964 345.353C365.03 335.459 354.267 332.729 338.195 329.697C338.3 334.421 340.404 341.63 334.958 344.397C329.911 343.575 330.187 333.449 330.321 329.774C327.242 329.689 324.162 329.653 321.082 329.666C292.582 330.025 261.063 342.516 246.364 368.221C243.837 372.64 242.415 378.055 238.795 381.763C236.945 382.039 237.575 381.99 235.617 381.123C229.261 373.101 246.452 352.613 252.927 346.778C274.777 327.085 302.06 320.136 330.998 321.508C333.153 304.814 340.594 289.663 349.276 275.406C362.526 253.646 392.828 219.36 418.467 213.417ZM339.048 321.729C342.592 322.279 347.426 322.887 350.81 323.72C356.168 324.59 354.509 323.298 357.524 319.025C360.601 314.69 363.906 310.524 367.426 306.541C377.005 295.738 386.805 285.132 396.82 274.731C405.314 265.754 413.924 256.877 421.035 246.763C424.781 241.435 435.132 221.407 421.356 221.742C420.368 221.763 419.382 221.826 418.4 221.931C389.77 232.19 360.288 268.77 347.547 295.718C343.408 304.473 341.23 312.344 339.048 321.729Z" fill="black"/>
<path d="M218.514 390.172C222.227 389.854 232.335 389.878 232.469 395.022C229.478 400.663 217.282 397.42 210.663 400.127C195.322 406.401 186.878 421.561 187.274 437.888C187.499 447.134 190.999 452.359 197.34 458.66C204 455.689 214.34 451.654 220.237 459.006C222.829 462.237 221.208 466.888 217.669 468.829C211.856 472.016 204.762 470.572 198.618 469.124C196.998 471.56 195.073 474.085 193.704 476.612C185.562 491.652 190.065 510.01 205.935 517.746C224.462 526.777 248.347 522.999 264.53 510.634C268.336 507.727 274.783 500.257 278.862 498.965C283.243 500.6 284.319 507.073 287.096 510.619C288.982 513.027 292.289 516.454 294.699 518.368C321.055 539.301 350.02 529.393 377.044 516.484C379.309 515.403 387.515 510.111 388.641 510.595C393.579 512.769 397.656 517.517 402.742 519.455C426.285 528.426 448.181 523.496 464.257 504.45C464.27 503.098 464.311 501.746 464.382 500.395C464.605 496.425 468.222 493.653 472.051 493.928C475.442 496.34 474.328 499.862 475.817 503.761C478.955 506.145 482.469 506.452 486.314 507.064C494.281 507.303 500.277 506.281 507.467 502.823C510.522 501.354 513.392 499.378 516.682 500.204C524.432 506.417 509.746 511.197 505.177 512.964C492.996 517.676 481.147 516.523 469.507 511.044C467.961 512.845 465.821 515.15 464.101 516.738C452.869 527.162 437.948 532.689 422.633 532.096C411.569 531.699 395.944 528.423 388.167 520.061C365.092 531.926 340.395 543.205 314.009 537.059C298.581 533.465 285.224 523.865 276.901 510.389C267.974 521.281 253.866 527.31 240.348 529.957C198.62 538.125 163.429 504.339 191.186 465.034C184.537 458.499 180.747 452.229 179.385 442.794C177.605 430.205 180.873 417.422 188.476 407.23C196.503 396.586 205.686 391.897 218.514 390.172Z" fill="black"/>
<path d="M387.881 729.123C415.292 726.814 432.501 733.121 449.345 755.308C452.79 752.475 458.603 746.539 462.91 750.561C463.982 755.729 459.238 758.965 455.798 762.097C460.276 767.423 465.98 771.749 463.544 779.007C455.484 783.973 448.57 771.079 444.517 765.454C440.13 766.655 435.691 767.66 431.212 768.471C418.105 770.744 401.85 770.165 390.341 762.304C382.127 756.692 374.752 741.152 380.989 731.707C382.408 729.562 385.477 729.385 387.881 729.123ZM435.54 759.275C437.964 758.757 437.685 759.214 439.039 757.727C439.067 755.485 437.548 753.767 435.984 752.261C423.147 739.94 406.856 735.473 389.353 737.6L387.404 738.319C386.33 741.329 388.918 746.753 390.293 749.641C397.136 764.022 423.047 762.042 435.54 759.275Z" fill="black"/>
<path d="M399.458 738.861C408.205 741.75 404.021 747.898 398.411 751.427C388.775 749.428 393.797 742.213 399.458 738.861Z" fill="black"/>
<path d="M292.14 618.168C310.917 617.577 325.011 625.865 336.93 639.576C341.797 636.888 352.361 630.447 357.056 634.615C359.356 641.885 346.992 644.646 341.393 647.339C345.75 650.605 357.08 657.29 350.748 663.244C348.068 663.817 349.105 663.908 346.694 663.122C342.725 660.319 337.138 655.541 333.81 652.098C328.589 654.225 321.887 656.303 316.268 656.821C305.809 657.753 294.581 656.145 284.873 652.086C277.182 648.869 267.67 640.417 266.817 631.636C265.636 619.478 283.667 618.638 292.14 618.168ZM278.282 629.655C279.115 631.032 280.139 633.061 281.281 634.018C283.983 632.019 286.306 629.241 289.681 632.032C291.689 637.236 288.292 639.923 284.447 642.446C294.584 647.985 301.008 648.363 312.314 648.668C316.867 648.418 326.95 648.418 327.92 642.939C326.424 638.503 318.647 634.055 314.637 632.032C304.846 627.09 297.435 626.62 286.908 627.132L278.282 629.655Z" fill="black"/>
<path d="M486.899 613.172C495.104 612.605 502.288 612.123 503.664 622.166C506.446 642.489 478.342 658.978 460.736 658.521C455.93 658.399 450.518 657.4 446.027 657.894C444.104 658.107 442.739 667.522 440.894 670.051C437.178 672.19 435.342 669.411 433.163 666.413C432.955 661.404 433.742 657.802 434.572 652.885C429.657 649.052 418.068 658.076 413.48 649.966C413.712 642.97 435.996 642.842 441.394 643.092C453.229 629.149 468.574 616.797 486.899 613.172ZM448.768 648.156C452.257 648.863 456.028 649.71 459.531 650.173C473.812 649.521 482.558 644.396 492.339 634.146C485.499 631.459 485.059 629.936 483.381 623.025L482.71 622.757C467.84 629.009 458.886 635.365 448.768 648.156Z" fill="black"/>
<path d="M484.766 859.42C503.59 857.056 521.115 863.18 532.327 878.993C536.301 877.89 548.618 873.673 550.59 878.883C549.029 885.587 538.385 889.584 534.783 894.045C536.744 897.762 543.566 896.702 543.987 902.509C543.23 904.422 542.137 904.959 540.466 906.208C532.131 906.287 524.97 900.102 523.875 891.827C522.549 892.186 521.219 892.533 519.886 892.869C506.36 896.257 491.682 896.232 479.846 888.256C459.437 874.496 459.982 863.174 484.766 859.42ZM482.134 868.652L474.36 870.748C483.381 880.986 482.314 881.76 495.018 885.727C506.378 887.969 514.339 886.592 525.191 882.436C513.64 871.614 508.004 868.518 492.111 867.049C499.472 877.793 487.846 884.38 482.466 875.532C481.719 874.301 482.037 870.316 482.134 868.652Z" fill="black"/>
<path d="M321.941 723.225C324.814 722.847 326.576 723.383 327.663 726.022C327.464 730.525 321.562 736.375 318.489 740.013C322.567 741.798 330.185 744.254 327.279 749.994C322.258 753.888 315.48 749.592 311.005 746.874C296.355 760.006 278.994 766.972 259.148 764.333C214.314 751.975 273.561 716.058 307.969 734.583C312.82 729.087 315.921 727.051 321.941 723.225ZM261.493 744.218C262.647 745.034 265.361 746.935 266.018 747.923C268.174 751.146 266.224 757.715 272.151 756.423C275.312 755.729 280.448 754.827 283.443 753.833C288.446 752.17 298.125 748.483 301.088 744.126C302.079 738.471 291.281 738.13 287.228 737.868C284.37 737.679 281.5 737.758 278.656 738.105C270.874 739.605 268.51 740.537 261.493 744.218Z" fill="black"/>
<path d="M357.348 928.535C360.061 928.31 360.841 928.645 362.591 930.516C363.815 934.477 360.019 940.692 358.246 944.739C364.423 955.914 365.777 951.027 371.277 957.895C371.556 959.223 371.957 960.052 371.018 961.216C366.048 967.371 355.614 960.381 351.706 957.487C341.993 968.529 331.045 973.806 316.948 976.847C269.62 981.124 303.215 927.201 349.393 941.308C351.871 936.981 354.282 932.447 357.348 928.535ZM308.18 956.055C324.402 955.902 316.377 964.537 320.527 967.292C322.368 966.92 323.176 966.743 324.934 966.115C331.038 963.318 342.237 957.475 344.863 951.186C344.487 946.207 332.802 947.17 329.066 947.785C318.998 948.968 316.431 950.576 308.18 956.055Z" fill="black"/>
<path d="M208.673 648.911C219.474 647.961 215.018 660.825 213.535 666.784C217.96 668.923 228.209 672.75 227.523 678.576C222.572 683.262 208.547 675.742 203.706 672.707C195.224 684.225 183.08 690.55 169.707 694.425C164.585 695.352 155.884 696.832 150.987 695.656C132.932 691.336 149.079 673.993 157.008 669.368C170.5 661.501 183.613 657.961 198.563 661.202C201.44 657.308 205.35 652.324 208.673 648.911ZM164.011 681.245C164.655 683.024 164.812 683.506 164.28 685.34C167.966 689.203 192.696 677.186 193.138 669.904C191.136 667.394 186.211 668.168 183.129 668.631C174.917 670.014 153.858 676.772 153.084 686.772C154.565 687.826 153.938 687.521 155.835 687.722C159.044 684.602 155.43 681.952 160.698 680.361C161.927 680.635 162.811 680.806 164.011 681.245Z" fill="black"/>
<path d="M593.362 619.905C606.418 618.705 614.713 621.819 625.886 627.687C629.464 624.628 636.102 617.62 640.941 622.288C641.929 627.297 637.68 630.527 634.401 633.537C638.015 636.2 646.403 641.276 643.099 646.48C637.65 649.241 630.939 642.672 627.135 639.411C618.352 647.967 603.401 654.512 591.942 654.554C583.463 654.585 565.239 651.635 571.345 640.447C572.202 638.875 572.208 635.31 572.191 633.409C577.395 624.823 583.536 621.532 593.362 619.905ZM599.469 645.255C608.319 642.282 613.049 640.405 620.29 634.049C613.043 631.039 603.157 626.925 595.111 628.43C589.43 629.235 580.123 631.989 580.342 639.35C580.976 640.52 580.812 640.161 582.305 640.849L584.14 640.709L584.286 640.136C585.395 636.005 585.743 635.054 590.058 635.024C594.819 637.431 590.265 642.799 595.239 645.852C596.879 645.694 597.86 645.597 599.469 645.255Z" fill="black"/>
<path d="M298.276 835.959C302.436 833.01 313.195 825.301 318.242 827.684C320.411 833.844 306.863 840.937 302.693 843.204C304.766 847.933 311.158 855.148 309.63 859.188C307.54 860.523 308.41 860.127 305.553 860.316C299.809 857.378 298.275 854.545 295.232 849.054C284.001 859.67 256.954 860.035 245.279 851.48C226.254 837.537 248.281 828.299 260.812 826.532C272.077 824.887 289.501 828.372 298.276 835.959ZM254.229 836.349C255.702 839.749 255.225 846.714 256.804 847.238C262.924 849.255 272.259 849.664 278.522 848.226C283.608 846.513 287.499 844.746 291.971 841.705C283.015 837.354 276.524 834.868 266.167 835.112C261.992 835.435 258.395 835.715 254.229 836.349Z" fill="black"/>
<path d="M310.494 360.309C313.43 359.347 316.592 360.937 317.569 363.868C318.546 366.798 316.972 369.968 314.046 370.96C311.098 371.96 307.899 370.371 306.915 367.419C305.93 364.467 307.536 361.277 310.494 360.309Z" fill="black"/>
</g>
<defs>
<clipPath id="clip0_2149_42">
<rect width="772" height="1248" fill="white"/>
</clipPath>
</defs>
</svg>
