<svg width="772" height="1248" viewBox="0 0 772 1248" fill="none" xmlns="http://www.w3.org/2000/svg">
<g clip-path="url(#clip0_2099_9969)">
<path d="M235.099 254.194C238.898 253.811 241.769 253.582 245.184 255.823C258.279 264.419 264.922 293.48 268.105 307.537C307.001 298.721 347.617 295.304 385.887 309.366C389.034 306.063 393.965 299.458 396.916 295.63C403.831 286.658 411.556 278.938 419.776 271.169C422.068 269.208 424.222 268.139 427.247 268.49C437.212 269.648 442.434 276.651 445.506 285.608C451.812 303.991 454.692 325.199 454.915 344.592C454.937 353.729 454.383 362.859 453.257 371.926C462.461 370.34 474.371 371.348 483.003 369.125C489.03 371.615 494.28 376.898 488.325 383.455C484.745 387.395 476.536 386.289 471.355 386.078C474.937 387.103 478.475 388.275 481.961 389.59C494.353 394.226 510.413 404.065 515.997 416.324C525.72 422.007 529.536 425.124 538.302 432.463C538.49 432.132 538.682 431.803 538.878 431.477C541.654 426.853 547.364 424.443 550.889 428.283C571.865 451.128 581.31 496.788 586.296 524.557C603.96 504.072 615.943 484.976 622.495 458.523C627.018 443.975 629.493 419.431 613.688 410.188C595.981 399.838 593.525 389.328 609.506 373.326C621.301 361.519 639.154 350.383 657.08 353.916C687.641 359.941 697.485 390.662 696.132 418.266C694.931 460.24 678.181 498.469 657.33 534.16C652.277 542.812 646.7 551.779 640.781 559.898C632.741 569.306 622.239 579.413 613.73 588.905C608.104 595.179 601.893 605.984 596.908 610.734C597.279 612.69 597.602 614.664 597.871 616.639C605.374 670.471 588.185 725.948 555.695 768.812C548.881 777.8 541.75 786.496 534.945 795.472C537.043 809.323 527.688 840.462 522.857 853.411C522.655 853.947 522.444 854.484 522.227 855.014C511.865 880.474 495.521 898.73 470.116 911.082C463.472 913.977 456.053 914.269 449.333 911.253C430.372 902.74 431.781 874.66 432.549 857.262C432.97 847.738 434.597 843.125 431.036 833.893C379.641 851.717 324.773 858.762 270.989 849.164C261.104 847.403 251.774 844.612 242.089 842.101C241.791 869.078 232.619 917.572 199.766 919.924C172.034 921.917 162.326 872.15 158.894 852.997C154.435 828.116 152.687 804.954 150.843 779.957C150.541 775.862 142.876 767.629 141.901 763.175C134.136 742.267 133.051 722.164 132.679 699.696C128.975 700.025 124.699 700.513 121.611 697.996C105.574 684.907 123.912 606.222 122.462 584.867C119.728 590.054 117.597 594.599 110.704 592.803C105.712 591.504 103.409 585.74 105.363 581.235C111.586 566.886 121.947 554.509 128.456 540.208C130.111 536.582 131.464 533.239 132.823 529.538C119.433 525.244 122.665 515.315 126.052 504.401C132.75 482.822 143.724 462.061 155.29 442.674L154.953 434.678C139.425 439.254 124.462 445.415 109.706 451.96C106.343 453.452 102.244 450.734 100.76 447.655C99.8117 445.736 99.7477 443.499 100.586 441.53C101.112 440.304 102.581 438.317 103.685 437.695C120.327 428.335 142.918 422.676 159.798 415.53C161.182 408.4 167.933 387.52 166.019 382.623C155.902 381.294 126.13 393.349 120.712 390.875C118.71 389.961 116.18 387.262 115.598 385.129C115.147 383.476 115.582 381.87 116.491 380.458C118.014 378.094 120.724 376.411 123.286 375.36C134.708 370.67 159.549 367.167 172.598 364.697C183.211 331.656 204.472 272.631 235.099 254.194ZM214.369 892.521C223.93 874.55 226.863 856.897 225.871 836.678C210.562 828.244 195.862 822.857 182.505 810.889C179.631 808.311 170.274 799.579 167.997 798.61C169.564 814.143 180.346 942.892 214.369 892.521Z" fill="black"/>
<path d="M238.568 271.294C247.333 285.875 250.506 303.475 253.443 319.83C253.99 322.874 258.021 324.419 260.624 325.741C266.851 325.455 274.429 322.598 280.671 321.171C285.275 320.118 289.489 319.327 294.134 318.409C320.746 314.362 357.396 314.02 382.883 325.75C398.052 332.731 397.022 324.841 403.939 313.546C409.729 304.47 418.908 292.195 428.761 286.993C438.975 316.371 440.404 343.659 436.519 374.198C429.143 375.723 421.794 377.172 414.392 378.565C407.222 379.916 388.364 381.764 391.722 393.255C392.374 395.524 393.926 397.427 396.017 398.523C401.954 401.606 405.154 396.866 410.146 395.737C418.077 393.945 426.433 392.976 434.461 391.514C435.365 406.924 437.144 418.958 438.411 433.65C429.452 431.016 412.298 425.675 403.708 429.273C397.966 431.679 398.766 443.012 408.103 444.109C419.245 445.419 431.024 448.228 441.768 451.294C444.292 460.225 450.056 485.361 458.617 491.12C465.116 495.493 473.968 485.43 468.99 478.421C465.613 471.697 462.899 464.225 460.802 457.372C466.972 460.157 477.666 464.331 481.308 455.794C485.659 445.595 462.295 440.469 455.965 437.707C454.092 427.966 451.604 409.43 451.433 399.854C456.722 399.704 479.772 400.544 483.093 403.799C479.358 409.597 479.99 416.794 486.667 419.782C505.979 428.426 524.077 438.207 537.105 455.369C544.139 464.634 545.217 471.334 556.143 472.9C557.647 473.116 561.743 486.771 561.979 488.576C564.461 499.151 574.072 540.188 571.457 548.553C572.051 552.045 572.925 556.386 576.004 558.717C578.889 560.902 583.968 557.978 586.717 558.768C589.722 559.633 592.032 564.594 594.549 566.614C599.108 570.269 604.966 571.499 610.537 572.494C604.46 578.658 598.438 584.71 591.739 590.21C572.085 591.731 580.39 607.545 581.981 620.947C584.193 639.533 583.456 658.351 579.786 676.705C573.802 708.856 559.815 738.983 539.117 764.303C532.314 772.669 524.369 781.146 518.748 790.329C517.59 794.637 518.615 799.659 518.184 804.156C514.577 841.803 499.694 880.596 462.923 896.909C455.48 900.205 451.441 893.771 450.077 887.488C445.599 866.861 452.416 848.799 447.323 828.104C451.655 826.288 466.934 820.962 466.797 815.185C466.371 797.233 448.641 809.628 439.952 813.211C394.148 832.62 344.326 840.651 294.742 836.617C244.153 832.114 200.782 813.187 167.919 774.01C167.122 767.642 166.716 763.827 163.991 757.886C162.562 756.746 155.908 753.06 155.553 752.274C149.811 739.233 150.184 721.878 148.814 707.661C147.686 695.949 152.178 670.526 131.138 678.033C130.976 669.74 131.293 661.788 132.11 653.537C133.58 638.65 142.662 586.407 137.406 575.193C135.954 572.098 133.006 571.006 130.057 569.815C140.64 551.694 149.198 536.836 153.919 516.071C154.559 513.257 156.432 507.146 156.418 504.345C156.369 494.058 147.483 496.916 145.189 494.567C150.117 481.106 154.401 470.041 163.439 458.671C168.802 451.924 178.162 446.103 172.981 437.226C168.64 429.789 173.994 428.075 180.007 426.016C190.798 422.322 207.777 423.683 215.779 415.777C220.626 410.061 214.254 403.895 208.074 404C204.532 404.061 202.7 404.152 198.725 405.416C197.283 405.747 196.463 406.128 195.137 405.53C193.254 402.876 192.92 399.281 194.87 396.611C191.378 394.865 185.749 396.455 182.433 394.091C181.514 391.87 184.594 381.879 185.337 379.058C191.25 378.03 199.626 378.874 203.797 373.595C206.759 369.848 205.257 364.907 201.385 362.442C197.39 359.899 194.539 360.987 190.161 361.793C200.399 333.972 215.952 290.795 238.568 271.294Z" fill="#FEFEFE"/>
<path d="M238.568 271.294C247.333 285.875 250.506 303.475 253.443 319.83C253.99 322.874 258.021 324.419 260.624 325.741C266.852 325.455 274.429 322.598 280.671 321.171C285.275 320.118 289.489 319.327 294.134 318.409C295.59 334.594 289.451 343.949 277.134 354.215C274.579 350.525 269.111 345.914 264.779 349.722C259.398 354.451 257.616 362.48 255.527 369.062C255.235 369.992 254.49 373.599 254.287 374.026L253.665 372.982C240.676 379.608 229.947 387.654 214.924 391.455C210.713 392.521 200.936 394.485 200.293 398.437C200.068 399.821 199.032 404.655 198.725 405.416C197.283 405.747 196.463 406.128 195.137 405.53C193.254 402.876 192.92 399.281 194.87 396.611C191.379 394.865 185.749 396.455 182.433 394.091C181.515 391.87 184.595 381.879 185.338 379.058C191.251 378.03 199.626 378.874 203.798 373.595C206.759 369.848 205.257 364.907 201.385 362.442C197.39 359.899 194.54 360.987 190.161 361.793C200.399 333.972 215.952 290.795 238.568 271.294Z" fill="#AD5D08"/>
<path d="M571.455 548.553C572.049 552.045 572.923 556.386 576.002 558.717C578.886 560.902 583.966 557.978 586.715 558.768C589.72 559.633 592.03 564.594 594.547 566.613C599.106 570.269 604.964 571.499 610.535 572.494C604.458 578.658 598.436 584.71 591.737 590.21C570.015 581.357 564.289 570.297 571.455 548.553Z" fill="#AD5D08"/>
<path d="M254.285 374.026C254.489 373.599 255.234 369.992 255.525 369.062C257.615 362.479 259.396 354.451 264.777 349.721C269.11 345.913 274.578 350.525 277.133 354.215C278.197 361.569 275.773 363.201 274.766 370.815C273.793 378.171 272.484 399.382 258.679 391.339C254.252 388.76 253.536 379.123 254.285 374.026Z" fill="black"/>
<path d="M286.883 646.87C279.913 649.88 272.431 651.526 264.841 651.714C246.664 652.013 238.075 641.105 237.555 623.433C236.878 600.42 249.532 572.696 275.663 572.326C286.152 572.178 299.375 580.32 306.546 587.723C328.38 577.684 356.869 589.444 366.703 610.661C370.677 619.265 370.954 629.119 367.469 637.93C358.531 661.068 327.428 673.043 304.169 665.121C295.488 662.159 290.819 654.725 286.883 646.87Z" fill="black"/>
<path d="M306.547 587.723C328.381 577.684 356.871 589.444 366.705 610.661C370.678 619.265 370.955 629.119 367.471 637.93C358.532 661.068 327.429 673.043 304.171 665.121C295.49 662.159 290.82 654.725 286.885 646.87C312.342 635.073 325.313 612.117 306.547 587.723Z" fill="#AD5D08"/>
<path d="M314.444 389.347C321.438 389.631 323.492 392.468 325.111 398.653C328.661 401.651 342.482 398.31 337.118 411.931C334.582 418.369 327.209 415.617 322.331 416.265C321.093 416.43 320.65 418.543 320.231 419.65C317.606 430.48 300.825 427.495 303.379 413.186C304.87 404.831 305.456 393.358 314.444 389.347Z" fill="black"/>
<path d="M366.274 361.37C382.221 360.962 374.94 376.141 373.684 384.411C372.46 392.474 376.81 397.093 365.951 400.998C365.269 400.912 364.59 400.809 363.913 400.691C348.826 397.996 357.031 366.848 366.274 361.37Z" fill="black"/>
<path d="M665.515 375.589C667.356 376.473 669.075 378.058 670.318 379.673C681.649 394.415 680.741 414.155 679.095 431.33C667.039 431.351 659.335 433.553 648.253 437.793L642.286 440.065C642.676 427.743 642.128 422.238 636.453 411.223C636.52 411.188 636.587 411.151 636.654 411.118C640.897 409.095 666.21 389.724 667.539 386.569C669.093 382.884 667.033 378.904 665.515 375.589Z" fill="#AD5D08"/>
<path d="M622.501 502.576C623.488 503.985 624.817 505.84 626.316 506.654C631.003 509.198 648.125 510.459 652.861 509.229C645.803 522.598 637.995 535.556 629.461 548.039C629.297 548.171 628.718 548.232 628.462 548.28C627.803 547.287 625.134 543.157 624.518 542.533C619.02 536.988 606.433 535.582 599.168 534.952C607.659 524.69 615.454 513.875 622.501 502.576Z" fill="#AD5D08"/>
<path d="M640.341 454.48C645.778 458.797 666.757 457.232 674.011 456.618C670.049 469.806 666.983 478.1 661.723 490.781C651.251 486.202 640.627 485.783 629.82 489.218C634.648 475.908 637.116 468.326 640.341 454.48Z" fill="#AD5D08"/>
<path d="M647.045 369.438C649.435 369.217 652.665 369.165 655.128 369.051C647.436 372.931 629.199 389.869 623.475 397.422C621.409 395.557 617.916 393.004 615.637 391.226C622.451 380.656 634.898 372.548 647.045 369.438Z" fill="#AD5D08"/>
</g>
<defs>
<clipPath id="clip0_2099_9969">
<rect width="772" height="1248" fill="white"/>
</clipPath>
</defs>
</svg>
