<svg width="772" height="1025" viewBox="0 0 772 1025" fill="none" xmlns="http://www.w3.org/2000/svg">
<g clip-path="url(#clip0_2091_9575)">
<path d="M633.104 282.722C647.909 281.388 659.259 289.526 657.701 305.166C655.991 322.4 634.735 317.233 633.775 333.67C633.217 343.288 633.584 352.599 633.629 362.215C633.725 384.236 632.551 406.582 629.26 428.363C627.922 437.163 625.58 445.896 624.762 454.711C629.554 456.516 635.023 456.925 640.153 458.582C654.309 463.152 682.406 473.366 682.536 491.355C682.175 504.175 669.921 503.593 660.93 506.094C654.298 507.934 638.121 519.02 637.924 526.369C641.073 527.001 643.969 526.301 645.764 529.519C647.626 539.955 631.01 538.674 627.211 548.778C622.713 560.744 615.584 578.852 614.145 591.524C611.949 610.851 612.604 622.433 604.347 640.868C590.388 672.043 561.241 691.929 529.712 702.952C496.508 714.558 458.149 719.395 423.214 723.747C401.348 726.473 378.62 730.182 356.781 733.343C346.783 734.426 336.976 735.798 327.03 737.265C261.999 746.856 197.712 760.792 132.704 770.32C129.532 770.783 125.092 771.195 121.884 771.268C113.66 771.454 104.295 772.6 96.5849 769.259C89.756 766.911 89.2068 757.117 93.1137 752.088C117.717 720.4 169.117 695.767 206.985 685.059C201.634 683.309 196.305 681.503 190.997 679.635C99.4499 646.445 100.741 572.806 131.065 492.258C134.167 484.019 138.983 475.409 141.846 467.399L142.08 466.734C150.212 451.984 158.062 437.682 168.084 424.045C190.906 392.988 224.787 363.113 264.391 357.206C319.359 349.008 385.168 380.757 421.613 420.902C436.441 437.234 443.921 454.108 456.229 471.902C458.823 475.654 464.872 482.016 468.106 485.816C475.245 494.059 481.475 503.046 486.691 512.624C493.781 525.556 499.087 537.082 503.027 551.267C503.373 552.514 504.393 553.722 505.439 554.484C506.198 554.541 506.787 554.558 507.506 554.264C518.17 549.918 543.73 504.451 548.938 493.366C559.25 471.422 566.717 445.344 562.602 420.945C560.676 409.518 553.691 390.213 549.456 379.3C544.637 366.888 540.065 354.007 533.347 342.473C532.097 340.327 530.74 337.913 528.921 336.188C524.297 331.804 517.839 330.599 515.533 323.859C514.15 319.817 514.36 315.204 516.244 311.365C518.492 306.786 522.686 303.46 527.471 301.822C533.481 299.763 543.138 299.568 548.88 302.593C553.083 304.806 556.221 309.564 557.479 314.053C560.158 323.605 553.634 326.713 549.62 334.108C548.597 335.992 547.886 338.734 548.34 340.879C550.569 351.422 557.23 363.423 561.016 373.872C565.351 385.941 569.392 398.116 573.123 410.384C576.775 422.818 578.603 433.424 585.201 445.063C586.291 446.985 588.413 455.204 589.169 457.826C589.26 457.876 590.484 458.594 590.834 458.597C592.855 459.186 610.533 455.565 611.018 454.718C618.796 441.13 624.869 354.453 619.733 345.71C615.499 345.975 602.986 382.468 601.259 388.322C598.279 398.441 596.597 409.634 592.861 419.405C592.132 421.319 590.919 423.099 589.158 424.202C587.815 425.043 586.274 425.319 584.738 424.903C583.536 424.577 582.616 423.997 582.012 422.889C576.966 413.695 599.752 358.09 604.51 347.737C608.625 338.798 615.167 328.944 618.147 319.859C616.453 315.892 613.411 313.083 612.531 308.797C609.675 294.872 620.788 285.506 633.104 282.722ZM307.668 507.07C323.679 515.616 335.387 526.606 340.683 544.612C345.652 561.512 342.674 581.646 334.496 597.055C313.287 637.013 244.985 640.388 209.22 620.836C195.343 613.091 185.147 600.109 180.91 584.79C172.681 555.771 177.056 512.895 192.631 487.351C222.714 438.02 270.878 429.799 319.767 458.216C355.889 479.213 375.937 508.425 387.545 548.704C393.897 571.638 396.993 594.12 392.863 617.799C391.202 627.316 386.57 634.067 384.821 642.985C384.602 643.832 385.991 645.169 386.698 645.373C405.301 650.684 430.735 646.682 449.362 644.159C458.397 642.94 487.367 613.803 484.849 606.47C482.31 606.109 479.172 608.813 477.252 610.258C473.155 613.334 469.298 616.777 464.998 619.577C458.438 623.856 428.543 640.721 421.693 639.655C420.193 639.418 419.728 638.915 418.811 637.831C418.292 635.004 417.914 632.734 419.453 630.138C422.79 627.479 434.537 623.59 440.028 621.276C457.609 613.87 489.675 590.35 493.338 570.741C495.638 558.43 475.15 509.876 462.795 504.113L461.72 504.389C458.519 510.547 465.149 525.867 456.836 529.942C453.944 531.359 450.334 529.265 449.716 525.799C448.533 519.183 448.678 512.523 447.646 505.891C443.261 473.814 430.615 462.188 404.087 445.267C374.898 426.852 343.238 412.089 309.812 403.263C303.181 401.512 297.05 400.302 290.344 399.382C285.613 398.733 269.756 400.583 269.001 395.36C267.283 383.472 288.404 387.825 294.892 388.369C338.371 395.206 385.061 416.758 420.877 441.943C421.806 442.602 422.712 443.294 423.592 444.018C391.025 400.552 335.3 367.556 280.052 367.549C241.872 369.133 217.73 383.56 192.098 411.761C159.008 448.166 138.434 495.542 128.264 543.235C120.401 580.116 122.928 617.359 152.761 644.029C186.224 673.94 240.653 682.79 284.193 682.118C312.511 681.249 344.289 673.42 363.582 651.582C378.844 634.309 383.22 615.976 382.222 593.403C380.484 554.129 364.743 510.971 334.842 484.337C314.83 466.25 287.066 453.208 259.709 453.583C243.099 453.811 225.771 463.764 214.239 476.227C186.746 505.941 176.693 575.019 208.119 604.862C222.486 618.505 251.801 622.044 270.73 620.429C307.796 618.617 334.096 598.038 330.491 558.006C327.74 527.464 296.622 509.153 267.76 511.823C240.45 514.504 230.781 528.435 234.081 554.913C235.614 567.213 237.764 578.349 248.205 586.754C256.683 593.482 275.531 595.142 282.725 585.62C285.302 582.741 284.941 580.167 285.159 577.175C285.844 567.771 258.054 559.277 265.871 550.979C278.375 537.709 297.044 563.064 297.437 574.59C299.198 590.756 282.818 602.672 267.256 603.665C236.188 605.652 222.95 581.905 220.913 554.253C218.392 520.03 239.324 501.691 272.458 500.472C284.989 500.009 296.075 501.273 307.668 507.07ZM424.518 658.88C413.226 659.732 401.875 659.557 390.559 659.416L390.412 660.099C391.348 660.816 392.225 661.527 393.233 662.148C406.644 665.693 412.446 664.406 425.322 659.123L425.554 658.671L424.518 658.88ZM531.288 312.131C529.402 312.994 528.352 313.268 527.295 315.093C525.955 320.48 532.706 323.76 536.917 324.964C542.656 321.305 542.402 311.601 531.288 312.131ZM371.583 659.061C338.034 691.821 296.649 696.444 251.35 692.809C244.749 692.284 237.507 690.393 230.974 690.54C229.56 693.396 230.33 694.028 226.889 695.225C217.855 698.375 207.674 696.557 198.613 699.571C168.651 709.545 139.128 724.289 114.62 744.332C110.848 747.42 103.856 752.652 104.033 757.817C109.265 764.641 180.631 751.625 191.574 749.181C249.104 738.225 306.894 728.68 364.892 720.552L437.465 710.578C488.561 703.562 553.315 696.331 585.845 650.983C592.46 641.76 593.148 632.238 593.233 621.547C593.425 597.879 601.999 578.135 611.379 556.991C615.014 548.8 617.277 538.031 621.798 529.931C628.803 516.542 638.59 504.66 652.029 497.25C657.188 494.326 663.549 494.757 668.691 492.196C669.159 491.962 669.74 490.448 669.385 489.892C660.303 475.8 635.52 468.977 620.743 466.964C619.738 470.932 617.023 482.924 609.669 481.078C605.368 479.998 606.367 471.902 606.751 468.183C604.2 468.279 602.157 468.331 599.679 469.031C594.187 470.581 585.625 477.913 580.432 473.287C575.166 468.599 579.41 460.411 573.834 456.693C572.835 459.953 572.073 463.194 571.175 466.473C563.152 495.714 547.949 521.345 530.163 545.651C523.161 555.218 514.777 563.137 507.872 572.66C505.704 575.679 506.729 583.113 506.166 586.732C498.036 623.365 468.001 649.205 436.25 666.009C421.444 673.844 405.441 678.071 389.303 673.369C382.649 671.27 376.144 667.866 372.773 661.448C372.362 660.658 371.965 659.862 371.583 659.061ZM629.435 295.153C620.574 299.792 624.457 312.902 635.441 309.076C639.058 306.589 639.301 305.364 640.814 301.221C637.941 294.871 636.31 294.549 629.435 295.153Z" fill="black"/>
</g>
<defs>
<clipPath id="clip0_2091_9575">
<rect width="771.583" height="1024.1" fill="white"/>
</clipPath>
</defs>
</svg>
