<svg width="772" height="1248" viewBox="0 0 772 1248" fill="none" xmlns="http://www.w3.org/2000/svg">
<g clip-path="url(#clip0_2117_79)">
<path d="M513.274 349.247C523.536 349.013 522.923 355.94 522.68 364.283C522.535 369.264 521.878 374.882 521.216 379.868C515.968 419.392 513.274 459.132 506.876 498.515C523.839 498 567.639 496.33 580.403 506.124C587.522 511.585 592.252 523.288 595.196 531.615C600.645 547.026 603.474 563.749 606.893 579.704C612.562 606.169 618.419 633.104 621.735 659.984C624.648 683.627 630.475 723.974 614.725 743.815C607.886 752.438 598.14 757.465 588.114 761.432C564.026 770.975 533.718 777.185 508.23 782.115C467.842 789.933 427.337 795.838 386.613 801.572C356.295 805.844 326.112 811.231 295.702 814.832C273.9 817.416 209.096 824.521 193.108 811.614C182.252 802.852 182.569 783.827 181.182 771.006C176.182 731.451 171.782 692.043 164.451 652.793C163.594 648.204 164.858 642.348 164.182 637.943C160.372 613.068 153.955 586.135 155.891 561.009C156.203 557.079 164.19 546.648 166.18 542.714C167.69 539.675 172.958 541.934 173.243 541.769C192.194 530.825 243.828 527.725 263.162 525.722C298.708 522.289 334.181 518.133 369.559 513.257C369.949 497.632 371.653 393.227 375.873 384.006C377.025 381.488 380.25 380.6 382.625 379.634C383.467 377.61 384.27 375.513 385.697 373.816C386.151 373.275 386.688 372.663 387.355 372.381C389.314 371.554 391.988 371.726 394.089 371.252C396.982 370.6 399.486 369.125 402.524 368.971C404.039 368.894 405.66 369.173 406.777 370.273C416.873 380.218 409.19 449.12 408.111 466.677C407.315 480.582 406.73 494.498 406.356 508.42C423 505.977 443.431 504.622 459.186 501.687C462.68 493.362 463.854 476.862 465.526 467.628C470.866 438.158 476.109 378.621 491.475 354.127C499.982 350.593 501.237 353.658 508.759 351.282C509.011 351.202 512.778 349.472 513.274 349.247ZM470.299 511.216C470.561 516.118 471.292 522.974 464.532 523.577C459.656 521.439 460.838 516.726 461.22 512.317C442.807 513.862 423.359 516.918 405.012 519.365C400.857 519.919 386.047 521.422 383.04 522.474C381.89 528.465 382.36 527.925 376.488 530.65C373.468 532.051 373.158 532.176 372.007 535.398L371.367 535.73C369.293 532.861 372.4 529.587 366.333 527.462C355.212 523.569 339.596 527.389 327.979 528.866C315.077 530.512 302.162 532.058 289.235 533.502C272.148 535.349 255.051 537.102 237.945 538.76C217.888 540.808 189.323 542.848 172.362 553.87C170.066 584.11 175.235 619.04 174.464 649.789C174.368 653.622 177.327 665.444 178.122 670.075C180.351 683.652 182.431 697.247 184.36 710.873C186.606 727.143 188.656 743.444 190.51 759.763C191.76 770.506 193.191 780.981 194.616 791.682C197.403 812.614 217.327 806.849 232.703 803.559C255.3 798.86 277.653 792.029 300.041 786.356C341.957 775.741 387.303 766.003 430.256 761.506C454.168 759.007 478.057 758.52 502.083 759.031C520.244 759.415 539.619 762.279 557.522 758.897C574.023 755.783 597.665 750.128 607.478 735.296C625.483 708.094 603.504 614.89 596.683 582.854C595.556 577.552 593.733 572.343 592.709 567.052C592.039 563.576 591.911 560.011 591.234 556.533C588.857 544.219 583.103 521.96 572.192 514.813C559.344 506.398 520.504 508.557 504.577 509.055C504.105 514.258 503.672 519.465 503.278 524.674C500.476 526.777 496.743 529.922 493.216 530.178C490.845 528.126 493.509 513.75 494.093 509.81C485.902 509.963 478.273 511.19 470.299 511.216ZM472.195 500.5L495.79 498.989C498.397 481.067 502.017 461.588 503.233 443.701C504.888 419.357 501.807 394.556 510.422 370.931C511.278 368.585 513.322 362.972 511.997 360.808C506.336 363.634 502.158 365.747 498.754 371.457C497.244 394.263 491.984 394.859 486.18 409.111C482.446 418.279 471.214 499.078 471.797 500.31L472.195 500.5ZM385.821 391.016C385.161 393.634 384.131 396.871 384.314 399.475L385.209 400.008C386.25 397.874 387.494 395.93 387.18 393.597L385.821 391.016ZM257.029 808.354C274.398 806.947 291.723 805.039 308.981 802.632C380.153 792.114 449.551 783.01 520.22 769.287C508.896 768.599 496.087 769.111 484.634 768.989C480.534 768.94 465.982 768.751 462.906 769.293C445.63 770.415 428.587 771.676 411.413 774.004C404.039 774.997 396.824 777.051 389.653 778.209C363.951 782.346 338.509 788.275 313.132 794.07C302.076 796.593 291.008 799.366 280.046 802.291C272.894 804.198 263.924 805.984 257.029 808.354ZM401.171 383.06C399.985 385.042 398.972 386.159 399.189 388.383C400 390.115 400.237 390.431 401.461 391.907C402.85 390.049 402.15 384.998 401.171 383.06ZM395.146 509.224C397.17 495.9 395.361 489.451 396.159 476.957C397.136 461.686 404.191 408.389 400.684 396.389C399.582 395.813 398.84 395.393 397.646 394.983C392.576 399.164 391.157 417.83 382.68 424.281C381.177 438.217 381.792 459.763 381.133 474.43C380.771 482.489 380.455 504.012 381.119 511.133L381.738 511.662L384.495 511.423C387.948 510.765 391.778 510.124 395.146 509.224Z" fill="black"/>
<path d="M499.359 547.234C503.327 546.934 508.107 547.795 508.05 553.051C507.611 593.495 517.176 633.068 523.274 672.878C523.74 675.925 526.894 707.497 527.187 708.07C528.425 708.99 529.266 709.422 529.941 710.806C528.364 715.248 523.648 718.636 519.216 716.448C516.847 715.278 514.221 720.629 511.638 721.409C486.806 728.947 461.08 730.952 435.517 734.437C412.237 737.649 389.009 741.232 365.843 745.174C341.417 749.154 320.564 752.274 296.673 758.958C282.967 762.03 279.896 751.646 278.239 740.153C273.272 705.699 270.925 670.745 268.593 636.023C267.392 618.15 266.157 599.961 266.319 582.056C267.969 580.365 273.149 575.458 275.263 574.786C276.628 575.753 276.799 575.869 278.349 576.469C295.538 574.462 318.222 569.596 335.826 566.596C369.828 560.673 404.033 555.984 438.375 552.538C450.206 551.416 462.068 550.636 473.944 550.196C480.733 549.964 488.021 549.967 494.792 549.527C496.13 549.439 498.194 548.024 499.359 547.234ZM276.855 586.884C278.187 617.961 280.095 649.015 282.579 680.026C284.316 701.482 286.353 728.782 291.214 749.391C298.532 747.837 305.763 745.772 313.018 743.931C355.504 735.747 398.235 728.892 441.149 723.383C460.262 720.818 479.072 718.228 498.017 714.572C502.379 713.731 509.561 714.182 513.63 712.871C520.614 701.19 505.088 635.578 503.318 620.082C501.606 605.085 496.394 575.211 497.607 560.834C490.502 560.011 485.719 559.807 478.473 560.28C416.146 562.854 355.603 573.911 294.337 584.355C288.623 585.329 282.61 586.268 276.855 586.884Z" fill="black"/>
<path d="M299.158 619.04C301.238 620.703 301.681 626.163 302.26 628.333C303.48 631.897 300.604 637.686 300.983 640.898C303.486 662.098 305.408 683.652 310.42 704.425C312.078 711.299 318.517 723.389 307.399 724.407C299.594 718.642 299.107 711.957 298.046 703.048C295.075 678.112 290.108 652.64 290.047 627.498C290.04 624.378 296.889 620.398 299.158 619.04Z" fill="black"/>
<path d="M214.555 566.892C246.241 563.788 243.716 605.888 206.677 609.649C201.337 609.698 195.841 608.878 191.679 605.647C181.561 597.791 184.92 583.221 193.835 575.945C200.885 570.191 205.956 568.117 214.555 566.892ZM212.669 598.643C218.772 596.029 232.162 585.117 223.593 578.996C221.144 580.308 223.197 581.656 220.514 582.602C218.704 581.559 218.934 582.051 218.183 580.472L218.937 577.837C217.541 576.82 216.402 577.059 214.428 577.117C208.687 578.832 200.464 581.688 197.893 587.489C192.167 600.408 204.742 600.383 212.669 598.643Z" fill="black"/>
<path d="M216.45 622.354C229.411 620.691 247.94 626.669 238.672 643.134C232.597 653.932 224.871 657.546 213.614 660.885C195.37 662.793 180.252 654.511 192.792 634.499C197.606 626.815 207.755 623.726 216.45 622.354ZM206.268 651.16C211.216 650.55 214.925 649.825 219.561 647.851C224.909 644.609 225.893 643.14 229.568 638.119C221.281 633.409 222.427 632.196 213.342 632.738C207.552 635.572 206.555 645.517 206.268 651.16Z" fill="black"/>
<path d="M235.344 742.956C243.573 741.993 251.599 746.32 253.673 754.65C255.094 760.439 254.12 766.551 250.972 771.609C245.798 779.951 236.176 784.637 226.914 786.807C195.148 788.379 203.18 749.275 235.344 742.956ZM238.215 769.641C245.736 767.861 246.339 753.34 237.325 752.98C229.213 759.738 226.834 765.028 238.215 769.641ZM224.776 777.709C224.093 775.85 222.761 775.204 221.063 773.748C220.829 772.054 220.071 765.741 219.472 764.504C215.894 772.084 217.933 774.26 224.776 777.709Z" fill="black"/>
<path d="M219.471 764.503C220.07 765.74 220.828 772.054 221.062 773.748C222.76 775.204 224.092 775.85 224.775 777.709C217.932 774.26 215.893 772.084 219.471 764.503Z" fill="black" fill-opacity="0.0313725"/>
<path d="M556.024 576.5C565.646 575.82 571.208 578.005 579.201 582.674C579.811 583.86 580.384 585.062 580.927 586.277C586.924 599.96 576.879 612.629 564.523 617.937C550.369 621.502 542.319 615.231 539.885 600.741C539.198 596.648 537.677 588.916 539.043 585.141C541.068 583.869 543.679 583.853 546.15 583.569C549.817 579.431 550.856 578.337 556.024 576.5ZM564.588 607.156L566.311 605.156L566.166 604.016C563.05 602.705 557.264 603.682 553.398 603.434C553.43 606.544 553.004 605.733 554.404 607.811C557.448 609.771 561.557 608.719 564.588 607.156ZM568.403 590.786L569.869 590.229L569.547 589.361C566.413 587.961 561.804 587.397 558.368 587.28C557.311 589.428 556.736 589.632 557.127 591.63C559.807 592.938 564.938 591.15 568.403 590.786Z" fill="black"/>
<path d="M221.572 682.78C226.747 682.591 234.09 683.444 237.649 687.71C243.847 695.138 240.672 705.991 233.679 711.689C226.876 717.228 220.227 718.093 211.779 717.393C190.261 714.723 181.829 694.425 205.217 685.742C210.674 683.712 215.818 683.225 221.572 682.78ZM226.229 704.504C228.591 702.036 230.323 700.488 230.304 696.887C228.516 691.988 223.404 692.792 219.127 692.92C215.746 700.421 215.615 709.099 226.229 704.504Z" fill="black"/>
<path d="M572.328 700.958C595.642 698.99 608.423 730.001 574.932 734.949C540.507 736.052 544.108 704.364 572.328 700.958ZM570.967 724.858C591.326 723.133 584.573 710.647 575.739 711.726C571.234 713.505 564.516 715.601 561.563 719.306L561.185 720.854C563.114 723.901 567.549 724.626 570.967 724.858Z" fill="black"/>
<path d="M569.022 637.43C587.899 636.267 586.125 657.15 577.792 668.161C573.199 674.145 566.407 678.051 558.923 679.014C550.483 678.722 547.306 676.955 543.036 669.563C542.814 666.741 542.971 663.743 543.049 660.891C544.974 657.424 546.374 656.815 548.555 653.981C555.868 644.481 557.466 641.038 569.022 637.43ZM559.254 668.728C566.062 666.217 575.307 657.363 573.049 649.88C571.434 648.155 572.284 648.631 569.723 648.253C562.956 651.312 561.757 653.305 558.478 660.379C557.541 662.403 556.405 666.516 557.105 668.697C557.994 668.746 558.38 668.807 559.254 668.728Z" fill="black"/>
<path d="M560.473 519.989C590.623 517.798 585.509 552.742 550.798 552.667C542.857 551.238 540.736 550.539 537.671 542.734C535.993 538.46 534.088 538.755 531.046 535.555C530.437 533.513 530.376 534.373 531.243 532.481C540.571 528.112 550.617 522.059 560.473 519.989ZM556.648 542.071C560.615 541.245 568.765 539.364 568.671 534.236C566.527 531.815 564.599 531.934 561.151 531.222C557.454 533.412 552.005 536.387 549.629 539.852L549.56 541.146C551.412 542.667 554.215 542.247 556.648 542.071Z" fill="black"/>
<path d="M379.013 533.913L379.627 534.279C380.442 537.606 378.07 539.89 375.046 540.87C373.525 538.945 372.907 538.189 373.672 535.878C375.375 534.481 376.839 534.388 379.013 533.913Z" fill="black"/>
<path d="M385.821 391.016L387.18 393.597C387.494 395.93 386.25 397.874 385.209 400.008L384.314 399.474C384.132 396.871 385.161 393.634 385.821 391.016Z" fill="black" fill-opacity="0.0196078"/>
</g>
<defs>
<clipPath id="clip0_2117_79">
<rect width="772" height="1248" fill="white"/>
</clipPath>
</defs>
</svg>
