<svg width="880" height="1168" viewBox="0 0 880 1168" fill="none" xmlns="http://www.w3.org/2000/svg">
<g clip-path="url(#clip0_2073_7833)">
<path d="M587.941 121.082C596.05 120.834 604.617 123.431 605.523 132.629C606.961 147.139 593.672 163.827 585.728 174.855C589.44 172.506 592.965 170.206 596.963 167.948C615.321 157.59 639.971 156.795 652.09 176.68C655.05 181.535 655.175 190.352 653.556 195.775C650.613 205.615 638.91 212.791 630.27 217.284C635.488 219.896 636.629 220.706 640.301 225.248C638.163 239.278 633.475 246.008 624.224 256.423C617.192 264.343 614.848 265.898 604.634 268.171C589.315 271.577 582.454 265.777 570.392 257.52C570.128 263.044 567.741 274.765 567.922 277.736C579.072 282.894 585.557 312.56 587.901 324.091C600.841 326.903 608.712 332.439 618.116 341.567C630.412 353.506 634.718 361.792 640.957 377.525C640.604 379.193 639.64 384.611 639.132 385.692C634.29 396.061 626.306 401.413 621.241 412.482C619.074 417.227 615.567 432.392 613.479 433.989C610.377 434.076 610.719 432.548 608.01 432.366C600.756 436.232 600.031 427.551 593.957 425.611C587.325 423.494 582.232 422.372 575.918 419.267C567.658 449.618 559.989 479.355 548.074 508.541C539.505 529.534 532.805 551.58 525.206 572.941C522.195 581.405 518.398 589.674 515.531 598.201C511.926 609.881 508.197 621.207 504.18 632.739C506.48 642.611 509.765 651.65 512.452 661.237C521.398 693.158 530.643 724.571 541.799 755.824C544.018 764.983 553.161 777.267 551.968 786.341C551.237 791.89 536.03 792.9 533.704 785.822C524.856 758.892 515.919 731.893 507.911 704.695C503.447 689.53 500.85 675.683 494.794 660.747C491.579 667.248 487.383 681.01 484.836 688.219C479.012 704.193 472.72 719.991 465.969 735.6C462.377 743.876 456.039 761.538 443.782 759.993C437.049 755.749 446.903 736.011 449.597 730.519C464.947 699.232 476.12 665.891 487.537 632.995C487.044 630.212 479.484 598.252 478.962 597.351L476.479 597.237C475.043 596.25 471.864 588.368 470.678 585.95L475.038 580.618C472.97 573.677 473.321 571.789 469.641 565.078C462.732 566.069 457.274 568.712 449.682 569.941C453.037 581.627 456.73 590.387 456.51 602.546C456.018 629.836 453.096 654.519 436.1 677.018C433.186 680.873 428.116 684.415 424.082 687.426C419.12 690.078 414.354 690.899 408.896 692.217C394.797 686.325 389.971 685.031 380.488 671.965C370.328 657.964 344.463 609.704 347.586 593.558C348.339 589.669 351.117 587.348 354.15 585.163C353.918 568.563 352.402 549.525 371.676 542.274C377.277 540.166 382.47 540.859 388.297 541.256C362.433 500.202 360.212 438.654 351.656 391.41C350.19 383.313 332.363 359.049 335.078 354.299C340.992 352.707 337.245 351.183 341.4 346.308C346.599 344.024 348.46 349.715 351.299 353.835C365.603 355.956 385.417 368.388 398.397 375.868C402.356 367.92 416.514 335.493 431.124 339.423C432.051 339.672 435.926 343.443 437.159 344.331C450.461 353.907 455.205 367.515 460.686 382.177C463.141 379.282 465.862 375.855 467.922 372.691C476.541 359.452 478.663 354.504 494.893 352.905C496.412 358.798 499.627 364.544 500.897 370.9C505.5 393.941 511.936 416.948 515.921 440.058C520.312 465.524 520.578 489.529 520.059 515.194L528.066 515.654C530.221 508.969 534.288 500.25 536.839 493.379C542.309 478.645 546.744 464.19 551.194 449.151C555.93 433.147 561.557 417.531 564.141 400.922C564.713 397.25 562.446 390.825 563.37 386.7C564.788 380.372 567.435 374.522 569.062 368.145C570.643 361.961 570.694 357.571 571.276 351.672C573.129 332.978 567.832 321.517 560.395 304.726C555.882 311.713 553.079 316.731 546.006 321.499C540.467 325.41 531.593 329.087 524.608 327.443C504.378 322.682 511.959 290.393 514.747 277.122C505.778 285.398 500.197 295.426 486.664 300.264C478.511 303.179 474.269 303.583 466.127 307.592C458.344 299.368 439.129 298.44 442.151 281.847C444.794 267.337 456.051 257.122 467.483 248.874C455.507 246.029 441.111 246.924 431.175 238.23C421.426 229.7 433.001 217.497 437.9 209.993C439.578 207.422 439.308 200.988 442.312 199.111C453.443 192.158 472.903 194.545 485.22 195.678C482.439 189.397 477.633 183.987 475.453 177.219C473.639 172.665 475.258 165.631 472.617 161.508C468.101 154.459 474.382 151.389 477.34 144.466C481.977 137.205 490.144 143.132 495.626 143.582C508.786 144.664 512.787 144.855 522.726 154.025C527.719 158.631 534.753 165.179 540.334 169.209C544.891 159.877 552.877 149.597 559.433 141.512C567.556 131.494 574.738 123.421 587.941 121.082ZM505.075 533.098C509.219 502.474 503.708 453.489 496.628 422.96C493.629 410.033 487.561 394.226 484.079 378.85L483.24 378.453C477.812 384.857 472.415 394.559 467.478 399.953C457.229 411.15 456.351 416.552 449.45 429.15C463.499 456.805 473.754 486.2 470.149 517.804C469.375 524.596 469.439 539.565 461.787 543.886C459.139 545.381 451.7 544.487 449.867 541.296C450.238 537.26 454.128 536.493 457.521 535.163C457.052 529.614 457.714 524.291 457.459 520.224C457.054 513.766 456.682 497.822 455.662 492.229C450.891 466.06 434.192 424.508 413.265 407.636C403.79 399.997 374.545 379.594 363.456 377.521C364.507 382.815 366.535 388.623 367.266 393.65C369.855 411.564 372.866 429.335 376.259 447.116C377.674 454.535 380.213 461.946 381.54 469.248C383.504 481.008 386.216 492.44 389.844 503.801C391.127 507.818 392.663 514.861 394.857 518.254C411.714 544.309 440.106 559.268 471.311 553.648C483.305 551.488 496.94 541.728 505.075 533.098ZM424.148 666.45C440.095 647.607 437.157 626.123 437.056 603.077C437.011 593.051 433.175 588.414 430.64 579.523C432.597 575.673 433.644 573.945 436.141 570.421C426.79 566.725 418.004 565.723 408.541 562.469C399.959 559.518 387.928 557.396 378.738 557.981C368.684 561.361 372.061 589.532 366.555 597.225C372.124 616.622 376.597 633.509 387.606 650.687C396.123 663.981 400.849 670.197 416.374 674.725C419.254 671.868 421.553 669.609 424.148 666.45ZM581.621 398.106C587.188 403.956 591.328 406.087 597.602 410.797C599.586 412.288 602.062 414.939 604.177 416.756C605.529 414.04 607.155 410.517 608.746 408.031C613.228 400.24 618.059 395.532 623.272 388.592C623.54 365.534 605.101 351.902 588.836 338.917C587.547 348.601 587.131 358.096 586.007 367.774C584.878 377.503 582.089 388.445 581.621 398.106ZM576.808 198.329C587.633 203.478 593.513 207.877 605.58 208.94C611.415 210.18 614.956 211.288 620.625 213.158C622.701 209.958 623.928 206.822 627.407 206.072C630.532 206.748 631.798 208.071 634.655 206.267C640.849 202.354 641.619 190.428 637.09 185.2C633.68 181.259 622.656 174.59 617.358 175.173C606.231 176.846 584.69 190.194 576.808 198.329ZM524.668 236.577C532.458 237.883 541.232 238.99 548.116 234.156C551.517 231.777 553.853 228.164 554.628 224.086C555.601 218.734 553.53 218.967 558.121 215.642C559.116 210.316 547.664 204.988 544.464 205.669C533.236 206.317 519.295 205.846 510.483 214.242C505.056 219.414 510.636 229.031 515.441 232.694C517.988 234.636 521.536 235.85 524.668 236.577ZM427.271 361.217C423.549 371.276 420.788 378.538 415.418 387.827C426.082 395.952 428.96 401.052 437.303 409.159L438.784 409.395C440.452 407.702 446.328 397.86 447.63 395.463L447.32 394.851C442.51 385.203 441.93 374.5 432.654 365.939C430.664 364.102 429.906 362.724 427.271 361.217ZM495.823 603.852L496.003 605.067C499.033 603.727 504.11 585.152 505.623 580.721L521.709 533.784C522.507 531.464 525.194 526.291 524.694 524.276L524.374 523.968C520.537 528.293 518.508 531.944 517.271 537.668C513.079 557.075 504.883 572.634 491.731 587.496L495.823 603.852ZM492.855 161.636C495.698 182.253 501.255 188.493 522.022 193.106C524.561 192.215 527.708 191.013 530.263 190.388L531.285 189.773C530.503 185.678 526.699 184.546 524.364 181.65C513.481 168.151 509.898 164.575 492.855 161.636ZM535.937 306.736C537.363 307.037 538.574 307.536 539.825 306.465C552.816 295.334 550.691 267.46 549.1 252.876C548.928 252.708 548.495 252.227 548.31 252.17C546.086 252.835 543.566 253.53 541.395 254.268C533.549 262.644 531.933 286.074 531.702 297.429C531.624 301.236 533.193 304.092 535.937 306.736ZM483.975 230.428C486.254 230.385 486.963 230.8 488.377 229.571C488.926 226.63 484.636 219.571 486.389 216.578L488.025 215.952L488.134 215.186C482.861 213.844 464.969 211.975 459.088 211.511C449.847 216.885 448.782 221.88 459.539 226.363C467.422 229.648 473.923 229.99 482.24 230.355L483.975 230.428ZM485.047 555.536C486.615 562.186 488.386 569.17 489.557 575.867L490.08 577.658C494.795 575.804 501.872 551.063 502.343 545.338C496.057 550.072 491.145 551.638 485.047 555.536ZM587.946 139.154C576.243 142.688 563.919 162.147 557.629 172.688C554.264 178.326 552.177 184.651 548.376 190.668C549.571 191.629 551.206 191.636 552.783 191.838L559.033 193.1C566.903 183.236 591.836 151.94 590.843 140.587C589.697 139.212 590.091 139.647 587.946 139.154ZM619.337 236.517C612.841 234.934 610.867 235.655 609.653 228.765C592.805 231.964 591.573 224.623 576.711 223.378C581.661 243.186 590.387 251.258 611.78 250.267C612.949 249.01 614.649 247.293 615.658 245.977C617.711 242.506 618.321 240.445 619.337 236.517ZM479.171 287.976C494.362 283.495 504.003 266.87 511.801 253.925C508.782 253.126 500.602 250.202 498.432 249.858C495.018 250.949 491.931 252.1 488.854 253.868C481.952 257.836 453.034 280.513 472.617 286.268C474.594 286.848 477.071 288.276 479.171 287.976Z" fill="black"/>
<path d="M637.575 623.505C640.529 623.887 641.767 625.616 643.871 627.697C648.172 626.499 652.517 625.462 656.897 624.572C661.608 639.879 666.011 637.866 680.526 641.761C689.771 644.139 696.392 648.793 703.88 654.034C719.022 664.642 723.003 686.479 734.655 698.45L735.094 698.895C744.686 699.922 754.285 703.229 763.672 705.551C767.727 706.549 783.651 708.533 785.561 711.71C784.335 714.385 779.396 718.611 777.132 720.749C771.035 721.251 757.091 721.918 751.222 720.886C731.25 717.362 711.893 709.908 697.247 729.538C687.044 743.208 683.161 758.036 685.191 775.129C688.293 776.486 690.54 777.718 693.506 779.372C696.917 778.066 701.08 776.549 703.561 774.347C733.668 747.719 762.572 722.318 805.42 724.086C815.349 721.029 830.565 714.972 839.285 724.302C852.756 738.703 841.977 757.158 836.336 770.914C820.556 809.439 799.021 842.454 765.052 866.983C752.386 876.131 736.354 873.525 721.999 871.694C714.511 870.861 705.42 870.987 697.675 870.873C689.046 879.051 680.366 896.035 674.087 906.512C670.214 912.973 666.199 919.469 662.293 925.914C659.612 929.621 656.344 936.584 653.612 940.713C649.814 947.409 644.151 954.481 640.615 961.256C629.191 983.15 612.92 1000.57 596.7 1018.9C592.001 1024.21 588.397 1031.41 583.92 1036.94C571.213 1052.6 558.898 1070.65 542.331 1082.48C539.299 1084.62 529.958 1087.74 526.36 1087.76C522.362 1085.33 520.941 1081.22 523.445 1077.03C530.076 1065.95 540.682 1057.4 548.672 1047.19C554.678 1039.51 562.259 1032.62 568.082 1024.7C572.217 1019.15 575.382 1012.86 579.665 1007.82C591.197 994.271 604.44 979.882 614.842 965.47C625.695 950.443 635.191 933.647 645.035 917.923C656.852 899.058 669.69 879.992 681.261 861.023C668.235 855.058 650.156 850.039 642.685 837.207C631.37 817.788 633.708 797.645 638.048 777.37C635.682 772.682 634.672 766.044 631.895 760.911C628.598 754.592 625.028 749.47 621.606 743.117C605.654 713.444 596.324 667.613 617.791 638.408C622.832 631.547 628.969 624.68 637.575 623.505ZM677.229 836.346C682.721 839.962 686.908 839.882 692.953 841.804C700.11 844.079 706.988 847.695 714.431 849.018C726.031 850.781 733.44 849.537 744.373 854.858C745.622 854.716 750.173 854.214 751.04 853.672C762.566 846.298 772.603 835.884 780.805 824.94C785.31 818.917 792.89 810.522 796.22 803.736C804.593 786.695 811.499 768.348 819.603 751.096C820.829 748.489 821.919 743.67 820.624 741.041C818.406 739.781 815.776 740.157 813.261 740.482C794.709 743.049 784.996 741.874 766.883 749.681C737.86 762.194 693.962 821.467 661.477 790.961C656.698 808.942 660.747 826.337 677.229 836.346ZM649.027 759.565C653.145 757.112 656.008 755.094 659.863 752.305C662.846 742.758 664.523 737.271 669.69 728.563C678.974 712.497 691.653 704.803 709.407 700.047C709.8 699.939 710.199 699.836 710.598 699.733C706.732 686.126 693.232 673.185 681.318 666.102C669.564 659.121 658.814 659.059 646.774 653.966C644.293 652.922 641.208 647.949 639.012 646.426C630.446 654.302 627.19 676.499 626.653 687.534C625.644 708.436 631.051 726.184 642.024 743.71C644.636 747.873 646.615 754.905 649.027 759.565Z" fill="black"/>
<path d="M196.188 180.859C201.563 180.17 213.197 183.136 218.19 184.687C239.52 191.314 256.8 215.905 266.508 235.246C277.297 222.19 289.861 209.949 307.725 210.706C321.169 211.277 327.523 215.666 328.346 229.718C329.252 245.175 320.37 255.37 314.518 268.452C310.943 276.366 308.206 284.632 306.352 293.116C322.998 278.277 343.935 264.992 367.536 270.411C380.948 273.859 382.264 282.975 378.645 294.571C373.244 311.872 354.499 317.596 339.592 324.338C326.341 330.33 321.391 329.987 307.89 325.526C302.318 332.715 300.365 334.769 292.311 338.894C321.619 354.28 321.109 378.802 324.576 407.959C325.706 417.455 329.648 419.062 328.972 431.671L324.625 437.24L326.22 440.316C329.884 448.559 332.015 453.097 336.77 460.775L335.905 468.834C332.34 471.304 328.575 473.639 324.912 475.972C317.499 469.552 314.171 458.098 312.03 448.885C313.318 445.817 315.111 442.689 316.711 439.745C307.329 435.589 297.479 425.779 292.421 417.002C283.877 402.177 288.484 384.346 292.58 369.049C285.433 376.832 280.991 381.469 271.975 387.357C241.337 407.365 227.122 380.423 243.339 352.68L253.251 355.482C263.654 353.114 269.681 347.829 280.194 345.2C276.848 343.715 274.449 342.417 271.242 340.624C256.179 344.628 246.682 344.126 231.297 339.729C213.584 334.668 201.059 326.735 197.353 307.369C196.346 302.106 192.422 292.067 195.139 287.4C199.787 279.414 210.936 285.913 219.343 282.168C219.876 281.05 220.05 281.394 219 279.865C217.552 277.756 213.093 274.276 211.789 272.404C208.326 267.436 204.583 262.477 201.489 257.014C197.031 249.145 191.817 239.352 187.486 231.311C187.475 231.291 188.448 224.038 188.172 222.705C186.11 212.718 185.182 203.56 184.564 193.414C184.297 189.008 187.626 186.329 190.277 183.587C192.244 181.554 193.247 181.607 196.188 180.859ZM240.557 270.506L240.468 271.295C239.576 278.6 230.754 286.142 237.233 293.57C247.287 305.099 274.133 310.801 288.723 310.027C290.657 309.998 291.505 309.953 293.407 309.627C291.01 303.287 290.912 299.082 290.075 292.405C287.452 291.588 287.276 293.447 284.502 292.37C283.497 289.925 283.585 288.36 281.893 287.409C277.08 287.319 271.915 287.955 267.097 288.414C252.154 281.65 257.842 272.368 254.387 260.067C248.575 239.374 228.875 204.318 205.161 202.454C207.053 211.489 207.641 219.964 210.333 228.867C214.329 242.084 229.117 262.735 240.557 270.506ZM279.016 281.322L286.14 281.856L292.711 282.369C294.665 277.481 296.339 273.445 298.799 268.795C304.405 258.2 312.737 247.535 313.414 235.258C311.38 230.404 308.327 223.467 301.997 223.265C295.855 223.934 293.658 224.022 288.299 227.517C277.497 234.564 271.659 249.401 273.291 261.963C274.323 269.908 278.856 271.608 279.016 281.322ZM299.888 378.543C298.023 389.299 299.85 406.43 311.95 410.758C311.465 399.849 307.326 386.613 299.888 378.543ZM340.801 315.383C346.662 311.944 369.202 296.351 363.474 288.97C357.728 285.907 343.064 286.725 336.157 287.14C329.737 288.806 325.218 294.269 321.917 299.769C317.843 306.561 317.329 311.44 317.38 319.049C321.883 318.632 337.927 317.465 340.801 315.383ZM251.403 385.936C264.585 390.241 273.61 378.754 281.986 370.51C285.075 367.469 287.911 364.301 289.396 360.19L289.283 359.196L288.229 358.761C266.758 363.597 267.43 375.468 247.622 376.222C248.1 380.996 247.533 382.848 251.403 385.936ZM268.325 328.529L268.204 327.523C263.897 325.287 255.204 324.621 249.283 322.244C237.799 317.634 234.164 306.456 223.811 302.059C222.318 301.425 214.573 301.127 212.671 301.058C213.48 307.605 218.477 315.868 223.675 319.902C232.022 326.38 258.46 331.665 268.325 328.529Z" fill="black"/>
<path d="M634.051 495.045C637.849 494.98 645.588 496.112 646.079 500.93C646.501 508.021 647.299 522.334 645.229 528.995C638.499 550.649 631.758 572.697 625.433 594.505C622.348 605.147 620.574 618.065 614.437 627.418C601.531 647.077 577.8 658.962 557.856 670.431C554.845 672.159 549.862 676.071 546.79 676.676C543.865 677.144 538.234 678.809 536.105 676.767C530.229 653.43 536.38 618.595 544.183 596.347C550.932 577.099 569.603 559.754 583.635 545.216C596.883 531.49 616.907 502.717 634.051 495.045ZM555.489 660.268C559.402 658.312 567.782 654.166 570.82 651.85C582.853 642.668 601.058 626.363 604.657 611.079C608.267 595.766 611.86 580.128 616.416 564.884C619.114 555.846 630.657 529.379 629.465 521.437C619.605 528.184 611.803 540.934 603.43 549.717C592.281 561.412 574.618 577.322 566.283 590.542C558.16 603.425 551.408 646.164 555.489 660.268Z" fill="black"/>
<path d="M722.592 558.455C728.347 558.586 734.763 563.856 740.785 564.95C749.699 566.585 759.041 566.166 768.058 566.392C778.746 566.659 784.757 572.388 793.58 577.39C799.688 580.937 807.929 583.076 813.872 586.578C827.394 594.556 839.627 602.94 854.912 607.411C855.476 607.571 857.666 609.162 857.444 609.789C856.206 613.263 858.242 615.327 859.098 618.538C861.995 628.895 846.933 635.197 839.536 637.974C830.787 641.259 820.972 640.872 811.944 643.153L811.123 643.364C803.543 645.394 793.563 644.442 785.704 645.063C760.803 647.025 732.527 649.198 709.372 638.157C701.542 634.427 698.365 627.395 692.964 621.207C689.594 617.494 684.763 616.171 682.333 611.004C682.214 609.693 682.162 609.259 682.784 608.056C686.457 600.881 697.43 608.586 702.095 611.09C706.275 598.834 707.416 585.255 710.661 572.725C712.583 565.303 714.323 559.816 722.592 558.455ZM824.348 626.939C831.819 625.918 834.597 625.872 841.486 622.713C837.015 618.892 823.55 610.172 818.12 608.096C809.041 604.708 799.768 602.221 791.007 598.024C783.16 594.266 773.379 584.701 764.893 583.601C750.669 581.764 738.436 583.532 723.904 580.96C719.712 590.975 719.444 598.594 716.364 608.615C715.554 611.238 710.325 614.517 709.669 616.964C712.058 619.645 719.684 621.749 723.094 623.54C742.747 633.845 765.309 629.46 786.61 629.192C799.072 629.038 811.516 628.587 824.348 626.939Z" fill="black"/>
<path d="M159.747 557.066C162.866 557.156 167.372 558.933 170.451 560.008C172.387 584.451 172.086 601.982 166.796 626.095C165.212 633.321 159.904 652.46 156.406 658.591C146.396 676.134 126.215 692.428 109.884 703.914C93.4997 715.434 81.6366 716.421 62.6285 712.474C59.5944 711.858 55.0566 712.098 51.8481 712.143C51.504 710.849 49.3811 705.642 49.4762 705.043C51.3973 692.935 64.4689 670.568 70.6813 660.639C74.8076 654.046 84.5412 641.476 88.5289 637.028C102.91 620.996 122.515 609.413 142.666 602.461C148.858 600.322 147.565 598.052 156.258 597.442C156.288 586.236 155.011 573.244 156.781 562.144C157.012 560.696 158.809 558.327 159.747 557.066ZM76.575 692.913C96.5315 692.856 101.215 693.432 117.34 680.229C122.264 676.259 127.89 672.455 132.248 667.882C142.562 657.046 149.44 643.409 152.451 628.781C153.377 624.287 156.042 615.823 154.452 611.386C148.377 614.934 142.098 616.65 135.52 618.983C108.911 628.416 96.9941 653.196 84.5298 676.362C81.8482 681.347 78.2991 686.457 76.1883 691.607C76.3024 692.61 76.0777 692.468 76.575 692.913Z" fill="black"/>
<path d="M104.504 369.316C79.6876 383.117 87.4896 357.528 88.1625 342.887C88.8104 328.799 104.133 316.113 115.474 309.933C125.375 304.538 145.136 307.302 154.788 312.419C185.527 327.769 177.264 365.291 164.661 390.16C163.203 392.998 161.561 395.738 159.745 398.36C160.911 401.915 161.899 404.799 162.647 408.492C166.598 407.657 172.949 406.179 176.879 405.979C192.568 405.182 207.47 415.602 220.206 423.486C230.062 429.586 237.35 438.164 239.703 449.668C240.967 455.844 240.96 464.277 240.17 470.629C233.981 476.72 235.577 482.678 229.954 488.314C226.835 491.441 223.34 492.771 219.802 495.226C218.3 494.288 216.657 493.312 215.229 492.285C196.479 499.841 196.177 500.784 174.36 499.542C172.47 499.435 166.802 498.799 165.736 500.256C167.595 505.548 171.064 510.488 173.312 515.701C179.838 530.835 188.496 544.916 196.351 559.408C216.352 596.307 242.494 629.357 262.25 666.404C264.679 670.961 268.324 675.375 270.796 679.972C275.117 687.232 279.41 695.924 283.905 702.853C284.188 670.174 279.092 636.012 291.547 604.548C296.705 590.65 304.932 580.276 309.534 565.937C312.105 557.925 309.672 534.02 322.048 532.674C327.8 532.049 328.184 543.841 328.754 547.873C330.263 558.837 330.812 570.546 332.751 581.394C335.486 596.689 344.154 611.512 346.198 627.041C351.971 670.904 356.433 713.313 367.912 756.24C373.841 778.414 376.831 792.78 387.493 814.093C399.072 812.256 409.705 812.262 421.417 812.872C428.684 803.177 427.186 807.893 435.035 803.251C438.099 801.437 435.819 794.012 447.46 793.213C473.127 791.451 481.751 807.146 474.784 829.719C479.317 834.116 488.074 825.921 491.537 822.87C500.015 815.41 504.202 806.667 514.083 819.385C531.266 815.484 542.275 816.545 557.125 826.605C567.325 833.517 577.241 841.302 586.891 849.115C591.887 853.165 609.071 864.93 610.285 870.713C612.618 881.806 604.423 895.299 600.459 905.206C594.59 918.825 590.501 932.86 582.916 945.515C577.201 953.061 567.795 954.07 559.365 956.557C558.29 956.876 554.442 960.19 553.812 959.864C546.805 956.294 539.377 957.355 531.798 955.262C525.969 953.659 520.779 951.104 515.334 948.544C507.427 961.37 503.418 967.575 491.519 977.333C490.145 983.304 487.937 991.294 480.676 984.468C477.911 984.177 460.732 993.872 458.3 995.8C456.548 997.186 455.035 998.851 453.819 1000.72C450.572 1005.63 448.049 1011.76 445.027 1016.86C438.664 1027.59 433.152 1038.99 427.484 1050.01C421.902 1060.86 420.41 1064.57 418.783 1076.56C417.688 1084.62 413.07 1094.54 412.82 1103.05C412.256 1108.2 412.131 1113.55 411.786 1118.67C411.309 1123.36 413.363 1138.55 409.091 1141.36C405.028 1144.02 392.775 1146.93 387.45 1146.81C385.296 1146.76 382.397 1141.29 381.26 1139.47C382.029 1134.82 382.396 1127.58 383.304 1123.72C386.511 1110.09 389.513 1096.5 392.167 1082.73C393.668 1074.95 392.633 1071.55 395.41 1063.76C399.828 1051.38 407.831 1040.68 412.93 1029.2C400.987 1035.46 368.116 1058.93 360.153 1039.74C354.574 1026.29 347.898 1004.85 343.675 990.325C341.637 983.316 342.073 963.36 341.994 955.279C325.557 958.279 302.484 964.889 285.706 961.604L285.434 962.134C281.958 969.081 280.096 979.723 276.222 987.331C267.439 1004.58 252.213 1017.77 235.205 1026.66C230.898 1028.84 226.143 1032.65 221.426 1033.85C194.043 1040.78 157.359 1047.61 129.183 1045.07C114.809 1043.77 91.5941 1029.02 80.137 1021.32C73.1911 1016.65 62.6277 1014.52 59.3119 1005.96C55.9404 997.99 68.2659 991.289 73.6827 987.661C69.3033 980.972 66.3177 977.265 61.5914 970.911C65.9105 969.326 68.1741 968.676 72.6676 967.683C75.5819 969.32 82.1976 973.404 85.3526 973.786C106.14 976.284 127.003 968.419 146.963 964.855C170.605 960.64 191.217 953.226 213.081 943.365C219.981 940.422 227.906 938.17 234.604 934.908C243.079 930.779 251.864 926.17 260.245 921.904C267.168 918.38 273.905 921.18 276.605 920.051C276.615 918.836 276.715 915.671 275.99 914.707C264.405 899.286 252.041 884.332 242.009 867.805C237.206 872.595 227.212 882.889 221.198 885.205C205.478 891.25 201.98 883.99 186.114 896.896C183.197 893.446 182.004 892.043 180.012 888.005L179.369 887.845C165.122 884.321 159.395 887.07 145.495 877.831C135.018 870.867 127.257 864.805 118.948 855.052C110.955 846.503 105.563 843.161 114.318 832.074C111.819 829.799 107.915 827.489 105.022 825.676C95.0657 819.425 89.0243 811.469 88.2156 799.578C86.8377 779.326 102.935 767.618 116.685 755.961C120.543 752.687 124.061 747.566 127.794 744.024C135.6 736.136 145.739 731.112 155.889 726.886C158.868 722.421 160.703 719.518 166.325 718.291C172.868 716.86 187.507 718.788 192.553 723.082C211.592 739.279 199.082 743.174 227.753 751.05L227.547 750.337C225.381 743.049 221.381 736.114 218.726 728.894C212.487 711.921 206.489 692.325 205.99 674.138C205.553 658.232 210.371 630.383 199.514 617.523L209.949 610.559C204.709 600.699 196.983 591.802 191.354 582.129C179.101 561.071 167.391 539.651 156.684 517.766C154.453 513.205 153.2 507.773 151.276 503.039L150.988 503.619C148.498 508.744 147.696 514.802 145.658 520.158C142.764 527.819 136.923 533.382 131.644 539.244C118.529 554.031 95.9896 554.598 78.5846 548.187C72.4526 545.928 63.1222 544.224 61.3474 536.53C56.2979 514.646 62.6608 489.161 67.302 467.638C68.7957 460.712 71.2863 454.44 73.0195 447.999L72.1686 448.048C66.1169 448.424 59.5315 449.898 53.5783 450.399C27.1937 452.621 22.4081 451.806 0 439.51V406.549L0.517225 405.967C4.00642 401.96 5.99569 397.319 8.82173 392.837C16.2097 381.122 32.5454 376.752 45.5586 377.472C53.8966 377.934 89.4326 378.622 90.0839 388.086C89.3328 389.339 89.3254 389.34 88.2766 390.361C90.6913 390.916 93.9975 388.512 96.5964 387.658C116.06 381.262 131.902 379.671 149.256 391.351C156.673 376.971 164.652 357.812 159.799 341.561C153.648 320.96 124.857 319.536 108.762 327.826C100.755 341.103 103.087 354.442 104.504 369.316ZM224.296 632.665C223.952 637.433 224.411 644.727 224.697 649.654C225.019 655.221 224.467 664.899 225.099 669.918C227.16 686.303 232.149 711.174 239.866 725.54C245.992 736.547 251.01 747.56 260.482 756.246C265.774 761.093 272.609 765.433 277.16 770.6C276.749 771.941 271.681 784.476 271.668 783.855C271.944 796.989 271.594 805.675 267.805 818.25C262.591 835.542 257.776 843.378 247.934 857.664C250.401 856.541 252.895 855.338 255.44 854.425C261.817 862.016 267.155 868.9 272.784 877.021C274.914 880.089 279.298 884.481 280.84 887.64C280.572 889.665 279.441 890.765 278.181 892.448L279.027 899.217C280.672 896.537 286.883 884.03 288.013 882.878C304.574 866.008 319.093 845.066 337.994 830.837C343.15 826.959 360.898 820.434 366.887 818.695C363.875 811.212 361.808 803.405 358.905 795.843C353.909 782.834 350.307 768.85 347.152 755.271C344.23 742.695 342.81 729.082 340.872 716.295L332.561 661.962C330.793 649.717 329.373 637.039 326.844 624.965C325.874 620.34 320.545 602.17 317.251 599.695C301.577 623.403 300.405 640.718 301.947 668.885C303.138 690.637 303.661 712.069 308.267 734.055C312.932 753.388 320.887 780.273 336.799 792.962C339.978 795.495 351.06 800.434 350.752 805.042C350.144 814.15 337.346 831.806 326.937 822.322C312.378 809.051 302.905 793.464 294.639 775.904C292.336 770.954 291.015 761.783 288.852 757.518L247.19 676.048C241.306 664.545 231.217 642.765 224.296 632.665ZM180.463 865.808C192.936 868.506 200.11 870.496 212.496 865.552C214.589 864.622 218.823 863.373 220.456 862.073C237.707 848.38 248.766 823.446 254.48 802.84C260.372 781.59 227.873 765.816 211.808 758.698C210.384 765.536 209.945 773.156 207.506 779.72C203.891 789.438 197.036 797.177 190.623 805.127C185.414 811.583 180.234 817.081 172.989 821.484C165.589 825.978 157.583 831.527 148.964 833.329C146.392 833.82 138.151 834.698 135.027 835.251C134.928 835.633 134.829 836.015 134.73 836.397C136.462 842.243 146.716 850.501 151.406 854.676C158.727 861.189 170.69 865.683 180.463 865.808ZM296.178 935.432L289.445 935.307C289.311 938.221 288.527 942.276 289.681 944.358C291.169 945.099 292.098 944.688 293.76 944.341C303.53 943.137 311.925 940.816 321.429 938.466C328.392 936.744 340.904 935.689 346.694 931.662C355.431 925.577 356.706 921.916 366.919 916.977C366.509 908.964 370.765 903.198 370.941 897.632C371.662 874.745 371.347 856.432 388.501 838.468C390.089 836.802 400.564 826.736 400.954 825.681C399.772 824.951 399.837 825.259 398.064 825.465C374.702 828.995 348.312 839.42 332.29 857.111C323.043 867.32 314.388 879.137 304.57 889.26C293.959 900.198 299.483 922.258 296.178 935.432ZM124.05 524.45C133.293 512.873 135.304 509.111 137.088 493.525C137.444 490.424 137.964 484.392 138.749 481.434C133.518 475.09 129.986 470.772 126.027 463.371C123.792 459.195 121.248 452.892 118.891 449.151C109.637 451.133 101.909 451.952 92.4348 450.216C90.6474 448.352 88.9975 446.258 86.5725 445.463L85.4667 446.952C85.5425 447.148 85.6178 447.346 85.6936 447.542L86.1773 448.885C90.5174 460.966 78.5977 497.018 80.3857 512.004C82.7485 531.814 97.9549 534.952 115.222 532.039C118.586 531.472 122.024 527.082 124.05 524.45ZM66.0171 432.674C71.4123 431.678 78.7141 430.8 84.2028 430.301C82.5917 426.051 81.4368 422.494 78.8909 418.683C80.5368 411.198 81.2172 404.224 82.331 396.672C81.8759 396.412 42.36 393.556 39.7206 393.76C31.2745 394.484 27.9076 394.844 20.8038 399.319L21.0966 399.945C26.8954 412.517 9.97309 422.156 32.2848 431.651C42.981 436.202 54.9083 435.914 66.0171 432.674ZM467.435 951.692C465.325 940.234 462.604 927.345 462.021 915.785C461.353 902.542 462.901 889.665 459.482 876.445C455.967 881.07 453.625 886.066 450.258 890.566C443.821 898.83 435.062 907.031 426.629 913.213C417.636 919.543 406.013 922.321 396.191 925.982C391.578 927.699 374.25 934.765 371.621 937.748C351.808 960.207 362.242 997.916 375.893 1019.87C377.6 1022.37 378.211 1023.27 380.348 1025.47C401.612 1017.67 436.936 989.92 451.455 972.588C456.161 966.971 463.529 955.348 467.435 951.692ZM112.228 1010.57C145.431 1025.15 163.521 1024.5 199.238 1017.73C205.597 1016.52 217.213 1015.12 222.72 1012.76C239.213 1005.68 254.552 991.152 261.719 974.658C264.123 969.121 269.315 949.816 268.498 944.5L267.788 943.867L266.283 944.027C256.334 946.154 251.516 950.312 242.736 953.266C220.694 960.674 199.265 970.837 177.534 978.708C159.17 985.363 137.835 988.99 118.929 993.901C111.807 995.566 105.48 996.342 98.4391 998.743C102.071 1005.15 105.355 1007.45 112.228 1010.57ZM103.027 422.395C105.429 424.771 108.388 427.737 110.95 429.899C117.511 430.411 120.241 429.389 126.625 428.496C127.729 428.342 133.209 428.415 134.936 428.355C141.098 424.963 143.518 423.163 148.547 418.248C147.372 413.929 146.828 411.383 143.429 408.183C136.97 402.104 123.932 397.838 115.113 399.431C111.285 400.026 107.461 400.654 103.643 401.316C102.249 409.539 102.61 414.129 103.027 422.395ZM488.501 955.804C492.687 951.532 494.478 948.51 497.386 943.246C502.313 934.97 506.937 928.862 512.673 921.226C515.397 917.593 518.022 911.188 520.188 907.92C529.05 895.47 532.347 886.83 528.514 871.369C525.796 860.413 519.669 852.6 512.15 844.336C507.837 839.603 506.394 834.213 499.202 835.097C489.056 839.631 482.741 849.23 478.27 859.136C476.065 864.018 479.729 879.639 480.158 885.963C481.581 906.939 483.537 935.478 488.501 955.804ZM521.716 825.858L521.388 827.158C524.148 831.248 529.836 836.666 533.392 840.943C544.325 854.089 550.477 873.251 547.253 890.246C544.508 904.721 536.773 916.737 528.25 928.446C544.003 940.844 549.832 933.527 562.63 937.976L567.415 932.809C574.88 924.437 578.792 909.112 583.526 898.807C586.201 892.978 590.33 884.287 591.676 878.275C580.937 856.638 551.017 834.122 528.001 827.01C525.466 826.229 524.478 825.63 521.716 825.858ZM172.1 745.763C163.517 755.219 156.799 765.165 146.146 772.437C137.557 778.294 132.014 783.723 121.466 778.699C117.683 784.482 115.392 788.594 116.884 795.609C118.507 803.24 122.67 806.388 129.896 807.374C144.606 808.846 154.517 809.467 166.917 799.384C174.035 793.596 180.341 786.552 185.756 779.178C186.548 768.154 184.14 749.938 172.1 745.763ZM164.281 423.961C159.038 425.912 157.971 432.907 153.284 436.736C147.691 441.305 140.837 442.153 134.513 445.002C144.325 459.827 162.458 473.065 178.862 479.372C181.414 480.354 186.184 482.601 188.69 483.159C189.887 483.43 191.123 483.485 192.338 483.321C202.384 482.858 206.771 482.934 215.171 476.524C217.566 474.697 220.202 472.79 223.022 471.708C223.31 463.58 223.54 454.459 217.219 448.639C206.988 439.219 183.05 424.245 169.264 423.9C167.603 423.874 165.941 423.894 164.281 423.961ZM452.32 815.98C448.887 819.277 449.45 817.463 445.656 818.752C441.092 820.309 436.128 822.071 431.948 824.467C405.817 840.213 392.425 847 391.316 880.374C391.172 884.703 389.981 900.119 389.142 904.675C391.622 904.516 394.38 904.419 396.806 904.002L397.349 904.008C403.088 904.116 404.01 905.816 409.739 901.504C418.385 894.991 427.844 888.558 435.306 880.682C446.979 865.831 453.904 846.891 457.143 828.436C457.885 824.204 458.522 816.248 452.32 815.98Z" fill="black"/>
<path d="M765.172 348.395C768.469 347.263 769.94 346.544 772.278 343.926C788.738 325.498 820.003 339.06 833.399 355.888C824.423 384.386 820.761 392.023 801.462 415.8L806.931 420.126C814.379 408.774 814.254 418.971 820.339 417.913C847.686 413.165 863.849 408.024 880 434.423V466.856C875.865 471.254 875.038 472.748 869.82 476.353C857.98 484.535 838.618 485.107 824.924 482.271C825.712 483.966 826.384 485.711 826.932 487.496C832.316 504.359 827.77 521.372 815.178 532.887C806.298 542.398 794.954 550.288 782.373 553.402C766.769 557.264 750.983 562.288 753.595 539.64C754.633 530.625 755.374 515.281 752.853 507.035C749.591 510.494 747.087 514.922 743.74 519.165C732.128 533.891 715.395 551.466 695.428 551.743C692.468 551.783 690.997 546.166 689.44 544.378C688.248 543.004 687.352 543.246 686.246 541.531C686.429 540.058 686.674 539.204 686.206 537.792C683.839 536.259 680.155 537.695 678.25 536.553C670.095 531.653 669.017 515.345 672.062 507.861C682.197 483.001 703.224 468.287 726.254 456.662C724.982 454.086 723.186 451.271 721.68 448.779C703.19 448.547 688.727 437.801 679.134 422.409C673.397 413.213 669.097 399.903 671.731 389.05C674.418 377.975 682.642 373.326 692.32 369.056C693.94 368.303 697.955 364.637 700.23 363.476C705.249 360.913 713.832 361 719.056 362.815C734.586 368.208 743.928 379.357 751.376 393.102C753.236 379.142 756.481 359.688 765.172 348.395ZM720.037 433.586C722.039 428.288 723.317 426.689 727.32 422.632C731.102 419.49 739.776 417.53 741.43 414.195C741.721 405.258 716.039 379.687 705.546 380.378C702.186 380.599 698.097 380.401 694.71 380.464C683.497 392.393 692.822 415.022 703.299 424.594C708.015 428.976 713.781 432.073 720.037 433.586ZM766.575 486.3C773.545 502.643 777.942 512.645 776.835 530.356C776.299 538.944 779.088 539.153 786.502 537.438C803.344 530.091 814.294 511.264 805.91 493.622C801.958 485.31 797.72 479.02 788.955 475.428C780.639 481.274 775.866 482.516 766.575 486.3ZM806.954 456.381C814.334 460.202 822.541 463.353 830.308 466.303C841.954 469.217 862.371 471.018 866.016 455.663C867.219 450.774 866.404 445.606 863.752 441.324C860.353 435.946 851.815 430.883 845.45 432.544C834.546 433.076 823.721 434.739 813.153 437.507C812.184 444.447 810.495 450.251 806.954 456.381ZM791.333 402.634C796.26 396.291 800.994 389.871 805.18 383.012C808.71 377.224 809.731 370.793 815.047 366.471L815.702 365.951C815.138 360.487 804.878 357.7 800.406 356.101C796.899 354.847 792.998 355.081 789.325 355.536C774.725 362.38 773.145 392.277 769.883 406.558C775.198 406.592 780.97 406.663 786.188 407.723C787.968 406.092 789.839 404.512 791.333 402.634ZM743.027 486.591C741.573 484.428 740.421 482.501 739.132 480.354C737.649 477.893 735.271 470.11 733.993 469.217C718.674 478.375 701.126 493.943 695.491 511.473C693.58 517.418 695.337 520.419 699.877 523.677C699.586 526.45 698.987 528.95 700.059 531.405C701.251 532.389 701.325 532.29 702.814 532.499C712.555 530.78 716.735 526.303 723.077 518.954C731.541 509.143 739.867 499.521 743.027 486.591ZM789.856 450.932C790.483 443.275 791.253 435.626 785.943 429.309C780.502 422.838 772.404 422.16 764.556 423.366C754.074 424.773 750.435 426.866 741.744 432.971C741.806 435.66 741.516 439.632 743.557 441.334C749.597 446.363 754.456 442.482 749.078 453.11C752.734 459.791 759.287 467.814 767.533 467.426C774.48 466.223 785.801 456.495 789.856 450.932Z" fill="black"/>
</g>
<defs>
<clipPath id="clip0_2073_7833">
<rect width="880" height="1168" fill="white"/>
</clipPath>
</defs>
</svg>
