<svg width="772" height="1025" viewBox="0 0 772 1025" fill="none" xmlns="http://www.w3.org/2000/svg">
<path d="M481.081 195.736C501.339 194.532 546.924 195.865 562.88 210.162C587.133 231.894 610.895 263.632 624.422 293.353C627.012 299.047 629.062 305.309 631.873 311.071C655.5 300.702 670.802 298.73 696.68 304.026C708.526 306.449 719.657 315.104 725.493 325.572C736.914 346.059 741.514 366.366 743.56 389.046C748.01 438.364 732.439 473.066 699.465 508.91C688.244 521.106 675.672 533.402 673.712 551.414C672.637 561.635 675.022 573.321 674.492 583.307C673.392 604.064 673.662 624.681 673.462 645.463C673.377 654.764 672.202 664.655 672.317 673.811C672.587 694.733 672.232 715.26 670.402 736.127C669.662 745.483 670.682 756.109 670.387 765.645C670.297 776.311 670.057 787.177 670.372 797.818C670.982 818.19 688.629 839.572 664.461 853.264C647.774 862.72 634.578 865.765 615.891 869.295C603.285 871.676 590.008 875.286 577.052 876.676C564.065 877.986 548.944 876.896 535.747 877.101C530.312 877.186 523.466 875.656 518.201 876.001C506.184 876.046 491.851 878.336 479.897 877.651C453.691 876.151 426.727 879.166 400.762 876.846C389.299 875.821 370.487 873.516 359.517 870.57C339.726 865.255 320.418 862 300.588 857.134C286.327 853.399 260.601 845.133 252.764 831.842C246.136 820.606 251.269 799.608 254.567 787.867C256.345 780.462 254.57 766.22 265.193 765.34C262.522 760.66 250.369 749.534 246.276 744.728C242.153 740.113 238.468 734.992 234.344 730.382C210.008 703.204 190.035 672.606 169.576 642.513C162.564 632.202 158.741 623.906 150.12 614.365C146.346 616.055 142.783 618.491 138.728 620.256C135.184 621.796 130.919 622.976 127.693 624.426C111.076 631.907 95.6392 636.527 77.5488 638.523C66.7957 639.708 65.492 637.332 56.4686 634.352C51.72 632.782 47.5615 635.652 41.3432 630.012C32.5035 621.996 29.1745 610.595 28.4084 599.004C26.3413 567.726 42.7006 531.872 62.2957 508.095C69.543 499.298 75.7951 496.795 84.1295 490.642C95.2397 482.437 109.415 471.303 123.977 470.585C134.551 470.016 144.38 476.03 148.685 485.705C150.079 488.814 150.86 492.931 152.162 496.153C155.104 503.424 157.532 509.445 159.577 517.126C163.012 530.262 163.993 544.633 168.467 557.37C170.316 560.13 175.355 563.72 177.865 565.66C187.411 573.041 196.056 580.957 204.956 589.048C206.802 585.677 209.972 580.012 212.821 577.497C230.672 561.74 251.502 548.214 272.427 536.868C277.562 534.082 282.422 531.072 287.331 527.957C285.703 519.441 290.313 511.515 291.807 501.439C294.262 484.128 296.471 466.783 298.433 449.409C299.422 441.011 300.345 430.369 301.853 422.218C303.484 413.408 307.511 407.046 309.337 397.321C313.378 394.743 327.07 391.456 329.21 388.644C332.376 384.482 331.156 350.368 331.922 342.734C333.253 329.475 335.544 316.386 337.935 303.29C339.488 294.782 340.813 286.038 343.551 277.817C345.073 273.251 347.409 269.101 349.483 264.779C357.157 248.788 363.566 237.333 375.403 223.718C381.336 216.893 388.497 209.392 396.453 204.995C415.067 194.709 457.937 197.351 481.081 195.736ZM103.615 621.911C112.887 618.066 121.615 614.385 130.483 609.455C135.021 607.455 141.888 601.129 146.479 600.059C154.824 598.114 158.939 598.954 163.922 605.674C184.155 632.967 202.034 662.015 222.308 689.258C232.107 702.349 242.419 715.045 253.22 727.326C260.954 736.197 268.41 743.978 276.6 752.434C281.686 757.684 290.402 764.34 293.509 770.446C293.06 773.631 293.013 776.646 290.201 778.686C285.297 782.237 278.331 779.061 274.664 775.191C270.218 785.317 264.929 811.43 266.831 822.481C284.342 841.113 316.336 844.163 340.211 850.123C345.087 851.339 350.194 852.194 355.084 853.424C358.21 854.109 361.685 855.134 364.803 855.629C382.414 858.379 400.149 861.21 417.973 862.035C424.078 862.32 430.473 861.46 436.597 861.58C456.982 861.985 477.558 862.275 497.919 861.21C506.134 860.779 514.52 861.24 522.751 860.604C529.247 860.274 535.802 861.675 542.138 861.93C549.064 862.215 557.13 862.35 564.045 862.215C571.851 862.06 581.817 859.829 589.568 858.494C607.95 855.329 625.522 852.339 643.219 846.163C646.254 845.103 648.855 843.353 650.11 842.908C652.26 839.832 652.79 839.122 654.235 835.652C655.36 832.437 655.685 828.441 655.96 825.056C656.245 815.125 654.42 807.064 654.29 797.743C653.855 765.135 653.335 732.702 657.37 700.274C657.605 698.379 657.811 694.778 657.776 692.873C657.37 671.681 659.526 650.739 659.236 629.562C659.131 622.071 658.551 614.52 658.456 607.025C658.751 587.793 660.006 567.621 654.965 548.754C647.659 569.021 598.894 587.383 579.672 593.443C568.446 597.034 556.255 597.644 544.973 599.854C524.056 603.949 505.419 605.949 484.046 605.624C469.884 605.414 455.857 601.714 442.141 601.359C422.599 600.859 405.954 600.854 386.486 597.199C375.172 595.038 363.942 592.458 352.819 589.463C336.259 584.972 310.38 575.536 294.318 577.097C292.641 583.857 291.665 598.714 289.555 607.73C287.522 616.41 278.192 645.723 278.303 651.269C280.002 655.274 297.281 668.846 301.753 672.576C308.387 677.331 337.99 692.258 317.663 700.019C315.605 700.804 298.001 689.693 296.057 687.887C291.656 686.052 269.299 667.535 263.562 663.81C262.347 663.025 257.429 655.364 255.574 654.009C253.903 652.789 252.408 653.914 250.402 651.999L250.14 650.764C251.654 651.479 252.842 652.114 254.301 652.939C252.155 650.639 247.514 647.529 246.033 645.593C241.538 639.728 233.805 635.937 229.223 631.227C220.911 622.691 213.28 615.455 204.153 607.83L173.343 582.062C170.239 579.512 162.394 574.491 160.862 571.886C157.388 565.966 152.287 543.178 151.737 536.628C140.749 567.136 126.466 598.294 103.615 621.911ZM570.116 412.231C571.871 422.151 571.226 432.173 572.166 442.17C573.181 452.983 575.502 463.609 576.737 474.375C577.447 480.577 579.192 505.805 576.092 510.48C574.972 512.16 573.271 513.26 571.256 513.505C568.531 513.84 566.186 513.065 564.146 511.275C563.715 510.9 563.335 510.5 562.945 510.085C561.29 499.53 561.575 488.852 560.925 478.219C560.15 465.616 557.535 453.059 556.72 440.485C556.265 433.541 554.599 428.736 552.759 422.137C551.864 418.93 551.749 415.347 550.704 412.021C538.528 411.877 525.001 416.896 512.78 418.145C506.429 418.794 499.201 418.629 493.053 419.48C482.612 421.365 472.142 419.976 461.951 420.477C450.485 421.04 439.005 421.68 427.44 422.394C403.136 423.894 378.194 427.357 353.773 427.574C346.312 427.64 324.323 425.53 319.655 420.357C317.25 422.517 315.84 440.82 315.413 444.634L311.766 475.818C310.539 486.128 309.067 496.592 307.42 506.85C306.711 511.265 305.377 515.786 304.56 520.171C307.355 518.451 320.305 511.345 321.758 510.06C328.586 504.019 331.404 494.11 338.824 486.025L343.68 485.059C347.457 484.893 352.022 486.568 350.879 491.129C344.739 515.621 321.59 535.483 305.29 553.884C300.687 558.99 296.75 561.78 293.109 566.356C310.963 564.935 327.32 570.546 344.207 575.491C359.214 579.882 374.103 584.487 389.503 587.313C408.553 590.808 428.488 590.828 447.802 591.923C462.989 592.778 478.102 594.943 493.344 594.978C512.855 595.023 526.096 592.453 545.098 588.658C551.404 587.398 557.865 586.778 564.135 585.372C581.427 581.502 598.874 574.381 614.621 566.285C618.381 564.355 635.473 555.815 637.123 554.009C638.678 552.304 639.334 549.869 640.749 548.054C642.404 545.934 650.1 542.228 652.655 542.163C653.235 542.148 653.275 542.193 653.755 542.343L655.12 544.433C656.23 542.178 653.78 504.814 653.525 498.46L651.41 429.066C651.215 423.282 653.315 411.83 649.67 407.825L649.18 407.81C648.915 408.713 648.64 409.612 648.354 410.508L647.729 409.733L648.66 409.428L647.529 409.302C645.769 404.714 644.644 400.435 642.774 395.778L641.854 395.598C635.693 397.295 628.267 399.191 621.992 400.376C609.4 402.751 597.594 406.308 585.288 409.694C580.932 410.893 574.692 411.555 570.116 412.231ZM639.494 338.096C645.239 327.021 660.536 316.847 672.962 324.079C685.183 331.188 702.215 341.067 707.416 354.786C718.022 386.304 714.452 418.442 705.046 449.804C700.59 464.679 695.625 484.018 683.203 494.812C681.178 496.571 678.763 496.932 676.187 497.364C673.187 498.086 671.492 497.828 668.442 497.301C668.527 504.469 669.087 513.165 669.647 520.381C678.183 508.485 686.024 499.701 696 488.906C720.842 461.93 735.129 420.21 728.778 383.785C725.573 365.397 718.137 342.842 707.976 327.205C701.94 317.92 679.363 311.899 668.542 312.18C658.146 314.79 643.419 316.26 635.368 321.974C636.253 326.147 638.038 334.233 639.494 338.096ZM445.95 377.085C454.494 379.908 463.07 382.767 471.67 385.43C479.281 387.786 487.308 388.744 494.477 392.271C499.338 394.664 501.609 396.764 505.254 400.537C509.27 399.501 513.225 398.335 517.19 397.304C524.066 395.175 531.857 393.226 539.128 393.214C543.113 393.208 546.204 395.913 548.224 392.719C547.889 388.314 536.168 380.627 532.392 378.837C524.221 374.962 514.135 373.276 505.274 371.141C497.4 369.244 485.511 369.915 477.223 370.212C470.71 371.01 452.028 374.685 445.95 377.085ZM207.895 590.593C212.016 592.643 214.762 596.213 218.618 598.684C221.803 601.609 225.02 604.504 228.267 607.36C233.853 599.304 244.214 589.323 251.191 582.437C255.276 578.387 258.663 572.986 262.932 569.191C271.162 561.87 280.796 555.069 288.984 547.764C291.276 545.719 307.602 528.302 307.639 526.812L307.423 526.627C284.507 539.478 260.736 548.499 239.559 564.825C235.42 568.021 231.401 572.101 226.798 574.301C219.442 577.207 213.181 584.842 207.895 590.593ZM240.86 618.496C245.102 621.051 248.461 624.906 252.362 628.227L262.666 638.673C267.035 637.347 276.787 587.698 276.713 580.432L276.305 580.017C268.026 588.448 259.27 596.038 251.765 605.224C248.166 609.625 243.794 613.585 240.86 618.496ZM486.526 405.891C473.462 401.956 460.142 398.316 447.156 394.208C439.575 391.816 431.977 389.475 424.365 387.184C419.508 385.7 413.941 383.215 408.933 383.685C403.976 384.531 396.328 387.264 391.223 388.737L348.928 401.248C342.893 403.098 330.728 405.074 326.214 408.455C345.34 416.918 381.453 412.535 402.163 410.422C414.724 409.301 428.138 406.986 440.693 406.447C455.778 405.799 471.337 406.748 486.526 405.891ZM69.948 525.046C58.9703 538.458 45.5452 567.931 45.2968 585.792C48.3573 587.723 51.576 589.023 50.4649 593.108C48.4461 595.438 46.7199 595.298 43.6727 595.628C44.8054 604.554 47.455 613.07 52.3601 620.671C60.3575 621.101 63.9719 624.316 72.6663 623.136C84.3505 621.741 93.8351 610.61 100.18 601.349C120.153 572.186 142.004 537.763 135.655 500.734C134.478 493.873 132.39 490.619 126.939 486.617C115.742 487.7 107.837 493.235 99.3247 499.997C102.26 498.821 105.044 497.255 107.747 499.616C110.21 504.709 99.7147 519.446 93.7881 512.495C93.165 509.735 97.1339 503.524 98.6726 500.354C93.7301 504.309 86.1627 508.235 80.1696 512.805C75.9646 514.94 73.7304 520.571 69.948 525.046ZM81.8528 512.845C84.0025 512.87 85.9597 514.775 85.4227 516.846C84.5831 520.076 80.0756 522.226 78.0749 524.751C76.4602 526.792 75.2291 530.592 73.2368 531.972C71.2651 531.857 71.9102 532.152 70.3865 531.107C69.7375 529.312 69.6345 529.827 69.988 528.217C73.8804 523.146 76.6682 515.891 81.8528 512.845ZM569.441 380.683C568.946 383.474 567.816 386.283 566.841 388.963C567.641 392.684 568.041 394.655 568.306 398.417C577.997 396.94 583.833 395.268 593.329 392.584C599.474 390.848 604.87 389.965 611.211 387.765C616.436 387.099 621.182 386.772 626.042 384.666C619.041 384.606 612.896 385.126 605.745 384.673C595.264 384.009 579.652 380.213 569.441 380.683ZM632.453 371.68L634.348 372.185C635.558 370.448 634.303 365.854 633.233 364.367C631.848 366.193 629.823 368.508 629.247 370.617C630.038 372.425 630.613 372.074 632.453 371.68ZM666.006 331.472C655.085 336.459 648.645 340.086 642.464 350.919C644.279 358.752 647.159 373.13 650.605 380.003C655.165 381.294 657.716 381.714 660.216 386.214C664.996 394.831 665.136 403.916 666.231 413.281C667.742 426.186 666.071 437.953 666.076 450.771C666.081 464.039 669.607 480.467 667.652 493.477C671.002 493.464 673.722 493.977 676.182 491.431C693.784 471.673 704.711 419.626 703.26 392.791C702.395 376.781 702.005 355.957 688.219 345.967C683.008 342.193 672.127 333.255 666.006 331.472ZM498.439 207.803C489.333 208.252 481.58 209.848 473.208 210.377C485.369 213.45 496.526 221.353 506.329 228.937C509.63 231.496 512.52 235.476 515.79 237.968C529.892 248.715 539.013 259.8 548.284 274.981C563.28 299.554 563.645 328.79 566.926 356.55C567.461 361.087 567.471 365.61 567.631 370.068C579.837 369.989 593.894 371.862 606.18 372.668C612.741 373.607 614.571 373.417 621.167 372.827C623.612 367.783 626.957 361.485 629.432 356.398C629.893 354.408 628.842 351.256 628.252 349.513C624.652 338.847 623.577 325.476 618.976 315.159C613.311 302.457 605.81 287.932 599.034 275.787C590.408 260.327 577.297 245.765 565.576 232.7C558.39 225.042 555.465 220.955 545.568 216.306C535.317 211.488 527.332 209.175 515.92 208.951C508.21 208.488 507.384 207.154 498.439 207.803ZM459.646 357.69C480.489 353.876 494.736 352.88 515.895 357.71C523.016 359.336 528.067 359.792 535.427 362.616C541.433 364.919 545.854 368.037 551.439 370.384C551.834 359.264 550.469 351.979 549.569 341.098C546.999 309.91 540.408 285.165 519.061 261.292C514.595 256.299 510.15 253.524 505.419 249.29C501.074 245.187 497.427 240.746 492.549 237.207C479.03 227.397 464.649 222.733 448.182 220.968C441.488 220.25 438.763 218.771 431.631 219.84C423.778 220.709 409.958 223.586 404.1 228.663C400.073 232.153 392.361 238.715 389.136 242.751C371.303 264.99 359.886 291.679 356.118 319.935C355.109 327.269 355.496 338.7 353.996 345.265C350.794 359.281 349.633 368.43 348.675 382.516C359.065 381.173 369.291 374.914 379.409 372.723C390.419 370.339 401.877 368.341 413.024 366.612C417.987 365.843 424.075 366.741 429.083 365.876C439.414 362.603 449.008 359.931 459.646 357.69Z" fill="black"/>
<path d="M84.0473 528.537C86.6856 528.512 87.3452 528.197 88.9304 530.347C89.7129 534.628 82.2551 544.884 78.5207 546.644L78.0857 546.664C75.6554 546.754 74.9664 546.944 73.3927 545.484C72.5736 542.008 76.4585 536.068 78.2597 532.042C79.7239 531.002 82.4112 529.507 84.0473 528.537Z" fill="black"/>
<path d="M76.6246 580.042C78.2227 580.727 78.3662 580.877 79.3638 582.302C80.0549 588.533 72.2151 587.728 70.7704 592.553C70.4014 593.788 70.2519 594.008 69.4253 594.943C67.4296 595.874 66.5015 595.714 64.3107 595.744C52.2239 588.298 71.9726 582.677 76.6246 580.042Z" fill="black"/>
<path d="M76.4801 556.005L78.1287 556.365C81.7381 559.535 78.3318 564.605 75.8965 567.561C73.6823 570.246 72.3566 570.146 69.1188 570.316C67.6121 569.136 67.3006 568.931 66.2775 567.331C65.3894 561.925 71.9611 557.425 76.4801 556.005Z" fill="black"/>
<path d="M108.832 513.97C116.092 513.82 117.057 523.596 109.475 526.672C107.951 526.577 106.102 526.347 104.948 525.297C104.157 524.572 103.706 523.546 103.703 522.471C103.707 519.081 106.575 516.131 108.832 513.97Z" fill="black"/>
<path d="M64.0973 547.414C65.696 547.764 65.8235 547.729 66.8561 548.899C68.1388 554.8 59.5664 554.58 62.7042 564.391L60.575 565.261C60.2809 565.411 59.7449 565.441 59.4418 565.371C55.0049 564.371 57.0526 556.67 57.7692 553.214C60.2414 550.469 61.1445 549.669 64.0973 547.414Z" fill="black"/>
<path d="M94.9185 552.574C97.7533 549.499 104.132 540.523 108.316 544.059C110.238 549.029 101.512 553.64 98.3868 557.665C97.9918 557.2 97.2427 556.69 96.7322 556.3C96.3531 555.06 96.1986 554.385 96.1571 553.085L94.9185 552.574Z" fill="black"/>
<path d="M94.9184 552.574L96.1571 553.084C96.1986 554.384 96.3531 555.059 96.7321 556.3C97.2427 556.69 97.9918 557.2 98.3868 557.665C94.6834 564.43 92.0276 569.386 85.0884 562.195C88.7938 557.48 90.0984 556.21 94.9184 552.574Z" fill="black"/>
<path d="M301.753 672.576C308.386 677.332 337.99 692.258 317.662 700.019C315.605 700.804 298.001 689.693 296.057 687.888C301.297 688.858 315.112 696.994 318.287 695.543L318.449 694.798L316.738 694.183C315.886 693.228 316.198 693.823 316.264 692.118L316.855 691.693C318.001 692.218 318.206 692.443 319.464 692.373L320.164 691.343C320.446 684.702 315.684 683.987 311.209 680.767C308.404 678.752 302.614 676.007 301.753 672.576Z" fill="black"/>
<path d="M81.8528 512.845C84.0025 512.87 85.9597 514.776 85.4227 516.846C84.5831 520.076 80.0756 522.226 78.0749 524.752C76.4602 526.792 75.2291 530.592 73.2369 531.972C71.2651 531.857 71.9102 532.152 70.3865 531.107C69.7375 529.312 69.6345 529.827 69.988 528.217C73.8804 523.146 76.6682 515.891 81.8528 512.845Z" fill="black"/>
<path d="M659.351 825.566L659.971 825.101C660.741 829.112 662.196 834.447 660.556 838.052C659.921 838.572 659.521 838.948 658.816 839.368C657.271 840.523 652.06 842.263 650.11 842.908C652.26 839.833 652.79 839.123 654.235 835.652C655.36 832.437 655.685 828.441 655.961 825.056C657.586 825.701 657.686 825.811 659.351 825.566Z" fill="black"/>
<path d="M654.235 835.652C655.35 836.432 655.425 836.647 656.791 836.677L658.006 835.437L659.531 835.877C659.821 838.017 658.811 837.317 658.816 839.367C657.271 840.523 652.06 842.263 650.11 842.908C652.26 839.832 652.79 839.122 654.235 835.652Z" fill="#434243"/>
<path d="M659.351 825.566L659.971 825.101C660.741 829.111 662.196 834.447 660.556 838.052C659.921 838.572 659.521 838.947 658.816 839.367C658.811 837.317 659.821 838.017 659.531 835.877L658.006 835.437C658.311 832.702 658.361 827.806 659.351 825.566Z" fill="#A2A0A4"/>
<path d="M69.9478 525.047C73.7302 520.571 75.9644 514.941 80.1694 512.805L81.8525 512.845C76.668 515.891 73.8802 523.146 69.9878 528.217L69.9478 525.047Z" fill="#6E6D6D"/>
</svg>
