<svg width="880" height="1168" viewBox="0 0 880 1168" fill="none" xmlns="http://www.w3.org/2000/svg">
<path d="M304.997 456.018C306.382 453.138 307.475 448.989 308.939 446.243C318.732 427.87 325.906 410.202 339.703 394.205C354.672 377.006 373.979 361.464 393.499 349.761C407.949 341.098 432.306 337.428 445.942 349.346C446.93 348.872 447.258 347.973 447.515 346.865C449.686 337.469 451.421 328.338 454.947 319.288C459.61 307.323 463.653 289.93 476.864 284.712C479.488 283.675 484.333 283.58 486.943 284.884C487.573 288.385 479.664 304.339 477.843 307.858C482.963 305.523 492.2 301.284 497.729 301.12C500.855 301.119 516.528 299.777 518.236 302.538C523.385 310.862 505.853 338.144 501.143 342.918C508.906 340.578 540.818 324.611 544.272 334.38C542.917 342.739 521.861 353.772 516.172 361.948C505.937 376.66 491.045 378.576 474.205 379.577L471.689 384.298C475.116 394.2 480.4 399.194 482.248 411.004C490.181 461.69 423.522 474.363 389.109 481.075C373.074 485.282 345.453 483.861 328.505 483.157C319.605 482.788 309.349 470.839 302.284 472.713C294.756 474.71 286.292 479.789 278.885 482.526C272.29 485.307 260.667 487.987 255.43 491.405L258.93 491.793C265.806 491.737 270.933 490.469 277.477 489.929C314.713 486.856 352.385 487.516 389.446 482.556C393.594 482.001 397.931 482.617 402.37 481.995C408.344 481.998 417.639 480.396 423.864 479.609L460.829 474.855C483.415 471.911 506.115 469.928 528.869 468.912C534.226 468.66 536.753 468.901 541.931 469.323C548.934 469.893 566.589 475.229 572.245 471.453C570.626 465.932 541.092 440.961 534.696 435.649C527.793 429.917 509.864 421.273 501.348 417.126C498.589 415.247 486.421 412.112 484.992 409.622C480.363 401.558 484.724 396.046 489.699 392.307C498.867 393.624 516.726 401.995 525.853 407.048C550.685 420.798 579.682 440.019 590.661 467.421C592.554 472.142 591.67 478.818 590.803 483.671C584.125 521.083 593.82 558.708 591.585 596.165C591.214 602.353 592.126 608.934 592.115 615.139C592.326 625.525 590.284 636.435 594.579 646.215C598.548 647.635 604.782 645.012 608.922 644.413C615.721 643.432 623.694 644.453 630.572 644.989C646.666 646.244 663.388 648.605 678.53 654.525C683.047 656.287 687.261 658.762 691.704 660.696C698.377 663.593 705.403 666.057 711.825 669.473C719.387 673.499 727.041 679.299 733.896 684.438C742.017 690.523 749.762 697.11 756.235 704.952C768.497 719.791 796.483 768.759 799.072 788.189C799.945 794.77 799.979 801.569 800.452 808.196C801.365 820.971 803.292 831.772 799.1 844.274C797.92 847.792 796.831 850.826 794.544 853.809C784.295 867.2 766.644 875.806 751.245 881.886C733.383 888.946 713.918 893.457 695.217 897.649C689.383 898.955 683.645 900.666 677.788 901.898C653.51 906.997 628.958 910.909 604.531 915.232C580.298 919.521 556.098 925.144 531.68 928.275C492.71 933.271 453.444 935.484 414.276 938.136C393.85 939.516 373.648 942.59 353.131 941.267C342.428 940.571 332.822 937.274 322.37 935.632C313.153 934.178 303.834 933.373 294.62 931.891C274.707 928.685 253.548 924.077 234.088 918.848C224.109 916.161 214.322 912.688 204.496 909.5C198.464 907.544 192.235 905.953 186.273 903.82C179.456 901.385 172.814 898.596 165.933 896.286C157.928 893.6 149.813 890.902 141.701 888.558C118.448 881.834 104.815 879.143 84.9665 863.556C72.6396 853.878 63.372 842.363 61.5008 826.229C57.1629 788.822 75.8608 755.681 96.8702 726.401C100.623 721.172 104.078 715.6 108.104 710.587C113.999 703.252 120.439 696.317 126.368 688.949C149.722 659.914 162.931 652.951 198.206 642.873C204.372 641.111 211.707 637.758 218.061 637.438C219.456 637.364 220.169 638.066 221.157 638.921C221.376 640.421 220.304 641.231 219.171 642.811L219.672 643.09C222.511 642.24 226.627 642.018 229.628 641.938C225.72 618.915 222.102 595.891 217.858 572.925C215.435 559.802 206.639 506.513 214.004 496.758C216.333 493.675 219.879 491.458 223.257 489.701C231.228 485.554 240.121 481.777 248.531 478.613C252.556 477.099 256.743 475.981 260.708 474.308C265.908 472.117 270.892 469.423 276.099 467.254C280.231 465.532 284.587 464.345 288.67 462.51C292.459 460.806 296.134 458.286 300.036 456.918C301.594 456.372 303.363 456.214 304.997 456.018ZM593.136 702.517C593.273 713.096 591.767 728.723 587.416 738.475C585.14 743.585 581.752 748.182 578.484 752.699C576.255 755.778 574.047 759.12 571.413 761.869C566.789 766.683 556.028 770.84 549.555 772.294C529.603 776.766 497.89 776.059 476.767 776.224C461.63 776.344 446.453 774.924 431.344 776.948C425.384 777.633 419.367 777.678 413.414 778.385C407.792 779.053 402.231 780.353 396.572 780.689C389.496 781.106 382.291 780.513 375.197 780.49C369.141 780.473 363.061 780.963 357.009 780.701C351.486 780.467 346.046 779.304 340.54 778.876C335.946 778.522 331.324 778.921 326.738 778.517C322.305 778.134 317.848 777.256 313.396 777.165C301.819 776.925 290.033 778.91 278.488 778.517C271.192 778.266 264.146 775.739 256.748 775.711C250.964 775.694 245.509 780.684 239.933 775.671C231.669 768.245 237.61 734.671 232.266 732.344C225.616 732.749 217.879 739.308 213.669 744.127C210.102 748.216 208.291 752.853 208.761 758.328C209.233 763.842 212.733 771.353 217.061 774.861C221.254 778.26 226.631 782.651 231.297 785.326C238.3 789.335 259.066 797.16 267.107 799.35C284.053 803.97 301.028 805.772 318.324 808.23C385.278 817.4 452.921 820.537 520.435 817.606C529.672 817.212 538.151 818.82 547.549 817.537C559.407 815.929 570.466 813.043 582.089 810.477C589.366 808.869 596.9 808.293 604.086 806.411C617.825 802.806 645.793 790.562 654.422 779.315C655.785 777.541 657.074 775.648 658.243 773.743C657.947 769.979 657.645 768.371 654.616 765.821C644.773 757.54 612.498 752.83 611.055 738.515C610.919 737.175 611.232 735.891 612.105 734.842C613.93 732.646 617.266 731.922 619.975 731.848C622.542 731.774 625.205 732.287 627.623 733.125C631.929 734.614 636.041 737.426 640.273 739.296C647.464 742.479 655.449 744.822 662.327 748.587C665.31 750.223 667.945 752.174 670.346 754.592C674.412 758.692 677.589 763.671 677.44 769.665C677.212 779.013 669.787 787.875 663.302 793.921C654.474 802.145 644.721 806.057 634.17 811.378C630.771 813.089 627.475 815.444 623.916 816.773C613.171 820.777 601.976 822.659 590.815 824.974C579.477 827.324 568.417 830.17 556.94 831.898C537.49 834.829 508.54 835.816 488.715 834.995C470.74 834.253 452.688 835.896 434.688 835.502C429.556 835.394 424.423 834.761 419.293 834.516L383.679 833.17C377.34 832.873 370.896 833.603 364.585 832.993C359.742 832.525 354.962 831.367 350.129 830.774C344.916 830.135 339.633 830.096 334.448 829.234C328.798 828.293 323.236 826.702 317.565 825.921C310.576 824.963 303.43 825.162 296.445 824.17C266.416 819.921 220.642 808.344 199.53 785.355C191.498 776.612 187.617 766.095 188.266 754.187C188.763 745.056 196.44 734.563 203.091 728.654C211.155 721.491 222.048 719.387 232.316 717.681C232.864 716.432 233.733 715.098 233.543 713.752C232.629 707.273 232.98 700.138 232.645 693.551L230.218 651.97C220.915 655.945 210.658 656.858 201.003 661.876C195.763 664.597 186.987 666.444 181.423 669.501C177.384 671.161 173.762 667.996 169.477 671.075C151.009 681.729 138.412 701.285 125.054 717.436C117.282 726.841 108.482 737.528 102.328 748.187C87.9356 773.11 71.5446 803.639 82.9824 832.884C87.128 843.384 96.7721 849.492 105.639 855.64C120.841 866.168 140.541 868.267 157.607 874.232C183.102 883.135 208.988 890.868 234.518 899.543C240.104 901.088 245.766 902.166 251.37 903.677C258.919 905.719 266.746 908.468 274.409 909.979C289.46 912.951 304.696 914.798 319.887 916.726C333.134 918.409 346.396 921.87 359.699 923.285C376.939 924.956 394.248 921.397 411.503 920.661C467.429 918.283 523.965 914.536 578.844 903.141C612.287 896.195 646.136 891.946 679.408 884.059C703.093 878.441 725.974 873.126 748.736 864.234C750.669 863.476 752.734 862.917 754.621 862.022C780.616 850.148 786.268 838.565 781.033 810.665C779.881 804.517 780.154 793.225 778.626 785.748C777.554 780.376 775.814 775.157 773.459 770.207C769.735 762.234 765.908 758.185 762.081 751.136C754.433 737.043 746.814 722.329 736.799 709.611C720.129 694.07 693.814 678.535 672.855 670.459C653.105 662.851 628.165 661.386 607.633 664.488C603.801 665.07 594.579 665.657 594.225 670.077C593.763 675.895 593.324 689.268 598.89 692.462C599.335 694.202 599.278 695.24 598.349 696.859C597.111 699.009 594.915 700.817 593.136 702.517ZM261.214 634.148C263.279 635.254 264.712 635.67 265.621 637.741C265.264 643.735 249.66 643.181 246.143 641.18C245.81 639.765 245.764 639.109 245.649 637.701L244.977 637.359C243.09 643.666 247.25 674.275 247.925 682.35C249.537 701.616 250.131 719.598 249.374 739C249.111 745.746 251.934 753.691 251.444 762.006C259.713 761.624 265.705 762.023 273.92 763.186C285.341 764.801 297.807 762.149 309.332 762.342C316.321 762.451 323.536 763.323 330.574 763.586C348.412 764.333 366.264 764.681 384.118 764.624C390.452 764.635 400.496 764.384 406.671 763.688C417.86 762.428 427.564 760.495 439.036 760.369L478.251 760.004C496.556 759.981 542.405 763.147 558.827 750.982C559.341 750.6 562.473 745.621 563.466 744.532C575.696 731.124 575.502 717.79 576.648 700.658C569.001 699.751 562.152 700.863 554.595 700.669C506.496 699.397 457.615 701.855 409.539 704.467C375.594 706.315 341.472 710.735 307.359 711.704C289.517 712.212 278.905 712.064 261.432 708.642C259 706.543 258.077 705.813 255.341 704.159C255.428 701.752 255.258 699.762 256.339 697.658C264.977 691.424 288.919 694.806 299.449 694.43C315.538 693.854 331.595 692.365 347.725 692.348C360.258 691.578 374.287 688.658 386.983 688.099C406.837 687.221 426.717 686.411 446.555 685.259C463.737 684.261 479.59 687.107 496.699 683.999C507.192 682.715 517.307 682.658 527.835 683.491C544.175 684.786 561.435 682.248 577.686 682.961C577.618 677.891 577.886 664.061 576.18 660.137C571.544 658.312 556.873 659.698 551.197 659.401C530.067 658.295 508.657 659.692 487.472 659.527C481.273 659.481 474.675 661.163 468.478 661.466C453.957 661.848 439.913 662.914 425.355 663.228C418.843 663.365 408.83 664.95 401.825 665.458L313.412 672.307C305.67 672.935 297.952 673.841 290.273 675.016C284.749 675.877 279.271 677.138 274.259 677.434C270.682 677.948 250.952 674.378 256.014 667.562C262.355 659.019 283.012 659.863 291.747 657.183C302.731 653.806 310.577 656.624 320.312 655.477C388.292 647.573 456.63 643.13 525.061 642.172C541.45 642.024 559.148 643.449 575.302 643.432C575.941 637.581 577.709 620.192 574.321 615.801C573.289 615.852 573.625 615.869 572.781 616.457C571.316 617.352 569.053 617.044 567.262 617.306C563.596 617.842 558.333 620.58 554.887 620.751C535.492 621.732 515.986 622.593 496.569 622.89C490.802 622.912 485.082 624.025 479.35 624.698C475.084 625.199 470.414 624.817 466.269 625.342C439.747 628.695 413.028 630.703 386.511 634.051C371.055 636.001 355.661 637.838 340.248 639.982C335.062 640.524 329.738 640.45 324.555 640.917C310.438 642.2 295.407 647.316 281.278 643.94C269.769 641.191 274.336 634.319 282.451 631.239C302.263 623.722 324.237 624.384 345.042 622.217C353.397 621.35 361.667 619.394 369.958 618.533C399.569 615.447 429.146 611.694 458.876 609.978C463.846 609.693 468.981 608.033 473.962 607.679C483.669 607.332 493.486 607.115 503.207 606.744L549.503 604.623C556.952 604.326 568.368 604.708 575.16 603.767C574.954 600.134 575.142 586.698 573.922 585.055C572.89 584.793 572.405 584.553 571.373 584.764C566.363 588.163 493.452 589.424 482.091 590.388C437.71 594.152 392.102 600.887 347.949 606.59C330.018 608.906 272.091 619.713 261.214 634.148ZM493.959 315.274C486.951 318.651 480.846 323.708 477.62 331.124C477.372 331.695 476.497 334.359 476.641 334.865L476.941 333.783C481.275 329.458 494.564 320.166 495.622 316.184C494.734 315.36 495.13 315.555 493.959 315.274ZM417.293 354.314C416.324 354.491 410.146 355.523 409.844 355.636C394.941 361.231 381.933 371.345 370.76 382.517C368.326 384.95 363.215 387.111 360.859 389.453C341.952 408.251 326.718 438.023 317.845 462.577C323.629 466.695 327.728 469.575 335.187 469.679C345.497 469.824 355.825 469.444 366.1 469.231C389.869 469.853 425.847 458.693 447.376 449.123C469.013 439.505 470.217 420.272 460.646 401.247C453.43 386.068 443.916 387.097 443.509 368.872C439.007 361.855 426.057 352.645 417.293 354.314ZM573.7 570.449C575.006 563.728 573.876 552.542 573.625 545.191C573.363 534.913 573.181 524.634 573.089 514.354C573.066 505.724 574.743 493.437 573.7 485.911C559.612 486.655 547.668 486.387 533.779 483.604C531.823 483.212 527.827 482.344 526.105 482.713C497.625 485.65 469.559 487.136 441.35 492.173C428.496 494.467 413.568 493.841 400.392 495.472C350.098 501.697 298.976 498.935 248.59 504.057C241.922 504.735 234.813 507.456 227.8 507.919C225.369 533.566 233.377 561.037 236.998 586.355C238.972 600.163 239.504 611.871 242.411 625.884C247.936 618.344 254.78 613.73 263.333 610.354C304.133 592.218 353.3 589.395 397.242 582.939C402.108 582.226 407.56 582.551 412.586 581.958L457.965 576.649C465.258 575.731 472.819 574.014 480.082 573.603C487.987 573.466 496.157 572.622 504.028 572.503C518.322 572.292 532.033 572.269 546.349 571.579C554.267 571.202 566.112 570.231 573.7 570.449Z" fill="black"/>
<path d="M244.27 496.201C248.02 493.982 251.054 491.956 255.43 491.405L258.93 491.793C257.379 492.756 246.484 495.681 244.27 496.201Z" fill="#838684"/>
<path d="M608.21 674.423C616.548 673.647 625.08 674.851 633.298 676.277C657.496 680.474 698.491 696.506 719.142 709.109C731.432 716.609 745.365 727.468 753.549 739.393C759.395 747.902 762.492 758.789 760.467 769.055C757.359 784.796 745.97 799.156 732.83 808.024C717.807 818.165 699.078 825.482 681.615 830.232C674.309 832.217 666.838 833.574 659.544 835.588C652.232 837.607 645.138 840.726 637.746 842.409C631.37 843.857 624.749 844.188 618.401 845.791C609.002 848.169 599.963 852.03 590.598 854.568C570.934 859.894 546.522 864.166 526.212 866.356C518.542 867.183 510.727 867.457 503.029 868.01C480.462 869.635 457.909 870.77 435.269 870.2C422.56 869.875 410.009 867.993 397.285 867.953C391.293 867.936 385.263 867.89 379.286 868.346C373.776 868.774 368.159 869.744 362.643 869.795C354.329 869.863 345.968 869.054 337.663 868.723L289.996 866.915C260.077 865.609 232.062 865.113 202.464 859.221C178.436 854.442 131.496 847.068 117.395 825.522C108.305 811.635 105.386 774.085 108.764 757.848C116.574 720.299 159.82 701.958 188.857 683.177C194.601 680.2 211.404 674.509 217.695 674.777C219.293 674.845 219.806 675.039 220.844 676.191C220.897 678.518 219.349 680.531 218.209 682.476C213.615 690.306 183.762 705.203 174.477 710.512C157.537 720.202 134.916 735.452 129.622 755.305C126.126 768.416 127.16 804.084 133.814 815.416C140.362 826.565 158.73 830.649 170.531 833.734C176.859 835.394 183.54 836.928 189.988 838.023C194.11 838.724 198.29 838.924 202.421 839.688C210.369 841.16 218.083 844 226.084 845.158C244.548 847.821 262.975 848.18 281.557 848.842C287.698 849.064 293.804 849.954 299.941 850.205C310.293 850.633 320.728 850.079 331.092 850.159C337.124 850.205 343.139 850.838 349.175 850.901C359.952 851.02 370.735 850.176 381.536 850.364C406.185 850.804 430.827 853.113 455.483 853.376C469.116 853.513 482.707 852.457 496.292 851.585C509.249 850.752 522.322 850.131 535.219 848.654C562.074 845.574 587.792 837.07 613.793 830.238C646.917 821.541 685.328 815.273 715.036 797.73C725.917 791.309 738.276 781.419 741.441 768.542C743.061 761.955 741.248 755.578 737.734 749.932C735.293 746.009 725.33 735.994 721.612 733.239C720.745 732.601 719.575 732.715 718.64 732.161C716.239 730.736 712.412 725.626 707.918 723.025C685.99 710.336 654.69 698.781 630.224 692.485C619.137 689.628 607.862 687.865 596.752 685.265L595.725 676.801C600.031 675.404 603.653 674.606 608.21 674.423Z" fill="black"/>
<path d="M375.455 421.11C376.765 421.038 376.552 421.138 377.868 421.724C381.608 426.481 376.103 434.176 373.006 438.115C371.465 440.075 369.288 439.839 366.907 440.005C364.953 439.907 364.505 440.049 363.022 438.943C360.141 434.403 363.031 429.591 365.984 425.848C368.795 422.285 371.148 421.483 375.455 421.11Z" fill="black"/>
<path d="M418.506 404.548C422.039 404.245 423.778 403.702 425.578 407.149C425.959 412.411 421.211 416.494 417.729 419.812C416.632 420.856 413.991 421.139 412.485 421.361C409.215 421.539 407.926 421.716 406.087 418.945C405.374 412.986 413.526 406.672 418.506 404.548Z" fill="black"/>
<path d="M420.87 364.078C423.121 364.394 425.983 364.837 427.681 366.369C427.064 368.506 421.091 374.564 419.662 376.842C417.587 380.148 415.548 379.788 411.903 380.202C409.594 380.773 406.872 380.442 405.621 378.284C405.582 371.28 414.908 365.753 420.87 364.078Z" fill="black"/>
<path d="M390.313 440.767C401.457 439.839 394.596 454.463 390.135 457.992C388.153 459.56 389.446 459.225 386.842 459.355C376.833 459.811 381.135 449.428 384.149 444.331C386.293 443.224 388.251 442.012 390.313 440.767Z" fill="black"/>
<path d="M400.8 394.068C408.687 395.833 404.788 403.258 401.018 407.116C398 410.205 397.891 411.406 393.582 411.588C381.327 409.747 389.09 400.999 394.876 396.573C396.13 395.614 399.229 394.625 400.8 394.068Z" fill="black"/>
<path d="M444.789 407.271C455.999 408.591 448.537 417.526 444.527 422.229C442.62 424.465 441.672 424.688 438.951 425.441C436.5 425.491 435.347 425.758 433.639 424.41C432.81 422.253 432.827 421.109 433.707 418.848C435.683 413.649 439.681 409.472 444.789 407.271Z" fill="black"/>
<path d="M436.067 378.781C439.971 378.539 443.687 377.38 444.543 382.067C443.384 387.027 437.221 391.436 433.289 394.541L424.923 393.938C423.494 392.853 423.978 393.562 423.623 391.617C425.106 386.598 431.936 381.894 436.067 378.781Z" fill="black"/>
<path d="M424.719 435.162C428.111 435.841 429.575 435.933 430.811 439.152C430.645 442.011 428.075 446.456 426.728 449.391C424.275 450.61 423.824 450.869 421.772 452.669C410.281 453.653 413.662 444.82 418.562 438.752C420.464 436.396 421.929 435.983 424.719 435.162Z" fill="black"/>
<path d="M375.463 390.698C377.128 390.443 377.428 390.283 378.982 390.994C383.269 395.04 380.247 400.929 377.123 404.786C374.828 407.619 373.621 407.614 370.207 407.844L365.489 406.559C363.466 401.489 371.172 393.09 375.463 390.698Z" fill="black"/>
<path d="M339.956 449.462C341.491 449.443 341.523 449.349 342.942 450.072C345.942 453.921 342.736 459.365 340.518 462.951C338.796 465.732 338.478 465.831 335.501 466.482C326.58 463.629 330.507 458.033 333.849 451.466L339.956 449.462Z" fill="black"/>
<path d="M493.959 315.274C495.13 315.555 494.734 315.359 495.622 316.184C494.564 320.166 481.275 329.458 476.941 333.783L476.641 334.865C476.497 334.359 477.372 331.695 477.62 331.124C480.846 323.708 486.951 318.651 493.959 315.274Z" fill="black" fill-opacity="0.01"/>
<path d="M760.21 730.257C760.69 730.479 761.089 730.639 761.454 731.027C762.777 732.43 765.617 736.131 765.623 737.956C764.682 737.756 764.077 737.391 763.313 736.832C760.604 734.859 760.718 733.308 760.21 730.257Z" fill="#111112"/>
<path d="M749.528 722.746C750.19 723.071 750.629 723.265 751.125 723.829C752.226 725.078 753.515 727.519 753.526 729.19L752.676 729.441C751.085 727.519 750.389 725.061 749.528 722.746Z" fill="#111112"/>
<path d="M744.265 712.178C745.052 712.417 745.713 712.788 746.289 713.381C747.652 714.784 747.612 716.963 747.664 718.782C746.13 717.088 744.921 714.351 744.265 712.178Z" fill="#111112"/>
</svg>
