<svg width="772" height="1025" viewBox="0 0 772 1025" fill="none" xmlns="http://www.w3.org/2000/svg">
<g clip-path="url(#clip0_2091_9578)">
<path d="M422.863 31.0037C424.047 30.9292 425.234 30.8925 426.421 30.8931C434.762 30.9732 442.458 35.9415 442.029 44.9914C441.759 50.6918 439.969 56.241 435.695 60.2328C432.922 62.8219 431.166 62.5397 427.661 62.437L428.434 74.7167C435.303 82.2656 437.207 94.4742 439.757 104.138C442.737 115.432 445.839 126.338 449.754 137.354C453.121 146.827 458.758 155.036 462.03 164.493C463.748 169.547 463.073 172.698 460.661 177.221C462.449 182.669 465.323 190.466 466.066 195.826C467.297 204.702 467.231 213.862 468.338 222.851C475.833 231.95 477.461 239.665 481.056 250.693C486.383 252.588 495.529 257.165 489.639 264.432C486.258 268.604 480.022 269.231 474.964 269.658C474.86 279.671 476.385 290.999 476.552 301.018C476.83 317.561 477.464 335.895 476.594 352.377C475.328 374.511 475.356 397.075 473.415 419.143C470.212 455.57 466.938 491.985 464.167 528.452C462.42 551.436 461.848 574.376 460.555 597.377C462.422 599.217 464.343 600.42 466.459 601.915C471.237 605.291 475.68 609.044 479.999 612.979C500.585 631.741 521.08 651.068 535.142 675.401C538.128 680.572 540.698 686.482 544.119 691.336C548.63 690.263 555.213 688.739 558.295 693.453C565.814 704.951 550.83 716.793 549.211 726.168C546.583 744.745 547.319 763.473 545.752 782.236C544.451 797.809 539.165 811.553 536.695 826.477L536.588 827.143C537.916 828.684 539.143 830.304 540.263 832.003C544.958 839.285 536.993 854.875 530.988 857.872C515.136 865.769 511.276 829.841 523.426 823.491C521.071 810.543 520.38 796.736 518.043 783.681C516.828 776.896 515.083 770.416 513.358 763.75C497.239 759.426 474.663 752.421 461.674 741.781C460.643 748.148 461.116 753.256 460.73 759.437C459.936 772.16 459.785 784.245 459.747 796.973C465.007 802.245 468.01 803.419 466.184 811.502C462.488 827.855 452.265 820.528 439.897 827.843C439.815 830.541 439.699 833.781 438.95 836.265C437.103 842.384 420.871 851.251 414.957 853.622C417.196 863.263 424.227 888.116 409.413 890.622C397.877 892.569 398.346 870.443 397.755 862.975C397.783 861.84 397.75 860.841 397.709 859.712C395.524 859.131 383.295 861.163 379.917 861.507C371.328 862.388 354.347 863.122 347.325 857.81C342.35 853.345 344.567 846.036 344.154 839.99C343.589 831.693 335.715 833.302 330.568 828.65C327.657 826.02 326.416 822.656 325.584 818.931C319.245 790.55 317.334 761.627 314.544 732.761C314.325 732.925 314.109 733.094 313.896 733.264C258.668 777.567 276.105 870.064 264.959 877.989C263.505 879.039 261.682 879.451 259.918 879.118C254.398 878.085 253.087 871.532 251.392 866.683C244.287 846.199 239.176 825.077 236.13 803.611C234.594 793.033 233.763 780.548 231.659 770.156C230.796 765.895 222.667 758.173 220.077 753.669C202.139 722.483 218.673 713.124 242.666 698.567C247.492 685.855 251.583 672.303 256.61 659.546C268.708 628.845 280.109 607.108 301.293 581.855C299.369 552.565 298.556 523.214 298.855 493.86C298.891 412.221 304.829 330.405 326.943 251.398C324.893 250.787 320.4 249.481 319.398 247.838C312.38 236.337 324.192 235.943 331.077 237.092C333.306 228.558 336.558 220.256 339.346 211.888C339.799 210.127 342.468 204.379 340.428 203.172C320.984 191.67 338.425 181.273 352.144 174.769C354.596 170.048 358.221 160.333 360.532 154.833C369.362 133.814 394.103 85.5169 414.364 74.8651C413.565 63.1205 410.586 36.6528 422.863 31.0037ZM327.077 723.171C330.823 751.258 332.067 778.696 337.117 807.371C357.71 793.197 403.921 782.913 428.351 786.875C434.977 787.829 439.529 788.738 445.903 791.024C445.341 781.428 446.184 769.789 446.579 760.098C446.899 750.536 446.972 740.968 446.796 731.401C441.814 726.908 432.822 720.36 432.197 713.384C431.82 709.173 436.06 706.977 439.69 707.293C443.12 707.389 444.932 709.489 447.023 711.814C445.833 700.181 446.156 683.388 446.114 671.371L446.135 605.178C442.354 603.829 438.128 602.627 436.758 598.619C433.874 590.18 441.134 589.255 446.714 589.65C449.285 545.25 452.425 500.884 456.135 456.562C460.574 398.498 466 340.645 461.903 282.334C461.621 278.32 461.434 274.214 461.262 270.192C452.197 269.698 440.803 269.806 432.149 268.943C410.428 266.775 387.797 263.438 366.399 259.193C358.43 257.612 348.354 256.176 340.798 254.06C337.508 263.711 335.708 273.079 333.455 282.957C316.393 357.75 311.157 435.163 312.27 511.733C312.547 530.8 312.347 551.871 314.333 570.707C316.692 573.743 320.412 573.918 319.785 578.445C319.402 581.211 317.029 584.016 315.285 586.139C317.586 613.43 320.044 640.541 323.002 667.77C324.417 680.792 324.494 693.961 326.152 707.05C329.157 705.227 330.912 703.782 334.591 704.787C338.5 705.854 340.838 708.213 339.164 712.373C337.122 717.448 331.344 720.112 327.077 723.171ZM460.26 614.345C460.088 638.622 460.118 662.893 460.347 687.17C460.394 692.47 459.863 724.424 462.777 726.541C474.908 735.335 490.895 742.498 505.162 747.335C510.01 748.995 523.704 751.422 525.817 753.369C527.963 755.345 528.696 776.495 531.731 779.374C531.934 778.313 532.029 778.064 532.04 776.958C533.22 767.317 532.661 753.081 533.288 742.854C533.749 735.324 535.208 721.41 535.155 714.625C535.043 700.35 521.573 678.382 513.001 667.414C499.447 650.074 477.527 628.524 460.26 614.345ZM246.819 770.766C248.257 794.495 250.645 808.55 255.544 831.806L256.204 834.21L256.699 834.357C260.065 801.613 266.106 766.098 288.077 740.257C295.522 731.497 304.408 723.222 313.166 715.76L305.78 639.711C305.354 635.173 303.686 604.066 301.926 602.446C286.559 622.36 274.516 651.723 265.625 675.091C264.583 677.829 260.992 686.933 261.013 689.524C261.048 693.763 270.563 695.344 265.392 702.744C263.526 705.413 258.245 707.05 255.194 707.711C253.761 719.598 252.533 731.508 251.512 743.435C250.775 752.805 251.985 762.903 246.819 770.766ZM366.725 245.375C388.879 249.708 410.273 252.733 432.699 255.182C441.715 256.168 450.077 256.7 459.15 256.603C457.793 252.652 457.275 251.101 456.621 246.988C450.36 242.371 446.5 237.773 452.216 230.262C452.79 229.512 453.377 228.773 453.977 228.044C454.249 222.884 454.36 207.888 452.67 203.276L451.655 203.13C426.692 208.94 380.091 212.451 355.156 207.543C351.029 219.069 348.244 228.788 344.825 240.589C352.712 242.595 358.852 243.803 366.725 245.375ZM372.145 185.266L362.916 185.764C362.071 188.499 361.134 191.36 360.358 194.101C364.585 195.133 370.811 196.226 375.167 196.333L386.811 196.204L386.54 185.024C381.741 185.016 376.942 185.097 372.145 185.266ZM443.827 184.775C428.629 186.255 415.537 185.639 400.345 185.123L400.356 195.839C415.424 194.837 426.783 193.826 441.804 191.072L444.899 190.417L445.5 189.49C445.015 188.116 444.036 186.01 443.827 184.775ZM448.46 168.415C443.937 157.544 438.989 147.589 434.626 136.515C432.376 130.807 430.19 120.864 428.41 116.837C421.073 116.164 417.743 114.723 416.935 106.645C416.694 104.236 415.687 93.7461 414.503 92.366C399.312 106.053 385.222 134.948 376.372 153.387C373.554 159.255 371.44 166.172 368.12 171.9C375.984 171.45 394.386 170.937 402.3 171.695C416.996 172.319 435.124 174.145 448.46 168.415ZM445.619 804.842C435.542 799.717 420.381 797.476 409.11 798.774C397.233 799.762 347.492 808.189 342.979 819.76C345.836 824.468 373.168 824.214 379.154 823.836C399.946 821.792 425.974 818.507 445.635 811.457L445.619 804.842ZM239.245 716.539C226.409 726.925 222.117 731.079 232.768 747.11L237.209 753.883C237.26 749.525 239.886 717.989 239.245 716.539ZM399.068 846.736C400.862 838.178 407.414 832.788 413.799 841.678C416.724 839.652 427.639 833.251 428.63 831.151L428.336 830.349L427.696 830.31C406.254 834.227 377.643 838.506 355.974 836.265C356.025 839.646 355.951 844.828 356.332 848.045C358.342 848.626 360.634 849.343 362.636 849.823C378.263 851.279 384.868 848.141 399.068 846.736Z" fill="black"/>
<path d="M392.882 292.285C415.282 292.305 421.629 328.123 396.532 341.117C387.387 342.492 381.04 339.459 378.439 330.462C374.369 316.382 377.402 297.229 392.882 292.285ZM395.064 325.308C397.894 321.557 399.096 319.188 398.591 314.399C398.251 311.177 396.53 307.937 393.305 307.106C391.889 311.744 388.949 322.014 392.423 326C394.091 326.15 393.447 326.222 395.064 325.308Z" fill="black"/>
<path d="M370.052 574.545C371.591 574.511 373.128 574.658 374.634 574.974C391.085 578.377 391.47 609.659 377.429 618.533C369.338 619.114 365.973 613.34 363.571 606.532C359.678 595.497 356.221 579.495 370.052 574.545Z" fill="black"/>
<path d="M381.566 426.653C403.706 425.217 397.11 454.209 387.439 463.83C385.346 465.911 384.261 466.008 381.565 466.953C380.508 468.241 380.791 470.137 380.67 472.15C378.537 475.542 377.318 476.401 374.058 478.464C374.07 471.982 374.215 464.556 373.921 458.058C373.546 449.757 367.785 442.243 372.599 433.276C374.466 429.798 377.918 427.687 381.566 426.653Z" fill="black"/>
<path d="M382.273 704.329C399.558 702.805 397.648 716.533 393.801 727.856C391.867 733.546 393.653 734.567 388.056 738.259C372.714 739.275 368.662 714.998 382.273 704.329Z" fill="black"/>
<path d="M440.954 866.373C441.289 866.327 441.626 866.294 441.962 866.26C444.221 866.045 447.294 865.938 448.942 867.643C456.905 877.086 459.069 893.387 460.384 905.563C461.458 915.497 461.205 943.432 448.208 945.261C444.771 945.74 441.695 942.483 439.219 940.164C438.236 950.51 432.487 983.344 420.402 987.628C410.696 991.072 406.408 972.811 404.675 965.948C402.26 956.38 400.289 945.904 398.437 935.761C389.556 954.405 369.504 978.654 360.586 944.939C355.474 925.612 352.735 904.851 355.113 884.966C357.81 874.777 368.496 879.699 368.371 886.117C367.955 907.448 368.894 924.799 375.585 945.498C382.615 938.476 388.594 925.211 391.168 915.548C392.717 909.74 391.565 902.396 399.927 901.894C407.297 901.38 408.319 910.603 408.942 916.078C410.866 932.989 415.841 949.178 419.025 965.716C425.583 949.562 426.561 933.322 426.576 916.361C426.578 913.866 430.395 907.916 434.206 909.835C440.586 913.053 443.17 920.029 445.569 926.329C447.003 912.511 445.743 900.663 442.895 887.082C441.172 878.87 432.854 873.157 440.954 866.373Z" fill="black"/>
</g>
<defs>
<clipPath id="clip0_2091_9578">
<rect width="771.583" height="1024.1" fill="white"/>
</clipPath>
</defs>
</svg>
