<svg width="772" height="1248" viewBox="0 0 772 1248" fill="none" xmlns="http://www.w3.org/2000/svg">
<g clip-path="url(#clip0_2117_59)">
<path d="M342.389 473.603C375.186 475.9 389.344 568.803 393.764 594.262C404.805 593.695 517.51 578.777 494.192 617.126C484.439 633.165 424.78 660.02 403.415 664.59C406.49 693.889 414.003 735.089 376.038 744.857C382.476 753.017 394.341 764.113 402.222 773.467C432.888 809.853 458.969 850.297 466.73 898.121C469.626 915.97 469.746 936.999 458.728 951.996C470.531 952.203 501.727 951.015 498.624 970.643C498.058 974.22 494.021 978.583 490.835 980.435C471.88 991.453 448.676 995.115 427.142 997.157C417.53 997.937 410.394 997.87 400.733 996.291C392.482 994.938 389.302 989.265 383.995 983.622C383.067 982.635 385.837 973.342 386.39 971.203C370.249 928.175 361.586 881.449 351.416 836.915C349.796 829.816 337.208 807.659 333.418 800.438C325.865 786.995 318.459 773.632 310.328 760.524C309.578 793.497 304.303 820.542 286.005 848.652C253.634 898.383 195.2 933.94 137.996 946.737C144.11 957.017 152.138 968.821 142.026 979.509C138.138 983.616 131.974 986.176 126.326 986.036C97.7746 985.323 71.309 955.579 70.8629 927.627C70.7647 920.522 72.717 910.095 79.9271 907.091C81.9428 905.952 89.1797 904.184 90.676 902.649C115.186 877.549 140.228 852.784 168.314 831.589C186.384 817.952 205.755 803.589 229.261 803.15C232.576 797.727 239.41 777.776 242.066 770.707C253.329 740.713 262.799 710.616 269.387 679.252C273.735 658.107 277.303 636.815 280.086 615.408C284.26 584.771 288.422 484.544 328.064 482.713C333.246 477.753 335.461 474.93 342.389 473.603ZM224.719 818.183C190.707 825.898 135.307 878.773 110.012 904.203C104.501 909.742 90.6334 923.319 85.8291 929.455C89.7453 944.421 97.1516 957.2 110.786 965.244C114.854 967.639 128.212 973.854 131.155 968.089C133.564 963.373 124.444 951.685 122.066 947.822C112.904 947.188 99.6299 945.756 93.4469 938.724C85.5676 929.76 95.0872 919.955 105.2 921.759C113.465 923.227 118.083 926.676 124.102 931.947C184.911 924.665 258.76 877.317 283.365 819.993C289.702 803.375 293.081 788.525 294.081 770.567C294.92 755.485 293.22 740.915 293.582 725.948C293.778 717.813 301.239 711.591 306.41 719.928C307.557 721.622 306.422 726.686 308.38 729.592C309.808 730.165 312.347 730.915 313.247 732.194C317.538 738.3 320.756 746.222 324.561 752.755C340.751 780.567 357.538 809.079 370.123 838.731C376.636 854.075 398.88 913.142 393.729 925.848C393.029 927.578 391.597 929.175 390.154 930.32C392.981 940.838 396.506 955.299 400.201 965.213C412.672 959.15 447.4 950.07 450.164 936.664C461.661 880.87 420.292 817.58 385.1 778.257C355.008 744.632 328.111 727.484 319.681 681.689C296.414 678.642 304.083 672.232 303.983 651.55C304.777 640.831 305.166 629.966 305.827 619.253C306.871 602.344 306.249 585.173 307.788 568.309C309.041 554.576 310.853 541.019 314.171 527.664C314.953 524.522 321.677 503.425 321.122 501.563L320.064 501.268C305.167 514.761 299.52 572.474 296.78 593.574C294.796 608.997 292.722 624.408 290.558 639.807C287.522 659.014 283.852 678.118 279.553 697.082C275.136 715.881 241.944 822.772 228.694 823.936C226.447 822.741 225.662 820.56 224.719 818.183ZM322.103 580.095C324.101 575.062 333.432 548.588 336.813 547.154C338.198 546.567 340.162 546.659 341.524 547.258C343.175 547.983 344.548 549.355 345.055 551.099C345.711 553.358 345.041 556.319 344.446 558.536C342.863 564.427 340.228 570.196 338.128 575.931C334.114 586.891 330.579 598.233 328.483 609.728C325.151 627.997 325.174 647.278 329.64 665.382C337.296 664.548 345.081 663.548 352.622 661.952C363.626 659.654 376.093 656.778 386.864 653.494C385.224 639.003 382.642 624.372 380.8 609.771C374.636 610.167 346.267 613.622 342.788 608.698C332.435 594.039 370.344 596.867 377.999 596.302C374.768 574.363 362.515 502.595 345.251 490.346C344.316 489.692 343.244 489.261 342.117 489.082C337.601 495.87 339.009 500.353 336.933 508.254C335.611 513.286 329.978 520.852 328.968 525.313C325.064 542.546 323.56 562.616 322.103 580.095ZM352.246 718.191C359.691 727.776 369.882 737.374 381.669 727.782C392.705 718.8 391.222 701.701 390.236 689.026C389.749 682.774 389.496 676.156 388.571 670.038C387.471 669.612 388.019 669.612 386.93 669.764C374.136 673.792 347.703 680.702 334.326 680.769C339.022 694.352 343.28 706.643 352.246 718.191ZM482.931 968.26C474.634 966.146 467.37 965.963 458.851 966.158C439.423 966.999 423.024 969.991 405.64 978.936C414.493 983.281 419.059 981.941 428.871 980.911C450.489 977.736 462.334 976.773 482.931 968.26ZM426.292 639.886C443.785 632.421 469.141 621.172 483.165 608.857C471.021 605.205 458.624 604.606 445.996 604.784C429.765 605.087 412.553 605.71 396.411 607.709C397.081 618.071 400.314 638.095 402.16 648.692C410.124 646.053 418.623 643.244 426.292 639.886Z" fill="black"/>
<path d="M574.921 691.909C582.492 691.226 592.141 691.915 599.279 694.48C605.636 696.771 610.433 702.932 607.032 709.788C602.795 718.325 591.41 722.414 582.937 725.418C608.019 724.199 633.144 723.767 658.165 722.725C660.444 721.037 662.962 718.831 665.997 719.038C667.807 719.16 669.727 720.318 670.782 721.774C678.98 733.163 676.231 807.123 673.732 822.546C674.713 822.492 675.701 822.461 676.682 822.461C687.026 822.492 705.982 827.519 704.293 840.73C701.983 858.841 679.461 879.182 666.844 891.089C640.452 915.982 612.207 929.254 575.723 927.944C560.738 926.488 545.71 922.764 533.666 913.374C517.688 900.912 513.075 895.001 492.736 900.418C493.041 910.711 493.239 941.009 486.221 948.87L485.203 948.675C481.498 942.106 484.294 913.069 479.354 902.557L479.028 901.881C481.319 887.737 475.976 869.036 474.043 853.533C472.106 837.988 468.878 823.589 467.824 806.977C466.392 784.424 464.53 751.024 474.749 729.72C476.589 725.881 483.625 724.931 485.272 722.28C485.593 721.762 486.397 715.936 488.277 714.614C507.576 701.068 553.91 692.914 574.921 691.909ZM486.425 842.967C501.797 841.035 513.873 836.038 530.161 833.473C566.112 827.824 601.223 824.947 637.581 823.723C644.28 823.162 651.35 823.259 658.104 823.235C659.682 799.39 659.877 762.042 658.841 738.556C619.301 739.812 580.463 741.987 540.766 740.427C524.378 739.781 501.067 739.769 485.426 736.649C475.576 777.678 483.109 804.143 486.425 842.967ZM588.191 706.576C583.4 706.333 576.875 705.997 572.094 706.528C552.122 707.716 518.841 714.657 500.432 722.548C506.288 722.731 511.708 722.877 517.563 722.755C542.745 720.306 564.903 716.649 588.191 706.576ZM580.438 850.06C580.469 860.657 579.466 871.424 579.597 881.857C586.704 882.216 606.587 881.241 605.794 892.43C605.611 894.977 605.398 897.816 603.515 899.645C598.931 901.125 587.21 901.607 582.334 901.948C575.224 902.448 557.264 907.268 551.636 904.172C541.191 898.426 560.518 888.566 563.011 887.14C564.057 875.172 564.353 862.985 565.144 850.968L502.261 855.392C497.937 855.66 492.322 856.178 488.108 855.83C489.342 866.623 490.977 878.816 491.666 889.535C514.976 883.204 521.8 887.481 540.104 902.106C557.63 916.11 586.351 917.822 607.867 912.21C640.135 903.794 670.678 874.709 689.61 848.098C697.266 837.348 680.15 834.935 672.885 834.697C665.832 842.747 653.91 842.278 643.865 843.808C622.934 846.988 601.418 847.573 580.438 850.06Z" fill="black"/>
<path d="M578.781 758.94C592.037 757.837 594.195 768.94 586.497 777.898C580.663 784.692 573.172 790.152 566.049 795.576C560.728 799.372 540.802 817.221 540.273 800.262C540.104 794.844 564.29 779.61 569.48 775.893L570.179 775.107C565.032 771.907 518.873 789.287 509.489 782.736C508.424 781.999 507.626 780.908 507.459 779.598C507.281 778.202 507.937 776.886 508.83 775.856C515.38 768.318 566.433 759.72 578.781 758.94Z" fill="black"/>
<path d="M612.06 751.969C624.763 752.145 622.568 766.728 612.103 770.433C599.79 767.794 601.552 756.557 612.06 751.969Z" fill="black"/>
<path d="M451.324 301.918C466.522 300.809 494.081 307.186 485.355 328.908C478.08 347.017 450.066 360.559 432.695 367.863C434.095 375.82 434.216 383.949 433.054 391.943C427.078 434.224 392.144 463.084 348.974 456.861C323.846 452.339 311.001 435.5 310.036 410.532C308.995 383.59 318.76 360.266 337.224 340.784C352.768 324.381 373.2 311.335 395.709 307.365C401.13 306.436 407.808 306.996 413.132 306.15C426.395 304.042 437.874 302.388 451.324 301.918ZM349.066 423.862C343.001 429.23 340.994 431.179 332.981 432.801C343.038 441.037 354.646 442.625 367.348 441.373C381.805 439.986 395.092 432.827 404.202 421.516C416.186 406.87 419.027 391.24 418.22 373.063C409.321 375.515 352.175 390.82 363.072 362.289C367.126 351.676 444.418 321.728 447.39 316.363C445.67 316.139 445.72 316.162 444.003 316.5C422.796 319.059 403.826 322.31 384.019 330.78C381.008 332.067 362.563 341.944 362.028 341.934C362.419 339.874 363.133 338.638 364.025 336.76L363.618 336.291C359.496 338.508 357.727 341.672 354.423 344.68C334.309 362.98 323.845 393.052 329.606 420.13C339.578 415.325 344.805 408.124 348.485 397.669C350.065 393.18 351.307 386.812 349.007 382.427C347.234 378.917 343.149 375.696 344.674 371.454C347.299 360.707 358.723 368.255 360.808 374.625C366.124 390.87 359.618 411.503 349.066 423.862ZM422.578 345.143C424.117 347.538 425.217 349.383 426.562 351.89C434.412 352.784 467.157 331.838 470.082 323.109C469.199 322.32 469.609 322.481 468.519 322.27C453.188 330.249 437.535 337.359 422.578 345.143ZM393.181 362.397C399.968 361.161 406.795 359.768 413.305 357.424C412.559 355.294 411.864 352.743 410.547 350.99C407.168 352.944 392.461 360.311 391.762 362.277L393.181 362.397Z" fill="black"/>
</g>
<defs>
<clipPath id="clip0_2117_59">
<rect width="772" height="1248" fill="white"/>
</clipPath>
</defs>
</svg>
