<svg width="772" height="1248" viewBox="0 0 772 1248" fill="none" xmlns="http://www.w3.org/2000/svg">
<g clip-path="url(#clip0_2117_43)">
<path d="M426.832 360.413C437.961 359.642 436.017 362.615 445.798 364.077C449.849 364.422 453.88 363.472 457.925 363.243C521.162 359.66 538.08 415.456 562.749 461.387C575.39 484.924 588.161 506.99 600.571 529.887C608.684 544.976 616.955 559.982 625.373 574.903C629.828 582.696 632.047 585.602 635.57 593.873C640.141 604.596 650.229 616.261 657.366 625.694C657.44 625.774 657.696 629.326 657.732 629.765L658.403 630.027C658.909 628.711 658.988 628.278 659.945 627.199C661.968 628.863 661.792 633.537 661.773 635.907C660.67 637.467 657.507 641.562 657.196 643.458C657.129 643.86 658.494 644.305 658.555 646.072C658.189 646.108 654.91 646.315 655.008 646.212C640.147 662.007 622.526 662.622 608.739 645.078C601.93 636.846 596.451 627.297 589.886 618.918C570.116 593.692 550.75 569.101 534.435 541.44C526.531 528.039 519.253 516.347 513.177 501.711C508.806 517.84 512.446 525.341 512.862 541.143C512.896 542.434 510.04 548.153 509.692 549.837C508.89 551.936 511.953 555.01 512.18 556.433C513.705 566.004 510.887 567.595 516.008 576.582L515.602 577.339C514.012 577.325 512.906 577.334 511.324 577.463C511.613 580.028 511.957 583.44 513.87 585.183C515.09 584.148 515.14 584.122 516.573 583.403C517.306 584.736 513.811 593.364 514.003 595.817C514.314 599.81 515.937 619.546 517.693 621.605L518.962 619.57C519.655 621.886 517.709 624.232 518.12 625.676C518.641 627.504 521.51 629.369 522.083 631.928C520.735 632.854 520.211 632.349 518.16 632.001L517.733 632.525C518.386 636.736 521.468 638.68 521.991 642.19C520.903 642.239 521.288 642.123 520.315 642.604C520.6 656.535 525.079 672.695 527.984 685.925C538.656 734.523 560.981 779.616 592.141 818.324C594.348 821.066 593.549 825.24 598.59 829.597C598.81 828.391 598.682 828.488 599.212 827.428C600.218 828.976 602.686 835.721 603.497 837.812C606.166 839.341 604.838 840.731 606.886 841.888L607.367 840.328L608.074 840.334C608.989 842.388 608.781 845.033 608.531 844.576C615.407 857.007 621.203 868.414 630.931 878.853C632.845 880.913 635.527 890.815 637.502 893.758C639.495 896.72 642.311 897.092 643.226 899.249C641.842 899.657 642.256 899.243 641.604 900.175C642.909 902.777 645.054 901.82 646.505 904.496C645.92 905.056 645.286 905.434 644.585 905.83C644.31 907.902 644.938 908.487 645.804 910.614C647.724 911.369 648.077 911.497 649.662 912.795C650.302 914.776 648.541 923.008 648.09 926.025C649.107 927.993 649.552 928.578 649.845 930.814C648.425 929.992 647.998 928.487 647.096 926.817C645.432 929.126 643.591 931.485 641.866 933.77C647.419 946.14 667.027 950.741 679.364 951.941C685.075 952.496 691.628 951.289 697.321 950.698C701.654 950.247 707.232 947.213 711.389 947.755L711.84 948.547C711.553 959.266 686.429 961.527 678.267 962.008C660.542 963.056 646.633 955.421 632.297 946.189C622.66 952.27 616.748 961.588 603.716 957.298C586.491 951.631 572.838 937.597 560.858 924.745C522.43 883.533 496.809 833.765 478.827 780.725C473.341 764.9 461.738 731.336 454.026 717.417L453.668 716.778C452.768 726.966 449.046 743.176 447.056 754.047C443.547 774.144 439.503 794.15 434.928 814.034C433.337 820.713 429.155 825.63 430.505 832.778C430.668 833.637 425.043 842.748 424.405 844.88C423.337 848.457 423.662 852.034 422.699 855.611C416.703 871.76 410.126 888.835 403.229 904.55L404.236 905.751C403.754 908.17 400.755 909.681 399.492 911.997C398.302 913.856 400.82 915.391 399.619 917.372C393.93 926.768 390.273 936.256 385.897 946.201C384.85 946.158 384.624 946.171 383.585 946.305L383.529 947.042C384.707 948.078 385.697 948.828 386.953 949.772L386.445 950.217L383.971 949.693C380.362 952.051 377.827 964.068 376.158 965.463C370.737 970.009 371.492 966.914 367.298 974.848C369.615 975.421 371.928 976.018 374.237 976.633C367.563 987.785 367.5 982.916 356.641 987.773C354.316 988.815 349.007 992.873 346.094 994.677C329.382 1005.03 299.66 1012.59 280.483 1009.9C277.517 1009.26 273.371 1007.19 272.188 1004.35C267.51 993.123 280.842 984.762 285.195 976.536C304.367 940.302 322.035 906.543 336.058 867.909C349.089 829.884 358.016 792.59 366.935 753.517C369.73 741.268 373.893 729.916 377.121 717.923C378.676 712.152 379.637 702.372 380.829 696.278C381.326 691.007 379.778 685.62 379.977 680.337C380.159 672.787 381.345 664.914 381.268 657.394C380.767 608.402 381.939 559.857 384.72 510.931C385.745 492.897 385.357 473.028 385.229 454.872C380.391 460.159 371.563 473.379 367.448 479.463C356.231 495.963 345.655 512.889 335.744 530.204C328.358 543.104 321.18 556.402 313.907 569.389C306.675 582.305 298.621 592.35 290.822 604.133C281.667 617.961 286.282 618.296 272.226 630.143C272.986 638.564 272.133 637.668 264.584 641.288C258.561 653.738 259.152 658.162 255.616 671.598C254.786 674.755 256.204 676.242 254.966 679.185L253.421 678.411L252.655 678.704C251.466 681.422 252.101 684.243 251.513 687.071C250.063 694.048 231.073 742.469 227.555 744.346C226.772 744.766 225.008 744.029 224.11 743.791L223.234 744.87L223.387 745.894L225.396 746.704L225.724 747.655C221.404 756.338 212.881 767.246 206.703 775.052C205.318 776.801 202.403 778.647 200.713 780.536L201.826 781.706C199.647 787.63 161.432 826.154 155.262 831.462C156.98 835.149 158.808 838.915 159.838 842.869C161.546 849.426 159.404 853.747 163.13 859.499L162.785 860.218C161.957 860.194 161.037 860.163 160.029 860.127C156.521 862.638 154.397 866.818 151.214 869.7C149.334 871.406 148.184 872.272 145.802 872.808C145.331 872.991 139.574 874.35 139.574 874.35C130.158 886.659 121.585 906.025 105.179 910.004C99.4669 911.394 97.1367 903.009 96.4132 898.731C91.2774 906.573 83.6132 911.595 75.3859 915.738C74.4472 936.738 75.893 960.485 95.1095 973.635C106.801 981.642 120.23 979.418 133.26 976.792C133.363 976.847 133.465 976.901 133.567 976.956L134.073 977.243C142.508 981.971 139.595 988.285 141.751 996.682C143.289 1002.67 153.98 1027.93 139.787 1027.1C131.538 1026.62 130.579 993.556 126.071 987.98C124.229 987.657 123.914 988.327 121.943 989.461C120.593 987.992 121.234 988.455 119.324 987.828L118.527 988.413C118.847 990.204 118.416 989.485 119.925 990.6L118.645 991.38C116.749 994.805 119.681 997.626 120.002 1000.47C120.141 1001.71 117.967 1001.76 117.887 1002.14C116.62 1007.98 114.603 1019.91 109.445 1023.77C107.399 1024.26 108.137 1024.4 106.597 1023.48C104.158 1018.91 106.801 996.164 107.377 989.162C104.236 988.876 99.648 987.943 96.4339 987.395C97.5549 993.464 99.1951 998.729 101.53 1004.46C106.273 1016.12 102.281 1018.74 92.7774 1023.46C91.2244 1015.68 88.4565 1008.73 86.428 1001.15C84.6098 994.354 83.3511 986.737 82.1034 979.765C64.0408 964.677 62.0495 940.223 64.017 918.395C59.9107 919.773 47.5117 923.935 44.4458 918.28C42.1144 913.13 41.3592 906.238 42.6112 900.73C46.453 883.826 51.2085 867.165 54.8748 850.212C55.5087 847.281 56.3316 844.039 57.6317 841.346C59.5401 837.385 70.3799 825.856 75.0299 827.775C84.3337 831.608 91.8765 841.754 96.9118 850.036C99.4627 844.204 100.94 837.208 104.829 831.913C110.981 823.54 125.431 822.163 135.08 820.249C141.463 818.982 145.669 821.054 150.419 824.808C211.621 764.473 237.666 721.263 252.504 635.121C251.118 632.251 249.51 628.589 249.564 625.329C249.835 608.96 260.755 586.711 267.176 571.462C293.171 509.715 322.351 442.809 366.187 391.4C375.289 380.724 393.804 366.212 407.498 362.581C414.094 360.832 420.078 360.749 426.832 360.413ZM269.152 604.284C271.707 605.113 275.293 606.545 277.814 606.352L278.778 605.7C278.948 604.503 279.061 604.19 278.897 602.977L279.787 602.251C286.367 601.667 322.285 534.315 327.987 524.411C341.106 501.926 355.298 480.084 370.515 458.962C375.027 452.694 381.933 440.488 389.637 438.54C390.596 438.297 392.091 438.868 392.715 439.57C401.096 449.004 397.899 454.615 396.73 465.114C396.272 473.114 397.562 481.551 397.2 489.478C395.783 520.491 393.532 551.347 393.411 582.424C393.326 604.473 392.641 626.2 393.943 648.235C394.263 653.671 392.578 663.018 391.95 668.692L392.642 669.143C393.127 664.853 394.497 661.483 398.043 658.936C400.717 657.01 403.72 655.304 406.022 658.296C407.156 663.274 404.462 666.626 403.616 671.013C400.674 686.278 395.728 701.458 390.466 716.083C386.604 724.578 382.929 732.292 380.172 741.287C378.49 746.777 378.472 751.201 377.207 756.594C365.815 805.21 354.296 854.697 333.694 900.376C331.174 905.97 329.162 912.003 326.519 917.548C318.319 931.643 309.664 946.938 300.163 960.186C296.977 964.629 293.345 964.83 289.786 971.088C316.47 954.574 333.213 947.036 360.553 969.363C374.17 951.241 382.726 928.365 391.479 908.243C417.121 849.292 431.748 787.928 440.981 724.565C441.438 721.427 445.07 715.711 446.854 712.75C446.193 710.208 445.074 707.576 446.545 705.157C447.688 703.28 449.684 702.006 451.841 701.641C454.898 701.129 458.105 702.146 460.495 704.066C469.438 711.263 492.422 781.609 498.4 796.983C503.674 810.835 509.614 824.424 516.198 837.702C532.457 869.767 555.063 901.577 580.774 926.628C592.617 938.17 612.664 957.871 627.768 940.961C619.393 918.962 635.351 926.658 637.441 924.276C636.765 907.871 574.899 817.727 561.554 797.891C517.386 732.243 509.207 664.639 501.008 588.191C497.674 557.103 496.495 535.209 504.071 504.381C506.04 496.367 502.856 484.118 505.83 477.332C509.177 474.594 514.544 476.946 516.573 480.302C522.307 489.781 526.53 500.218 531.722 510.033C545.514 536.104 561.942 561.246 579.847 584.66C589.874 597.772 600.9 610.643 609.818 624.421C616.687 618.491 620.758 612.605 629.402 609.637C618.247 590.717 606.703 568.184 596.006 548.711C581.304 522.52 566.775 496.234 552.417 469.854C546.264 458.208 540.194 446.518 534.209 434.785C519.867 406.923 508.335 384.156 475.436 375.48C459.858 371.372 444.235 372.815 429.564 379.852C421.519 383.951 419.895 387.37 409.676 389.82C415.002 380.782 418.652 377.214 426.683 370.69C413.851 368.918 400.839 372.301 390.496 380.096C352.89 408.936 309.921 495.418 291.578 540.864C287.589 550.75 278.974 567.079 276.732 577.159L277.066 576.932C271.61 583.913 269.973 595.552 269.152 604.284ZM314.415 998.004C326.021 995.554 342.837 991.709 349.762 980.984C350.159 980.363 350.539 979.735 350.9 979.095C342.792 971.362 333.563 965.5 321.918 965.768C320.411 965.811 318.905 965.884 317.402 965.994C303.925 968.876 292.955 979.309 284.954 990.302C283.685 992.044 283.121 993.696 283.085 995.859C285.745 1004.64 307.58 999.308 314.415 998.004ZM624.55 621.057C620.826 622.769 617.077 627.023 619.576 631.093L621.569 631.428C620.356 632.678 620.344 632.702 618.857 633.604C618.607 641.52 631.114 648.302 638.581 647.693C644.902 645.182 648.736 641.52 645.255 634.622C640.093 624.396 635.613 620.545 624.55 621.057ZM69.8861 839.652C64.4888 852.26 64.0292 861.998 62.0471 875.441C61.0895 881.93 59.367 889.98 58.0736 896.525L57.7237 896.653L57.5134 892.716C56.5863 893.271 56.3358 893.338 56.1316 894.758C54.9059 903.283 58.7172 901.564 54.3969 909.279C56.167 911.327 62.0599 910.285 64.5979 909.779C68.316 895.306 71.0863 885.654 79.2076 872.668C81.703 868.67 84.8426 864.478 87.1631 860.748C82.4539 850.852 79.0266 846.032 69.8861 839.652ZM90.3418 870.029C86.2189 875.898 76.5665 898.115 77.2973 904.751L77.8977 905.288C79.2899 904.898 80.9076 904.496 82.2467 903.996C87.4106 901.235 91.6882 898.219 96.4358 895.605C95.6208 891.15 92.4141 872.564 90.3418 870.029ZM267.787 630.898C269.939 621.88 265.395 623.598 265.178 615.292C262.821 621.892 262.068 626.188 267.787 630.898ZM139.374 833.272C134.489 830.749 133.214 829.939 127.8 830.066C119.359 834.82 105.401 848.073 100.74 856.696C104.319 869.006 106.787 880.352 108.809 893.003C109.046 894.477 110.074 895.879 111.258 896.793C117.99 897.402 126.71 877.403 129.161 871.961C134.733 862.235 138.395 861.321 149.152 861.4C149.311 852.071 148.671 848.64 144.761 839.853C139.5 844.368 128.12 855.654 120.99 854.179C119.353 849.719 136.101 836.709 139.374 833.272Z" fill="black"/>
<path d="M265.178 615.292C265.396 623.598 269.94 621.879 267.788 630.898C262.069 626.188 262.822 621.892 265.178 615.292Z" fill="black" fill-opacity="0.01"/>
<path d="M278.897 602.977C278.105 600.325 277.855 598.421 278.114 595.686L278.581 596.024C279.286 598.292 279.464 599.931 279.788 602.251L278.897 602.977Z" fill="black" fill-opacity="0.835294"/>
<path d="M471.898 251.161L473.501 251.175L474.267 251.986C473.076 255.934 460.599 259.855 458.87 263.135C459.707 265.46 465.123 268.828 467.476 270.485L467.912 270.306C473.529 267.905 487.439 257.525 491.043 257.524L491.448 258.455C489.24 264.696 477.032 275.2 471.691 279.408C478.045 294.538 477.953 304.052 477.363 319.926C477.308 321.425 479.18 321.691 479.387 324.471C477.868 326.234 478.733 323.902 476.228 324.354C475.842 325.988 476.013 326.691 476.159 328.391C477.675 329.664 477.185 327.652 478.93 327.69C477.059 333.887 471.834 338.583 467.383 343.45C467.816 347.677 468.883 350.565 465.874 353.962L464.628 351.352L463.498 351.002C461.647 352.051 459.939 355.533 458.308 357.774C453.243 355.93 453.63 356.576 448.875 356.958C428.704 358.582 411.367 335.967 407.449 318.44C403.787 305.584 411.485 284.173 417.562 272.543C423.101 261.942 460.784 253.43 471.898 251.161ZM422.336 286.196C417.851 299.259 416.736 310.388 423.067 323.278C425.836 328.964 429.605 334.107 434.193 338.461C473.726 370.678 469.544 296.335 458.378 283.802L457.225 283.497C447.053 285.679 431.238 290.671 422.336 286.196ZM437.021 270.079C435.709 272.141 434.349 273.846 433.947 276.209C435.181 278.427 437.024 277.559 439.293 277.104L447.124 275.67C443.661 271.998 443.963 272.25 444.724 267.219L443.92 266.893C441.882 267.811 438.902 269.058 437.021 270.079Z" fill="black"/>
<path d="M191.005 859.261C205.49 858.39 209.443 865.818 211.3 878.774L208.202 883.752C236.014 905.885 225.756 934.227 213.993 962.002C210.189 970.978 204.557 977.017 197.556 983.47C197.51 988.278 197.559 995.713 198.631 1000.58C199.336 1001.43 199.922 1002.14 200.39 1002.7C200.247 1006.01 196.705 1006.57 193.954 1006.69C187.885 1003.04 191.675 1010.78 185.862 1010.84C183.733 1006.25 184.746 982.672 185.642 976.968C182.475 977.236 177.42 977.419 174.618 978.534C167.22 988.626 179.742 1011.63 169.356 1016.73C161.25 1018.27 160.879 1009.67 159.741 1004.02C158.336 1007.78 157.087 1012.17 153.773 1014.54L152.831 1014.13C152.018 1011.71 152.907 1008.86 153.426 1006.21C154.856 996.883 156.439 990.131 158.968 981.021C154.362 981.673 147.482 983.531 144.68 979.034C144.948 971.594 156.468 969.016 162.305 968.809C165.472 965.993 173.489 957.182 177.843 958.791C178.333 962.514 175.361 965.652 173.133 968.754C180.011 967.974 190.371 964.147 195.644 966.834C197.579 967.815 197.931 971.185 198.355 973.355C205.709 960.07 217.223 930.345 213.525 915.257C211.145 905.543 206.982 898.932 198.687 893.447C196.4 895.044 195.282 895.733 192.801 896.994L192.203 896.537L193.309 893.618C190.341 892.631 184.873 893.862 181.102 892.582C176.253 890.937 177.432 888.664 175.866 884.362C174.288 880.035 174.451 880.669 170.454 879.694L170.424 878.956C172.592 877.086 171.551 877.622 174.941 877.311L174.835 876.592C171.028 875.574 163.855 875.257 161.354 873.807C160.163 872.174 160.403 873.058 160.549 871.095C163.36 868.536 172.172 868.908 176.691 868.688C182.835 865.13 182.037 862.156 191.005 859.261ZM192.588 877.512C195.223 877.512 195.994 878 197.752 876.683C197.945 875.026 198.145 874.855 196.938 873.234C195.062 870.754 192.419 868.957 189.42 868.128C190.516 871.991 188.726 876.147 188.943 880.48L189.446 880.736C190.028 879.688 190.197 879.432 190.598 878.268L192.588 877.512Z" fill="black"/>
</g>
<defs>
<clipPath id="clip0_2117_43">
<rect width="772" height="1248" fill="white"/>
</clipPath>
</defs>
</svg>
