<svg width="880" height="1168" viewBox="0 0 880 1168" fill="none" xmlns="http://www.w3.org/2000/svg">
<g clip-path="url(#clip0_2077_7963)">
<path d="M443.319 49.6229C467.811 42.7328 500.683 46.6871 523.865 56.8791C534.962 61.758 556.137 94.0103 555.505 105.857C555.597 108.342 555.847 109.458 554.434 111.563L555.533 116.981C565.557 111.328 571.259 111.991 582.494 114.733C578.023 111.196 573.854 112.297 568.632 111.964C572.108 110.897 575.553 111.864 579.021 111.749C585.591 111.53 593.279 119.52 598.212 120.805C605.455 126.326 612.783 138.664 614.232 147.598C618.834 166.887 617.038 205.939 606.493 222.867C602.723 224.712 596.957 237.603 591.031 237.066L590.701 237.243C586.942 239.276 581.667 243.969 577.447 243.343C578.53 245.172 578.764 245.484 579.061 247.57C576.751 253.372 569.72 267.343 566.021 272.498C563.488 273.992 562.487 275.653 560.859 276.534C559.222 279.177 557.083 282.159 556.427 285.117L556.987 285.128C562.72 285.756 568.794 284.724 572.764 289.747C579.534 298.324 581.946 336.203 580.367 346.79C579.768 350.811 578.753 354.718 577.583 358.606C584.764 364.155 591.841 366.892 598.383 371.631C607.468 378.212 616.251 389.499 623.089 398.271C624.903 400.765 628.94 407.112 630.469 408.836C634.986 407.655 637.364 406.641 641.584 404.662C648.867 401.295 653.749 399.016 661.517 397.034C671.937 394.535 693.609 382.933 704.308 378.156L755.369 355.269C758.083 354.035 771.491 348.848 772.033 347.512C774.697 340.92 781.877 328.015 785.635 321.785C792.234 310.845 796.95 295.389 808.63 289.112L809.36 291.204C811.545 291.573 815.212 289.459 818.845 289.182C820.767 290.166 821.759 290.51 823.818 291.196C826.402 291.958 827.354 293.317 829.687 294.477C828.728 297.596 828.061 299.807 827.44 302.997C825.837 307.939 822.13 316.908 829.92 318.058C832.504 316.939 836.302 316.225 838.795 315.105C847.212 311.324 851.667 308.453 860.695 306.481C867.521 304.896 873.578 306.597 875.466 314.422C878.027 325.06 864.157 330.117 857.752 335.372C856.149 336.692 854.495 337.375 852.579 338.098C851.216 338.158 849.323 338.178 848.011 338.367C852.556 340.104 858.927 341.148 863.82 341.921C870.949 342.404 873.498 343.922 880 346.733V351.305V373.648C868.115 379.829 864.761 379.529 852.419 383.304C853.058 384.187 853.11 384.322 853.937 385.013C861.607 393.782 855.773 402.482 848.747 408.906C840.363 416.19 821.913 407.276 813.199 403.968C809.999 402.754 806.64 401.864 803.395 400.728C802.038 400.254 801.832 400.153 800.412 401.089C764.334 424.936 725.296 440.671 685.094 456.139C670.665 461.69 665.8 466.384 655.991 478.38C653.852 480.991 648.924 481.866 647.864 485.23C642.229 523.204 653.738 566.16 634.946 601.651C629.385 612.151 622.581 621.35 616.228 631.267C606.875 644.425 595.674 648.662 581.707 655.192C581.57 655.911 581.604 657.074 581.741 657.753C582.904 663.387 585.34 668.805 586.526 674.423C587.285 678.005 588.1 681.843 588.528 685.493C591.094 707.21 595.594 733.981 578.45 750.936C577.144 752.533 575.861 753.645 575.73 755.601C576.528 757.58 576.802 757.683 578.45 759.166C605.905 776.914 614.916 799.321 622.473 829.4C623.899 834.715 625.039 842.072 626.602 846.771C635.231 876.65 637.529 908 633.355 938.82C631.957 949.468 629.762 959.79 628.114 970.387C626.585 980.265 625.188 999.478 621.709 1008.62C609.036 1031.96 587.188 1052.19 568.976 1071.24C562.806 1077.69 556.593 1086.84 549.8 1092.29C541.195 1099.19 519.528 1108.61 508.334 1108.74C502.324 1107.87 490.213 1109.23 485.061 1107.62C481.735 1107.25 469.185 1106.38 466.737 1108.14L466.65 1108.63C449.67 1109.97 363.422 1094.41 349.046 1086.34C344.709 1084.71 339.936 1083.76 335.575 1082.16C311.065 1073.14 290.113 1057.63 266.942 1045.58C259.05 1043.46 257.217 1042.97 250.892 1037.83C251.304 1034.02 243.239 1027.62 240.346 1025.31L238.867 1025.58C233.321 1020.15 225.232 1005.14 221.481 998.315C196.509 952.867 190.667 903.329 193.305 852.212C194.699 825.208 199.381 801.42 220.323 782.246C226.569 774.29 233.11 766.574 239.933 759.109C247.754 749.847 245.525 749.408 242.532 738.458C240.863 731.905 240.792 721.394 241.159 714.459C242.605 687.112 242.948 673.602 267.399 657.023C273.112 653.145 278.62 651 283.623 646.364C279.969 641.442 274.532 636.127 270.502 631.136C251.97 607.97 242.093 573.312 240.457 543.866C239.519 526.972 239.169 501.154 240.639 484.33C240.5 477.653 242.206 465.909 245.34 460.102C247.283 452.781 259.945 442.483 266.396 438.695C265.62 438.326 264.873 438.181 264.029 437.971C256.57 435.887 249.43 431.337 242.359 427.911C234.051 423.885 223.721 420.662 216.917 414.439C208.672 403.993 202.296 402.084 191.68 394.822C184.647 391.578 164.068 380.128 159.997 374.025L160.375 373.208C156.534 365.328 155.94 351.579 151.237 345.736L150.172 346.091C139.739 322.782 148.69 315.399 117.297 314.524C106.546 313.733 88.2766 312.932 78.6776 309.917C76.1009 308.825 74.1949 308.026 71.7431 306.656C66.8509 305.04 64.7441 297.792 64.1995 293.13C60.8186 281.075 89.4549 271.471 96.8901 264.433C98.187 249.551 93.1511 231.386 96.4618 220.216C98.1448 215.472 101.715 212.679 105.878 210.21C116.456 204.787 121.166 208.497 121.138 219.984C120.866 226.486 120.324 238.652 124.158 243.838C136.119 249.52 136.307 214.406 139.788 207.965C142.941 202.541 153.216 195.104 159.518 198.906C163.426 201.264 165.062 206.22 165.989 210.415C166.095 210.891 166.196 211.369 166.29 211.848C164.894 216.748 163.823 219.288 161.824 223.906C160.819 226.59 159.306 230.524 158.866 233.299C161.194 232.966 165.461 230.391 168.393 229.221C177.587 226.175 182.069 220.094 190.608 227.642C192.571 231.023 193.448 232.66 194.896 236.264C192.251 243.771 190.621 247.48 185.044 253.126C183.996 255.019 181.454 259.644 179.965 261.169L179.092 260.332C177.872 261.594 177.957 261.593 177.361 263.292C177.712 266.757 179.684 266.178 180.402 270.902C181.513 278.72 184.043 286.269 187.869 293.177L189.706 291.965C198.293 305.219 213.435 320.862 224.379 332.918C228.277 336.669 231.605 341.029 235.591 344.675C245.077 353.35 295.403 396.168 305.524 396.485C312.606 396.707 317.829 388.797 324.431 387.425C328.842 387.523 332.968 384.156 337.536 384.04L344.675 381.617C343.096 379.355 343 378.346 340.806 377.547C340.829 368.814 339.608 357.471 340.714 348.924C342.447 335.73 349.964 326.277 345.103 312.062C340.823 299.547 335.779 285.633 331.214 273.133C327.489 262.933 319.202 269.15 311.189 263.912L310.632 263.544C305.847 255.307 296.329 228.15 294.986 218.918C292.823 204.049 289.543 162.12 298.471 149.851C301.212 144.942 302.649 143.365 307.257 140.379C313.133 135.619 314.683 134.464 321.8 131.87C323.705 130.633 335.996 129.923 336.54 129.18C345.563 116.84 352.37 104.292 363.099 92.933C364.512 93.1394 364.354 93.1411 365.609 92.0901C374.642 84.53 388.642 71.0974 399.395 66.556L398.691 64.7766C407.697 58.3253 422.113 54.4049 432.885 50.9454C436.2 50.211 439.912 49.9507 443.319 49.6229ZM265.433 462.513C265.298 464.571 265.284 466.76 264.678 468.703C264.607 476.873 263.934 485.413 263.563 493.623C263.426 496.629 263.541 507.758 263.147 509.88C260.768 551.469 266.725 587.399 292.393 620.397C294.268 622.804 302.042 629.414 302.903 630.885C313.301 638.054 319.011 642.195 330.866 647.601C338.901 651.263 365.306 653.088 367.798 661.87C367.664 664.214 367.478 664.539 366.439 666.667C364.621 668.84 363.721 669.826 360.964 670.984C359.885 671.817 357.457 673.67 356.268 673.79C339.362 675.524 317.101 665.811 301.696 661.055C286.916 665.087 276.962 668.475 267.079 682.156C266.753 682.607 266.254 683.782 266.025 684.346C265.896 685.322 265.584 688.185 265.322 688.955C263.419 691.156 263.591 691.031 263.079 693.711C260.901 705.129 258.401 724.2 265.927 733.952L266.823 732.971C267.689 733.433 269.932 734.962 270.827 734.249C276.018 730.12 309.608 716.364 305.014 733.45C304.787 734.294 296.331 745.039 294.899 746.99L294.263 747.246C289.547 749.128 284.38 748.991 280.873 750.651C264.072 758.59 252.613 776.686 240.88 788.674C238.55 792.101 230.953 799.23 227.672 802.378C224.118 806.781 223.626 808.903 222.128 814.429C220.939 819.978 220.154 824.603 219.336 830.227C215.607 851.602 214.816 873.388 216.987 894.974C217.549 900.255 217.431 907.806 218.255 912.791C220.135 924.151 223.339 940.137 226.715 951.065L224.908 950.962C229.306 966.309 231.25 970.86 238.799 985.067L240.67 983.772C246.51 994.043 254.785 1007.09 263.174 1015.52C270.932 1023.32 287.585 1034.01 297.553 1039.21C305.64 1043.43 316.229 1046.56 324.673 1050.65L326.218 1051.83C342.544 1059.26 358.459 1066.09 375.753 1070.94C382.64 1072.88 393.033 1074.05 400.348 1075.63C408.816 1077.45 417.876 1079.57 426.34 1081.05C443.142 1083.9 460.178 1085.14 477.215 1084.75C481.504 1084.64 488.934 1084.51 493.119 1083.91C499.636 1082.85 509.765 1083.17 516.877 1081.26C522.597 1079.73 532.526 1073.63 536.867 1069.75C545.723 1061.85 555.198 1051.49 563.5 1042.8C573.739 1032.08 588.864 1020.36 596.301 1008.16C602.392 998.172 603.499 977.687 605.01 965.927C606.641 953.255 610.605 939.561 611.563 927.18C614.169 893.611 607.234 859.558 599.01 827.198C594.533 809.57 586.406 794.04 572.154 782.526C567.53 778.79 560.269 774.079 556.323 770.532C545.577 760.877 541.448 756.257 528.92 748.689C530.706 742.016 534.531 736.673 540.517 733.057C549.698 727.576 553.461 734.728 559.139 741.11C561.641 738.349 564.494 735.099 566.111 731.739C571.504 720.516 568.95 671.098 554.77 668.714C555.81 667.454 556.898 666.49 556.986 664.916L556.35 664.003C546.621 666.553 535.627 669.148 526.107 671.936C524.851 673.453 523.916 674.069 523.646 675.797C524.894 676.91 524.194 676.573 525.795 676.887C525.715 676.938 525.635 676.989 525.556 677.041C524.032 677.44 523.297 678.278 521.691 677.68C516.968 675.912 514.993 669.986 516.485 665.463C518.193 660.279 523.103 657.952 527.535 655.631C534.314 652.192 542.943 651.4 550.459 650.379C552.621 649.825 553.918 649.369 555.983 648.605L557.429 649.825C561.592 649.375 589.149 634.165 590.724 629.75C590.45 630.127 597.311 623.135 597.881 622.496C603.704 615.92 608.74 608.694 612.886 600.955C624.857 578.742 623.887 562.138 624.116 537.789C624.247 523.934 625.496 510.528 624.612 496.447C624.002 486.625 625.519 481.558 622.484 471.486C614.962 471.666 607.485 468.547 611.141 459.784C615.327 449.752 628.085 449.54 636.902 445.319L637.558 444.996C645.411 442.663 653.276 440.395 661.163 438.192L663.274 437.151C669.901 433.708 692.85 426.523 700.818 424.294C713.057 420.52 729.881 413.235 741.983 408.586C743.974 407.394 747.179 406.415 749.38 405.766C755.688 401.876 769.461 394.653 776.117 391.283C785.082 386.05 799.448 375.542 808.397 374.89C817.128 374.272 816.889 375.628 823.55 375.895C826.259 373.004 832.835 367.42 833.924 364.112C835.156 358.644 826.681 357.24 824.924 352.838C822.974 347.942 829.567 343.914 827.479 339.532L825.432 339.06C831.494 338.133 833.764 334.831 839.222 333.193C840.922 332.682 841.737 331.455 842.49 329.977L841.954 329.545C835.972 333.766 820.191 336.32 819.113 338.154C820.134 339.381 820.025 339.053 821.736 339.714C816.124 340.206 809.777 337.254 805.488 333.773C804.045 338.023 798.467 352.624 797.789 356.03C790.876 371.749 762.64 376.959 748.331 384.79C743.346 387.518 737.478 389.847 732.385 392.502C717.762 398.218 703.795 405.248 689.485 411.54C673.961 418.368 657.833 424.196 641.721 429.458C639.206 430.246 636.571 433.564 633.925 434.408C622.502 437.264 621.903 436.097 612.07 442.274C607.052 446.149 604.423 447.295 601.406 440.531C596.757 430.121 611.768 421.329 605.66 414.418C597.322 404.988 585.066 388.337 572.342 386.107C568.848 383.463 570.551 384.219 569.035 381.183C568.357 379.824 560.766 378.907 558.683 378.268C557.775 379.284 556.852 380.364 555.878 381.31L556.277 382.085L554.591 383.339C555.81 382.751 556.442 382.553 557.773 382.3C559.143 383.256 558.576 382.632 559.229 384.462C561.888 383.675 562.845 379.563 565.119 381.274C569.565 384.62 571.829 395.075 573.203 399.941C573.688 405.174 574.777 410.49 575.844 415.639C578.638 429.195 579.14 444.839 578.946 458.621L579.654 455.17L580.384 454.711C581.855 457.626 579.933 473.776 582.385 479.373C584.108 491.092 582.192 520.243 579.853 532.665C579.329 535.454 574.703 542.88 573.882 546.689C572.736 552.007 573.152 557.879 571.025 562.846C569.402 565.344 568.43 567.639 566.143 569.245C565.577 568.99 565.015 568.729 564.44 568.491C562.157 570.797 553.653 571.225 552.001 570.001C551.888 568.854 551.842 567.951 551.798 566.809L551.458 567.041C550.423 565.277 550.507 565.498 548.655 565.216C546.877 566.402 546.832 566.525 545.579 568.306C543.343 568.237 539.121 569.066 538.967 571.812C540.159 572.828 540.607 572.77 542.14 573.01C538.79 574.105 521.403 572.354 519.1 570.98L515.863 571.396L513.233 573.107C511.554 572.993 510.456 572.776 508.795 572.463C505.801 572.816 505.2 572.44 502.678 571.139C499.977 571.704 499.399 577.618 492.725 573.261C491.985 574.607 492.023 574.641 491.709 576.067C491.314 566.891 492.334 567.135 492.972 559.496L493.013 558.967C492.469 557.998 492.292 557.916 492.157 556.819C489.775 556.71 489.049 558.643 486 559.221C483.742 559.626 481.542 559.985 479.304 560.642C476.813 561.373 473.363 565.003 471.508 564.222L470.498 562.894C469.763 563.74 469.814 563.799 469.413 564.865C463.291 556.978 480.648 534.391 482.724 524.01C487.841 498.425 486.614 474.416 484.993 448.548C484.341 438.139 485.748 427.187 483.975 416.825C483.363 413.178 479.175 407.825 477.156 404.436C470.813 404.2 464.779 404.736 458.453 404.803C448.944 404.903 440.262 404.467 430.79 405.582L427.43 404.428L430.386 404.11L430.607 403.684C427.371 403.026 426.248 403.145 422.97 403.264C421.994 403.117 420.816 403.239 419.8 403.283C417.652 403.233 415.2 402.98 413.221 403.63C414.585 404.405 414.496 404.393 416.036 404.644L417.188 405.47C409.34 405.488 400.798 402.154 389.252 402.761C377.892 402.019 363.606 397.16 356.397 397.266C343.465 397.455 323.323 417.155 310.63 418.892C307.877 420.583 306.52 423.232 304.348 425.641C303.781 425.62 303.215 425.582 302.65 425.528L301.99 425.464C298.502 425.149 289.608 418.568 286.893 416.094C286.607 413.894 286.548 413.761 284.694 412.409C271.8 403.012 258.632 394.049 246.03 384.252C243.445 382.242 239.693 378.946 237.034 377.455L236.131 378.153C220.699 368.312 185.014 326.52 172.935 310.285C169.798 306.068 167.596 300.528 165.767 295.561C167.302 292.838 166.725 288.951 164.049 287.12C162.133 287.851 162.874 287.232 161.863 289.164L158.622 289.421C157.412 288.052 156.814 286.926 155.273 286.389L154.828 289.099L154.115 289.292C152.732 288.157 152.453 288.118 150.732 287.443L150.231 287.25C148.752 282.992 152.713 282.438 149.035 278.77C151.154 275.079 151.953 269.056 154.128 264.904C156.36 260.644 159.262 257.724 161.918 253.553C161.745 253.494 161.572 253.435 161.399 253.377C151.344 252.631 148.005 257.749 144.614 266.137C143.157 269.742 141.837 270.698 139.1 272.332C135.982 271.364 132.297 273.657 129.383 273.538C119.755 273.147 125.123 263.33 125.053 259.337L124.338 258.661C122.183 259.001 121.834 259.835 119.978 261.428L119.109 261.213C119.274 259.855 119.297 259.883 119.066 258.543C117.13 257.801 117.929 257.839 115.916 258.132C114.989 259.766 115.274 259.241 115.379 261.416C116.418 262.92 116.136 262.451 118.34 263.127C118.003 264.419 114.11 269.928 113.008 270.708C115.294 270.491 115.915 270.798 118.132 271.501C118.98 274.13 118.791 275.703 117.816 278.299L117.246 278.834C112.544 279.383 109.489 281.365 105.668 284.118C105.347 284.793 104.912 285.632 104.657 286.316C101.429 286.921 94.4121 287.994 91.7361 289.252L91.8485 289.896C98.0906 293.338 109.843 293.253 117.301 293.18L116.503 294.035C119.667 295.215 135.069 297.89 137.828 296.378L139.859 295.276C140.676 294.825 140.848 294.775 141.759 294.552L141.05 293.489C144.133 292.862 144.078 292.461 145.747 289.936C147.66 291.722 148.914 293.262 151.387 293.96C151.912 293.785 152.818 293.518 153.285 293.299C154.295 295.607 154.851 296.975 156.251 299.125L153.605 300.065C155.152 302.188 160.097 307.965 160.928 309.81C165.102 319.079 167.875 329.174 171.183 338.762L172.604 338.636C179.233 359.324 174.814 359.625 195.673 371.491C220.76 385.764 243.825 404.537 269.53 417.896C278.509 422.649 302.572 426.435 295.969 439.778C291.066 448.181 270.019 455.782 265.433 462.513ZM377.174 148.694C375.511 150.573 371.271 154.81 370.247 156.35C363.893 165.907 360.338 179.131 357.032 190.076C356.881 188.067 356.914 186.863 357.009 184.845C354.99 186.021 351.19 199.522 351.945 201.892C352.863 201.245 353.716 200.633 354.665 200.027C352.188 215.712 351.468 218.432 352.427 234.478L352.608 235.14C354.111 240.82 354.622 248.604 355.333 254.609C357.862 275.955 363.768 304.368 385.362 314.588C386.44 314.941 387.182 315.622 388.142 316.308C388.33 315.225 388.965 311.802 389.414 310.997C403.854 285.09 415.385 256.154 434.699 233.379C436.917 230.765 443.056 230.19 446.287 230.329C456.231 230.224 462.668 234.777 471.81 238.168C476.528 239.917 486.342 243.977 488.379 248.704C489.319 256.586 489.395 259.487 483.389 265.239C478.087 271.901 420.82 315.557 412.725 318.508L413.837 319.032C418.54 317.46 429.751 318.444 435.449 317.889C443.225 316.795 451.938 316.983 459.593 315.795C472.799 313.745 486.58 312.009 499.705 309.83C526.201 297.752 545.171 277.907 556.069 250.956C556.577 249.698 557.188 248.023 557.025 246.644C556.409 241.447 540.613 235.453 538.745 221.256C537.701 213.319 537.29 204.756 537.193 196.754C537.041 184.14 539.134 161.145 534.13 149.791C529.671 139.671 514.31 130.681 504.461 126.428C499.961 124.485 495.167 123.227 490.587 121.466C491.473 121.121 491.066 121.393 491.615 120.347L490.941 119.537C480.11 117.597 460.509 116.218 449.483 116.149C440.987 116.096 427.729 115.321 420.577 118.853C420.976 120.061 420.728 119.668 421.54 120.623C416.946 122.189 410.61 123.952 406.422 125.762C395.399 130.527 385.895 140.516 377.174 148.694ZM513.492 398.421C511.424 398.874 502.641 399.981 501.935 400.271L503.683 400.721C504.194 401.808 504.479 403.569 504.87 404.235C506.69 412.798 508.264 419.314 508.23 428.125C508.714 432.676 509.064 437.134 509.276 441.705C510.707 472.572 513.066 498.41 503.515 528.427C506.131 528.53 510.615 528.834 513.048 528.574C514.81 528.2 518.63 528.327 520.621 528.313C526.481 528.275 528.95 527.826 534.637 526.323C540.582 525.454 542.703 526.638 545.858 532.023L546.359 532.783C548.764 533.645 554.127 533.177 556.283 531.957C564.947 527.054 561.655 509.55 561.783 500.964C562.102 479.622 562.483 459.108 559.839 437.907C559.089 431.66 558.194 425.432 557.155 419.227C556.1 413.199 551.003 392.531 552.352 387.98L552.614 385.397C550.646 385.346 540.38 392.03 537.119 393.19C528.736 396.172 522.215 397.328 513.492 398.421ZM518.329 372.47C518.69 370.449 518.651 366.395 518.691 364.195C510.722 364.26 485.02 365.919 478.391 368.937L478.63 369.625L481.365 370.239C474.811 371.211 455.9 370.23 447.448 370.805C442.028 370.7 425.329 370.124 421.233 371.826C411.933 371.097 405.109 368.847 395.9 367.14C389.44 362.071 390.768 356.752 394.937 350.995C397.051 351.031 399.899 351.347 401.399 349.969C398.852 348.737 396.31 349.106 393.419 349.165C399.319 345.879 406.397 350.042 412.875 350.587C416.165 352.857 424.722 354.139 428.681 353.812C431.109 353.777 434.307 354.155 435.883 352.735L435.084 351.196C441.461 352.188 447.138 351.428 453.434 351.559C469.771 351.899 485.12 349.21 501.293 347.565C512.371 344.74 519.39 345.95 532.006 341.234C532.163 341.023 535.007 339.222 535.726 338.666C541.75 334.011 550.995 327.138 553.542 319.796C554.837 316.064 552.191 312.331 550.392 309.075C546.895 310.971 541.343 315.009 537.825 317.426C538.727 315.505 538.965 315.07 540.789 313.972L540.928 312.926C538.457 313.232 535.38 316.678 533.078 317.873C524.305 322.425 514.791 325.567 505.306 328.262C502.342 329.105 496.004 328.944 493.742 330.263C494.206 330.769 494.144 330.816 494.72 331.133C489.278 331.777 460.582 335.319 456.962 334.684C446.13 336.018 433.8 340.174 424.391 339.364L424.741 336.086C417 337.478 394.854 333.919 386.379 332.366L386.131 333.069C387.536 333.565 389.236 333.994 390.25 335.001L389.638 335.616C385.133 334.827 378.919 334.546 374.025 333.897C365.689 332.177 358.558 348.51 362.067 355.95C362.2 359.516 363.576 362.054 363.285 364.034L362.217 364.426C358.835 375.598 391.178 386.084 399.81 380.086C434.84 385.261 463.418 385.589 498.246 379.69C502.481 382.916 513.521 378.772 518.845 378.606C521.36 378.528 523.363 379.348 524.409 376.8C521.856 376.448 522.525 376.907 520.871 375.402C520.097 373.308 520.217 372.79 520.207 370.494L518.329 372.47ZM318.492 159.102L317.45 158.984C311.139 170.025 314.842 192.286 314.834 204.811C314.832 208.352 319.619 228.053 321.324 230.907C321.661 231.075 322.199 231.392 322.528 231.446C322.942 232.933 323.505 235.406 324.265 236.637C325.496 238.379 327.333 241.359 329.304 241.801C328.928 239.578 327.617 238.541 326.341 236.636C326.276 234.207 326.92 232.877 327.483 230.588C331.668 213.575 330.52 194.205 339.014 178.63C341.089 174.826 342.682 171.869 344.148 167.792C344.264 164.822 346.691 163.249 348.919 161.167C345.899 162.749 342.291 164.334 340.283 167.021C318.78 173.844 331.288 155.094 321.615 155.294C319.691 156.634 319.652 156.963 318.492 159.102ZM578.496 221.756C585.209 219.314 588.362 209.361 588.739 202.807C589.668 186.484 592.628 167.351 584.855 152.319C582.785 148.319 577.829 145.715 575.65 142.485C574.823 140.636 575.359 141.262 573.129 140.288C568.851 140.284 565.671 142.931 565.096 147.186L566.739 148.008C564.661 148.991 563.172 149.977 560.935 149.824L560.266 150.174C559.386 150.626 559.085 150.711 558.106 150.979C557.939 155.638 558.337 165.036 558.431 170.103C558.648 181.776 557.103 201.604 560.324 212.262C563.217 218.188 565.181 222.64 572.046 224.663C575.188 225.588 576.654 226.563 579.003 223.52L579.026 222.112L578.496 221.756ZM434.307 74.4161C426.554 77.2767 411.794 80.7089 406.654 85.8217C401.87 87.2065 385.365 99.718 381.402 103.349L381.108 103.792C377.067 109.76 375.115 107.718 375.732 115.682C377.108 116.742 377.813 117.897 379.573 117.187C380.348 116.17 389.395 109.037 390.646 108.237C394.37 108.304 405.88 100.276 410.491 99.475C411.299 99.3347 415.383 98.0624 416.258 97.7156L416.866 97.4715L416.396 97.0523C414.246 97.1875 414.138 97.2428 412.372 96.1598C419.505 95.2125 430.53 90.1305 438.18 89.5316C444.601 88.6933 463.653 89.5413 469.327 90.9865C484.764 91.9617 518.185 98.051 527.884 110.51C525.752 101.735 524.538 97.9472 521.324 89.535C515.931 85.2828 510.462 82.9348 504.22 80.2355C504.739 76.1065 499.309 76.9648 497.671 74.1275C495.948 72.9954 495.886 72.9926 493.88 73.1186C491.964 74.0203 491.89 74.0471 490.556 75.6434C481.155 73.6182 466.973 73.3502 457.425 74.0933L457.464 72.793C452.783 70.559 437.947 74.5199 434.307 74.4161ZM435.374 268.457C433.452 271.072 432.214 272.654 430.031 275.043C431.07 277.654 431.974 278.481 433.789 280.541C439.147 276.823 457.668 260.023 462.767 259.963L462.847 259.131L461.311 259.165C460.192 258.493 459.953 258.192 458.657 258.159L458.346 259.593C453.422 257.686 452.966 256.504 446.941 255.272L445.531 253.621C441.427 253.805 435.46 263.896 434.953 267.368L435.374 268.457ZM479.171 329.897L477.646 331.003C478.84 331.899 480.773 332.008 482.317 332.364L483.461 330.994C482.476 329.799 481.16 330.089 479.171 329.897ZM196.513 843.087C196.754 841.023 197.175 839.454 196.445 837.561L195.696 836.956C195.198 839.688 194.769 840.743 196.513 843.087Z" fill="black"/>
<path d="M609.384 635.146C620.038 618.692 635.225 598.874 639.48 579.238C643.923 558.741 641.487 535.058 643.267 514.137C644.042 504.96 642.001 490.732 643.917 482.429C646.295 481.461 648.639 480.418 651.679 479.203C654.622 478.027 659.532 469.712 662.407 467.146C662.515 466.678 662.914 462.955 663.239 462.795C694.202 447.694 727.566 436.994 758.403 421.336C772.296 414.285 785.858 407.426 798.41 398.163C800.213 396.834 803.326 396.892 805.368 397.765C805.728 398.687 805.665 398.329 805.574 399.311L803.395 400.728C802.038 400.254 801.832 400.153 800.412 401.089C764.334 424.936 725.296 440.671 685.094 456.139C670.665 461.69 665.8 466.384 655.991 478.38C653.852 480.991 648.924 481.866 647.864 485.23C642.229 523.204 653.738 566.16 634.946 601.651C629.385 612.151 622.581 621.35 616.228 631.267C611.734 632.824 612.635 634.695 609.384 635.146Z" fill="#3F3F40"/>
<path d="M624.104 853.193C624.138 851.722 624.173 851.254 624.406 849.811C625.581 848.676 625.906 848.249 626.602 846.771C635.231 876.65 637.529 908 633.355 938.82C631.957 949.468 629.762 959.79 628.113 970.387C626.585 980.265 625.188 999.478 621.709 1008.62C620.34 1008.27 619.576 1007.76 618.35 1007.1C622.325 993.809 622.171 978.747 624.817 965.881C631.438 933.681 634.13 903.415 627.298 870.844C626.112 865.221 626.368 858.56 624.104 853.193Z" fill="#3F3F40"/>
<path d="M618.35 1007.1C619.576 1007.76 620.34 1008.27 621.709 1008.62C609.036 1031.96 587.187 1052.19 568.976 1071.23C562.806 1077.69 556.593 1086.84 549.8 1092.29C541.195 1099.19 519.528 1108.61 508.334 1108.74C502.324 1107.87 490.213 1109.23 485.061 1107.62C488.479 1105.86 498.277 1107.93 502.938 1107.07C517.545 1104.39 532.842 1098.93 546.1 1092.59C550.108 1090.67 559.674 1076.83 563.293 1072.84C574.144 1060.87 615.122 1020.29 618.35 1007.1Z" fill="#2A292A"/>
<path d="M563.759 286.958C561.492 286.851 557.408 286.903 555.59 285.979L556.427 285.117L556.987 285.128C562.72 285.756 568.794 284.724 572.764 289.747C579.534 298.324 581.946 336.203 580.367 346.79C579.768 350.811 578.753 354.718 577.584 358.606C584.764 364.155 591.841 366.892 598.383 371.631C607.468 378.212 616.251 389.499 623.089 398.271C624.903 400.765 628.941 407.112 630.469 408.836L630.874 409.536L630.452 409.971C627.971 409.555 621.179 399.964 619.097 397.521C612.635 389.94 604.257 379.255 595.777 373.746C589.828 369.88 581.952 366.107 575.913 362.145C572.274 358.905 574.897 355.192 575.998 351.588C580.196 337.829 576.631 327.469 574.418 314.511C572.114 301.068 577.623 296.589 563.759 286.958Z" fill="#282728"/>
<path d="M609.384 635.146C612.635 634.695 611.734 632.825 616.228 631.268C606.875 644.425 595.674 648.662 581.707 655.192C581.57 655.911 581.604 657.074 581.741 657.753C582.904 663.388 585.34 668.806 586.526 674.423C587.285 678.005 588.1 681.843 588.528 685.493C591.094 707.21 595.594 733.981 578.45 750.936L577.235 750.469C577.104 748.798 582.095 739.804 583.036 737.408C591.516 715.862 586.486 673.687 575.011 654.149C576.939 653.755 580.743 651.702 582.893 650.71C593.706 645.742 601.177 644.157 609.384 635.146Z" fill="#313131"/>
<path d="M443.319 49.6229C467.811 42.7328 500.683 46.6871 523.865 56.8791C534.962 61.758 556.137 94.0103 555.505 105.857C555.597 108.342 555.848 109.458 554.434 111.563C553.312 108.076 551.842 101.788 550.661 98.9184C545.869 87.2698 535.724 68.0822 524.788 61.4648C506.493 50.3948 482.035 48.6266 461.131 49.7286C455.987 49.9998 450.65 50.0003 445.75 50.9569L443.319 49.6229Z" fill="#2A292A"/>
<path d="M218.308 330.979L220.294 330.521C221.556 331.454 222.493 332.189 223.685 333.211L224.379 332.918C228.277 336.669 231.605 341.029 235.591 344.675C245.077 353.35 295.403 396.168 305.524 396.485C312.606 396.707 317.829 388.797 324.431 387.425C328.842 387.523 332.968 384.156 337.536 384.04C323.316 390.393 319.365 392.287 306.449 401.092C279.364 387.71 238.791 352.941 218.308 330.979Z" fill="#282728"/>
<path d="M578.45 759.166C605.905 776.914 614.916 799.321 622.473 829.4C621.384 832.588 623.893 835.924 623.083 838.576C620.454 837.145 620.443 831.732 618.817 830.774L618.481 831.333C617.979 830.358 616.781 823.115 616.04 820.834C613.109 811.806 611.152 804.58 606.687 795.791C601.349 785.292 590.695 768.815 580.144 762.827C579.46 762.434 579.209 762.953 577.555 761.687C577.486 759.85 577.236 760.671 578.45 759.166Z" fill="#3F3F40"/>
<path d="M611.643 156.67L611.899 155.081C613.166 155.339 612.732 158.959 614.124 160.903L614.717 160.285C615.07 154.704 613.924 153.169 613.588 147.986L614.232 147.598C618.835 166.886 617.038 205.939 606.493 222.867C602.723 224.712 596.957 237.603 591.031 237.066C612.042 220.408 614.112 181.247 611.643 156.67Z" fill="#3F3F40"/>
<path d="M582.494 114.733C578.023 111.196 573.854 112.297 568.632 111.964C572.108 110.897 575.553 111.864 579.021 111.749C585.591 111.53 593.279 119.52 598.212 120.805C605.455 126.326 612.783 138.664 614.232 147.598L613.588 147.986C613.924 153.169 615.07 154.704 614.717 160.285L614.124 160.903C612.732 158.959 613.166 155.339 611.899 155.081L611.643 156.67C610.371 146.942 608.905 140.807 603.698 132.049C600.02 125.858 592.788 117.413 585.471 115.667C584.507 115.436 584.296 115.419 583.292 115.038L582.494 114.733Z" fill="#282728"/>
<path d="M187.869 293.177L189.706 291.965C198.293 305.219 213.435 320.862 224.379 332.918L223.685 333.211C222.493 332.189 221.556 331.454 220.294 330.521L218.308 330.978C208.862 318.113 195.189 308.552 187.869 293.177Z" fill="#2A292A"/>
<path d="M860.695 306.481C867.521 304.896 873.578 306.597 875.466 314.422C878.027 325.061 864.157 330.117 857.752 335.372C856.149 336.692 854.495 337.375 852.579 338.098C854.41 326.903 889.119 320.44 865.628 307.829C863.643 306.765 862.212 308.015 860.318 308.985L859.719 308.559L860.695 306.481Z" fill="#2A292A"/>
<path d="M139.788 207.965C142.941 202.541 153.216 195.105 159.518 198.906C163.426 201.264 165.062 206.22 165.989 210.415C166.095 210.891 166.196 211.369 166.29 211.848C164.894 216.748 163.823 219.288 161.824 223.906C159.967 214.47 167.688 210.838 157.157 200.945C147.946 203.834 148.136 203.216 140.67 209.346L139.788 207.965Z" fill="#2A292A"/>
<path d="M78.6775 309.918L79.1822 308.321C81.6614 307.553 81.1624 308.561 83.544 309.064C90.3987 310.511 116.731 309.486 121.745 313.954L117.297 314.524C106.546 313.734 88.2765 312.932 78.6775 309.918Z" fill="#191819"/>
<path d="M398.691 64.7768C407.697 58.3254 422.113 54.405 432.885 50.9456L435.45 53.0111C424.427 56.7308 409.588 60.52 399.395 66.5561L398.691 64.7768Z" fill="#191819"/>
<path d="M577.447 243.343C578.53 245.172 578.764 245.484 579.061 247.57C576.751 253.372 569.72 267.343 566.021 272.498C563.488 273.992 562.487 275.653 560.859 276.534C565.298 269.954 569.091 262.598 572.103 255.252C573.506 251.819 575 245.731 577.447 243.343Z" fill="#3F3F40"/>
<path d="M854.227 392.078C853.258 389.861 851.878 387.575 852.38 385.412L853.937 385.013C861.607 393.783 855.773 402.482 848.747 408.906L847.834 408.278C845.912 408.152 845.633 408.695 843.734 409.695L842.901 409.251C850.144 402.246 852.939 404.013 854.227 392.078Z" fill="#3F3F40"/>
<path d="M190.607 227.643C192.571 231.023 193.448 232.66 194.896 236.264C192.251 243.772 190.621 247.48 185.043 253.126C184.408 246.182 195.35 244.098 187.252 228.792L190.607 227.643Z" fill="#282728"/>
<path d="M266.397 438.695L268.227 438.783L268.347 439.73C265.235 442.735 262.748 442.572 259.638 446.352C252.531 454.991 247.864 455.413 244.956 466.68C244.608 464.448 245.044 462.363 245.34 460.103C247.283 452.781 259.945 442.483 266.397 438.695Z" fill="#191819"/>
<path d="M242.531 738.458L243.274 737.34C247.157 742.752 245.433 745.444 251.646 750.902C247.512 754.848 242.83 759.559 238.63 763.318C239.029 761.869 239.466 760.534 239.933 759.109C247.754 749.847 245.524 749.408 242.531 738.458Z" fill="#191819"/>
<path d="M622.473 829.4C623.899 834.715 625.04 842.072 626.602 846.771C625.906 848.248 625.581 848.676 624.407 849.811C624.173 851.254 624.139 851.722 624.104 853.193C620.694 845.306 619.804 839.734 618.481 831.333L618.817 830.774C620.443 831.732 620.454 837.144 623.083 838.576C623.893 835.924 621.384 832.588 622.473 829.4Z" fill="#636263"/>
<path d="M191.68 394.822L192.559 393.977C196.99 395.518 216.766 407.423 219.062 412.099C218.512 413.308 217.946 413.613 216.917 414.439C208.672 403.993 202.296 402.084 191.68 394.822Z" fill="#191819"/>
<path d="M863.82 341.921C870.949 342.404 873.498 343.922 880 346.733V351.305C876.983 350.583 871.89 347.864 869.563 345.717C866.911 345.331 863.814 344.662 861.14 344.153C861.18 342.408 862.446 342.407 863.82 341.921Z" fill="#3F3F40"/>
<path d="M168.393 229.221C177.587 226.174 182.069 220.094 190.608 227.642L187.252 228.792C183.641 225.765 173.163 229.314 168.98 231.066L168.393 229.221Z" fill="#282728"/>
<path d="M158.866 233.299C161.194 232.966 165.461 230.391 168.393 229.221L168.98 231.066C164.468 234.855 157.987 239.731 152.675 242.121C154.653 237.26 154.707 236.473 158.866 233.299Z" fill="#191819"/>
<path d="M105.878 210.21C116.456 204.787 121.166 208.497 121.138 219.984L118.957 218.921C115.938 215.484 118.625 212.62 114.301 210.328C112.942 210.5 113.013 210.531 111.801 211.207C108.442 211.17 108.45 211.665 105.878 210.21Z" fill="#242424"/>
<path d="M823.499 303.518C825.347 302.901 825.586 302.704 827.44 302.997C825.837 307.939 822.13 316.908 829.92 318.058L829.755 318.293C828.318 319.017 828.318 319.123 826.653 319.149C822.215 317.047 821.668 313.08 821.411 308.72C822.295 307.068 822.86 305.287 823.499 303.518Z" fill="#3F3F40"/>
<path d="M220.323 782.246C226.569 774.29 233.11 766.574 239.932 759.109C239.466 760.534 239.029 761.869 238.63 763.318C236.033 766.933 224.775 780.193 221.439 782.161L220.323 782.246Z" fill="#191819"/>
<path d="M848.011 338.367C852.556 340.104 858.927 341.148 863.82 341.921C862.446 342.406 861.18 342.408 861.14 344.153C856.058 343.901 851.901 343.017 846.853 342.65L846.773 339.637L848.011 338.367Z" fill="#282728"/>
<path d="M64.1995 293.13C69.9905 295.232 67.2986 303.291 74.3243 306.059C75.372 306.467 76.4271 306.857 77.4879 307.229L77.1594 307.611C74.9249 307.373 73.5185 306.885 71.7431 306.657C66.8509 305.04 64.7441 297.792 64.1995 293.13Z" fill="#191819"/>
<path d="M105.878 210.21C108.451 211.665 108.443 211.17 111.801 211.207C105.284 213.989 102.025 215.668 97.221 221.019L96.4619 220.216C98.1449 215.472 101.715 212.679 105.878 210.21Z" fill="#282728"/>
<path d="M823.818 291.197C826.401 291.958 827.354 293.317 829.686 294.477C828.728 297.597 828.061 299.807 827.439 302.997C825.586 302.704 825.346 302.901 823.499 303.518C824.548 298.473 826.812 295.448 823.818 291.197Z" fill="#636263"/>
<path d="M432.885 50.9455C436.2 50.2112 439.912 49.9508 443.319 49.623L445.75 50.9571C443.848 51.3276 436.464 52.3636 435.45 53.0111L432.885 50.9455Z" fill="#191819"/>
<path d="M420.873 463.3C416.481 461.744 410.331 459.772 407.733 455.706C400.448 444.304 412.536 429.717 421.25 423.379C427.324 418.962 437.303 418.126 444.106 419.422C455.314 421.881 460.994 425.705 462.311 437.715C462.57 442.156 460.38 449.578 456.831 452.409C448.053 462.053 433.611 467.757 420.873 463.3Z" fill="black"/>
<path d="M444.106 419.422C455.314 421.881 460.994 425.705 462.311 437.715C462.57 442.156 460.38 449.578 456.83 452.41C454.732 453.293 454.979 453.562 453.025 453.343C459.777 443.131 462.966 434.226 452.425 424.959C449.689 423.766 445.449 422.164 443.314 420.337L444.106 419.422Z" fill="#2A292A"/>
<path d="M444.106 419.422C455.314 421.881 460.994 425.705 462.311 437.715C459.779 434.719 458.748 423.861 452.425 424.959C449.689 423.766 445.449 422.164 443.314 420.337L444.106 419.422Z" fill="#282728"/>
<path d="M453.025 453.342C454.979 453.561 454.732 453.293 456.831 452.409C448.053 462.053 433.611 467.757 420.873 463.3C424.132 460.879 429.371 463.191 435.652 460.954C437.816 458.8 439.277 459.197 442.371 459.125C447.079 457.517 449.587 456.917 453.025 453.342Z" fill="#282728"/>
<path d="M435.652 460.955C437.816 458.8 439.277 459.197 442.371 459.125L443.135 460.57C441.459 461.659 440.543 462.158 438.4 461.463L439.225 461.268C437.59 460.962 437.329 460.959 435.652 460.955Z" fill="#353435"/>
<path d="M442.519 491.998C448.191 491.21 451.718 491.876 457.275 492.838C461.263 494.18 464.314 495.13 466.239 499.321C466.656 503.909 466.798 509.889 465.034 514.227C461.84 517.031 462.269 519.457 460.421 521.308L460.174 520.892C456.675 525.544 453.8 531.61 448.822 534.3C445.145 536.286 443.296 535.553 440.221 538.434L443.451 540.071C436.475 541.603 429.605 538.966 423.182 536.461C405.987 529.596 415.063 503.207 429.787 496.394C433.757 493.916 437.952 493.197 442.519 491.998Z" fill="black"/>
<path d="M461.984 498.25C463.865 499.183 464.135 499.216 466.239 499.32C466.656 503.909 466.798 509.889 465.034 514.227C461.84 517.031 462.269 519.457 460.421 521.308L460.174 520.892C462.554 512.745 464.171 506.491 461.984 498.25Z" fill="#3F3F40"/>
<path d="M423.182 536.461C428.612 532.956 433.943 538.194 440.221 538.434L443.452 540.071C436.475 541.603 429.605 538.966 423.182 536.461Z" fill="#191819"/>
<path d="M457.275 492.838C461.263 494.18 464.314 495.13 466.239 499.321C464.135 499.216 463.865 499.183 461.984 498.25C460.044 497.035 456.767 495.412 456.011 493.624L457.275 492.838Z" fill="#282728"/>
<path d="M416.59 618.926C398.57 611.192 405.155 590.713 417.755 581.348C423.172 577.327 434.377 574.607 441.074 575.964C468.766 583.504 450.172 614.996 434.403 619.513C431.096 621.401 420.253 620.038 416.59 618.926Z" fill="black"/>
<path d="M441.074 575.964C468.766 583.504 450.172 614.997 434.404 619.513C435.805 617.078 437.021 618.036 438.352 614.632C449.553 606.071 453.177 597.716 451.367 584.006C447.796 580.059 443.882 578.434 438.999 576.831L439.001 575.981L437.185 576.267L441.074 575.964Z" fill="#2A292A"/>
<path d="M438.352 614.632C437.021 618.036 435.805 617.078 434.403 619.514C431.096 621.401 420.253 620.038 416.59 618.926C415.85 617.649 415.848 617.734 415.618 616.291C425.117 616.782 429.428 618.225 438.352 614.632Z" fill="#3F3F40"/>
<path d="M426.698 697.287C433.949 694.943 438.394 692.485 445.856 693.192C464.965 698.987 457.023 719.501 444.66 728.666C435.74 733.325 434.074 733.274 423.988 732.943C419.903 732.738 417.529 732.173 413.57 731.203C409.687 729.612 408.608 728.221 406.11 725.061C405.388 710.632 413.575 701.844 426.698 697.287Z" fill="black"/>
<path d="M445.856 693.192C464.964 698.987 457.023 719.501 444.66 728.666L443.981 725.449C446.25 724.177 450.823 718.52 451.867 715.942C456.265 705.072 450.754 698.211 441.353 694.116C442.124 693.78 444.867 693.369 445.856 693.192Z" fill="#282728"/>
<path d="M424.532 730C434.404 730.582 435.38 729.875 443.981 725.449L444.66 728.666C435.74 733.325 434.074 733.274 423.988 732.943C422.806 731.625 422.22 731.614 420.434 731.038L419.83 730.85C421.607 730.673 422.389 730.57 424.122 730.114L424.532 730Z" fill="#2A292A"/>
<path d="M413.57 731.203C414.035 729.977 414.004 729.703 415.022 728.871C417.869 728.363 421.603 729.395 424.532 730L424.122 730.114C422.389 730.57 421.607 730.673 419.83 730.85L420.434 731.038C422.22 731.614 422.806 731.625 423.988 732.943C419.903 732.737 417.529 732.173 413.57 731.203Z" fill="#191819"/>
<path d="M405.593 827.626C385.38 810.443 415.677 787.602 432.955 790.168C444.411 791.873 457.68 806.239 449.061 817.172L445.53 816.682C442.374 820.931 442.763 820.435 437.853 822.419C437.735 823.366 437.854 824.404 437.325 824.792C433.896 827.33 424.96 830.341 420.809 830.147C417.738 829.999 408.816 825.328 406.03 826.725L405.593 827.626Z" fill="black"/>
<path d="M432.955 790.168C444.411 791.873 457.68 806.239 449.061 817.172L445.53 816.682C446.999 813.437 448.276 809.131 447.713 805.584C446.359 797.04 437.528 794.919 432.843 791.24L432.955 790.168Z" fill="#282728"/>
<path d="M405.593 827.626L406.03 826.725C408.816 825.328 417.738 829.999 420.809 830.147C424.96 830.341 433.897 827.33 437.325 824.792C437.854 824.404 437.735 823.366 437.853 822.419C442.763 820.435 442.374 820.931 445.53 816.682L449.061 817.172C441.975 824.797 435.352 832.326 424.382 832.149C418.003 832.046 410.526 831.795 405.593 827.626Z" fill="#2A292A" fill-opacity="0.988235"/>
<path d="M460.174 520.892L460.421 521.308C462.269 519.457 461.84 517.031 465.034 514.227C460.077 528.209 455.729 533.285 443.451 540.071L440.221 538.434C443.296 535.553 445.145 536.286 448.822 534.299C453.8 531.61 456.675 525.543 460.174 520.892Z" fill="#282728" fill-opacity="0.988235"/>
<path d="M345.055 594.996C348.836 596.513 354.941 600.385 354.558 604.993C345.5 607.651 344.878 602.672 345.055 594.996Z" fill="black" fill-opacity="0.92549"/>
<path d="M405.016 208.043C416.597 196.389 436.773 203.695 435.782 220.75C435.531 225.06 433.628 229.036 429.607 230.881C428.468 231.458 423.457 235.155 421.919 236.239C414.417 241.528 407.933 241.332 398.982 242.047C388.767 232.022 396.648 216.554 405.016 208.043Z" fill="black"/>
<path d="M405.016 208.043C416.597 196.389 436.773 203.695 435.782 220.75C435.532 225.06 433.628 229.036 429.607 230.881C429.461 229.084 431.166 225.497 431.564 222.92C433.726 208.897 426.051 202.861 412.609 205.33C409.917 205.825 408.492 207.988 405.016 208.043Z" fill="#2A292A"/>
<path d="M475.686 187.711C481.984 184.42 488.286 183.154 495.404 183.697C500.23 186.647 502.769 189.536 504.093 195.204C505.273 200.266 504.331 205.592 501.484 209.942C494.934 219.971 482.294 218.065 472.181 216.42C468.556 214.456 466.376 213.336 464.919 209.164C461.843 200.355 467.013 190.676 475.686 187.711Z" fill="black"/>
<path d="M475.686 187.711C481.984 184.42 488.286 183.154 495.404 183.697C500.229 186.647 502.768 189.536 504.093 195.204C505.273 200.266 504.331 205.592 501.484 209.942C494.933 219.971 482.294 218.065 472.181 216.42L473.995 213.778C475.15 214.077 476.403 214.394 477.472 214.842C486.033 218.427 497.258 213.156 500.087 204.204C502.023 198.077 500.607 193.704 497.913 188.27C486.382 184.121 490.454 188.935 484.776 189.989C484.283 188.097 484.769 188.777 483.631 187.572C480.972 187.979 478.905 188.306 476.209 188.443L475.686 187.711Z" fill="#282728"/>
<path d="M793.277 357.18C794.988 356.856 796.368 356.256 797.789 356.03C790.876 371.749 762.64 376.959 748.331 384.79C743.346 387.518 737.478 389.847 732.385 392.502C717.762 398.218 703.795 405.248 689.485 411.54C673.961 418.367 657.833 424.196 641.721 429.458C639.206 430.246 636.571 433.564 633.925 434.408C622.501 437.264 621.903 436.097 612.07 442.274C610.257 442.371 609.778 442.519 608.118 441.922L607.901 441.107C610.245 438.259 620.14 435.042 624.207 433.281C631.512 435.972 632.824 433.267 637.159 427.733C637.911 427.596 638.664 427.428 639.4 427.23C655.717 422.791 674.298 415.203 689.873 408.455C701.205 403.544 710.365 398.002 722.609 393.761C735.801 389.191 749.414 381.028 762.475 375.718C772.649 371.581 787.802 367.096 793.277 357.18Z" fill="#2A292A"/>
<path d="M326.218 1051.83C342.543 1059.26 358.459 1066.09 375.753 1070.94C382.64 1072.88 393.033 1074.05 400.348 1075.63C408.816 1077.45 417.876 1079.57 426.34 1081.05C443.142 1083.9 460.178 1085.14 477.215 1084.75C481.504 1084.64 488.934 1084.51 493.119 1083.91C495.97 1083.84 499.493 1083.52 502.1 1084.45L502.271 1085.17C499.363 1086.9 490.304 1088.33 487.372 1088.09C483.354 1088.24 479.407 1088.5 475.402 1088.12L474.955 1088.5C463.192 1087.15 447.91 1088.72 436.295 1086.11C398.133 1077.55 360.005 1074.2 325.963 1053.28L326.218 1051.83Z" fill="#191819"/>
<path d="M475.402 1088.12C480.309 1086.58 482.314 1086.75 487.372 1088.09C483.354 1088.24 479.407 1088.5 475.402 1088.12Z" fill="#282728"/>
<path d="M172.604 338.635C179.233 359.324 174.814 359.625 195.673 371.491C220.76 385.764 243.825 404.537 269.53 417.896C278.51 422.649 302.572 426.435 295.969 439.778C291.066 448.181 270.019 455.782 265.433 462.513C263.657 461.13 263.956 461.779 263.5 459.946C264.289 458.286 280.705 449.476 283.678 446.855C283.724 446.105 283.627 445.452 283.459 444.721L284.237 444.323L285.076 445.926C286.103 445.851 295.019 437.383 295.933 436.22C293.828 432.114 295.167 432.319 291.784 429.817C286.327 425.779 274.759 424.116 270.027 421.4C253.912 412.152 239.082 402.491 223.895 391.844C211.43 383.106 184.438 371.778 175.24 359.693C174.38 351.878 173.026 346.348 171.183 338.762L172.604 338.635Z" fill="#282728"/>
<path d="M259.383 509.159L263.147 509.88C260.768 551.469 266.725 587.399 292.393 620.397C294.268 622.804 302.042 629.414 302.903 630.885C303.427 631.758 304.626 633.589 304.856 634.444C295.148 629.351 285.467 615.686 279.654 606.299C262.572 578.707 257.178 541.23 259.383 509.159Z" fill="#2A292A"/>
<path d="M506.354 423.288L506.741 420.516C506.95 423.743 506.888 425.173 508.23 428.125C508.714 432.675 509.064 437.134 509.276 441.705C510.707 472.572 513.066 498.41 503.515 528.427C502.754 529.631 502.429 530.071 501.525 531.176L500.755 531.149C500.464 522.778 506.178 504.828 506.769 494.921C507.657 480.021 505.346 466.006 505.481 451.434C505.575 441.225 506.727 434.079 506.354 423.288Z" fill="#282728"/>
<path d="M266.823 732.971C267.689 733.433 269.932 734.962 270.827 734.249C276.018 730.12 309.608 716.364 305.014 733.45C304.787 734.294 296.331 745.039 294.899 746.99L294.263 747.246C289.547 749.128 284.38 748.991 280.873 750.651C264.073 758.59 252.613 776.686 240.88 788.674C240.024 788.525 240.391 788.731 239.808 788.012C242.379 784.921 247.349 777.153 249.223 775.049C254.491 769.129 277.389 746.887 283.685 744.743C284.783 745.615 284.894 745.758 286.204 746.374C287.328 745.661 288.175 745.011 289.224 744.206C297.429 743.585 294.482 739.159 300.005 735.024C301.194 734.129 300.941 734.671 302.074 733.239C302.332 726.47 294.779 729.681 291.518 730C280.552 731.072 278.476 731.671 269.57 737.859C268.567 737.751 267.123 735.293 265.927 733.952L266.823 732.971Z" fill="#282728"/>
<path d="M578.946 458.621L579.654 455.17L580.384 454.711C581.855 457.626 579.933 473.776 582.385 479.373C584.108 491.092 582.192 520.243 579.853 532.665C579.329 535.454 574.703 542.88 573.882 546.689C572.736 552.007 573.152 557.878 571.025 562.846C569.402 565.344 568.43 567.639 566.143 569.245C565.577 568.99 565.015 568.729 564.44 568.491C564.521 568.078 564.469 568.146 564.765 567.757C569.937 560.972 569.713 552.296 569.97 543.884C575.804 535.659 577.703 531.875 578.342 521.627C579.637 500.713 580.076 479.554 578.946 458.621Z" fill="#282728"/>
<path d="M217.383 828.556L219.335 830.227C215.607 851.602 214.816 873.388 216.987 894.974C217.549 900.255 217.431 907.806 218.255 912.791C220.134 924.151 223.339 940.137 226.715 951.064L224.907 950.962C217.496 934.411 216.066 912.586 213.397 894.854C211.632 878.133 213.624 844.599 217.383 828.556Z" fill="#282728"/>
<path d="M240.67 983.772C246.51 994.043 254.785 1007.09 263.174 1015.52C270.932 1023.32 287.585 1034.01 297.553 1039.21C305.64 1043.43 316.228 1046.56 324.673 1050.65C324.08 1051.6 323.505 1052.56 322.946 1053.53C311.729 1047.98 301.336 1042.47 289.673 1038.33C284.509 1036.49 268.412 1023.81 263.608 1019.83C255.647 1013.23 242.877 994.494 238.799 985.067L240.67 983.772Z" fill="#282728"/>
<path d="M266.025 684.347C265.462 683.474 264.891 680.389 265.037 679.733C267.03 674.703 278.504 666.975 283.252 664.865C291.32 661.283 294.306 662.914 300.848 656.407C303.52 657.576 306.076 658.751 308.675 660.125C319.192 665.669 331.466 667.785 343.028 670.146C346.021 670.756 349.038 670.984 351.611 672.883C352.185 673.305 352.364 673.083 353.142 673.032C356.638 672.746 357.222 670.819 360.964 670.984C359.885 671.817 357.457 673.67 356.268 673.79C339.362 675.524 317.1 665.811 301.696 661.055C286.916 665.087 276.961 668.475 267.078 682.157C266.753 682.607 266.254 683.782 266.025 684.347Z" fill="#282728"/>
<path d="M469.327 90.9866C484.764 91.9618 518.185 98.051 527.884 110.51C528.696 112.466 528.91 112.057 528.363 113.53C525.668 113.12 519.785 107.324 516.928 105.879C501.658 98.1548 483.392 97.6416 467.119 93.8678C468.327 93.2576 470.117 92.8093 471.468 92.4169L471.48 91.8586L469.327 90.9866Z" fill="#282728"/>
<path d="M313.118 414.698C317.034 415.758 328.842 406.384 333.092 404.106C339.26 400.8 345.175 397.894 351.872 395.642C352.257 395.512 354.37 393.652 355.51 393.071C360.857 395.081 366.197 396.63 371.769 397.887C376.196 398.885 381.197 397.756 385.041 399.752C386.744 400.635 387.98 400.981 389.61 401.794L389.252 402.761C377.892 402.019 363.606 397.16 356.396 397.266C343.465 397.455 323.323 417.155 310.63 418.892C311.511 418.131 312.399 417.399 313.341 416.713L313.118 414.698Z" fill="#191819"/>
<path d="M322.528 231.447C322.199 231.392 321.661 231.075 321.324 230.907C319.619 228.053 314.832 208.352 314.834 204.811C314.841 192.286 311.139 170.025 317.449 158.984L318.492 159.102C314.737 184.344 319.258 206.983 322.528 231.447Z" fill="#191819" fill-opacity="0.988235"/>
<path d="M352.427 234.478L352.608 235.14C354.111 240.82 354.622 248.604 355.333 254.609C357.862 275.955 363.768 304.368 385.362 314.588L384.275 315.008C366.65 313.018 353.321 271.789 352.586 256.033C352.358 251.146 349.955 238.195 352.427 234.478Z" fill="#2A292A"/>
<path d="M420.577 118.853C427.729 115.321 440.987 116.096 449.483 116.149C460.509 116.218 480.11 117.597 490.941 119.538L491.615 120.347C491.066 121.393 491.473 121.121 490.586 121.466C470.718 118.807 441.215 117.985 421.54 120.623C420.728 119.668 420.976 120.061 420.577 118.853Z" fill="#232223" fill-opacity="0.988235"/>
<path d="M573.831 390.401C575.661 397.484 578.433 408.322 578.735 415.548C579.608 436.53 583.167 458.458 582.385 479.373C579.933 473.776 581.855 457.626 580.384 454.711L579.654 455.17L578.946 458.621C579.14 444.839 578.638 429.195 575.844 415.639C574.777 410.49 573.688 405.174 573.203 399.941C573.523 396.724 573.671 393.628 573.831 390.401Z" fill="#2A292A" fill-opacity="0.988235"/>
<path d="M413.837 319.032C418.54 317.46 429.751 318.444 435.449 317.889C443.225 316.795 451.938 316.983 459.593 315.795C472.799 313.745 486.58 312.009 499.705 309.83L500.322 310.928C492.583 315.986 423.763 321.699 413.837 319.032Z" fill="#282728"/>
<path d="M302.903 630.885C313.301 638.054 319.011 642.195 330.866 647.601C338.902 651.263 365.306 653.088 367.798 661.871C367.664 664.215 367.478 664.54 366.439 666.667C365.852 664.996 365.095 664.009 364.128 662.532L364.286 661.945C361.251 657.365 349.94 654.354 344.683 653.27C343.076 652.939 334.673 652.073 333.939 651.679C325.918 647.345 311.163 640.415 304.856 634.444C304.626 633.589 303.427 631.758 302.903 630.885Z" fill="#282728"/>
<path d="M560.935 149.824C559.974 158.425 560.782 169.913 560.837 178.746C560.911 190.639 560.076 203.325 564.128 214.597C562.662 213.422 562.086 212.758 560.324 212.262C557.103 201.604 558.648 181.776 558.431 170.103C558.337 165.036 557.939 155.638 558.106 150.979C559.085 150.711 559.386 150.626 560.266 150.174L560.935 149.824Z" fill="#282728" fill-opacity="0.968627"/>
<path d="M118.34 263.127C116.136 262.451 116.418 262.92 115.379 261.416C115.274 259.241 114.989 259.766 115.916 258.132C117.929 257.839 117.13 257.801 119.066 258.542C119.297 259.883 119.274 259.855 119.108 261.213L119.978 261.428C121.834 259.835 122.183 259.001 124.338 258.661L125.053 259.337C125.123 263.33 119.755 273.146 129.383 273.538C132.297 273.657 135.982 271.364 139.1 272.332C135.571 275.301 129.485 276.868 124.949 276.357C118.422 275.622 121.831 271.42 118.587 267.257C118.443 266.474 118.382 264.051 118.34 263.127Z" fill="black" fill-opacity="0.976471"/>
<path d="M236.131 378.153L237.034 377.455C239.693 378.946 243.445 382.242 246.03 384.252C258.632 394.049 271.8 403.013 284.694 412.41C286.548 413.761 286.607 413.894 286.893 416.094C283.363 413.175 277.676 409.685 273.732 406.973C260.225 397.686 247.722 389.881 236.131 378.153Z" fill="black" fill-opacity="0.972549"/>
<path d="M700.818 424.294C703.612 424.303 706.207 423.516 708.933 422.85L708.859 423.565C698.628 428.145 691.048 430.678 680.212 433.79C675.034 435.278 669.981 438.257 664.374 438.934L663.416 438.285L663.274 437.151C669.901 433.708 692.85 426.523 700.818 424.294Z" fill="#191819"/>
<path d="M389.638 335.616L390.25 335.001C389.236 333.994 387.536 333.565 386.131 333.069L386.379 332.366C394.854 333.919 417 337.479 424.741 336.086L424.391 339.364C409.366 338.992 405.247 340.435 389.638 335.616Z" fill="black" fill-opacity="0.952941"/>
<path d="M438.18 89.5317C444.601 88.6933 463.653 89.5414 469.327 90.9865L471.48 91.8585L471.468 92.4169C470.117 92.8093 468.327 93.2575 467.119 93.8678C457.105 93.2416 445.26 92.3701 435.355 93.2398C435.459 92.9022 435.528 91.8203 435.566 91.4177C436.451 90.8086 437.322 90.1795 438.18 89.5317Z" fill="#242224"/>
<path d="M377.174 148.694C377.053 145.244 379.572 146.088 381.343 142.055C384.888 133.985 399.515 127.099 406.886 123.044C410.841 120.869 414.798 121.41 419.635 119.668L420.035 118.566L420.577 118.853C420.977 120.061 420.728 119.668 421.54 120.623C416.946 122.189 410.61 123.952 406.422 125.762C395.4 130.527 385.895 140.516 377.174 148.694Z" fill="#2A292A"/>
<path d="M494.72 331.133C494.144 330.816 494.207 330.769 493.742 330.263C496.004 328.944 502.342 329.105 505.307 328.262C514.791 325.567 524.305 322.425 533.078 317.873C535.38 316.678 538.457 313.232 540.928 312.927L540.789 313.972C538.965 315.07 538.727 315.505 537.826 317.426C525.696 326.867 509.761 330.52 494.72 331.133Z" fill="#282728" fill-opacity="0.984314"/>
<path d="M399.81 380.087C391.178 386.084 358.835 375.598 362.217 364.426L363.285 364.034C363.717 365.655 364.353 368.377 365.51 369.559C374.357 378.604 389.12 376.211 399.81 380.087Z" fill="#2A292A" fill-opacity="0.980392"/>
<path d="M446.287 230.329C456.231 230.224 462.668 234.777 471.81 238.168C476.528 239.917 486.342 243.977 488.379 248.704L486.444 247.956C485.183 248.961 485.413 250.231 485.114 252.249L484.759 248.305C481.657 243.314 453.281 235.012 446.287 230.329Z" fill="#2A292A"/>
<path d="M564.441 568.491C565.015 568.729 565.577 568.99 566.143 569.245C568.43 567.639 569.402 565.344 571.025 562.846C565.422 580.806 552.201 569.145 542.141 573.01C540.607 572.771 540.159 572.828 538.967 571.812C539.121 569.066 543.343 568.237 545.579 568.306C546.833 566.525 546.877 566.402 548.655 565.216C550.507 565.498 550.423 565.277 551.458 567.041L551.798 566.809C551.842 567.951 551.888 568.854 552.001 570.001C553.654 571.225 562.158 570.797 564.441 568.491Z" fill="#191819" fill-opacity="0.988235"/>
<path d="M424.74 336.086C430.714 335.53 457.436 330.719 460.587 333.989C458.268 333.978 458.5 333.604 456.962 334.684C446.13 336.018 433.8 340.174 424.391 339.364L424.74 336.086Z" fill="#191819"/>
<path d="M259.383 509.159C261.64 499.524 260.017 475.132 264.678 468.703C264.607 476.873 263.935 485.413 263.563 493.623C263.426 496.629 263.542 507.758 263.147 509.881L259.383 509.159Z" fill="#282728"/>
<path d="M793.277 357.18C794.133 352.928 801.524 331.492 805.026 329.794C806.035 331.062 805.602 331.763 805.488 333.772C804.045 338.023 798.467 352.624 797.789 356.03C796.368 356.256 794.988 356.856 793.277 357.18Z" fill="#3D3C3D"/>
<path d="M518.184 563.204L518.371 562.568C519.964 557.013 518.751 552.915 519.952 547.772C520.582 547.381 521.132 547.042 521.601 546.751L522.53 547.141C523.737 550.33 520.163 567.816 519.1 570.98L515.863 571.396L513.233 573.107C511.554 572.993 510.456 572.776 508.795 572.463L510.047 570.381C511.471 568.736 511.711 568.717 513.729 567.752C515.001 566.717 515.321 567.121 516.935 565.441C517.276 564.102 517.164 564.097 518.184 563.204Z" fill="#191819"/>
<path d="M518.184 563.204L518.884 564.188C518.078 567.759 516.625 568.242 515.863 571.396L513.233 573.107C511.554 572.993 510.456 572.776 508.795 572.463L510.047 570.381C511.471 568.736 511.711 568.717 513.729 567.752C515.001 566.717 515.321 567.121 516.935 565.441C517.276 564.102 517.164 564.097 518.184 563.204Z" fill="#2A292A"/>
<path d="M513.729 567.752C513.978 569.199 513.979 568.445 513.29 570.067L513.521 570.226L512.313 571.265C511.223 571.077 511.089 570.894 510.047 570.381C511.47 568.736 511.71 568.717 513.729 567.752Z" fill="#3F3F40"/>
<path d="M526.106 671.936C535.627 669.148 546.621 666.553 556.35 664.003L556.986 664.916C556.898 666.49 555.81 667.454 554.769 668.714C542.787 669.085 536.327 670.716 525.794 676.887C524.194 676.573 524.894 676.91 523.646 675.797C523.916 674.069 524.851 673.453 526.106 671.936Z" fill="#191819" fill-opacity="0.988235"/>
<path d="M481.365 370.239L478.63 369.625L478.391 368.937C485.02 365.919 510.722 364.26 518.691 364.195C518.651 366.395 518.69 370.449 518.329 372.471L518.111 373.349C518.119 370.553 518.362 369.139 516.607 367.239C510.771 365.5 488.253 369.172 481.365 370.239Z" fill="black" fill-opacity="0.976471"/>
<path d="M513.492 398.421C522.215 397.327 528.736 396.171 537.119 393.19C540.38 392.03 550.646 385.346 552.614 385.397L552.352 387.98C545.414 393.306 525.692 399.642 516.723 400.716C516.322 398.939 515.123 399.034 513.492 398.421Z" fill="#191819" fill-opacity="0.988235"/>
<path d="M265.322 688.955C264.304 700.389 260.895 723.407 266.823 732.971L265.927 733.952C258.401 724.2 260.901 705.129 263.08 693.711C263.591 691.031 263.419 691.156 265.322 688.955Z" fill="#282728" fill-opacity="0.988235"/>
<path d="M406.654 85.8217C411.794 80.7088 426.554 77.2767 434.307 74.416C434.885 76.0488 434.956 76.3773 435.196 78.0991C425.705 79.8682 419.274 82.3228 410.735 86.9777C409.013 86.7656 408.301 86.4268 406.654 85.8217Z" fill="#282728" fill-opacity="0.984314"/>
<path d="M526.33 365.409C530.083 363.411 531.365 363.358 535.454 363.042C534.374 364.707 534.58 363.822 534.805 365.787L534.266 365.98C532.828 367.779 533.266 367.137 531.703 368.149C529.172 369.788 526.673 373.302 524.222 375.91L524.409 376.8C521.856 376.448 522.525 376.907 520.871 375.403C520.097 373.308 520.218 372.791 520.207 370.494L523.156 369.85L526.33 365.409Z" fill="#191819"/>
<path d="M526.33 365.409C530.083 363.411 531.365 363.358 535.454 363.042C534.374 364.707 534.58 363.822 534.804 365.787L534.266 365.98C526.657 368.316 528.881 372.199 523.156 369.85L526.33 365.409Z" fill="#282728"/>
<path d="M371.748 119.934C372.781 120.039 372.736 119.96 373.673 119.466C374.218 117.314 374.189 117.166 375.732 115.682C377.108 116.742 377.813 117.897 379.573 117.187C379.418 117.916 367.797 131.45 366.451 132.72C366.363 132.609 364.685 127.85 364.489 127.324C365.165 126.74 365.668 126.11 366.261 125.439C367.442 122.673 367.456 121.411 370.345 120.838C370.792 120.119 370.699 120.399 371.748 119.934Z" fill="#252526"/>
<path d="M366.261 125.439C367.442 122.673 367.456 121.411 370.345 120.838C370.207 122.789 370.364 124.18 369.181 125.649C367.321 126.15 368.265 126.133 366.261 125.439Z" fill="black"/>
<path d="M558.683 378.268C560.766 378.907 568.357 379.824 569.035 381.183C570.551 384.22 568.848 383.463 572.342 386.107C573.671 387.808 573.637 388.222 573.831 390.401C573.671 393.628 573.523 396.724 573.203 399.941C571.829 395.075 569.565 384.62 565.119 381.274C562.845 379.563 561.888 383.675 559.229 384.462C558.576 382.632 559.143 383.256 557.773 382.3C556.442 382.553 555.81 382.752 554.591 383.34L556.277 382.085L555.878 381.31C556.852 380.364 557.775 379.284 558.683 378.268Z" fill="#282728" fill-opacity="0.980392"/>
<path d="M381.402 103.349C385.365 99.718 401.87 87.2065 406.654 85.8218C408.301 86.4269 409.013 86.7656 410.735 86.9778C404.151 89.2556 384.447 102.112 381.254 107.18L381.402 103.349Z" fill="black" fill-opacity="0.905882"/>
<path d="M153.605 300.065L156.251 299.125C167.684 314.308 166.935 322.876 172.604 338.636L171.183 338.762C167.875 329.174 165.102 319.079 160.928 309.81C160.097 307.965 155.152 302.188 153.605 300.065Z" fill="#191819" fill-opacity="0.988235"/>
<path d="M222.022 804.243C224.101 802.829 227.109 799.709 228.754 799.692L227.672 802.378C224.118 806.781 223.626 808.903 222.128 814.429C220.939 819.978 220.154 824.603 219.336 830.227L217.383 828.556C217.324 824.638 219.146 815.644 220.259 811.846C220.243 810.26 221.528 805.949 222.022 804.243Z" fill="#282728"/>
<path d="M217.383 828.556C217.324 824.638 219.146 815.644 220.259 811.845C220.455 814.634 220.323 815.547 219.677 818.227L219.746 817.988L219.396 819.613C220.001 817.794 220.283 814.845 222.128 814.429C220.939 819.978 220.154 824.603 219.336 830.227L217.383 828.556Z" fill="#191819"/>
<path d="M224.908 950.962L226.716 951.065C231.31 964.718 234.084 971.174 240.67 983.772L238.8 985.067C231.25 970.86 229.306 966.309 224.908 950.962Z" fill="#282728" fill-opacity="0.984314"/>
<path d="M145.748 289.936C146.45 285.459 146.625 282.579 149.035 278.771C152.713 282.438 148.753 282.992 150.231 287.25L150.732 287.443C152.453 288.118 152.732 288.157 154.115 289.292L154.828 289.099L155.273 286.389C156.815 286.926 157.412 288.052 158.622 289.421C156.093 290.906 155.475 291.264 153.285 293.299C152.818 293.518 151.912 293.785 151.387 293.96C148.915 293.262 147.66 291.722 145.748 289.936Z" fill="#282728" fill-opacity="0.980392"/>
<path d="M506.354 423.288C506.334 423.16 506.023 421.244 506.031 421.184C506.565 416.933 499.253 403.849 499.927 400.759L501.935 400.271L503.683 400.722C504.194 401.808 504.479 403.569 504.87 404.235C506.69 412.798 508.264 419.314 508.23 428.125C506.888 425.173 506.95 423.743 506.741 420.516L506.354 423.288Z" fill="#2A292A"/>
<path d="M520.207 370.494C520.218 372.79 520.097 373.308 520.871 375.403C522.525 376.907 521.856 376.448 524.409 376.8C523.363 379.349 521.36 378.528 518.845 378.607C513.521 378.772 502.481 382.916 498.246 379.69C503.81 378.919 509.268 377.966 514.635 376.3C517.321 375.467 517.025 375.396 518.111 373.349L518.329 372.471L520.207 370.494Z" fill="black" fill-opacity="0.988235"/>
<path d="M560.324 212.262C562.085 212.758 562.661 213.422 564.128 214.597C568.615 219.441 571.378 222.115 578.496 221.756L579.026 222.112L579.003 223.52C576.654 226.563 575.188 225.588 572.045 224.663C565.181 222.64 563.217 218.188 560.324 212.262Z" fill="#2A292A" fill-opacity="0.984314"/>
<path d="M555.983 648.605C569.06 641.425 577.794 638.362 590.723 629.75C589.149 634.165 561.592 649.375 557.429 649.826L555.983 648.605Z" fill="black" fill-opacity="0.988235"/>
<path d="M501.292 347.565C512.371 344.74 519.39 345.95 532.006 341.234L532.773 342.105C530.712 346.359 506.937 349.605 502.288 348.518L501.292 347.565Z" fill="#191819"/>
<path d="M434.307 74.4162C437.947 74.5199 452.783 70.5591 457.464 72.793L457.426 74.0934C450.205 75.1855 442.207 76.094 435.196 78.0992C434.956 76.3775 434.885 76.049 434.307 74.4162Z" fill="#191819" fill-opacity="0.972549"/>
<path d="M359.02 133.568C360.186 128.373 365.414 118.416 370.3 115.396C370.894 115.029 371.555 115.71 372.151 116.075C372.831 118.102 372.635 117.43 371.748 119.934C370.699 120.399 370.793 120.119 370.345 120.838C367.456 121.411 367.442 122.673 366.261 125.439C365.668 126.11 365.165 126.74 364.489 127.324C361.013 130.605 366.555 132.045 359.02 133.568Z" fill="#191819"/>
<path d="M393.419 349.165C396.31 349.106 398.852 348.737 401.399 349.969C399.899 351.347 397.051 351.031 394.938 350.995C390.768 356.752 389.44 362.071 395.9 367.14C385.188 365.002 386.996 355.343 393.419 349.165Z" fill="black" fill-opacity="0.933333"/>
<path d="M491.709 576.067C492.023 574.641 491.985 574.607 492.725 573.261C499.399 577.618 499.977 571.704 502.678 571.139C505.2 572.44 505.802 572.816 508.795 572.463C510.456 572.776 511.554 572.993 513.233 573.107C509.7 574.767 506.417 575.274 502.685 576.363C498.912 577.464 494.802 579.278 491.709 576.067Z" fill="#282728" fill-opacity="0.988235"/>
<path d="M412.372 96.1599C419.505 95.2126 430.53 90.1306 438.18 89.5317C437.322 90.1796 436.451 90.8087 435.566 91.4178C435.528 91.8204 435.459 92.9023 435.355 93.2399C429.203 94.6976 423.039 96.1086 416.866 97.4716L416.396 97.0524C414.246 97.1876 414.138 97.2429 412.372 96.1599Z" fill="#282728"/>
<path d="M548.655 565.216L548.968 564.498C553.108 554.904 546.885 547.539 551.446 545.006C553.559 545.495 552.676 544.987 554.156 546.642C554.164 546.758 551.97 565.941 551.798 566.809L551.458 567.041C550.423 565.277 550.507 565.499 548.655 565.216Z" fill="#636263"/>
<path d="M821.736 339.714C820.025 339.053 820.134 339.381 819.113 338.154C820.191 336.32 835.971 333.766 841.954 329.545L842.49 329.977C841.737 331.455 840.922 332.682 839.222 333.193C833.764 334.831 831.494 338.133 825.432 339.061L821.736 339.714Z" fill="#282728" fill-opacity="0.972549"/>
<path d="M540.517 733.057C549.698 727.576 553.461 734.728 559.139 741.11C559.599 741.606 559.937 741.937 560.421 742.399L559.828 743.305C556.868 743.705 549.662 734.403 546.742 733.239C546.056 732.966 544.055 734.882 540.517 733.057Z" fill="#2A292A"/>
<path d="M412.372 96.1599C414.138 97.2429 414.246 97.1876 416.396 97.0525L416.866 97.4716L416.258 97.7157C415.383 98.0625 411.299 99.3348 410.491 99.4751C405.88 100.276 394.37 108.304 390.646 108.237C396.479 104.198 405.249 96.7103 412.372 96.1599Z" fill="#282728" fill-opacity="0.972549"/>
<path d="M513.048 528.573C514.81 528.2 518.63 528.327 520.621 528.313C526.481 528.275 528.95 527.826 534.637 526.323C533.683 527.08 532.922 527.727 531.864 528.35C533.353 528.553 534.838 528.693 536.265 529.152C530.551 529.093 527.343 530.666 522.026 532.06C518.028 533.108 516.083 530.663 513.048 528.573Z" fill="#191819"/>
<path d="M469.413 564.865C469.814 563.799 469.763 563.74 470.498 562.894L471.508 564.222C473.363 565.003 476.813 561.373 479.304 560.642C481.542 559.985 483.742 559.626 486 559.221C484.159 560.828 484.332 560.21 483.726 562.224L484.11 563.432C478.177 566.076 475.152 568.966 469.413 564.865Z" fill="#282728" fill-opacity="0.984314"/>
<path d="M362.067 355.95C358.558 348.51 365.689 332.177 374.025 333.897C359.977 343.567 367.334 347.09 362.067 355.95Z" fill="black" fill-opacity="0.92549"/>
<path d="M485.114 252.249C485.413 250.231 485.183 248.961 486.444 247.956L488.379 248.704C489.319 256.586 489.395 259.487 483.389 265.239C481.176 265.987 478.241 268.066 476.183 269.394C482.655 263.03 486.361 262.519 485.114 252.249Z" fill="#282728"/>
<path d="M304.348 425.641C303.302 424.636 303.367 424.666 302.713 423.356C303.609 418.637 307.79 412.395 313.118 414.698L313.341 416.713C312.399 417.399 311.511 418.131 310.63 418.892C307.877 420.583 306.52 423.232 304.348 425.641Z" fill="#282728"/>
<path d="M637.558 444.996C645.411 442.663 653.276 440.395 661.164 438.192L661.58 439.391C659.766 441.437 641.687 446.9 637.974 446.544L637.558 444.996Z" fill="#191819"/>
<path d="M117.301 293.18C126.919 293.471 131.175 294.378 141.05 293.489L141.759 294.552C140.849 294.775 140.676 294.825 139.859 295.276L137.828 296.378C135.07 297.89 119.667 295.215 116.503 294.035L117.301 293.18Z" fill="#191819" fill-opacity="0.988235"/>
<path d="M433.789 280.541C433.336 281.469 432.83 282.172 432.267 283.035C431.909 283.166 428.391 284.252 428.668 284.042C426.56 285.638 427.532 286.425 425.054 286.582L424.524 285.963C424.556 283.111 428.152 277.085 430.031 275.043C431.07 277.654 431.974 278.481 433.789 280.541Z" fill="#191819"/>
<path d="M141.05 293.489C144.133 292.862 144.078 292.461 145.748 289.936C147.66 291.722 148.914 293.262 151.387 293.96C151.912 293.785 152.818 293.518 153.285 293.299C154.295 295.607 154.851 296.975 156.251 299.125L153.605 300.065C150.16 295.927 146.966 294.022 141.759 294.552L141.05 293.489Z" fill="#191819"/>
<path d="M534.637 526.323C540.582 525.454 542.703 526.638 545.858 532.023C545.269 532.967 544.297 533.68 543.439 534.421C540.799 534.017 541.774 530.56 538.948 528.835L537.241 529.712L536.265 529.152C534.838 528.693 533.353 528.554 531.864 528.35C532.922 527.727 533.683 527.08 534.637 526.323Z" fill="#2A292A"/>
<path d="M435.374 268.457L434.953 267.368C435.46 263.896 441.427 253.805 445.531 253.621L446.941 255.272C443.264 259.224 438.392 264.173 435.374 268.457Z" fill="#282728" fill-opacity="0.976471"/>
<path d="M808.396 374.89C817.128 374.272 816.889 375.628 823.55 375.895C823.436 377.634 823.481 378.235 822.883 379.839C819.101 381.988 816.792 376.525 812.343 375.832C811.579 375.713 810.655 376.371 808.67 375.888L808.396 374.89Z" fill="#282728"/>
<path d="M354.664 200.028C353.716 200.633 352.863 201.245 351.945 201.892C351.189 199.522 354.99 186.021 357.009 184.845C356.914 186.863 356.881 188.067 357.032 190.076C356.29 193.231 355.518 196.951 354.664 200.028Z" fill="black" fill-opacity="0.945098"/>
<path d="M566.739 148.008L565.096 147.186C565.671 142.931 568.851 140.284 573.129 140.288C575.359 141.262 574.823 140.636 575.65 142.485C571.72 143.718 569.972 145.424 566.739 148.008Z" fill="#191819" fill-opacity="0.905882"/>
<path d="M501.935 400.271C502.641 399.981 511.424 398.874 513.492 398.421C515.123 399.034 516.322 398.939 516.722 400.716C513.575 401.12 506.74 401.611 504.87 404.235C504.479 403.569 504.194 401.808 503.683 400.721L501.935 400.271Z" fill="#282728" fill-opacity="0.988235"/>
<path d="M421.233 371.826C425.506 373.007 438.468 371.49 443.75 371.617C437.286 374.16 427.301 376.045 421.233 371.826Z" fill="black" fill-opacity="0.984314"/>
<path d="M364.128 662.532C365.095 664.009 365.852 664.996 366.439 666.667C364.621 668.84 363.721 669.826 360.964 670.984C357.222 670.819 356.638 672.746 353.142 673.031C359.426 669.507 360.912 669.016 364.128 662.532Z" fill="#282728"/>
<path d="M412.875 350.587C417.795 350.261 420.339 349.981 425.264 350.744L425.36 352.102C426.694 353.193 427.019 353.222 428.681 353.812C424.722 354.139 416.165 352.857 412.875 350.587Z" fill="black" fill-opacity="0.92549"/>
<path d="M104.657 286.316C104.912 285.632 105.347 284.793 105.668 284.118C109.489 281.365 112.544 279.383 117.246 278.834C113.481 283.278 110.315 284.882 104.657 286.316Z" fill="black" fill-opacity="0.980392"/>
<path d="M547.62 362.088L544.669 365.986C541.049 365.34 537.676 364.034 534.804 365.786C534.58 363.822 534.374 364.707 535.454 363.042C539.825 362.342 543.217 362.199 547.62 362.088Z" fill="#191819"/>
<path d="M486 559.221C489.049 558.643 489.775 556.71 492.157 556.819C492.292 557.916 492.469 557.998 493.013 558.967C490.619 561.261 487.231 562.374 484.11 563.432L483.726 562.224C484.332 560.21 484.159 560.828 486 559.221Z" fill="#191918" fill-opacity="0.968627"/>
<path d="M497.21 543.705C498.665 544.078 498.758 543.982 499.777 545.136C500.053 547.671 498.586 550.345 497.556 552.757L495.146 552.775C494.599 550.334 496.424 546.341 497.21 543.705Z" fill="#2A292A"/>
<path d="M421.233 371.826C425.329 370.124 442.028 370.7 447.448 370.805L443.75 371.617C438.468 371.49 425.506 373.007 421.233 371.826Z" fill="black" fill-opacity="0.470588"/>
<path d="M113.008 270.709C115.294 270.491 115.915 270.798 118.132 271.501C118.98 274.131 118.791 275.703 117.816 278.299C117.037 277.553 116.269 276.793 115.514 276.022C113.389 273.823 112.95 273.296 113.008 270.709Z" fill="#191819"/>
<path d="M497.671 74.1274C499.309 76.9647 504.739 76.1064 504.22 80.2355C501.257 79.4616 498.273 78.8205 495.524 77.4877C496.636 76.5262 497.013 75.4534 497.671 74.1274Z" fill="#191819" fill-opacity="0.968627"/>
<path d="M419.8 403.283C420.816 403.239 421.994 403.117 422.97 403.264C425.526 404.359 426.272 404.013 427.43 404.428L430.79 405.582C426.259 405.875 421.713 405.838 417.188 405.47L416.036 404.644C417.93 404.351 418.16 404.273 419.8 403.283Z" fill="black" fill-opacity="0.870588"/>
<path d="M425.264 350.744C428.516 350.945 431.831 351.195 435.085 351.196L435.883 352.735C434.307 354.155 431.109 353.777 428.682 353.812C427.019 353.222 426.695 353.193 425.361 352.102L425.264 350.744Z" fill="black" fill-opacity="0.988235"/>
<path d="M161.863 289.164C162.874 287.232 162.133 287.851 164.049 287.12C166.725 288.95 167.302 292.838 165.767 295.561C164.367 292.595 164.027 291.662 161.863 289.164Z" fill="black" fill-opacity="0.909804"/>
<path d="M118.34 263.127C118.382 264.051 118.443 266.475 118.587 267.258C118.432 268.538 118.171 270.259 118.132 271.501C115.915 270.798 115.294 270.491 113.008 270.709C114.11 269.928 118.003 264.419 118.34 263.127Z" fill="black" fill-opacity="0.988235"/>
<path d="M490.556 75.6435C491.89 74.0472 491.964 74.0204 493.88 73.1187C495.886 72.9927 495.948 72.9955 497.671 74.1276C497.013 75.4536 496.636 76.5263 495.524 77.4879L490.556 75.6435Z" fill="#222222" fill-opacity="0.980392"/>
<path d="M348.919 161.167C346.691 163.249 344.264 164.822 344.148 167.792C343.722 167.464 341.013 167.136 340.283 167.021C342.291 164.334 345.899 162.749 348.919 161.167Z" fill="black" fill-opacity="0.184314"/>
<path d="M326.341 236.636C327.617 238.541 328.928 239.578 329.304 241.801C327.333 241.359 325.496 238.379 324.265 236.637L326.341 236.636Z" fill="black" fill-opacity="0.101961"/>
<path d="M479.171 329.897C481.16 330.089 482.476 329.799 483.461 330.994L482.317 332.364C480.773 332.008 478.84 331.899 477.646 331.003L479.171 329.897Z" fill="black" fill-opacity="0.890196"/>
<path d="M195.696 836.956L196.445 837.561C197.175 839.454 196.754 841.023 196.513 843.087C194.769 840.743 195.198 839.688 195.696 836.956Z" fill="black" fill-opacity="0.901961"/>
<path d="M422.97 403.264C426.248 403.145 427.371 403.026 430.607 403.684L430.386 404.11L427.43 404.428C426.272 404.013 425.526 404.36 422.97 403.264Z" fill="black" fill-opacity="0.635294"/>
<path d="M416.036 404.644C414.496 404.393 414.585 404.405 413.221 403.63C415.2 402.98 417.652 403.233 419.8 403.283C418.16 404.273 417.93 404.351 416.036 404.644Z" fill="black" fill-opacity="0.552941"/>
<path d="M555.505 105.857C555.917 108.113 555.867 108.895 557.324 110.61C563.236 114.208 584.564 103.768 598.212 120.805C593.279 119.52 585.591 111.53 579.021 111.749C575.553 111.864 572.108 110.897 568.632 111.964C573.853 112.297 578.022 111.196 582.494 114.733C571.259 111.991 565.557 111.328 555.533 116.981L554.434 111.563C555.847 109.458 555.597 108.342 555.505 105.857Z" fill="#191819" fill-opacity="0.988235"/>
<path d="M398.691 64.7766L399.395 66.556C388.642 71.0974 374.642 84.53 365.61 92.09C364.354 93.1411 364.512 93.1394 363.1 92.9329C370.108 83.5296 388.188 70.2088 398.691 64.7766Z" fill="black" fill-opacity="0.988235"/>
<path d="M187.869 293.177C184.043 286.27 181.513 278.72 180.402 270.902C179.684 266.178 177.712 266.757 177.361 263.292C177.957 261.593 177.872 261.594 179.092 260.332L179.965 261.17C183.681 272.211 184.403 282.665 189.707 291.965L187.869 293.177Z" fill="#282728" fill-opacity="0.968627"/>
<path d="M591.031 237.066C596.957 237.603 602.723 224.712 606.493 222.867C600.966 233.59 596.524 236.981 585.859 243.042C583.686 244.278 580.663 245.758 579.061 247.57C578.764 245.483 578.53 245.172 577.447 243.343C581.667 243.969 586.942 239.276 590.701 237.242L591.031 237.066Z" fill="#282728" fill-opacity="0.988235"/>
<path d="M150.172 346.091L151.237 345.736C155.94 351.58 156.534 365.329 160.375 373.208L159.997 374.025C153.207 366.529 152.66 356.306 150.172 346.091Z" fill="#191819" fill-opacity="0.988235"/>
<path d="M466.65 1108.63L466.737 1108.14C469.185 1106.38 481.735 1107.25 485.061 1107.62C490.213 1109.24 502.324 1107.87 508.334 1108.74C502.567 1110.01 474.366 1108.86 466.65 1108.63Z" fill="#191819" fill-opacity="0.984314"/>
<path d="M340.806 377.547C343 378.346 343.096 379.355 344.675 381.617L337.536 384.04C332.969 384.156 328.842 387.523 324.431 387.425C329.802 383.363 336.777 385.525 340.806 377.547Z" fill="#191819" fill-opacity="0.988235"/>
<path d="M238.867 1025.58L240.346 1025.31C243.239 1027.62 251.304 1034.02 250.892 1037.83C244.724 1033.14 243.182 1031.94 238.867 1025.58Z" fill="black" fill-opacity="0.980392"/>
<path d="M560.859 276.534C562.487 275.653 563.488 273.992 566.021 272.498C563.625 277.198 562.105 281.834 557.637 284.712L556.987 285.128L556.427 285.117C557.083 282.159 559.222 279.177 560.859 276.534Z" fill="#191819" fill-opacity="0.94902"/>
<path d="M818.583 286.731C824.137 287.039 827.805 288.855 829.687 294.477C827.354 293.317 826.402 291.958 823.818 291.196C821.759 290.51 820.767 290.166 818.845 289.182L818.583 286.731Z" fill="#2A292A"/>
<path d="M808.63 289.112C811.927 288.139 815.172 287.761 818.582 286.731L818.845 289.182C815.212 289.459 811.545 291.573 809.36 291.204L808.63 289.112Z" fill="black" fill-opacity="0.988235"/>
</g>
<defs>
<clipPath id="clip0_2077_7963">
<rect width="880" height="1168" fill="white"/>
</clipPath>
</defs>
</svg>
