<svg width="772" height="1025" viewBox="0 0 772 1025" fill="none" xmlns="http://www.w3.org/2000/svg">
<g clip-path="url(#clip0_2096_9670)">
<path d="M509.412 691.837C512.233 688.931 514.754 685.816 517.638 682.977C520.212 680.452 523.114 680.638 526.405 679.331C529.449 668.23 515.218 632.729 525.543 626.73C535.736 630.585 545.092 673.041 544.501 684.135C544.235 689.14 540.949 688.378 542.046 694.885C535.086 706.338 536.416 705.15 523.136 710.006C522.755 710.065 522.374 710.125 521.993 710.193C504.186 710.962 489.817 705.553 473.994 697.418C462.272 691.396 417.427 649.433 424.537 636.651C428.011 635.134 431.935 635.874 434.875 637.876C450.158 648.283 461.924 664.935 477.359 676.111C489.044 684.575 496.046 687.594 509.412 691.837Z" fill="#029CDC"/>
<path d="M531.455 688.625C534.111 691.8 535.848 690.522 538.992 692.158C540.209 694.31 539.645 693.585 542.045 694.885C535.086 706.338 536.415 705.15 523.135 710.006C522.754 710.065 522.373 710.125 521.992 710.192C523.506 708.586 526.237 706.883 528.124 705.112C526.665 701.736 521.361 701.975 520.924 697.417C521.09 700.622 519.008 705.598 517.108 708.086L515.412 708.16L514.145 706.987C513.683 704.582 513.78 704.44 514.339 702.004C516.025 698.321 516.494 697.051 519.14 694.033C523.522 693.906 529.045 695.004 531.455 688.625Z" fill="#027FCE"/>
<path d="M519.141 694.033C520.372 696.566 518.648 702.961 517.244 705.404L516.066 705.919C514.716 704.38 514.775 704.089 514.34 702.004C516.026 698.321 516.495 697.051 519.141 694.033Z" fill="#0475C8"/>
<path d="M531.08 686.839C533.259 684.822 533.591 683.776 536.075 683.455C537.772 684.829 538.229 686.241 539.182 688.206C539.869 690.754 539.892 689.678 538.993 692.158C535.849 690.522 534.112 691.8 531.456 688.625L531.08 686.839Z" fill="#0475C8"/>
<path d="M531.454 688.625L530.801 688.004C526.798 687.295 523.915 692.36 520.527 689.842C521.565 685.435 522.716 686.376 526.319 685.076C528.377 684.336 526.882 682.065 530.629 679.01C529.036 682.491 529.03 683.604 531.079 686.839L531.454 688.625Z" fill="#027FCE"/>
<path d="M530.629 679.01C533.572 679.936 536.687 680.481 538.363 682.992C538.909 685.181 539.031 685.957 539.18 688.206C538.227 686.241 537.77 684.829 536.073 683.455C533.589 683.776 533.257 684.822 531.078 686.839C529.029 683.604 529.035 682.491 530.629 679.01Z" fill="#027FCE"/>
<path d="M436.458 470.773C444.286 471.863 451.166 473.538 457.06 479.039C462.501 484.068 465.688 491.074 465.902 498.48C466.535 517.119 457.238 532.733 437.285 533.062C430.758 532.016 424.122 530.096 418.664 526.264C412.043 521.602 407.552 514.49 406.185 506.511C403.714 491.449 413.144 475.393 428.457 472.058C431.013 471.502 433.861 471.148 436.458 470.773Z" fill="#018CD5"/>
<path d="M450.208 489.775C452.407 490.358 453.352 490.88 454.504 492.68C453.623 493.341 447.47 498.607 447.309 499.026C446.172 502.029 446.714 505.234 443.531 508.424C441.155 508.962 440.525 509.081 438.64 510.62C438.184 508.498 438.236 507.505 436.711 506.153L434.853 506.616L434.195 507.878C434.872 510.426 435.567 510.77 437.658 512.45L437.382 512.869C433.613 511.076 429.358 512.637 427.336 509.895C422.647 503.545 432.65 495.993 436.393 492.87C443.193 493.364 445.153 494.76 450.208 489.775Z" fill="#029CDC"/>
<path d="M578.766 503.075C559.831 505.346 531.758 521.072 518.788 500.004C516.111 495.656 513.818 490.024 517.247 485.568C518.72 484.977 519.576 484.428 521.108 484.75C522.968 487.437 525.706 491.658 527.822 493.923C532.697 495.596 536.042 496.762 541.271 496.747L563.593 488.595C575.225 486.105 586.817 487.806 596.84 494.274C599.028 491.986 601.18 489.217 604.151 488.353L605.932 488.734C608.487 493.908 603.953 501.259 600.926 505.458C591.104 510.979 587.899 508.043 578.766 503.075Z" fill="#018CD5"/>
<path d="M541.27 496.747L563.591 488.595C563.03 497.755 551.79 499.541 544.253 499.332C542.481 498.286 542.534 498.36 541.27 496.747Z" fill="#029CDC"/>
<path d="M471.371 445.988C470.13 439.193 471.377 436.019 477.583 433.422C479.779 435.574 486.093 436.473 492.326 441.507C496.145 445.374 493.565 449.412 499.83 452.758C495.524 467.647 483.648 471.884 472.396 459.662C470.921 454.517 471.048 451.265 471.371 445.988Z" fill="#018CD5"/>
<path d="M471.371 445.988C470.13 439.193 471.377 436.019 477.583 433.422C479.779 435.574 486.093 436.473 492.326 441.507C491.933 447.792 498.201 453.474 493.393 458.344C488.4 459.857 480.178 456.312 477.27 452.071C481.065 450.795 487.623 455.907 491.489 453.379C494.834 445.943 484.296 431.953 471.371 445.988Z" fill="#027FCE"/>
<path d="M608.509 427.95C617.654 427.014 619.72 430.514 624.095 437.51C624.28 440.44 624.172 444.102 624.16 447.093C620.984 452.958 620.28 453.855 614.317 456.723C597.084 459.517 592.699 437.532 608.509 427.95Z" fill="#027FCE"/>
<path d="M565.967 449.735C571.664 449.253 578.074 448.534 579.373 455.627C578.239 459.67 575.629 460.97 572.153 462.925C566.169 463.444 561.47 463.764 558.199 457.681C557.949 452.088 561.242 451.218 565.967 449.735Z" fill="#018CD5"/>
<path d="M477.582 433.422C492.189 430.734 503.672 435.972 499.829 452.758C493.564 449.412 496.144 445.374 492.325 441.507C486.092 436.473 479.777 435.574 477.582 433.422Z" fill="#029CDC"/>
<path d="M10.2246 495.649C11.5383 493.826 12.9842 491.999 14.6633 490.495C37.5658 469.993 154.902 447.629 188.557 443.733C203.709 441.912 218.99 441.426 234.226 442.28C239.793 445.768 243.514 449.13 247.746 454.118C246.536 460.055 247.006 464.712 246.44 470.231C245.012 484.177 245.458 505.906 241.662 518.935C256.205 514.938 279.273 512.57 294.157 515.409C298.743 516.29 311.086 521.198 313.526 524.956C315.749 534.026 298.866 589.115 295.452 601.344C310.37 594.538 319.883 593.485 335.748 593.732C338.818 596.451 339.574 597.093 341.852 600.455C341.109 603.735 339.766 608.217 340.341 611.385C342.461 613.544 344.008 611.549 346.091 609.928C344.034 613.506 343.889 614.373 342.954 618.437C345.908 619.132 345.702 618.572 347.214 620.424C346.63 623.943 346.032 624.324 347.706 627.529L348.663 627.163C348.811 624.242 353.797 621.508 355.688 618.4L356.863 618.348C355.613 622.852 353.678 628.059 354.518 632.534C355.671 634.141 355.725 634.268 357.195 635.545C360.269 636.202 363.861 637.868 366.702 639.273C378.695 645.19 378.899 650.643 369.17 657.897C362.308 658.779 358.001 658.435 351.143 657.688L348.753 657.359C346.561 659.339 343.073 704.32 342.765 710.237L342.318 719.613C342.269 746.47 350.249 761.128 375.172 773.365C387.138 779.147 400.272 782.098 413.559 781.993C431.926 781.814 453.728 777.07 471.596 773.021C482.452 770.429 493.242 768.098 504.325 766.865C534.224 763.533 567.75 769.838 597.088 768.576C619.077 767.635 654.217 754.763 664.114 734.494C669.569 723.318 661.17 703.887 655.289 693.563C652.46 688.438 648.718 684.396 646.87 678.419C634.015 689.879 633.641 702.677 612.236 707.817C609.8 708.93 610.549 709.042 608.481 708.482C605.949 707.652 604.078 707.458 601.469 707.07L595.868 704.619C594.013 703.013 591.92 701.511 589.95 700.032C590.555 697.275 591 693.436 592.741 691.493C594.975 688.99 597.647 686.338 596.246 682.977C601.84 680.414 608.487 679.069 613.349 683.97C615.079 684.859 615.176 684.77 617.042 684.979C619.501 684.008 624.505 676.462 626.213 673.952C639.145 654.961 642.424 631.234 639.257 608.837C638.293 602.024 635.913 593.918 634.575 586.672C621.107 590.355 618.206 592.79 602.792 595.241L608.293 587.867L603.537 587.942C607.656 582.443 620.982 573.284 626.686 568.6C633.604 562.915 639.169 557.678 645.662 551.485C658.084 536.82 665.795 520.078 668.052 500.998C657.822 502.574 650.065 502.387 642.888 493.744C637.598 487.276 635.142 478.947 636.076 470.646C637.025 462.441 640.431 456.766 646.741 451.717C653.498 447.593 653.289 449.941 660.071 448.759C663.314 448.303 667.29 449.879 669.681 451.948C705.22 482.73 687.533 538.508 658.046 566.912C655.154 569.698 648.964 574.868 647.819 578.237C649.915 585.155 652.712 591.483 654.893 598.333C661.618 619.453 660.916 640.812 655.692 662.193C676.518 687.706 697.165 727.808 665.026 756.981C662.814 758.991 658.136 762.002 656.955 764.445C662.881 768.987 675.084 779.087 673.417 787.581C671.377 789.972 669.756 790.024 668.896 791.526C669.046 794.813 669.666 795.993 668.276 798.518C666.206 798.899 665.997 798.78 663.875 798.384C648.692 799.348 622.928 792.863 608.898 786.991C603.124 784.354 599.495 785.026 593.369 785.758C574.58 788.044 555.755 784.967 536.924 784.511C500.703 783.629 467.064 796.539 431.742 801.574C428.621 802.022 420.097 810.516 417.041 812.907C401.185 825.301 384.305 834.848 363.697 835.82C360.272 835.095 358.382 834.721 356.417 831.823C351.228 830.784 342.924 825.585 341.988 820.288C342.751 818.219 342.758 817.95 344.202 816.344C344.931 813.826 345.657 811.249 346.479 808.746C348.531 802.523 356.664 793.857 357.189 787.656C354.405 786.872 348.41 782.666 345.997 780.701C329.042 766.94 321.169 743.803 319.66 722.609C319.066 714.249 319.886 705.561 318.971 697.395L317.824 696.491C313.765 696.304 310.37 698.112 305.688 698.919L304.944 699.046C301.555 699.636 300.943 700.107 298.19 702.139C296.795 702.034 294.389 700.57 292.654 699.86C290.9 698.471 290.725 698.292 289.366 696.528C283.943 692.703 276.332 696.2 270.547 698.127L265.521 699.666C262.626 702.184 260.234 703.02 257.431 705.628C248.337 706.913 244.977 704.283 246.756 695.161C250.182 680.84 257.631 665.211 260.592 652.235C249.759 654.169 237.76 657.741 227.5 661.693C223.96 663.635 218.476 664.33 214.686 662.783L215.533 660.146C209.725 645.593 214.501 617.899 216.084 601.68C187.654 608.001 160.419 620.522 132.183 627.813C124.644 629.763 113.946 631.668 107.104 635C103.576 639.684 103.327 639.176 97.6666 641.185C73.6768 628.747 37.5442 552.329 25.2302 525.741C20.784 516.141 18.2434 502.596 10.2246 495.649ZM343.342 664.195C336.696 663.725 339.135 660.124 336.535 662.253C336.977 665.264 339.38 665.51 341.513 667.751C341.589 669.619 341.654 671.188 341.705 672.45C342.977 668.872 341.702 666.272 343.342 664.195ZM225.77 533.69C224.969 517.202 227.171 494.872 230.016 478.359C230.782 473.913 234.323 464.958 232.483 462.236C226.346 460.856 208.596 461.923 201.644 462.262C157.578 464.415 115.608 475.675 73.0566 486.22C60.2606 489.391 39.9145 495.91 27.6976 498.136C48.4085 525.061 63.1249 560.741 82.4339 589.145C88.6525 598.296 94.1777 609.98 101.417 618.355C112.756 611.878 143.137 604.243 155.724 600.478C169.725 596.286 225.374 577.894 236.461 583.579C238.668 586.679 239.263 587.314 240.164 591.057C241.293 604.063 237.206 627.492 234.969 640.468C247.342 636.643 260.621 631.339 273.805 633.819C296.103 638.018 284.045 659.436 280.408 674.811C284.573 673.817 288.784 672.271 292.851 670.882C297.151 663.239 301.523 652.339 305.397 644.069C310.287 633.625 316.831 622.426 321.348 612.162C306.295 615.397 290.045 623.345 277.092 617.623C272.777 597.295 290.4 554.077 298.654 534.571C278.661 530.335 258.381 531.882 238.543 536.013C235.228 536.865 230.761 538.545 227.755 537.761C225.873 535.751 226.459 536.581 225.77 533.69ZM650.552 778.833C648.412 775.18 647.607 773.409 646.022 769.457C641.943 771.385 637.84 773.26 633.714 775.075L634.282 775.434C637.279 777.324 646.476 778.228 650.552 778.833ZM368.135 793.244C367.964 798.324 366.912 801.186 365.478 805.989C381.985 802.702 375.991 811.674 380.58 814.528L381.351 814.259C385.713 812.72 404.21 804.615 405.906 801.073C404.77 799.766 394.859 799.183 392.134 798.855C383.838 797.876 376.136 795.493 368.135 793.244Z" fill="#0093D8"/>
<path d="M656.954 764.445C662.88 768.987 675.082 779.087 673.416 787.581C671.376 789.972 669.754 790.024 668.895 791.526C669.044 794.813 669.665 795.993 668.275 798.518C666.205 798.899 665.996 798.78 663.873 798.384C648.69 799.348 622.927 792.863 608.896 786.991C611.838 781.134 624.053 781.388 629.447 776.637C630.919 775.337 631.745 775.344 633.713 775.075L634.28 775.434C637.278 777.324 646.474 778.228 650.551 778.833C648.41 775.18 647.606 773.409 646.02 769.457C651.98 764.676 652.437 767.328 656.954 764.445Z" fill="#0298DA"/>
<path d="M663.874 798.384C662.058 794.597 658.755 790.958 658.732 788.007C663.171 784.205 666.354 788.538 668.895 791.526C669.044 794.813 669.665 795.994 668.275 798.519C666.205 798.9 665.996 798.78 663.874 798.384Z" fill="#027FCE"/>
<path d="M348.663 627.163C348.811 624.242 353.797 621.508 355.688 618.4L356.863 618.348C355.613 622.852 353.678 628.06 354.517 632.535C355.671 634.141 355.725 634.268 357.195 635.545C360.269 636.203 363.861 637.869 366.701 639.273C378.695 645.19 378.899 650.644 369.17 657.898C362.308 658.779 358.001 658.435 351.143 657.688L355.068 656.919C354.074 655.425 352.242 655.38 350.084 654.782L351.08 654.61C348.141 653.101 348.335 653.692 344.468 654.058L349.01 651.667C342.666 651.794 342.093 654.013 336.96 649.68C334.871 647.282 332.798 644.555 330.819 642.045C331.901 638.675 333.133 637.114 332.073 634.417C330.719 633.946 329.693 633.551 328.368 632.998L326.982 631.959C326.295 626.252 329.016 623.652 333.975 621.336C336.754 621.508 337.341 622.389 339.487 624.22C340.748 624.13 340.508 624.332 341.475 623.756L342.954 618.437C345.908 619.132 345.702 618.572 347.214 620.425C346.63 623.943 346.032 624.324 347.706 627.529L348.663 627.163Z" fill="#0093D8"/>
<path d="M333.975 621.336C336.754 621.508 337.341 622.389 339.487 624.22C340.748 624.13 340.508 624.332 341.475 623.756C340.902 625.744 340.828 625.632 339.165 626.991L339.39 628.291C340.916 631.548 340.869 632.213 341.016 635.739L341.674 637.6C342.981 640.035 341.524 642.142 342.09 645.369L342.574 645.407C343.342 643.083 343.853 641.469 344.403 639.056C345.613 638.773 345.335 638.66 346.454 638.862C349.535 637.876 352.058 638.115 354.804 640.035L354.437 640.536L352.206 640.155C350.671 643.001 353.178 645.81 349.01 651.667C342.666 651.794 342.093 654.013 336.96 649.68C334.871 647.282 332.798 644.555 330.819 642.045C331.901 638.675 333.133 637.114 332.073 634.417C330.719 633.946 329.693 633.551 328.368 632.998L326.982 631.959C326.295 626.252 329.016 623.652 333.975 621.336Z" fill="#027FCE"/>
<path d="M346.453 638.862C345.252 641.424 344.78 644.585 344.274 647.379C341.4 646.803 335.381 640.461 337.609 636.606L341.015 635.739L341.673 637.599C342.98 640.035 341.523 642.142 342.089 645.369L342.573 645.406C343.34 643.083 343.851 641.469 344.401 639.056C345.611 638.772 345.333 638.66 346.453 638.862Z" fill="#0475C8"/>
<path d="M326.982 631.959C326.295 626.252 329.016 623.652 333.975 621.336C334.198 625.363 333.805 628.037 331.38 631.294L328.368 632.998L326.982 631.959Z" fill="#0475C8"/>
<path d="M342.953 618.437C345.907 619.132 345.701 618.572 347.213 620.424C346.628 623.943 346.031 624.324 347.704 627.529C349.232 631.429 349.086 630.861 345.12 633.304C344.985 634.051 344.732 635.202 344.689 635.919C342.184 634.021 343.456 632.923 342.063 632.213C341.577 633.401 341.704 636.128 341.673 637.6L341.015 635.739C340.868 632.213 340.915 631.548 339.389 628.291L339.164 626.991C340.827 625.632 340.901 625.744 341.474 623.756L342.953 618.437Z" fill="#0475C8"/>
<path d="M339.389 628.291C341.414 626.782 341.491 626.64 343.921 626.416C346.174 627.111 346.383 627.305 347.903 629.12C345.901 631.205 346.887 630.547 343.833 631.406C340.524 630.36 341.722 631.13 339.389 628.291Z" fill="#0661BA"/>
<path d="M347.705 627.529L348.663 627.163C350.682 631.115 350.962 634.335 353.629 637.219L354.401 637.532C351.398 636.741 347.818 636.352 344.689 635.919C344.733 635.202 344.986 634.051 345.121 633.304C349.087 630.861 349.233 631.429 347.705 627.529Z" fill="#027FCE"/>
<path d="M611.543 687.407C611.572 691.389 617.951 692.083 620.837 690.604C624.499 679.181 625.509 684.874 632.088 682.394C632.85 679.704 633.06 677.77 633.44 675.035C635.371 675.207 635.784 675.364 637.609 674.602C641.018 667.632 636.663 666.683 643.569 661.521C642.632 664.561 642.14 666.324 640.724 669.193L647.781 675.379C647.503 676.634 647.476 677.306 646.869 678.419C634.015 689.88 633.64 702.677 612.235 707.817C609.799 708.93 610.548 709.042 608.48 708.482C605.949 707.652 604.077 707.458 601.468 707.07L595.867 704.619C594.012 703.013 591.92 701.511 589.949 700.032C590.554 697.275 590.999 693.436 592.74 691.493C594.974 688.991 597.647 686.338 596.246 682.977C601.839 680.414 608.486 679.069 613.348 683.97L611.543 687.407Z" fill="#018CD5"/>
<path d="M596.246 682.977C601.839 680.414 608.486 679.069 613.348 683.97L611.543 687.407L610.927 687.997C610.396 688.99 610.091 689.887 609.268 690.537C603.735 691.202 599.153 691.269 597.807 697.612L598.372 698.941L600.056 699.554C603.322 697.791 601.589 695.946 605.677 694.22L606.809 694.631C606.73 699.816 603.085 703.103 601.468 707.07L595.867 704.619C594.012 703.013 591.92 701.511 589.949 700.032C590.554 697.275 590.999 693.436 592.74 691.493C594.974 688.99 597.647 686.338 596.246 682.977Z" fill="#0475C8"/>
<path d="M596.246 682.977C601.839 680.414 608.486 679.069 613.348 683.97L611.543 687.407L610.927 687.997C610.396 688.99 610.091 689.887 609.268 690.537L608.202 688.669C602.986 686.219 600.092 691.68 592.74 691.493C594.975 688.99 597.647 686.338 596.246 682.977Z" fill="#027FCE"/>
<path d="M608.48 708.482C608.968 705.665 610.624 697.657 613.84 697.328L614.463 699.33C613.946 701.183 612.445 706.188 612.235 707.817C609.799 708.93 610.548 709.042 608.48 708.482Z" fill="#0475C8"/>
<path d="M336.959 649.68C342.092 654.013 342.665 651.794 349.009 651.667L344.467 654.058C348.334 653.691 348.14 653.101 351.079 654.61L350.083 654.782C352.241 655.38 354.072 655.425 355.067 656.919L351.142 657.688L348.752 657.36C346.56 659.339 343.071 704.32 342.764 710.237L342.317 719.613C341.56 722.108 341.489 724.163 341.249 726.747C340.828 725.201 340.458 717.319 340.328 715.272L340.135 723.602C338.766 717.939 338.817 712.314 338.617 706.494L337.462 706.173C335.683 701.369 335.473 700.279 337.296 695.886C342.568 687.28 331.526 679.443 325.906 675.147L328.569 675.058C335.207 671.24 330.696 661.409 331.706 655.365C331.96 653.848 335.653 652.205 336.959 649.68ZM343.341 664.195C336.695 663.725 339.133 660.124 336.534 662.253C336.975 665.264 339.378 665.51 341.512 667.751C341.588 669.619 341.652 671.188 341.704 672.45C342.976 668.872 341.701 666.272 343.341 664.195Z" fill="#018CD5"/>
<path d="M341.703 672.45C341.652 671.188 341.588 669.619 341.511 667.751C339.378 665.51 336.975 665.264 336.533 662.253C339.133 660.124 336.695 663.725 343.341 664.195C341.7 666.272 342.975 668.872 341.703 672.45Z" fill="#0093D8" fill-opacity="0.988235"/>
<path d="M344.467 654.058C348.334 653.692 348.14 653.101 351.079 654.611L350.083 654.782C352.241 655.38 354.073 655.425 355.067 656.919L351.142 657.688L348.752 657.36C346.56 659.339 343.072 704.321 342.764 710.237L342.317 719.613C341.56 722.108 341.489 724.163 341.249 726.748C340.828 725.201 340.458 717.32 340.328 715.273L340.135 723.602C338.766 717.94 338.817 712.314 338.617 706.495C338.924 696.177 339.283 682.491 341.704 672.451C342.976 668.872 341.701 666.272 343.341 664.195C343.814 662.739 344.139 656.433 344.467 654.058Z" fill="#029CDC"/>
<path d="M326.981 631.959L328.367 632.998C329.692 633.55 330.718 633.946 332.072 634.417C333.132 637.114 331.9 638.675 330.818 642.045C332.797 644.555 334.869 647.282 336.959 649.68C335.653 652.205 331.96 653.848 331.706 655.365C330.696 661.409 335.206 671.24 328.569 675.058L325.906 675.147C324.477 674.363 323.915 674.557 322.299 674.669H320.036L319.167 673.601C318.839 672.189 318.39 669.246 318.947 668.043C321.727 662.014 326.686 643.509 328.984 639.251C328.872 635.538 327.92 635.336 325.482 633.013L325.617 632.527L326.981 631.959Z" fill="#029CDC"/>
<path d="M357.188 787.656L358.091 786.969C361.575 787.895 365.694 790.637 368.134 793.244C367.963 798.324 366.911 801.186 365.477 805.989C362.134 808.029 360.417 806.916 357.22 808.133C353.41 809.59 347.775 815.925 344.201 816.344C344.93 813.826 345.656 811.249 346.479 808.746C348.531 802.523 356.664 793.857 357.188 787.656Z" fill="#029CDC"/>
<path d="M253.741 695.049C254.983 693.361 256.291 691.239 258.261 690.866C262.308 690.104 266.496 680.078 269.603 680.676C270.578 681.931 271.264 683.089 272.652 683.798C271.553 685.121 270.889 685.733 269.619 686.906L269.951 688.303C271.268 688.355 275.405 684.516 276.806 683.365C271.621 688.893 266.382 692.629 265.519 699.666C262.624 702.184 260.233 703.02 257.43 705.628C256.571 699.92 253.528 700.563 253.741 695.049Z" fill="#027FCE"/>
<path d="M645.661 551.485C644.39 558.231 635.719 560.42 636.443 563.333C642.551 562.243 642.681 558.328 646.016 557.962C645.145 561.72 635.01 566.449 631.593 568.219C627.222 576.445 617.146 582.63 609.334 588.002L608.292 587.867L603.535 587.942C607.655 582.443 620.981 573.284 626.685 568.6C633.602 562.915 639.168 557.678 645.661 551.485Z" fill="#029CDC"/>
<path d="M270.546 698.127C267.835 689.954 284.131 680.623 290.333 684.747C291.428 686.876 291.298 687.048 290.88 689.529C289.828 691.568 290.11 692.285 290.299 694.691L289.364 696.529C283.941 692.704 276.331 696.2 270.546 698.127Z" fill="#029CDC"/>
<path d="M296.146 687.944C298.816 686.697 297.676 686.831 300.454 687.28C305.133 690.813 302.077 695.699 305.687 698.919L304.942 699.046C301.554 699.636 300.941 700.107 298.189 702.139C296.794 702.034 294.387 700.57 292.652 699.86C293.563 697.798 296.067 695.841 297.862 693.413C298.034 690.26 297.9 691.067 296.146 687.944Z" fill="#027FCE"/>
<path d="M215.532 660.146L218.047 656.224L218.754 656.321L218.157 660.692L219.4 662.148C221.779 659.265 218.604 656.792 221.731 655.141C225.51 653.154 230.223 650.942 233.41 648.111C229.535 653.4 226.841 655.328 227.499 661.693C223.959 663.635 218.476 664.33 214.686 662.783L215.532 660.146Z" fill="#0475C8"/>
<path d="M357.087 820.281C358.871 818.323 358.976 817.987 361.415 817.352L362.92 818.009C364.425 822.201 361.876 824.703 358.543 826.855C363.871 831.337 359.756 830.784 363.696 835.82C360.271 835.095 358.382 834.721 356.416 831.823C357.79 830.388 357.335 831.225 357.694 829.156C356.129 827.52 355.789 827.004 354.609 825.062C354.943 822.328 355.28 822.626 357.087 820.281Z" fill="#0475C8"/>
<path d="M643.569 661.521C646.373 662.761 647.824 663.463 650.871 664.203C653.104 667.497 649.603 671.942 647.781 675.379L640.725 669.193C642.141 666.324 642.632 664.561 643.569 661.521Z" fill="#0475C8"/>
<path d="M290.881 689.528C292.87 688.938 292.16 689.513 293.217 687.937C291.198 683.955 291.016 684.135 293.362 680.638C294.116 682.058 293.651 682.185 293.085 684.291L294.159 685.375C294.79 683.253 294.848 681.669 296.311 680.459L296.936 681.445L295.466 687.22L296.147 687.945C297.9 691.067 298.035 690.261 297.863 693.413C296.067 695.841 293.564 697.798 292.653 699.86C290.899 698.471 290.724 698.292 289.365 696.528L290.3 694.691C290.111 692.285 289.829 691.568 290.881 689.528Z" fill="#018CD5"/>
<path d="M322.3 674.669C323.916 674.557 324.477 674.363 325.907 675.147C331.526 679.443 342.568 687.28 337.296 695.886C337.303 693.353 337.286 692.136 336.912 689.64L335.725 689.185C335.745 685.838 334.631 683.604 332.203 681.333L330.846 681.535L329.981 683.559C326.713 679.256 323.175 682.244 321.207 676.231L322.3 674.669Z" fill="#027FCE"/>
<path d="M329.98 683.559L330.846 681.535L332.203 681.333C334.631 683.604 335.745 685.838 335.725 689.185C334.956 690.156 334.154 691.052 333.334 691.986C331.166 690.604 330.825 686.697 329.98 683.559Z" fill="#0475C8"/>
<path d="M328.985 639.25L326.724 639.243C324.42 638.063 323.964 638.04 322.814 635.881C323.55 633.61 322.99 634.409 325.483 633.012C327.921 635.336 328.873 635.538 328.985 639.25Z" fill="#0475C8"/>
<path d="M233.941 510.889C235.666 510.194 236.526 509.253 237.853 507.975L238.988 508.468L239.486 509.865C236.829 515.558 241.065 529.207 238.542 536.013C235.228 536.865 230.76 538.545 227.754 537.761C225.872 535.751 226.458 536.581 225.77 533.69C232.68 526.017 233.51 521.55 233.941 510.889Z" fill="#027FCE"/>
<path d="M651.867 474.345C654.349 475.944 655.945 476.721 656.08 479.738L654.532 480.123C647.652 477.499 640.255 468.582 648.56 463.65C651.633 464.476 652.561 466.845 654.253 469.692L655.99 468.765C659.166 469.84 660.959 472.851 659.666 476.069C655.863 476.557 656.565 474.737 651.867 474.345Z" fill="#027FCE"/>
<path d="M654.253 469.693L655.99 468.765C659.166 469.84 660.959 472.851 659.666 476.069C655.863 476.557 656.565 474.737 651.866 474.345L651.17 473.923C651.407 471.774 652.373 471.521 654.253 469.693Z" fill="#029CDC"/>
<path d="M227.466 449.122C234.957 449.209 238.539 452.893 238.02 460.272L237.263 460.567C235.795 458.522 235.399 458.114 233.463 456.47L232.98 456.065C230.665 456.759 230.449 456.916 228.104 456.691C227.187 454.81 226.916 454.541 225.556 452.914C225.073 454.769 225.006 456.005 223.543 457.178L222.395 456.696C224.271 453.117 224.724 452.053 227.466 449.122Z" fill="#029CDC"/>
<path d="M330.343 603.055C334.233 602.233 337.468 601.673 341.014 603.847C338.872 607.709 337.372 617.332 333.915 618.863L333.678 618.265L334.673 618.759L333.637 617.795C333.924 613.962 335.806 613.701 336.295 609.689C334.318 606.932 333.647 608.016 329.994 606.29C331.037 604.415 330.807 605.438 330.343 603.055Z" fill="#018CD5"/>
<path d="M330.344 603.055C334.233 602.233 337.469 601.673 341.015 603.847C338.83 605.543 337.266 606.312 334.561 606.409C332.077 605.67 331.994 605.251 330.344 603.055Z" fill="#0475C8"/>
<path d="M233.941 510.889C233.455 505.503 230.384 498.689 238.091 497.628C240.533 500.691 240.435 501.214 240.341 505.674L239.486 509.865L238.987 508.468L237.853 507.975C236.525 509.253 235.666 510.194 233.941 510.889Z" fill="#018CD5"/>
<path d="M238.092 497.628C240.533 500.691 240.435 501.214 240.341 505.674C237.532 506.13 236.352 506.16 234.342 504.352L234.285 502.447C235.555 499.772 235.795 499.504 238.092 497.628Z" fill="#027FCE"/>
<path d="M20.1833 488.849C24.0428 488.992 28.2633 489.401 28.9366 493.789L27.7963 495.186C24.1318 495.141 20.6817 495.634 18.1328 493.306C18.345 490.678 18.419 491.346 20.1833 488.849Z" fill="#027FCE"/>
<path d="M298.914 678.33C302.268 680.16 304.722 682.857 306.681 686.084L305.943 687.803C302.59 685.651 300.353 686.69 297.931 684.209C297.372 682.058 298.192 680.519 298.914 678.33Z" fill="#0475C8"/>
<path d="M236.461 583.579C238.668 586.679 239.263 587.314 240.164 591.057C237.929 591.685 237.383 591.924 235.101 591.954L234.486 590.893C235.645 587.987 235.832 587.314 236.342 584.311L236.461 583.579Z" fill="#027FCE"/>
<path d="M412.275 804.01C414.522 804.57 414.567 804.809 416.093 806.714C416.493 809.829 416.781 808.664 415.144 811.122C412.82 810.068 411.998 809.949 410.578 807.976C410.567 805.354 410.303 806.37 412.275 804.01Z" fill="#027FCE"/>
<path d="M651.019 644.921L652.586 646.542C652.84 649.456 651.755 651.002 650.465 653.669C648.768 652.212 648.852 651.742 648.312 649.426C649.097 646.198 648.457 647.409 651.019 644.921Z" fill="#027FCE"/>
<path d="M307.312 664.27C309.34 664.935 308.574 664.322 309.635 666.242C309.239 668.289 308.893 668.401 307.285 669.91C306.14 669.358 305.123 668.685 304.044 668.02L304.043 666.892L307.312 664.27Z" fill="#027FCE"/>
<path d="M374.672 394.305C354.431 390.151 327.317 371.725 311.994 358.407C273.886 325.117 244.022 282.584 221.861 237.288C217.975 229.347 199.528 191.431 206.036 184.081C216.993 180.14 251.005 190.196 261.809 194.274C269.96 197.465 309.82 216.543 314.276 221.235C352.049 243.727 413.245 293.464 434.603 331.196C442.374 327.41 447.991 323.145 456.633 319.354C482.715 307.912 513.15 302.163 541.536 306.036C549.989 307.19 556.935 310.256 564.595 312.164L564.498 312.693C563.809 316.27 562.559 317.213 562.774 321.037L563.744 322.519L564.631 322.385C564.643 318.494 564.012 318.814 565.958 316.275C568.108 315.268 568.179 315.259 570.568 315.759C577.477 320.78 572.335 326.306 568.599 331.25C563.088 332.934 564.751 327.535 560.982 326.657C517.076 316.433 477.622 327.916 437.727 346.207C431.921 347.883 421.721 355.21 415.323 354.298L414.545 353.186C414.749 349.122 417.875 346.757 418.87 342.309C385.308 302.639 355.131 274.114 310.593 246.346C302.9 241.55 290.045 232.899 282.254 229.154C282.588 245.786 284.551 262.289 286.23 278.826C287.06 287.005 288.082 294.448 286.792 302.651C314.653 336.91 345.911 363.961 386.736 381.392C393.428 384.25 400.87 386.943 407.327 390.116C402.376 395.85 399.905 397.37 392.159 397.977C389.803 398.15 387.441 398.248 385.078 398.269C384.008 402.494 382.88 406.705 381.696 410.899C378.973 403.698 386.249 406.088 375.591 396.506C373.986 399.67 371.628 405.36 368.977 406.964C369.854 404.112 373.184 397.879 374.672 394.305ZM271.845 229.117C271.273 225.74 267.322 222.192 264.143 221.437C264.662 226.123 267.381 227.725 271.845 229.117Z" fill="#0093D8"/>
<path d="M418.87 342.31C421.364 338.772 430.943 333.823 435.028 336.622C436.381 339.557 437.223 343.014 437.727 346.207C431.922 347.883 421.721 355.21 415.324 354.298L414.545 353.186C414.749 349.122 417.875 346.757 418.87 342.31Z" fill="#027FCE"/>
<path d="M261.81 194.274C269.961 197.465 309.821 216.543 314.277 221.235L313.443 221.854C301.479 216.315 283.71 203.226 271.547 200.962L271.653 201.608C274.598 203.65 277.054 205.267 280.126 207.109C276.624 207.711 265.795 200.51 262.935 197.998L261.027 196.874L261.81 194.274Z" fill="#029CDC"/>
<path d="M262.934 197.998C261.71 200.846 262.183 201.015 259.844 202.503C255.859 202.302 254.18 200.743 254.295 196.463L255.502 195.394C258.212 195.083 258.5 195.474 261.027 196.874L262.934 197.998Z" fill="#027FCE"/>
<path d="M252.269 222.298L254.444 223.582C256.125 226.037 255.562 228.892 256.219 232.019C259.245 234.314 263.572 237.213 262.117 241.246C260.251 242.503 261.241 242.204 259.077 242.283C255.787 240.386 256.898 241.459 254.903 238.165L254.11 234.855C250.313 231.452 249.699 231.452 250.24 226.13L251.036 225.558L250.853 224.252C251.204 227.469 250.84 230.223 252.693 232.056L253.892 231.784L254.568 230.139C253.918 226.493 253.738 225.717 252.269 222.298Z" fill="#029CDC"/>
<path d="M237.846 234.89C239.975 235.675 243.925 240.617 247.863 243.33C240.3 244.278 238.597 242.458 237.846 234.89Z" fill="#029CDC"/>
<path d="M263.043 211.072C265.045 212.043 265.273 213.079 266.029 215.092C265.812 217.613 266.22 216.734 264.717 218.63L262.122 218.844L260.728 217.816C260.736 216.338 260.613 214.829 260.521 213.351L263.043 211.072Z" fill="#0475C8"/>
<path d="M264.145 221.438C267.323 222.193 271.275 225.74 271.846 229.117C267.382 227.726 264.663 226.123 264.145 221.438Z" fill="#029CDC" fill-opacity="0.988235"/>
<path d="M662.237 116.021C663.387 116.066 665.278 115.914 665.741 116.944C674.634 136.775 673.759 189.384 671.906 209.041C667.856 251.994 656.423 292.983 641.257 332.572C639.678 336.697 634.999 347.537 632.89 350.627C627.66 347.08 624.545 344.584 619.666 340.624C618.952 343.406 619.447 343.324 617.691 344.939C617.656 343.296 618.389 340.458 618.759 338.748L619.914 337.637C628.183 305.034 642.459 267.93 645.76 234.051C646.346 228.041 631.718 189.374 628.08 182.199C627.018 184.138 655.392 146.062 652.249 148.659C654.166 152.173 652.035 162.526 655.175 166.02C656.655 165.635 655.99 165.986 657.125 164.77C656.326 164.337 655.504 164.129 654.628 163.884C653.63 161.933 653.901 155.792 654.197 153.409C654.906 147.696 652.941 148.555 652.137 145.649C653.063 142.173 654.29 137.006 655.317 133.723C655.945 131.707 660.652 131.486 659.569 126.176C656.498 123.954 656.341 124.22 657.148 120.841C658.687 121.96 658.844 121.818 660.712 121.951C662.319 120.249 661.93 118.832 662.237 116.021Z" fill="#0093D8"/>
<path d="M564.595 312.165C564.366 307.334 567.829 290.657 569.157 285.312C583.619 227.608 609.384 171.538 646.288 124.705C654.403 114.408 654.237 120.141 662.237 116.021C661.931 118.832 662.32 120.249 660.713 121.951C658.845 121.818 658.688 121.96 657.149 120.841C656.342 124.22 656.499 123.954 659.57 126.176C660.653 131.486 655.946 131.707 655.318 133.723C654.29 137.006 653.063 142.173 652.138 145.649C652.942 148.555 654.907 147.696 654.198 153.409C653.902 155.792 653.631 161.933 654.629 163.884C655.505 164.129 656.327 164.337 657.126 164.77C655.99 165.986 656.655 165.635 655.176 166.02C652.036 162.526 654.166 152.173 652.25 148.659C655.393 146.062 627.019 184.138 628.081 182.199C617.029 201.198 606.071 228.112 598.938 249.084C595.887 258.054 577.492 312.806 579.076 319.338C580.626 320.6 582.048 321.679 583.662 322.857C584.129 324.259 586.974 332.046 586.72 332.861L586.061 332.84L586.655 332.409C584.649 332.743 576.836 328.522 573.749 327.731C571.644 329.648 571.199 330.157 568.599 331.25C572.336 326.307 577.477 320.78 570.568 315.759C568.179 315.26 568.109 315.269 565.959 316.276C564.013 318.814 564.643 318.494 564.632 322.385L563.745 322.519L562.774 321.037C562.56 317.213 563.81 316.27 564.498 312.694L564.595 312.165ZM644.089 154.208C644.983 153.292 644.96 151.822 644.038 150.934C643.116 150.047 641.647 150.079 640.765 151.007C639.892 151.926 639.924 153.378 640.837 154.258C641.75 155.137 643.203 155.115 644.089 154.208Z" fill="#018CD5"/>
<path d="M573.75 327.731C574.322 325.405 574.431 325.135 576.008 323.339C578.761 322.065 580.608 322.556 583.663 322.858C584.13 324.259 586.975 332.046 586.721 332.861L586.062 332.84L586.656 332.409C584.649 332.743 576.837 328.522 573.75 327.731Z" fill="#029CDC"/>
<path d="M640.766 151.007C641.647 150.079 643.116 150.047 644.039 150.934C644.961 151.822 644.984 153.292 644.089 154.208C643.203 155.115 641.75 155.137 640.837 154.258C639.924 153.378 639.892 151.926 640.766 151.007Z" fill="#0093D8" fill-opacity="0.988235"/>
<path d="M375.592 396.507C386.25 406.089 378.973 403.699 381.696 410.9C371.535 453.175 366.012 495.596 377.322 538.381L379.539 539.95C379.663 541.96 379.398 542.415 378.797 544.388L379.48 547.1C376.87 549.864 377.368 548.624 376.895 551.836L376.048 552.755C371.088 553.674 367.636 554.802 362.628 555.698C363.621 549.744 355.774 529.812 354.543 521.751C349.483 488.582 352.139 454.096 362.64 422.206C364.049 417.929 366.468 410.56 368.978 406.964C371.628 405.36 373.986 399.67 375.592 396.507Z" fill="#0191D5"/>
<path d="M377.323 538.381L379.54 539.95C379.664 541.96 379.399 542.415 378.798 544.388C375.231 547.122 374.544 549.781 369.844 548.437C369.091 546.352 369.838 545.964 370.943 543.401L369.56 540.062C371.513 538.247 374.268 540.66 377.323 538.381Z" fill="#027FCE"/>
<path d="M596.576 342.662C596.096 341.009 594.504 333.759 594.943 332.376C600.845 329.382 613.64 335.578 618.759 338.748C618.39 340.458 617.656 343.296 617.691 344.939C619.447 343.324 618.952 343.406 619.667 340.624C624.545 344.584 627.66 347.08 632.89 350.628L631.905 353.595C645.472 374.139 652.309 390.284 648.231 416.566C648.124 417.256 647.707 418.41 647.449 419.095L647.658 419.527C648.345 420.928 648.424 421.25 649.587 422.358C649.081 422.802 647.639 424.003 647.293 424.446C643.716 427.085 640.31 425.231 637.032 426.533C635.984 424.315 636.133 423.089 636.05 420.666C630.192 382.067 621.923 370.919 596.576 342.662Z" fill="#029CDC"/>
<path d="M617.692 344.939C619.448 343.324 618.953 343.406 619.668 340.624C624.547 344.584 627.661 347.079 632.891 350.627L631.906 353.595L631.799 353.598C630.544 354.23 624.899 363.835 622.434 366.754C618.328 362.578 614.72 359.447 616.67 353.182C617.195 351.494 615.695 350.559 614.572 349.28L617.692 344.939Z" fill="#027FCE"/>
<path d="M636.051 420.666C642.792 417.214 642.616 420.46 647.071 420.625L647.45 419.095L647.659 419.527C648.346 420.928 648.425 421.25 649.587 422.358C649.082 422.802 647.64 424.003 647.294 424.446C643.717 427.085 640.311 425.231 637.033 426.533C635.984 424.315 636.134 423.089 636.051 420.666Z" fill="#0661BA"/>
<path d="M376.896 551.836C377.369 548.623 376.871 549.864 379.481 547.099C381.598 551.35 384.567 556.774 384.549 561.57L383.768 563.079C380.464 563.654 379.193 562.444 376.154 560.457C374.514 564.275 374.287 565.791 373.521 569.9L376.695 574.226C387.396 582.585 391.247 589.645 375.195 594.919C371.933 594.247 367.951 593.53 364.8 592.671L359.217 610.234C358.867 611.504 357.291 617.526 356.862 618.347L355.687 618.4C353.796 621.508 348.81 624.242 348.662 627.163L347.705 627.529C346.032 624.324 346.629 623.943 347.213 620.424C345.701 618.572 345.908 619.132 342.953 618.437C343.888 614.373 344.034 613.506 346.09 609.928C344.007 611.549 342.461 613.544 340.341 611.385C339.765 608.217 341.108 603.735 341.852 600.455C345.793 593.664 348.079 583.713 352.022 577.035C353.331 571.842 359.736 560.524 362.629 555.698C367.636 554.802 371.089 553.674 376.049 552.755L376.896 551.836Z" fill="#0093D8"/>
<path d="M347.326 603.772L349.293 603.884C349.7 601.426 349.823 598.737 351.295 596.884C353.309 596.794 352.817 596.974 354.91 598.557C355.539 600.769 355.296 601.449 355.025 603.809C357.799 607.104 358.386 606.611 359.217 610.234C358.867 611.504 357.291 617.526 356.862 618.347L355.687 618.4C353.797 621.508 348.81 624.242 348.662 627.163L347.705 627.529C346.032 624.324 346.629 623.943 347.213 620.424C345.702 618.572 345.908 619.132 342.953 618.437C343.888 614.373 344.034 613.506 346.09 609.928L346.337 608.322L345.275 606.94L343.915 607.238L343.705 606.895L343.437 607.067L344.443 605.924L344.741 606.178L345.182 605.206C345.998 604.855 346.628 604.31 347.326 603.772Z" fill="#027FCE"/>
<path d="M376.896 551.836C377.369 548.623 376.871 549.864 379.481 547.099C381.598 551.35 384.567 556.774 384.549 561.57L383.768 563.079C380.465 563.654 379.194 562.444 376.154 560.457C374.514 564.275 374.287 565.791 373.521 569.9C372.94 572.074 373.006 572.455 371.348 573.77L369.774 573.366C367.113 570.199 364.76 563.931 366.243 559.956L368.558 559.448C372.373 560.323 375.863 559.277 377.886 555.877C377.365 553.494 377.909 554.525 376.049 552.755L376.896 551.836Z" fill="#027FCE"/>
<path d="M376.896 551.836C377.369 548.623 376.871 549.864 379.481 547.099C381.598 551.35 384.567 556.774 384.549 561.57L383.768 563.079C380.464 563.654 379.193 562.444 376.154 560.457C377.662 558.462 377.954 557.992 378.953 555.706C378.578 553.068 378.906 554.032 376.896 551.836Z" fill="#029CDC"/>
<path d="M368.497 586.41C367.2 585.454 366.01 584.356 364.947 583.145C360.605 578.103 359.023 563.214 364.545 558.582C366.975 558.268 366.072 558.246 368.558 559.448L366.243 559.956C364.759 563.931 367.113 570.199 369.774 573.366L371.348 573.77C373.006 572.455 372.939 572.074 373.521 569.9L376.695 574.225L375.805 574.696C367.729 578.88 370.084 576.743 368.497 586.41Z" fill="#0475C8"/>
<path d="M352.022 577.035C353.312 583.228 342.378 598.124 343.698 603.391C346.163 602.188 351.89 586.859 354.742 583.078C353.745 586.358 353.345 587.994 351.676 590.997C351.871 592.013 352.048 593.276 352.396 594.21C347.215 597.93 347.712 597.362 347.326 603.772C346.628 604.31 345.998 604.856 345.182 605.207L344.741 606.178L344.443 605.924L343.437 607.067L343.705 606.895L343.915 607.239L345.275 606.94L346.337 608.322L346.09 609.928C344.007 611.549 342.461 613.544 340.341 611.385C339.765 608.217 341.108 603.735 341.852 600.455C345.793 593.664 348.079 583.713 352.022 577.035Z" fill="#029CDC"/>
<path d="M595.867 704.619L595.496 704.866C570.628 721.705 572.997 647.439 585.123 646.587C592.63 652.16 591.815 675.073 596.245 682.977C597.646 686.338 594.974 688.991 592.74 691.493C590.999 693.436 590.554 697.276 589.949 700.032C591.919 701.511 594.011 703.013 595.867 704.619Z" fill="#029CDC"/>
<path d="M588.171 679.391C590.031 680.922 591.511 682.043 593.247 683.761C593.115 687.594 589.552 689.954 586.445 693.017C586.166 693.779 585.875 693.891 585.246 694.549L583.917 693.869C581.646 688.662 586.193 688.146 587.994 680.205L588.171 679.391Z" fill="#027FCE"/>
<path d="M647.294 424.445C649.271 428.023 658.502 447.181 660.071 448.759C653.288 449.941 653.497 447.593 646.741 451.717C642.386 445.897 640.619 434.249 637.033 426.533C640.311 425.23 643.717 427.085 647.294 424.445Z" fill="#029CDC"/>
</g>
<defs>
<clipPath id="clip0_2096_9670">
<rect width="771.583" height="1024.1" fill="white"/>
</clipPath>
</defs>
</svg>
