<svg width="772" height="1248" viewBox="0 0 772 1248" fill="none" xmlns="http://www.w3.org/2000/svg">
<g clip-path="url(#clip0_2149_19)">
<path d="M463.464 407.634C466.418 408.09 469.139 409.022 469.968 412.117C472.05 419.885 464.159 429.661 457.061 432.066C455.406 432.627 453.891 431.675 452.483 430.953L451.842 430.621L450.758 431.028C432.396 453.956 414.179 499.328 412.729 528.565C414.405 529.278 416.068 530.019 417.719 530.788C430.25 536.675 434.177 545.794 438.543 557.963C460.464 510.876 517.766 459.435 565.913 439.003C577.917 433.909 604.545 425.348 611.518 444.078C615.761 455.481 602.607 468.769 597.542 477.712C596.603 479.374 596.091 482.963 596.677 484.927C601.717 498.877 617.699 510.904 626.769 522.137C632.565 529.314 637.545 537.618 640.55 545.766C646.548 561.778 645.707 579.546 638.24 594.926C621.935 629.29 583.34 635.895 549.251 633.634C546.739 633.47 539.155 632.373 537.253 633.049C537.423 635.907 544.808 638.266 547.172 639.545C568.724 651.55 591.983 669.435 599.755 694.078C617.266 749.58 575.085 801.493 520.27 759.489C493.417 738.916 474.188 720.038 456.478 691.257C456.189 703.932 455.596 716.759 454.379 729.398C454.056 732.755 453.682 736.613 450.623 738.563C449.541 738.837 448.527 739.081 447.432 738.715C441.516 736.735 416.84 685.724 412.527 676.449C411.696 688.807 411.949 698.795 409.952 711.567C403.723 751.427 384.829 791.182 357.017 820.414C326.495 855.228 257.693 888.189 250.959 813.808C246.512 764.693 275.2 718.959 306.877 683.347C287.858 691.647 264.309 696.132 243.905 697.497C192.849 700.922 170.781 663.536 167.544 618.205C166.946 609.838 166.988 601.068 166.621 592.575C160.48 584.84 155.283 578.178 152.432 568.56C147.085 550.515 150.707 528.135 171.453 522.764C181.971 520.041 192.506 519.701 203.28 520.004C253.755 521.419 303.059 538.925 347.05 562.922C351.936 565.596 357.223 568.507 361.722 571.757C366.229 575.012 373.196 581.874 377.759 584.349C379.869 582.652 378.679 580.264 378.379 577.534C376.99 564.913 377.729 555.737 382.036 543.861C375.142 535.707 369.198 529.195 361.027 522.261C353.807 516.135 346.102 510.332 339.786 503.302C335.527 498.561 331.325 493.66 326.397 489.59C320.684 485.275 311.369 483.377 309.058 475.362C308.669 474.013 309.206 473.703 309.914 472.67C318.403 468.993 331.715 487.132 340.064 491.646C358.465 501.595 372.55 522.229 386.746 536.971C391.899 532.068 393.792 530.58 400.641 528.799C399.265 514.67 388.898 473.423 395.203 462.197C396.03 460.725 397.273 459.393 398.987 459.034C400.512 458.714 402.15 459.001 403.379 459.978C409.956 465.207 402.69 486.733 402.842 494.67C403.029 504.487 404.907 514.402 406.329 524.101C407.002 521.321 407.686 517.973 408.184 515.215C413.939 483.388 428.187 455.718 445.758 428.929C451.315 420.456 452.427 411.375 463.464 407.634ZM400.339 536.743C398.129 537.893 395.968 538.956 393.876 540.314L393.659 540.941C391.759 546.29 386.826 551.28 386.068 556.581C381.335 589.671 401.575 635.389 414.927 664.359C424.02 683.713 433.804 702.731 444.26 721.384L445.768 722.865L446.792 722.707C448.199 719.922 448.774 706.766 448.916 702.646C450.533 655.743 446.862 607.702 432.421 562.823C428.9 551.881 424.77 542.824 414.178 537.394C413.484 537.039 412.777 536.711 412.058 536.41C409.587 540.12 410.512 539.883 406.46 541.116C404.619 540.714 404.39 540.647 402.705 539.827C402.177 538.724 401.834 538.08 401.213 537.026L400.339 536.743ZM450.125 579.85C447.892 589.071 448.321 591.605 449.332 601.107C450.672 613.702 459.619 609.262 469.668 606.898C500.814 600.187 532.933 592.017 560.773 576.273C571.019 570.479 576.517 567.474 572.527 555.322C569.527 546.181 559.032 513.917 552.515 508.285L551.5 508.179C525.844 523.456 501.025 540.095 477.148 558.025C470.803 562.771 455.497 574.481 450.125 579.85ZM490.79 619.265C529.133 624.683 582.255 636.243 615.48 611.971C642.964 591.892 642.452 550.75 621.167 526.824C618.552 523.88 616.517 520.335 612.75 518.679C611.805 523.729 611.311 529.362 609.617 534.17C603.15 552.513 588.637 566.147 572.884 576.921C541.953 598.069 503.978 606.382 468.01 614.719C464.996 615.42 462.334 615.871 459.434 616.986L459.342 617.809C461.924 618.552 469.14 618.028 472.438 618.12C478.565 618.315 484.686 618.699 490.79 619.265ZM338.24 666.09C345.945 663.61 395.04 647.23 397.014 644.67C397.528 642.513 397.594 643.384 396.837 641.38C394.611 640.38 381.521 643.159 378.076 643.756C358.385 647.077 338.486 649.015 318.524 649.551C299.432 650.1 280.338 648.582 261.572 645.036C256.882 644.103 238.535 639.411 234.959 639.076C225.012 646.34 216.545 653.153 205.175 658.284C202.997 659.265 191.437 664.225 190.4 665.224C190.077 667.406 190.586 668.759 192.023 670.453C226.476 711.116 297.642 678.759 338.24 666.09ZM327.881 756.472C339.296 763.041 350.062 769.409 356.63 781.518C358.908 786.24 359.156 787.221 360.442 792.163C361.371 795.728 360.685 801.663 361.889 803.022C365.662 801.475 378.391 779.239 380.719 775.009C397.734 744.053 405.765 709.051 405.037 673.804C404.952 669.661 406.843 665.291 405.513 661.903C403.857 660.331 402.608 659.539 400.223 659.691C388.219 671.818 373.281 686.394 363.744 700.733C360.112 706.193 360.569 714.572 355.26 721.269C347.109 731.543 332.464 744.273 327.881 756.472ZM259.855 590.334C299.731 593.599 337.665 594.711 375.441 610.338C378.722 611.697 382.35 612.964 385.733 614.08C384.516 608.682 383.31 604.994 381.538 599.736C375 595.765 369.505 586.067 361.628 580.78C325.811 556.739 286.028 541.85 244.346 531.665C255.633 552.154 261.735 565.99 259.855 590.334ZM243.224 632.672C271.602 643.031 313.835 643.726 343.528 640.91C351.873 640.124 364.302 637.839 371.712 637.522C378.785 636.297 386.303 635.127 393.26 633.506C391.98 630.514 390.512 626.803 389.023 623.97C347.091 604.709 304.883 599.224 259.284 597.881C256.833 605.279 254.743 611.673 251.28 618.674C248.819 623.647 245.635 628.089 243.224 632.672ZM275.243 751.293C291.596 748.051 304.595 748.563 321.131 750.427C327.4 741.963 324.585 742.475 328.169 734.12C329.197 731.725 337.725 724.51 340.027 721.323C345.936 713.146 351.72 704.566 357.804 696.516C369.101 681.58 381.513 667.516 394.935 654.451L394.636 654.018C379.997 659.661 365.082 664.262 350.322 669.557C343.641 671.952 327.543 676.498 322.401 680.331C300.673 696.534 283.798 722.402 272.061 746.558C271.269 748.185 270.35 750.305 270.883 751.981C272.559 752.322 273.566 751.817 275.243 751.293ZM447.339 572.283C450.785 569.674 454.528 566.954 457.807 564.176C483.858 542.799 516.308 521.508 545.13 503.302C545.993 502.756 548.026 501.52 547.832 500.655C546.331 493.929 533.593 471.033 527.463 469.671C507.506 479.544 444.527 545.595 443.287 567.614C444.676 569.156 446.061 570.647 447.339 572.283ZM174.89 592.199C183.192 591.166 191.531 590.455 199.887 590.068C206.487 589.992 247.992 591.269 250.89 589.401C258.524 579.761 243.362 529.399 226.56 530.182C206.717 535.905 179.058 572.218 174.89 592.199ZM551.372 687.198C528.276 672.214 502.88 661.111 476.193 654.341C471.563 653.195 462.772 651.172 458.066 651.075C457.526 653.482 457.349 652.714 458.118 654.743C459.926 656.437 477.398 663.256 481.146 664.987C486.829 667.619 492.384 670.514 497.793 673.664C505.532 678.101 512.081 682.348 519.218 687.643C523.749 691.001 530.44 697.156 534.874 699.758C537.984 697.564 540.349 695.779 543.276 693.347L551.372 687.198ZM586.918 704.231C589.07 706.345 592.672 710.257 595.208 711.47L595.823 711.336C596.622 705.858 590.039 683.865 583.742 683.335C577.239 684.188 572.129 685.773 566.029 688.088C573.566 693.17 580.177 698.118 586.918 704.231ZM555.922 497.078L565.267 492.158C570.266 489.57 580.097 484.834 584.48 481.946C579.762 474.522 561.055 453.353 551.86 453.971C546.065 456.769 540.552 460.117 535.398 463.971C542.946 475.491 548.848 485.398 555.922 497.078ZM232.872 629.99C241.562 627.303 249.183 606.476 250.663 597.968C238.748 596.638 211.781 596.869 199.583 597.459C195.59 597.651 183.586 597.698 181.023 599.714C180.302 610.429 223.875 627.583 232.872 629.99ZM291.698 807.501C292.416 807.069 293.423 806.392 293.768 805.612C300.191 791.06 310.341 774.973 315.916 760.39L315.579 759.842L315.233 760.104C311.635 762.773 308.773 763.45 304.348 762.767C295.475 761.39 300.64 753.675 289.167 756.466C281.559 757.398 271.781 758.684 265.54 763.334C262.464 772.084 259.298 785.204 259.496 794.442C272.033 799.299 279.196 801.517 291.698 807.501ZM321.016 841.157L327.312 837.281C336.357 830.816 352.5 819.305 353.766 807.879C354.861 797.995 352.913 788.763 346.959 780.689C342.437 774.565 331.553 765.729 324.169 763.87C318.981 769.751 302.272 803.772 299.862 811.871C309.5 821.072 318.565 826.77 321.016 841.157ZM174.774 607.816C174.214 621.514 177.964 639.881 182.64 652.976C183.624 655.73 185.751 657.747 188.659 657.04C196.478 655.145 206.784 649.35 213.519 645.438C216.832 643.33 222.245 640.374 223.936 636.949C223.903 636.334 224.092 635.792 223.591 635.395C221.19 633.506 218.048 632.69 215.135 631.538C201.038 625.968 187.214 618.327 175.686 608.426C175.229 608.035 175.43 608.198 174.774 607.816ZM562.261 448.629C571.162 456.295 577.545 461.744 585.108 470.619C586.333 471.904 587.576 473.275 588.899 474.453C600.681 463.78 617.303 436.19 587.436 440.172C577.822 441.803 570.975 444.105 562.261 448.629ZM258.677 803.589C255.361 814.003 264.582 849.073 276.851 847.488C279.144 845.947 279.522 843.485 280.267 840.791C282.858 833.046 287.442 822.297 289.517 815.222C281.641 810.865 268.081 803.869 258.973 803.601L258.677 803.589ZM581.225 557.923L582.273 558.735C586.12 558.171 591.447 551.429 593.879 548.266C601.15 538.817 605.618 527.543 604.259 515.549C603.412 508.029 593.903 491.311 586.199 489.915C580.481 492.32 564.738 500.07 560.037 503.81C562.496 510.7 566.486 517.668 569.374 524.48C573.825 534.981 578.124 546.904 581.225 557.923ZM345.494 501.903C347.64 504.027 352.721 509.329 355.322 510.147C353.032 506.859 349.57 502.892 345.494 501.903ZM295.984 820.518C292.099 827.775 286.764 843.29 284.761 851.334C291.835 851.449 294.287 851.462 301.296 849.591C306.335 847.86 308.794 846.775 313.466 844.192L313.265 843.546C310.798 835.453 306.153 822.126 295.984 820.518ZM461.496 414.728C459.042 417.103 455.31 421.261 456.544 424.908L457.957 425.959C458.18 419.285 462.829 418.053 462.495 415.114L461.496 414.728ZM529.448 705.809C512.866 689.965 479.141 668.801 456.796 663.756C456.773 666.845 456.355 677.515 457.423 679.904C458.573 680.824 460.917 682.116 461.663 683.067C463.305 685.157 464.076 689.538 465.485 691.659C477.051 709.069 494.845 729.465 510.963 742.256C512.328 736.527 513.139 733.523 515.222 728.045C519.558 718.788 522.607 713.651 529.448 705.809ZM534.278 711.482C528.078 718.728 517.328 736.186 518.731 745.229C520.57 757.094 549.727 767.283 559.177 767.356C561.714 767.325 575.877 767.423 574.653 762.054C572.316 751.811 541.918 713.255 534.278 711.482ZM195.89 527.378C167.731 528.63 150.302 533.626 160.772 569.17C161.919 573.065 165.143 581.192 169.297 582.035C170.579 581.027 170.58 580.827 171.268 579.286C182.512 555.963 193.463 544.205 213.578 528.203C206.937 527.289 202.726 526.988 195.89 527.378ZM574.475 677.924C576.442 677.497 577.934 677.436 579.286 676.047C579.665 669.38 554.346 652.415 548.667 648.918C525.543 634.695 501.196 626.943 474.081 625.591C467.768 625.292 461.451 625.109 455.132 625.03C454.798 628.954 453.616 637.766 456.494 640.295C461.566 644.755 473.931 646.242 480.354 647.802C490.366 650.222 500.18 653.396 509.714 657.296C519.701 661.324 529.419 665.986 538.808 671.263C544.332 674.426 553.153 680.166 558.553 682.64C564.065 681.318 569.58 678.966 574.475 677.924ZM558.046 692.89C552.223 694.743 545.169 700.69 540.467 704.791C552.555 719.495 567.536 731.841 576.78 749.196C577.879 751.262 579.969 754.668 581.39 756.472C588.972 757.88 595.305 731.214 596.384 725.266C592.349 718.472 566.007 693.609 558.046 692.89Z" fill="black"/>
<path d="M411.747 567.529C414.514 567.259 415.708 567.983 416.614 570.317C415.953 575.121 413.043 575.8 408.985 576.286C405.561 576.036 404.037 576.421 402.43 573.192C403.296 568.582 407.981 568.031 411.747 567.529Z" fill="black"/>
<path d="M391.855 560.365C392.814 559.562 394.137 559.355 395.295 559.827C396.453 560.298 397.255 561.371 397.379 562.615C397.503 563.859 396.928 565.07 395.886 565.76C394.395 566.749 392.391 566.401 391.32 564.968C390.248 563.534 390.483 561.514 391.855 560.365Z" fill="black"/>
<path d="M417.766 553.734C418.909 553.275 420.214 553.508 421.126 554.335C422.039 555.162 422.398 556.437 422.053 557.619C421.708 558.801 420.717 559.681 419.503 559.886C417.883 560.161 416.318 559.17 415.871 557.59C415.425 556.01 416.243 554.347 417.766 553.734Z" fill="black"/>
<path d="M461.496 414.728L462.495 415.114C462.83 418.053 458.181 419.285 457.957 425.959L456.544 424.908C455.31 421.261 459.043 417.103 461.496 414.728Z" fill="black" fill-opacity="0.0196078"/>
<path d="M345.492 501.902C349.568 502.891 353.03 506.859 355.32 510.147C352.719 509.329 347.638 504.027 345.492 501.902Z" fill="black" fill-opacity="0.176471"/>
<path d="M201.134 424.802C206.297 424.477 210.978 425.856 214.759 429.575C213.238 431.94 192.637 428.045 214.624 449.353C225.342 440.9 236.575 435.781 250.029 441.897C257.151 445.133 262.688 451.074 265.415 458.404C269.113 468.515 266.825 476.986 262.459 486.186C265.993 488.66 271.98 492.709 276.011 489.611C277.373 484.153 267.059 476.386 271.807 472.422C273.848 472.357 273.228 472.401 275.294 473.9C277.201 475.967 280.539 479.865 281.365 482.406C288.679 504.903 269.193 499.68 257.946 494.48C259 495.9 260.516 497.49 260.531 499.147C258.127 499.973 253.352 497.176 251.935 497.552C243.719 499.728 238.158 501.563 229.386 498.963C221.815 496.719 215.471 491.514 211.794 484.528C206.632 474.868 207.642 465.455 210.678 455.465C203.652 448.719 189.134 433.541 201.134 424.802ZM221.567 454.361C228.322 461.044 241.291 468.766 249.803 473.186C251.844 474.076 254.909 475.739 256.987 474.596C261.958 471.861 259.719 463.349 257.305 459.504C254.502 455.039 249.504 453.99 245.352 451.29C243.421 450.018 244.7 447.576 242.172 447.086C240.198 446.703 237.279 446.77 235.29 446.845C228.827 448.295 226.299 449.55 221.567 454.361ZM239.787 481.185C246.632 486.255 248.716 489.832 255.713 483.176C245.224 479.627 238.178 475.618 229.009 469.286C226.396 467.482 219.419 462.527 216.841 461.409C215.065 469.025 214.935 475.302 219.289 482.225C222.512 487.384 227.702 491.006 233.659 492.252C236.4 492.815 243.473 493.174 245.46 490.979C243.754 487.047 237.65 487.197 237.244 483.155C237.852 482.051 238.517 481.483 239.787 481.185Z" fill="black"/>
<path d="M207.456 735.022C215.536 733.986 223.173 736.168 226.986 743.986C228.918 748.026 229.175 752.664 227.7 756.893C225.577 762.932 221.832 765.387 216.439 768.032C196.894 770.701 190.924 754.681 198.41 738.538C203.361 737.015 202.604 737.795 207.456 735.022ZM214.713 760.543C219.583 758.995 222.299 753.815 220.805 748.928C219.31 744.047 214.162 741.268 209.259 742.713C206.039 743.657 203.575 746.259 202.808 749.525C202.042 752.792 203.09 756.222 205.553 758.501C208.016 760.78 211.514 761.56 214.713 760.543Z" fill="black"/>
<path d="M441.154 759.97C455.949 758.087 461.964 773.431 448.496 779.97C435.748 782.913 426.375 767.727 441.154 759.97ZM446.921 772.017C447.955 770.829 447.837 769.031 446.655 767.995C445.475 766.953 443.676 767.063 442.631 768.239C441.58 769.421 441.691 771.237 442.879 772.285C444.068 773.327 445.881 773.212 446.921 772.017Z" fill="black"/>
<path d="M142.514 694.797C155.19 694.176 157.736 709.416 145.518 715.15C143.94 715.035 142.521 714.919 141.002 714.431C138.362 713.596 136.182 711.713 134.974 709.221C133.908 707.009 133.775 704.456 134.606 702.146C136.128 697.875 138.801 696.504 142.514 694.797Z" fill="black"/>
</g>
<defs>
<clipPath id="clip0_2149_19">
<rect width="772" height="1248" fill="white"/>
</clipPath>
</defs>
</svg>
