<svg width="880" height="1168" viewBox="0 0 880 1168" fill="none" xmlns="http://www.w3.org/2000/svg">
<g clip-path="url(#clip0_2091_8467)">
<path d="M256.097 252.488C261.244 251.222 263.443 251.183 268.71 252.797C274.942 259.804 278.939 264.235 282.203 273.178C283.078 274.56 283.264 276.51 285.151 276.473C289.142 276.394 290.301 273.581 293.155 271.361C302.15 264.361 309.957 263.173 320.213 259.961L320.607 260.27C326.223 264.624 326.934 262.335 328.439 270.285C329.321 274.946 327.423 283.506 329.293 286.452C331.674 287.802 333.995 287.293 335.939 288.233C350.248 295.151 365.298 294.49 380.406 298.224C383.316 298.943 387.517 300.556 388.277 303.776C389.688 308.802 386.059 311.384 383.497 315.169C379.479 315.849 377.601 316.067 373.674 315.793C368.594 315.439 346.153 310.805 343.187 312.481C342.902 314.205 342.728 313.474 343.335 314.812C344.351 314.897 345.268 315.067 346.258 315.311C348.039 317.759 344.969 317.785 348.711 318.14C351.691 318.423 352.493 318.625 355.243 319.456C354.04 320.128 353.576 320.04 352.237 320.08C353.175 322.08 355.096 322.843 357.168 322.031C358.007 320.823 357.798 321.515 357.503 319.807C374.313 323.502 384.916 320.854 396.907 335.176C399.505 335.871 402.167 336.639 404.797 337.165C405.314 338.725 405.819 340.321 406.388 341.86L405.384 346.552C400.13 350.169 401.238 350.465 394.783 351.511C390.907 351.816 382.481 351.466 377.98 351.514C374.866 351.125 370.308 350.315 367.341 350.849L366.563 351.51C367.191 354.201 386.477 368.34 390.283 370.368C396.334 373.593 404.656 378.439 411.322 380.733C416.864 382.639 421.268 383.409 426.778 386.081C427.549 387.718 427.967 388.591 428.927 390.11C428.518 391.985 427.933 394.339 427.676 396.198L427.164 396.689C422.592 401.038 419.707 400.706 414.294 401.097C408.742 401.497 400.687 397.097 398.397 397.216L398.211 397.94L400.381 398.95L398.797 399.453C398.342 400.801 398.435 400.082 398.879 401.704C402.131 404.823 405.155 408.773 408.135 411.574C412.909 416.062 419.015 420.104 423.715 424.844C430.941 430.845 441.52 431.506 435.618 443.901C426.508 447.647 425.593 451.356 416.278 444.818C414.399 443.499 410.316 442.409 408.55 440.684L408.419 438.735C407.478 438.058 406.71 438.265 405.516 438.33L404.901 438.825C406.284 446.925 418.353 463.121 425.756 468.296C441.458 479.271 462.366 483.884 480.777 488.72C485.012 489.832 492.127 489.016 497 490.12C494.838 490.7 493.251 490.825 491.048 491C492.667 491.449 493.857 491.112 494.535 491.805C495.983 493.289 501.819 492.999 504.525 493.155C509.099 493.298 515.527 493.545 519.981 492.874L525.745 492.833C532.16 493.39 538.406 492.762 544.66 493.175C575.768 495.228 608.74 496.528 632.88 519.238C634.11 520.392 647.458 514.773 649.553 514.289C652.709 513.503 656.704 513.534 659.405 512.453C660.377 511.094 659.9 511.244 661.928 510.96C669.257 509.934 674.429 511.081 681.539 508.569C681.775 509.134 681.972 509.942 682.845 509.972C687.843 510.145 698.756 509.783 703.481 509.34C745.712 512.586 791.184 533.666 818.935 566.008C825.555 573.724 831.27 569.944 826.665 584.066C817.486 587.066 816.523 588.641 806.488 586.249C761.574 575.534 726.467 540.368 681.584 530.516C669.605 527.887 657.247 530.493 646.183 529.311C645.844 530.914 645.18 533.214 645.732 534.678C647.422 539.159 651.064 543.697 653.2 547.843C657.448 556.08 659.664 564.534 660.916 573.545L661.968 574.303C663.975 587.46 664.278 612.423 661.549 625.633C660.595 622.053 661.086 618.798 660.381 615.298C660.127 619.141 660.921 626.431 659.989 629.396C656.592 640.19 650.868 651.889 644.466 661.037C637.726 670.672 617.723 687.793 616.693 699.108C616.287 698.288 615.895 697.463 615.512 696.634C614.843 698.671 614.852 704.32 614.798 706.745C614.535 718.074 613.791 725.484 617.807 736.345C619.501 740.915 619.533 742.698 622.06 747.683C624.633 752.761 627.611 754.219 629.661 758.026C634.257 757.094 640.552 754.638 644.399 757.001C644.997 757.366 645.483 757.893 645.804 758.517C645.795 759.859 645.674 760.724 646.004 761.999C646.027 764.973 646.062 772.851 646.557 775.441C646.027 778.343 644.038 785.156 641.667 786.498C630.317 792.931 612.623 777.122 606.992 768.762C600.599 759.275 596.231 751.08 594.318 740.112C594.091 739.069 592.704 737.642 592.629 736.657C591.675 724.503 591.033 711.373 593.266 699.433C593.569 698.386 593.681 698.056 594.135 697.062C594.947 698.1 595.036 699.558 595.317 700.963L595.335 700.41C595.847 699.656 595.593 695.153 595.566 693.994C598.027 681.698 611.392 671.047 618.65 661.14C622.413 656.004 626.563 651.96 630.013 646.334C633.451 640.738 633.856 635.798 636.264 630.136L637.24 629.944C638.296 627.011 638.314 618.067 639.304 615.887L640.655 615.508C641.948 609.511 641.439 593.617 640.726 587.576C640.615 586.301 640.369 585.241 640.129 583.989C639.875 582.722 639.005 581.358 638.72 579.757C636.562 567.58 630.95 553.858 623.317 543.999C610.492 527.59 593.56 518.663 573.539 514.523C548.508 509.347 523.164 513.48 497.887 510.341C499.461 510.317 501.413 510.447 502.55 509.301C500.562 507.701 493.371 508.18 490.803 508.438C488.984 508.156 486.35 508.18 484.33 508.068C473.493 507.467 463.123 504.349 452.549 502.104C435.631 498.632 417.544 491.637 404.047 480.732C400.355 476.381 393.591 469.297 390.947 464.475C378.216 441.264 371.519 415.285 359.639 391.56C356.939 385.627 354.628 379.176 351.637 373.408C346.53 363.561 341.528 355.887 334.182 347.559C329.722 342.501 325.73 337.16 321.029 331.961C319.381 323.33 318.172 317.94 311.377 311.679C308.547 309.071 304.269 309.853 303.338 307.971C299.075 299.36 308.896 291.185 310.11 282.115L310.204 281.387C291.685 281.919 294.777 302.686 277.043 299.267C274.084 298.09 269.551 304.752 268.281 305.004C262.75 306.106 259.628 309.18 254.973 311.403C230.732 322.979 206.584 334.195 183.78 348.525C181.678 349.846 179.801 351.959 177.794 353.446C166.485 359.532 157.803 369.403 170.067 380.537C176.514 382.295 182.998 381.578 189.577 381.098C191.535 380.955 197.708 380.972 199.069 380.262L198.77 379.645L196.445 380.132L196.016 379.804C196.474 379.217 196.69 379.085 197.705 378.934C201.808 378.324 205.917 377.781 210.067 377.297C213.605 376.885 219.125 375 222.257 374.783C235.833 373.846 250.419 373.432 263.966 374.723C266.055 374.922 273.938 378.46 275.613 379.539C284.176 385.051 290.893 393.997 293.21 403.984C293.977 407.294 294.078 410.491 294.831 413.657C295.922 413.898 295.563 413.691 296.379 414.391C297.458 427.457 297.644 440.604 296.864 453.673C296.618 457.778 296.749 463.01 295.853 466.933C294.242 464.559 294.99 449.275 294.422 444.484C293.835 449.62 293.645 464.672 294.783 469.393C294.052 473.557 292.949 479.852 292.89 483.958C291.834 482.092 291.787 479.27 291.379 477.015C291.232 479.207 290.891 482.588 291.049 484.688C290.998 493.783 289.92 497.029 289.314 504.809L288.417 505.642C287.274 503.495 288.678 502.153 287.524 500.436L287.035 500.849C287.153 504.502 287.226 508.008 287.094 511.665C286.868 513.905 286.556 518.076 286.117 520.121C285.882 523.655 286.05 530.623 285.668 533.437L285.456 533.373L285.033 530.472L284.702 528.85L284.232 529.064C283.702 532.699 283.789 537.709 284.162 541.375L284.579 541.719C285.121 540.197 285.08 540.06 285.22 538.505C286.388 540.143 285.092 541.427 286.087 543.488C289.182 563.28 300.266 579.102 316.858 590.224C337.207 603.862 369.336 608.486 393.438 610.969C406.256 612.289 421.299 611.451 434.467 612.316C444.658 612.984 457.243 613.461 467.256 613.216C465.99 613.555 465.968 613.479 464.818 614.063L464.447 614.086C461.581 613.689 445.916 613.934 443.004 614.567L440.579 614.763C449.46 615.37 462.054 615.066 471.25 615.075C477.982 614.937 500.963 614.844 507.195 615.891C508.604 616.119 509.594 616.252 510.976 616.671L510.686 616.631L510.597 616.93L509.496 617.233C510.45 618.642 515.434 618.245 517.132 618.067L518.875 617.996C528.723 618.054 540.416 617.938 550.077 619.231C561.53 620.769 579.714 625.923 588.113 634.001C597.943 643.458 593.364 660.56 585.959 670.048C580.668 676.829 574.569 683.004 568.493 689.139C555.039 703.459 541.161 717.887 530.31 734.352C529.276 735.917 526.94 742.297 526.178 744.312C525.553 744.615 525.09 744.878 524.515 745.289L524.582 746.546C526.721 748.026 531.09 750.888 531.349 753.63C531.344 760.461 524.519 768.856 520.538 774.152C517.529 778.156 511.72 783.395 507.958 786.493C506.732 787.501 496.915 788.745 495.123 787.011C493.982 785.9 493.848 786.44 493.371 784.719C493.759 782.601 495.07 777.068 494.78 775.517C494.967 771.326 495.172 767.772 494.909 763.564C494.936 758.642 497.727 750.906 498.868 745.815C499.109 744.762 500.009 744.655 501.074 744.196C502.158 743.122 501.748 741.887 502.242 740.576C506.7 728.097 516.343 718.212 524.145 707.86C537.363 690.334 555.159 677.208 567.9 659.432C570.031 656.463 569.483 647.992 566.625 645.678C557.455 638.246 543.234 638.157 532 636.752C524.925 635.878 518.621 634.719 511.939 634.438C491.218 633.569 470.381 633.061 449.678 632.651C453.075 631.959 462.865 633.364 464.626 631.447L464.367 630.43C458.233 629.842 451.791 629.975 445.635 630.154C444.061 629.797 443.994 629.9 442.452 630.172C436.87 630.127 416.308 629.744 411.737 630.573C402.696 629.748 393.629 630.613 384.655 629.133C377.026 627.871 368.492 627.929 361.009 626.462C352.781 624.848 344.146 622.588 335.807 621.304C327.776 620.069 315.842 612.307 308.138 613.292L308.29 614.661C305.567 616.792 301.529 618.722 298.535 620.729C291.333 625.557 284.109 630.827 276.845 635.517C261.239 645.593 246.896 657.711 233.473 670.521C231.117 672.772 227.352 674.141 225.219 676.767C215.191 687.07 204.308 696.121 196.408 708.279C193.544 712.688 189.658 712.858 189.412 719.385C188.182 725.502 189.025 729.247 189.133 735.395C188.371 743.247 177.567 756.243 171.166 760.527C168.405 759.426 164.765 764.246 159.193 762.404C158.384 762.65 157.814 762.824 157.03 763.14L156.014 762.373C156.077 761.08 156.549 749.413 156.451 748.989C156.398 746.47 156.264 743.898 156.649 741.401C160.9 713.87 191.054 680.944 211.911 663.164C226.507 650.721 242.235 639.927 257.769 628.736C261.665 625.927 265.19 622.624 269.084 619.841C275.491 615.263 282.686 611.509 288.957 606.769C290.536 605.574 292.316 604.299 292.599 602.289C291.267 597.995 286.297 595.681 283.355 592.369C281.51 590.291 280.068 586.853 277.877 585.355C268.208 591.107 260.127 594.058 248.904 595.347C246.823 595.396 235.344 594.968 234.449 595.342L234.492 595.784C237.639 596.528 240.356 595.405 243.138 596.319C243.229 596.992 243.308 596.716 243.036 597.179C233.502 598.579 222.121 598.289 213.942 599.631L213.798 599.948L215.854 600.635C214.022 602.155 196.981 601.923 196.28 603.122L196.527 604.081C196.079 604.415 181.668 606.537 178.195 607.599C168.051 610.697 159.487 612.547 149.579 617.599C143.963 620.461 130.314 627.559 125.848 633.533C125.3 633.582 124.752 633.631 124.204 633.68C123.786 636.36 133.89 644.755 123.037 652.241C116.839 656.512 110.75 660.52 103.369 661.238C100.374 659.606 98.3354 658.706 96.6641 655.611C97.643 651.652 98.7023 645.919 96.9899 642.138C97.2721 638.629 101.587 632.374 103.588 629.369C117.731 608.151 157.175 591.553 181.327 586.836C183.965 587.334 190.909 588.035 192.787 586.042C192.983 584.574 193.114 585.262 192.257 583.936C198.567 582.48 206.257 583.301 211.576 581.136C216.115 579.289 219.368 580.227 224.09 579.672C228.323 579.175 232.863 578.081 237.111 577.339C241.615 576.551 254.304 576.096 257.867 574.953C261.608 573.72 265.097 571.825 268.169 569.359C267.495 563.411 266.315 563.373 264.765 558.023C264.989 553.33 264.903 549.519 264.77 544.843C265.102 543.478 265.018 544.002 264.743 542.507C264.606 536.083 265.711 519.462 264.868 514.203C265.155 511.195 265.625 503.313 266.415 500.774L266.964 500.965L267.562 503.83C267.751 503.559 268.358 488.058 268.856 485.656C269.228 486.943 269.365 488.842 269.526 490.222C269.604 488.722 269.569 488.658 270.038 487.157C271.214 486.441 270.958 486.783 271.713 485.761L271.447 484.029C272.063 480.986 272.141 476.026 271.821 472.915C272.94 468.024 272.828 461.207 272.837 456.072L273.161 456.209C273.204 458.529 273.057 460.299 273.885 462.455L274.472 462.263C275.603 459.869 275.133 461.422 274.896 458.837C275.557 451.428 276.107 428.239 273.455 422.36C270.137 411.192 268.654 400.4 256.513 394.466C249.847 391.208 237.131 393.1 229.798 393.418C227.755 393.506 221.635 393.47 220.032 394.029C221.252 394.331 222.469 394.645 223.682 394.972C220.263 395.401 217.101 396.049 213.785 396.487C209.63 397.037 203.824 396.519 199.733 397.547L199.54 397.984L201.178 398.615C199.478 399.534 187.417 400.232 184.574 400.529C182.294 400.404 180.399 400.198 178.132 400.522C174.009 400.397 170.19 400.468 166.079 400.553C142.795 399.141 135.508 374.062 147.372 357.025C160.706 338.682 184.975 328.503 204.25 317.469C213.74 312.037 223.56 307.609 233.537 303.218C237.059 301.667 249.304 294.998 252.238 294.39L254.318 294.26L254.741 294.198C255.029 292.082 254.955 289.942 254.957 287.8L255.073 286.954C254.239 285.144 253.984 284.569 253.745 282.502L253.659 281.703C252.948 282.077 251.946 285.269 251.6 286.285C251.487 281.785 251.521 276.592 251.272 272.174C250.763 263.169 251.78 260.236 256.097 252.488ZM294.545 426.318C294.605 423.962 295.627 415.254 294.291 414.209C294.007 417.67 294.26 422.617 294.341 426.191L294.545 426.318ZM571.288 656.307C571.85 654.497 571.792 651.322 571.038 649.588L570.793 655.772L571.288 656.307Z" fill="black"/>
<path d="M294.292 414.209C295.627 415.254 294.605 423.962 294.546 426.318L294.341 426.191C294.261 422.617 294.007 417.67 294.292 414.209Z" fill="black" fill-opacity="0.478431"/>
<path d="M571.039 649.588C571.793 651.322 571.85 654.497 571.289 656.307L570.794 655.772L571.039 649.588Z" fill="black" fill-opacity="0.513725"/>
<path d="M738.664 465.365C747.232 465.008 747.335 466.425 754.463 467.216C787.265 470.853 818.436 488.264 842.696 510.046C844.658 511.804 848.273 513.609 850.324 515.444C856.663 521.113 863.849 530.68 870.973 534.847C874.21 536.74 873.051 535.604 875.908 538.622C876.711 546.063 876.189 546.444 872.092 552.177C871.718 552.29 871.343 552.401 870.964 552.508C860.929 555.361 851.166 550.9 841.265 549.17C839.5 548.862 840.084 547.573 839.678 547.48C830.405 545.367 821.766 541.515 813.22 537.452C810.331 536.071 806.6 534.657 803.836 533.246C795.825 529.16 771.894 521.687 769.447 512.997C769.366 507.218 768.644 508.102 773.597 504.902C783.677 498.389 803.439 514.983 811.535 514.787C812.685 514.063 812.252 514.531 812.881 513.337C812.047 511.821 810.572 510.805 809.158 509.788C777.703 486.882 738.325 477.666 699.973 484.234C698.774 484.44 699.095 484.213 698.604 484.91C699.469 485.344 699.286 485.057 699.701 485.716C695.542 486.981 691.686 487.032 687.508 488.831C682.07 491.175 679.439 493.817 675.374 497.975C672.837 500.568 670.278 501.285 666.912 499.629C666.003 497.89 665.111 496.175 665.111 494.162C665.107 487.989 673.18 484.633 677.665 482.033C682.992 478.944 688.155 476.046 693.883 473.732C696.5 472.675 703.022 471.696 704.698 469.606C707.115 466.595 718.585 469.526 722.178 466.222C723.057 465.412 736.359 465.568 738.664 465.365ZM714.118 480.343L712.286 480.562C712.767 480.689 713.066 480.81 713.548 480.833C717.101 481.764 737.407 481.14 741.722 480.673C736.27 479.779 719.575 479.355 714.118 480.343Z" fill="black"/>
<path d="M714.118 480.343C719.575 479.355 736.27 479.779 741.722 480.673C737.407 481.14 717.101 481.764 713.548 480.833C719.669 480.796 730.31 481.064 736.065 480.543C729.557 480.081 720.765 480.321 714.118 480.343Z" fill="black" fill-opacity="0.490196"/>
<path d="M714.118 480.343C720.765 480.321 729.556 480.081 736.065 480.543C730.31 481.064 719.669 480.796 713.548 480.833C713.066 480.81 712.768 480.689 712.286 480.562L714.118 480.343Z" fill="black" fill-opacity="0.0509804"/>
<path d="M258.622 324.44C263.679 326.238 265.836 329.719 266.572 334.833C264.845 339.559 263.229 343.317 258.278 345.595C251.804 348.575 242.124 344.766 239.873 337.911C240.997 334.767 239.132 330.718 242.616 327.841C246.907 324.297 253.424 324.335 258.622 324.44Z" fill="black"/>
<path d="M442.452 630.172C443.994 629.9 444.061 629.797 445.635 630.154C448.212 631.496 461.63 631.487 464.367 630.43L464.626 631.447C462.865 633.364 453.075 631.959 449.678 632.65C438.542 632.905 425.758 632.401 414.425 632.379C418.57 629.258 435.903 632.646 442.452 630.172Z" fill="black" fill-opacity="0.952941"/>
<path d="M273.455 422.36C276.107 428.239 275.557 451.428 274.896 458.837C273.843 457.475 274.045 450.739 273.559 448.043L273.304 448.293C272.98 451.376 273.045 453.091 273.161 456.209L272.837 456.072C272.181 453.049 272.852 445.152 272.888 441.566C272.933 437.148 271.746 425.943 273.455 422.36Z" fill="black" fill-opacity="0.12549"/>
<path d="M263.252 514.184C264.312 515.937 263.966 518.638 263.973 520.881C263.925 523.154 263.613 536.362 264.302 537.761C264.372 539.135 264.39 541.239 264.744 542.507C265.018 544.002 265.103 543.478 264.77 544.843C263.11 547.42 264.898 550.578 263.083 553.511C261.82 540.429 261.878 527.254 263.252 514.184Z" fill="black" fill-opacity="0.972549"/>
<path d="M250.223 321.858C253.803 322.68 255.268 323.041 258.621 324.44C253.424 324.335 246.907 324.297 242.616 327.841C239.131 330.718 240.997 334.767 239.873 337.911L237.159 335C240.206 326.878 241.66 324.325 250.223 321.858Z" fill="black" fill-opacity="0.964706"/>
<path d="M411.737 630.573C416.308 629.744 436.87 630.127 442.452 630.172C435.903 632.646 418.57 629.258 414.425 632.378C412.637 632.726 404.133 632.209 402.982 631.621C406.157 630.791 408.637 631.322 411.737 630.573Z" fill="black" fill-opacity="0.176471"/>
<path d="M497 490.12C504.026 490.755 509.487 491.217 516.607 491.006L518.751 491.63C517.048 492.41 509.367 492.154 506.612 492.455C505.426 492.528 505.475 492.458 504.525 493.155C501.819 492.999 495.984 493.289 494.535 491.805C493.857 491.112 492.667 491.449 491.049 491C493.251 490.825 494.838 490.7 497 490.12Z" fill="black" fill-opacity="0.905882"/>
<path d="M156.014 762.373C154.708 761.49 154.178 761.236 153.728 759.555C152.884 756.403 153.766 746.394 155.326 743.951C156.043 744.638 156.28 747.781 156.451 748.989C156.549 749.413 156.077 761.08 156.014 762.373Z" fill="black" fill-opacity="0.937255"/>
<path d="M493.274 764.281C494.928 767.3 492.93 774.937 494.78 775.517C495.07 777.068 493.76 782.601 493.372 784.719C493.14 784.447 492.386 783.533 492.244 783.315C490.478 780.639 492.721 767.706 493.274 764.281Z" fill="black" fill-opacity="0.960784"/>
<path d="M157.03 763.14C157.814 762.824 158.384 762.65 159.193 762.404C164.765 764.246 168.404 759.426 171.166 760.527C168.668 764.678 161.067 767.648 157.03 763.14Z" fill="black" fill-opacity="0.952941"/>
<path d="M681.539 508.569C686.559 506.742 697.927 508.809 703.481 509.34C698.756 509.783 687.843 510.145 682.845 509.972C681.971 509.942 681.775 509.134 681.539 508.569Z" fill="black" fill-opacity="0.886275"/>
<path d="M96.9903 642.138C98.7027 645.919 97.6434 651.652 96.6645 655.611L94.7471 652.705C94.92 649.405 94.7462 644.274 96.9903 642.138Z" fill="black" fill-opacity="0.917647"/>
<path d="M513.089 615.896C516.178 615.762 526.944 615.334 529.419 616.52C525.843 617.978 521.332 617.34 518.875 617.996L517.132 618.067C515.461 617.924 514.64 617.866 513.018 617.492L515.933 616.756L516.102 616.444L513.089 615.896Z" fill="black" fill-opacity="0.152941"/>
<path d="M181.328 586.836C185.59 585.203 187.743 584.46 192.257 583.936C193.115 585.262 192.984 584.574 192.788 586.042C190.91 588.035 183.966 587.334 181.328 586.836Z" fill="black" fill-opacity="0.945098"/>
<path d="M251.601 286.285C251.946 285.269 252.948 282.077 253.659 281.703L253.745 282.502C253.985 284.569 254.24 285.144 255.073 286.954L254.957 287.8L254.209 288.201C253.719 290.273 254.091 292.118 254.318 294.259L252.238 294.39C252.83 289.812 252.379 290.334 251.601 286.285Z" fill="black" fill-opacity="0.984314"/>
<path d="M377.98 351.514C382.481 351.466 390.907 351.816 394.783 351.511C388.409 352.907 388.401 354.715 380.682 352.643L381.283 352.55C380.23 351.754 379.39 351.794 377.98 351.514Z" fill="black" fill-opacity="0.407843"/>
<path d="M294.783 469.393C293.645 464.672 293.835 449.62 294.422 444.484C294.99 449.275 294.242 464.559 295.853 466.933L295.986 468.293C295.496 468.789 295.349 468.989 294.783 469.393Z" fill="black" fill-opacity="0.454902"/>
<path d="M270.47 475.486C271.664 478.296 270.465 480.994 271.448 484.029L271.714 485.761C270.959 486.783 271.214 486.441 270.039 487.157C269.569 488.658 269.604 488.722 269.527 490.222C269.366 488.842 269.229 486.943 268.857 485.656C268.801 483.701 269.834 477.314 270.47 475.486Z" fill="black" fill-opacity="0.964706"/>
<path d="M640.129 583.989C640.37 585.241 640.615 586.301 640.726 587.576C640.535 590.309 641.288 595.819 639.665 597.576L639.188 597.389C639.135 594.798 638.252 587.852 638.858 585.967C639.643 586.377 639.665 586.936 640.142 587.955C640.013 586.568 640.093 585.378 640.129 583.989Z" fill="black" fill-opacity="0.113725"/>
<path d="M264.868 514.203C265.711 519.462 264.606 536.083 264.744 542.507C264.389 541.239 264.371 539.135 264.301 537.761C264.731 535.42 264.269 523.643 263.972 520.881C263.966 518.638 264.312 515.937 263.252 514.184C264.375 514.27 263.836 514.27 264.868 514.203Z" fill="black" fill-opacity="0.109804"/>
<path d="M490.804 508.438C493.372 508.18 500.562 507.701 502.551 509.301C501.414 510.447 499.461 510.317 497.887 510.341C496.76 510.436 493.777 510.487 492.747 510.008L494.829 508.836C493.487 508.71 492.146 508.577 490.804 508.438Z" fill="black" fill-opacity="0.8"/>
<path d="M178.132 400.522C180.399 400.198 182.294 400.404 184.574 400.529C182.039 400.995 180.451 401.816 177.888 402.116C174.79 402.48 172.218 402.352 169.142 402.069L168.852 401.618L168.95 401.425C171.774 401.258 175.437 401.165 178.132 400.522Z" fill="black" fill-opacity="0.701961"/>
<path d="M464.817 614.063C466.632 614.077 468.183 614.09 470.006 613.974L470.983 614.438L471.25 615.075C462.053 615.066 449.459 615.37 440.579 614.763L443.004 614.567C446.276 614.781 461.893 614.701 464.447 614.086L464.817 614.063Z" fill="black" fill-opacity="0.0901961"/>
<path d="M273.161 456.209C273.045 453.091 272.98 451.376 273.304 448.293L273.559 448.043C274.045 450.739 273.843 457.475 274.896 458.837C275.133 461.422 275.603 459.869 274.472 462.263L273.885 462.455C273.057 460.299 273.204 458.529 273.161 456.209Z" fill="black" fill-opacity="0.878431"/>
<path d="M516.606 491.006C521.278 490.621 521.621 492.132 525.745 492.833L519.981 492.874C515.817 492.689 510.57 493.309 506.611 492.455C509.366 492.154 517.048 492.41 518.75 491.63L516.606 491.006Z" fill="black" fill-opacity="0.172549"/>
<path d="M445.635 630.154C451.791 629.975 458.233 629.842 464.367 630.43C461.63 631.487 448.211 631.496 445.635 630.154Z" fill="black" fill-opacity="0.54902"/>
<path d="M286.118 520.121C286.287 523.208 286.408 540.531 286.087 543.488C285.093 541.427 286.389 540.143 285.22 538.505C284.831 535.894 284.986 533.123 285.034 530.472L285.457 533.373L285.668 533.437C286.051 530.623 285.882 523.655 286.118 520.121Z" fill="black" fill-opacity="0.658824"/>
<path d="M646.005 761.999C648.051 765.102 646.13 767.821 647.703 769.654L648.171 769.391C648.149 771.5 648.461 770.973 647.423 772.418L647.382 771.972C647.003 772.998 646.74 774.995 646.558 775.441C646.063 772.851 646.027 764.972 646.005 761.999Z" fill="black" fill-opacity="0.27451"/>
<path d="M285.22 538.505C285.08 540.06 285.121 540.197 284.579 541.719L284.162 541.375C283.789 537.709 283.702 532.699 284.232 529.064L284.702 528.85L285.033 530.472C284.986 533.123 284.83 535.894 285.22 538.505Z" fill="black" fill-opacity="0.0980392"/>
<path d="M237.217 372.115C239.838 371.707 246.851 370.987 248.611 372.845C244.059 372.86 240.624 374.566 237.217 372.115Z" fill="black" fill-opacity="0.0784314"/>
<path d="M263.082 553.511C264.898 550.578 263.11 547.42 264.77 544.843C264.903 549.519 264.989 553.33 264.765 558.023C264.236 556.166 264.309 555.675 264.295 553.7C263.894 555.202 264.235 555.056 263.372 555.822C262.666 554.419 262.801 555.157 263.082 553.511Z" fill="black" fill-opacity="0.203922"/>
<path d="M243.036 597.179C243.308 596.715 243.229 596.992 243.138 596.319C240.357 595.405 237.639 596.528 234.492 595.784L234.449 595.342C235.344 594.968 246.823 595.396 248.904 595.347C246.97 595.726 244.072 597.291 243.036 597.179Z" fill="black" fill-opacity="0.690196"/>
<path d="M645.804 758.517L645.956 758.896C648.207 764.402 648.644 762.404 648.171 769.391L647.703 769.654C646.13 767.821 648.051 765.102 646.005 761.999C645.675 760.724 645.795 759.859 645.804 758.517Z" fill="black" fill-opacity="0.909804"/>
<path d="M355.243 319.456C356.014 319.553 356.758 319.608 357.504 319.807C357.798 321.515 358.007 320.823 357.168 322.031C355.096 322.843 353.175 322.08 352.237 320.08C353.576 320.04 354.041 320.128 355.243 319.456Z" fill="black" fill-opacity="0.960784"/>
<path d="M507.195 615.891L513.089 615.896L516.102 616.444L515.933 616.756L513.017 617.492C514.64 617.866 515.46 617.924 517.132 618.067C515.434 618.245 510.45 618.642 509.496 617.233L510.597 616.93L510.686 616.631L510.976 616.671C509.594 616.252 508.604 616.119 507.195 615.891Z" fill="black" fill-opacity="0.713725"/>
<path d="M493.273 764.281L494.91 763.564C495.173 767.772 494.967 771.326 494.78 775.517C492.93 774.937 494.927 767.3 493.273 764.281Z" fill="black" fill-opacity="0.192157"/>
<path d="M287.094 511.665C287.226 508.008 287.153 504.502 287.035 500.849L287.524 500.436C288.678 502.153 287.274 503.495 288.417 505.642L289.314 504.809C289.08 508.04 287.847 507.094 287.094 511.665Z" fill="black" fill-opacity="0.482353"/>
<path d="M443.005 614.567C445.916 613.934 461.581 613.689 464.448 614.086C461.893 614.701 446.277 614.781 443.005 614.567Z" fill="black" fill-opacity="0.462745"/>
<path d="M271.821 472.915C272.141 476.025 272.063 480.986 271.447 484.029C270.464 480.994 271.663 478.296 270.47 475.486L271.273 475.335C271.353 474.293 271.367 473.856 271.821 472.915Z" fill="black" fill-opacity="0.105882"/>
<path d="M291.379 477.015C291.787 479.27 291.835 482.092 292.891 483.958C293.055 485.246 293.363 486.144 292.706 487.232L291.636 484.049L291.05 484.688C290.892 482.588 291.233 479.207 291.379 477.015Z" fill="black" fill-opacity="0.372549"/>
<path d="M595.567 693.994C595.594 695.153 595.848 699.656 595.335 700.41L595.317 700.963C595.036 699.558 594.947 698.1 594.136 697.062C593.681 698.056 593.57 698.386 593.267 699.433C593.369 695.211 594.011 697.173 595.567 693.994Z" fill="black" fill-opacity="0.47451"/>
<path d="M166.079 400.553C170.191 400.468 174.009 400.397 178.132 400.522C175.438 401.165 171.774 401.258 168.95 401.425C168.076 400.786 167.231 400.784 166.079 400.553Z" fill="black" fill-opacity="0.258824"/>
<path d="M263.972 520.881C264.269 523.643 264.73 535.42 264.301 537.761C263.612 536.362 263.924 523.154 263.972 520.881Z" fill="black" fill-opacity="0.537255"/>
<path d="M504.525 493.155C505.475 492.458 505.426 492.528 506.612 492.455C510.57 493.309 515.818 492.689 519.981 492.874C515.528 493.545 509.099 493.298 504.525 493.155Z" fill="black" fill-opacity="0.462745"/>
<path d="M473.457 613.216C474.585 613.185 475.753 613.109 476.868 613.207L477.095 613.515L477.487 613.261L477.746 613.524C475.218 614.126 473.185 613.965 470.983 614.438L470.007 613.974L473.457 613.216Z" fill="black" fill-opacity="0.282353"/>
<path d="M254.318 294.259C254.091 292.118 253.719 290.273 254.209 288.201L254.957 287.8C254.955 289.942 255.029 292.081 254.741 294.198L254.318 294.259Z" fill="black" fill-opacity="0.211765"/>
<path d="M467.256 613.216C469.324 613.185 471.388 613.185 473.457 613.216L470.007 613.974C468.183 614.09 466.632 614.077 464.817 614.063C465.968 613.479 465.99 613.555 467.256 613.216Z" fill="black" fill-opacity="0.564706"/>
</g>
<defs>
<clipPath id="clip0_2091_8467">
<rect width="880" height="1168" fill="white"/>
</clipPath>
</defs>
</svg>
