<svg width="772" height="1248" viewBox="0 0 772 1248" fill="none" xmlns="http://www.w3.org/2000/svg">
<g clip-path="url(#clip0_2110_10408)">
<path d="M729.623 496.991C735.066 496.408 747.135 496.086 751.091 499.228C759.813 506.149 737.803 534.798 731.641 537.616C706.297 549.203 675.693 544.527 648.831 547.337C644.54 555.109 643.211 560.333 637.683 568.464L638.359 568.628C638.707 568.715 639.06 568.801 639.408 568.888C650.062 570.487 648.904 583.245 643.12 590.132C655.664 592.668 664.618 592.39 677.424 591.954C682.903 588.201 687.292 585.514 694.186 587.615C700.159 589.433 704.663 595.359 707.315 600.766C716.579 619.68 718.981 642.354 712.8 662.586C707.601 679.27 698.464 690.727 684.476 700.836C681.422 703.042 676.174 707.497 672.84 708.947C655.499 716.509 626.029 714.188 608.419 708.624C594.571 704.255 585.562 697.022 579.385 684.627C577.847 687.278 575.304 690.385 572.368 691.44C561.466 695.334 549.504 697.576 538.22 700.05C498.575 708.514 458.668 715.705 418.56 721.604C415.467 732.499 411.125 743.218 405.358 752.974C398.555 764.485 377.343 783.839 364.066 786.173C325.873 792.876 276.719 786.07 266.436 741.408C238.838 745.875 211.095 749.403 183.256 751.975C162.822 753.785 135.929 755.863 115.717 753.127C97.9122 751.098 82.1828 745.607 67.3007 735.552C58.053 729.3 53.8869 726.211 51.7286 715.339C47.0529 714.712 38.1837 714.511 36.5539 709.361C33.4556 699.575 39.9989 691.726 43.2275 683.183C47.7758 671.141 51.5439 658.838 57.3971 647.321C65.7769 629.948 76.9738 617.011 91.7798 605.069C107.832 592.121 118.38 589.48 137.836 599.03C152.38 606.168 169.289 619.802 174.599 635.664C176.68 634.798 182.181 632.58 184.201 632.349C203.974 630.124 229.141 614.372 248.963 616.712C259.471 611.045 271.25 602.962 282.006 596.886C291.375 590.238 304.95 585.168 314.082 578.884C341.889 559.749 354.955 558.249 386.219 575.07C397.026 568.077 405.55 561.67 418.678 560.202C421.051 553.332 424.141 549.502 428.651 544.119C424.004 543.998 421.135 544.1 416.346 544.329C408.001 544.667 397.799 548.234 389.853 544.887C380.703 540.859 390.168 528.76 394.245 524.539C405.418 512.968 421.471 518.317 436.217 516.558C453.402 514.509 468.459 511.279 485.078 506.51C500.666 511.177 512.577 511.04 528.451 512.55C573.65 516.853 618.501 513.126 663.587 509.634C672.956 508.908 682.684 508.193 692.07 508.098C703.676 500.791 716.092 497.931 729.623 496.991ZM265.667 731.031L265.858 721.092C260.457 717.759 245.955 711.963 244.342 708.612C244.356 703.42 250.631 700.318 255.207 700.416C257.051 700.452 260.714 702.189 262.492 703.042L265.388 704.492C267.283 703.731 266.55 704.322 267.725 702.737C267.263 698.228 259.869 697.783 255.964 695.815C258.862 688.996 260.537 687.838 267.008 684.078C222.833 688.947 179.028 702.195 136.644 715.071C134.556 715.705 132.623 715.345 130.761 714.309C128.012 709.94 134.963 703.018 138.826 702.134C140.125 702.811 140.629 703.127 141.842 703.962C145.92 703.402 150.36 700.867 154.379 699.806C185.951 691.476 222.685 678.753 254.826 674.53C256.472 672.671 260.899 667.845 263.001 668.344C268.844 669.728 270.008 671.062 276.648 671.172C283.564 654.731 291.851 646.297 307.927 638.205C315.143 634.573 327.202 640.776 334.662 642.842C343.2 645.213 351.258 647.693 360.206 648.235C385.002 651.002 406.242 640.502 417.946 670.038C418.435 671.251 418.881 672.476 419.284 673.719C448.828 669.85 488.036 663.512 516.483 656.084C523.551 644.463 533.91 628.229 533.554 614.47C533.393 608.215 532.208 599.289 532.557 593.603C534.353 591.392 535.681 589.784 537.684 587.761C533.036 588.698 524.456 590.8 521.882 585.592C522.02 581.839 524.294 580.572 526.477 578.114C529.793 574.379 532.936 577.646 535.976 577.154C540.886 576.359 546.195 574.975 551.169 573.955C562.886 571.48 574.665 569.301 586.495 567.42C571.693 559.54 565.574 560.068 549.254 557.565C537.162 555.711 527.449 553.947 515.176 554.553C511.195 554.749 496.235 545.656 493.322 541.834C489.316 541.781 482.556 541.887 478.799 541.313C484.905 549.293 503.095 576.778 501.769 586.386C501.397 589.076 499.254 591.077 497.134 592.559C486.61 599.915 443.087 607.769 429.174 608.735C423.859 609.103 418.453 608.962 413.216 607.94C386.857 602.798 375.903 574.573 341.347 575.251C334.012 575.395 325.308 577.545 319.182 581.713C315.036 584.534 311.876 588.694 307.673 591.397C296.448 598.621 284.103 604.695 272.489 611.325C254.135 621.8 235.747 633.452 218.806 646.072C217.834 644.676 218.166 644.957 218.201 642.854C220.334 638.546 232.051 630.813 232.126 630.258C227.424 629.113 220.097 632.227 215.506 633.525C176.171 644.67 133.998 663.957 99.0825 685.163C91.2483 689.922 69.136 701.848 67.0489 709.867C66.4175 712.293 66.8734 714.706 68.2259 716.802C75.781 728.502 103.562 738.447 116.999 740.805C155.607 747.594 226.575 737.222 265.667 731.031ZM66.0914 654.889C62.3666 662.982 58.3315 675.535 55.3248 684.2C53.5072 688.417 45.3225 705.34 56.6346 704.084C61.5474 700.525 66.4333 691.793 71.4552 690.002C73.7531 690.867 74.9697 691.653 77.2475 690.264C101.046 675.767 124.558 661.172 149.836 649.247C154.832 646.894 156.058 645.657 159.6 641.507C152.539 623.117 126.405 602.94 106.338 605.248C84.627 609.239 74.9197 641.178 67.798 659.801C72.567 654.786 97.4191 615.061 106.039 625.213C107.769 633.415 99.9748 634.877 95.6393 639.387C88.687 646.62 83.4799 664.536 72.8504 666.65C67.1477 667.784 66.3626 658.814 66.0914 654.889ZM678.393 598.382C669.646 611.581 662.32 620.356 659.217 636.407C663.782 631.13 668.799 625.554 676.229 624.677C687.786 623.312 693.491 644.335 693.838 652.842C694.478 668.545 683.75 690.928 666.891 694.042C664.276 694.493 660.089 691.921 658.291 690.014C651.226 682.604 650.708 670.55 650.842 661.007L650.848 660.386C649.251 663.189 647.813 666.851 644.448 667.546C639.877 664.396 643.418 650.563 644.491 645.67C647.764 630.667 653 615.451 663.459 603.86C653.018 604.505 639.853 603.503 629.655 601.013C624.517 599.881 621.981 599.267 616.733 598.895C605.506 606.466 594.516 630.886 591.932 643.652C585.788 673.89 595.857 694.913 627.869 700.105C638.822 701.884 672.791 703.383 680.636 696.309C704.59 674.706 708.808 631.569 691.138 604.751C687.615 599.406 684.202 598.097 678.393 598.382ZM578.143 644.384C580.79 636.346 584.398 625.761 588.555 618.455L588.336 617.852L583.813 618.266C580.68 618.388 576.609 618.382 574.81 621.118C569.379 629.381 568.536 640.124 564.172 649.698L564.337 650.813C565.663 650.825 565.66 650.904 566.876 650.429C571.379 648.808 574.473 647.565 578.143 644.384ZM592.462 540.993C613.296 538.866 651.397 534.658 671.664 535.083C673.578 529.171 675.68 524.634 679.545 519.704C655.901 520.497 631.472 522.752 607.554 524.486C567.989 527.354 529.438 525.562 489.945 521.704C486.876 521.405 476.636 518.525 475.643 518.537C456.441 525.351 432.935 528.424 412.583 528.997C409.052 529.097 398.09 527.173 400.802 534.067C404.225 535.705 416.977 531.762 422.709 532.215C436.28 533.286 450.115 530.351 463.381 529.897C466.261 529.798 476.071 540.691 479.858 539.233C483.772 537.958 486.47 530.039 491.741 530.244C499.18 531.011 509.511 536.19 516.935 538.169C522.243 539.584 530.779 542.329 535.772 542.836C553.54 544.64 574.706 542.174 592.462 540.993ZM518.343 666.864C494.09 671.806 469.969 677.113 445.424 680.581C438.797 681.519 427.871 683.615 421.465 684.03C422.172 690.184 422.763 698.521 422.453 704.779C422.361 706.625 420.745 707.271 421.241 709.959C423.981 711.378 518.627 693.981 528.791 691.495C540.232 689.112 568.714 683.707 578.062 680.026C575.869 670.697 574.687 662.336 576.984 652.75C569.206 658.412 536.913 679.874 528.687 672.823C526.842 667.662 535.69 657.327 540.309 662.141C541.34 663.213 556.034 657.162 557.411 655.767C553.869 655.426 550.986 656.187 547.882 653.604C546.798 651.014 550.045 642.653 551.036 639.734C554.618 629.192 553.481 618.571 558.465 608.339C560.742 603.668 569.859 595.188 574.33 601.326C574.944 604.943 573.539 606.675 571.546 609.558C583.051 604.831 586.934 607.73 597.789 604.99C604.933 600.807 606.749 591.99 614.844 588.5C621.024 585.836 623.859 586.839 630.32 586.809C630.893 586.806 631.234 584.9 631.307 584.608C632.051 581.504 636.659 578.473 639.097 576.629C629.783 576.522 617.075 576.022 608.383 576.137C590.061 577.074 563.112 580.646 545.073 585.986C546.071 592.81 547.64 601.313 547.277 608.336C546.325 626.761 533.157 642.872 525.705 659.1C524.639 661.422 520.33 665.06 518.343 666.864ZM413.182 594.241C426.614 597.943 439.937 597.143 453.501 594.536C462.804 592.913 477.944 589.592 486.888 586.874C479.614 570.039 466.449 538.726 444.116 541.195C431.1 548.266 428.695 567.328 424.536 580.221C421.885 588.444 420.737 590.097 413.182 594.241ZM586.958 552.287C594.004 554.57 596.656 555.628 601.672 561.215L603.494 564.9C611.491 564.755 618.696 564.55 626.705 565.171C629.686 559.6 632.569 553.981 635.36 548.316L626.224 548.786C613.241 549.589 599.935 551.029 586.958 552.287ZM369.926 705.266C365.764 709.319 360.271 718.868 367.817 722.323C371.761 718.039 377.252 709.179 369.926 705.266ZM729.404 529.742C732.805 525.018 739.796 516.895 739.187 511.096C737.163 506.749 730.208 507.88 726.076 508.472C715.501 509.232 686.64 511.581 686.073 526.033C685.792 533.296 696.215 534.157 701.427 533.917C711.368 532.886 719.578 531.538 729.404 529.742ZM413.755 572.519C404.366 573.35 400.786 574.285 392.168 578.641C394.5 580.524 396.838 582.454 399.26 584.215C400.566 585.502 402.319 587.155 403.86 588.14C409.495 591.744 415.166 575.546 414.235 572.74L413.755 572.519ZM361.649 691.214C370.236 679.587 386.964 665.822 397.747 685.73C405.773 700.544 402.063 724.133 396.389 739.05C385.768 769.69 356.227 769.781 351.255 736.625C350.572 732.067 351.9 723.42 350.971 719.227C348.54 720.483 347.9 721.305 345.443 721.244C340.192 713.584 356.478 669.124 362.498 660.654C351.961 659.691 344.558 658.917 334.266 656.596C326.07 654.743 313.458 648.972 306.096 648.954C295.72 654.14 291.019 664.304 287.428 675.395C280.39 696.638 275.011 728.605 285.397 749.562C299.88 778.781 351.292 780.664 378.068 772.17C386.075 769.629 400.356 739.769 403.102 731.043C409.276 711.433 413.869 672.348 390.899 662.025C387.841 660.691 377.913 661.087 373.953 661.172C368.944 670.849 365.431 681.007 361.649 691.214Z" fill="black"/>
</g>
<defs>
<clipPath id="clip0_2110_10408">
<rect width="772" height="1248" fill="white"/>
</clipPath>
</defs>
</svg>
