<svg width="772" height="1248" viewBox="0 0 772 1248" fill="none" xmlns="http://www.w3.org/2000/svg">
<g clip-path="url(#clip0_2149_65)">
<path d="M372.247 264.113C370.904 249.787 374.399 235.989 385.426 226.114C393.403 218.982 403.883 215.304 414.568 215.884C422.33 216.341 430.413 219.63 435.593 225.541L438.539 229.178C451.686 246.872 451.495 276.099 441.856 295.419C454.889 298.527 467.588 301.561 478.166 310.503C479.641 312.101 481.192 313.72 482.567 315.397C489.627 326.966 487.759 333.666 484.149 345.851C487.216 350.978 487.996 353.446 487.699 359.586C489.612 360.308 493.894 360.154 496.369 360.6C517.096 364.334 527.565 378.436 520.989 398.802C514.973 417.433 473.415 440.877 455.914 429.766C442.997 451.724 423.886 469.243 396.532 461.835C395.689 485.401 397.511 508.986 401.965 532.143C413.343 532.251 424.015 532.481 435.259 530.305C451.43 527.174 466.328 522.132 482.936 521.854C500.542 521.237 515.613 530.486 532.801 533.327C544.3 535.227 556.906 533.079 567.705 534.199C583.895 535.879 633.584 549.209 644.488 559.43C648.505 567.897 627.372 597.661 626.044 608.133C625.343 613.695 625.379 618.674 625.453 624.268C624.282 639.898 628.11 669.343 613.286 679.087C609.513 681.568 603.479 679.855 601.773 675.236C599.115 668.058 599.194 658.064 600.316 650.544L600.041 650.751C591.959 656.863 579.708 659.782 572.654 666.955C569.979 669.679 566.947 679.295 565.308 683.548C556.15 707.326 543.217 725.997 518.415 735.357C519.496 754.79 520.097 774.247 520.218 793.711C520.251 804.655 521.506 827.525 513.609 836.3C506.619 844.07 500.913 838.421 497.551 830.669C493.483 836.05 488.266 839.396 483.941 844.155C483.478 862.491 483.5 880.644 483.859 898.974C484.081 910.339 484.066 921.832 482.617 933.111C482.069 937.103 477.127 947.078 472.372 946.956C471.216 946.091 470.131 945.134 470.324 943.495C474.36 909.724 470.466 875.568 472.433 841.583C474.109 812.601 477.892 784.064 477.704 754.997C477.531 728.361 463.728 744.705 451.909 752.968C442.091 759.83 430.586 765.765 419.449 770.347C417.008 793.589 414.825 816.788 414.936 840.194C415.084 871.412 416.857 902.618 416.937 933.867C416.992 955.079 418.686 976.7 414.777 997.73C413.123 1007.1 407.019 1019.38 395.851 1018.5C393.513 1018.32 391.442 1016.52 390.234 1014.63C386.637 1008.42 386.241 999.277 386.258 992.148C386.303 973.464 389.644 954.811 390.905 936.177C392.617 910.863 391.712 885.903 391.184 860.62C377.355 858.433 380.147 847.055 374.523 839.396C374.29 841.711 374.64 844.039 374.342 846.342C373.585 852.199 369.985 858.774 365.466 862.558C363.026 864.605 360.091 865.97 356.837 865.763C353.566 865.55 350.673 863.691 348.618 861.217C338.019 848.469 343.577 797.684 343.687 780.317C343.757 769.208 342.911 758.123 342.128 747.051C338.308 743.724 333.707 741.152 329.452 738.306C324.548 735.022 321.785 732.219 317.539 728.197C296.292 728.825 287.113 729.745 268.822 715.948C267.537 731.158 268.584 746.076 267.333 761.761C265.446 779.366 269.627 816.386 249.613 824.521C237.299 829.524 231.931 803.065 231.537 794.722C229.445 750.421 234.476 702.469 228.134 658.484C202.16 646.48 196.824 623.055 183.85 600.799C180.324 594.751 170.362 591.743 166.038 586.8C161.037 560.164 242.225 560.446 257.009 554.731C263.22 552.33 275.599 551.643 279.996 546.262L280.267 544.731C274.965 537.645 260.46 543.223 253.905 544.64L261.19 549.931C255.653 550.455 247.982 551.225 246.431 543.616C246.152 542.247 246.972 540.468 247.959 539.474C258.464 531.67 284.548 529.045 297.925 527.491C300.101 527.238 304.847 527.745 306.033 529.247C307.705 531.365 308.932 535.099 309.867 537.642C316.417 537.305 323.589 534.893 329.031 534.72C342.343 534.298 358.28 530.533 371.018 530.221C371.11 511.59 373.069 492.9 375.621 474.451C377.732 459.182 382.615 447.784 381.291 432.437C369.292 435.259 362.456 432.805 350.894 429.33C339.749 437.373 320.311 439.251 307.829 433.486C305.982 432.507 303.427 430.838 301.578 429.702C286.758 419.779 281.819 403.016 287.576 386.345C275.492 387.629 266.014 381.955 260.762 370.982C257.383 363.74 257.018 355.453 259.746 347.941C266.573 329.145 288.482 316.986 305.465 308.849C302.97 297.054 303.718 285.604 311.326 275.841C327.777 254.735 350.047 248.465 372.247 264.113ZM381.898 426.522C377.921 418.767 374.676 411.235 371.558 403.084C361.88 377.775 340.223 378.705 327.202 352.569C334.458 356.013 340.065 358.846 346.52 363.689C351.412 367.36 356 371.272 361.141 374.55C359.425 370.822 346.491 342.519 346.34 340.818C348.259 336.41 355.612 340.843 356.663 343.238C361.875 355.109 363.874 368.542 368.305 380.736C369.174 383.127 374.427 387.561 375.904 390.022C379.808 396.13 382.336 402.647 385.129 409.273C385.404 378.151 388.201 347.881 385.343 316.882C384.482 307.536 387.772 306.04 384.384 295.337C397.798 311.875 392.335 337.818 391.928 358.624C405.734 350.702 414.212 338.906 425.413 328.423C426.118 327.763 427.284 328.291 428.012 328.614C428.123 328.857 428.433 329.474 428.439 329.702C428.859 345.18 405.097 363.937 391.99 366.519C391.072 383.163 392.102 401.773 392.229 418.611C393.76 415.397 395.309 410.257 396.715 406.258C402.003 391.215 413.034 374.285 427.212 366.452C428.585 365.694 429.381 365.767 430.545 366.286C431.248 369.098 425.144 373.652 422.83 376.646C411.005 391.951 407.047 406.619 402.587 424.826C415.806 412.391 429.572 408.313 443.854 398.076C447.033 395.797 452.203 388.275 454.404 384.737C456.141 384.138 455.723 384.382 457.871 384.98C461.712 389.205 451.11 397.605 448.077 400.515C452.852 398.749 473.469 392.262 477.139 394.624L476.899 395.752C472.41 400.874 446.913 408.647 438.825 411.996C432.815 414.497 427.003 417.449 421.437 420.824C404.012 431.431 402.177 436.476 397.747 454.657C400.956 454.631 404.464 454.623 407.644 454.354C422.204 453.146 435.842 446.738 446.064 436.303C455.574 426.469 454.952 426.104 469.341 423.987C483.794 421.557 496.174 415.274 505.807 404.212C518.003 390.206 510.239 373.589 492.855 370.39C487.907 369.48 482.906 371 477.952 371.811C476.392 372.067 475.87 372.058 474.825 371.158C474.797 369.056 478.071 365.032 478.814 361.667C481.53 349.382 459.443 347.523 461.308 337.637C464.502 333.045 474.853 338.022 479.144 339.917C474.78 303.844 437.211 310.148 430.651 300.117C430.299 297.494 434.136 289.152 434.925 285.59C438.602 269.005 438.835 252.791 430.339 237.784L426.191 232.726C419.969 227.668 414.618 224.927 406.507 225.875C398.85 226.77 389.052 230.72 384.649 237.312C375.159 251.52 381.389 264.101 372.947 279.838C364.001 271.546 355.903 264.344 342.733 264.817C334.886 265.099 327.817 268.205 322.542 274.096C317.015 280.267 314.256 288.432 314.908 296.689C315.144 300.015 315.781 301.863 316.893 304.988C320.074 305.03 323.378 305.121 326.546 305.062C322.934 308.796 317.585 315.977 312.991 316.394C310.371 315.774 309.089 314.773 307.443 312.618C291.645 322.955 275.439 333.134 269.461 352.629C264.521 368.739 289.632 387.332 297.347 373.583C298.313 375.992 297.191 380.639 296.56 383.197C292.751 398.636 296.328 414.799 311.912 422.699L317.62 424.915C323.02 426.01 335.497 427.473 340.123 423.813C340.791 419.056 320.205 401.231 321.619 394.22L322.837 393.908C334.518 397.009 339.396 407.968 347.288 416.294C357.087 426.633 368.705 426.232 381.898 426.522ZM405.228 542.938C406.787 549.613 406.864 550.96 411.065 556.424C416.304 558.207 426.437 559.271 429.439 561.771L429.232 562.619C426.01 564.31 423.416 563.639 420.44 565.043C419.269 565.595 417.869 569.31 416.356 569.65C412.273 570.565 405.15 568.832 402.259 571.774C404.999 572.705 410.446 572.703 411.613 573.778L410.905 574.193L411.259 573.328C406.08 577.946 386.718 573.118 379.098 574.119C372.072 575.043 365.465 576.946 358.593 578.047C359.949 575.374 360.866 573.383 362.685 570.984C359.286 570.917 355.944 571.084 352.794 569.829L352.051 568.826C353.844 564.697 370.656 558.76 370.836 556.468C371.03 553.974 370.091 543.987 370.129 540.556C357.548 542.177 344.684 541.157 332.46 545.463C330.219 546.253 325.914 547.811 323.632 547.655C323.229 546.474 323.336 546.032 323.405 544.811C321.543 543.465 313.568 544.203 310.622 544.008C302.75 539.149 306.603 538.779 303.195 535.114C300.635 532.359 277.775 537.674 273.789 538.601C273.022 538.779 272.26 538.976 271.502 539.19C276.201 540.564 305.448 547.211 306.308 548.26C303.739 552.009 274.621 556.59 267.714 559.435C252.15 565.847 236.587 570.475 219.613 570.406C206.145 570.549 190.527 574.077 178.017 579.772C191.036 582.656 203.961 584.299 217.082 586.468C221.349 587.173 229.621 588.604 232.236 592.045C232.801 594.45 231.572 595.769 231.561 596.749C231.536 599.149 235.925 602.944 237.89 604.081C252.607 612.592 270.877 613.305 287.189 612.921C292.072 612.446 307.7 609.929 311.286 612.02C313.119 616.212 308.444 619.222 305.557 621.855C325.263 624.122 339.023 619.582 355.746 621.91C348.635 623.287 336.808 625.865 329.886 626.51C345.904 640.459 356.47 640.648 376.86 639.332C392.455 638.32 408.519 636.017 423.877 633.055C427.496 632.36 433.81 629.161 436.873 628.674C447.417 626.986 458.11 625.213 468.647 623.549C482.345 621.477 496.081 619.661 509.848 618.113C527.137 616.102 535.274 617.467 549.775 606.527C543.339 588.109 532.568 593.139 521.012 581.305C531.553 587.436 537.437 588.1 549.36 590.278C564.21 585.22 576.099 584.427 591.313 581.69C607.191 578.833 619.26 572.795 633.48 565.763C613.957 556.205 582.493 546.273 560.813 544.728C549.378 543.913 540.136 545.767 527.748 543.4C509.131 539.843 493.978 530.606 474.934 532.806C460.456 534.542 448.19 538.887 434.021 541.679C424.371 543.581 415.031 543.188 405.228 542.938ZM308.405 645.822C323.216 652.232 332.599 657.893 338.525 674.042C344.98 691.634 348.228 713.09 350.884 731.512C353.774 734.455 354.993 735.442 357.988 738.02C361.904 741.396 372.411 746.21 373.441 750.47C370.865 752.03 365.642 750.713 362.74 749.982C359.185 749.056 355.766 747.672 352.569 745.863C353.714 761.097 354.667 776.496 354.514 791.773C354.347 808.293 353.208 825.014 354.327 841.498C354.598 845.495 356.905 854.837 361.665 855.337C363.241 851.022 363.39 847.007 364.512 842.912C366.259 836.525 373.876 831.949 378.325 826.952C384.923 834.198 385.685 840.62 389.81 849.28C390.068 846.629 390.205 842.79 391.306 840.529L392.119 840.754C397.594 855.325 399.338 864.874 400.511 880.108C402.787 909.65 400.842 937.633 398.31 967.06L396.655 988.357C396.526 989.869 395.482 996.322 395.626 997.266C396.517 1003.11 399.014 1002.98 399.061 1009.98L399.584 1009.99C405.048 1001 406.526 996.127 408.157 985.755C413.74 950.942 407.21 915.659 404.502 880.9C401.179 838.25 405.676 795.74 409.1 753.248C411.212 727.027 416.644 700.361 417.916 673.902C418.241 667.156 419.894 659.886 419.068 653.152C418.487 648.332 402.223 646.711 398.595 646.553C395.033 650.3 393.075 652.896 389.993 657.022C391.585 653.335 392.818 650.331 394.876 646.839C392.445 646.937 390.204 646.711 388.283 648.009C387.605 651.562 390.19 686.375 390.418 693.018C391.24 716.978 391.058 740.415 391.246 764.424C391.423 786.928 393.206 813.619 390.702 835.879C389.14 826.361 388.092 816.763 387.564 807.129C386.491 786.161 388.229 764.424 378.922 744.851C373.673 733.815 365.77 734.035 357.121 727.106C375.447 728.959 384.14 736.454 388.05 754.857L389.836 765.472C389.993 761.944 389.991 758.172 390.054 754.619C389.102 719.056 386.519 683.548 382.313 648.216C362.632 652.196 339.996 651.537 323.85 638.076C322.142 636.657 319.823 631.94 317.998 631.379L318.196 633.786C315.964 636.157 310.927 636.157 307.755 636.193L308.405 645.822ZM423.986 640.959C424.379 645.761 423.735 649.947 423.097 654.694C420.705 672.5 421.679 692 418.912 709.66C437.475 706.107 449.829 706.54 467.875 705.394C464.54 712.566 427.285 718.855 419.187 718.618C419.309 725.65 418.999 731.128 418.514 738.172C425.63 737.916 432.831 737.539 439.885 737.191C451.434 736.625 457.566 736.887 467.12 729.702C474.826 723.907 484.153 716.984 492.536 712.39C487.67 723.633 486.674 725.107 477.833 733.633L489.199 733.943C495.086 715.65 500.525 710.976 512.688 697.137C514.816 694.712 519.4 686.93 521.769 683.761C529.445 673.518 540.418 662.104 551.862 656.211C552.639 655.809 553.42 655.419 554.206 655.041C568.584 648.893 566.78 646.157 575.163 633.683C565.56 637.875 550.9 643.567 540.293 643.738L539.422 643.287L539.04 641.623C537.94 642.653 533.309 648.753 532.724 650.197C529.409 658.387 492.934 689.831 485.093 683.871C485.636 678.222 499.723 669.453 503.975 665.315C487.845 674.237 463.496 677.253 444.9 678.6C454.426 675.102 462.977 674.505 472.081 671.677C490.837 665.852 510.713 659.435 523.547 644.048C511.049 648.43 498.272 649.612 485.433 652.263C468.337 655.785 456.017 658.759 438.456 659.508C448.422 653.195 456.042 651.013 467.243 648.046C480.146 644.621 495.478 646.516 507.522 641.221C512.953 638.832 533.1 632.635 532.624 626.102C514.932 627.144 497.03 630.234 479.253 631.294C468.639 631.928 457.585 635.243 447.131 637.053C439.545 638.564 431.491 639.234 423.986 640.959ZM508.57 829.487C509.701 821.882 509.447 812.626 509.527 804.783C509.694 790.7 509.658 776.618 509.42 762.535C509.317 754.967 508.896 745.284 509.166 737.855C504.414 739.373 500.116 740.732 495.113 741.372C494.092 756.374 493.349 771.395 492.881 786.429C492.249 783.4 492.303 774.875 491.838 770.622C491.816 767.13 491.8 746.082 490.469 743.84C488.472 744.022 489.074 743.98 487.214 745.308C486.583 749.976 487.183 756.795 487.35 761.676C488.237 787.526 485.504 812.023 487.022 837.921C494.335 829.963 495.935 819.152 502.053 808.464C504.604 815.52 506.305 823.491 508.57 829.487ZM417.945 753.852C433.644 752.95 438.649 751.329 451.059 740.683L451.18 739.976L450.167 739.891C438.824 742.913 429.556 744.772 417.74 744.693C417.37 747.185 416.509 751.274 417.068 753.516L417.945 753.852ZM384.72 476.919C383.57 483.688 383.286 491.802 382.775 498.718C381.379 517.649 381.29 536.674 380.625 555.638C378.862 557.245 377.813 557.915 376.943 560.131C377.886 565.435 392.375 562.833 396.42 562.154C399.45 562.338 400.644 563.792 403.401 564.941C401.785 562.671 398.172 557.839 397.052 555.392C388.263 536.192 387.539 513.233 385.644 492.519C385.354 489.347 385.404 478.686 384.72 476.919ZM295.241 623.135C285.142 624.597 271.441 624.877 261.489 622.598C264.377 628.192 265.989 631.647 267.92 637.784C279.383 635.316 285.028 635.529 296.24 634.298L297.569 634.079C297.514 630.941 295.404 628.265 295.241 623.135ZM226.169 637.376C221.564 635.651 218.048 634.347 213.289 633.055C217.246 636.626 223.659 643.872 227.155 646.656C226.959 643.049 226.809 640.91 226.169 637.376ZM272.056 697.472C275.001 714.772 299.689 718.374 313.827 718.465C311.97 713.7 311 711.732 308.512 707.307C294.113 705.967 284.838 704.328 272.056 697.472ZM612.628 674.407C620.162 674.005 619.254 630.794 618.864 623.683L618.254 622.684C616.87 625.414 610.537 636.132 610.531 637.918C610.495 648.07 609.398 664.146 612.342 673.548C612.433 673.835 612.525 674.121 612.628 674.407ZM499.781 729.592C522.545 724.931 531.358 720.141 545.02 700.665C556.04 684.956 558.418 662.756 576.594 654.164C607.472 639.563 611.433 604.756 626.141 579.113L625.678 578.304C598.566 592.277 584.182 594.812 554.413 597.108C558.703 598.859 566.822 601.526 569.378 605.212C569.768 610.204 559.166 611.733 555.243 612.623C551.16 620.478 546.033 630.764 541.259 638.003L541.6 638.546L542.271 638.137C545.527 636.187 548.131 636.59 551.868 636.413C558.423 620.447 573.261 603.624 591.002 599.005C593.617 598.325 597.25 598.828 599.95 599.115C582.457 607.062 570.188 617.608 561.015 634.761C565.716 633.463 572.507 631.83 576.671 629.551C581.049 621.861 582.926 618.857 590.618 613.994C587.193 621.763 577.417 636.919 571.88 643.384C565.481 650.599 558.449 655.876 552.229 662.671C541.21 674.7 532.217 689.087 521.017 701.074C517.617 704.736 511.67 708.069 509.765 710.805C506.238 715.881 503.051 723.779 499.781 729.592ZM260.282 623.147C242.206 620.435 233.044 616.108 219.029 604.411L221.864 598.657C211.96 597.739 203.541 594.926 194.417 593.617C200.354 605.101 209.85 605.837 220.461 614.03C219.944 612.013 219.2 609.411 218.795 607.423C220.206 608.322 223.683 610.46 224.666 611.636C229.874 618.04 232.713 629.076 234.325 637.15C241.207 671.592 242.374 706.57 242.893 741.567C243.069 753.425 239.786 810.036 249.574 816.245C251.942 815.289 252.306 812.339 252.985 809.963C260.534 783.327 261.472 740.25 263.835 712.073C265.821 688.386 269.631 644.548 260.282 623.147ZM222.346 620.795C221.993 619.295 221.46 616.316 220.661 615.176L219.702 617.626C215.633 618.851 206.785 614.262 202.664 612.41C204.751 616.846 217.545 622.684 222.081 622.799C222.373 621.824 222.474 621.782 222.346 620.795ZM205.734 617.711C209.167 622.452 218.946 633.366 225.406 632.696C222.946 626.797 211.658 619.935 205.734 617.711ZM299.037 639.454C289.556 642.074 278.68 642.269 269.049 640.502C270.02 649.6 271.578 658.149 271.738 667.235L271.741 667.582C277.221 668.076 291.269 668.551 294.546 672.311C293.382 676.753 275.547 675.346 271.716 675.004C271.75 679.776 271.641 685.833 271.935 690.483C286.819 696.089 289.883 699.185 306.449 701.482C302.692 687.381 298.704 666.991 291.085 655.474C295.211 657.412 296.553 657.905 299.949 660.757C310.743 676.784 311.048 684.87 318.039 702.158C321.553 710.848 335.32 727.904 341.449 735.924C337.983 712.822 335.225 670.782 315.7 657.576C312.224 655.23 307.415 651.921 304.295 649.289C302.853 648.076 300.549 640.697 299.037 639.454Z" fill="black"/>
<path d="M372.246 264.113C370.903 249.787 374.398 235.989 385.425 226.114C393.402 218.982 403.882 215.304 414.567 215.884C422.329 216.341 430.412 219.63 435.592 225.541C432.384 228.166 429.524 230.306 426.19 232.726C419.968 227.668 414.617 224.927 406.506 225.875C398.849 226.77 389.051 230.72 384.648 237.312C375.158 251.52 381.388 264.101 372.946 279.838C364 271.546 355.902 264.344 342.732 264.817C334.885 265.099 327.816 268.205 322.541 274.096C317.014 280.267 314.255 288.432 314.907 296.689C315.143 300.015 315.781 301.863 316.892 304.988C320.073 305.03 323.377 305.121 326.545 305.062C322.933 308.796 317.584 315.977 312.99 316.394C310.37 315.774 309.088 314.773 307.442 312.618C291.644 322.955 275.438 333.134 269.46 352.629C264.52 368.739 289.631 387.332 297.346 373.583C298.312 375.992 297.19 380.639 296.559 383.197C292.75 398.636 296.327 414.799 311.911 422.699C308.139 424.824 304.754 426.664 301.577 429.702C286.757 419.779 281.818 403.016 287.575 386.345C275.491 387.629 266.014 381.955 260.761 370.982C257.382 363.74 257.017 355.453 259.745 347.941C266.572 329.145 288.481 316.986 305.464 308.849C302.969 297.054 303.717 285.604 311.326 275.841C327.776 254.735 350.046 248.465 372.246 264.113Z" fill="black"/>
<path d="M311.912 422.699L317.621 424.916C314.665 427.574 310.425 430.78 307.829 433.486C305.983 432.507 303.427 430.839 301.578 429.702C304.755 426.664 308.14 424.824 311.912 422.699Z" fill="#1C1C1C"/>
<path d="M435.593 225.541L438.539 229.178C436.024 232.577 433.387 234.903 430.339 237.784L426.191 232.726C429.525 230.306 432.385 228.166 435.593 225.541Z" fill="#1C1C1C"/>
<path d="M478.167 310.503C479.642 312.101 481.192 313.72 482.568 315.397C480.025 317.965 477.324 319.944 473.645 318.962C472.263 317.405 472.601 318.197 472.559 315.936C473.418 313.62 476.108 312.034 478.167 310.503Z" fill="#1C1C1C"/>
<path d="M454.271 542.591C454.67 542.545 455.069 542.505 455.469 542.469C457.053 542.326 459.472 542.077 460.629 543.051C459.049 545.012 446.812 547.721 442.849 549.004C459.044 549.15 471.357 545.205 489.995 547.472L480.925 549.07C471.64 550.197 438.123 557.512 432.332 551.088C432.423 545.252 449.429 543.076 454.271 542.591Z" fill="black"/>
<path d="M477.428 566.315C481.924 566.109 489.251 566.306 493.614 567.379L494.018 568.179L493.475 569.357C488.214 572.324 474.362 567.175 470.742 572.925C474.665 576.559 485.631 573.212 491.149 573.745C492.243 574.49 492.284 574.662 493.067 575.689L492.876 576.75C488.656 579.074 461.244 578.669 457.328 574.348L457.438 573.067C460.665 569.808 472.661 567.089 477.428 566.315Z" fill="black"/>
<path d="M418.302 591.959C420.54 591.73 422.511 591.473 424.331 592.647L423.75 593.724C409.82 602.842 380.519 598.622 364.836 600.706L364.071 600.812C362.205 600.901 361.519 600.865 359.663 600.633L359.336 599.932C367.595 592.568 379.169 598.479 387.332 597.324C398.264 595.777 406.832 592.546 418.302 591.959Z" fill="black"/>
<path d="M537.891 553.521C544.473 552.617 561.986 554.449 568.289 555.755C562.575 555.678 557.03 556.168 551.336 556.586C541.289 557.159 530.81 558.129 520.734 558.907C528.465 554.585 529.052 554.868 537.891 553.521Z" fill="black"/>
<path d="M319.328 571.201C326.928 569.92 331.961 569.152 339.587 570.637C341.184 571.982 343.665 573.957 345.072 575.362C339.145 574.004 329.116 573.885 325.1 572.691C322.841 572.369 321.296 572.344 319.328 571.201Z" fill="black"/>
<path d="M322.904 553.449C325.45 553.24 327.404 552.79 329.662 553.832L329.853 554.696C328.105 556.214 325.891 556.332 323.521 556.784C320.756 557.214 318.622 557.737 315.88 557.169L315.422 556.414C317.405 554.708 320.29 554.184 322.904 553.449Z" fill="black"/>
<path d="M268.675 565.712C270.944 565.403 272.288 565.104 274.588 565.489L274.977 566.228C272.649 568.627 270.075 568.849 266.894 569.216C263.727 568.682 260.563 568.128 257.402 567.551L268.675 565.712Z" fill="black" fill-opacity="0.976471"/>
<path d="M306.191 574.492C311.202 572.745 314.012 571.699 319.328 571.201C321.296 572.344 322.841 572.369 325.1 572.691C318.776 572.661 312.464 573.655 306.191 574.492Z" fill="black" fill-opacity="0.956863"/>
<path d="M483.254 695.218C484.166 695.303 484.006 695.358 484.884 695.772L484.514 697.082C480.003 701.939 476.242 703.901 469.843 704.499L469.234 704.694L468.973 704.127C471.337 700.611 479.192 696.674 483.254 695.218Z" fill="black"/>
<path d="M213.289 633.055C218.048 634.347 221.564 635.651 226.169 637.376C226.81 640.91 226.959 643.049 227.155 646.656C223.659 643.872 217.247 636.626 213.289 633.055Z" fill="black" fill-opacity="0.01"/>
<path d="M491.838 770.622C492.303 774.875 492.249 783.4 492.881 786.429C493.17 788.111 493.231 788.202 492.489 789.665C491.464 788.379 491.733 773.583 491.838 770.622Z" fill="black" fill-opacity="0.568627"/>
<path d="M390.054 754.62C389.991 758.172 389.993 761.944 389.836 765.473L388.051 754.857L390.054 754.62Z" fill="black" fill-opacity="0.0196078"/>
<path d="M615.846 418.843C628.652 417.508 645.188 424.931 644.804 439.727C644.664 445.172 642.952 448.865 640.964 453.806C649.132 453.19 663.407 454.376 669.801 459.701C674.531 463.638 674.689 467.553 675.299 473.2C676.817 474.036 706.165 479.72 711.334 481.058C697.516 481.746 684.606 480.593 670.831 479.48C666.632 482.363 654.1 487.984 652.204 480.179C655.154 471.527 667.869 474.82 670.947 472.865C672.922 463.677 662.395 457.943 654.612 457.133C646.042 456.243 642.147 456.734 634.211 459.689C648.413 427.76 608.928 418.369 586.138 439.629C586.717 443.687 587.765 452.066 584.651 455.097C580.152 454.537 576.856 447.363 573.13 444.582C571.694 443.51 569.049 442.546 567.333 441.897C552.789 443.691 545.172 452.33 541.531 466.01C546.64 466.596 553.028 468.782 552.149 475.192C549.371 479.354 546.556 478.342 542.22 477.3C538.271 475.031 538.044 474.249 536.23 470.052C527.355 472.982 514.695 478.773 510.092 487.125C529.882 484.546 546.998 492.559 566.628 487.876C571.421 487.058 583.291 487.124 587.985 488.119C596.957 490.021 638.983 487.663 643.945 491.375L643.951 492.324C642.567 493.164 641.58 493.621 640.111 494.306C640.038 495.4 639.959 496.494 639.873 497.586C635.857 503.35 624.33 499.068 618.119 498.186C588.887 494.029 559.873 492.088 530.367 493.496C527.225 493.646 507.551 493.743 506.83 492.664C498.585 480.314 528.911 469.133 536.577 466.668C542.63 446.381 559.631 426.825 581.987 438.85C591.111 427.375 600.797 420.62 615.846 418.843ZM549.94 474.685C548.817 471.312 545.41 469.847 542.11 469.381C542.864 471.643 543.042 472.761 544.909 474.323C546.952 475.184 547.709 475 549.94 474.685Z" fill="black"/>
<path d="M121.435 428.649C136.642 429.127 143.865 437.464 143.954 452.174C146.512 452.815 147.188 450.617 149.048 450.372C163.543 448.469 177.366 458.345 169.169 473.624C181.278 472.871 196.774 474.186 205.785 483.251C209.175 486.661 204.597 492.538 201.508 494.191C184.505 503.298 145.369 503.229 127.398 499.659C145.094 495.658 184.396 494.767 202.472 487.301C202.996 487.084 202.702 486.168 202.624 485.356C201.006 484.345 199.37 483.33 197.634 482.533C193.993 480.861 175.947 476.028 172.196 477.766C170.737 478.443 170.393 481.137 168.086 481.989C166.066 481.496 165.31 479.573 163.768 477.484C165.806 455.681 155.701 457.399 138.469 461.521C133.207 459.634 139.185 440.455 121.694 436.925C105.129 433.58 101.878 440.956 97.8912 455.413C101.222 456.959 108.292 460.392 106.743 464.145C102.77 473.772 94.4144 466.219 91.3924 462.202C83.9849 463.818 81.5431 464.735 75.8203 469.634C79.9675 461.745 82.4733 458.094 91.8087 456.912C95.4354 442.362 105.791 429.98 121.435 428.649Z" fill="black"/>
<path d="M224.464 396.29C248.056 395.692 244.489 413.347 228.278 423.59C230.424 420.25 233.704 415.88 234.81 412.186C236.921 405.13 220.187 399.708 216.034 402.963L217.648 406.46C216.728 408.032 216.393 408.85 215.047 410.035C211.897 411.044 206.54 407.724 202.474 407.366C197.475 406.927 185.095 412.75 181.324 411.812C181.676 410.49 181.358 410.896 182.32 410.021C191.191 401.942 199.177 401.28 210.31 401.572C214.73 397.793 218.875 397.126 224.464 396.29Z" fill="black"/>
<path d="M615.475 736.473C613.36 746.351 601.047 749.647 600.023 737.46C599.609 732.56 605.887 705.035 608.014 702.628L609.038 702.713C612.019 707.052 615.438 721.768 615.688 727.503L615.475 736.473Z" fill="black"/>
<path d="M615.475 736.472C614.177 737.447 612.543 738.977 611.038 739.056C609.721 736.564 606.399 728.892 606.539 726.216L607.442 725.82C612.226 726.405 610.331 728.27 615.688 727.502L615.475 736.472Z" fill="#1C1C1C"/>
<path d="M266.838 456.657C271.445 456.069 279.223 456.735 283.57 458.336C287.229 459.683 287.389 459.653 288.937 462.677C291.29 464.12 306.197 464.082 310.702 464.547C309.116 465.137 296.942 465.79 294.417 465.959C286.947 466.692 278.908 466.954 271.386 467.3C266.643 467.518 252.794 468.941 250.676 464.31C252.367 458.479 261.905 457.304 266.838 456.657ZM261.556 463.43C267.523 463.752 272.6 463.908 278.571 463.864C280.766 463.665 280.929 464.056 282.075 462.869C279.626 461.414 272.752 461.61 270.281 462.163C267.706 462.438 263.925 462.709 261.556 463.43Z" fill="black"/>
<path d="M270.279 462.164C272.75 461.61 279.625 461.414 282.074 462.869C280.928 464.056 280.764 463.665 278.57 463.864C272.599 463.908 267.522 463.752 261.555 463.43C263.924 462.71 267.705 462.438 270.279 462.164Z" fill="black" fill-opacity="0.027451"/>
<path d="M578.106 373.17C581.797 372.708 585.668 373.002 589.404 373.157C586.18 374.719 582.193 375.847 578.739 376.944C583.571 377.156 589.38 377.982 594.018 377.987C602.777 377.997 609.86 377.553 618.667 378.318C610.073 380.338 606.946 381.149 598.108 380.812C589.63 380.564 560.611 390.772 556.941 383.056C558.288 375.138 571.752 373.872 578.106 373.17Z" fill="black"/>
<path d="M76.2067 480.208C79.186 480.009 81.0542 479.832 83.7124 481.4C82.2148 483.864 71.7492 484.374 70.2785 488.454C72.6111 491.997 113.787 495.417 121.027 496.163L121.462 496.379L120.94 496.826C108.294 498.338 88.5172 499.445 76.072 498.114C60.5797 496.457 64.7812 486.014 76.2067 480.208Z" fill="black"/>
<path d="M477.224 480.462C478.206 480.503 478.608 480.685 479.551 480.943L479.414 481.759C475.914 483.581 466.6 484.409 462.252 485.531C457.72 486.699 456.185 487.173 451.77 489.141C450.629 489.945 451.242 489.783 449.883 489.685C454.816 482.749 469.295 480.934 477.224 480.462Z" fill="black" fill-opacity="0.984314"/>
</g>
<defs>
<clipPath id="clip0_2149_65">
<rect width="772" height="1248" fill="white"/>
</clipPath>
</defs>
</svg>
