<svg width="880" height="1168" viewBox="0 0 880 1168" fill="none" xmlns="http://www.w3.org/2000/svg">
<path d="M262.871 104.138C266.276 102.571 272.026 101.398 275.771 100.36C295.338 94.9366 316.32 92.2812 336.515 90.4813C339.975 90.1733 357.07 88.3854 359.15 88.6118C366.281 89.3891 389.149 90.4488 394.637 91.8495C404.906 92.6536 414.303 95.5702 424.168 98.1737C459.537 107.507 489.335 127.161 512.681 155.099C530.06 175.896 541.331 199.222 551.699 223.96C555.044 231.942 558.819 239.482 561.621 247.815C574.11 284.941 583.971 322.707 587.342 361.862C587.963 367.937 590.062 374.36 590.826 380.465C591.79 388.476 592.754 400.592 592.532 408.59C593.284 419.479 593.741 430.123 593.969 441.036C594.088 446.829 595.172 456.726 594.009 462.33C593.227 470.48 593.923 479.375 594.26 487.576C595.235 511.365 595.799 535.019 595.446 558.833C595.389 562.773 595.064 571.887 595.811 575.246C597.522 572.485 601.314 567.24 603.778 565.274L604.537 565.877C607.337 563.959 610.77 559.047 613.542 556.315C624.532 545.482 634.022 533.732 644.704 522.592C649.358 517.741 654.257 510.652 658.985 505.733C665.196 499.278 671.184 493.756 677.235 487.033C677.486 488.081 677.435 488.135 678.011 489.026C681.398 485.602 682.784 484.162 686.856 481.405L687.33 481.232C689.183 476.895 690.501 475.165 694.693 473L693.438 472.584L693.409 471.855C694.784 470.479 696.21 468.566 697.824 468.119C697.938 470.029 697.692 470.481 698.747 471.441L700.088 470.919C701.12 469.668 701.548 469.621 701.593 468.346C700.487 469.449 700.036 470.028 698.628 470.765L698.633 469.289C699.666 467.435 699.797 467.395 701.536 466.054L701.981 465.715C702.312 464.739 702.706 463.786 703.156 462.86C705.283 458.533 708.694 456.291 713.154 454.885L711.819 453.388C714.055 451.28 717.511 448.696 718.657 446.113C722.131 443.016 722.228 443.436 726.665 442.069L725.53 441.129C726.858 440.481 727.668 439.065 728.415 437.731C733.183 429.286 739.565 431.428 743.905 420.41L743.546 419.63L742.633 419.994C741.727 422.89 741.105 423.397 738.39 424.856C737.712 420.848 760.61 403.976 765.566 402.908C773.664 401.163 780.582 397.436 789.337 397.742C796.386 397.988 803.332 397.937 810.364 398.49C813.997 398.695 818.377 400.787 821.851 399.16C827.81 399.741 835.453 405.023 839.719 409.081L840.084 412.5C840.238 413.915 843.779 418.689 844.555 420.414C845.433 422.367 845.895 424.18 846.716 426.158C847.823 423.923 845.057 423.19 846.659 421.624C847.23 422.014 847.646 422.358 848.33 422.527C852.311 430.081 854.273 441.194 854.895 449.794C853.817 454.201 854.929 457.382 852.859 461.089C852.893 466.207 853.344 471.314 854.205 476.36C854.741 474.849 854.946 456.097 855.06 453.237C859.423 493.939 844.241 520.219 823.938 554.534L822.871 556.475C793.985 607.491 774.697 664.368 751.77 718.143C747.47 728.215 741.407 737.483 737.113 747.566C730.201 765.787 722.45 781.916 712.777 798.825C708.74 805.88 705.66 813.91 700.738 820.549C696.386 822.944 696.392 826.965 693.871 828.065L693.101 827.592L692.149 829.217L691.322 829.274L690.803 828.55C689.725 829.611 689.257 831.282 688.693 832.742C687.775 833.854 686.058 836.061 685.043 836.928L684.969 838.12C684.256 839.107 680.332 844.644 679.756 845.135L678.935 846.686C677.56 848.117 675.176 850.444 674.064 851.961C674.406 856.045 674.383 864.354 677.229 866.829C668.692 891.661 668.726 893.771 669.296 920.011C669.576 932.803 669.69 945.601 669.644 958.393C668.635 956.694 668.486 953.397 668.082 951.293C667.306 951.943 667.277 953.893 667.089 955.165C667.163 963.805 667.363 972.668 666.633 981.28C666.314 985.135 665.869 985.489 666.918 989.378L667.118 989.988L667.386 990.781C670.363 983.652 668.161 974.544 669.867 968.049C670.431 980.618 670.026 995.532 668.355 1007.98C667.448 1014.71 663.713 1022.44 662.903 1029.44C662.31 1034.55 663.998 1037.58 662.19 1042.37C661.198 1041.79 660.65 1041.23 659.812 1040.46C658.557 1038.08 658.831 1035.31 658.808 1032.56C656.727 1026.97 644.448 1030.36 639.697 1028.67L639.531 1029.39C641.237 1030.41 642.896 1029.31 644.322 1030.42C647.43 1032.83 656.755 1027.7 657.793 1032.93C659.418 1041.11 657.833 1042.87 650.037 1044.07C648.879 1044.25 643.472 1050.73 640.906 1049.14C638.99 1048.01 640.478 1047.5 637.627 1047.24L636.937 1048.16L637.313 1049.81C636.378 1050.7 634.324 1050.82 632.927 1051.04C630.115 1050.01 632.351 1049.08 629.654 1048.79C628.798 1049.67 628.918 1050.12 628.781 1051.38C626.112 1052.27 624.019 1052.25 622.616 1054.8C617.089 1059.93 615.173 1056.91 610.057 1058.64L609.441 1058.47C605.757 1057.51 578.65 1058.63 572.542 1058.77C563.662 1059.01 554.778 1059.01 545.898 1058.79C546.899 1058.48 568.014 1057.18 570.597 1057.01L570.631 1056.77L571.915 1056.78C568.684 1056.87 566.789 1056.06 564.061 1055.76C562.249 1055.56 557.836 1057.2 555.465 1057.35C545.098 1058 523.232 1056.27 514.033 1058.4L513.629 1059C518.896 1059.78 523.339 1057.95 527.691 1058C533.164 1058.07 539.304 1058.52 544.912 1058.71C542.991 1058.85 540.203 1058.56 538.909 1059.39C544.361 1061.55 546.679 1058.89 550.93 1059.1L552.182 1060.28C549.39 1060.96 546.741 1060.39 544.126 1060.58C535.629 1061.18 523.531 1059.48 515.753 1062.49C504.359 1062.62 489.825 1062.74 478.529 1064.56C475.31 1062.76 473.787 1064.26 470.127 1064.44C463.881 1064.76 456.747 1066.29 450.573 1066.23C445.213 1066.17 440.63 1064.51 434.912 1065.3C434.754 1067.33 435.11 1066.96 433.984 1067.97C428.647 1068.89 402.177 1070.28 397.023 1069.61L396.78 1070.3L397.349 1071.2C390.879 1073.85 333.813 1071.74 324.945 1070.52C325.958 1069.47 325.727 1069.96 326.116 1068.65H325.454C319.177 1068.69 320.517 1068.34 314.447 1066.34C309.631 1064.76 302.32 1064.09 297.258 1064.2C295.36 1064.23 293.23 1064.92 290.888 1064.93C289.796 1064.64 274.071 1064.06 272.564 1064.14L272.181 1064.81C266.409 1065.75 251.106 1055.26 248.394 1049.61C247.254 1047.24 244.19 1044.57 243.269 1042.01C242.143 1038.88 242.662 1034.14 240.647 1031.46C239.283 1025.91 239.422 1014.6 238.547 1008.3C237.199 998.583 235.073 989.698 232.896 980.179C233.837 979.66 234.619 979.62 235.706 979.398L236.091 978.422C233.319 972.4 233.512 967.644 231.211 962.516C230.622 963.378 231.314 965.682 231.275 967.684C228.62 964.49 228.671 960.754 225.807 957.863C224.314 952.519 217.321 922.509 217.406 918.791C217.302 909.991 216.024 902.577 217.533 893.971C216.839 886.711 213.337 888.496 213.347 881.658C215.841 874.301 217.659 875.373 222.085 869.755C222.642 868.734 223.727 867.257 223.287 866.054C219.931 856.843 208.593 844.439 206.685 835.223C194.712 821.883 169.388 759.257 162.44 740.796C160.278 735.053 156.82 722.9 154.604 716.295C152.118 708.887 149.22 699.973 146.959 692.365C145.217 686.502 144.217 678.769 142.51 672.803C134.496 644.79 128.968 615.949 125.055 587.085C122.491 568.176 121.473 547.211 120.039 528.124C118.456 507.054 116.233 485.98 115.351 464.808C115.053 457.651 115.466 450.076 115.031 443.143C113.565 426.744 112.407 409.181 111.389 392.9C107.136 324.855 122.207 262.454 153.169 202.022C161.005 186.724 170.304 167.728 181.15 153.724C193.642 137.593 212.753 121.455 231.588 113.22C241.485 109.166 252.426 107.817 262.871 104.138ZM216.084 158.276L215.756 158.752C212.787 163.007 208.38 167.108 205.849 171.436C198.645 183.751 191.673 196.557 185.413 209.315C162.745 255.526 145.496 305.185 143.222 356.963C141.999 384.8 142.581 412.473 145.054 440.255C147.804 456.401 146.362 472.376 147.598 488.529C148.233 496.836 147.001 506.673 147.879 514.591C150.725 540.273 152.918 566.053 156.064 591.694C156.524 595.446 156.828 599.216 157.419 602.946C172.17 677.189 192.925 751.495 230.323 817.794C236.891 829.434 243.449 840.692 248.353 853.199C249.277 855.651 248.053 858.372 249.626 861.389C250.013 861.651 250.4 861.908 250.786 862.164C265.052 861.429 291.503 857.146 304.321 856.541C342.401 855.018 380.503 854.117 418.613 853.843C441.494 853.872 463.29 853.969 486.199 853.29L526.839 852.309C549.798 851.722 574.053 853.729 596.963 850.211C608.786 848.397 634.307 838.257 645.046 842.511C642.32 845.608 641.989 842.209 639.754 845.967L639.246 845.899C638.573 845.905 636.862 845.859 636.303 845.996L636.081 847.422C646.29 855.748 647.202 845.409 648.109 844.667C656.225 838.063 659.983 830.592 665.618 822.054C673.961 809.41 685.145 793.881 690.94 780.079L691.259 779.315C691.539 785.069 689.759 785.486 686.64 790.909L686.919 791.434C689.343 788.662 696.096 776.788 697.327 773.184C698.907 768.188 712.275 746.151 712.504 741.235C713.45 740.3 713.593 737.443 714.505 736.085C721.389 725.797 725.239 711.311 731.147 701.08L730.925 700.578C726.779 703.509 726.037 713.609 722.039 714.693C722.712 711.613 726.362 705.003 727.691 701.804C731.318 693.061 736.896 683.674 738.487 674.349C738.721 672.952 739.046 672.558 740.01 671.994C740.084 673.978 739.634 676.049 739.303 678.033C740.101 677.451 747.356 656.51 748.873 654.074C755.779 642.959 757.177 628.638 763.826 617.609C769.872 605.41 775.193 592.914 781.016 580.567C788.692 564.282 798.291 549.383 806.634 533.591C808.437 534.421 808.328 534.421 810.29 534.28C811.847 532.604 812.104 532.886 812.378 531.048L810.199 529.8C810.142 528.274 812.554 524.218 813.421 522.593C814.807 522.99 816.244 523.314 817.653 523.649C815.976 522.536 814.613 522.126 814.043 520.597C815.206 517.909 817.847 513.525 819.353 510.627C828.027 493.859 832.892 476.524 829.487 457.587V456.968C829.464 452.301 826.681 425.966 824.411 423.716C823.59 424.724 824.206 431.727 824.269 433.802L823.408 434.002C821.497 428.11 820.145 424.14 817.237 418.661C808.887 413.71 803.874 413.743 794.766 415.147C792.553 415.794 785.846 417.625 784.318 418.555C775.586 423.872 767.727 431.198 760.313 438.168C736.959 460.138 716.211 484.656 694.253 507.967C687.392 515.258 680.931 523.45 673.944 530.487C671.754 533.863 666.564 538.893 663.707 542.379C652.141 556.48 638.99 569.111 627.315 583.105C620.158 591.682 613.588 601.132 606.556 609.864C602.906 614.386 600.647 618.835 596.222 622.838C595.292 620.215 595.389 621.338 595.896 618.567C592.954 623.283 590.016 626.026 584.41 627.583C582.545 628.256 580.897 628.73 578.998 629.271C575.239 629.614 566.98 629.665 564.858 632.408C563.257 630.218 562.726 629.813 560.7 628.119C556.339 629.762 551.067 632.83 546.374 634.963C539.882 637.917 528.931 637.273 527.524 644.51C525.829 644.858 525.834 644.864 524.291 645.651C524.152 650.493 542.463 655.74 545.799 658.614C548.914 661.294 549.998 665.783 553.084 668.937C551.785 670.345 550.408 671.908 549.062 673.254C543.809 674.868 543.392 675.079 538.285 673.254C530.818 671.03 523.963 665.384 515.43 663.216L513.994 663.239L513.901 659.652L511.68 657.69C507.207 658.859 512.625 679.174 511.284 684.974C513.088 687.831 513.137 687.033 513.232 690.078C511.293 693.477 508.892 693.517 504.838 694.641L511.655 695C508.024 695.787 506.759 695.798 503 695.827C503.585 694.869 503.454 695.068 503.799 693.979C499.768 691.053 494.207 689.029 491.616 685.504L491.208 686.063C489.359 683.326 491.279 681.25 488.837 677.885C488.694 671.743 488.652 650.31 485.454 646.66C470.954 630.264 452.727 616.793 435.535 603.362C429.916 598.971 404.725 576.803 399.828 575.651L399.014 574.778C399.296 572.577 399.444 572.155 398.461 570.17C396.118 568.777 395.089 569.317 392.619 570.444L392.287 571.311C392.895 572.554 393.231 573.198 393.981 574.356C393.324 576.346 392.778 576.831 391.464 578.536C392.27 579.227 392.867 579.9 393.895 580.008C392.536 581.656 392.888 580.761 392.559 582.677L393.324 583.681C392.814 584.565 392.537 585.015 391.934 585.842L392.257 586.213C393.411 587.559 393.583 587.667 394.169 589.275L394.48 588.99C394.17 586.846 393.63 584.781 394.254 582.785C395.887 582.762 395.074 582.671 396.791 583.607C397.223 590.051 395.946 603.396 397.455 608.849C397.551 612.778 397.156 614.438 399.905 617.187L399.626 618.453C402.346 620.723 403.35 622.833 405.11 625.889C404.979 627.789 404.03 627.789 402.402 629.773C406.042 631.787 408.981 632.442 411.424 636.155C411.175 637.193 411.103 637.484 410.691 638.465L411.235 639.315L412.545 638.459C415.722 640.085 413.107 641.431 418.374 644.402L418.535 645.217C417.589 646.056 416.663 646.917 415.755 647.795C417.678 648.286 420.616 648.337 420.962 648.445C419.481 652.951 415.981 649.438 413.403 651.742C413.322 653.128 413.184 654.046 413.488 655.415C412.592 656.51 412.674 656.179 410.879 656.544C412.523 660.57 423.814 662.35 427.359 660.228C427.55 660.114 428.443 658.797 428.637 658.5L428.18 659.806C429.701 661.853 431.229 661.888 432.941 664.608L433.109 665.903C431.936 666.587 431.061 666.262 429.677 666.057L428.848 666.77C428.897 668.372 428.838 668.748 429.402 670.305C429.118 671.976 429.333 672.199 430.015 673.716C431.111 674.497 430.638 674.343 431.897 674.571C432.686 673.556 433.923 672.684 434.525 671.777C434.593 671.589 434.661 671.4 434.729 671.212L435 670.397C436.043 667.311 435.848 666.889 433.955 664.534L434.955 663.234C443.221 671.515 449.177 674.617 449.504 686.194C448.529 687.677 448.532 687.632 447.141 688.761L442.046 688.259C429.524 686.964 425.868 678.296 417.974 670.471C413.58 666.119 408.564 662.84 404.417 657.753L403.949 657.16C402.19 654.901 403.527 655.403 400.69 653.361C398.064 653.926 399.169 656.344 398.651 658.648C394.158 664.14 395.945 693.363 396.736 701.656C407.114 707.775 417.326 716.124 426.28 724.04C430.665 727.918 435.29 742.028 425.703 743.169C414.867 744.463 409.063 737.061 400.059 733.023C399.18 732.646 397.68 734.186 396.945 734.922C396.582 744.258 397.507 747.343 400.873 755.989L400.256 757.974C398.873 757.985 398.77 757.381 397.385 756.098C391.525 759.873 389.963 759.251 383.256 759.006C376.276 754.449 378.165 751.706 374.503 747.948C374.27 749.22 380.771 758.641 381.966 760.13L381.06 760.689C373.289 756.052 375.373 751.113 372.294 748.204C371.417 745.803 371.007 743.169 368.381 742.558C366.313 743.488 365.712 744.184 364.041 745.667L363.822 744.754C362.427 745.37 361.815 745.986 360.686 745.672L361.235 743.043C353.543 744.663 353.649 743.71 345.706 741.863C345.734 737.397 344.894 741.612 344.344 738.589L347.093 738.332C348.059 737.654 347.714 737.454 347.424 735.492C346.552 729.607 350.473 731.209 354.456 725.666L354.831 725.135C357.692 725.375 358.821 725.438 360.992 723.624C362.115 721.16 361.941 722.267 361.393 719.33L364.321 715.976C365.74 715.115 367.788 713.261 369.124 712.132C370.857 711.431 376.981 706.167 375.931 704.678C371.307 698.102 376.102 648.696 374.074 645.309L372.223 645.098C370.486 645.828 361.676 651.622 360.692 653.048C362.204 652.455 363.214 651.822 364.732 652.209C365.383 653.669 365.245 653.082 364.674 654.987C362.825 655.745 348.625 670.22 344.527 673.425C343.257 673.117 343.684 673.265 342.559 672.558L342.668 671.155L342.29 669.958C340.338 670.277 338.894 671.954 337.267 673.1C328.954 678.957 322.001 678.17 313.388 674.041C313.065 673.819 312.905 673.397 312.672 672.992C313.559 667.197 319.813 660.912 323.764 656.778C324.549 659.213 323.927 658.711 323.732 661.089C328.354 657.953 337.228 649.489 341.895 645.497C352.342 636.435 362.342 626.922 373.27 618.424C376.107 616.211 379.019 613.109 375.839 609.715C375.477 598.4 376.056 584.656 376.277 573.147C374.229 579.17 374.3 581.673 374.049 588.004C373.59 585.124 373.819 580.635 373.318 576.877C372.193 575.023 372.165 574.949 370.279 574.008C367.159 574.293 359.978 581.474 357.337 584.245C335.726 606.91 310.01 624.891 286.919 645.679C280.947 651.057 281.643 673.334 281.984 681.318C282.176 685.955 284.68 693.523 285.098 699.175C282.064 701.718 279.619 702.283 275.775 702.209C266.961 702.026 262.043 700.669 256.816 693.295L256.709 692.485C255.972 686.628 257.21 674.657 255.011 671.172L253.827 670.385C250.302 671.572 246.775 674.526 243.863 676.801C232.746 685.47 217.717 698.89 202.552 692.302C198.659 690.609 198.351 684.7 200.869 681.444C208.894 671.058 221.483 665.92 231.62 658.055C233.163 656.852 233.948 655.301 234.213 653.379C230.856 644.442 202.689 650.527 198.176 637.187C193.221 622.542 207.594 626.277 217.097 627.988C221.821 631.541 232.904 629.711 236.883 632.368L236.621 633.326L233.11 633.703L233.047 634.433C235.983 636.965 234.975 633.794 238.117 637.398C247.477 636.321 243.116 634.912 254.507 636.514C257.187 637.085 259.326 634.695 263.456 635.094C269.102 635.374 268.121 635.437 272.904 631.821C273.571 630.925 281.272 623.722 282.523 622.61C288.151 617.626 293.71 612.402 299.321 607.423L330.099 579.666C336.883 573.615 344.003 567.696 350.435 561.305C352.541 559.213 350.897 556.247 352.355 554.343C352.823 553.734 354.934 553.462 355.865 551.333L355.293 550.968C352.028 551.289 346.178 553.174 343.135 554.462C327.199 556.271 310.943 555.521 294.911 554.221C287.543 553.624 280.862 550.684 272.318 550.8C271.435 547.766 260.425 546.797 258.191 547.663L258.637 549.721L260.231 551.05C249.346 566.584 230.093 585.107 212.837 593.444C192.477 603.288 174.795 582.055 203.254 568.791C207.254 566.927 228.736 549.274 231.64 545.504L232.196 545.526L232.169 546.226C234.682 545.056 235.415 543.486 236.843 541.09C234.632 540.936 231.037 540.334 229.324 541.911C221.858 537.691 187.791 521.161 183.993 515.491L183.747 515.06C182.143 512.308 179.978 510.692 179.378 508.271C180.465 504.226 182.98 504.099 186.708 504.132C208.554 504.327 224.81 521.806 244.131 529.029C247.653 530.056 257.021 532.423 260.611 532.469C260.12 534.325 259.951 533.912 260.371 535.545C263.66 537.077 269.051 536.049 271.75 537.137C273.52 537.847 292.574 538.938 295.237 537.865C302.808 537.045 317.978 540.351 327.41 539.187C332.294 542.234 331.875 540.77 337.447 540.467C341.18 540.263 339.445 540.778 341.178 542.487C343.326 542.633 343.736 542.712 345.751 542.015C345.124 539.565 342.19 539.836 341.58 537.526L345.526 536.294L345.411 535.959C343.557 535.983 341.98 535.984 340.129 535.885L340.862 535.066L340.682 534.392C337.927 533.16 328.836 529.867 326.039 529.734L325.059 531C319.615 527.35 312.701 524.772 307.335 521.372C282.99 505.946 256.101 490.808 242.034 464.473C241.754 463.949 237.617 464.239 236.916 464.441C221.203 468.993 172.738 475.669 179.051 446.909C179.797 443.511 199.693 448.367 203.408 447.624C206.974 446.91 209.869 445.814 213.293 444.914C211.631 442.715 209.949 440.285 208.329 438.034C207.379 437.496 206.499 436.259 205.727 435.365C203.082 434.209 199.656 432.018 197.093 430.483C195.418 429.512 194.669 428.792 193.187 427.519C188.753 424.733 179.083 416.904 180.061 411.059C186.486 403.68 211.22 416.377 218.81 419.405L220.492 418.572C222.084 416.183 221.518 404.068 221.928 399.753C227.489 394.243 232.633 393.642 239.129 398.599C243.276 401.68 247.929 427.988 248.442 433.475C250.054 450.681 252.737 450.836 266.482 459.608C270.533 462.193 278.191 471.84 282.579 475.165C296.261 486.83 313.364 499.763 329.133 508.493C333.072 510.711 336.977 512.988 340.849 515.322C337.953 517.476 335.181 513.116 330.978 514.53C336.915 517.901 366.425 536.105 370.062 530.629C369.147 529.77 358.586 527.062 356.228 525.919L357 525.303L357.693 525.621L358.474 525.234C358.583 525.31 358.691 525.386 358.8 525.462C361 526.908 363.659 527.488 366.261 527.089C370.875 527.865 371.825 526.205 373.856 522.322L374.427 522.158L374.905 519.698L375.689 519.216C376.936 520.684 375.9 526.713 376.652 529.122C378.788 522.552 375.361 502.277 375.807 494.368C376.198 493.267 376.192 493.735 375.716 492.568C371.887 483.174 367.414 484.216 360.661 478.862C359.606 478.026 354.47 470.461 353.095 469.054C347.85 463.691 295.992 414.151 293.207 412.966C289.489 410.772 286.84 402.892 290.018 399.097C292.29 398.256 297.007 398.512 299.658 398.518C320.114 397.931 359.698 448.782 365.286 449.022C367.319 447.799 367.751 446.102 368.443 443.776L369.946 444.346L370.853 444.793L371.804 444.442C372.322 441.987 372.978 440.131 370.819 438.26L368.278 438.906C365.805 430.862 366.042 396.757 365.646 386.513C365.291 377.302 364.854 362.008 364.954 352.662C358.069 345.186 340.878 338.894 332.409 331.999C327.161 329.381 321.77 317.207 327.415 312.939C336.41 306.137 355.492 321.487 364.02 321.093C364.285 320.859 364.551 320.625 364.816 320.391C365.153 308.228 362.467 295.028 364.829 283.01C366.008 281.933 367.878 280.286 369.244 279.796C392.069 271.602 383.708 297.727 387.591 309.884C388.187 311.749 389.658 312.001 391.084 312.659L391.372 313.179C391.241 315.368 389.578 316.517 388.28 319.538C391.192 318.206 391.561 315.57 395.701 313.611C399.751 311.694 401.712 312.83 405.198 310.653C402.169 310.569 400.53 311.036 397.415 310.419L397.478 309.224C404.47 307.908 414.607 307.422 416.287 316.903C416.984 320.832 414.586 325.416 412.224 328.419C407.672 334.054 399.68 339.06 396.264 345.461C394.607 348.563 396.185 352.034 394.828 355.265C393.148 359.263 389.894 359.951 388.482 363.816C388.577 379.285 389.372 394.503 390.369 409.936C390.71 415.227 390.494 423.429 391.308 428.188C391.115 430.275 390.919 432.203 390.867 434.305C390.894 432.563 391.228 429.855 390.287 428.59C388.482 430.236 388.716 431.347 388.389 434.033C388.413 439.735 388.254 453.502 390.759 458.054L390.903 457.25C394.125 454.435 395.208 453.164 397.445 449.562C404.371 440.844 410.982 432.668 418.2 424.111C424.679 416.431 430.783 406.495 438.585 399.976C443.74 395.667 448.639 395.218 454.988 395.945C458.074 396.879 462.091 397.913 463.718 400.982C465.155 403.691 462.485 410.282 461.502 412.979C458.596 420.949 416.049 470.587 408.362 477.722L406.195 478.419L405.736 477.965C405.856 475.832 408.332 473.067 409.632 470.345L408.72 468.561C403.892 474.537 402.298 481.06 396.411 485.796C394.494 487.338 390.539 488.734 390.276 490.415C390.99 490.806 391.031 490.923 391.801 491.09C391.852 492.358 391.922 493.624 392.012 494.89C391.229 495.449 391.107 495.51 390.228 495.907C391.142 498.119 392.459 498.019 392.549 498.476C393.305 502.312 393.163 507.332 393.708 511.311L394.326 511.967L395.064 511.76C395.361 509.447 395.36 507.728 395.384 505.423L396.448 504.52C396.573 507.681 396.554 509.379 396.295 512.528C403.711 503.318 425.349 488.417 435.627 482.106L436.304 482.568C440.146 480.907 441.084 478.877 443.881 477.294C458.375 469.092 470.436 457.626 483.884 448C484.087 447.856 485.81 449.07 487.212 448.655C491.987 442.725 484.736 442.663 482.694 439.084C483.596 437.375 483.226 437.368 484.588 436.832L484.47 436.153L484.418 436.141C484.608 438.019 484.286 438.475 485.322 439.469C487.087 438.892 487.144 437.211 488.212 435.826C489.399 434.287 488.056 437.227 490.24 435.52C488.405 433.375 489.176 429.15 490.157 426.196C494.108 414.298 495.317 396.217 505.206 387.86C508.133 385.386 512.282 388.367 514.651 389.128L515.073 388.383C514.298 386.743 514.166 386.694 512.582 385.797L512.679 384.654C515.413 385.123 515.735 385.263 518.1 386.72C525.957 394.616 512.196 410.739 513.796 421.368C518.4 423.438 531.951 411.2 547.661 417.554C562.511 424.907 546.847 432.772 538.983 436.197C534.868 437.989 528.353 441.753 525.239 444.952C526.636 446.024 528.612 447.568 530.214 448.17C538.953 451.455 565.433 447.009 552.163 464.386C548.904 468.654 542.99 468.276 538.414 466.76L538.537 466.098C540.199 464.486 542.021 464.948 544.178 463.934C541.327 461.363 540.405 466.076 535.067 464.05L535.614 464.528C534.494 463.721 531.469 461.553 530.36 461.282C525.926 460.198 515.876 459.225 511.617 459.623L511.388 460.157L513.063 460.992C510.939 460.638 509.001 460.317 506.849 460.085L506.238 461.156C500.989 463.665 500.185 464.472 495.554 467.591C490.148 470.556 484.454 477.1 479.071 480.671C458.895 494.058 438.245 506.538 419.886 522.444C418.635 523.528 417.012 524.214 415.818 525.18C414.399 525.323 413.073 525.092 411.652 524.931C410.122 527.917 405.004 527.319 405.817 530.711L407.136 531.45C409.212 531.564 412.001 530.74 414.54 530.653C422.815 530.371 431.513 529.49 439.721 529.27L472.548 528.48C474.162 528.434 485.761 528.155 486.666 527.856C499.749 523.545 512.472 515.956 524.603 509.683C530.529 506.618 537.682 503.739 543.675 501.169C545.82 499.959 549.365 499.632 551.68 500.222C554.233 500.895 556.387 502.61 557.616 504.947C559.265 508.012 558.477 510.441 556.879 513.286L555.952 514.081C551.741 519.426 517.988 535.864 510.369 540.806L512.052 546.534C517.489 550.453 522.76 554.565 528.196 558.444C536.221 564.171 560.621 580.162 553.808 592.538C552.72 595.081 551.265 595.84 548.633 596.718C537.353 600.488 530.916 590.068 523.205 583.96C520.818 582.067 518.46 579.9 516.175 577.955C506.361 569.593 495.12 562.397 485.453 553.967L485.572 552.544C484.729 551.899 483.944 551.342 483.078 550.733L484.048 550.4C483.201 544.147 464.599 545.015 459.601 545.17C458.303 544.494 452.875 544.914 451.087 544.923C439.023 544.984 427.084 544.913 415.433 548.617L415.022 548.751C412.978 549.164 409.768 549.397 408.584 550.547C409.885 552.436 410.683 552.575 412.961 553.225L413.543 554.291C418.688 561.322 429.231 568.471 436.382 573.871C457.109 589.515 476.462 606.345 496.167 623.198L494.942 623.694C491.146 622.268 489.183 618.384 485.619 619.422L484.615 621.641L482.947 621.949C484.152 623.54 487.982 624.783 489.996 624.578C494.456 622.388 494.191 626.985 498.735 627.509C499.413 627.304 500.231 627.133 500.608 626.574C503.055 622.924 514.822 620.357 519.565 619.291L520.092 618.384C531.481 613.799 543.615 610.041 556.15 613.964C560.76 615.401 559.99 617.728 565.74 617.027C568.229 616.565 571.384 608.535 569.795 605.45C568.076 602.113 569.705 592.806 569.518 588.557C570.597 587.844 570.5 587.781 571.082 586.595C570.643 584.93 571.122 585.432 570.01 584.667L569.875 585.682L569.433 585.968C568.202 581.445 570.66 570.683 570.683 565.342C570.705 559.967 569.324 547.594 570.449 543.023L571.07 542.805C571.088 546.411 571.23 549.013 571.555 552.608L571.869 552.862C571.989 528.263 571.692 504.821 570.871 480.267C570.609 472.497 571.51 464.553 571.008 457.378C569.78 453.896 570.831 432.52 570.263 426.062C569.568 404.02 566.777 381.73 564.352 359.804C564.067 357.223 563.887 354.26 563.027 351.847C561.836 350.748 561.702 350.258 561.177 348.725L560.938 348.785L561.345 349.659L560.268 350.589L560.241 352.286C555.869 327.254 550.172 300.297 542.648 276.125C534.131 248.762 520.758 221.772 509.038 195.686C496.378 167.509 469.448 134.142 439.072 124.301C396.391 107.665 355.836 108.112 311.62 114.838C297.409 116.999 282.252 118.054 267.96 120.464C244.897 131.214 233.62 140.299 216.084 158.276ZM451.505 876.57C449.011 875.492 447.992 875.293 445.289 875.287L446.211 875.396L444.795 875.11C447.539 875.692 451.477 874.956 454.124 874.101C446.475 873.725 385.247 873.149 381.881 875.361L381.819 876.525C368.036 876.394 353.581 878.087 339.851 879.371C336.668 879.667 330.098 877.791 327.287 877.933C317.248 878.452 306.118 879.411 296.021 878.715L300.238 878.39L300.545 877.876C294.95 877.386 290.595 879.194 284.68 878.082C274.622 876.188 265.345 879.428 255.981 881.686C256.155 882.393 256.117 882.553 256.472 883.163C243.995 887.606 246.17 891.638 246.571 903.643C247.654 936.094 258.351 965.773 266.464 996.787C270.494 1012.19 261.515 1041.53 281.191 1049.31C283.725 1050.29 286.394 1050.89 289.107 1051.07C296.072 1051.55 304.438 1050.5 311.651 1050.55C318.152 1050.59 336.126 1054.62 339.964 1049.38C339.438 1047.03 337.305 1045.57 336.076 1043.55C334.876 1041.58 334.393 1038.53 333.992 1036.28C330.74 1018.05 332.515 999.404 331.25 981.063C329.623 957.475 316.983 904.835 329.324 885.251C330.093 884.03 330.915 882.479 332.146 881.686C334.554 882.245 346.249 889.169 346.596 891.49C350.853 919.92 353.245 949.223 356.244 977.904C357.953 994.249 357.269 1011.83 358.992 1028.3C359.687 1034.95 361.469 1041.76 358.219 1047.84C358.996 1051.9 368.115 1050.07 371.301 1049.6C382.935 1047.89 394.567 1047.96 406.257 1046.95C422.824 1044.03 437.559 1044.85 454.036 1044.13C469.603 1043.45 484.118 1043.16 499.74 1043.22C502.607 1043.32 505.221 1042.53 508.017 1041.87C511.188 1038.82 507.429 1030.09 508.245 1026.98C515.66 998.76 512.86 972.28 508.772 943.97C508.856 941.786 508.908 939.881 508.613 938.181C508.434 937.143 509.843 937.286 509.537 932.963C508.799 922.549 508.062 911.821 507.036 901.442L506.561 901.413C506.393 903.957 505.731 909.198 507.011 911.262C507.663 912.312 507.553 912.5 507.568 913.92C507.064 915.021 506.935 915.665 505.869 916.201C505.393 911.308 505.738 898.921 504.902 895.607C504.064 888.473 505.689 881.082 514.59 883.568C531.226 888.889 530.12 894.501 531.348 910.008C534.239 946.514 546.842 985.283 536.16 1021.53C535.018 1025.4 533.017 1028.92 532.592 1033.06C532.698 1036.76 532.185 1040.5 534.682 1042.91C539.462 1044.34 554.346 1043.42 559.444 1041.1C559.94 1027.77 561.838 1018.85 563.877 1005.62C564.986 1003.37 566.045 1004.02 566.375 1003.09C567.429 1000.15 568.369 995.133 567.529 992.19L566.781 992.07L565.049 995.304C567.884 971.852 561.335 956.568 561.836 935.695C564.664 928.834 559.956 920.011 560.569 913.732C560.66 912.797 562.062 910.51 561.167 907.938C560.684 906.597 560.185 905.257 559.669 903.928C559.3 904.789 558.927 905.651 558.612 906.535L557.843 898.801C558.111 900.016 558.2 900.136 558.639 901.288L559.377 901.1C558.225 899.411 559.913 890.982 560.192 888.034C556.041 883.043 562.435 881.03 561.472 875.259L560.569 874.095C555.562 871.728 536.265 873.827 530.006 874.192C521.245 874.705 513.131 874.825 504.295 874.74C503.353 872.521 501.54 872.898 499.387 872.915C492.166 872.972 484.78 873.354 477.587 873.702C481.753 874.768 485.584 873.753 488.314 875.475C476.504 875.772 463.637 877.546 451.505 876.57ZM301.209 943.536C301.777 947.951 301.814 952.399 302.432 956.602C302.889 958.359 303.679 971.79 303.761 974.174C304.253 988.523 311.153 1029.86 302.222 1041.02C298.452 1045.17 287.664 1047.42 282.663 1044.53L282.336 1043.97C281.312 1041.56 280.622 1039.03 280.286 1036.43C279.682 1031.52 279.658 1025.26 279.289 1020.14C278.271 1006.49 277.184 992.863 276.026 979.238L271.126 925.566C269.576 907.31 267.992 903.883 271.875 885.513C271.945 887.007 271.88 889.978 272.563 891.119L273.858 890.914L273.287 891.61C274.706 889.642 274.427 888.199 274.428 885.741C273.279 884.218 273.114 883.922 272.843 882.034C276.064 883.357 276.554 881.384 280.585 881.743C281.026 882.57 281.18 882.849 281.737 883.602C286.219 880.585 286.223 879.49 291.436 879.776C289.193 882.975 289.915 883.699 291.079 887.207C296.941 904.864 298.217 925.247 301.209 943.536ZM267.504 465.416C266.272 463.635 264.86 461.993 262.566 461.784C263.814 463.474 264.501 464.816 266.382 465.631L267.504 465.416ZM603.362 879.046C607.251 876.57 618.401 873.588 619.183 869.481L618.179 868.312C613.422 866.413 607.594 870.622 602.056 871.187C591.602 872.253 576.3 869.949 566.66 873.542L566.356 874.5L567.536 875.453C575.131 879.268 578.479 882 581.131 890.326C584.838 902.046 585.42 914.502 587.285 926.587C592.087 957.72 596.204 988.506 590.073 1019.84C588.767 1026.51 583.589 1035.14 589.144 1041.25L589.286 1041.41C595.241 1043.48 629.511 1035.15 631.444 1031.3C647.681 999.028 637.872 955.063 639.891 919.789C641.003 900.392 637.627 878.926 637.051 859.598C634.034 861.571 628.456 863.562 624.891 865.073L625.302 873.588C622.844 873.662 622.884 873.285 621.047 874.363C619.73 881.794 620.888 929.022 622.958 934.782C623.631 936.145 623.648 936.784 623.734 938.244L624.549 933.408C625.445 937.098 623.819 938.546 626.169 941.124C627.349 958.895 628.929 1009.09 620.945 1024.42C618.316 1026.72 617.443 1027.31 613.913 1028.35C612.031 1028.72 607.371 1030.03 605.917 1028.95C604.793 1023.96 600.995 1023.6 597.374 1026.64C594.408 1020.31 602.33 1002.15 602.176 993.604C601.97 982.158 602.786 970.204 602.073 958.673L599.524 920.844C598.623 905.816 596.94 893.149 603.362 879.046ZM262.014 672.022C261.754 673.568 261.631 674.081 260.828 675.421C262.429 676.151 262.418 675.444 264.246 675.233L264.895 675.718L265.538 676.465C266.068 674.691 266.188 674.018 266.409 672.176C264.94 672.17 263.459 672.222 262.014 672.022Z" fill="#161515"/>
<path d="M376.09 92.0478C382.393 90.2183 389.863 93.0333 394.546 92.4402L394.637 91.8493C404.906 92.6535 414.303 95.5701 424.168 98.1735C459.537 107.507 489.335 127.161 512.681 155.099C530.059 175.896 541.331 199.222 551.698 223.96C555.044 231.941 558.819 239.482 561.621 247.815C574.11 284.941 583.971 322.707 587.341 361.862C587.963 367.937 590.062 374.36 590.826 380.465C591.79 388.476 592.754 400.592 592.531 408.59L592.343 408.267C591.579 406.944 591.431 406.589 590.917 405.16L590.381 405.297L589.326 409.844C588.904 403.911 588.613 385.95 587.233 381.02C582.243 363.144 581.827 346.365 578.918 328.305C576.175 311.304 571.464 293.998 566.398 277.594C563.399 267.887 560.888 258.033 557.352 248.497C550.835 232.701 543.952 216.051 536.918 200.539C531.258 188.055 521.79 174.678 514.54 162.946C510.848 156.971 503.019 150.677 498.386 145.217C472.48 117.261 437.93 102.053 400.751 96.1854C395.654 95.3813 390.249 94.8155 385.198 94.0228C382.313 93.5705 379.857 92.6039 376.09 92.0478Z" fill="#3B3B3A"/>
<path d="M801.672 589.104C803.851 586.555 804.878 582.626 806.343 579.928C809.092 574.881 816.541 558.009 819.66 554.51C821.04 554.478 821.462 555.313 822.871 556.474C793.985 607.491 774.696 664.368 751.77 718.143C747.47 728.215 741.407 737.483 737.112 747.566C730.2 765.787 722.45 781.916 712.777 798.825C708.739 805.88 705.66 813.91 700.738 820.549C696.386 822.944 696.392 826.965 693.871 828.065L693.101 827.592L692.149 829.217L691.322 829.274L690.803 828.55C694.96 821.444 717.556 786.307 715.891 780.45C716.672 779.629 716.826 779.914 718.372 779.84C720.305 776.372 722.17 772.859 723.967 769.312C723.596 768.411 723.202 768.188 722.421 767.629L722.929 766.899L724.662 766.962C725.854 766.152 727.525 759.81 728.484 757.729C732.915 748.125 737.426 736.81 742.953 727.924C744.84 724.286 745.707 720.447 747.709 716.295C750.606 713.484 755.38 697.304 758.18 692.32C759.104 690.386 760.621 685.795 761.419 683.594C771.514 657.895 782.15 632.049 793.089 606.676C794.082 604.372 795.074 603.687 795.735 600.904L795.068 600.037C795.142 599.946 795.222 599.855 795.296 599.763C798.524 598.372 800.201 592.863 801.672 589.104Z" fill="#3A3939"/>
<path d="M589.828 460.777C591.921 460.519 592.32 460.889 594.009 462.33C593.227 470.48 593.923 479.374 594.259 487.576C595.235 511.365 595.799 535.019 595.446 558.833C595.389 562.773 595.064 571.887 595.811 575.246L596.113 575.753L595.155 576.409L593.9 575.941C590.952 572.617 592.303 560.035 592.235 555.067L591.385 516.062C591.02 497.138 588.893 480.054 589.828 460.777Z" fill="#444443"/>
<path d="M855.06 453.236C859.423 493.939 844.241 520.219 823.938 554.534C822.729 553.47 822.227 553.201 821.674 551.675C822.312 547.174 824.867 545.232 826.293 541.523C828.084 536.855 828.825 533.132 831.358 528.591L831.648 529.702L832.145 529.881C837.471 524.677 853.013 486.935 852.191 479.518C851.284 478.531 850.937 478.39 850.817 477.081L852.471 476.251C852.767 475.187 852.67 463.803 852.859 461.089C852.893 466.207 853.343 471.314 854.205 476.36C854.741 474.848 854.946 456.097 855.06 453.236Z" fill="#3A3939"/>
<path d="M262.871 104.138C266.276 102.571 272.026 101.398 275.771 100.36C295.338 94.9366 316.32 92.2812 336.515 90.4813C339.975 90.1733 357.07 88.3854 359.15 88.6118C366.281 89.3891 389.149 90.4488 394.637 91.8495L394.546 92.4403C389.863 93.0334 382.393 90.2184 376.09 92.0479C364.466 92.0827 345.419 90.7727 333.867 92.843C331.168 93.188 327.707 93.5193 325.175 94.2368C315.663 95.646 306.253 97.5138 296.639 98.1526C295.02 98.2603 294.217 98.3396 292.888 99.2025C287.138 103.004 280.097 101.454 273.716 102.436C271.4 102.792 267.947 105.635 265.124 105.457C264.716 105.523 264.309 105.589 263.901 105.654L262.871 104.138Z" fill="#2C2C2C"/>
<path d="M667.089 955.165C666.216 952.827 665.235 893.064 666.205 890.115C672.49 870.976 675.284 872.202 672.627 848.066L674.794 845.939L675.199 846.127C673.642 848.625 672.655 849.241 674.064 851.961C674.406 856.045 674.383 864.354 677.229 866.829C668.691 891.661 668.726 893.771 669.296 920.011C669.575 932.803 669.69 945.601 669.644 958.393C668.634 956.693 668.486 953.397 668.081 951.293C667.306 951.943 667.277 953.893 667.089 955.165Z" fill="#2D2D2C"/>
<path d="M589.326 409.844L590.381 405.297L590.918 405.16C591.431 406.589 591.579 406.944 592.343 408.267L592.532 408.59C593.284 419.479 593.741 430.123 593.969 441.036C594.088 446.828 595.172 456.726 594.009 462.33C592.321 460.889 591.921 460.519 589.828 460.777C591.505 456.634 588.317 418.548 589.326 409.844Z" fill="#3A3939"/>
<path d="M667.386 990.781C670.363 983.652 668.161 974.544 669.866 968.048C670.431 980.618 670.026 995.532 668.355 1007.98C667.448 1014.71 663.713 1022.44 662.903 1029.44C662.31 1034.55 663.998 1037.58 662.19 1042.37C661.198 1041.79 660.65 1041.23 659.812 1040.46C658.557 1038.08 658.831 1035.31 658.808 1032.56C658.808 1032.48 658.557 1025.39 658.329 1026.21C660.439 1018.59 665.395 1011.97 666.194 1003.85C666.81 997.574 667.505 999.501 664.927 993.439C665.789 992.446 665.315 992.886 666.998 992.532L667.386 990.781Z" fill="#2C2C2C"/>
<path d="M206.685 835.223C211.729 839.922 213.688 853.199 220.048 854.168L220.678 856.313L221.775 856.507C221.382 855.646 221.148 855.229 220.657 854.414L221.082 854.146C223.177 855.714 225.516 857.134 225.844 859.7C226.468 864.588 233.7 865.592 232.512 869.595C230.419 871.289 228.877 871.323 226.319 872.259C221.843 873.89 217.794 878.276 215.61 882.41L213.347 881.658C215.841 874.3 217.659 875.373 222.085 869.755C222.642 868.734 223.726 867.257 223.287 866.054C219.93 856.843 208.593 844.439 206.685 835.223Z" fill="black"/>
<path d="M217.533 893.971C220.002 895.054 222.066 899.058 221.862 901.573L220.913 901.983C219.308 901.236 219.139 900.786 217.811 901.117C217.348 902.793 217.236 902.058 217.735 903.409C218.582 903.461 219.368 903.523 220.197 903.706L220.185 904.396L218.213 904.658C217.739 907.054 219.469 917.941 217.783 918.705C217.666 918.762 217.531 918.762 217.406 918.791C217.302 909.991 216.024 902.577 217.533 893.971Z" fill="#2C2C2C"/>
<path d="M795.068 600.037L794.538 599.182C795.142 595.252 796.625 593.958 798.678 591.1C799.009 590.638 797.669 588.54 798.718 585.945L799.654 586.002C800.195 587.473 800.292 588.175 801.673 589.104C800.201 592.863 798.524 598.372 795.296 599.763C795.222 599.855 795.142 599.946 795.068 600.037Z" fill="#191818"/>
<path d="M679.756 845.135L679.299 843.64L679.1 843.498C679.756 840.886 679.915 839.426 681.723 837.367C683.851 836.318 682.961 836.375 685.043 836.928L684.968 838.12C684.256 839.106 680.332 844.644 679.756 845.135Z" fill="#1E1D1D"/>
<path d="M742.953 727.924C742.81 721.491 741.156 720.379 747.709 716.295C745.707 720.447 744.84 724.285 742.953 727.924Z" fill="#191818"/>
<path d="M758.18 692.32C753.31 686.879 758.733 686.565 761.419 683.594C760.621 685.795 759.104 690.386 758.18 692.32Z" fill="#1E1D1D"/>
<path d="M667.117 989.988C666.251 989.977 665.384 989.983 664.523 990.011C663.291 989.196 663.051 989.207 662.475 987.844L663.348 987.319C664.95 987.924 665.492 988.392 666.918 989.378L667.117 989.988Z" fill="#191818"/>
<path d="M325.175 94.2367C327.707 93.5193 331.168 93.1879 333.867 92.8429C331.97 94.7894 327.427 95.8291 325.175 94.2367Z" fill="#191818"/>
<path d="M378.213 888.188C379.054 887.942 379.899 887.708 380.749 887.497C387.216 885.878 389.971 885.285 395.741 888.741C398.844 896.081 399.648 925.172 400.136 934.2C400.282 936.887 401.567 945.994 401.608 948.082C401.57 953.175 402.759 961.952 403.361 967.199C405.498 986.236 408.602 1005.15 412.66 1023.88C413.299 1025.01 413.631 1026.36 413.842 1027.63C414.166 1029.59 414.348 1031.55 413.012 1033.17C411.438 1035.09 408.639 1035.65 406.294 1035.81C399.94 1036.24 390.361 1035.11 385.459 1030.55C378.33 1023.92 374.217 954.937 373.402 941.363C373.052 935.535 373.232 929.678 372.88 923.843C372.529 918.009 371.487 912.175 371.317 906.335C371.1 898.887 373.154 893.6 378.213 888.188Z" fill="#1E1D1D"/>
<path d="M399.108 947.164L401.608 948.082C401.57 953.175 402.759 961.952 403.361 967.199C405.498 986.236 408.602 1005.15 412.66 1023.88L412.296 1024.4L411.733 1024.1C410.469 1019.19 409.12 1009.81 408.4 1004.61L407.621 1004.33C406.752 1006.12 407.125 1007.88 407.259 1009.95C407.297 1009.15 404.771 1001.42 404.356 998.879C401.535 981.616 399.536 964.666 399.108 947.164Z" fill="#3A3939"/>
<path d="M399.108 947.164C399.178 947.266 395.361 922.258 395.453 920.188C395.866 910.812 396.607 906.928 393.836 896.531C391.862 895.373 391.747 895.459 392.293 893.463C394.274 891.775 394.633 891.011 395.741 888.741C398.844 896.081 399.648 925.172 400.137 934.2C400.283 936.887 401.568 945.994 401.609 948.082L399.108 947.164Z" fill="#2C2C2C"/>
<path d="M455.421 883.043C456.022 883.306 456.595 883.54 457.121 883.939C462.807 888.245 460.653 900.888 461.359 907.595C463.218 925.269 471.643 1020.57 463.919 1029.53C459.487 1034.68 449.262 1033.92 443.13 1034.55C440.843 1034.61 439.665 1034.76 437.425 1034.18C436.479 1033.31 436.085 1033.28 435.892 1031.97C435.402 1028.62 439.561 1024.36 440.187 1021.07C441.316 1015.14 441.479 1008.93 441.518 1002.96C441.613 995.458 441.41 987.952 440.91 980.464C439.835 965.944 431.576 897.489 437.952 888.404C441.109 883.91 450.469 884.121 455.421 883.043Z" fill="#1C1B1B"/>
<path d="M462.924 981.759L463.45 982.164C463.58 985.511 463.945 993.981 463.054 997.037L462.639 996.336C463.031 990.758 459.932 990.154 460.247 987.388L462.214 987.382C463.015 986.202 462.871 983.35 462.924 981.759Z" fill="#2C2C2C"/>
<path d="M272.843 882.034C276.064 883.357 276.554 881.384 280.585 881.743C281.026 882.57 281.18 882.85 281.737 883.602C286.219 880.585 286.223 879.49 291.436 879.776C289.193 882.975 289.915 883.699 291.079 887.207C296.94 904.864 298.217 925.247 301.209 943.537C301.777 947.951 301.814 952.399 302.432 956.602C302.889 958.359 303.679 971.79 303.761 974.174C304.252 988.523 311.153 1029.86 302.221 1041.02C298.452 1045.17 287.664 1047.42 282.662 1044.53L282.336 1043.97C281.312 1041.56 280.622 1039.03 280.285 1036.43C279.682 1031.52 279.658 1025.26 279.289 1020.14C278.271 1006.49 277.183 992.863 276.026 979.238L271.125 925.566C269.575 907.31 267.992 903.883 271.875 885.513C271.944 887.007 271.879 889.978 272.563 891.119L273.858 890.914L273.286 891.61C274.705 889.642 274.426 888.199 274.428 885.741C273.278 884.218 273.114 883.922 272.843 882.034Z" fill="#1E1D1D"/>
<path d="M282.336 1043.97C286.151 1041.01 293.514 1042.77 298.617 1040.52C300.481 1039.71 300.998 1040.28 302.222 1041.02C298.452 1045.17 287.664 1047.42 282.662 1044.53L282.336 1043.97Z" fill="#191818"/>
<path d="M302.432 956.602L302.005 957.287C301.005 955.319 301.149 953.853 301.058 951.635L300.472 951.743C300.421 952.872 300.39 953.283 300.183 954.389L299.352 954.349C297.543 951.914 297.598 948.013 298.428 945.162C298.691 944.255 300.273 943.924 301.209 943.536C301.777 947.951 301.814 952.399 302.432 956.602Z" fill="#3A3939"/>
<path d="M504.902 895.607C504.064 888.473 505.689 881.082 514.59 883.568C531.226 888.889 530.12 894.501 531.348 910.008C534.239 946.513 546.842 985.283 536.16 1021.53C535.018 1025.4 533.017 1028.92 532.592 1033.06C530.095 1036.85 533.155 1039.2 532.165 1042.5C530.626 1043.14 531.128 1042.95 529.168 1042.48C528.512 1041.64 528.407 1041.61 528.06 1040.62L526.408 1040.87L525.648 1040.16C520.617 1040.8 512.63 1042.77 508.017 1041.87C511.188 1038.82 507.429 1030.09 508.245 1026.98C515.66 998.76 512.86 972.28 508.772 943.97C508.856 941.786 508.907 939.881 508.613 938.181C508.434 937.143 509.843 937.286 509.537 932.963C508.799 922.549 508.062 911.821 507.036 901.442L506.561 901.413C506.393 903.957 505.731 909.198 507.011 911.262C507.662 912.312 507.552 912.5 507.568 913.92C507.064 915.021 506.935 915.665 505.869 916.201C505.393 911.308 505.738 898.921 504.902 895.607Z" fill="#161515"/>
<path d="M514.589 883.568C531.226 888.889 530.12 894.501 531.348 910.008C534.239 946.513 546.841 985.283 536.16 1021.53C535.018 1025.4 533.017 1028.92 532.592 1033.06C530.095 1036.85 533.154 1039.2 532.165 1042.5C530.626 1043.14 531.128 1042.95 529.168 1042.48C528.511 1041.64 528.407 1041.61 528.06 1040.62L526.408 1040.87L525.648 1040.16C527.786 1038.94 530.054 1038.45 530.405 1035.79C530.85 1032.42 528.366 1032.11 527.697 1030.8C529.018 1030.97 528.987 1031.07 530.133 1030.45C532.885 1023.05 533.923 1012.58 534.85 1004.74L534.906 1005.11C536.746 996.347 537.21 989.338 537.682 980.419C537.901 976.284 536.715 976.894 533.9 973.752C533.218 969.662 531.906 963.201 532.975 959.34L532.958 959.511C536.759 956.557 532.335 956.106 532.422 953.916C532.546 950.802 532.91 948.27 532.661 945.002C532.017 944.375 531.535 944.221 530.698 943.924C533.312 932.598 526.909 925.771 527.322 914.24C527.48 909.825 526.685 903.94 526.337 899.411L527.8 897.786C527.755 896.161 527.282 894.461 525.709 893.799L524.141 894.952L523.566 894.689C523.713 886.072 512.833 888.929 509.543 885.011C511.263 883.694 512.237 883.927 514.589 883.568Z" fill="#313030"/>
<path d="M516.571 902.862C519.112 903.113 521.74 902.999 523.411 904.755L522.743 906.54C520.476 905.297 520.357 905.474 517.668 905.514C516.457 904.367 516.825 904.875 516.571 902.862Z" fill="#191818"/>
<path d="M439.072 124.301C447.608 124.573 457.485 133.597 466.362 136.369C472.984 138.437 492 158.824 495.743 165.027C525.768 214.791 547.889 270.498 558.663 327.688C560.222 335.963 562.22 343.718 563.027 351.847C561.836 350.748 561.702 350.258 561.176 348.725L560.937 348.785L561.345 349.659L560.268 350.589L560.241 352.285C555.869 327.254 550.172 300.297 542.647 276.125C534.131 248.762 520.757 221.772 509.037 195.686C496.378 167.509 469.448 134.142 439.072 124.301Z" fill="black"/>
<path d="M572.228 882.171C570.053 880.962 566.938 879.559 565.657 877.642C566.101 875.971 565.734 876.57 567.536 875.453C575.131 879.268 578.479 882 581.131 890.326C584.838 902.046 585.42 914.502 587.284 926.587C592.087 957.72 596.204 988.506 590.073 1019.84C588.767 1026.51 583.589 1035.14 589.144 1041.25L589.286 1041.41C587.113 1042.66 586.811 1042.72 585.796 1044.92L586.332 1045.81L589.144 1046.08L588.79 1046.74C585.927 1047.56 584.216 1047.56 581.251 1047.72L580.76 1047.3C581.712 1047.11 582.146 1046.93 583.058 1046.6C583.903 1043.84 583.224 1040.99 582.283 1038.32C582.568 1037.62 582.779 1036.95 583.019 1036.22C579.899 1029.92 585.67 1024.94 585.055 1019.17C584.171 1010.79 586.458 1015.3 587.735 1010.82C588.454 1008.31 588.619 1001.53 588.796 998.566C589.697 983.407 588.984 967.718 587.13 952.661C586.828 950.192 586.965 946.89 586.566 944.477C586.298 942.875 584.114 939.818 583.19 938.175L584.416 936.499C584.764 933.1 582.317 924.682 582.015 921.089C580.532 903.615 582.066 897.381 572.228 882.171Z" fill="#343434"/>
<path d="M525.648 1040.16L526.408 1040.87L528.061 1040.62C528.407 1041.61 528.512 1041.64 529.168 1042.48C531.128 1042.95 530.626 1043.14 532.165 1042.5C533.155 1039.2 530.095 1036.85 532.592 1033.06C532.698 1036.76 532.184 1040.5 534.682 1042.91C539.462 1044.34 554.346 1043.42 559.444 1041.1C565.719 1041.08 569.633 1040.08 576.785 1040.27L579.677 1039.95L582.283 1038.32C583.224 1040.99 583.903 1043.84 583.059 1046.6C582.146 1046.93 581.713 1047.11 580.76 1047.3L576.654 1047.08C574.321 1047.3 572.16 1046.87 570.426 1047.07C555.898 1048.7 539.056 1048.91 524.468 1047.46C520.63 1047.08 520.358 1047.86 516.375 1046.47C509.688 1050.97 512.555 1047.54 506.719 1047.9C503.951 1049.11 499.512 1048.8 498.078 1045.79C498.758 1043.8 498.212 1044.62 499.74 1043.22C502.607 1043.32 505.22 1042.53 508.017 1041.87C512.63 1042.77 520.617 1040.8 525.648 1040.16Z" fill="#2C2C2C"/>
<path d="M582.283 1038.32C583.224 1040.99 583.903 1043.84 583.059 1046.6C582.146 1046.93 581.713 1047.11 580.76 1047.3L576.654 1047.08C575.028 1046.59 573.836 1046.75 572.416 1045.88C572.627 1044.79 572.61 1044.25 572.451 1043.15C571.053 1042.68 571.133 1042.74 570.06 1041.73C570.899 1040.69 574.966 1040.52 576.785 1040.27L579.677 1039.95L582.283 1038.32Z" fill="#3A3939"/>
<path d="M579.677 1039.95L580.988 1040.57C580.84 1042.75 581.216 1041.82 579.882 1043.48C576.882 1044.31 575.222 1042.47 572.451 1043.15C571.053 1042.68 571.133 1042.74 570.06 1041.73C570.899 1040.69 574.966 1040.52 576.785 1040.27L579.677 1039.95Z" fill="#686769"/>
<path d="M506.718 1047.9C506.121 1047.33 506.051 1047.05 505.614 1046.31L506.217 1045.62C509.184 1045.26 513.305 1046.04 516.375 1046.47C509.688 1050.97 512.555 1047.54 506.718 1047.9Z" fill="#1E1D1D"/>
<path d="M343.134 554.462C346.178 553.174 352.028 551.289 355.292 550.968L355.864 551.333C354.934 553.462 352.822 553.734 352.355 554.343C350.897 556.247 352.541 559.213 350.435 561.305C344.002 567.696 336.883 573.615 330.099 579.666L299.321 607.423C293.71 612.402 288.151 617.626 282.523 622.61C281.272 623.722 273.571 630.925 272.904 631.821C270.23 630.583 269.382 631.422 265.828 632.722C265.177 632.961 264.529 633.201 263.883 633.452C263.773 633.851 263.501 634.724 263.456 635.094C259.326 634.695 257.186 637.085 254.507 636.514C257.682 633.138 254.069 635.208 258.06 630.743C262.975 630.868 264.412 630.697 269.117 629.328C274.22 623.403 282.469 617.877 288.578 612.641C308.1 595.92 326.221 577.858 345.957 561.389C348.073 559.624 350.424 556.926 349.225 554.119C347.034 554.031 345.302 554.253 343.134 554.462Z" fill="#070707" fill-opacity="0.984314"/>
<path d="M661.688 539.249C662.663 537.952 665.338 536.851 666.849 534.886C685.054 511.162 706.332 490.043 726.14 467.713L725.9 465.865C729.214 464.176 730.309 463.259 733.092 460.777L733.44 460.973C732.048 462.379 731.94 462.712 730.976 464.483L731.529 465.342C734.483 463.069 738.823 457.838 741.755 455.091C755.539 442.175 775.392 417.186 794.538 414.234L794.766 415.147C792.553 415.794 785.846 417.624 784.318 418.555C775.586 423.872 767.727 431.198 760.313 438.168C736.959 460.138 716.21 484.656 694.253 507.966C687.392 515.258 680.93 523.45 673.944 530.487C668.703 532.52 667.682 538.564 661.688 539.249Z" fill="#2C2C2C"/>
<path d="M553.807 592.538C551.439 593.034 551.575 594.614 548.568 595.224C548.261 593.57 551.786 590.924 551.799 589.726C550.214 575.468 530.925 564.639 520.978 556.312C518.054 553.864 502.492 541.547 501.956 540.578C513.744 535.006 524.891 528.879 536.554 523.123C541.124 520.868 551.321 512.587 555.952 514.081C551.741 519.426 517.987 535.864 510.369 540.806L512.052 546.534C517.488 550.453 522.76 554.565 528.196 558.444C536.221 564.171 560.621 580.162 553.807 592.538Z" fill="#1E1D1D"/>
<path d="M460.162 401.879C459.329 400.967 455.802 397.934 454.459 396.615L454.988 395.945C458.074 396.879 462.091 397.913 463.718 400.982C465.154 403.691 462.485 410.282 461.502 412.979C458.596 420.949 416.049 470.587 408.362 477.722L406.194 478.419L405.736 477.965C405.856 475.832 408.331 473.067 409.632 470.345L408.72 468.561L411.189 467.75C412.196 465.666 412.458 465.327 414.703 465.839C415.733 464.597 415.436 464.241 415.676 462.3C418.384 460.276 427.553 452.118 426.882 448.72L424.21 448.163L424.175 447.54L425.113 446.97C426.523 447.466 426.443 447.485 427.925 447.454C435.889 440.892 452.524 421.046 458.266 411.508C459.497 409.463 460.283 405.079 460.702 402.631L460.162 401.879Z" fill="#343333"/>
<path d="M760.57 616.953C766.957 605.079 771.953 590.878 778.295 578.668C790.882 554.43 804.136 530.283 817.778 506.642L818.143 509.87C818.702 510.286 818.725 510.388 819.352 510.627C817.847 513.525 815.206 517.909 814.043 520.597C812.081 522.592 807.478 530.993 806.634 533.591C798.291 549.383 788.692 564.282 781.016 580.567C775.193 592.914 769.872 605.41 763.826 617.609C763.131 617.392 761.499 617.181 760.57 616.953Z" fill="black" fill-opacity="0.972549"/>
<path d="M426.894 512.033C436.823 505.504 447.123 497.596 456.981 490.79C460.763 487.779 466.466 485.493 470.106 482.476C480.85 473.576 491.075 466.453 503.249 459.633C501.262 462.742 498.135 463.474 495.553 467.591C490.148 470.556 484.453 477.099 479.071 480.671C458.895 494.058 438.245 506.538 419.886 522.444C418.635 523.528 417.012 524.214 415.817 525.18C414.399 525.323 413.073 525.092 411.652 524.931C412.892 522.954 413.364 523.962 414.908 521.779L414.949 519.815C417.921 514.847 420.709 511.757 426.894 512.033Z" fill="#2C2C2C"/>
<path d="M414.908 521.78L414.949 519.815C417.921 514.847 420.709 511.757 426.893 512.033C425.429 513.626 424.039 515.127 422.335 516.481C419.809 518.487 416.79 519.217 414.908 521.78Z" fill="#1E1D1D"/>
<path d="M661.688 539.249C667.682 538.564 668.703 532.52 673.944 530.487C671.754 533.863 666.564 538.893 663.707 542.379C652.141 556.48 638.99 569.111 627.315 583.105C620.158 591.682 613.588 601.132 606.556 609.864C602.906 614.386 600.647 618.835 596.222 622.838C595.292 620.215 595.389 621.338 595.896 618.567C599.666 613.702 603.025 608.797 606.59 603.818C620.095 584.958 636.092 568.271 651.52 551.026C654.759 547.4 659.002 543.171 661.688 539.249Z" fill="#323131"/>
<path d="M760.57 616.953C761.499 617.181 763.13 617.392 763.826 617.609C757.176 628.638 755.779 642.959 748.872 654.074C747.355 656.509 740.101 677.451 739.303 678.033C739.633 676.048 740.084 673.978 740.01 671.994C739.046 672.558 738.721 672.952 738.487 674.349C736.896 683.674 731.318 693.061 727.691 701.804C726.362 705.003 722.712 711.613 722.039 714.693C726.037 713.609 726.778 703.509 730.925 700.578L731.147 701.079C725.238 711.311 721.389 725.797 714.505 736.085C713.593 737.443 713.45 740.3 712.503 741.235L710.279 742.125L708.916 741.247C716.501 722.301 726.738 702.688 734.403 683.474L753.076 635.505C755.117 630.395 758.209 621.458 760.57 616.953Z" fill="black" fill-opacity="0.94902"/>
<path d="M480.764 448.407C480.43 439.526 483.011 436.396 485.652 428.297C488.82 418.578 490.792 408.495 494.71 399.005C499.023 388.562 500.223 383.975 512.678 384.654L512.581 385.796C514.166 386.694 514.297 386.743 515.073 388.383L514.651 389.128C512.281 388.367 508.132 385.386 505.205 387.86C495.317 396.217 494.108 414.298 490.157 426.196C489.176 429.15 488.405 433.375 490.24 435.52C488.055 437.227 489.399 434.287 488.212 435.826C487.144 437.211 487.087 438.892 485.321 439.469C484.286 438.474 484.608 438.019 484.417 436.141L484.47 436.153L484.587 436.832C483.225 437.368 483.596 437.375 482.693 439.084C484.736 442.663 491.987 442.725 487.212 448.655C485.81 449.07 484.087 447.856 483.884 448C470.436 457.626 458.375 469.092 443.88 477.294C441.084 478.877 440.146 480.907 436.304 482.568L435.627 482.106C436.126 481.244 457.8 466.589 460.501 464.52C466.934 459.595 474.385 453.597 480.764 448.407Z" fill="black" fill-opacity="0.988235"/>
<path d="M397.445 449.562C404.371 440.844 410.982 432.668 418.2 424.111C424.678 416.431 430.783 406.495 438.584 399.976C443.74 395.667 448.639 395.218 454.988 395.945L454.459 396.615C455.802 397.934 459.329 400.967 460.162 401.879C457.42 402.029 455.932 400.69 453.516 399.137C449.67 399.215 446.358 398.958 442.892 401.027C435.741 405.296 431.344 413.53 426.637 420.184C425.714 421.491 425.877 424.149 424.923 425.453C423.675 426.587 418.692 430.35 417.22 430.31L416.695 428.371L416.186 428.722C416.185 429.129 416.19 433.242 416.251 433.178C408.467 441.343 401.314 449.893 393.857 458.325C392.943 459.36 392.423 459.516 391.478 459.763C390.772 458.784 390.912 459.211 390.759 458.054L390.903 457.25C394.125 454.435 395.208 453.164 397.445 449.562Z" fill="black"/>
<path d="M622.958 934.782C623.631 936.145 623.648 936.784 623.734 938.244L624.549 933.408C625.444 937.098 623.819 938.546 626.169 941.124C627.349 958.895 628.929 1009.09 620.945 1024.42C618.316 1026.72 617.443 1027.31 613.913 1028.35C612.647 1027.99 611.318 1027.74 610.006 1027.62L609.915 1027.22C610.873 1026.81 615.926 1024.59 616.177 1023.93C619.314 1015.83 620.466 1006.44 621.287 997.802C621.458 995.988 622.667 993.302 623.289 991.403C623.323 978.365 624.789 966.195 625.062 953.283C625.222 945.937 622.034 943.109 622.958 934.782Z" fill="#313131"/>
<path d="M613.913 1028.35C612.647 1027.99 611.318 1027.74 610.006 1027.62L609.915 1027.22C610.873 1026.81 615.926 1024.59 616.177 1023.93C619.314 1015.83 620.466 1006.44 621.287 997.802C621.458 995.988 622.667 993.302 623.289 991.403C623.614 1002.41 618.743 1011.97 619.234 1022.35C619.234 1022.36 620.711 1024.16 620.945 1024.42C618.316 1026.72 617.443 1027.31 613.913 1028.35Z" fill="#191818"/>
<path d="M397.478 309.223C404.47 307.908 414.607 307.422 416.287 316.903C416.984 320.832 414.586 325.416 412.224 328.419C407.672 334.054 399.68 339.06 396.263 345.461C394.607 348.563 396.185 352.034 394.827 355.265C393.148 359.263 389.894 359.95 388.482 363.816C388.152 362.188 388.008 360.561 386.987 359.297C385.998 360.481 385.707 365.059 385.062 367.245C382.027 356.686 389.631 356.777 390.662 354.759L389.297 353.858C389.414 349.341 391.121 346.785 393.143 342.944C392.408 341.621 392.436 342.071 392.312 340.701C394.088 340.803 394.287 341.122 395.548 340.393C395.416 339.577 395.231 338.791 395.003 337.996C396.578 338.705 395.807 338.618 397.361 338.499C399.019 335.594 400.783 334.775 402.596 331.915L401.583 330.573C403.481 327.687 408.035 329.723 411.857 323.38C408.966 319.406 416.14 312.478 405.198 310.653C402.168 310.569 400.53 311.036 397.415 310.419L397.478 309.223Z" fill="#2C2C2C"/>
<path d="M571.008 457.378C571.51 464.553 570.609 472.497 570.871 480.266C571.692 504.821 571.989 528.263 571.869 552.862L571.555 552.608C571.23 549.013 571.088 546.411 571.07 542.805L570.449 543.022C569.324 547.594 570.705 559.966 570.683 565.342C570.66 570.683 568.202 581.445 569.433 585.968L569.875 585.682L570.01 584.667C571.122 585.431 570.643 584.93 571.082 586.595C570.5 587.781 570.597 587.844 569.518 588.557C569.705 592.806 568.076 602.113 569.795 605.449C571.384 608.535 568.229 616.565 565.74 617.027C566.128 616.24 566.511 615.453 566.888 614.666C567.998 612.339 569.482 609.789 568.439 607.177C566.873 603.254 569.334 570.643 569.592 564.312C569.953 555.477 569.016 546.491 568.901 537.64L568.351 473.18C568.801 471.059 569.599 470.926 570.048 469.067C570.928 465.44 570.922 461.124 571.008 457.378Z" fill="#040404" fill-opacity="0.984314"/>
<path d="M399.905 617.187C406.049 619.439 412.414 631.598 416.072 637.832C420.975 646.198 468.868 684.82 447.276 692.308C446.731 691.145 447.009 690.078 447.141 688.761C448.532 687.632 448.529 687.677 449.504 686.194C449.177 674.617 443.221 671.515 434.954 663.234C430.848 656.686 426.84 653.207 420.962 648.445C420.615 648.337 417.678 648.286 415.755 647.795C416.663 646.917 417.589 646.056 418.535 645.217L418.374 644.402C413.107 641.431 415.722 640.085 412.545 638.459L411.235 639.315L410.691 638.465C411.103 637.484 411.175 637.193 411.424 636.155C408.98 632.442 406.042 631.787 402.402 629.773C404.03 627.789 404.978 627.789 405.11 625.889C403.35 622.833 402.346 620.723 399.625 618.453L399.905 617.187Z" fill="#1E1D1D" fill-opacity="0.988235"/>
<path d="M373.932 608.158L374.632 609.51L375.839 609.715C379.019 613.109 376.107 616.211 373.269 618.424C362.342 626.922 352.342 636.435 341.895 645.497C337.228 649.489 328.354 657.952 323.732 661.089C323.927 658.711 324.549 659.213 323.764 656.778C326.365 653.105 338.17 644.094 342.278 640.404C348.355 634.895 354.574 629.551 360.735 624.144C365.284 620.146 371.715 616.034 373.037 610.029L373.932 608.158Z" fill="black" fill-opacity="0.988235"/>
<path d="M385.062 367.245C385.707 365.059 385.998 360.481 386.987 359.297C388.008 360.561 388.152 362.188 388.482 363.816C388.577 379.285 389.372 394.503 390.369 409.936C390.71 415.227 390.494 423.429 391.308 428.188C391.115 430.275 390.918 432.203 390.867 434.305C390.894 432.563 391.228 429.855 390.287 428.59C388.481 430.236 388.716 431.347 388.389 434.033C388.073 426.124 386.175 415.038 385.872 407.014C385.393 394.352 384.271 379.725 385.062 367.245Z" fill="#3A3939"/>
<path d="M560.241 352.285L560.268 350.589L561.345 349.659L560.938 348.785L561.177 348.725C561.702 350.258 561.836 350.748 563.027 351.847C563.887 354.26 564.067 357.223 564.352 359.804C566.777 381.73 569.568 404.02 570.263 426.062L569.354 425.059C567.89 426.591 569.222 428.053 567.705 429.929C566.618 418.698 566.71 407.589 565.237 396.423C563.299 381.742 562.28 366.965 560.241 352.285Z" fill="black" fill-opacity="0.988235"/>
<path d="M622.958 934.782C620.888 929.022 619.73 881.794 621.047 874.363C622.884 873.285 622.844 873.662 625.302 873.588C622.627 885.068 624.937 903.911 624.663 916.127C624.486 923.764 626.397 933.008 626.169 941.124C623.819 938.546 625.444 937.098 624.549 933.408L623.733 938.244C623.648 936.784 623.631 936.145 622.958 934.782Z" fill="#2C2C2C" fill-opacity="0.984314"/>
<path d="M183.993 515.491C185.127 514.839 186.371 513.688 187.662 514.384C200.95 521.549 213.114 530.159 227.176 535.936C229.946 537.074 236.409 538.438 237.584 540.093L237.252 541.007L236.843 541.09C234.632 540.936 231.037 540.333 229.323 541.911C221.857 537.691 187.791 521.161 183.993 515.491Z" fill="black"/>
<path d="M372.223 645.098L374.074 645.309C376.102 648.696 371.307 698.102 375.931 704.678C376.981 706.167 370.856 711.431 369.124 712.132C367.497 712.018 366.9 712.725 365.548 712.971C366.487 711.322 367.344 709.492 368.186 707.781C372.721 703.709 370.091 691.852 370.763 685.943C372.109 674.109 370.692 658.996 372.337 647.527L372.223 645.098Z" fill="#060505" fill-opacity="0.980392"/>
<path d="M404.417 657.753C408.564 662.84 413.58 666.119 417.974 670.471C425.868 678.295 429.524 686.964 442.046 688.259L443.33 689.32C440.607 690.62 438.955 687.86 436.53 691.116C425.354 687.785 410.945 669.935 403.152 661.414C403.551 660.091 403.927 659.047 404.417 657.753Z" fill="#030303" fill-opacity="0.980392"/>
<path d="M823.921 435.234C827.947 438.968 827.029 457.616 828.9 459.758C829.567 458.821 829.447 458.771 829.487 457.587C832.892 476.523 828.027 493.859 819.352 510.627C818.725 510.388 818.702 510.286 818.143 509.87L817.778 506.642C831.654 476.882 827.81 466.1 823.921 435.234Z" fill="black" fill-opacity="0.898039"/>
<path d="M694.356 771.57C696.689 772.157 696.364 771.673 697.327 773.184C696.096 776.788 689.343 788.662 686.919 791.434L686.64 790.909C689.759 785.486 691.539 785.069 691.259 779.315L690.94 780.079C685.145 793.881 673.962 809.41 665.618 822.054C659.983 830.592 656.225 838.063 648.109 844.667C647.202 845.408 646.29 855.748 636.081 847.422L636.303 845.996C636.862 845.859 638.573 845.905 639.246 845.899L638.339 846.925L638.961 847.969C641.174 847.781 643.803 847.815 645.662 846.811C643.233 846.247 642.189 846.156 639.754 845.967C641.99 842.209 642.32 845.608 645.046 842.511C645.919 842.842 646.934 842.933 647.83 842.654C656.567 839.905 687.951 783.256 694.356 771.57Z" fill="black" fill-opacity="0.929412"/>
<path d="M293.207 412.966C295.992 414.151 347.85 463.691 353.095 469.054C354.47 470.46 359.606 478.026 360.661 478.862C367.413 484.216 371.886 483.174 375.716 492.568C376.192 493.735 376.198 493.267 375.807 494.368L375.198 495.051C373.267 492.143 372.344 489.287 368.596 488.827C360.364 480.173 354.134 472.111 345.909 463.767C336.755 454.481 326.654 445.918 317.435 436.691C311.826 431.076 296.866 419.264 293.207 412.966Z" fill="black" fill-opacity="0.988235"/>
<path d="M381.819 876.525L381.881 875.361C385.247 873.148 446.475 873.724 454.124 874.101C451.477 874.956 447.539 875.692 444.795 875.11L446.211 875.395L445.289 875.287C447.992 875.293 449.011 875.492 451.504 876.57C428.278 877.021 405.045 877.009 381.819 876.525Z" fill="#191818" fill-opacity="0.988235"/>
<path d="M525.239 444.952C523.977 445.695 523.598 446.021 522.65 447.138C521.413 447.548 520.907 447.862 519.661 447.501C525.702 437.378 539.451 432.967 548.258 427.306L548.448 426.265L547.374 425.463C547.257 423.48 548.149 423.773 549.048 421.465C544.398 418.019 543.632 418.137 538.114 416.876C539.559 416.55 545.868 417.371 547.661 417.554C562.511 424.907 546.847 432.772 538.983 436.197C534.868 437.989 528.353 441.753 525.239 444.952Z" fill="#2C2C2C"/>
<path d="M513.796 421.368C511.267 421.911 510.515 425.375 509.798 427.542L508.853 427.602C504.4 421.326 518.615 398.525 516.257 390.491C515.979 389.541 515.991 388.76 516.176 387.795L518.1 386.72C525.957 394.616 512.196 410.738 513.796 421.368Z" fill="#2C2C2C"/>
<path d="M216.084 158.276L215.446 157.363C221.549 150.773 234.661 137.79 242.461 133.516L241.333 132.533C241.133 130.586 240.95 131.491 242.004 129.749C248.331 126.085 258.164 120.133 265.614 119.156C266.872 118.991 267.193 119.675 267.96 120.464C244.897 131.214 233.62 140.299 216.084 158.276Z" fill="#3A3939"/>
<path d="M361.431 713.598L361.059 715.953C361.957 715.953 363.484 715.896 364.321 715.976L361.393 719.329C357.674 721.32 357.159 721.485 354.83 725.135L354.456 725.666C350.473 731.209 346.552 729.606 347.424 735.492C347.714 737.454 348.058 737.654 347.093 738.332L344.343 738.589C344.894 741.612 345.734 737.397 345.705 741.862C344.879 741.572 344.12 741.292 343.397 740.796C342.913 741.931 342.511 742.963 342.08 744.121C334.726 734.888 354.995 718.964 361.431 713.598Z" fill="#070707" fill-opacity="0.980392"/>
<path d="M271.75 537.137C265.497 537.507 256.596 536.541 250.38 535.658C248.686 535.417 248.85 535.731 247.688 536.804C246.913 535.868 246.131 534.938 245.34 534.016C240.55 532.459 236.297 530.52 231.877 528.142C226.324 525.156 221.145 520.511 214.869 519.332L215.596 518.332L215.139 517.38C213.388 516.939 209.005 515.528 208.226 513.902L209.409 513.903C212.434 515.941 216.097 516.976 219.156 518.864C224.428 522.118 237.964 532.444 244.131 529.029C247.652 530.056 257.02 532.423 260.611 532.469C260.12 534.325 259.951 533.912 260.371 535.545C263.66 537.077 269.051 536.049 271.75 537.137Z" fill="black"/>
<path d="M221.928 399.753C227.489 394.243 232.633 393.642 239.129 398.599C236.535 399.208 231.728 395.566 226.929 396.611L226.15 397.536L226.394 398.136L229.882 397.771L229.981 397.616L229.068 398.054C230.905 398.703 237.276 402.12 237.805 404.128C233.695 402.635 234.313 399.146 228.93 399.976C227.091 401.213 225.987 402.451 226.824 404.669L226.417 404.35L226.949 404.604C228.713 403.644 231.628 402.173 233.618 402.914C231.757 404.048 229.107 405.319 227.013 405.889C225.706 405.392 225.767 405.471 224.982 404.322C222.094 408.949 226.525 422.557 223.692 425.679C220.139 424.77 220.258 421.885 218.81 419.405L220.492 418.572C222.084 416.183 221.518 404.068 221.928 399.753Z" fill="#2C2C2C"/>
<path d="M330.978 514.53C335.181 513.116 337.953 517.476 340.849 515.322C349.273 519.897 357.031 524.28 366.261 527.089C363.658 527.488 361 526.908 358.8 525.462C358.691 525.386 358.583 525.31 358.474 525.234L357.693 525.621L356.999 525.303L356.228 525.919C358.585 527.062 369.147 529.77 370.062 530.629C366.425 536.105 336.915 517.901 330.978 514.53Z" fill="black" fill-opacity="0.980392"/>
<path d="M217.096 627.988C223.703 628.855 230.755 630.212 237.27 630.68C243.977 631.165 251.317 630.566 258.06 630.743C254.069 635.208 257.682 633.138 254.507 636.514C243.115 634.912 247.477 636.321 238.117 637.398C234.975 633.794 235.983 636.965 233.047 634.433L233.11 633.703L236.621 633.326L236.882 632.368C232.904 629.711 221.821 631.541 217.096 627.988Z" fill="#191818" fill-opacity="0.960784"/>
<path d="M397.385 756.098C394.359 752.288 392.201 738.629 391.167 733.274C393.758 730.257 391.781 727.24 394.087 724.907C396.483 726.852 396.573 731.728 396.944 734.922C396.582 744.258 397.507 747.343 400.873 755.989L400.256 757.974C398.873 757.985 398.77 757.381 397.385 756.098Z" fill="#2C2C2C"/>
<path d="M511.283 684.974C512.625 679.174 507.207 658.859 511.68 657.69L513.901 659.652L513.994 663.239C513.592 668.937 517.297 691.384 513.867 693.922C513.244 694.384 512.369 694.698 511.655 695L504.838 694.641C508.892 693.517 511.293 693.477 513.232 690.078C513.136 687.033 513.088 687.831 511.283 684.974Z" fill="#1E1D1D" fill-opacity="0.976471"/>
<path d="M567.705 429.929C569.222 428.053 567.89 426.592 569.354 425.059L570.263 426.062C570.831 432.52 569.78 453.896 571.008 457.378C570.922 461.125 570.928 465.44 570.049 469.067C569.599 470.926 568.801 471.059 568.351 473.18C567.585 457.732 568.157 444.766 567.705 429.929Z" fill="black" fill-opacity="0.968627"/>
<path d="M256.472 883.163C256.116 882.553 256.155 882.393 255.981 881.686C265.345 879.428 274.622 876.188 284.68 878.082C290.594 879.194 294.949 877.386 300.545 877.876L300.237 878.39L296.021 878.715L291.436 879.775C286.223 879.49 286.219 880.585 281.737 883.602C281.18 882.849 281.026 882.57 280.585 881.743C276.554 881.384 276.064 883.357 272.843 882.034L272.045 883.186C267.031 880.608 261.954 882.177 256.472 883.163Z" fill="#1E1D1D" fill-opacity="0.988235"/>
<path d="M694.356 771.57C695.77 767.812 699.072 762.211 700.903 758.464C703.703 752.733 706.287 747.058 708.916 741.247L710.279 742.125L712.503 741.235C712.275 746.151 698.907 768.188 697.327 773.184C696.363 771.673 696.689 772.157 694.356 771.57Z" fill="black" fill-opacity="0.972549"/>
<path d="M415.022 548.751L415.433 548.617C427.084 544.912 439.023 544.984 451.087 544.923C452.875 544.914 458.303 544.494 459.601 545.17C456.248 546.063 456.376 544.65 454.255 547.585C443.771 547.489 434.652 547.908 424.326 549.891C422.624 550.217 420.21 550.691 418.556 550.848L415.022 548.751Z" fill="#2A292A" fill-opacity="0.980392"/>
<path d="M368.596 488.827C372.344 489.287 373.267 492.143 375.198 495.051L375.807 494.368C375.361 502.276 378.788 522.552 376.652 529.122C375.9 526.713 376.935 520.684 375.689 519.216L374.905 519.698L374.427 522.158L373.856 522.322C371.244 510.015 376.667 499.517 368.596 488.827Z" fill="#070606" fill-opacity="0.956863"/>
<path d="M561.836 935.695C560.569 914.336 551.078 894.005 561.472 875.259C562.435 881.03 556.041 883.043 560.192 888.034C559.913 890.982 558.225 899.411 559.377 901.099L558.639 901.288C558.2 900.136 558.111 900.016 557.842 898.801L558.612 906.535C558.927 905.651 559.3 904.789 559.669 903.928C560.185 905.257 560.684 906.597 561.167 907.937C562.062 910.51 560.66 912.797 560.569 913.732C559.955 920.011 564.663 928.834 561.836 935.695Z" fill="black" fill-opacity="0.980392"/>
<path d="M372.294 748.204C375.373 751.113 373.289 756.052 381.06 760.689L381.966 760.13C380.771 758.641 374.27 749.22 374.503 747.948C378.165 751.706 376.276 754.449 383.256 759.006C389.963 759.251 391.525 759.873 397.385 756.098C398.77 757.381 398.873 757.985 400.256 757.974L400.873 755.989C400.911 757.769 400.982 758.088 400.508 759.765C394.665 765.245 382.651 763.78 376.906 758.692C373.529 755.698 372.631 752.533 372.294 748.204Z" fill="black" fill-opacity="0.980392"/>
<path d="M397.455 608.849C395.946 603.396 397.223 590.051 396.791 583.607C395.074 582.671 395.887 582.762 394.254 582.785C393.63 584.781 394.17 586.846 394.48 588.99L394.169 589.275C393.583 587.667 393.411 587.559 392.256 586.213L391.934 585.842C392.537 585.015 392.814 584.565 393.323 583.681L392.559 582.677C392.888 580.761 392.536 581.656 393.895 580.008C392.867 579.899 392.269 579.227 391.464 578.536C392.778 576.831 393.323 576.346 393.98 574.356C393.231 573.198 392.895 572.554 392.287 571.311L392.619 570.444C395.089 569.317 396.117 568.777 398.461 570.17C399.444 572.155 399.296 572.577 399.013 574.778L399.828 575.651C395.888 585.363 398.049 598.195 397.455 608.849Z" fill="#2D2C2C" fill-opacity="0.945098"/>
<path d="M360.692 653.048C362.203 652.455 363.214 651.822 364.732 652.209C365.382 653.669 365.245 653.082 364.674 654.987C362.825 655.745 348.625 670.22 344.527 673.425C343.257 673.117 343.684 673.265 342.558 672.558L342.668 671.155C347.655 665.771 356.748 657.867 360.692 653.048Z" fill="#2C2C2C"/>
<path d="M325.059 531L326.039 529.734C328.835 529.866 337.927 533.16 340.682 534.392L340.862 535.065L340.129 535.884C341.98 535.984 343.556 535.983 345.411 535.959L345.526 536.294L341.58 537.526C342.19 539.836 345.124 539.565 345.751 542.015C343.736 542.712 343.325 542.633 341.178 542.487C339.444 540.778 341.18 540.263 337.447 540.467C331.875 540.77 332.294 542.234 327.41 539.187C330.511 538.684 334.578 537.313 337.667 536.376C333.447 534.624 329.244 532.832 325.059 531Z" fill="#161515" fill-opacity="0.94902"/>
<path d="M504.902 895.607C505.738 898.921 505.393 911.308 505.869 916.201C506.935 915.665 507.064 915.021 507.568 913.92C507.552 912.5 507.663 912.312 507.011 911.262C505.731 909.198 506.393 903.957 506.561 901.413L507.036 901.442C508.062 911.821 508.799 922.549 509.537 932.963C509.843 937.286 508.434 937.143 508.613 938.181C508.908 939.881 508.856 941.786 508.772 943.97C506.084 933.95 503.126 905.668 504.902 895.607Z" fill="black" fill-opacity="0.960784"/>
<path d="M553.084 668.937C549.998 665.783 548.914 661.294 545.799 658.614C542.463 655.74 524.152 650.493 524.291 645.651C525.834 644.864 525.829 644.858 527.524 644.51C529.196 646.489 530.478 648 532.601 649.523C539.861 654.736 556.554 657.171 553.084 668.937Z" fill="#1E1D1D" fill-opacity="0.988235"/>
<path d="M506.238 461.156L506.849 460.085C509 460.317 510.939 460.638 513.063 460.992L511.388 460.157L511.616 459.623C515.876 459.225 525.926 460.198 530.36 461.282C531.469 461.553 534.494 463.721 535.614 464.528L535.067 464.05C540.405 466.076 541.327 461.363 544.178 463.934C542.021 464.948 540.198 464.486 538.537 466.098L538.413 466.76C529.895 464.306 515.239 462.374 506.238 461.156Z" fill="#191818" fill-opacity="0.980392"/>
<path d="M454.124 874.101C461.935 873.633 469.764 873.496 477.587 873.702C481.753 874.768 485.584 873.753 488.314 875.475C476.504 875.772 463.637 877.546 451.504 876.57C449.011 875.492 447.992 875.293 445.288 875.287L446.211 875.395L444.795 875.11C447.539 875.692 451.477 874.956 454.124 874.101Z" fill="#2C2C2C"/>
<path d="M515.43 663.216C521.17 662.566 522.594 665.475 526.074 664.591C524.474 663.775 523.116 663.479 522.508 662.139C523.187 662.213 523.906 662.412 524.444 662.823C529.938 667.003 540.521 666.45 544.294 671.326L546.007 670.699L546.188 671.224L545.905 671.566C543.28 671.549 541.459 671.035 539.17 671.908L538.285 673.254C530.818 671.03 523.963 665.384 515.43 663.216Z" fill="black"/>
<path d="M313.388 674.041C322.001 678.17 328.954 678.957 337.267 673.1C338.894 671.954 340.338 670.277 342.29 669.958L342.668 671.155L342.558 672.558C343.684 673.265 343.257 673.117 344.527 673.425C343.382 674.281 340.466 676.539 339.272 677.029C331.924 680.018 318.456 681.951 313.388 674.041Z" fill="black" fill-opacity="0.984314"/>
<path d="M459.601 545.17C464.599 545.015 483.2 544.147 484.048 550.4L483.078 550.733C483.944 551.342 484.729 551.899 485.572 552.544L485.452 553.967C484.253 553.295 481.931 551.185 480.771 550.2C468.922 548.42 466.829 547.527 454.254 547.585C456.376 544.65 456.248 546.063 459.601 545.17Z" fill="#161515" fill-opacity="0.964706"/>
<path d="M413.488 655.415C413.184 654.046 413.322 653.128 413.403 651.742C415.981 649.438 419.481 652.951 420.962 648.445C426.841 653.207 430.848 656.686 434.955 663.234L433.955 664.534L432.941 664.608C431.229 661.888 429.701 661.853 428.18 659.806L428.637 658.5C427.028 656.852 425.137 653.618 423.113 653.504L421.574 655.329C419.485 655.414 415.025 655.078 413.488 655.415Z" fill="black" fill-opacity="0.976471"/>
<path d="M560.7 628.119C561.167 626.454 560.965 625.878 562.052 625.222L562.031 625.81L563.471 623.574L564.288 623.431L565.036 624.726C566.627 619.776 574.481 611.518 579.939 611.689C581.256 612.35 581.61 612.413 582.42 613.668C581.062 614.112 580.059 612.881 579.699 613.006C575.063 614.649 564.378 619.947 566.277 626.317C568.581 627.492 571.207 627.218 573.791 626.979L575.753 628.661L576.848 628.262L577.692 626.163L578.331 626.169C578.564 627.207 578.81 628.222 578.998 629.271C575.239 629.614 566.98 629.665 564.858 632.408C563.256 630.218 562.726 629.813 560.7 628.119Z" fill="black"/>
<path d="M413.488 655.414C415.025 655.078 419.484 655.414 421.574 655.329L423.113 653.504C425.137 653.618 427.028 656.852 428.636 658.5C428.443 658.796 427.549 660.114 427.359 660.228C423.814 662.349 412.523 660.57 410.879 656.544C412.674 656.179 412.592 656.509 413.488 655.414Z" fill="#161515" fill-opacity="0.964706"/>
<path d="M388.389 434.033C388.716 431.347 388.482 430.236 390.287 428.59C391.228 429.855 390.894 432.563 390.867 434.305C390.919 432.203 391.115 430.275 391.308 428.188C391.956 434.813 390.763 441.67 392.232 447.778C392.03 450.989 390.957 455.43 390.903 457.25L390.759 458.054C388.254 453.502 388.413 439.735 388.389 434.033Z" fill="#2C2C2C" fill-opacity="0.866667"/>
<path d="M342.08 744.121C342.511 742.963 342.913 741.931 343.397 740.796C344.12 741.292 344.879 741.572 345.705 741.863C353.649 743.71 353.543 744.663 361.235 743.043L360.686 745.672C361.815 745.986 362.426 745.37 363.821 744.754L364.04 745.666C358.331 749.824 347.822 747.001 342.08 744.121Z" fill="black" fill-opacity="0.984314"/>
<path d="M491.615 685.504C492.134 683.434 491.93 683.97 491.301 681.626C493.605 685.864 497.812 688.607 501.693 691.247C504.267 691.321 506.602 691.709 508.751 690.5C509.914 689.074 509.788 689.725 509.561 687.586C509.506 687.084 509.44 686.582 509.365 686.086C510.411 684.888 509.778 685.219 511.283 684.974C513.088 687.831 513.136 687.033 513.232 690.078C511.293 693.477 508.892 693.517 504.838 694.641L511.655 695C508.024 695.787 506.759 695.798 503 695.827C503.585 694.869 503.454 695.068 503.799 693.979C499.768 691.053 494.207 689.029 491.615 685.504Z" fill="black"/>
<path d="M391.801 491.09C391.031 490.923 390.99 490.806 390.276 490.415C390.539 488.734 394.494 487.338 396.411 485.796C402.297 481.06 403.891 474.537 408.72 468.561L409.632 470.345C408.331 473.067 405.856 475.832 405.736 477.965L406.194 478.419L408.362 477.722C404.802 481.317 401.2 484.869 397.554 488.377L395.498 487.643C393.414 488.655 393.512 490.023 391.801 491.09Z" fill="#191818" fill-opacity="0.956863"/>
<path d="M496.166 623.198C496.208 623.192 496.249 623.192 496.29 623.192C504.397 624.424 510.118 619.747 520.092 618.384L519.565 619.291C514.822 620.357 503.055 622.924 500.608 626.574C500.231 627.133 499.413 627.304 498.735 627.509C494.191 626.984 494.456 622.388 489.996 624.578L489.136 623.374L486.773 623.163C487.537 622.416 487.487 622.456 487.927 621.475L486.94 620.865L485.949 621.966L484.615 621.641L485.618 619.422C489.182 618.384 491.146 622.268 494.942 623.694L496.166 623.198Z" fill="#191818" fill-opacity="0.952941"/>
<path d="M543.675 501.169C545.82 499.959 549.365 499.632 551.68 500.222C554.233 500.895 556.387 502.61 557.616 504.947C559.265 508.012 558.477 510.441 556.879 513.286C554.272 511.287 555.515 507.856 552.964 504.587C548.636 502.126 546.525 503.362 542.206 503.179L543.675 501.169Z" fill="#1E1D1D"/>
<path d="M312.5 503.366C318.032 505.083 322.672 507.493 328.919 509.298L329.133 508.493C333.072 510.711 336.977 512.988 340.849 515.322C337.953 517.476 335.181 513.116 330.978 514.53C324.878 510.423 318.915 508.148 312.5 503.366Z" fill="black"/>
<path d="M260.611 532.469C273.338 534.905 282.278 537.299 295.237 537.865C292.574 538.938 273.52 537.847 271.75 537.137C269.051 536.049 263.66 537.077 260.371 535.545C259.951 533.912 260.12 534.325 260.611 532.469Z" fill="#191818" fill-opacity="0.984314"/>
<path d="M578.998 629.271C580.897 628.73 582.545 628.256 584.41 627.583C585.978 627.931 587.667 628.159 589.03 628.889C583.817 631.324 569.828 635.528 564.858 632.408C566.98 629.665 575.239 629.614 578.998 629.271Z" fill="#161515" fill-opacity="0.988235"/>
<path d="M823.407 434.002L824.269 433.802C824.206 431.727 823.59 424.724 824.411 423.716C826.681 425.966 829.464 452.301 829.487 456.967V457.587C829.447 458.771 829.567 458.821 828.9 459.758C827.029 457.616 827.947 438.968 823.921 435.234L823.407 434.002Z" fill="black" fill-opacity="0.803922"/>
<path d="M376.277 573.147C376.055 584.656 375.477 598.4 375.839 609.715L374.632 609.51L373.932 608.158C374.643 602.666 374.206 593.832 374.049 588.004C374.3 581.673 374.229 579.169 376.277 573.147Z" fill="#191818" fill-opacity="0.0823529"/>
<path d="M391.801 491.09C393.512 490.023 393.413 488.655 395.498 487.643L397.554 488.377C396.322 491.546 396.551 492.248 395.781 494.657L395.269 494.065L395.319 494.746C395.771 501.646 392.017 498.339 394.081 505.616L393.708 511.311C393.163 507.332 393.305 502.312 392.549 498.476C392.459 498.019 391.141 498.119 390.228 495.907C391.107 495.51 391.229 495.449 392.012 494.89C391.922 493.624 391.851 492.358 391.801 491.09Z" fill="#2C2C2C" fill-opacity="0.917647"/>
<path d="M488.837 677.885C491.279 681.25 489.359 683.326 491.208 686.063L491.616 685.504C494.207 689.029 499.768 691.053 503.799 693.979C503.454 695.068 503.585 694.869 503 695.827C500.567 695.108 495.461 692.451 492.971 691.236C489.167 685.767 488.896 684.495 488.837 677.885Z" fill="black" fill-opacity="0.976471"/>
<path d="M477.587 873.702C484.78 873.354 492.166 872.972 499.387 872.915C501.54 872.897 503.353 872.521 504.295 874.74C499.509 876 493.317 875.658 488.314 875.475C485.584 873.753 481.753 874.768 477.587 873.702Z" fill="#2C2C2C" fill-opacity="0.980392"/>
<path d="M205.727 435.365L205.895 434.607L204.502 432.316L204.819 431.513C208.048 431.957 217.805 439.751 220.433 442.132L219.902 442.817C214.298 442.833 212.817 435.794 208.202 436.419C208.242 436.809 208.365 437.687 208.329 438.034C207.379 437.496 206.499 436.259 205.727 435.365Z" fill="black"/>
<path d="M556.545 616.97C556.7 617.044 557.56 617.819 557.72 617.956C558.02 619.16 558.089 619.981 558.923 620.893L560.625 620.386C561.714 621.452 561.238 620.848 561.702 622.644C560.699 626.135 557.802 627.492 554.455 627.806C559.034 620.466 554.275 622.314 552.322 618.213L552.853 617.66C554.273 618.259 554.995 618.766 556.47 618.407L556.545 616.97Z" fill="#191818"/>
<path d="M391.084 312.658C392.737 311.217 395.458 310.097 397.478 309.223L397.415 310.419C400.53 311.036 402.169 310.569 405.198 310.653C401.712 312.829 399.751 311.693 395.701 313.611C391.561 315.57 391.192 318.206 388.28 319.538C389.578 316.517 391.241 315.368 391.372 313.179L391.084 312.658Z" fill="black" fill-opacity="0.988235"/>
<path d="M543.238 868.917C546.21 869.162 551.612 868.369 553.307 868.905L553.447 869.727C551.74 870.343 541.496 870.143 537.475 870.708C532.4 870.941 527.619 871.614 522.673 870.753L523.207 870.628C529.503 869.105 536.684 869.162 543.238 868.917Z" fill="black"/>
<path d="M595.896 618.567C595.389 621.338 595.292 620.215 596.221 622.838C593.815 626.374 593.21 627.406 589.03 628.889C587.667 628.159 585.979 627.931 584.41 627.583C590.016 626.026 592.954 623.283 595.896 618.567Z" fill="#1E1D1D" fill-opacity="0.976471"/>
<path d="M806.634 533.591C807.478 530.993 812.081 522.592 814.043 520.597C814.613 522.126 815.976 522.536 817.653 523.649C816.244 523.314 814.807 522.99 813.421 522.593C812.554 524.218 810.142 528.274 810.199 529.8L812.377 531.048C812.104 532.886 811.847 532.604 810.29 534.28C808.328 534.421 808.436 534.42 806.634 533.591Z" fill="#191818" fill-opacity="0.960784"/>
<path d="M193.187 427.519L193.51 426.292L193.226 426.036C192.193 425.098 192.037 424.984 191.262 423.754L191.734 422.766C192.776 422.785 201.225 428.332 201.738 429.403C200.125 430.605 199.68 429.823 197.093 430.483C195.418 429.512 194.669 428.792 193.187 427.519Z" fill="black"/>
<path d="M360.692 653.048C361.675 651.622 370.486 645.828 372.223 645.098L372.337 647.527C369.435 650.727 367.991 652.289 364.674 654.987C365.245 653.082 365.382 653.669 364.732 652.209C363.214 651.822 362.203 652.455 360.692 653.048Z" fill="#212120" fill-opacity="0.988235"/>
<path d="M432.941 664.608L433.955 664.534C435.847 666.889 436.042 667.311 435 670.397L434.728 671.212C434.661 671.4 434.593 671.589 434.525 671.777C432.448 671.697 431.559 671.634 430.615 669.655L429.402 670.305C428.838 668.748 428.896 668.372 428.848 666.769L429.677 666.057C431.061 666.262 431.936 666.587 433.109 665.903L432.941 664.608Z" fill="#161515" fill-opacity="0.964706"/>
<path d="M442.046 688.259L447.141 688.761C447.009 690.078 446.732 691.145 447.276 692.308C442.586 692.759 440.979 692.582 436.53 691.116C438.955 687.86 440.607 690.62 443.33 689.32L442.046 688.259Z" fill="black" fill-opacity="0.964706"/>
<path d="M565.049 995.304L566.781 992.07L567.529 992.19C568.369 995.133 567.429 1000.15 566.375 1003.09C566.045 1004.02 564.986 1003.37 563.876 1005.62C563.876 1002.52 564.591 998.463 565.049 995.304Z" fill="black" fill-opacity="0.866667"/>
<path d="M373.318 576.877C373.819 580.635 373.59 585.124 374.049 588.004C374.206 593.832 374.643 602.666 373.932 608.158L373.037 610.029C373.021 600.87 372.579 585.534 373.318 576.877Z" fill="#191818" fill-opacity="0.843137"/>
<path d="M398.651 658.648C399.169 656.344 398.063 653.926 400.69 653.361C403.527 655.403 402.19 654.901 403.949 657.16L404.417 657.753C403.927 659.047 403.55 660.091 403.152 661.414C401.751 660.245 400.253 659.526 398.651 658.648Z" fill="#191818" fill-opacity="0.988235"/>
<path d="M407.135 531.45L405.817 530.711C405.004 527.319 410.122 527.917 411.652 524.931C413.073 525.092 414.399 525.323 415.817 525.18C413.1 529.002 411.393 529.472 407.135 531.45Z" fill="#1E1D1D" fill-opacity="0.988235"/>
<path d="M361.431 713.598C364.054 710.837 364.974 709.731 368.186 707.781C367.344 709.492 366.487 711.322 365.548 712.97C366.9 712.725 367.497 712.018 369.124 712.132C367.788 713.261 365.74 715.115 364.32 715.976C363.484 715.896 361.957 715.953 361.059 715.953L361.431 713.598Z" fill="black" fill-opacity="0.819608"/>
<path d="M258.191 547.663C260.425 546.797 271.435 547.766 272.318 550.8C267.863 550.247 264.034 548.963 260.231 551.05L258.637 549.721L258.191 547.663Z" fill="#161515" fill-opacity="0.984314"/>
<path d="M413.542 554.291L412.961 553.225C410.683 552.575 409.885 552.436 408.583 550.547C409.768 549.397 412.978 549.164 415.022 548.751L418.556 550.848C416.023 552.045 415.59 552.231 413.542 554.291Z" fill="#191818" fill-opacity="0.968627"/>
<path d="M392.232 447.778C394.521 449.059 394.85 449.161 397.445 449.562C395.208 453.164 394.125 454.435 390.903 457.25C390.957 455.431 392.03 450.99 392.232 447.778Z" fill="#1E1D1D" fill-opacity="0.0117647"/>
<path d="M200.058 637.706L200.534 637.484C202.853 637.86 211.039 641.59 213.903 642.805C210.609 644.151 201.015 640.735 200.058 637.706Z" fill="black"/>
<path d="M597.374 1026.64C600.995 1023.6 604.793 1023.96 605.917 1028.95C602.05 1028.86 600.362 1029.15 597.374 1026.64Z" fill="black" fill-opacity="0.988235"/>
<path d="M354.831 725.135C357.159 721.485 357.674 721.32 361.393 719.329C361.941 722.267 362.115 721.16 360.992 723.624C358.82 725.437 357.692 725.375 354.831 725.135Z" fill="#161515" fill-opacity="0.894118"/>
<path d="M229.323 541.911C231.037 540.333 234.632 540.936 236.843 541.09C235.414 543.486 234.682 545.056 232.169 546.226L232.196 545.526L231.64 545.504C230.998 544.719 229.902 542.837 229.323 541.911Z" fill="#1D1D1E" fill-opacity="0.968627"/>
<path d="M394.081 505.616C392.017 498.339 395.771 501.646 395.319 494.746L395.269 494.065L395.781 494.657C396.27 498.55 396.491 500.625 396.448 504.52L395.384 505.423L394.081 505.616Z" fill="#2C2C2C" fill-opacity="0.898039"/>
<path d="M263.456 635.094C263.501 634.724 263.773 633.851 263.883 633.452C264.529 633.201 265.177 632.961 265.828 632.722C269.382 631.422 270.23 630.583 272.904 631.821C268.121 635.437 269.102 635.374 263.456 635.094Z" fill="black" fill-opacity="0.988235"/>
<path d="M368.277 438.906L370.819 438.26C372.978 440.131 372.321 441.987 371.804 444.442L370.853 444.793L369.946 444.346L368.443 443.776C368.462 442.221 368.344 440.477 368.277 438.906Z" fill="black" fill-opacity="0.984314"/>
<path d="M262.014 672.022C263.459 672.222 264.94 672.17 266.408 672.176C266.188 674.018 266.068 674.691 265.538 676.465L264.895 675.718L264.246 675.233C262.418 675.444 262.429 676.151 260.828 675.421C261.631 674.081 261.753 673.568 262.014 672.022Z" fill="#1E1D1D" fill-opacity="0.898039"/>
<path d="M258.637 549.721C257.518 550.946 255.965 552.835 254.461 553.335C254.47 551.675 254.64 550.563 254.861 548.91L253.929 547.762L254.36 547.125C255.499 547.398 256.239 547.592 257.423 547.639L258.191 547.663L258.637 549.721Z" fill="black"/>
<path d="M272.046 883.186L272.843 882.034C273.114 883.922 273.279 884.218 274.428 885.741C274.427 888.199 274.705 889.642 273.287 891.61L273.858 890.914L272.563 891.119C271.88 889.978 271.945 887.007 271.875 885.513L272.046 883.186Z" fill="#161515" fill-opacity="0.929412"/>
<path d="M662.35 956.836C663.336 957.133 664.249 957.56 665.201 957.96C665.446 959.636 663.901 960.948 662.601 962.733C661.728 963.098 662.201 962.99 661.049 962.665C660.251 960.765 661.677 959.328 662.247 957.23L662.35 956.836Z" fill="black"/>
<path d="M580.435 866.584C581.747 866.573 582.904 866.607 584.21 866.664L584.615 867.189C582.294 868.375 580.76 868.227 578.194 868.289C576.42 868.118 575.279 867.93 573.528 867.582C574.886 866.847 578.621 866.744 580.435 866.584Z" fill="black"/>
<path d="M429.402 670.305L430.616 669.655C431.559 671.634 432.449 671.697 434.525 671.777C433.923 672.684 432.686 673.556 431.897 674.571C430.638 674.343 431.111 674.497 430.015 673.716C429.333 672.199 429.118 671.976 429.402 670.305Z" fill="#161515" fill-opacity="0.898039"/>
<path d="M563.466 867.36C563.963 867.497 563.783 867.531 564.206 868.232L563.853 868.671C560.845 869.59 559.214 869.63 556.09 869.869C555.292 869.247 555.545 869.658 555.39 868.597C557.125 867.662 560.858 868.215 563.466 867.36Z" fill="black"/>
<path d="M293.277 1053.08C295.95 1053.05 299.026 1052.62 300.807 1054.82C296.918 1055.28 294.78 1056.77 293.277 1053.08Z" fill="black"/>
<path d="M456.939 598.115L457.663 598.269L458.382 599.524C458.222 601.714 458.545 600.933 457.355 602.729L456.474 602.638L455.998 601.258L456.008 600.271C454.32 600.231 454.345 600.128 452.936 599.319C454.272 598.925 455.607 598.526 456.939 598.115Z" fill="#191818"/>
<path d="M395.691 476.586L398.254 477.199L398.593 477.982C395.092 479.036 395.255 477.613 392.137 479.789C391.947 479.889 392.085 479.852 391.644 479.805L392.956 478.504C392.152 477.626 392.095 477.686 391.025 477.169C393.126 477.267 393.734 477.322 395.691 476.586Z" fill="#191818"/>
<path d="M484.615 621.641L485.949 621.966L486.94 620.865L487.927 621.475C487.487 622.456 487.537 622.416 486.773 623.163L489.136 623.374L489.996 624.578C487.981 624.783 484.152 623.54 482.947 621.949L484.615 621.641Z" fill="#191818" fill-opacity="0.792157"/>
<path d="M532.886 569.21C533.776 569.8 534 570.213 534.66 571.054C533.842 572.428 533.745 572.086 531.845 572.839C530.066 572.411 530.691 572.885 529.702 571.704C530.697 570.061 530.951 570.318 532.886 569.21Z" fill="black"/>
<path d="M639.754 845.967C642.189 846.156 643.233 846.247 645.662 846.811C643.803 847.815 641.174 847.781 638.961 847.969L638.339 846.926L639.246 845.899L639.754 845.967Z" fill="black" fill-opacity="0.133333"/>
<path d="M395.384 505.423C395.36 507.727 395.361 509.446 395.064 511.76L394.326 511.967L393.708 511.311L394.082 505.616L395.384 505.423Z" fill="#191818" fill-opacity="0.34902"/>
<path d="M262.566 461.784C264.86 461.992 266.272 463.635 267.503 465.416L266.382 465.63C264.501 464.816 263.814 463.474 262.566 461.784Z" fill="black" fill-opacity="0.980392"/>
<path d="M515.752 1062.49C523.53 1059.48 535.629 1061.18 544.126 1060.58C546.741 1060.39 549.39 1060.96 552.181 1060.28L550.93 1059.1C546.679 1058.89 544.361 1061.55 538.909 1059.39C540.203 1058.56 542.991 1058.85 544.912 1058.71C539.304 1058.52 533.164 1058.07 527.691 1058C523.339 1057.95 518.896 1059.78 513.629 1059L514.033 1058.4C523.232 1056.27 545.098 1058 555.465 1057.35C557.836 1057.2 562.249 1055.56 564.061 1055.76C566.788 1056.06 568.684 1056.87 571.914 1056.78L570.631 1056.77L570.597 1057.01C568.014 1057.18 546.899 1058.48 545.898 1058.79C554.778 1059.01 563.662 1059.01 572.542 1058.77C578.65 1058.63 605.757 1057.51 609.441 1058.47C606.749 1058.68 605.016 1058.77 602.387 1059.41L602.164 1060.21L602.638 1061.03C598.343 1062.58 537.843 1061.36 528.443 1061.86C528.711 1061.85 515.354 1062.48 515.752 1062.49Z" fill="#191818" fill-opacity="0.980392"/>
<path d="M719.53 440.84C733.132 429.246 743.272 413.064 760 404.43C775.01 396.687 789.924 395.496 806.441 397.123C811.573 397.629 816.872 397.738 821.851 399.159C818.377 400.787 813.997 398.695 810.364 398.49C803.332 397.937 796.386 397.988 789.337 397.742C780.582 397.436 773.664 401.163 765.566 402.908C760.61 403.976 737.712 420.848 738.39 424.856C741.105 423.397 741.727 422.89 742.633 419.994L743.546 419.63L743.905 420.41C739.565 431.428 733.183 429.286 728.415 437.731C727.668 439.065 726.858 440.481 725.53 441.129L726.665 442.069C722.227 443.436 722.13 443.016 718.657 446.113C719.33 444.082 719.342 442.941 719.53 440.84Z" fill="black" fill-opacity="0.94902"/>
<path d="M708.967 450.823L711.169 451.76C711.426 453.246 711.522 452.557 710.907 453.903L711.819 453.388L713.154 454.885C708.694 456.291 705.283 458.533 703.156 462.86C702.705 463.786 702.312 464.739 701.981 465.715L701.536 466.054C699.797 467.394 699.666 467.435 698.633 469.289L698.628 470.765C700.036 470.028 700.487 469.449 701.593 468.346C701.548 469.621 701.12 469.668 700.088 470.919L698.747 471.441C697.692 470.481 697.937 470.029 697.823 468.119C696.209 468.566 694.784 470.479 693.409 471.855L693.438 472.584L694.692 473C690.501 475.165 689.183 476.895 687.33 481.232L686.856 481.405C684.632 481.839 683.303 481.084 680.52 481.179C691.139 469.943 697.071 462.248 708.967 450.823Z" fill="black" fill-opacity="0.964706"/>
<path d="M680.52 481.179C683.303 481.084 684.632 481.839 686.856 481.405C682.784 484.162 681.398 485.602 678.011 489.026C677.435 488.135 677.486 488.081 677.235 487.033C671.184 493.755 665.196 499.278 658.985 505.733C654.257 510.652 649.358 517.741 644.704 522.592C634.022 533.732 624.532 545.482 613.542 556.315C610.77 559.047 607.337 563.959 604.537 565.877L603.778 565.274C605.803 562.119 620.517 547.714 623.962 543.808C635.505 530.721 647.248 517.989 658.409 504.445C661.802 500.327 668.11 495.254 671.937 491.147C674.954 487.909 677.651 484.554 680.52 481.179Z" fill="black" fill-opacity="0.917647"/>
<path d="M622.616 1054.8C624.019 1052.25 626.112 1052.27 628.781 1051.38C628.918 1050.12 628.798 1049.67 629.653 1048.79C632.351 1049.08 630.115 1050.01 632.927 1051.04C634.324 1050.82 636.377 1050.7 637.313 1049.81L636.936 1048.16L637.627 1047.24C640.478 1047.5 638.99 1048.01 640.906 1049.14C643.472 1050.73 648.879 1044.25 650.037 1044.07C657.833 1042.87 659.418 1041.11 657.793 1032.93C656.755 1027.7 647.43 1032.83 644.322 1030.42C642.896 1029.31 641.237 1030.41 639.531 1029.39L639.697 1028.67C644.448 1030.36 656.726 1026.97 658.808 1032.56C658.831 1035.31 658.557 1038.08 659.812 1040.46C660.65 1041.23 661.198 1041.79 662.19 1042.37C654.451 1047.48 655.112 1048.03 646.147 1051.29L645.776 1050.29C641.22 1049.2 627.789 1052.64 623.237 1054.54L622.616 1054.8Z" fill="#191818" fill-opacity="0.972549"/>
<path d="M622.616 1054.8L623.237 1054.54C627.788 1052.64 641.219 1049.2 645.776 1050.29L646.147 1051.29C630.515 1056.69 619.239 1059.98 602.637 1061.03L602.164 1060.21L602.386 1059.41C605.016 1058.77 606.749 1058.68 609.441 1058.47L610.057 1058.64C615.173 1056.91 617.089 1059.93 622.616 1054.8Z" fill="#1E1D1D"/>
<path d="M240.647 1031.46C242.662 1034.14 242.143 1038.88 243.268 1042.01C244.19 1044.57 247.254 1047.24 248.394 1049.61C251.106 1055.25 266.408 1065.75 272.181 1064.81L272.564 1064.14C274.071 1064.06 289.795 1064.64 290.888 1064.93C288.952 1065.67 287.936 1065.81 286.837 1067.48C263.705 1067.94 241.719 1056.82 240.647 1031.46Z" fill="#161515" fill-opacity="0.968627"/>
<path d="M397.349 1071.2L396.78 1070.3L397.023 1069.61C402.177 1070.28 428.647 1068.89 433.984 1067.97C435.11 1066.96 434.754 1067.33 434.912 1065.3C440.63 1064.51 445.213 1066.17 450.573 1066.23C456.747 1066.29 463.881 1064.76 470.127 1064.44C473.787 1064.26 475.31 1062.76 478.529 1064.56C453.517 1067.16 428.66 1069.95 403.527 1070.85C401.522 1070.93 399.319 1070.97 397.349 1071.2Z" fill="#191818" fill-opacity="0.984314"/>
<path d="M290.888 1064.93C293.23 1064.92 295.36 1064.23 297.258 1064.2C302.32 1064.09 309.631 1064.76 314.447 1066.34C320.517 1068.34 319.177 1068.69 325.454 1068.65H326.116C325.727 1069.96 325.958 1069.47 324.945 1070.52C307.972 1066.96 304.025 1067.71 286.837 1067.48C287.936 1065.81 288.952 1065.67 290.888 1064.93Z" fill="#191818" fill-opacity="0.968627"/>
<path d="M667.089 955.165C667.277 953.893 667.306 951.943 668.081 951.293C668.486 953.397 668.635 956.694 669.644 958.393C670.077 961.832 669.941 964.581 669.866 968.049C668.161 974.544 670.363 983.652 667.385 990.781L667.117 989.988L666.918 989.378C665.868 985.489 666.313 985.135 666.633 981.28C667.363 972.668 667.163 963.805 667.089 955.165Z" fill="#2F2E2E" fill-opacity="0.964706"/>
<path d="M674.064 851.961C675.176 850.444 677.56 848.117 678.934 846.686C680.406 847.005 680.851 846.988 682.008 847.992C680.765 849.811 679.493 851.613 678.199 853.399C677.959 857.687 677.805 862.62 677.229 866.829C674.383 864.354 674.406 856.045 674.064 851.961Z" fill="#2C2C2C" fill-opacity="0.988235"/>
<path d="M225.806 957.863C228.671 960.754 228.62 964.49 231.275 967.683C231.313 965.682 230.622 963.378 231.211 962.516C233.512 967.643 233.319 972.4 236.091 978.422L235.705 979.398C234.619 979.62 233.836 979.66 232.896 980.179C231.041 976.666 227.541 962.853 225.806 957.863Z" fill="black" fill-opacity="0.988235"/>
<path d="M708.968 450.823C712.435 447.437 715.954 444.109 719.53 440.84C719.342 442.941 719.33 444.082 718.657 446.113C717.511 448.696 714.055 451.28 711.819 453.388L710.907 453.903C711.523 452.557 711.426 453.246 711.169 451.76L708.968 450.823Z" fill="black" fill-opacity="0.866667"/>
<path d="M839.719 409.081C843.568 412.113 847.001 417.939 848.33 422.527C847.646 422.358 847.23 422.014 846.659 421.624C845.057 423.19 847.823 423.923 846.716 426.158C845.895 424.18 845.433 422.367 844.555 420.414C843.779 418.689 840.238 413.915 840.084 412.5L839.719 409.081Z" fill="#1E1D1D" fill-opacity="0.984314"/>
<path d="M690.803 828.55L691.322 829.274L692.149 829.217L693.101 827.592L693.871 828.065C696.392 826.965 696.386 822.944 700.738 820.549C699.09 824.261 693.808 831.464 690.905 834.339L688.693 832.742C689.257 831.282 689.725 829.611 690.803 828.55Z" fill="#2C2C2C" fill-opacity="0.976471"/>
<path d="M852.859 461.089C854.929 457.382 853.817 454.201 854.895 449.794L855.06 453.236C854.946 456.097 854.741 474.848 854.205 476.36C853.343 471.314 852.893 466.207 852.859 461.089Z" fill="#2C2C2C" fill-opacity="0.882353"/>
<path d="M684.969 838.12L686.429 841C684.963 843.464 683.6 845.602 682.009 847.992C680.851 846.988 680.406 847.005 678.935 846.686L679.756 845.135C680.332 844.644 684.256 839.107 684.969 838.12Z" fill="#191818" fill-opacity="0.905882"/>
<path d="M685.043 836.928C686.058 836.061 687.774 833.854 688.693 832.742L690.905 834.339C689.434 836.717 687.826 838.781 686.428 841L684.969 838.12L685.043 836.928Z" fill="#1E1D1D" fill-opacity="0.976471"/>
</svg>
