<svg width="772" height="1025" viewBox="0 0 772 1025" fill="none" xmlns="http://www.w3.org/2000/svg">
<g clip-path="url(#clip0_2091_9567)">
<path d="M312.437 207.795C339.203 203.674 373.438 214.725 400.344 218.7C427.726 222.744 456.263 223.659 482.797 231.081C499.357 235.713 513.711 243.784 527.687 253.51C553.331 270.584 571.046 293.693 587.521 319.35C597.585 335.015 613.406 356.212 619.304 374.088C638.421 432.048 642.14 514.244 622.628 572.406C616.702 589.763 608.32 606.182 597.743 621.163C593.431 627.316 576.442 650.43 570.069 651.542C566.581 650.763 561.404 644.712 558.701 641.969C555.025 646.496 548.251 657.728 541.875 655.995C536.293 652.067 529.316 643.476 523.909 638.187C514.28 628.761 502.954 618.9 494.976 607.932C494.529 607.323 495.363 605.878 495.663 605.099C492.598 602.118 485.998 597.778 482.082 594.786C471.111 586.41 459.745 578.152 448.194 570.611C431.885 559.959 401.184 542.286 388.345 528.548C387.632 541.304 382.742 559.508 377.818 571.288C365.687 601.864 372.553 622.851 368.051 654.076C365.645 668.402 361.381 678.822 358.682 693.515C356.315 706.396 356.874 729.166 352.165 741.454C351.005 744.479 329.532 742.549 324.528 742.436C280.868 741.442 238.522 726.705 204.729 698.781C183.14 681.379 168.659 657.474 145.953 641.077C104.805 611.364 91.8935 563.318 86.9791 515.057C82.4547 463.426 92.555 408.693 124.347 366.735C141.571 344.005 161.508 326.001 173.659 300.121C179.666 287.326 186.668 273.352 195.62 262.552C224.551 227.644 268.499 212.188 312.437 207.795ZM346.508 715.511C346.726 705.436 348.387 697.11 348.668 688.006C334.134 672.76 338.527 651.22 353.066 637.673C355.421 635.511 357.905 633.496 360.505 631.639C360.223 623.562 359.767 614.931 359.914 606.894C360.46 600.019 361.049 593.104 362.634 586.376C365.666 573.495 371.248 561.303 374.714 548.529C375.879 544.234 380.231 519.133 382.158 517.304C383.458 516.068 385.177 515.864 386.878 516.034C390.156 516.355 408.138 532.6 412.277 535.564C429.007 547.541 447.042 557.56 464.107 569.008C476.632 577.407 488.164 587.093 500.232 596.101C512.274 591.981 518.968 592.133 530.67 597.512C544.206 603.738 550.303 613.204 560.323 623.618C575.578 606.171 566.784 586.466 572.485 566.801C576.329 553.542 582.803 544.984 589.508 533.554C596.535 521.565 598.606 501.702 597.596 487.973C596.851 477.844 594.543 465.528 590.496 456.144C586.72 447.394 583.463 441.096 580.81 431.761C575.46 412.937 577.706 396.928 568.15 379.233C558.556 361.461 543.883 352.286 531.402 337.282C521.281 325.116 516.149 308.73 504.408 297.816C499.038 292.824 491.906 289.755 484.748 288.469C472.248 286.224 459.837 287.821 447.299 288.061C439.961 288.202 429.976 287.762 422.729 286.966C414.585 286.07 403.442 283.46 395.418 281.314C383.713 278.185 376.875 274.42 364.156 275.296C363.565 275.34 362.976 275.411 362.39 275.509C353.07 276.597 347.667 278.777 338.754 281.24C330.166 283.614 320.887 285.344 312.146 286.976C297.335 289.742 282.046 288.853 267.508 290.331C239.097 293.488 213.12 307.852 195.34 330.237C182.206 346.844 176.706 363.975 167.402 382.38C153.988 408.915 132.501 422.465 129.038 453.936C126.048 481.12 134.967 495.81 141.552 520.922C147.394 543.195 142.44 572.039 163.704 588.543C172.11 595.159 181.655 600.126 188.523 608.519C202.74 625.176 193.809 639.084 210.765 655.979C229.869 675.018 245.714 668.222 268.154 679.443C286.604 688.66 297.448 703.63 315.455 711.769C324.909 716.042 336.279 715.748 346.508 715.511ZM356.768 647.715C351.209 656.786 346.334 665.8 351.825 676.372L352.652 676.592C353.104 675.407 356.87 648.838 356.768 647.715ZM343.836 733.038L344.687 725.711C333.689 725.35 321.514 725.192 311.152 721.004C294.768 714.377 280.824 696.947 265.514 689.434C241.635 677.716 223.529 684.167 202.508 662.007C187.107 645.773 192.396 635.478 183.312 618.787C176.66 606.572 157.55 599.973 148.164 586.348C133.314 564.797 136.612 543.681 131.027 520.211C125.97 498.959 116.915 485.134 118.403 461.934C118.815 451.074 120.848 440.151 125.135 430.091C132.141 413.648 144.848 400.982 154.233 385.81C165.697 367.278 171.478 344.507 184.933 327.463C206.706 301.126 232.934 283.507 267.755 280.177C285.524 278.477 302.766 279.125 320.838 275.496C335.887 272.637 349.337 266.071 364.809 265.127C379.255 263.971 392.089 270.392 405.618 273.877C421.824 278.052 440.108 278.241 456.759 277.646C475.774 276.968 493.869 275.962 509.559 289.051C522.183 299.581 527.455 315.076 537.144 327.936C548.186 342.652 562.658 352.008 572.959 367.828C581.64 380.512 585.433 394.292 586.895 409.435C587.453 415.249 588.39 423.778 590.276 429.204C596.783 447.704 606.237 463.496 607.457 483.648C608.631 502.984 607.197 524.839 596.439 541.485C585.337 558.661 579.145 570.78 580.895 591.924C582.103 606.572 573.958 620.949 566.248 633.192L570.73 638.847C616.826 588.876 627.793 531.974 624.846 465.959C623.492 435.558 618.931 390.076 603.872 364.115C588.278 337.23 562.889 297.01 540.547 276.485C531.401 268.137 521.392 260.788 510.688 254.563C472.959 232.113 438.611 234.639 396.73 228.346C372.781 224.747 344.424 215.175 320.348 217.394C276.793 220.557 233.195 233.283 203.818 267.953C189.217 285.186 182.957 307.733 169.908 326.056C159.824 340.442 147.631 352.704 136.814 366.329C102.628 408.553 92.4252 461.943 97.0297 515.085C100.136 544.939 107.274 577.695 123.255 603.434C135.691 623.46 158.248 635.342 173.012 651.548C194.111 674.701 204.739 689.027 231.775 705.543C269.687 728.703 300.702 731.897 343.836 733.038ZM551.717 635.178C549.843 631.707 547.557 628.608 545.029 625.588C537.495 616.602 531.192 607.503 518.7 606.267C514.028 606.724 512.695 607.08 508.23 608.299C510.045 610.055 511.703 612.42 513.382 613.921C523.966 623.398 533.52 634.14 543.649 643.973C544.516 643.843 550.85 636.46 551.717 635.178Z" fill="black"/>
<path d="M481.682 423.783C488.209 423.728 492.595 426.832 498.062 430.102C505.825 424.902 517.868 426.615 518.569 437.72C519.097 446.07 511.087 456.767 505.667 462.922C496.655 473.26 488.953 470.64 482.601 459.863C477.682 451.517 472.129 440.417 474.262 430.516C475.025 426.972 478.807 425.364 481.682 423.783ZM504.612 450.147C506.238 447.342 509.856 440.808 508.408 437.646C504.479 436.757 498.63 443.401 495.845 442.267C489.372 439.632 492.209 434.9 482.832 433.083C483.068 439.225 488.73 457.64 495.097 459.079C498.671 458.334 502.021 453.021 504.612 450.147Z" fill="black"/>
<path d="M267.331 468.904C274.953 468.326 278.047 470.914 283.797 475.326C291.282 468.387 302.912 464.912 305.109 478.524C306.378 486.386 299.68 498.49 295.03 504.575C288.041 513.855 283.136 516.31 274.41 506.59C266.454 497.725 250.385 476.926 267.331 468.904ZM293.251 489.129C294.405 486.514 296.488 482.599 295.553 479.79C290.573 479.866 285.776 492.913 279.554 486.48C275.675 482.47 275.276 479.281 269.178 478.184C269.924 484.01 278.617 501.544 284.787 501.888C287.65 500.511 291.979 492.185 293.251 489.129Z" fill="black"/>
<path d="M269.194 607.306C276.025 606.55 282.081 608.311 282.561 616.315C283.155 626.21 275.688 639.35 269.907 647.145C264.566 654.342 260.139 651.108 254.982 646.287C249.309 640.281 228.282 618.589 245.822 610.094C249.073 608.52 256.115 612.64 259.534 614.401C262.939 610.117 264.117 609.632 269.194 607.306ZM247.678 619.312C249.861 624.996 251.129 626.864 254.755 631.736C257.322 635.151 260.241 637.781 262.734 641.043C266.458 635.969 273.751 623.404 273.073 617.218L271.788 616.422C267.564 618.426 262.514 628.072 259.043 626.497C255.368 624.821 252.525 621.378 247.678 619.312Z" fill="black"/>
<path d="M383.019 407.409C389.764 407.691 392.264 410.395 397.341 414.465C405.35 410.568 419.929 405.243 420.35 421.409C420.518 427.854 412.725 435.141 408.031 439.103C405.19 441.458 400.328 445.676 396.999 446.765C386.196 450.297 379.252 434.292 376.781 426.681C374.322 419.105 374.171 410.213 383.019 407.409ZM393.775 437.817C399.525 434.743 403.465 431.198 407.983 426.561C409.871 424.574 410.278 424.214 411.463 421.689L411.351 420.584C406.77 419.097 399.313 425.246 394.891 425.886C393.834 426.039 389.616 420.046 386.057 418.239L385.654 418.029C385.401 417.914 385.149 417.799 384.897 417.685C386.019 426.694 388.099 430.83 393.775 437.817Z" fill="black"/>
<path d="M520.869 526.042C528.025 526.375 530.381 528.875 535.702 533.374C543.004 530.1 553.52 530.015 554.052 541.067C554.44 549.122 545.944 557.572 540.484 563.03C533.82 569.245 528.145 573.981 521.689 563.431C515.911 553.999 503.003 530.117 520.869 526.042ZM530.498 559.147C534.451 556.319 538.003 552.966 541.056 549.184C542.595 546.892 546.045 542.586 542.915 540.683C538.753 541.474 536.844 547.254 532.822 546.238C528.855 541.903 527.202 537.24 521.685 535.609C520.861 542.806 526.761 553.062 530.498 559.147Z" fill="black"/>
<path d="M242.983 356.059C261.315 356.554 252.631 381.047 248.166 390.713C242.797 402.335 237.985 399.337 229.175 394.186C221.949 388.136 213.027 381.2 213.624 370.716C213.904 365.801 217.741 364.095 222.03 363.473C225.45 362.978 228.396 363.695 231.761 364.344C235.105 359.543 237.671 358.045 242.983 356.059ZM229.534 382.122C231.761 384.017 236.084 388.155 238.77 388.308C241.733 384.865 244.796 371.479 244.662 366.793L244.085 366.076C240.705 368.31 239.243 370.547 236.581 373.454C233.495 376.826 227.623 372.533 223.442 373.309C222.804 375.539 227.883 380.305 229.534 382.122Z" fill="black"/>
<path d="M377.844 314.864C383.943 314.792 386.447 317.413 391.021 321.006C399.294 316.655 406.245 313.893 412.797 322.72C413.184 333.289 410.213 337.482 402.39 344.398C397.963 348.244 393.424 353.993 387.195 351.181C377.462 346.786 361.294 320.127 377.844 314.864ZM390 342.06C395.317 338.338 397.059 337.07 401.373 332.005C402.541 330.418 403.561 329.46 403.626 327.559L402.748 326.907C398.446 327.577 390.639 334.941 387.649 332.413C384.139 329.444 386.501 327.674 380.593 325.235C382.064 332.181 385.137 336.963 390 342.06Z" fill="black"/>
<path d="M228.093 537.291C234.558 536.822 241.013 539.046 240.097 546.808C238.765 556.031 230.407 564.469 223.896 570.706C220.23 574.223 215.706 576.34 212.021 571.847C209.336 567.969 207.206 563.617 204.827 560.038C196.725 547.863 200.46 529.727 217.444 542.585C221.185 540.124 223.94 538.871 228.093 537.291ZM210.674 550.73C211.672 552.768 213.404 556.556 214.521 558.345C215.434 559.858 216.713 561.839 217.533 563.34C221.084 559.875 229.353 552.65 229.957 547.908C229.296 547.197 229.664 547.316 228.911 547.174L228.29 547.547C221.218 551.848 219.05 558.277 210.674 550.73Z" fill="black"/>
<path d="M433.732 492.673C441.556 492.179 444.272 495.119 449.257 500.641C454.941 496.049 466.431 489.933 468.828 502.244C470.052 508.527 464.722 514.769 461.022 519.466C457.766 522.412 451.209 529.383 446.32 527.825C436.421 524.664 420.678 500.178 433.732 492.673ZM447.766 517.981C453.302 514.685 454.26 513.488 458.117 508.278L459.309 506.416L459.042 505.591C456.049 506.946 451.576 512.585 447.765 511.247C444.246 510.011 441.672 504.621 438.064 502.509C439.929 508.402 443.138 513.832 447.766 517.981Z" fill="black"/>
<path d="M318.082 400.77C324.361 401.62 324.163 401.596 329.269 405.833C335.973 397.06 361.364 400.882 337.924 428.4C334.952 432.69 329.692 438.953 324.359 435.389C317.465 430.782 309.043 411.836 312.479 403.781C313.238 402.003 316.407 401.198 318.082 400.77ZM324.238 419.112C325.097 421.282 325.506 422.918 327.2 424.484C331.548 425.12 336.539 415.643 337.658 412.144C337.454 411.816 337.18 411.301 336.922 411.067C332.406 417.977 329.208 421.294 322.825 413.224L322.771 414.129L323.169 414.343C322.836 415.601 323.896 417.736 324.238 419.112Z" fill="black"/>
<path d="M336.922 411.067C337.181 411.301 337.454 411.816 337.659 412.144C336.539 415.643 331.548 425.12 327.2 424.485C325.507 422.918 325.097 421.282 324.238 419.112C323.896 417.736 322.836 415.601 323.169 414.343L322.771 414.13L322.826 413.224C329.209 421.294 332.406 417.977 336.922 411.067Z" fill="#E9E5DC" fill-opacity="0.0156863"/>
<path d="M310.636 553.085L311.122 553.051C317.121 552.718 318.618 554.439 322.92 558.272C328.125 554.112 339.747 549.534 342.735 559.181C344.822 565.92 338.039 574.681 334.42 580.331C328.018 590.017 322.919 590.784 315.723 581.183C310.143 573.738 299.904 560.332 310.636 553.085ZM323.791 575.262L324.624 576.391C327.593 574.974 332.225 567.743 332.476 564.419C332.132 564.283 331.383 563.939 331.059 563.888C327.752 568.223 327.113 569.42 321.506 570.193C321.143 570.238 320.779 570.284 320.414 570.323C321.366 572.18 322.534 573.608 323.791 575.262Z" fill="black"/>
<path d="M548.323 445.163C555.363 445.1 556.935 448.211 561.189 453.074C566.592 450.983 577.192 448.328 576.588 457.818C576.103 465.506 570.764 469.843 565.424 474.561C552.606 486.406 545.208 483.101 542.859 465.289C541.938 458.311 541.245 449.083 548.323 445.163ZM554.31 471.672C557.161 469.516 559.945 467.272 562.657 464.944L564.719 463.05L564.65 462.635C553.77 466.797 557.478 462.339 551.674 456.801C551.863 462.799 552.463 465.943 554.31 471.672Z" fill="black"/>
<path d="M462.195 333.233C468.13 333.826 469.835 337.663 472.934 342.112C479.383 339.796 490.928 338.763 489.862 349.269C489.213 355.67 483.754 359.486 479.099 363.204C469.228 369.444 459.207 376.288 456.699 358.809C455.486 350.36 454.116 338.365 462.195 333.233ZM467.09 359.343C470.81 357.433 473.675 355.957 476.762 353.084L478.857 351.223C473.648 351.207 470.593 355.228 465.218 349.034L467.09 359.343Z" fill="black"/>
<path d="M298.337 302.25C303.642 302.597 305.228 305.563 308.221 309.356C313.476 306.203 324.762 300.528 325.752 311.812C326.306 318.129 321.572 323.425 317.653 327.932C309.232 338.352 302.177 338.744 296.885 325.375C294.722 319.909 292.598 313.834 293.33 307.875C293.696 304.9 296.043 303.7 298.337 302.25Z" fill="black"/>
<path d="M177.69 459.261C183.696 459.129 184.71 460.5 187.362 465.678C191.177 464.092 197.009 461.939 200.416 465.019C207.092 471.053 198.503 481.433 194.864 485.625C178.493 504.141 175.1 481.752 173.844 468.506C173.467 464.539 174.985 461.959 177.69 459.261Z" fill="black"/>
<path d="M416.523 583.966C416.815 583.977 417.106 583.994 417.398 584.022C421.095 584.344 423.059 586.472 425.388 589.131C429.475 593.799 433.478 598.038 437.988 602.327C443.277 607.441 448.851 612.245 454.684 616.727C463.418 623.365 472.182 627.976 477.235 637.527C478.124 639.203 484.115 643.527 486.168 644.944C489.396 647.196 492.803 649.171 496.355 650.865C499.971 652.541 509.756 655.07 511.471 657.102C511.776 659.981 511.926 658.801 510.533 661.68C512.419 662.6 512.118 662.097 512.89 663.633L512.438 664.824C507.858 669.131 506.847 665.411 503.55 667.115C496.628 670.694 486.82 686.741 479.589 673.652C473.658 662.91 470.514 651.034 466.546 639.429C465.543 636.494 452.125 627.959 449.113 625.092C439.096 617.427 430.768 609.378 421.822 600.448C418.692 625.865 413.828 650.566 410.699 676.254C412.252 679.697 413.803 683.174 415.189 686.691C422.528 705.306 416.79 728.093 401.063 740.652C400.72 749.847 399.633 759.127 399.21 768.446C403.5 767.148 409.691 765.567 413.67 763.744C435.363 753.815 458.491 760.899 481.103 754.916C496.554 750.829 502.855 740.235 510.599 727.41C520.084 712.401 524.705 709.297 539.908 700.627C543.068 698.821 547.645 693.075 550.05 690.004C548.03 688.655 546.098 687.447 545.589 684.992C547.084 683.626 547.352 684.574 550.094 684.111C550.39 682.35 550.085 681.227 549.805 679.471L550.525 679.025C551.936 679.996 552.897 680.837 554.552 681.249L554.824 680.092L555.422 679.754C563.738 686.888 573.083 693.199 581.391 700.3C582.96 701.637 584.653 705.865 584.574 708.241C582.994 710.471 576.402 715.879 574.195 717.645C561.845 727.512 552.289 739.253 543.733 752.376C524.929 780.091 492.462 794.179 459.949 797.098C448.185 798.153 436.209 799.773 424.805 800.981C418.377 801.664 390.715 806.061 386.462 804.04C385.303 802.415 384.514 800.326 384.803 798.339C387.334 780.937 390.627 763.428 390.986 745.766C391.193 735.584 388.363 725.232 388.931 714.812C389.489 704.584 390.629 694.017 394.553 684.433C396.63 679.697 400.524 674.662 401.453 669.526C406.372 642.33 408.377 614.554 414.116 587.494C414.402 586.145 415.546 584.903 416.523 583.966ZM408.501 792.791C453.32 786.514 503.309 790.319 533.457 749.78C540.678 740.071 545.193 732.615 553.537 723.657C559.795 716.934 566.964 711.939 572.592 706.125C567.721 702.106 563.316 698.115 557.604 695.332C550.06 709.686 538.064 711.419 527.08 720.925C524.594 723.075 520.627 729.437 518.867 732.451C509.738 748.075 502.322 758.766 484.001 764.405C467.97 769.338 450.188 766.442 433.762 768.644C421.592 770.269 409.961 776.343 398.278 779.396C397.469 784.07 396.636 789.568 395.577 794.123C399.876 793.598 404.185 793.152 408.501 792.791ZM401.216 726.581C407.099 718.272 408.988 706.159 407.436 696.123C407.226 694.768 406.604 691.342 405.735 690.585C404.106 697.24 400.487 720.146 400.536 726.767L401.005 726.976L401.216 726.581ZM487.568 667.065C489.1 666.026 491.183 664.705 492.554 663.537L494.58 660.918C488.784 658.801 486.276 656.588 481.137 653.264L487.568 667.065Z" fill="black"/>
<path d="M458.251 687.842C480.586 689.603 463.923 732.484 448.846 733.021C444.046 733.196 441.744 731.553 438.148 728.578C433.007 721.382 429.846 713.592 428.805 704.99C427.866 697.229 430.312 687.159 440.169 692.126C443.492 693.802 445.173 695.643 447.794 698.115C450.698 692.267 452.45 690.912 458.251 687.842ZM441.108 714.591C442.513 717.284 444.29 721.585 447.283 722.494C455.707 725.056 459.257 704.431 459.923 698.826L459.328 697.929C455.363 701.688 453.575 709.41 448.406 709.624C445.36 709.754 440.315 703.048 436.974 701.016C437.958 705.667 439.028 710.268 441.108 714.591Z" fill="black"/>
</g>
<defs>
<clipPath id="clip0_2091_9567">
<rect width="771.583" height="1024.1" fill="white"/>
</clipPath>
</defs>
</svg>
