<svg width="880" height="1168" viewBox="0 0 880 1168" fill="none" xmlns="http://www.w3.org/2000/svg">
<path d="M382.714 174.299C395.235 169.175 411.148 167.851 424.529 167.778C429.382 167.696 432.874 167.7 437.721 168.778C439.669 169.212 443.146 170.307 444.894 170.503C455.522 175.364 465.309 181.233 469.677 192.799C473.186 202.092 471.77 218.221 468.745 227.697C468.51 228.587 468.328 229.441 467.981 230.29C468.155 230.479 468.304 230.694 468.502 230.857C471.564 233.373 499.651 229.842 504.832 229.54C509.393 229.273 513.98 229.304 518.548 229.296L524.185 229.389C552.03 230.066 586.03 233.941 612.042 244.649C628.039 252.142 642.508 262.056 657.086 271.962C667.962 279.355 680.936 286.863 690.079 296.52C698.04 304.928 704.622 316.669 710.564 326.539C712.372 329.538 713.205 332.937 712.578 336.442C710.547 340.955 704.895 343.274 700.196 343.618C708.893 347.427 717.556 347.722 726.864 348.82C728.039 348.959 731.735 349.18 732.658 349.471C737.506 349.624 743.477 350.452 748.456 350.173C766.427 349.159 784.78 347.485 802.009 342.018C807.758 340.193 816.643 334.486 822.033 336.856C823.424 338.306 823.493 340.211 823.898 342.287C827.907 368.932 775.01 390.47 753.886 393.813C740.107 395.526 705.654 401.034 692.28 396.561L691.955 395.445C688.807 393.545 676.191 391.648 672.541 393.305C655.021 391.285 635.619 397.391 617.876 397.136C609.915 397.021 601.588 396.893 593.655 396.727C582.431 396.492 585.294 403.938 580.983 408.961C569.074 436.046 552.174 463.298 538.345 489.577C535.465 495.049 530.958 500.305 527.745 505.739C526.686 508.128 521.285 516.443 519.562 518.39C525.484 518.516 544.634 517.143 548.044 518.521C548.143 522.125 548.291 525.357 547.99 528.982C547.711 532.346 545.428 534.658 546.214 536.986C548.919 538.235 570.302 534.701 575.764 534.396C583.252 533.978 600.687 530.13 602.809 541.877C600.271 555.848 539.919 605.484 527.479 617.243C519.26 625.011 508.132 634.461 498.907 641.311C486.87 649.398 476.9 659.127 465.049 667.442C464.68 667.699 464.307 667.95 463.931 668.195C455.615 677.36 442.722 682.653 434.461 690.169C431.673 692.701 423.085 710.067 420.705 714.647C416.55 725.899 412.158 737.066 407.532 748.136C406.481 751.746 403.475 762.422 401.836 765.542C399.063 773.218 396.614 780.073 393.246 787.539C390.948 795.409 386.329 804.985 383.817 813.864C376.446 839.928 370.841 867.211 373.666 894.461C373.806 895.807 374.476 897.752 375.605 898.533C385.69 882.815 396.818 868.586 410.169 855.486C421.606 844.262 437.764 837.31 445.325 824.381C452.203 812.621 453.85 794.73 457.859 782.811C465.544 759.12 476.916 745.695 493.888 728.722C511.869 710.74 521.201 706.189 543.444 695.148C543.372 692.656 542.675 688.002 544.42 686.012C548.281 681.603 597.339 679.413 606.259 678.9C617.369 678.255 628.769 677.554 639.885 677.605C649.512 677.651 659.145 678.335 668.766 678.637C674.862 678.831 681.478 678.022 687.455 678.917C691.134 679.47 696.934 681.267 699.591 683.981C700.607 685.019 701.137 686.063 700.932 687.534C700.629 689.736 698.759 692.125 697.219 693.677C694.105 696.825 689.845 699.123 686.314 701.809C681.495 705.476 676.95 709.531 672.211 713.307C668.823 715.08 666.798 717.39 663.85 719.706C634.763 742.535 612.407 772.488 589.589 801.312C579.608 813.916 569.719 831.27 560.25 844.832C550.257 859.141 546.982 871.272 530.337 881.503C524.875 885.461 517.568 888.53 511.34 891.604C493.713 900.307 475.096 907.675 455.262 910.903C435.098 914.188 407.291 916.84 390.316 929.826C387.124 932.273 385.167 952.701 382.521 958.855C380.908 960.104 379.44 961.307 377.7 962.379C378.592 969.811 380.22 977.247 381.43 984.65L391.327 1042.43C393.159 1053.02 395.549 1063.14 395.838 1074C395.914 1076.88 393.804 1078.56 391.978 1080.43C372.859 1085.64 375.617 1081.12 366.465 1067.06C357.457 1053.22 344.075 1041.55 331.364 1031.2C325.801 1026.67 322.109 1021.65 315.828 1017.41C316.738 1013.31 311.58 1012.24 308.885 1009.59C308.534 1007.63 308.364 1008.52 309.381 1006.84C311.753 1006.04 313.46 1006.89 316.02 1006.88L315.752 1006.06C316.526 1002.44 310.894 991.42 309.074 987.627C307.054 981.314 305.334 974.904 303.923 968.425C303.003 964.216 301.63 956.357 300.211 952.621C298.19 937.457 293.753 931.229 281.819 921.762C273.939 914.696 271.478 913.988 263.416 908.32C254.236 904.938 243.961 901.128 234.463 898.841C225.948 898.333 209.867 894.37 199.878 893.058C189.01 893.514 169.442 890.537 158.113 889.722C154.8 889.482 150.196 887.845 146.232 887.463L144.398 889.362C147.708 890.948 150.872 897.518 153.212 900.734C160.12 910.224 168.472 918.414 176.948 926.501C182.848 932.13 189.587 938.711 196.381 943.205C202.614 947.329 209.402 950.557 215.517 954.897C215.543 960.264 222.69 959.745 223.131 965.733L221.957 966.486L224.046 967.341C222.107 967.666 219.545 967.415 218.545 968.008C210.196 962.351 191.215 951.39 184.315 945.527C172.931 935.849 148.282 909.945 141.115 897.518C138.231 893.862 133.557 887.999 130.146 885.022C125.457 880.933 102.34 867.228 113.093 859.404C120.63 858.246 126.67 869.487 131.691 871.278C151.958 878.521 180.462 879.365 201.594 881.275C220.281 882.969 232.436 886.705 249.132 891.284C249.225 891.415 250.186 892.75 250.186 892.75C268.732 899.497 286.35 910.892 297.704 927.317C306.599 940.183 308.786 957.098 312.103 972.029C313.934 980.264 318.52 987.199 320.969 995.104C325.226 1008.85 333.531 1018.56 343.657 1028.37C345.728 1030.37 352.963 1038.27 355.207 1038.94L356.435 1038.41L358.314 1039.75C361.832 1043.23 363.778 1046.59 367.833 1049.14L368.993 1049.26L368.873 1048.06C367.088 1047.14 366.66 1047.07 365.441 1045.56C366.72 1045.98 367.401 1046.31 368.752 1046.19C367.671 1033.37 364.335 1019.42 362.2 1006.69C359.573 995.361 358.948 979.232 355.106 968.402C349.772 953.368 344.227 939.858 341.286 923.826C338.507 908.673 336.647 893.389 333.637 878.27C332.515 871.871 332.865 864.097 329.909 858.166C320.385 839.061 304.658 827.495 286.209 817.988C276.199 812.832 266.091 805.697 255.71 800.907C237.114 792.324 218.077 785.046 202.828 770.908C178.215 749.402 167.152 715.89 145.328 692.781C133.658 684.192 114.656 678.923 100.912 675.581C85.0475 671.725 87.3191 675.877 76.4037 663.633C81.2206 658.528 90.2436 655.112 93.049 652.215C103.859 641.06 116.158 621.258 123.659 607.537C122.706 605.78 118.627 600.567 119.179 599.353C122.05 593.045 141.511 580.025 147.87 582.266L151.119 591.009C156.219 591.956 164.635 593.473 169.421 595.332C200.055 607.229 229.97 626.933 251.326 652.089C257.619 659.504 266.162 677.497 269.299 686.787C271.096 692.108 272.261 703.566 273.064 709.315C274.723 721.2 278.12 735.646 283.836 746.066C289.966 757.249 301.339 766.163 311.527 773.515C314.226 775.465 319.394 778.796 321.247 781.248C322.604 782.457 326.948 786.375 327.85 787.579C333.615 795.278 347.139 814.429 350.007 822.676C350.848 823.896 354.131 830.586 355.425 832.822C363.642 804.175 374.748 774.393 385.791 746.704C389.868 736.484 393.388 724.964 397.75 714.493C400.555 707.758 413.125 685.538 413.268 681.854C413.527 675.221 402.684 656.532 399.893 646.078C395.149 631.307 394.3 615.766 391.968 600.619C388.487 577.989 385.633 556.155 386.394 533.182C386.533 528.992 387.747 522.153 387.523 518.392C386.399 499.544 390.889 484.144 395.478 466.409L394.834 465.879C386.83 464.723 374.792 469.085 369.239 475.125C366.486 478.121 363.402 484.27 359.992 485.245L359.047 484.677C357.704 481.762 357.512 477.242 358.064 474.066L358.709 474.393C360.718 473.193 362.465 467.166 365.102 463.996C367.086 461.611 367.822 460.61 370.252 458.201L370.031 456.938C372.978 452.433 383.162 448.912 388.118 447.61C401.082 444.201 411.476 446.996 424.042 449.768C430.413 446.135 438.539 438.142 444.388 433.168C451.906 426.108 461.192 419.677 468.486 412.55C477.599 403.645 485.852 395.041 496.262 387.496C498.967 385.535 501.579 382.51 504.337 380.288C494.802 372.788 483.143 370.759 472.985 361.723C465.975 355.486 458.49 352.533 451.542 344.23C444.407 335.704 438.811 327.477 433.968 317.233C426.34 297.603 415.363 290.308 399.655 277.925C385.434 266.714 374.149 270.916 358.488 263.746C348.96 259.384 346.443 250.818 338.684 244.765C330.414 239.85 302.765 230.441 296.601 223.545C295.758 214.223 296.532 214.34 305.389 211.099L304.978 211.06C310.091 209.348 313.664 208.848 318.951 207.974L319.351 207.039C321.354 206.065 337.013 203.849 341.598 202.585C353.036 185.267 363.361 180.916 382.714 174.299ZM465.111 324.865C468.312 328.272 470.614 329.303 473.427 331.999C480.202 338.487 485.718 343.858 493.646 348.988C500.515 353.432 506.512 355.429 513.896 358.45C518.361 360.276 522.49 362.891 527.344 364.703C551.674 373.784 576.101 377.913 601.765 380.253C614.705 380.653 624.241 379.733 637.233 378.499C649.061 376.871 671.572 373.955 682.642 375.594C699.352 378.069 710.108 379.57 727.143 379.563C755.791 379.551 768.195 376.574 791.937 361.56C783.77 360.918 774.178 364.48 766.535 364.99C753.863 365.836 739 367.433 726.425 366.92C713.228 366.381 696.939 364.788 684.375 360.512C680.651 359.414 672.65 353.043 669.142 352.913C659.07 352.542 648.348 354.97 638.043 354.341C607.172 352.457 576.682 345.989 548.955 331.95C541.465 328.157 532.91 325.333 527.04 318.984C517.685 308.906 518.501 299.026 508.764 288.821C506.496 286.222 500.853 280.225 502.824 276.536C513.647 280.452 514.538 281.586 525.779 282.309C530.762 286.768 534.285 294.399 537.653 300.442C539.77 303.249 541.359 304.287 544.439 305.824C573.779 320.672 601.463 331.639 634.495 335.008C656.196 337.221 659.298 337.534 680.303 330.777C669.028 304.968 618.076 271.025 592.172 259.603C562.737 246.621 520.371 245.643 488.561 247.704C473.579 248.675 457.213 250.946 442.227 247.802C440.956 246.306 439.649 244.53 438.437 242.962C440.741 240.25 443.063 237.554 445.405 234.874C445.386 221.908 451.265 206.722 443.484 196.187C437.791 188.48 428.889 185.565 419.868 184.198C412.33 178.104 373.63 188.973 372.071 197.648C370.124 199.698 367.908 200.787 366.541 202.674C365.07 204.705 362.713 211.734 361.081 213.346C354.904 219.449 346.054 216.816 339.318 220.479C347.524 225.661 354.565 226.741 360.988 231.091C366.203 234.624 366.673 244.237 375.64 248.349C384.451 252.389 401.997 250.177 409.018 256.314C420.175 261.168 444.259 285.81 449.967 296.764C455.622 307.615 456.695 314.055 465.111 324.865ZM431.752 498.529C427.604 489.287 425.193 479.595 414.114 477.845C407.721 501.966 406.613 545.373 409.749 570.449C410.646 577.618 413.175 585.659 413.894 592.104C417.052 620.403 418.269 639.189 432.497 664.733C453.291 644.892 477.301 629.248 499.504 611.073C507.197 604.776 513.847 597.345 521.638 590.975C531.1 583.903 557.763 563.339 562.025 553.046C549.333 555.263 523.769 561.625 512.39 559.525C512.443 556.04 512.656 555.044 513.253 551.82C514.027 547.642 521.804 540.131 519.76 537.075C516.057 535.662 506.081 536.767 501.798 537.051C499.035 539.134 497.47 540.815 495.044 543.306C488.422 544.086 475.763 546.743 470.604 543.634C468.301 540.039 472.081 536.16 473.701 532.4C472.61 525.411 471.345 518.098 471.105 511.032C468.941 511.249 464.084 511.702 462.215 512.327C448.449 516.934 446.422 522.498 431.383 519.714C429.609 509.832 429.696 508.232 431.752 498.529ZM524.555 727.319C508.545 742.307 501.453 750.229 490.089 768.998C478.615 787.949 475.917 798.882 470.806 820.554C467.697 830.375 467.234 831.476 462.017 840.344C450.343 860.179 409.038 885.53 402.913 905.063C409.799 903.192 423.488 895.282 429.09 894.7C457.557 891.741 484.773 887.452 510.305 872.304C517.139 868.204 523.154 862.866 528.044 856.569C531.924 851.573 535.43 844.291 538.808 838.724C545.531 827.643 552.459 816.568 559.464 805.658C562.722 800.587 567.378 795.312 571.042 790.339C586.292 769.386 602.518 749.162 619.679 729.743C624.121 724.662 631.404 717.202 636.862 713.067C644.157 707.547 651.428 702.87 658.472 696.716L658.266 695.867C650.698 693.853 598.297 695.775 587.33 695.593C583.486 695.53 577.076 697.925 573.306 699.539C572.439 698.884 572.12 698.285 571.048 698.484C567.958 699.049 563.632 700.96 562.022 703.777L562.35 705.374C545.851 711.852 538.298 716.94 524.555 727.319ZM143.5 610.947C136.646 622.382 130.437 634.872 122.25 645.93C120.247 648.639 114.61 653.276 114.836 655.682C125.067 662.783 151.549 666.541 161.286 675.09C175.783 687.808 185.665 708.271 195.273 724.753C202.16 736.519 214.138 751.244 224.76 759.508C239.793 771.199 261.425 777.764 278.239 787.185C283.22 789.98 289.206 794.417 293.893 797.776C297.949 800.519 308.125 808.087 312.905 807.608L313.579 806.975C313.444 804.534 310.582 801.751 308.759 800.262C292.002 786.706 275.684 777.781 264.098 758.858C248.613 733.57 256.236 701.153 239.065 676.904C220.037 650.031 190.742 630.492 161.136 617.112C155.329 614.489 149.337 613.114 143.5 610.947ZM443.773 467.758C450.792 476.942 453.114 483.155 456.815 494.078C457.176 495.146 461.523 493.971 462.475 493.649C473.101 490.047 482.518 490.317 493.567 490.534C494.885 501.184 496.753 501.371 494.139 513.912C499.076 509.335 503.435 504.171 507.117 498.535C509.831 494.406 513.525 488.473 515.669 484.059C527.714 459.274 543.354 436.559 554.224 411.167C557.037 404.596 561.052 400.441 562.804 393.1C552.882 392.197 544.55 389.637 534.619 390.045C532.594 392.123 530.878 393.923 528.656 395.801C525.163 399.474 514.266 407.595 509.804 411.526C489.392 429.511 468.004 446.561 447.215 464.1C446.958 464.499 444.28 467.229 443.773 467.758Z" fill="black"/>
<path d="M518.548 229.296L524.185 229.389C552.03 230.066 586.03 233.941 612.042 244.649C628.039 252.142 642.508 262.056 657.086 271.963C667.962 279.355 680.936 286.863 690.079 296.52C698.04 304.928 704.622 316.669 710.564 326.539C712.372 329.538 713.205 332.937 712.578 336.442C712.498 336.31 712.418 336.179 712.338 336.047C706.834 321.043 694.27 305.05 683.269 293.584C674.509 284.451 661.34 276.888 650.903 269.876C640.181 262.676 624.834 252.126 613.154 246.902C592.024 237.451 550.289 230.918 527.147 231.378C523.33 231.654 518.437 232.145 514.695 232.056C516.213 231.649 517.608 231.184 519.193 231.133C517.978 231.137 516.833 231.325 515.884 230.676L516.738 230.434C517.336 230.711 518.599 230.455 519.254 230.226L518.548 229.296Z" fill="black"/>
<path d="M530.337 881.503L529.725 880.945C531.491 878.789 534.247 877.312 536.247 875.316C540.094 871.483 544.317 866.846 547.599 862.535C552.475 855.976 555.172 848.602 559.859 841.821C565.734 833.323 571.686 824.769 577.139 815.997C578.388 813.996 579.562 811.766 580.988 809.878C591.419 796.065 602.079 782.092 613.017 768.667C624.549 754.478 636.936 741.013 650.122 728.352C654.799 723.823 660.291 720.333 664.779 716.044C668.703 712.297 666.131 711.875 672.211 713.307C668.823 715.081 666.798 717.39 663.85 719.706C634.763 742.535 612.407 772.488 589.589 801.312C579.608 813.916 569.719 831.27 560.25 844.832C550.257 859.141 546.982 871.272 530.337 881.503Z" fill="black"/>
<path d="M602.809 541.877C600.271 555.848 539.919 605.484 527.479 617.244C519.26 625.011 508.132 634.461 498.907 641.311C486.87 649.398 476.9 659.127 465.049 667.442C464.68 667.699 464.307 667.95 463.931 668.195L463.575 667.596C466.164 664.043 472.309 660.639 475.627 657.456C487.719 645.856 501.931 637.165 514.475 626.061C517.953 622.981 522.987 620.181 524.142 615.527C524.451 614.284 527.901 614.067 529.05 613.856C530.943 612.088 530.751 610.959 531.5 608.113C533.841 606.225 536.253 607.012 536.625 606.59C541.388 601.206 541.661 599.655 548.266 596.632C548.59 595.817 548.776 595.036 548.911 594.169C564.359 582.312 577.036 569.795 591.066 556.245C595.868 551.602 597.396 544.814 602.809 541.877Z" fill="black"/>
<path d="M150.886 880.996C151.463 881.047 154.037 881.236 154.432 881.355C157.838 882.034 161.34 882.775 164.752 883.363C170.037 884.104 178.392 884.275 183.027 885.273C193.638 887.555 203.328 888.188 213.879 889.614L209.204 889.762L208.943 890.053C210.715 890.88 212.466 891.518 213.887 892.819C210.415 892.043 202.415 889.95 199.512 892.237L199.878 893.058C189.01 893.514 169.442 890.537 158.113 889.722C154.8 889.482 150.196 887.846 146.232 887.463L144.318 886.146C145.636 885.695 147.262 885.599 148.676 885.445C150.913 883.979 150.694 883.38 150.886 880.996Z" fill="black"/>
<path d="M154.432 881.355C157.838 882.034 161.34 882.775 164.752 883.363C165.182 884.515 165.722 886.1 166.236 887.167C163.466 887.15 156.511 886.545 153.947 885.547C152.936 885.148 153.207 885.039 152.814 883.808C153.356 882.365 153.34 882.462 154.432 881.355Z" fill="black"/>
<path d="M150.886 880.996C151.463 881.047 154.036 881.236 154.432 881.355C153.34 882.462 153.356 882.365 152.814 883.808C153.207 885.04 152.936 885.148 153.947 885.547C156.511 886.545 163.466 887.15 166.236 887.167L166.682 886.813L167 887.578L166.335 888.353C164.104 889.038 150.827 886.825 148.676 885.445C150.913 883.979 150.694 883.38 150.886 880.996Z" fill="black"/>
<path d="M213.879 889.613C222.124 890.235 226.041 890.839 234.331 892.733C239.441 894.524 244.73 895.065 248.709 896.508L248.485 898.242C249.498 899.32 250.581 899.269 252.096 899.497C253.552 899.656 261.919 905.993 263.998 907.447C263.77 908.188 263.983 907.909 263.416 908.32C254.236 904.938 243.961 901.128 234.463 898.841C225.948 898.333 209.867 894.37 199.878 893.058L199.512 892.237C202.415 889.95 210.415 892.043 213.887 892.818C212.466 891.518 210.715 890.879 208.943 890.052L209.204 889.762L213.879 889.613Z" fill="black"/>
<path d="M213.879 889.613C222.124 890.235 226.041 890.839 234.331 892.733C231.612 893.269 231.127 893.566 228.753 894.832C226.201 895.949 224.622 895.254 221.878 894.655C219.028 894.358 216.558 893.834 213.887 892.818C212.466 891.518 210.715 890.879 208.943 890.052L209.204 889.762L213.879 889.613Z" fill="black"/>
<path d="M221.878 894.655C223.874 893.48 227.114 892.864 228.753 894.832C226.201 895.95 224.622 895.254 221.878 894.655Z" fill="black"/>
<path d="M234.463 898.841L234.7 898.202C237.412 898.111 238.912 898.898 241.597 899.235C245.193 899.691 248.486 899.628 252.096 899.497C253.552 899.657 261.919 905.993 263.998 907.447C263.77 908.189 263.983 907.909 263.416 908.32C254.236 904.938 243.961 901.128 234.463 898.841Z" fill="black"/>
<path d="M248.709 896.508C260.506 900.158 269.295 908.542 279.867 914.821C285.492 918.163 293.82 928.623 297.346 934.217C302.346 944.358 302.705 957.452 305.465 968.419C307.009 974.556 310.944 981.645 309.074 987.627C307.054 981.314 305.334 974.904 303.923 968.425C303.003 964.216 301.63 956.357 300.211 952.621C298.19 937.457 293.753 931.229 281.819 921.762C273.939 914.696 271.478 913.988 263.416 908.32C263.983 907.909 263.77 908.188 263.998 907.447C261.919 905.993 253.552 899.656 252.096 899.497C250.581 899.269 249.498 899.32 248.485 898.242L248.709 896.508Z" fill="black"/>
<path d="M141.115 897.518L141.804 897.164C157.473 914.935 172.382 934.086 191.876 948.264C195.877 951.173 201.269 953.044 205.289 955.695C211.615 959.876 214.581 963.868 221.957 966.486L224.046 967.341C222.107 967.666 219.545 967.415 218.545 968.009C210.196 962.351 191.215 951.39 184.315 945.527C172.931 935.849 148.282 909.945 141.115 897.518Z" fill="black"/>
<path d="M527.745 505.739C526.658 503.431 527.877 502.831 529.137 500.811C543.018 478.562 554.953 455.028 567.449 432.005C571.932 423.749 574.373 416.93 579.802 408.836L580.983 408.961C569.074 436.046 552.174 463.298 538.345 489.577C535.465 495.05 530.958 500.306 527.745 505.739Z" fill="black"/>
<path d="M823.898 342.287C827.907 368.932 775.01 390.47 753.886 393.813L751.194 393.315L750.983 392.699C754.205 391.16 763.102 389.965 767.174 388.495C780.023 383.854 794.464 377.873 805.442 369.774C813.387 364.112 821.172 355.654 822.86 345.722C823.145 344.041 823.134 343.855 823.898 342.287Z" fill="black"/>
<path d="M467.981 230.29C468.155 230.479 468.304 230.694 468.502 230.857C471.564 233.374 499.651 229.842 504.832 229.54C509.393 229.274 513.98 229.304 518.548 229.296L519.254 230.226C518.599 230.455 517.336 230.711 516.738 230.434L515.884 230.676C516.833 231.325 517.978 231.137 519.193 231.133C517.608 231.184 516.213 231.649 514.695 232.056C507.325 232.743 499.925 232.511 491.945 232.849C486.253 233.09 474.516 234.309 468.657 233.386C467.769 233.245 467.554 231.845 467.302 230.955L467.981 230.29Z" fill="black"/>
<path d="M444.894 170.503C455.522 175.364 465.309 181.233 469.677 192.799C473.186 202.093 471.77 218.221 468.745 227.697C467.366 220.401 471.811 210.387 469.897 200.707C467.415 188.157 460.137 182.783 450.859 174.592C449.468 173.364 445.754 172.916 443.667 171.382L444.894 170.503Z" fill="black"/>
<path d="M321.247 781.248C322.604 782.457 326.948 786.375 327.85 787.579C333.615 795.278 347.139 814.429 350.007 822.676C347.263 821.438 345.78 817.64 344.169 815.165C341.758 811.452 339.636 807.009 337.082 803.422C332.103 796.436 327.162 789.364 321.519 782.897C321.429 782.349 321.338 781.796 321.247 781.248Z" fill="black"/>
<path d="M382.714 174.299C395.235 169.175 411.148 167.851 424.529 167.778L425.516 168.588C423.808 169.546 407.77 170.369 403.888 171.066C400.365 171.7 384.701 175.664 383.021 175.271L382.714 174.299Z" fill="black"/>
<path d="M732.658 349.471L734.421 350.183C734.307 350.307 734.187 350.432 734.067 350.556C728.119 351.532 700.025 348.802 697.196 343.334L697.886 342.891L700.196 343.618C708.893 347.427 717.556 347.722 726.864 348.82C728.039 348.959 731.735 349.18 732.658 349.471Z" fill="black"/>
<path d="M407.532 748.136L406.997 746.796C407.773 741.537 416.488 719.17 419.571 714.505L420.705 714.647C416.55 725.899 412.158 737.066 407.532 748.136Z" fill="black"/>
<path d="M519.562 518.39C525.484 518.516 544.634 517.143 548.044 518.521C545.173 520.479 521.704 520.995 519.36 519.279L519.562 518.39Z" fill="black"/>
<path d="M401.836 765.542C399.063 773.218 396.614 780.074 393.246 787.539C392.611 785.959 392.696 785.007 393.307 783.387C395.239 778.254 396.987 768.222 401.836 765.542Z" fill="black"/>
<path d="M144.318 886.146C143.905 884.76 142.949 884.384 142.256 881.441L142.858 880.722C145.531 880.876 148.208 880.967 150.886 880.996C150.694 883.38 150.913 883.979 148.676 885.444C147.262 885.598 145.636 885.695 144.318 886.146Z" fill="black"/>
<path d="M405.721 222.561C394.425 224.122 378.61 225.101 377.332 209.916C376.75 202.999 393.666 197.834 399.091 197.43C406.281 196.893 408.872 200.797 413.631 204.904C412.345 207.989 411.759 208.517 409.525 211.031L408.422 210.562L407.711 211.258C407.077 217.929 409.732 216.223 405.721 222.561Z" fill="black"/>
<path d="M378.217 219.748C376.786 216.006 374.816 209.339 377.247 205.538C383.421 195.881 410.504 189.586 413.631 204.904C408.872 200.797 406.281 196.893 399.091 197.43C393.666 197.835 376.75 202.999 377.332 209.916C378.61 225.101 394.425 224.122 405.721 222.562C409.732 216.223 407.077 217.929 407.711 211.258L408.422 210.562L409.525 211.032C409.346 213.787 410.471 219.88 409.381 221.559C403.088 231.259 384.672 224.023 378.217 219.748Z" fill="black"/>
<path d="M447.215 464.1L446.905 463.34C447.737 460.394 520.259 399.689 527.881 395.063L528.656 395.801C525.163 399.474 514.266 407.596 509.804 411.527C489.392 429.511 468.004 446.562 447.215 464.1Z" fill="black"/>
<path d="M470.806 820.554C467.212 814.994 478.591 785.868 481.447 779.463C485.324 770.772 516.745 725.746 524.555 727.32C508.545 742.307 501.453 750.229 490.089 768.998C478.615 787.949 475.917 798.882 470.806 820.554Z" fill="black"/>
<path d="M409.018 256.314C420.175 261.168 444.259 285.81 449.967 296.764C455.622 307.615 456.695 314.055 465.111 324.865C464.641 325.272 464.968 325.092 464.004 325.039C453.535 313.863 454.338 310.189 447.687 296.833C443.761 288.948 433.579 278.809 427.459 272.106C424.587 268.961 409.737 259.091 409.018 256.314Z" fill="black"/>
<path d="M508.764 288.821C506.496 286.222 500.853 280.225 502.824 276.536C513.647 280.452 514.538 281.587 525.779 282.309C530.762 286.769 534.286 294.399 537.653 300.442C532.441 299.596 530.11 286.914 524.859 284.374C522.21 283.092 512.814 283.779 511.084 285.169C511.861 285.999 512.031 285.896 513.095 286.316C513.61 288.499 513.578 288.927 513.451 291.18L512.791 291.718C511.417 290.632 510.214 289.807 508.764 288.821Z" fill="black"/>
<path d="M372.071 197.649C373.63 188.973 412.33 178.105 419.868 184.198C401.161 184.269 387.953 187.561 372.071 197.649Z" fill="black"/>
<path d="M601.765 380.253C614.705 380.653 624.241 379.733 637.233 378.499L637.683 379.503C634.952 381.884 601.246 383.406 597.083 380.881C598.976 380.493 599.843 380.358 601.765 380.253Z" fill="black"/>
<path d="M562.35 705.374L562.022 703.777C563.632 700.96 567.958 699.049 571.048 698.485C572.12 698.285 572.439 698.884 573.306 699.54C570.069 701.233 565.486 703.92 562.35 705.374Z" fill="black"/>
<path d="M215.517 954.897C219.563 957.583 224.508 961.25 228.855 963.172C244.22 969.959 259.796 979.107 275.343 985.289C276.493 988.129 277.831 988.448 280.7 989.754C279.53 989.703 275.927 989.389 275.11 989.783C273.118 988.893 270.64 987.878 268.79 986.8C267.876 986.264 262.502 985.192 260.648 984.644C262.012 985.677 262.66 985.745 262.963 987.023C262.062 987.239 261.22 987.445 260.325 987.696C261.393 988.876 261.553 988.973 262.773 989.88C263.038 990.547 263.267 990.918 263.342 991.597C253.287 987.433 231.697 978.137 223.64 971.938C222.391 971.231 219.777 969.006 218.545 968.008C219.545 967.415 222.107 967.666 224.046 967.341L221.957 966.486L223.131 965.733C222.69 959.745 215.543 960.264 215.517 954.897Z" fill="black"/>
<path d="M223.64 971.938C227.813 971.254 232.453 976.643 238.641 974.031C242.465 975.942 259.09 983.128 260.648 984.645C262.012 985.677 262.66 985.745 262.963 987.023C262.061 987.24 261.22 987.445 260.325 987.696C261.392 988.876 261.553 988.973 262.773 989.88C263.038 990.547 263.267 990.918 263.342 991.597C253.287 987.433 231.697 978.137 223.64 971.938Z" fill="black"/>
<path d="M224.046 967.341C226.397 968.311 236.986 972.987 238.641 974.031C232.453 976.643 227.813 971.254 223.64 971.938C222.391 971.231 219.777 969.007 218.545 968.009C219.545 967.415 222.107 967.666 224.046 967.341Z" fill="black"/>
<path d="M260.648 984.645C262.502 985.192 267.876 986.264 268.79 986.8C270.64 987.878 273.118 988.893 275.11 989.783C275.927 989.39 279.53 989.703 280.7 989.755C277.831 988.448 276.493 988.129 275.343 985.289C281.497 987.519 311.553 1005.56 315.752 1006.06L316.02 1006.88C313.46 1006.89 311.753 1006.04 309.381 1006.84C308.364 1008.52 308.534 1007.63 308.885 1009.59C311.58 1012.24 316.738 1013.31 315.828 1017.41C307.407 1011.3 301.959 1009.93 292.844 1005.53C288.01 1003.2 283.102 1000.04 278.083 997.807C273.607 995.823 267.542 993.946 263.342 991.597C263.267 990.918 263.038 990.547 262.773 989.88C261.553 988.973 261.393 988.876 260.325 987.696C261.22 987.445 262.061 987.239 262.963 987.023C262.66 985.745 262.012 985.677 260.648 984.645Z" fill="black"/>
<path d="M275.11 989.783C275.927 989.39 279.53 989.703 280.7 989.755C285.39 992.669 289.684 995.287 294.809 997.454L295.257 1001.48C292.051 1000.07 280.933 994.671 278.408 994.317L275.11 989.783Z" fill="black"/>
<path d="M268.79 986.8C270.64 987.878 273.118 988.893 275.11 989.783L278.408 994.317C275.3 993.644 265.288 992.127 264.386 989.156C266.143 988.409 266.885 988.106 268.464 987.023L268.79 986.8Z" fill="black"/>
<path d="M294.809 997.454C297.504 998.007 300.912 999.507 302.568 1001.81L302.481 1002.82C297.749 1004.39 298.682 1002.74 295.257 1001.48L294.809 997.454Z" fill="black"/>
<path d="M249.132 891.284C282.474 899.605 306.577 926.416 311.898 959.602C314.7 977.082 323.684 999.627 333.392 1014.45C338.523 1021.77 349.779 1031.23 356.435 1038.41L355.207 1038.94C352.963 1038.27 345.728 1030.37 343.657 1028.37C333.531 1018.56 325.226 1008.85 320.969 995.104C318.52 987.2 313.934 980.265 312.103 972.029C308.786 957.098 306.599 940.183 297.704 927.317C286.35 910.892 268.732 899.497 250.186 892.75C250.186 892.75 249.225 891.416 249.132 891.284Z" fill="black"/>
<path d="M293.7 215.417C302.754 208.707 308.331 208.489 319.351 207.039L318.951 207.974C313.664 208.848 310.091 209.349 304.978 211.06L305.389 211.099C296.531 214.341 295.758 214.223 296.601 223.545C294.623 220.853 294.461 218.722 293.7 215.417Z" fill="black"/>
<path d="M672.541 393.305C676.191 391.648 688.807 393.545 691.955 395.445L692.28 396.562C683.702 396.213 680.623 395.591 672.541 393.305Z" fill="black"/>
<path d="M358.064 474.067C358.182 473.49 358.33 472.919 358.507 472.357C360.315 466.525 364.488 459.967 370.031 456.938L370.252 458.202C367.822 460.61 367.086 461.612 365.102 463.996C362.465 467.166 360.718 473.193 358.709 474.394L358.064 474.067Z" fill="black"/>
</svg>
