<svg width="772" height="1248" viewBox="0 0 772 1248" fill="none" xmlns="http://www.w3.org/2000/svg">
<g clip-path="url(#clip0_2149_88)">
<path d="M280.372 215.345C306 216.075 312.944 245.816 332.251 259.628C342.287 259.769 352.045 256.996 359.713 250.446C363.958 246.821 375.19 237.885 380.457 243.702C397.929 263.003 384.428 298.187 369.845 315.696C380.097 325.037 393.419 335.326 406.713 339.422C397.566 341.266 392.396 341.37 383.802 337.727C385.085 339.931 386.528 342.706 387.958 344.714C390.421 348.168 395.787 352.549 396.731 356.631L396.042 357.573C393.63 357.99 391.446 356.702 389.061 355.709C401.689 389.559 403.873 422.385 376.137 449.315C366.045 459.114 357.524 463.865 344.532 468.958C353.073 475.659 361.568 491.64 368.931 501.538C385.971 525.049 418.669 534.847 446.602 530.579C457.537 528.908 473.548 516.9 483.391 529.895L487.083 525.897C495.217 517.26 498.786 516.968 506.787 510.492C516.095 502.96 524.88 494.546 535.956 488.869C554.954 479.132 588.77 472.964 608.396 483.166C625.402 492.006 631.29 503.176 652.251 507.344C670.824 511.222 689.914 509.453 708.626 507.807C721.024 506.717 733.763 501.07 743.68 510.617C743.723 510.756 743.771 510.895 743.814 511.034L744.021 511.734C748.849 527.67 738.432 531.927 732.879 543.063C718.647 571.586 699.538 591.799 670.312 605.167C662.26 608.85 652.696 611.758 646.376 618.022C635.983 628.199 635.77 636.614 635.746 650.264C635.739 654.804 633.752 661.068 633.716 665.992C633.612 678.752 633.704 691.543 633.698 704.316C623.75 700.349 623.884 700.988 616.539 693.743L615.863 694.249C614.552 699.739 621.202 709.331 620.776 713.925C618.673 736.491 611.182 757.343 620.276 779.799C624.475 790.171 627.901 795.338 629.827 807.056C627.115 814.046 625.237 817.47 621.026 823.79C618.356 827.805 609.475 834.771 608.902 837.44C607.232 845.179 607.64 855.16 607.604 863.18C607.445 898.274 611.925 933.904 622.58 967.407C627.127 981.697 634.021 995.329 638.763 1009.54C630.906 1021.54 623.171 1026.87 609.018 1022.95C585.021 1016.29 576.108 995.646 567.211 975.018C565.435 970.905 560.996 964.884 558.635 960.448C553.195 950.229 547.551 940.01 541.848 929.912C536.008 950.576 531.688 979.162 534.443 1000.64C535.339 1007.62 538.29 1016.39 539.569 1024.23C517.451 1043.32 502.053 1020.72 498.08 999.32C490.283 957.322 492.25 915.574 483 873.624C476.053 878.353 471.689 881.132 463.91 884.209C449.798 889.474 443.393 888.993 435.8 875.788C420.782 878.146 389.175 893.265 382.138 874.551C361.186 874.246 346.773 873.966 326.064 869.737C326.148 889.48 319.746 907.963 303.231 920.479C297.653 924.702 292.677 925.616 285.877 924.41C281.039 948.407 283.878 976.31 300.799 995.268C303.528 998.321 305.885 1000.5 307.983 1004.08L308.35 1004.71C298.308 1033.7 272.258 1024.42 257.676 1004.88C244.116 986.712 235.333 964.354 229.056 942.697C222.513 972.051 220.98 991.807 233.183 1018.95C234.561 1022.02 233.208 1026.69 231.397 1029.57C224.592 1040.76 210.405 1042.39 199.729 1034.95C170.588 1014.64 158.953 963.775 165.063 930.394C167.716 915.897 180.536 900.76 181.647 885.751C182.343 876.354 177.923 864.831 175.765 855.672C174.748 851.986 172.855 849.731 171.582 843.887C172.696 840.724 175.343 835.636 176.903 832.473C175.448 826.989 174.028 819.378 174.97 813.869C169.604 804.454 171.996 801.578 171.71 791.59C171.478 783.528 170.245 779.433 171.995 771.207C165.158 759.05 164.323 744.601 163.687 731.092C160.246 729.501 152.038 727.009 148.148 725.699C140.178 723.005 132.287 720.086 124.487 716.936C92.7146 704.048 72.3529 689.624 58.9306 657.912C60.5623 654.268 61.2791 652.635 63.8317 649.63C56.6211 630.874 50.4088 613.531 53.8746 593.108C56.1755 579.553 57.4196 578.686 57.2775 564.842C59.3493 563.427 61.7752 561.495 64.2029 561.336C70.6682 563.635 68.2721 570.649 70.1354 575.04C72.9344 581.64 77.6856 591.059 82.2668 596.517C110.601 630.277 152.443 654.213 194.305 666.833C212.042 672.025 231.515 674.365 249.428 676.626C246.202 670.593 238.407 657.046 236.56 651.27C226.589 620.106 226.736 579.394 234.294 547.903C241.655 517.23 257.304 476.745 284.774 459.288C277.897 455.645 266.741 445.47 262.665 438.838C244.535 443.384 224.794 442.916 209.839 430.443C181.721 406.992 196.224 359.614 216.43 336.14C202.921 292.849 230.535 221.08 280.372 215.345ZM485.266 546.077C488.606 544.258 493.017 540.865 495.924 544.684C496.902 550.587 489.476 563.533 487.815 570.239C479.141 605.269 476.039 658.046 516.008 674.755C516.361 667.156 514.369 657.241 513 649.575C509.361 629.204 504.796 609.54 507.056 588.678C508.106 578.979 512.418 552.398 522.962 549.444C523.969 549.609 525.875 549.902 526.247 551.018C531.846 567.836 517.982 588.628 520.503 606.32C521.127 615.548 524.363 626.169 526.565 634.743C529.74 647.108 542.655 679.045 527.445 687.546C509.386 697.637 486.853 676.802 479.036 662.988C474.821 655.547 471.931 647.437 470.491 639.009C458.822 651.233 434.535 667.485 417.77 670.782C423.428 679.593 424.176 694.614 421.844 704.584C417.726 722.17 408.188 736.826 395.163 749.074C399 750.976 403.722 753.352 407.313 755.235C428.163 766.161 417.284 778.257 400.376 783.406C396.664 784.534 392.375 785.984 388.312 786.661C369.331 789.793 336.38 791.408 330.16 767.886C326.767 755.046 330.394 740.982 331.271 728.014C331.708 721.927 331.055 715.345 330.979 709.197C312.376 708.758 288.389 706.412 272.46 696.443C254.188 684.998 258.096 687.552 236.118 686.406C227.707 685.894 219.323 685.017 210.989 683.774C165.199 676.997 114.112 649.996 81.3086 617.218C75.1853 611.106 68.0899 602.188 64.4961 594.319C64.1164 642.434 98.1102 686.711 141.996 701.257C143.693 701.817 150.994 704.029 151.221 705.059C147.354 707.277 138.522 705.236 134.212 704.401C145.229 709.319 155.674 714.687 167.119 718.508C168.438 715.613 169.551 712.103 172.753 710.982C176.162 713.115 176.127 718.155 178.028 720.824C179.659 723.109 183.039 724.321 184.492 727.63C183.988 731.5 180.334 732.268 177.042 733.334C177.377 746.076 179.8 754.875 185.324 766.283C181.519 772.133 184.681 781.603 186.094 788.897C189.489 785.911 190.74 785.497 194.743 783.425C190.578 791.81 183.732 806.813 187.432 815.862C192.917 829.274 193.506 828.47 188.372 842.632C190.33 844.551 195.267 849.371 195.425 852.363C195.522 854.185 193.78 857.909 193.933 860.005C194.785 871.748 196.9 878.036 194.144 890.193C191.264 902.893 183.111 910.76 179.663 922.35C171.597 949.461 183.142 995.323 201.662 1016.48C204.869 1020.14 213.111 1026.91 218.061 1027.16L218.732 1026.52C218.355 1024.26 217.439 1022.27 216.552 1020.16C212.598 1010.79 211.056 1000.51 210.144 990.448C209.895 972.179 212.247 957.517 218.158 940.089C219.732 935.452 224.71 924.653 225.048 920.778C226.022 909.596 224.253 896.878 225.623 885.391C241.719 870.785 240.245 894.538 239.646 904.55C248.405 890.864 256.11 875.593 260.684 859.968C262.965 852.174 258.876 838.981 269.582 836.501C271.424 836.075 272.297 836.3 273.914 837.159C278.699 842.034 276.247 854.124 274.782 860.017C280.246 853.198 286.441 837.098 292.337 836.386C294.967 838.506 294.337 841.218 294.315 844.423C326.593 856.69 347.819 861.748 383.198 861.443C395.52 861.333 413.401 860.529 425.378 861.224C419.104 867.086 415.704 868.14 407.052 869.865C404.777 870.315 402.673 870.419 400.642 871.492L400.779 872.339C404.124 874.216 412.679 874.666 415.526 873.679C427.743 869.444 432.151 859.164 446.185 866.635C446.916 867.025 451.742 864.289 454.584 864.526C455.575 865.739 455.1 866.757 454.956 868.737C456.446 868.366 458.556 866.726 459.912 865.8L464.32 874.081C486.098 860.011 492.378 849.652 519.206 863.911C519.972 853.399 520.672 843.899 529.196 836.367C536.794 829.658 545.317 836.507 547.266 844.575C551.161 860.693 549.915 879.328 541.717 893.819C549.694 913.014 557.712 928.224 569.028 945.75C570.399 947.871 573.682 953.916 575.401 955.189C576.888 954.988 577.669 954.818 579.124 954.446C581.62 956.566 580.766 964.689 581.9 967.931C589.391 989.296 599.357 1006.83 623.153 1011.28C591.525 942.703 588.489 869.871 602.179 796.417C603.026 791.846 599.741 783.998 600.192 779.372C601.502 766.076 604.075 752.938 605.812 739.635C595.986 731.494 590.946 719.264 589.403 706.662C588.294 697.582 589.221 680.184 601.32 678.96C602.612 678.856 603.557 678.838 604.703 679.478C604.648 681.293 600.527 686.498 600.235 688.234C598.351 699.52 603.892 716.741 611.298 724.894C608.122 716.265 601.557 703.054 605.373 694.486C607.61 689.465 610.578 688.326 615.077 685.803C614.857 677.32 613.535 673.244 621.458 667.973C622.257 652.47 624.366 628.107 634.173 616.267C618.478 618.095 580.773 620.856 569.657 605.095C567.568 602.133 571.587 599.284 574.37 599.408C581.9 599.58 589.019 603.131 596.578 604.177C626.078 608.017 655.963 600.95 680.619 584.304C661.455 589.743 643.883 594.228 624.006 589.182C619.179 587.955 607.043 585.249 605.221 580.258C606.586 575.422 619.026 577.472 622.988 578.095C643.517 581.323 663.948 579.088 683.416 571.932C689.621 569.661 696.564 566.269 703.098 564.507C700.782 567.9 697.722 572.079 695.832 575.626C708.108 565.96 715.721 552.83 722.962 539.206C715.709 532.849 709.595 529.889 707.925 519.946C685.714 523.467 661.973 525.116 640.146 518.812C615.345 511.65 600.265 486.314 571.624 490.193C546.612 492.63 538.072 502.705 519.119 517.271C504.439 528.553 495.031 527.723 485.266 546.077ZM264.862 885.123C258.188 897.244 246.7 914.349 241.196 925.568C244.152 947.865 261.059 989.619 279.806 1004.1C283.839 1007.22 287.283 1008.7 291.893 1010.68C287.173 1005.41 283.077 999.613 279.684 993.403C263.019 961.515 269.102 919.358 288.661 889.895C290.125 887.689 291.919 884.831 294.07 883.326C296.263 882.948 295.401 882.783 297.298 883.947C301.065 889.968 297.368 907.311 296.08 914.52C311.013 897.701 312.499 888.603 314.062 866.696C306.957 864.246 296.429 859.554 290.203 857.647C283.695 869.298 277.118 878.761 264.862 885.123ZM316.718 264.987L316.114 264.436C304.183 253.439 293.125 227.488 274.557 228.711C262.53 230.648 250.203 237.665 243.044 247.576C229.16 266.792 222.103 299.24 225.77 322.455C225.868 323.069 225.981 323.681 226.11 324.29C231.187 315.395 239.521 308.878 247.194 302.078C264.299 287.645 282.125 277.947 303.001 269.909C307.185 268.299 312.466 266.059 316.718 264.987ZM243.299 383.039C240.826 342.466 288.25 303.83 326.393 300.478C340.788 299.213 350.761 302.907 362.873 310.06C368.312 298.189 374.903 286.768 375.315 273.339C375.459 268.669 375.191 257.498 370.139 255.153C352.784 272.515 343.932 271.759 321.592 275.829C313.764 277.665 306.079 280.233 298.578 283.148C260.887 297.792 225.244 325.999 211.145 364.931C200.427 394.525 208.288 425.652 243.832 428.899C247.273 428.982 254.906 429.711 257.389 427.811C256.928 426.012 256.488 424.207 256.071 422.396C251.325 421.405 248.26 422.492 244.19 419.529C234.649 412.583 234.436 396.846 240.201 387.466C241.165 385.896 242.498 384.452 243.299 383.039ZM252.242 373.104C259.156 384.608 258.125 384.788 248.564 390.561C244.265 393.157 247.264 403.659 249.179 406.993C253.455 416.245 262.451 407.14 265.912 411.299C265.549 414.024 262.181 417.78 260.382 420.078L260.957 420.683C262.749 420.703 265.207 420.345 266.305 421.579C270.008 425.738 273.526 430.495 277.126 434.687C286.401 445.482 303.061 455.237 317.278 456.315C323.959 456.847 329.41 457.339 336.09 456.719C362.939 454.226 384.853 432.756 386.667 405.678C387.432 394.263 385.317 384.23 383.2 373.056C372.03 390.993 364.941 364.98 375.548 362.354C378.034 361.739 383.1 368.34 385.467 370.483C384.023 364.422 381.705 361.465 379.497 356.182C373.077 340.828 364.852 328.679 350.631 319.554C344.975 315.924 335.681 312.771 328.74 313.466C298 315.559 257.197 340.585 252.242 373.104ZM288.792 466.934C260.02 481.205 241.465 557.278 242.586 586.937C270.021 596.901 297.315 598.35 326.056 593.125C336.037 591.31 343.404 588.38 352.728 584.622C334.858 578.081 312.064 568.34 302.783 550.215C300.796 546.336 299.478 541.957 303.615 539.015C305.451 538.752 307.825 538.803 309.147 540.468C332.089 569.377 371.964 580.966 407.751 577.44C428.887 575.358 448.307 564.978 468.162 558.111C471.578 556.93 474.186 553.138 477.021 552.274C478.338 553.83 478.017 553.054 478.045 555.253C474.339 564.028 454.239 573.703 445.968 577.665C420.887 588.731 396.25 593.503 369.031 588.084C367.254 602.829 373.214 615.578 371.221 632.135C387.307 639.649 404.323 648.942 414.234 664.371C422.163 657.674 431.706 654.737 440.987 649.612C453.909 642.476 459.068 636.352 469.123 626.675C468.476 607.059 469.721 592.146 475.361 573.026C477.155 566.942 481.582 561.228 482.004 555.021C482.347 549.975 482.084 543.924 478.122 540.327C475.678 538.108 471.604 535.68 468.332 535.886C462.888 536.23 457.67 541.762 452.104 543.021C424.503 549.267 389.736 542.753 368.255 523.576C350.989 508.162 347.541 481.297 324.76 471.977C321.946 470.826 314.274 470.863 310.727 470.272C304.066 469.16 296.544 466.442 289.897 466.842C289.529 466.865 289.16 466.896 288.792 466.934ZM257.765 661.013C259.22 663.353 260.809 666.077 262.527 668.186C266.722 649.551 277.896 626.992 300.384 628.272L301.033 628.838C300.422 631.227 299.557 632.452 298.324 634.56C320.408 623.677 335.035 619.411 359.856 627.041C358.321 618.235 356.504 609.424 356.396 600.484C356.374 598.599 356.754 595.689 355.703 594.689L354.828 594.71C315.717 610.289 282.967 612.958 242.309 600.263C242.429 620.545 247.443 643.427 257.765 661.013ZM282.503 685.401C283.835 676.126 284.297 673.554 288.016 664.932C289.749 663.914 290.86 663.353 292.381 662.001C294.17 672.683 293.218 679.057 296.643 689.666C310.848 697.454 325.004 694.73 340.057 697.619C343.565 698.289 343.109 708.374 343.074 711.433C343.039 717.893 342.657 724.346 341.929 730.769C339.83 750.037 335.573 769.251 360.135 774.948C374.294 777.465 395.739 777.538 408.374 770.207L407.646 769.817C400.99 766.289 385.772 762.974 383.152 755.564C379.883 746.32 389.989 737.783 394.922 731.018C417.006 700.72 409.152 670.891 377.951 652.275C363.237 643.494 341.278 633.409 323.955 636.37C310.994 638.235 300.504 645.31 291.996 654.975C290.024 657.217 289.609 663.847 287.286 663.408C279.753 661.982 277.477 673.049 276.179 678.612C275.82 680.154 280.925 684.127 282.503 685.401ZM276.325 654.92C274.253 657.589 269.811 663.134 271.213 666.827C273.185 663.628 277.021 658.491 276.325 654.92ZM533.42 844.935C531.179 848.939 532.515 860.962 533.77 865.178C533.908 865.642 534.065 866.099 534.242 866.55C535.822 863.789 534.894 848 533.42 844.935ZM291.411 633.147C284.48 637.656 275.867 649.417 278.783 657.936C284.136 655.566 288.458 639.533 291.528 633.713L291.411 633.147ZM519.915 1001.36C518.393 980.606 522.597 959.162 527.753 939.114C529.293 933.124 532.59 925.208 533.694 919.748C529.403 906.293 523.625 895.373 519.447 880.998C510.235 873.691 508.045 873.07 496.837 869.749C502.389 887.786 502.203 903.849 504.261 922.009C506.906 945.342 506.637 977.511 513.443 999.789C515.274 1005.93 518.123 1011.71 521.872 1016.9C521.171 1011.75 520.389 1006.52 519.915 1001.36ZM617.186 807.081C615.631 803.845 613.553 799.171 611.816 796.167C611.493 800.256 609.31 823.302 609.591 825.539C611.023 824.746 610.846 824.423 611.834 822.76C613.9 817.787 616.174 812.376 617.186 807.081Z" fill="black"/>
<path d="M591.055 518.53C601.13 517.951 599.765 522.599 604.41 530.434C601.679 535.43 600.929 536.745 596.157 539.703C581.766 543.903 581.735 527.034 591.055 518.53Z" fill="black"/>
<path d="M341.102 401.74L344.672 401.433C347.401 403.222 347.742 407.238 349.928 409.737C355.168 415.73 368.203 412.166 377.325 412.581C374.43 417.173 372.951 419.112 368.511 422.196C362.834 425.326 358.152 426.313 351.312 425.363C344.098 424.361 334.295 417.648 335.608 409.233C336.17 405.632 338.053 403.671 341.102 401.74Z" fill="black"/>
<path d="M340.573 366.067C344.26 366.796 345.365 371.51 349.002 375.626C346.228 379.39 344.327 381.394 340.408 383.884C328.748 384.18 328.728 370.947 340.573 366.067Z" fill="black"/>
<path d="M276.326 654.92C277.022 658.491 273.186 663.628 271.214 666.827C269.812 663.134 274.254 657.589 276.326 654.92Z" fill="black" fill-opacity="0.0470588"/>
</g>
<defs>
<clipPath id="clip0_2149_88">
<rect width="772" height="1248" fill="white"/>
</clipPath>
</defs>
</svg>
