<svg width="772" height="1248" viewBox="0 0 772 1248" fill="none" xmlns="http://www.w3.org/2000/svg">
<g clip-path="url(#clip0_2117_50)">
<path d="M372.653 125.181C382.51 123.708 394.585 127.936 401.575 135.01C409.89 143.426 411.178 153.216 411.195 164.459C414.653 163.844 424.661 162.27 427.178 160.864C444.27 151.315 446.57 149.339 464.454 160.178C539.882 159.972 605.29 278.14 631.993 338.224C636.998 349.47 641.685 360.855 646.049 372.365C648.822 379.74 651.846 389.008 655.064 396.016C651.705 378.445 625.673 293.442 627.318 285.435C627.58 284.159 627.897 284.008 628.891 283.299C633.176 283.621 634.937 288.362 636.376 292.004C659.373 350.234 675.605 411.787 684.876 473.69C687.43 490.773 686.918 506.716 689.551 523.531C690.252 528.01 691.026 532.382 691.635 536.833C693.421 550.577 694.768 564.373 695.682 578.202C702.576 682.518 687.478 787.123 651.364 885.233C621.479 964.177 560.13 1068.26 480.935 1103.92C476.854 1105.8 472.655 1107.4 468.364 1108.73C448.346 1115.06 426.732 1114.75 408.442 1103.36C404.18 1100.71 401.322 1095.5 396.946 1093.44C391.997 1091.12 385.617 1094.78 381.026 1096.59C366.663 1102.24 351.525 1098.8 337.871 1092.83C238.117 1049.26 167.158 875.781 136.266 777.763C129.959 757.593 124.184 737.264 118.951 716.789C117.001 709.16 112.694 689.227 110.212 683.048L109.923 682.347C110.829 693.085 111.809 703.816 112.863 714.535C113.416 720.421 115.677 732.816 112.53 737.563C107.732 745.223 95.8197 743.139 93.5279 734.833C91.987 729.245 91.4378 721.159 90.7881 715.357C88.8717 698.691 87.3382 681.988 86.1886 665.248C79.4302 566.249 89.4136 461.595 124.583 368.291C126.281 363.786 126.091 357.839 127.488 353.789C155.233 273.351 220.15 212.653 288.509 165.379C313.422 148.211 343.43 127.17 372.653 125.181ZM426.669 217.193L428.934 217.427C433.537 223.564 419.713 236.992 415.384 241.181C413.966 242.332 408.167 246.831 407.562 248.126C398.599 267.325 390.229 295.578 385.464 316.032C365.551 401.513 362.562 494.846 375.155 581.571C378.8 606.678 385.621 635.73 391.851 660.093C396.081 676.443 400.493 692.743 405.088 708.995C416.018 747.806 428.831 788.434 415.695 828.037C411.141 841.766 406.751 855.94 402.812 869.858C397.037 889.986 392.527 910.461 389.311 931.155C382.738 973.964 379.777 1037.07 405.293 1074.39C429.647 1108.54 478.783 1082.88 502.983 1062.87C604.309 979.064 650.523 843.887 667.541 717.679C684.339 600.711 668.309 483.773 624.716 374.194C600.749 313.954 540.208 189.51 467.979 180.678C461.085 199.04 442.256 200.595 426.638 216.422L426.669 217.193ZM444.027 176.474C440.006 176.705 436.108 176.976 435.284 181.656L435.744 182.201L444.192 177.051L444.199 176.512L444.027 176.474ZM386.116 866.226C387.706 862.363 389.396 858.439 390.755 854.496C405.254 809.737 405.655 777.574 392.279 732.584C390.578 726.868 386.834 706.857 383.026 704.133C382.658 707.381 384.92 724.175 385.326 728.77C386.541 742.584 387.295 756.429 387.587 770.292C388.063 789.573 387.988 808.86 387.361 828.14C387.019 837.884 385.519 857.628 386.116 866.226ZM359.924 339.271C338.421 406.787 332.912 445.439 346.391 516.023C346.94 517.875 346.709 518.338 347.923 519.281C348.979 513.943 347.184 489.368 347.161 481.575C346.89 456.45 347.897 431.327 350.175 406.304C351.811 389.864 353.952 373.48 356.593 357.172C357.006 354.707 360.13 340.397 359.924 339.271ZM378.678 150.019C310.472 165.2 244.918 246.335 207.175 302.168C194.369 321.111 164.661 371.653 145.905 380.417C141.257 390.83 136.215 407.4 133.02 418.651C120.14 464.233 112.545 511.144 110.385 558.461C109.767 569.628 108.802 587.735 109.956 598.66C112.758 625.2 119.336 653.731 125.776 679.611C138.058 730.257 153.422 780.103 171.782 828.872C197.366 895.726 231.99 966.267 278.219 1021.32C294.202 1039.55 311.258 1056.57 332.704 1069.04C343.202 1075.14 366.164 1085.99 378.038 1077.37C383.263 1073.58 376.263 1066.27 374.271 1062.71C345.622 1009.11 357.115 945.049 359.675 886.982C360.878 859.688 363.143 832.82 363.242 805.478C363.334 780.17 363.024 755.399 361.269 730.183C358.415 684.706 352.421 639.484 343.328 594.83C338.734 572.796 331.927 551.238 325.703 529.609C298.449 434.884 325.098 335.871 374.773 253.571C388.739 230.432 402.924 211.709 414.514 186.391C403.668 186.791 402.229 187.475 393.275 181.188C381.789 173.125 393.089 148.498 378.678 150.019Z" fill="black"/>
<path d="M444.024 176.475L444.196 176.512L444.189 177.051L435.741 182.202L435.281 181.657C436.105 176.976 440.003 176.705 444.024 176.475Z" fill="black" fill-opacity="0.01"/>
</g>
<defs>
<clipPath id="clip0_2117_50">
<rect width="772" height="1248" fill="white"/>
</clipPath>
</defs>
</svg>
