<svg width="772" height="1248" viewBox="0 0 772 1248" fill="none" xmlns="http://www.w3.org/2000/svg">
<g clip-path="url(#clip0_2142_121555)">
<path d="M388.383 459.736C389.285 459.613 390.192 459.535 391.101 459.506C413.291 458.95 434.93 467.905 451.077 482.962C474.069 484.14 509.296 493.036 529.197 505.319C542.716 513.663 548.88 522.22 552.477 537.209C578.324 517.387 614.565 519.922 637.525 543.602C649.929 556.393 654.464 573.471 653.867 590.985C652.642 627.071 631.631 660.703 606.08 685.029C583.314 706.522 553.175 721.768 521.746 724.602C516.521 725.077 510.034 724.748 504.728 724.571C464.538 774.394 411.728 791.176 348.713 787.91C297.953 785.277 244.476 764.351 210.049 726.101C167.264 678.557 163.908 607.851 165.74 547.113C166.295 529.844 170.425 516.561 183.58 504.804C201.815 492.134 225.538 487.399 247.236 484.249C254.116 483.25 270.911 478.668 267.65 491.57C264.645 496.037 259.755 493.788 256.501 493.585C254.185 495.028 251.806 498.306 249.077 498.818C235.146 501.435 175.828 510.996 186.855 533.558C191.973 544.029 229.405 552.822 243.609 555.746C319.707 571.416 402.116 588.138 479.746 574.388C498.142 571.148 530.252 563.039 535.836 541.51C536.794 537.817 535.546 531.799 533.098 528.817C517.605 509.942 486.343 503.939 463.877 499.595C464.897 503.369 466.731 507.546 468.067 511.548C471.69 522.432 474.128 533.489 475.853 544.775C477.414 554.987 464.871 561.127 462.797 552.391C458.473 534.241 456.885 511.822 444.02 497.028C401.24 447.83 320.88 485.376 303.549 539.403C302.897 544.359 297.186 550.846 291.978 547.133C281.226 539.466 300.144 512.408 305.306 505.165C308.099 501.246 317.175 492.762 317.72 490.58C309.095 490.071 306.586 480.871 310.276 478.35C315.314 474.908 332.311 474.999 338.816 475.418C355.28 466.336 369.429 460.84 388.383 459.736ZM181.08 552.366C179.049 605.661 183.941 675.535 222.22 716.662C283.059 782.023 409.914 795.429 477.189 732.517C485.597 724.657 494.242 714.578 501.009 705.15C528.754 663.951 542.178 614.768 539.211 565.189C531.757 570.934 523.449 577.031 514.495 580.312C460.165 600.224 396.518 595.542 340.012 588.341C293.69 582.438 246.196 573.902 201.662 559.764C196.632 558.167 185.637 552.906 181.08 552.366ZM554.753 593.507C561.468 588.051 571.349 581.904 579.944 583.746C627.121 593.862 614.174 642.22 584.222 663.963C567.801 675.888 554.126 681.074 535.009 675.858C531.585 683.048 527.534 691.793 523.507 698.618C521.993 701.043 519.623 704.224 519.445 706.936C522.855 714.931 559.469 698.265 566.186 695.157C605.684 676.875 656.262 608.055 632.814 563.212C627.109 552.517 617.35 544.554 605.726 541.104C599.838 539.311 592.183 538.717 586.033 539.48C572.362 541.307 564.074 546.038 554.458 555.898C554.711 567.076 554.185 583.143 554.753 593.507ZM551.249 619.533C549.563 633.074 545.7 645.084 541.904 658.107C539.647 665.858 557.005 661.178 560.029 660.264C574.223 654.255 587.185 643.579 593.17 629.052C599.893 612.745 593.14 598.376 574.126 599.723C564.563 603.311 559.367 612.154 551.249 619.533Z" fill="black"/>
<path d="M292.785 695.784C301.372 696.058 302.288 702.213 305.073 709.123C310.178 705.278 326.001 692.512 331.419 700.019C331.889 705.79 323.54 710.823 319.872 714.912C317.491 717.563 316.657 718.508 314.528 721.561C319.565 725.619 330.712 732.085 325.374 739.909C323.685 740.89 323.546 740.793 321.509 740.549C319.542 739.074 317.522 737.673 315.451 736.344C313.362 734.997 310.961 733.169 308.496 733.706C305.048 736.186 304.219 748.172 296.707 748.574C286.012 749.153 291.744 738.562 291.318 733.017C290.865 727.118 277.921 729.885 277.806 722.706C277.659 714.693 287.498 718.989 290.753 716.107C292.173 709.861 285.781 702.829 292.785 695.784Z" fill="black"/>
<path d="M230.888 608.617C240.095 607.614 241.206 619.716 242.834 626.492C249.805 626.169 257.053 623.762 263.349 628.698C265.668 634.518 255.41 637.918 251.565 639.581C251.587 641.781 251.845 645.864 250.888 647.759C246.019 657.394 240.349 654.133 237.608 645.681C235.812 649.106 230.726 659.447 224.739 657.034C219.115 654.767 222.196 644.834 223.608 640.197C218.496 640.014 210.297 639.758 208.738 633.573C209.536 626.072 220.266 626.181 225.639 626.005C227.229 618.966 225.952 613.421 230.888 608.617Z" fill="black"/>
<path d="M412.191 648.064C419.194 647.839 420.026 652.659 422.552 658.308C428.246 658.052 442.923 653.287 442.548 662.89C442.319 668.759 431.117 668.259 429.268 670.727C427.019 673.731 434.755 681.038 429.792 685.657C428.07 686.065 425.237 684.785 423.545 684.109C421.324 682.61 419.376 680.385 417.499 678.442C415.425 682.494 412.215 688.045 406.803 686.948C401.205 683.768 404.186 676.528 405.82 671.958C402.046 671.531 397.143 670.642 395.918 666.4C396.451 660.026 405.343 659.837 409.975 659.624C410.518 655.718 410.909 651.781 412.191 648.064Z" fill="black"/>
<path d="M500.125 602.519C507.248 603.784 507.573 610.332 509.194 616.419C513.769 615.908 519.062 614.214 521.488 619.058C521.553 621.246 521.521 621.508 520.516 623.439C518.488 625.353 517.205 624.835 514.199 625.719C512.449 629.094 516.298 631.861 512.551 635.737C507.775 637.175 508.116 635.164 503.862 633.61L502.866 634.896C499.939 638.735 494.148 645.176 489.85 638.071C487.78 634.652 489.595 630.417 490.809 626.87C487.137 625.932 483.163 625.012 484.505 620.484C487.968 616.621 490.278 616.517 495.182 615.329C496.095 609.893 495.11 605.688 500.125 602.519Z" fill="black"/>
<path d="M442.388 698.173C448.407 697.856 449.859 701.08 453.105 705.479C454.714 705.37 459.302 704.839 460.413 705.388C470.19 710.257 462.559 714.602 457.26 716.497C457.956 719.909 459.12 724.608 456.329 727.673C454.042 730.189 450.941 727.344 449.268 725.473L449.062 725.899C444.412 735.43 437.696 734.735 435.645 723.949C425.738 717.039 429.837 713.279 439.067 710.05C440.107 705.595 440.216 702.146 442.388 698.173Z" fill="black"/>
<path d="M391.093 615.268C393.271 615.268 394.522 615.231 395.89 617.096C398.55 620.728 402.272 623.08 404.319 627.199C404.091 629.411 404.422 628.582 403.093 630.337C402.478 630.587 401.92 630.819 401.314 631.099L400.668 631.398C396.281 633.409 399.436 636.322 392.108 639.314C383.007 635.706 390.318 633 382.473 630.855C379.625 630.075 378.807 628.826 378.363 626.029C379.528 621.325 384.298 619.448 388.761 620.545C389.536 617.998 389.686 617.577 391.093 615.268Z" fill="black"/>
<path d="M348.637 655.383C350.71 654.396 353.154 654.615 355.018 655.956C356.882 657.29 357.87 659.539 357.597 661.818C357.323 664.097 355.832 666.047 353.704 666.906C350.547 668.18 346.947 666.717 345.577 663.603C344.207 660.483 345.562 656.845 348.637 655.383Z" fill="black"/>
<path d="M290.601 618.851C293.109 618.235 295.66 619.698 296.388 622.178C297.116 624.658 295.763 627.266 293.318 628.101C291.639 628.68 289.78 628.284 288.478 627.077C287.175 625.871 286.639 624.049 287.083 622.33C287.526 620.612 288.877 619.277 290.601 618.851Z" fill="black"/>
<path d="M245.979 511.2C246.366 511.183 246.752 511.173 247.14 511.169C252.773 511.16 251.802 513.207 255.927 515.013C258.755 515.914 265.113 514.197 267.101 517.07C272.074 524.5 270.165 526.782 263.091 530.745C260.455 532.222 263.727 535.56 259.5 538.789C257.354 539.226 256.653 538.766 254.595 538.028C251.384 535.903 251.808 535.358 248.973 537.978C233.542 552.162 233.073 526.516 242.687 519.67C243.264 519.259 241.532 515.332 245.979 511.2Z" fill="black"/>
<path d="M363.783 533.059C364.131 533.065 364.481 533.071 364.83 533.078L365.332 533.112C369.983 533.399 373.096 536.947 378.1 537.467C384.287 538.109 397.511 528.458 397.935 541.155C398.012 543.455 395.204 545.646 393.537 547.027C378.519 555.664 349.122 546.453 363.783 533.059Z" fill="black"/>
<path d="M337.283 503.252C345.519 503.407 344.96 508.53 350.277 510.286C354.096 511.547 363.197 507.914 368.31 512.279C369.907 515.785 367.193 519.091 364.614 521.493C350.828 527.032 324.137 517.646 337.283 503.252Z" fill="black"/>
<path d="M400.318 508.096C408.107 508.221 410.012 517.472 421.794 513.074C425.358 511.743 432.718 518.753 424.117 525.737C410.457 530.847 385.316 517.703 400.318 508.096Z" fill="black"/>
<path d="M298.553 477.382C300.567 476.601 302.846 476.974 304.506 478.358C306.165 479.742 306.941 481.917 306.533 484.038C306.125 486.159 304.597 487.891 302.543 488.561C299.485 489.559 296.19 487.941 295.108 484.912C294.028 481.884 295.555 478.546 298.553 477.382Z" fill="black"/>
</g>
<defs>
<clipPath id="clip0_2142_121555">
<rect width="772" height="1248" fill="white"/>
</clipPath>
</defs>
</svg>
