<svg width="772" height="1248" viewBox="0 0 772 1248" fill="none" xmlns="http://www.w3.org/2000/svg">
<g clip-path="url(#clip0_2117_69)">
<path d="M178.941 446.468C187.112 440.044 198.634 432.232 207.226 426.041C231.772 408.27 256.554 390.826 281.564 373.715C284.372 371.754 288.412 367.155 290.736 365.862C303.46 358.782 314.457 349.314 326.389 341.214C329.502 339.101 345.734 330.406 348.527 330.158C350.907 331.339 350.537 331.569 352.228 334.019C362.083 337.167 366.333 339.668 375.549 343.683C383.345 338.753 391.315 335.796 399.924 341.238L399.988 341.899C395.348 344.946 386.482 342.458 384.198 344.202C387.121 348.424 620.33 406.999 643.389 413.381C643.882 410.141 643.901 409.252 645.443 406.39L647.156 404.898C651.94 405.601 652.556 405.932 655.543 409.919C656.323 412.752 656.189 413.565 658.639 415.317C660.583 419.671 660.346 422.627 660.047 427.293C664.752 431.996 666.904 435.36 660.839 440.567C659.486 441.713 658.115 442.835 656.725 443.933C657.773 449.456 658.785 456.98 658.816 462.602C661.108 465.215 664.405 468.906 664.673 472.603C671.421 565.048 665.923 658.875 663.113 751.463C662.772 762.718 663.856 771.591 664.6 782.718C664.935 789.921 661.284 798.403 659.468 805.332C662.174 806.179 667.373 807.367 668.312 809.994C671.78 819.725 661.083 815.423 656.865 818.251C656.231 818.677 655.658 819.031 655.116 819.421C652.379 818.799 648.539 818.043 645.949 817.245C637.647 824.357 627.73 834.57 619.13 842.333L570.847 885.099C558.223 896.366 545.87 908.481 532.795 919.358C514.3 934.745 492.667 954.903 471.64 966.408C473.689 967.572 476.061 968.821 477.951 970.18C474.186 975.433 471.262 981.234 464.432 981.904C459.52 982.386 446.765 983.44 441.924 981.271C440.575 980.661 439.783 977.517 439.376 976.054C434.49 975.951 423.953 975.689 419.592 975.22C407.289 973.885 370.101 967.773 360.655 962.807C358.767 959.607 355.191 957.676 352.125 960.57C348.199 960.43 330.546 955.189 325.576 953.788C305.354 948.108 285.228 942.088 265.207 935.738C256.047 932.807 245.193 929.571 236.386 926.055C237.593 922.515 238.723 919.492 235.849 916.36C230.751 915.257 229.334 921.071 227.693 924.916C222.921 920.406 188.222 907.098 179.742 902.503C170.921 897.725 162.682 892.284 154.165 886.738C151.572 885.05 148.052 882.918 145.371 881.26C143.31 879.993 144.281 883.283 141.596 884.02C137.713 881.449 138.242 877.531 138.564 873.442C136.526 871.882 132.059 868.646 131.405 866.379C128.397 855.953 132.545 853.485 140.986 857.866C141.093 857.281 141.404 853.795 140.988 853.582C130.724 848.329 125.066 844.125 123.498 832.291C121.292 815.643 122.251 799.805 122.341 783.157C122.341 766.704 122.134 750.25 121.72 733.803C120.45 672.391 117.231 613.22 117.98 551.453C119.167 545.037 118.874 541.368 118.364 535.008L112.273 531.821L112.812 530.22C104.877 526.369 99.8641 516.644 105.378 508.75C99.8068 505.558 86.1645 501.173 84.2109 495.509C84.5041 493.405 84.2103 494.189 85.7774 492.481C86.568 492.155 88.3283 491.568 89.0993 491.947C99.104 496.858 108.907 501.279 119.517 504.877C141.154 481.299 150.548 469.271 177.154 448.242L178.941 446.468ZM132.647 510.086C134.747 511.288 134.356 510.664 135.23 512.536C133.263 515.338 130.175 515.12 126.882 515.321C126.605 516.998 127.27 518.078 127.929 519.695C161.194 533.444 208.769 543.313 245 552.664C245.942 522.31 246.199 492.836 250.373 462.635C240.606 469.638 230.818 476.733 221.172 483.891C210.987 491.448 195.784 505.416 184.653 510.397C192.017 499.878 214.645 485.046 224.8 475.221C230.26 469.938 243.965 460.98 250.785 455.921C253.459 434.208 258.707 417.022 269.419 398.124C264.072 401.417 258.422 405.767 253.242 409.497C217.354 435.339 179.754 459.441 148.789 491.339C142.781 497.528 137.257 502.788 132.647 510.086ZM349.888 715.272C346.936 716.016 341.849 717.625 339.096 717.052C337.671 715.76 338.09 716.394 337.872 714.017C333.388 714.09 298.999 741.591 293.62 746.095C297.177 746.588 301.222 747.057 304.69 747.831C311.071 748.526 316.338 750.183 322.418 751.122C339.536 754.309 356.471 758.41 373.147 763.419C382.893 766.387 392.671 769.83 402.406 772.938C408.352 774.833 418.487 775.15 422.947 778.611L423.48 779.738C420.756 783.004 415.953 781.737 412.349 780.884C402.203 778.489 392.315 774.76 382.494 771.286C370.385 766.868 358.04 763.127 345.514 760.086C339.193 758.532 327.361 756.222 321.845 754.51C315.648 752.834 309.186 751.628 302.907 750.043L292.224 747.618C290.025 749.087 288.287 750.775 286.268 752.432C265.003 769.885 244.301 788.02 223.289 805.765C219.038 809.354 212.963 812.559 208.278 815.752C194.119 825.417 179.536 834.344 167.259 846.465C160.932 852.778 146.707 863.948 157.699 872.509C178.072 888.378 202.488 897.603 225.764 908.274C229.05 909.779 233.598 910.461 237.012 911.82C249.959 916.665 263.126 920.687 276.285 924.867C299.006 932.246 321.914 939.029 344.987 945.22C372.458 952.825 410.323 963.416 438.634 962.538C434.628 929.431 435.004 894.733 435.055 861.413C435.124 816.733 438.269 771.956 439.76 727.301C427.968 724.407 412.566 721.951 400.438 719.453C390.004 717.295 370.935 713.219 360.769 712.524C358.767 717.515 356.76 728.258 352.568 731.378L351.472 731.122C349.086 727.253 349.78 719.885 349.888 715.272ZM569.234 767.825C574.038 770.652 584.308 777.026 589.135 778.123C590.793 762.627 588.032 735.284 586.423 719.282C585.362 707.74 584.381 696.187 583.472 684.627C581.168 656.334 581.729 627.955 578.636 599.717C578.324 596.871 577.738 592.868 578.704 590.185C580.059 591.043 582.461 598.019 582.759 599.639C588.056 628.223 588.166 656.011 589.33 684.907C589.653 693.079 591.445 699.148 592.116 706.808C592.817 714.803 592.207 724.12 592.536 732.304C593.066 745.583 594.371 761.311 593.914 774.558C599.905 774.077 604.916 774.863 610.767 775.869C621.19 777.672 618.916 780.738 614.619 788.141C619.91 790.232 625.255 792.194 630.637 794.022C625.243 777.331 618.922 745.973 648.338 761.335C649.38 750.269 649.447 736.473 649.965 725.089C651.44 684.834 652.416 644.567 652.891 604.284C653.324 583.632 654.196 562.969 653.854 542.269C653.763 536.649 654.116 521.973 653.074 517.038C651.977 516.748 651.654 516.784 650.545 516.745C648.289 513.926 650.124 471.637 648.527 465.084C647.509 460.888 647.314 461.786 642.645 460.873L641.274 451.885L640.676 451.563C633.484 455.337 617.039 461.836 614.759 469.48C612.309 477.672 622.628 485.336 617.911 489.754C610.304 489.116 609.999 475.176 609.908 469.379C602.41 475.491 595.431 482.088 588.093 488.383C552.24 519.132 513.728 547.02 480.303 580.489C473.355 587.447 469.169 593.476 465.48 602.524C467.634 602.943 470.434 603.129 471.803 604.587C476.372 621.563 473.446 649.819 469.635 667.491C469.438 668.405 468.449 668.552 467.65 668.826C466.726 668.497 465.86 668.503 465.477 667.497C463.507 662.324 466.978 653.537 466.17 648.759C464.378 638.144 463.798 629.034 464.135 618.278C464.169 617.206 461.406 615.676 461.112 614.573C459.333 611.673 459.461 608.506 457.241 606.287C453.481 606.72 452.612 617.858 452.705 621.16C453.601 652.921 453.813 684.243 453.603 716.046C476.938 721.086 495.727 725.492 516.857 737.064C521.126 739.404 527.427 741.993 531.231 744.943C531.309 737.673 530.741 712.512 533.478 707.277L534.441 706.601C536.739 707.107 536.078 706.637 537.588 708.149C538.747 714.34 536.904 740.817 536.377 748.331C544.559 753.992 560.338 763.169 569.234 767.825ZM362.73 589.747C364.683 590.375 368.665 591.772 370.502 592.148C379.015 593.932 387.615 596.825 395.623 598.272C399.073 599.273 407.966 600.472 411.923 601.111C414.839 599.907 417.763 598.505 420.486 596.909C430.002 591.331 430.868 595.062 431.911 603.844C436.357 603.012 445.654 597.645 450.151 595.281C450.939 590.389 452.261 580.728 454.809 576.774C457.054 573.293 474.231 557.15 477.999 560.102C478.762 562.908 478.258 567.173 478.075 570.196C482.492 566.612 488.361 560.866 492.778 556.913C503.736 546.962 514.892 537.231 526.24 527.727C550.531 507.408 579.196 485.858 601.892 464.461C597.321 463.729 593.664 462.44 589.495 460.496C586.904 459.801 584.393 458.949 581.821 458.189C563.237 452.693 543.908 450.739 525.2 445.632C514.151 442.616 502.851 439.74 491.637 437.458C486.92 436.498 482.165 436.181 477.82 433.903L477.592 433.129C485.412 430.623 518.787 439.955 528.268 441.929C542.177 444.825 558.52 446.751 572.09 450.038C578.503 451.64 584.789 453.709 590.903 456.228C595.523 458.456 600.119 460.808 605.044 462.208C617.594 451.983 631.607 440.669 638.543 425.852C598.564 413.847 550.583 403.341 509.556 393.18C470.621 383.136 431.88 372.35 393.356 360.831C389.422 359.646 382.417 357.095 378.69 356.552C367.487 354.919 359.43 352.806 348.775 348.796C344.762 378.993 347.675 407.25 348.764 437.578C348.969 443.294 350.603 449.448 350.938 455.208C352.276 473.46 354.089 491.661 355.52 509.901L359.662 558.114C360.246 565.336 361.335 582.991 362.73 589.747ZM204.385 556.631C205.158 563.545 209.765 602.084 206.406 604.724C201.378 599.658 201.603 575.077 201.094 567.03C195.935 568.35 197.423 570.27 191.693 568.005C187.996 565.737 185.316 563.089 182.423 559.915C180.878 568.596 179.548 571.95 172.959 577.599C166.555 577.226 153.075 573.877 150.529 567.328L150.984 566.456C158.458 564.472 175.663 582.012 177.331 562.288C177.605 559.048 178.09 558.477 176.028 555.856L175.373 556.368C169.152 561.305 153.784 555.52 148.192 550.995C146.802 549.292 145.536 547.85 144.41 545.951C140.369 544.807 136.125 543.685 132.172 542.312C130.924 554.15 132.054 581.052 132.244 594.319C132.699 631.788 133.616 669.246 134.994 706.692C135.511 722.676 135.819 738.697 136.362 754.687C136.641 762.877 136.111 771.201 136.486 779.403C136.734 787.41 138.53 795.302 138.766 803.309C139.03 812.248 136.772 821.09 137.396 830.03C137.656 834.009 138.733 840.517 141.952 843.192C142.311 842.918 145.929 837.72 146.814 836.489C150.947 830.749 166.413 815.6 172.739 814.905L173.776 815.508C173.877 817.653 173.318 818.245 172.101 820.298C170.969 821.883 168.118 825.91 166.805 827.068C159.688 833.375 147.341 840.627 145.429 850.663L146.02 850.797C152.21 842.888 158.028 835.983 165.929 829.676C168.703 827.458 170.459 825.655 172.406 822.626C187.784 814.332 210.55 797.684 224.798 786.514C226.085 785.509 226.824 779.427 228.126 777.026C232.793 768.422 236.518 757.563 238.746 748.008C240.184 741.847 240.707 732.871 241.567 726.247C248.432 673.39 243.885 620.021 244.47 566.681C234.271 564.249 213.51 557.65 204.385 556.631ZM460.138 745.089C461.32 747.904 463.598 752.853 462.036 755.698L461.05 755.631C457.377 752.286 457.02 747.588 455.985 742.743C454.873 739.471 454.394 737.326 453.676 733.931C452.238 739.3 452.51 758.044 452.179 765.436C450.628 794.168 449.589 822.931 449.061 851.705C448.856 864.971 449.772 888.524 448.726 900.79L449.542 902.838C451.398 896.702 458.034 879.81 466.267 882.223C471.46 886.263 465.891 900.108 465.122 905.891C463.654 916.933 459.77 929.845 459.296 940.857C459.865 944.745 460.515 948.773 460.998 952.66C461.771 954.269 461.871 954.958 463.37 955.683C478.834 954.275 562.47 873.923 580.212 858.579C589.543 850.505 622.281 823.12 630.357 814.936C626.956 813.437 620.532 812.047 619.233 808.513C620.916 806.276 622.513 807.678 624.713 805.606C622.677 802.888 613.546 801.139 609.389 799.64C602.496 815.429 587.038 841.06 570.354 847.714C564.939 849.445 559.976 863.887 553.444 868.384C548.631 871.693 543.626 869.749 541.687 871.748C539.433 874.063 538.616 885.623 535.055 887.689L533.846 887.342C524.588 878.67 555.531 853.814 543.537 847.909C541.487 847.775 539.277 848.658 538.147 850.371C524.277 871.339 515.865 895.391 502.589 916.817C497.2 925.513 497.394 928.938 489.197 935.616C490.531 924.97 493.943 920.808 498.956 911.692C510.867 890.041 521.131 866.927 535.515 846.769C536.592 845.258 539.061 843.259 541.125 843.296C550.901 844.691 548.649 858.323 548.876 864.039L549.62 864.393C552.638 862.187 558.832 849.95 559.685 845.965C561.419 837.866 562.197 837.617 568.205 831.992C569.157 831.102 568.976 829.146 568.388 827.647C558.797 822.65 578.23 796.149 581.681 790.329C582.162 789.214 582.04 789.592 582.168 788.379C564.537 780.677 552.039 772.328 535.576 762.688C535.455 768.123 536.244 787.532 535.03 791.121C534.138 791.121 533.615 791.335 533.236 790.75C530.053 785.838 530.374 764.802 530.51 759.531C515.885 748.27 473.958 732.633 455.379 730.269C456.557 736.095 457.327 739.678 460.138 745.089ZM182.954 557.24C186.477 560.449 189.569 563.491 193.683 565.901C195.648 564.879 198.986 562.135 200.211 560.152C200.378 558.931 200.727 557.781 199.526 556.712C195.993 553.569 182.497 551.101 178.14 550.621L182.954 557.24ZM353.1 658.552C350.845 667.534 348.455 680.648 353.341 689.008L354.216 688.478C354.314 686.382 353.336 659.429 353.1 658.552ZM605.415 797.526C599.21 795.777 593.621 792.614 587.879 790.896C587.502 794.899 587.032 801.755 583.204 803.985L582.04 803.815C580.986 802.157 580.809 801.919 580.656 799.969C575.361 804.997 568.014 817.3 570.006 824.905C572.992 828.445 573.089 827.087 576.776 829.268C576.181 830.773 576.148 830.682 575.078 831.7C572.917 833.759 570.388 841.45 569.754 844.277C576.776 840.999 586.666 828.08 591.597 821.755C596.998 814.826 601.453 805.429 605.415 797.526ZM170.865 547.864C160.762 548.864 156.752 546.242 149.792 546.511L149.665 547.154C154.529 551.853 165.678 554.795 172.394 554.465C171.618 552.593 171.247 549.914 170.865 547.864ZM455.819 978.102C460.004 978.266 469.005 977.62 469.764 972.459C468.693 971.216 467.609 970.418 465.968 970.009L465.236 970.369C460.816 972.532 452.95 973.507 451.576 976.024C452.739 977.657 453.44 977.694 455.819 978.102ZM643.535 796.411C642.304 786.466 643.431 783.955 645.473 774.181C638.738 771.061 635.94 769.543 633.027 762.225C631.936 761.347 631.997 761.426 630.589 761.231C629.382 766.125 632.716 788.988 634.161 793.583C636.269 794.954 640.548 798.141 643.102 797.483L643.535 796.411ZM364.958 627.297C367.969 634.555 405.937 641.276 414.102 645.011C414.456 646.748 414.431 646.09 413.592 647.967C406.509 652.702 374.233 636.882 365.064 634.378C366.767 642.415 365.597 679.094 365.016 687.93C369.207 687.79 374.232 687.436 377.655 689.916C380.175 694.426 376.763 696.723 373.618 699.922C379.32 702.226 392.589 704.334 399.09 705.602C412.734 708.344 426.399 710.976 440.083 713.505C440.119 696.309 440.012 679.106 439.763 661.903C439.608 654.975 439.546 645.663 438.901 638.93C438.449 634.219 436.557 626.432 435.747 621.051C430.955 621.276 427.619 622.349 424.189 618.668C418.701 619.101 414.274 619.345 408.901 620.758C402.752 622.349 388.937 623.525 384.088 618.778C383.178 616.608 383.321 617.559 383.642 615.146C384.838 616.377 384.399 616.316 385.706 616.395C387.061 614.506 388.402 612.605 389.727 610.691L390.13 609.71C381.78 607.142 372.451 605.702 363.946 602.846C364.233 607.201 365.552 623.86 364.958 627.297ZM345.105 675.602C344.464 680.508 343.538 688.058 344.206 692.884L344.826 693.341C346.085 693.061 347.351 692.799 348.592 692.451L349.164 691.373C346.989 685.632 346.299 681.592 345.105 675.602ZM394.182 601.703C390.143 599.384 373.186 594.539 368.751 595.842C370.368 598.001 391.06 602.328 394.072 601.856L394.182 601.703ZM471.555 566.499C466.09 570.671 456.117 580.546 457.845 588.089L458.768 588.705C461.712 585.056 476.99 570.357 471.555 566.499ZM353.762 599.763C342.164 596.764 327.791 591.689 316.109 587.968C296.748 581.896 277.342 575.97 257.892 570.191C256.99 614.634 261.788 659.021 258.1 703.889C255.842 731.348 256.439 742.524 246.455 768.715C248.426 767.362 250.143 766.009 251.856 764.333C266.756 749.8 283.951 737.965 299.887 724.693C312.33 715.248 326.024 704.358 339.573 696.948C338.991 683.378 340.935 673.317 344.306 660.221C345.49 655.627 344.795 647.747 347.528 643.622C350.494 640.088 355.571 644.116 355.182 636.773C355.097 624.463 354.977 612.032 353.762 599.763ZM464.127 885.672C457.744 890.98 456.922 896.275 460.6 903.411L461.355 904.063C463.542 901.765 466.036 889.822 465.367 886.659C465.044 886.385 464.466 885.849 464.127 885.672ZM267.024 443.275C275.81 437.135 316.268 408.549 325.011 410.138C326.047 410.326 326.129 410.652 326.797 411.462C326.486 413.257 325.902 414.099 324.324 415.133C320.625 417.557 315.817 418.864 311.846 421.006C303.261 425.639 265.88 447.566 263.8 455.539C261.431 464.624 264.399 474.971 262.073 484.321C260.204 508.21 259.798 532.495 258.052 556.595L329.904 577.914C337.842 580.316 345.235 584.303 353.358 586.233C351.794 577.284 351.116 564.738 350.274 555.279C348.427 536.252 346.782 517.207 345.341 498.145C344.531 488.52 341.687 482.045 340.786 473.628C339.006 456.97 339.516 439.94 339.112 423.178C338.428 394.84 334.246 375.964 339.685 347.702L338.67 347.122C335.552 349.361 326.888 355.204 324.939 358.035C326.172 359.597 327.574 360.611 327.538 362.834C327.447 368.408 316.832 387.834 309.493 381.265C308.627 375.089 319.21 374.545 320.734 367.915L320.337 366.425C315.684 366.779 303.669 376.276 299.862 379.63C281.141 396.121 272.863 419.37 267.024 443.275ZM389.962 617.449C397.612 617.766 402.005 617.224 409.608 616.413L412.963 615.262C404.685 612.27 396.02 609.82 389.962 617.449ZM595.212 778.976C595.919 780.853 596.035 780.957 598.357 781.932C601.277 783.163 609.06 786.539 611.754 786.514C612.461 784.315 613.114 783.662 612.48 781.81C609.072 780.152 598.906 778.142 595.212 778.976Z" fill="#BB0102"/>
<path d="M105.378 508.749C99.8068 505.558 86.1645 501.173 84.2109 495.508C84.5041 493.405 84.2103 494.189 85.7774 492.48C86.568 492.155 88.3283 491.568 89.0993 491.947C99.104 496.858 108.907 501.279 119.517 504.876C123.23 506.859 128.494 509.712 132.647 510.086C134.747 511.288 134.356 510.664 135.23 512.536C133.263 515.338 130.175 515.119 126.882 515.321C126.605 516.998 127.27 518.078 127.929 519.695C125.117 528.554 122.033 530.699 112.812 530.22C104.877 526.369 99.8641 516.644 105.378 508.749Z" fill="black"/>
<path d="M113.916 510.942C117.616 512.063 120.281 515.883 119.929 519.793C119.748 521.813 118.464 522.231 116.964 523.32C110.156 524.398 110.466 515.635 113.916 510.942Z" fill="#BB0102"/>
<path d="M613.698 499.599C616.905 499.445 618.416 498.996 620.708 501.442C621.689 505.512 621.037 514.909 621.647 520.093C625.578 553.59 626.87 587.811 627.858 621.52C628.224 634.042 628.778 656.138 626.907 668.326C626.438 668.807 625.603 669.112 624.944 669.429C624.268 669.313 623.597 669.356 623.402 668.825C621.525 663.737 622.287 647.193 622.061 641.452C620.934 612.83 619.459 584.562 617.715 556.148C616.959 543.916 612.546 509.416 613.698 499.599Z" fill="#BB0102"/>
<path d="M220.639 567.913C222.809 568.248 223.448 568.153 225.065 569.48C226.939 574.839 225.828 587.221 225.995 593.491C226.963 629.99 227.255 666.717 230.275 703.109C230.753 708.88 234.129 712.012 229.293 717.107C228.273 716.753 226.56 716.394 225.845 715.626C221.127 710.525 218.122 586.513 218.766 572.272C218.866 570.072 219.052 569.365 220.639 567.913Z" fill="#BB0102"/>
<path d="M291.252 653.415C312.327 648.546 320.224 674.011 313.145 676.351C307.314 674.31 313.957 657.68 294.324 656.693C292.84 661.361 294.709 673.792 296.09 679.051C298.564 688.472 288.629 736.35 280.31 736.527C278.07 732.639 282.216 723.499 283.809 719.178C289.178 705.272 291.812 692.549 290.395 677.637C289.732 670.66 286.07 658.625 291.252 653.415Z" fill="#BB0102"/>
<path d="M568.39 827.647C568.743 826.404 569.222 825.996 570.008 824.905C572.994 828.445 573.09 827.086 576.778 829.268C576.183 830.773 576.15 830.682 575.08 831.699C572.919 833.759 570.39 841.449 569.756 844.277L570.356 847.714C564.941 849.444 559.978 863.887 553.445 868.384C548.633 871.693 543.628 869.749 541.689 871.748C539.434 874.063 538.618 885.623 535.057 887.689L533.848 887.341C524.589 878.67 555.533 853.814 543.538 847.909C541.488 847.775 539.279 848.658 538.148 850.371C524.279 871.339 515.867 895.391 502.591 916.817C497.202 925.513 497.395 928.937 489.199 935.616C490.533 924.97 493.945 920.808 498.958 911.692C510.869 890.041 521.133 866.927 535.516 846.769C536.593 845.258 539.063 843.259 541.126 843.296C550.903 844.691 548.65 858.323 548.878 864.039L549.621 864.392C552.64 862.186 558.834 849.95 559.686 845.965C561.42 837.866 562.199 837.616 568.207 831.992C569.159 831.102 568.978 829.146 568.39 827.647Z" fill="#BB0102"/>
<path d="M589.497 460.496C586.906 459.801 584.395 458.949 581.823 458.189C563.239 452.693 543.911 450.739 525.202 445.633C514.153 442.616 502.853 439.74 491.639 437.458C486.923 436.498 482.167 436.181 477.822 433.903L477.594 433.129C485.414 430.623 518.79 439.955 528.27 441.929C542.179 444.825 558.523 446.751 572.092 450.038C578.505 451.64 584.791 453.709 590.905 456.228C591.551 457.538 592.167 458.866 592.74 460.211L590.887 459.519L589.497 460.496Z" fill="#BB0102"/>
<path d="M322.42 751.122C339.538 754.309 356.473 758.41 373.149 763.419C382.895 766.386 392.674 769.829 402.408 772.937C408.354 774.832 418.489 775.149 422.949 778.61L423.483 779.738C420.759 783.004 415.956 781.737 412.352 780.883C402.205 778.489 392.317 774.759 382.496 771.286C370.387 766.868 358.042 763.126 345.517 760.085C339.195 758.532 327.363 756.222 321.848 754.51L322.42 751.122Z" fill="#BB0102"/>
<path d="M605.415 797.525C607.451 798.19 607.707 798.318 609.389 799.64C602.496 815.429 587.038 841.059 570.354 847.714L569.754 844.277C576.776 840.998 586.666 828.079 591.597 821.754C596.998 814.826 601.453 805.429 605.415 797.525Z" fill="#920000"/>
<path d="M364.959 627.297C367.97 634.555 405.937 641.276 414.103 645.011C414.457 646.748 414.432 646.09 413.592 647.967C406.51 652.702 374.234 636.882 365.065 634.378C364.423 632.946 364.962 629.405 364.959 627.297Z" fill="#BB0102"/>
<path d="M449.541 902.838C449.694 904.391 449.325 910.534 449.322 912.606C449.312 922.685 448.826 932.776 449.851 942.825C450.222 946.463 452.478 956.377 451.237 959.241C449.505 958.413 446.083 950.509 445.788 948.638C444.197 938.175 444.636 926.414 446.194 915.963C446.446 914.276 448.381 901.741 448.726 900.79L449.541 902.838Z" fill="#920000"/>
<path d="M389.73 610.691C389.451 613.269 388.224 615.548 389.965 617.449C397.614 617.766 402.008 617.224 409.611 616.413L408.904 620.758C402.754 622.349 388.939 623.525 384.09 618.778C383.18 616.608 383.323 617.559 383.645 615.146C384.84 616.377 384.402 616.316 385.709 616.395C387.064 614.506 388.404 612.605 389.73 610.691Z" fill="#920000"/>
<path d="M581.68 790.329C580.979 793.175 579.76 796.813 580.839 799.537L580.656 799.969C575.361 804.997 568.013 817.3 570.006 824.905C569.22 825.996 568.741 826.404 568.388 827.647C558.796 822.65 578.23 796.149 581.68 790.329Z" fill="#920000"/>
<path d="M149.664 547.154C154.529 551.853 165.677 554.795 172.393 554.465L176.028 555.856L175.373 556.368C169.152 561.305 153.783 555.52 148.191 550.995L149.664 547.154Z" fill="#640001"/>
<path d="M172.101 820.298L172.407 822.626C170.459 825.654 168.703 827.458 165.93 829.676C158.029 835.983 152.211 842.887 146.021 850.797L145.43 850.663C147.342 840.627 159.688 833.375 166.806 827.068C168.119 825.91 170.969 821.882 172.101 820.298Z" fill="#640001" fill-opacity="0.027451"/>
<path d="M370.505 592.148C379.018 593.932 387.618 596.824 395.625 598.272L393.463 600.017C393.664 600.517 393.925 601.264 394.184 601.702C390.146 599.384 373.189 594.539 368.754 595.842C369.248 594.999 370.055 593.114 370.505 592.148Z" fill="#920000"/>
<path d="M304.69 747.831C311.07 748.526 316.337 750.183 322.417 751.122L321.845 754.51C315.647 752.834 309.185 751.627 302.906 750.043C304.161 749.866 303.688 750.013 304.774 749.245L304.69 747.831Z" fill="#640001"/>
<path d="M590.904 456.228C595.524 458.455 600.12 460.808 605.045 462.208C603.85 463.363 603.43 463.98 601.894 464.461C597.322 463.729 593.665 462.439 589.496 460.496L590.886 459.519L592.739 460.21C592.166 458.866 591.55 457.538 590.904 456.228Z" fill="#920000"/>
<path d="M455.984 742.743C457.711 743.547 458.641 743.888 460.138 745.089C461.32 747.904 463.598 752.852 462.036 755.698L461.05 755.631C457.377 752.286 457.02 747.587 455.984 742.743Z" fill="#640001"/>
<path d="M345.107 675.602C346.301 681.592 346.991 685.632 349.166 691.373L348.594 692.451C347.353 692.799 346.087 693.061 344.828 693.341L344.208 692.884C343.54 688.058 344.466 680.508 345.107 675.602Z" fill="#360001" fill-opacity="0.0196078"/>
<path d="M460.999 952.66C460.177 952.514 458.739 952.429 458.338 951.911C456.684 949.778 454.862 941.954 454.617 939.309C456.659 938.974 454.886 940.071 459.297 940.857C459.866 944.745 460.516 948.773 460.999 952.66Z" fill="#D41217"/>
<path d="M424.191 618.668L424.734 618.546C427.935 617.815 431.76 615.95 434.419 616.212C436.423 617.608 436.191 618.656 435.749 621.05C430.958 621.276 427.622 622.348 424.191 618.668Z" fill="#920000"/>
<path d="M182.957 557.24C186.48 560.449 189.572 563.491 193.686 565.901L191.695 568.005C187.999 565.736 185.319 563.089 182.426 559.915L182.957 557.24Z" fill="#640001"/>
<path d="M453.676 733.931C454.088 732.018 454.149 731.774 455.379 730.269C456.557 736.095 457.326 739.678 460.137 745.089C458.641 743.889 457.71 743.547 455.984 742.743C454.873 739.471 454.394 737.326 453.676 733.931Z" fill="#360001"/>
<path d="M293.622 746.094C297.18 746.588 301.224 747.057 304.693 747.831L304.777 749.245C303.69 750.013 304.164 749.866 302.909 750.043L292.227 747.618L293.622 746.094Z" fill="black"/>
<path d="M216.806 339.245C222.309 339.876 221.884 343.698 224.176 348.308C229.326 358.663 237.286 367.399 243.108 377.325C243.89 378.659 243.531 379.928 243.029 381.246C240.963 382.524 239.739 382.127 237.067 381.953C234.654 388.771 231.326 398.223 222.133 395.901C218.499 394.982 217.716 394.498 215.042 391.954C211.255 406.376 201.373 412.642 189.408 400.882C183.766 391.659 187.872 373.75 202.304 380.439C208.947 383.519 198.775 394.57 199.696 398.114L201.536 398.697C207.696 396.713 203.982 388.413 212.441 387.802C215.103 380.964 204.325 373.474 222.031 362.387C219.525 358.386 213.403 348.235 213.687 343.396C213.799 341.494 215.39 340.363 216.806 339.245ZM225.376 388.544C229.902 384.352 230.252 375.318 226.571 370.535C225.024 369.579 224.829 369.677 222.928 369.698C221.643 370.984 220.458 372.109 219.925 373.947C218.685 378.219 219.278 388.454 225.376 388.544Z" fill="black"/>
<path d="M126.361 882.198C128.794 882.259 129.881 882.808 131.359 884.569C132.014 887.823 130.152 888.676 129.749 891.406C128.702 898.505 130.186 915.141 129.547 921.405C128.596 923.02 128.511 923.039 126.879 924.044C122.934 923.605 123.963 919.273 121.809 918.09C110.299 926.872 104.016 924.385 100.495 910.601L94.6281 913.703L87.9825 912.399C76.3899 905.269 86.7396 887.451 97.0205 893.228C98.0676 893.807 98.804 894.818 99.0276 895.988C99.653 899.2 97.4191 902.545 95.8557 905.196C97.5727 905.172 98.1256 905.233 99.8304 905.495C100.489 906.604 100.495 906.628 101.407 907.542C106.358 900.431 110.77 895.891 119.884 896.988C121.879 890.382 121.174 886.366 126.361 882.198ZM110.791 915.939C115.396 914.032 117.947 909.943 116.42 904.958L115.56 904.099C110.748 906.86 105.793 910.504 110.791 915.939Z" fill="black"/>
<path d="M97.1161 769.202C99.5438 769.726 100.445 770.585 101.037 773.011C100.859 775.211 100.208 775.905 98.941 777.642L98.5064 778.233L98.7125 779.391C111.648 790.14 101.319 808.665 87.3808 803.577C77.9265 800.128 75.8578 789.165 79.4198 780.786C70.4616 778.995 60.7745 779.537 51.8943 777.636C49.5879 777.142 49.1734 776.289 48.2305 774.601C49.1899 766.161 86.6628 773.687 93.9216 774.699L97.1161 769.202ZM96.1049 794.82C97.53 792.352 97.6062 793.016 97.544 790.475C95.5326 786.588 91.0544 785.454 86.9176 784.132C86.2526 783.925 85.5851 783.717 84.9147 783.529C83.5371 791.779 86.5646 800.14 96.1049 794.82Z" fill="black"/>
<path d="M117.982 551.453C105.657 562.891 102.129 554.217 96.535 558.853C92.0715 567.612 105.227 569.533 106.077 575.527C101.969 581.962 87.6464 578.311 85.3984 572.546C85.9299 570.857 87.1283 569.999 88.7112 569.072C90.6129 567.959 88.2315 563.148 88.3016 559.946C88.3949 555.742 92.2349 552.313 91.9709 551.414C90.3825 546.212 88.2016 541.349 89.9223 535.831C91.3242 531.337 98.1021 530.008 102.032 531.738C110.852 535.619 104.356 544.887 106.044 549.992L107.302 550.255C113.375 547.273 107.612 539.291 112.275 531.821L118.366 535.008C118.877 541.368 119.169 545.037 117.982 551.453Z" fill="black"/>
<path d="M284.566 286.046C285.169 286.204 285.749 286.349 286.315 286.613C288.382 287.575 309.983 323.897 311.044 327.143C311.519 328.596 311.195 329.15 310.626 330.458C308.535 331.487 308.007 330.964 305.343 330.653C301.653 332.63 303.757 334.123 299.201 338.669C284.899 345.609 280.505 331.288 284.301 320.384C286.119 315.162 288.376 313.786 293.2 311.545C289.89 305.814 282.741 297.45 282.006 290.948C281.786 289.003 283.307 287.391 284.566 286.046ZM294.983 331.942C296.245 328.328 297.518 325.736 296.325 322.032C294.738 320.313 295.524 320.862 293.107 320.092C292.064 323.504 290.952 327.424 291.848 330.971L292.747 332.104C293.292 332.073 294.51 332.038 294.983 331.942Z" fill="black"/>
<path d="M90.7422 664.066C102.538 663.554 104.8 673.877 103.067 683.371C102.374 687.168 100.632 689.069 98.2765 692.012C102.406 699.69 120.111 725.765 95.3252 725.924C90.4228 725.954 85.0584 721.378 82.0717 717.484C79.6757 713.389 78.1988 706.594 82.9653 703.718C85.5746 705.272 87.149 716.442 93.6161 718.282C96.0091 715.796 92.2672 706.314 92.2611 702.237C92.2568 699.13 92.3056 697.984 92.7061 694.779L89.8724 690.684C93.7423 687.57 96.9934 684.803 97.7736 679.447C98.6763 673.256 92.7457 669.605 90.3393 666.321L90.7422 664.066Z" fill="black"/>
<path d="M352.124 960.57C355.191 957.676 358.767 959.607 360.655 962.806C357.393 967.316 354.241 979.832 352.89 985.299C351.701 990.113 353.202 996.816 348.122 998.857C341.953 997.809 343.471 991.593 344.132 986.816C331.339 996.462 318.293 992.203 326.528 975.189C330.043 967.931 340.306 966.932 347.314 972.636C348.98 968.638 350.584 964.616 352.124 960.57ZM333.623 984.001C335.836 982.319 338.236 980.746 339.805 978.48L339.938 977.255C338.764 976.664 339.238 976.743 337.989 976.688C335.579 978.084 332.17 979.753 331.53 982.66C332.52 984.055 331.866 983.592 333.623 984.001Z" fill="black"/>
<path d="M154.433 429.15C150.788 423.775 143.044 418.633 143.165 412.574C144.171 410.41 147.427 408.699 148.434 410.232C154.192 419.001 177.699 437.201 178.942 446.468L177.156 448.242C174.014 449.97 174.057 449.412 171.67 447.136C168.509 447.757 168.362 454.872 162.639 455.159C153.807 455.601 149.519 448.207 149.323 440.374C149.186 434.896 150.86 432.87 154.433 429.15ZM162.98 448.075C165.028 443.409 162.64 437.093 158.41 434.738C156.216 440.248 156.701 445.753 162.98 448.075Z" fill="black"/>
<path d="M98.9039 628.521C101.881 629.119 104.793 630.758 105.729 633.695C105.386 635.858 104.252 636.797 102.807 638.497C107.823 644.14 113.806 651.988 103.377 657.893C98.8746 660.447 92.6605 659.466 87.8691 657.741C84.0449 653.506 82.1566 650.94 83.9505 645.066C84.6965 644.054 85.0817 643.719 85.2353 642.452C78.9584 639.704 61.8095 646.157 58.4297 640.788C59.7603 630.502 92.9842 638.917 97.538 634.237C97.5532 631.648 97.4794 630.855 98.9039 628.521ZM96.094 652.909C98.2352 652.506 99.8669 652.513 101.258 650.977C102.159 647.424 99.8858 644.767 96.8504 642.982C94.4068 644.298 92.0205 645.224 90.6954 647.601C90.0469 651.294 92.9513 652.049 96.094 652.909Z" fill="black"/>
<path d="M504.641 968.352C514.739 967.761 520.121 972.989 513.717 982.824C512.575 984.579 510.195 986.359 508.684 988.029L509.223 988.766C517.494 990.527 518.689 978.571 524.276 982.246C526.496 987.98 523.424 993.135 518.099 995.506C514.596 997.096 510.604 997.23 507 995.883C502.773 994.25 501.475 991.794 499.862 987.998L499.358 986.456L498.538 986.048C497.351 986.773 492.643 989.625 492.154 990.503C489.564 995.146 494.376 1002.11 490.111 1006.77L488.661 1006.81C487.932 1006.47 486.072 1005.6 485.701 1005.04C484.458 1003.12 478.026 993.543 478.09 991.91C480.202 990.405 483.527 990.832 483.762 990.594C489.532 984.726 487.581 979.899 497.944 982.367C500.942 978.662 496.999 973.696 504.641 968.352Z" fill="black"/>
<path d="M698.522 799.823C699.918 800.14 700.497 800.512 701.741 801.158C703.478 803.388 707.854 818.135 710.359 823.199C713.236 829.024 717.576 837.068 720.788 843.101C721.392 844.235 720.423 845.539 719.758 846.434C717.954 847.3 717.692 847.598 715.857 847.214C714.151 845.654 710.506 836.648 708.982 833.68L708.378 833.765L708.64 835.6C708.726 840.676 707.208 848.074 702.393 850.761C700.4 851.87 698.023 852.041 695.895 851.236C686.283 847.677 688.581 831.431 700.406 827.367C699.333 819.963 697.334 813.041 696.426 805.679C696.06 802.712 696.615 802.096 698.522 799.823ZM698.516 844.679C700.863 842.711 702.07 836.879 700.662 834.149C698.516 837.074 697.084 838.939 697.242 842.754C697.852 843.936 697.626 843.765 698.516 844.679Z" fill="black"/>
<path d="M227.696 924.916C229.337 921.07 230.754 915.257 235.852 916.36C238.726 919.492 237.596 922.515 236.389 926.055C234.527 931.948 232.407 938.371 231.002 944.397C230.388 947.7 233.153 951.771 231.345 954.769C229.795 957.334 227.268 956.993 225.021 955.378C223.718 953.008 224.009 949.729 223.608 946.713C221.566 946.414 219.183 948.437 216.91 948.45C201.651 948.303 202.261 932.642 214.196 927.006C219.177 924.654 224.945 926.183 227.696 924.916ZM213.552 940.199C217.303 939.608 220.658 937.877 219.846 933.422C216.958 934.909 214.655 935.866 213.452 939.041L213.552 940.199Z" fill="black"/>
<path d="M386.29 984.494C389.666 986.018 388.908 985.323 390.575 989.156C392.682 990.661 397.473 989.375 400.134 990.1C407.613 992.13 402.06 998.79 411.654 995.079C414.161 994.11 418.17 993.933 420.464 996.164C421.743 998.528 421.676 1000.53 421.117 1003.09C419.762 1009.29 415.402 1006.94 411.633 1009.41C415.17 1014.55 421.063 1007.94 423.925 1014.64C423.798 1017.04 423.633 1017.3 422.269 1019.3C418.763 1020.4 414.461 1020.66 410.94 1019.52C407.932 1018.57 405.446 1016.43 404.065 1013.6C401.779 1008.94 402.368 1003.8 403.938 999.046C400.395 998.156 396.403 997.571 392.772 996.956C391.43 1000.14 389.143 1010.09 383.874 1007.14C380.636 1002.04 382.478 994.884 383.172 989.235C383.521 986.402 384.183 986.188 386.29 984.494Z" fill="black"/>
<path d="M527.352 938.096C536.526 939.473 536.183 953.587 541.22 960.387C544.34 964.604 551.568 970.74 547.269 975.902C544.256 976.487 545.217 975.049 542.08 974.854C540.869 977.736 540.527 978.528 538.751 981.1C524.564 989.686 514.006 965.902 530.033 957.743C528.791 952.276 526.671 947.499 525.684 942.027C525.34 940.119 526.28 939.443 527.352 938.096ZM533.679 974.098C533.963 970.692 532.926 967.096 529.416 965.999C529.676 968.729 529.647 971.167 531.144 973.446C532.631 974.384 531.824 974.135 533.679 974.098Z" fill="black"/>
<path d="M607.642 873.045L611.208 873.259C615.102 875.075 620.655 893.191 624.745 898.188C628.122 902.32 629.743 901.674 631.614 904.319C631.962 906.317 631.846 906.445 631.2 908.438C627.799 911.15 625.861 907.292 622.258 907.774L621.825 909.376C618.193 918.444 612.091 918.919 605.85 912.131C605.472 910.632 605.185 909.108 604.997 907.579C604.046 900.016 605.222 894.361 609.873 888.426C608.178 883.831 604.795 877.378 607.642 873.045Z" fill="black"/>
<path d="M341.268 249.95C352.888 248.264 354.745 260.609 349.274 264.21C346.322 262.079 347.335 255.979 343.261 255.904C335.645 261.787 339.185 279.092 340.693 287.253C343.301 288.098 347.64 288.945 348.71 291.474C347.843 293.166 345.208 294.137 343.343 295.095C343.972 300.514 344.607 303.959 346.143 309.169C347.614 312.971 348.474 314.846 345.24 318.031C339.076 319.07 337.056 299.898 336.212 295.527C332.957 297.079 330.017 299.083 327.215 295.945C327.411 291.376 330.94 290.936 334.657 290.099C331.577 276.446 327.158 258.488 341.268 249.95Z" fill="black"/>
<path d="M513.119 297.666C516.073 298.153 515.291 297.631 517.12 299.285C519.496 304.079 515.191 319.353 513.861 325.243C523.996 331.415 530.285 342.536 515.734 348.297C512.387 348.099 505.172 348.038 502.445 346.852C501.126 343.328 511.002 301.47 513.119 297.666ZM514.861 340.701C516.717 338.714 516.393 339.587 516.65 337.33C515.959 335.418 514.021 333.687 512.159 332.936C511.704 335.793 511.543 336.857 510.584 339.625L510.878 340.958C512.245 341.592 513.329 341.081 514.861 340.701Z" fill="black"/>
<path d="M441.754 984.665L442.208 984.647C445.02 984.567 446.197 984.433 448.201 986.31C448.741 987.992 451.251 1019.33 451.283 1022.18C450.716 1023.34 450.026 1023.63 448.948 1024.35C446.649 1024.04 445.811 1022.28 443.413 1020.22C441.611 1020.18 441.394 1020.81 439.668 1022.07C428.97 1024.87 423.745 1011.74 429.6 1004.07C432.142 1000.73 434.817 1001.12 438.496 1000.61C438.939 1000.55 439.522 1000.37 439.976 1000.28C441.37 995.573 438.796 988.851 441.754 984.665Z" fill="black"/>
<path d="M188.807 912.917C203.557 910.778 207.214 925.056 193.296 929.73C190.36 930.717 186.793 930.248 183.521 931.338C184.912 938.072 192.851 933.014 198.226 939.51C196.979 950.643 180.273 943.032 176.535 935.196C175.002 931.917 174.812 928.164 176.007 924.739C178.019 919.041 183.611 915.391 188.807 912.917Z" fill="black"/>
<path d="M624.097 335.197C624.395 335.176 624.688 335.161 624.987 335.151C631.155 334.97 637.988 341.981 632.325 347.558C629.357 346.766 630.838 342.548 625.651 341.754C618.69 344.159 611.851 354.699 608.091 360.98C611.595 362.612 614.229 363.554 614.673 367.651C611.864 371.237 608.267 368.007 605.342 366.086C603.763 368.704 602.227 372.088 600.874 374.891C599.448 377.87 598.728 381.345 596.894 383.311C595.54 383.805 595.059 384.087 593.602 383.261C588.129 380.161 597.18 367.42 599.509 363.014C596.376 362.522 593.212 362.667 591.566 359.729L591.987 358.436C595.254 356.338 597.515 357.424 601.471 358.25C606.707 349.388 614.375 339.06 624.097 335.197Z" fill="black"/>
<path d="M689.563 726.162C692.324 726.472 691.922 726.046 693.97 727.514L694.08 727.953C694.226 728.52 694.762 730.464 695.158 730.695C705.484 736.679 716.656 741.615 727.122 747.35C729.341 748.562 731.992 750.396 732.565 752.663C731.51 754.711 732.132 754.028 730.255 755.284C727.914 755.247 727.061 754.674 724.934 753.73C721.106 751.944 708.946 744.412 706.355 744.626C704.38 752.548 699.529 754.187 692.586 749.385C684.985 744.12 688.161 736.027 687.777 728.465C687.777 728.465 689.411 726.357 689.563 726.162ZM698.651 745.601C697.834 742.365 697.566 740.08 694.482 738.264C694.829 741.408 694.848 744.766 698.651 745.601Z" fill="black"/>
<path d="M694.48 738.264C697.565 740.08 697.833 742.365 698.65 745.601C694.846 744.766 694.828 741.408 694.48 738.264Z" fill="black" fill-opacity="0.01"/>
<path d="M709.719 464.172C712.273 464.272 713.882 465.676 713.864 468.211C712.121 472.225 706.922 474.757 703.179 476.865C708.549 486.833 704.739 499.607 691.385 494.059C686.551 490.972 683.443 484.331 683.309 478.704C683.528 478.24 683.747 477.777 683.967 477.314C692.592 473.378 702.222 469.817 709.719 464.172Z" fill="black"/>
<path d="M393.442 248.292C395.004 248.802 395.484 249.093 396.936 249.896C400.488 254.458 393.42 295.775 393.011 303.679C392.668 310.302 396.488 312.867 391.394 317.325C389.799 317.025 389.355 316.794 387.844 316.151C382.435 310.319 391.479 261.995 390.955 252.24C390.888 250.989 392.535 249.192 393.442 248.292Z" fill="black"/>
<path d="M416.532 256.77L419.901 258.096C420.843 259.232 421.473 259.831 421.295 261.493C419.508 277.506 415.449 293.333 412.968 309.286C412.126 314.704 415.089 321.751 411.606 324.892C406.24 324.469 405.441 321.921 405.482 316.987C405.588 304.391 409.035 292.153 411.044 279.782C412.139 273.043 413.07 266.163 414.555 259.517C414.751 258.648 415.872 257.424 416.532 256.77Z" fill="black"/>
<path d="M308.902 954.269C309.823 954.226 310.75 954.208 311.671 954.281C314.365 954.488 316.836 955.859 318.443 958.029C319.927 960.046 320.227 962.623 319.73 964.933C317.414 975.67 307.822 972.215 305.38 973.824C308.381 978.918 313.012 974.707 317.325 981.423C307.304 994.219 283.539 972.879 308.902 954.269Z" fill="black"/>
<path d="M98.8143 803.955C106.043 804.856 106.672 812.906 106.578 818.921C106.327 834.984 89.6842 836.142 80.7748 825.99C76.5447 821.169 76.3826 816.496 76.8221 810.402L78.3184 809.232C81.6446 809.049 81.3758 812.273 82.3834 815.191C84.6471 821.748 86.0527 822.717 91.962 826.471C91.6865 825.569 91.4244 824.667 91.1757 823.765C90.2956 820.523 89.0985 814.034 90.8503 810.999L91.9035 810.889C95.7722 813.394 97.1125 818.555 99.0837 822.87C99.856 815.77 97.8781 808.135 98.8143 803.955Z" fill="black"/>
<path d="M698.174 688.179C701.844 688.307 708.158 688.045 707.799 693.213C703.745 697.746 699.753 692.286 695.438 695.735C695.736 699.337 702.063 701.915 704.422 704.675C715.692 717.874 697.827 710.97 693.042 715.095L693.371 716.174C697.144 719.708 699.192 720.013 704.172 721.384C705.135 722.219 705.318 722.81 705.976 723.943C705.665 725.796 706.043 725.107 704.269 726.417C690.695 728.538 675.707 708.813 697.888 706.649C697.37 706.326 696.858 705.997 696.352 705.656C687.587 699.763 684.637 690.099 698.174 688.179Z" fill="black"/>
<path d="M691.682 556.714C697.801 561.009 697.112 572.844 695.314 579.028C694.997 580.107 694.961 581.74 695.65 582.61C703.007 582.452 698.301 580.278 702.037 577.817L703.037 578.125C706.645 582.813 711.832 588.224 711.168 594.629L709.65 595.123C707.487 594.278 706.121 592.996 704.299 591.553C702.537 592.676 701.806 593.341 699.892 592.551C698.904 590.783 699.136 590.239 699.423 588.214L699.52 587.565C694.687 587.769 689.951 590.457 686.635 586.245C686.36 584.029 686.123 584.723 687.11 583.099L689.56 582.874C689.384 578.93 689.871 574.667 690.207 570.707C686.988 569.469 676.87 567.106 674.749 565.352C673.951 564.705 673.439 563.768 673.329 562.746C673.17 561.166 673.286 561.432 674.213 560.288C677.955 559.239 686.69 563.474 690.81 565.131C690.438 561.432 690.621 560.19 691.682 556.714Z" fill="black"/>
<path d="M677.024 836.05C684.576 835.8 685.667 838.762 685.106 845.636C684.71 850.498 677.621 853.789 673.916 856.312C673.16 858.195 674.098 861.303 675.281 862.899C680.145 865.13 682.15 859.462 686.972 859.883C688.672 861.772 688.13 860.925 688.776 863.752C674.72 885.166 653.746 853.643 677.024 836.05Z" fill="black"/>
<path d="M589.643 903.721C592.666 903.38 595.635 904.062 598.018 906.049C602.339 912.71 593.392 920.54 592.898 922.929L593.91 923.703C598.798 923.94 598.786 919.291 603.187 916.165C605.399 915.769 604.808 915.525 606.265 916.469C607.136 918.614 607.38 919.047 607.374 921.338C598.036 946.926 569.331 917.749 589.643 903.721Z" fill="black"/>
<path d="M370.033 283.117C379.912 283.677 375.205 292.521 376.825 299.525C377.806 303.768 380.025 304.252 377.591 308.263C373.536 310.185 372.934 305.384 371.168 306.026C364.036 308.615 361.917 314.019 355.937 303.375C354.336 298.715 351.137 288.35 356.714 285.167C364.113 285.477 358.667 296.216 363.908 301.452C368.391 300.088 367.018 288.071 370.033 283.117Z" fill="black"/>
<path d="M478.364 311.748C490.465 312.025 476.454 330.393 485.837 334.424C489.35 330.859 490.51 321.035 495.734 320.473C499.934 323.219 497.254 330.715 496.395 334.719C494.01 340.632 499.845 341.458 494.49 346.104C490.616 346.596 491.323 342.445 489.378 340.982C487.457 341.012 482.946 341.807 481.31 340.821C472.613 335.584 474.498 319.25 478.364 311.748Z" fill="black"/>
<path d="M543.44 329.013C549.232 328.782 555.834 331.149 553.308 338.057C550.452 345.867 542.452 341.837 538.07 343.647C540.827 349.435 548.633 345.906 553.589 348.184C552.74 360.365 533.609 354.023 531.769 345.443C530.72 340.554 531.753 338.446 533.895 334.204C537.398 332.064 539.737 330.777 543.44 329.013Z" fill="black"/>
<path d="M463.103 301.108C467.868 301.048 472.667 301.462 473.594 307.089C472.964 308.697 473.041 308.643 471.598 309.56C470.847 309.408 470.227 309.293 469.62 308.899C459.268 302.189 449.376 328.613 461.719 329.86C464.923 330.184 465.211 328.374 469.424 330.404C469.733 333.126 469.78 333.633 468.066 335.584C453.632 342.365 444.382 324.987 450.79 312.847C454.345 306.113 456.016 303.989 463.103 301.108Z" fill="black"/>
<path d="M138.64 443.664C153.193 442.339 146.912 454.735 144.514 461.881L145.022 462.666C148.393 462.36 149.23 458.286 153.377 458.258C156.318 461.468 154.797 464.649 152.618 467.51C146.268 471.889 131.619 469.316 132.02 461.554L132.583 461.097C139.602 455.309 128.336 450.426 138.64 443.664Z" fill="black"/>
<path d="M272.012 326.571C287.041 326.241 275.637 339.881 275.306 344.003C278.54 345.272 282.311 339.207 287.809 341.441C288.436 343.992 287.383 345.469 286.168 347.887C279.187 354.907 270.472 354.207 266.401 344.57C264.672 340.476 265.015 337.237 265.063 332.894C267.353 329.092 268.268 328.441 272.012 326.571Z" fill="black"/>
<path d="M687.501 751.286C690.469 751.463 693.334 752.456 695.772 754.15C711.583 765.034 688.969 788.245 689.049 759.598L687.964 759.628C684.587 763.541 687.915 771.164 685.788 776.124L684.691 776.447C676.261 772.029 678.236 756.204 687.501 751.286Z" fill="black"/>
<path d="M699.416 498.537C706.505 497.897 719.073 502.515 717.141 510.864C710.022 520.527 704.408 509.417 700.269 507.736C699.245 509.466 699.654 509.893 699.776 512.173C701.952 516.346 707.718 518.595 706.041 522.92C700.495 525.39 683.276 508.27 699.416 498.537Z" fill="black"/>
<path d="M277.51 946.049C282.423 946.999 281.875 947.389 284.125 951.399C285.945 951.472 287.218 949.973 289.033 948.639C294.432 949.303 301.711 950.119 299.167 957.718C295.122 961.149 294.448 955.165 287.823 957.682C283.475 962.289 281.857 971.131 276.307 970.936C269.47 967.456 275.883 952.045 277.51 946.049Z" fill="black"/>
<path d="M126.445 450.779C127.711 450.901 128.104 451.066 129.313 451.398C132.648 454.988 128.007 459.445 127.322 464.354C126.969 466.881 127.206 470.209 127.31 472.778C129.986 475.323 134.618 480.263 132.359 484.255C130.75 485.256 130.541 485.328 128.649 485.257C123.495 480.881 114.606 477.232 117.055 469.753C119.622 461.912 119.08 455.721 126.445 450.779Z" fill="black"/>
<path d="M90.2112 836.654C98.3355 836.453 93.4447 841.986 97.3542 846.398C101.924 851.553 113.29 845.374 118.048 850.267L117.884 851.717C116.048 854.252 115.524 854.496 112.842 856.123C108.723 857.72 94.9051 857.763 90.8171 856.428C88.012 853.235 91.6826 851.602 91.3565 850.541C89.5389 844.624 82.6135 844.527 90.2112 836.654Z" fill="black"/>
<path d="M645.445 406.39C643.525 404.87 642.275 404 641.879 401.652C642.921 397.248 660.451 373.273 664.462 367.842C665.285 366.732 666.711 366.572 668.058 366.624L668.71 367.445C669.234 369.681 668.643 373.456 667.564 375.3C661.378 385.859 652.954 393.989 647.157 404.898L645.445 406.39Z" fill="black"/>
<path d="M178.985 392.949C191.353 393.221 180.509 400.758 182.528 406.437C184.28 411.364 192.114 414.528 192.884 419.833C192.047 422.19 192.44 421.366 190.101 423.283C185.244 422.228 176.39 415.254 173.464 411.38C170.551 407.523 175.105 395.751 178.985 392.949Z" fill="black"/>
<path d="M628.001 362.741C635.735 366.243 628.659 373.85 630.231 381.711C631.511 382.357 635.839 376.848 640.222 375.588C644.549 376.568 641.495 383.104 640.49 385.898C639.984 387.33 639.496 390.511 639.228 392.144C637.631 393.714 638.326 393.493 636.455 393.656C635.54 393.078 634.846 392.288 634.62 391.307C633.919 386.885 628.013 389.255 625.77 386.402C621.168 380.562 623.356 367.43 628.001 362.741Z" fill="black"/>
<path d="M156.987 907.14L159.857 907.494C165.066 912.899 167.768 906.512 174.466 907.25C178.506 907.695 180.45 911.595 179.937 915.19C177.373 917.646 174.448 914.995 170.266 915.452C161.438 918.749 164.629 922.624 158.404 927.03C149.838 928.797 155.12 910.291 156.987 907.14Z" fill="black"/>
<path d="M258.794 333.657C261.36 335.022 260.711 334.279 262.016 336.415C262.015 338.518 259.959 342.013 259.028 344.157C255.946 351.25 267.601 357.528 264.722 363.819C262.901 365.055 262.099 364.883 259.901 364.96C248.504 355.221 242.973 342.626 258.794 333.657Z" fill="black"/>
<path d="M72.1925 890.37C75.9917 890.047 86.0171 889.669 83.6131 896.379C78.3895 898.804 71.0478 892.107 70.3548 903.661C70.1597 906.915 70.128 909.45 68.0758 912.088C63.7695 911.838 62.3219 911.29 60.8615 907.037C59.3639 902.68 58.7281 897.67 59.5266 893.106C59.7375 891.906 60.9163 891.601 61.8367 891.211C64.1377 891.601 63.7366 893.222 66.321 894.41C68.6256 892.594 69.641 891.833 72.1925 890.37Z" fill="black"/>
<path d="M690.761 444.766C693.095 444.567 693.723 444.412 694.954 446.439C694.717 450.577 689.597 455.47 687.634 459.132C686.713 460.845 686.031 462.996 685.421 464.852C689.353 462.301 694.333 455.919 698.849 456.292L699.593 457.39C699.69 459.796 699.526 460.178 698.727 462.471C686.677 481.123 669.226 461.863 690.761 444.766Z" fill="black"/>
<path d="M685.855 426.025C692.036 425.537 706.542 429.234 701.471 437.073C697.21 437.346 686.111 423.172 678.388 439.402C678.73 443.771 684.849 445.88 681.357 450.12C672.634 450.45 664.704 432.717 685.855 426.025Z" fill="black"/>
<path d="M576.533 925.013C577.734 924.988 578.879 925.141 580.071 925.263C581.857 926.512 581.272 925.701 581.894 927.779C580.949 930.381 577.951 932.033 576.212 934.349C571.921 940.071 582.393 948.017 578.477 953.129C576.506 953.934 576.191 953.873 574.059 953.623C570.946 950.107 563.198 940.832 562.859 936.353C564.35 933.367 567.638 935.177 568.034 934.623C570.541 931.107 572.334 927.779 576.533 925.013Z" fill="black"/>
<path d="M655.543 409.919L656 409.443C660.005 405.177 677.48 379.09 678.705 378.351L680.198 378.448C681.448 379.998 681.752 381.282 681.442 383.23C680.351 390.069 663.296 411.94 658.639 415.317C656.189 413.564 656.323 412.752 655.543 409.919Z" fill="black"/>
<path d="M696.528 657.022C706.268 657.388 715.722 669.612 708.14 672.921C706.201 671.531 705.025 667.387 703.147 664.542C697.528 660.764 693.468 663.305 688.927 667.058C685.295 673.713 688.062 674.749 687.251 681.007C685.563 682.323 686.306 682.14 684.46 682.006C682.594 680.702 681.607 678.996 681.278 676.741C679.663 665.773 686.41 658.844 696.528 657.022Z" fill="black"/>
<path d="M656.825 856.58C658.641 857.244 658.873 857.342 660.262 858.67C660.811 862.534 655.075 865.422 654.38 870.206C653.777 874.349 659.817 883.289 652.314 883.569C649.815 883.661 648.602 881.759 647.383 879.852C646.152 876.47 640.38 865.282 640.16 864.161L641.062 863.503C643.689 863.265 645.951 864.782 648.438 866.007C651.857 863.131 649.035 861.382 656.825 856.58Z" fill="black"/>
<path d="M85.9685 730.5L88.3091 730.586C90.5387 732.024 90.2785 734.388 91.155 736.856C93.4066 743.206 102.234 739.8 105.83 745.132L105.391 746.649C103.748 748.41 102.888 748.666 100.755 749.629C97.6129 749.671 85.6534 748.867 83.6115 747.124C83.116 744.498 85.0079 742.743 84.5861 741.871C81.9317 736.393 78.8219 736.125 85.9685 730.5Z" fill="black"/>
<path d="M689.177 596.687C689.884 596.651 690.591 596.623 691.305 596.602C693.773 596.532 696.29 596.42 698.174 598.2C698.887 600.436 698.893 599.513 698.229 601.689C696.674 603.139 692.182 603.384 689.525 603.931L689.19 604.743C690.403 606.893 693.541 609.1 695.608 611.027C695.772 611.715 695.681 612.13 695.657 612.873C689.958 615.17 673.567 604.429 689.177 596.687Z" fill="black"/>
<path d="M694.676 630.368C698.711 630.179 708.506 629.021 711.109 632.397L710.804 633.458C707.567 635.907 703.599 636.127 699.637 636.639L690.324 636.815C688.379 638.381 688.477 638.79 686.197 639.155C683.985 636.815 685.003 635.231 686.825 632.763C688.617 630.332 691.878 630.472 694.676 630.368Z" fill="black"/>
<path d="M697.806 614.506C700.951 614.268 710.24 612.726 710.307 617.425C707.827 620.246 703.566 619.935 699.744 620.21C694.356 620.88 689.894 621.642 684.963 618.601L684.848 617.272C688.608 614.098 692.912 614.75 697.806 614.506Z" fill="black"/>
</g>
<defs>
<clipPath id="clip0_2117_69">
<rect width="772" height="1248" fill="white"/>
</clipPath>
</defs>
</svg>
