<svg width="772" height="1248" viewBox="0 0 772 1248" fill="none" xmlns="http://www.w3.org/2000/svg">
<path d="M418.747 117.535C423.172 117.258 433.661 123.313 439.052 125.031C446.265 127.33 452.414 130.04 460.207 130.719C462.455 128.665 464.005 126.419 467.05 127.655C468.536 129.276 468.678 131.257 469.157 133.488C487.902 140.616 495.048 137.737 493.971 160.817C498.893 167.313 508.304 170.033 512.666 176.9C517.552 184.592 516.735 195.533 515.039 204.018C524.946 212.661 521.045 217.997 516.657 226.702C512.672 234.606 525.732 248.644 529.287 256.032L529.552 256.596L527.478 262.68C528.875 264.62 530.656 266.862 531.256 269.204C533.053 276.223 519.708 310.32 515.522 317.886C518.761 321.257 523.557 325.476 524.004 330.336C524.896 340.038 515.326 342.845 507.913 343.378C519.026 347.267 540.1 352.684 550.202 358.746C576.508 374.532 603.237 407.341 618.551 433.599C625.006 444.669 628.477 457.564 633.766 466.978L634.117 467.589C631.888 470.493 628.565 474.675 624.743 475.703C622.975 476.179 622.159 474.958 620.27 473.678L619.608 474.328C619.328 476.436 620.024 479.358 620.872 481.302C635.683 515.323 655.119 548.082 663.031 584.67C664.958 593.583 664.339 602.509 665.982 611.334C666.825 615.883 670.428 622.358 671.545 627.066C675.941 640.777 680.973 664.265 675.897 677.906C677.578 681.672 678.29 686.106 680.272 689.773C690.182 708.209 699.309 727.088 700.699 748.332C701.619 762.377 698.663 768.946 687.587 776.97C688.26 781.459 689.01 786.221 689.289 790.594C691.403 823.246 656.483 839.946 629.6 846.06C626.276 846.816 618.759 847.746 616.761 850.023C613.623 857.714 625.795 862.306 630.339 865.29C636.263 863.992 648.845 857.544 653.384 862.306C653.723 863.33 654.03 864.304 653.882 865.394C652.957 872.323 642.05 874.808 637.539 878.52C635.075 880.545 636.055 887.36 635.65 890.387C635.124 894.301 633.389 897.749 630.18 900.125C628.111 901.657 625.335 902.621 622.75 902.035C615.781 900.458 607.092 861.496 601.507 854.057C600.368 852.536 599.514 852.262 597.757 852.048C595.753 853.477 596.508 855.678 594.575 858.354C592.468 861.283 591.05 862.416 588.246 864.622C592.736 882.63 596.371 900.415 596.579 918.708C596.727 936.542 592.643 948.77 577.789 959.416C567.654 966.68 568.043 965.147 555.458 965.126C555.542 985.017 559.314 1007.73 552.727 1027.33C547.225 1043.82 529.106 1053.58 513.281 1057.86C497.788 1062.04 494.335 1059.46 493.922 1077.81C493.141 1086.56 493.301 1097.63 490.321 1105.93C481.887 1128.82 450.804 1132.58 429.706 1130.14C426.292 1129.74 420.315 1128.09 419.081 1124.5C414.651 1111.61 440.783 1107.19 443.544 1100.03C443.416 1096.65 440.86 1093 440.023 1088.67C438.612 1081.37 439.66 1071.9 437.187 1065.07C436.959 1064.44 435.983 1063.59 435.382 1063.59C429.931 1063.64 425.607 1064.23 420.094 1062.94C399.509 1058.09 404.944 1040.02 408.807 1024.96C393.282 1002.95 405.222 980.529 399.704 969.302C397.892 968.459 369.996 977.031 369.806 977.644C364.837 993.622 372.403 1009.45 364.169 1025.93C354.585 1045.11 334.67 1046.23 320.849 1054.21C316.809 1056.54 315.898 1108.77 305.531 1111.47C303.669 1111.93 299.68 1111.07 295.863 1113.82C286.622 1120.48 244.665 1126.05 237.134 1120.73C231.626 1111.94 255.594 1098.82 261.589 1093.9C260.181 1086.81 259.56 1081.82 258.965 1074.77C258.374 1067.76 259.012 1051.3 256.794 1045.56C253.686 1043.12 246.103 1046 241.848 1045.93C214.586 1045.51 215.196 1030.7 220.978 1008.98C213.106 993.299 214.047 986.041 216.165 968.727C216.555 965.542 217.78 961.54 216.875 958.459C214.841 956.92 206.996 958.65 204.228 958.792C145.196 961.869 148.195 935.365 167.536 891.766C152.144 876.44 178.806 832.704 186.33 816.425C189.644 809.26 196.798 800.699 199.156 793.233C198.149 790.605 197.179 787.962 196.248 785.307C200.837 780.244 204.304 777.556 211.424 778.487C217.426 779.269 217.983 783.331 215.475 788.049C212.304 794.01 207.953 799.407 204.461 805.193C197.327 817.586 190.168 830.547 184.566 843.674C182.602 848.277 173.137 870.605 176.024 874.513C179.076 872.416 186.629 866.198 189.819 869.871C192.232 876.998 178.95 896.118 175.645 903.124C162.257 931.489 162.808 947.057 198.348 948.37C215.247 949.399 227.646 947.894 236.288 931.451C239.081 926.141 242.092 922.923 248.511 924.187C254.041 928.495 244.211 941.879 250.189 949.033C256.174 956.192 267.907 955.607 275.971 953.056C280.732 951.983 288.397 944.676 293.245 946.088C301.085 948.37 298.178 957.78 308.079 959.767C323.835 962.925 324.173 944.106 337.206 941.594C343.29 940.422 340.721 955.037 340.827 958.825C346.364 967.66 355.651 966.593 364.615 966.073C377.379 965.339 388.679 964.606 399.797 957.429C404.275 944.15 404.442 927.981 403.562 913.962C403.304 909.857 400.965 903.387 401.25 899.096C401.403 896.78 402.692 896.315 404.115 895.127C405.389 894.065 408.258 893.091 409.531 893.562C419.712 897.306 414.847 930.827 415.489 940.193C415.424 942.7 418.658 945.207 418.55 947.555C418.156 956.116 417.185 962.575 427.491 965.29C433.423 966.85 438.249 966.1 443.574 962.739C446.816 960.834 451.903 956.351 456.001 957.046C465.815 958.705 461.523 970.047 474.401 964.261C485.279 959.378 481.677 944.5 488.2 939.694C498.829 931.856 499.02 951.556 502.382 956.072C505.684 960.199 508.543 960.998 512.497 961.781C525.733 964.551 531.462 957.709 541.031 950.932C549.768 944.747 553.043 945.634 558.03 953.713C561.013 954.025 566.028 954.424 568.864 954.085C580.258 952.717 584.353 936.043 584.655 926.962C585.366 905.412 581.003 883.38 574.044 863.089C571.071 854.424 566.083 845.994 562.355 837.669L562.929 836.262C566.587 832.956 573.666 835.589 577.444 837.57C579.568 840.953 582.114 847.593 584.447 849.574C584.781 847.675 581.036 839.946 580.236 837.406C578.703 832.513 578.544 826.623 576.836 822.041C575.276 817.859 563.805 818.138 560.876 813.842C553.719 805.697 557.126 797.103 557.082 787.584C554.822 784.513 553.54 783.418 550.428 781.267C542.284 788.35 545.015 783.008 539.672 784.07C531.569 785.674 522.392 787.469 514.579 790.222C510.517 791.656 509.649 790.885 506.097 788.996C493.305 792.149 471.487 794.191 458.236 795.428L379.651 802.068C364.669 803.469 349.021 804.695 334.49 808.57C321.201 811.8 325.408 798.51 335.256 796.895C339.718 795.904 344.857 796.714 349.284 796.068C396.632 789.188 444.517 787.737 492.033 782.532C500.571 781.596 508.546 779.592 516.906 777.802C520.448 777.304 524.363 778.689 527.878 778.038C540.164 775.772 542.379 769.772 543.03 758.25C543.519 749.623 542.833 741.79 542.483 733.218C541.8 725.161 543.639 716.25 542.901 708.302C540.636 683.878 537.819 657.511 533.31 633.475C526.055 633.689 514.824 636.705 507.345 638.095C447.068 649.306 385.301 644.231 324.849 652.59C304.414 655.414 320.954 633.246 331.968 641.04L332.562 641.467C346.808 640.531 360.034 638.955 374.652 638.32C419.422 636.382 464.547 635.391 508.897 628.631C514.191 627.826 525.342 625.894 530.044 623.759C537.422 620.404 534.814 618.379 544.098 616.808C553.267 594.204 544.021 563.116 537.436 540.501C534.93 531.895 526.171 515.862 527.218 507.423C527.528 504.917 533.247 501.777 535.51 500.52C536.394 500.611 539.641 500.919 540.289 500.693C551.349 496.83 559.405 492.201 571.525 491.258C578.659 478.529 583.461 474.622 598.813 471.773C601.222 471.327 604.376 470.978 606.363 469.505C607.207 466.766 600.089 456.852 598.277 451.091L598.063 450.409C602.022 445.774 603.577 445.375 609.397 444.283C607.048 438.331 597.083 423.804 592.845 418.345C568.049 386.427 544.369 362.185 503.025 356.052C501.726 358.751 500.297 362.986 499.034 365.925C494.498 376.475 488.201 381.641 478.531 387.151C468.962 383.625 461.519 381.208 453.124 375.365C435.961 393.357 419.797 385.202 413.143 390.441C409.521 393.293 406.891 400.74 404.679 404.757C401.159 411.148 391.593 425.766 384.506 427.854C382.68 428.393 381.485 427.939 379.911 426.999C377.973 423.582 380.914 419.221 381.112 415.18C381.4 409.316 371.481 411.674 367.01 408.812C361.986 405.595 360.692 403.496 357.137 399.02C346.08 402.823 332.77 403.491 330.584 389.166C328.872 377.952 328.278 378.535 317.259 381.523C268.224 394.817 220.755 417.508 182.372 451.137C178.691 454.362 167.195 463.845 166.922 467.917L167.968 468.366C178.561 466.9 186.513 454.466 196.945 459.266C199.216 460.312 199.546 460.632 200.447 462.799C199.746 467.301 192.46 469.097 189.004 472.979C182.353 480.448 176.218 489.037 171.278 497.734C158.466 520.287 147.866 544.587 141.612 569.805C139.685 577.574 140.993 583.057 140.178 590.388C139.962 592.333 134.497 595.223 133.191 597.368C130.946 601.053 129.169 605.241 127.214 609.145C124.155 615.253 120.322 619.271 115.832 624.318C126.898 629.961 125.94 633.388 134.337 639.157C151.647 651.041 180.477 655.622 200.914 657.522C204.461 654.56 216.413 639.825 216.848 635.544C217.568 628.461 203.9 630.744 208.84 616.89C212.888 605.536 218.473 595.495 228.859 588.351C231.361 586.631 234.872 587.26 235.98 590.137C235.083 595.665 224.957 604.892 221.81 612.199C217.137 623.048 229.299 621.236 231.36 628.002C233.73 635.78 218.699 648.676 215.387 655.661C213.285 659.383 215.361 663.056 213.404 667.161C210.886 672.449 198.575 686.434 200.467 692.483C201.781 693.846 204.012 693.583 206.48 694.338C208.903 698.553 191.722 717.958 193.101 729.556C193.207 730.449 193.353 730.432 194.049 730.996C195.994 730.815 197.531 729.529 199.236 728.418C202.757 730.41 206.72 731.023 209.858 733.295C212.635 735.299 209.364 741.15 207.741 743.214C195.774 758.453 186.519 776.204 184.747 795.745C184.147 802.369 177.614 808.444 172.511 811.986C157.682 822.107 137.231 822.424 119.909 821.401C116.762 821.182 106.387 818.773 102.598 818.029L101.767 818.85C100.702 822.999 104.321 830.526 106.096 834.532C108.815 833 111.093 831.588 114.283 831.785C119.603 832.113 131.177 832.064 134.954 835.578C136.674 840.417 130.111 843.663 126.531 845.699C121.287 845.037 118.87 844.582 113.571 845.195C113.848 853.11 114.47 864.468 105.661 868.251C102.334 869.679 98.7429 869.187 97.3697 865.53C95.8323 861.447 95.2038 857.008 94.2445 852.755C92.8144 846.246 91.6132 839.634 90.2132 833.12C88.9424 827.203 88.0648 821.138 86.1102 815.413C83.6606 815.029 80.9981 814.619 78.7363 813.568C75.0943 811.838 72.2921 808.724 70.9496 804.919C64.2409 786.374 84.1139 749.049 92.2625 732.124C83.5664 735.063 75.1211 737.28 77.557 723.913C82.0334 699.484 93.3373 677.019 104.612 655.113C106.385 651.67 109.991 644.478 109.159 640.504C108.335 636.568 102.341 639.891 99.3758 638.369C98.1756 635.681 99.5729 632.846 100.851 630.317C107.672 616.819 114.339 603.2 121.003 589.627C122.148 587.296 126.655 583.337 127.097 581.355C134.907 546.352 149.828 512.464 169.925 482.765C171.083 481.054 171.974 480.498 172.204 478.372L171.485 477.541C164.255 475.467 137.41 506.5 131.232 498.231C130.638 491.809 142.581 480.213 146.801 475.265C179.035 437.469 221.664 409.087 267.116 389.616C284.089 382.345 301.113 377.135 318.555 371.815C317.613 368.869 316.879 367.292 315.535 364.483C284.709 365.357 301.623 348.453 298.55 339.415C295.531 337.118 285.706 345.614 279.805 342.224C266.053 334.324 281.344 315.454 285.379 305.973L285.653 305.322C278.122 301.418 275.643 298.774 273.841 290.499C276.561 285.422 281.549 278.427 284.869 273.48C280.236 270.634 275.808 267.521 276.982 261.047C279.086 249.437 288.394 242.134 297.219 235.368C274.192 230.763 292.362 214.218 301.985 206.571C307.261 202.378 313.878 199.096 318.872 194.859L319.362 194.438C314.703 191.384 309.722 187.473 314.343 181.877C328.06 165.263 357.08 153.604 376.725 149.344C375.629 145.999 374.143 142.412 372.855 139.108C377.523 122.608 386.825 126.207 399.346 127.778C403.986 128.36 402.75 125.175 409.84 128.285C414.395 124.522 415.53 122.486 418.747 117.535ZM569.943 502.777C564.911 503.269 540.026 504.49 541.492 513.838C542.294 518.949 547.004 527.467 548.309 532.874C555.191 557.668 566.888 593.931 553.933 618.072C551.021 622.495 546.721 626.119 546.498 631.822C546.176 640.039 547.979 648.922 549.035 657.106C552.05 680.457 555.833 703.189 553.999 726.847C553.496 733.344 555.202 741.856 554.924 748.55C554.94 754.752 554.565 760.648 554.196 766.827C556.122 768.327 558.187 770.035 560.723 771.458C561.747 772.027 569.669 775.191 569.784 775.372C575.243 784.557 563.231 796.566 572.056 805.313C573.387 806.627 575.851 807.24 577.603 806.863C585.793 805.111 591.29 807.01 591.843 816.464C592.177 822.091 589.681 828.807 594.663 833.328C598.682 837.614 606.686 839.147 612.397 838.939C629.813 838.298 653.86 831.867 666.726 819.594C673.406 813.223 677.053 804.826 676.899 795.811C676.768 788.142 674.589 780.222 672.957 772.723C674.08 768.103 675.394 767.523 679.39 765.196C681.854 765.185 684.378 765.141 686.831 765.224C693.478 744.122 676.691 705.789 664.098 689.275C638.371 696.418 612.742 706.983 588.964 718.828C587.08 719.764 583.987 720.207 581.95 719.638C579.245 716.638 584.178 710.738 586.719 708.822C591.011 705.061 597.121 705.029 601.874 702.872C610.448 698.991 619.641 695.833 628.193 692.105C637.966 687.852 653.619 684.349 662.385 679.176C673.751 658.928 656.274 622.232 646.523 604.022C644.711 600.629 642.548 596.385 640.315 593.341C642.789 588.055 643.665 585.56 649.376 583.631C644.842 558.591 628.247 527.868 617.347 504.33C615.66 500.678 608.816 486.551 606.796 483.384C601.967 483.158 596.683 483.014 591.871 483.462C588.706 484.671 573.529 499.633 569.943 502.777ZM344.307 241.925C347.702 236.053 351.048 230.075 355.416 224.834C370.304 206.98 390.483 193.077 412.482 185.543C420.345 182.851 426.818 190.117 434.146 192.293C450.858 197.313 472.905 197.262 477.55 218.279C480.533 231.789 479.952 246.64 477.776 260.231C471.617 298.573 450.453 338.533 415.168 357.315C408.013 361.123 401.418 370.005 410.97 375.768C417.288 379.579 440.838 378.799 444.711 371.164C447.628 365.412 446.86 354.332 458.178 357.294C459.933 357.79 463.913 365.585 465.545 366.969C470.663 371.307 483.284 377.108 487.421 368.638C490.446 362.445 491.041 354.701 491.088 347.92C490.151 340.026 487.119 334.702 498.028 331.242C502.135 329.94 504.435 330.494 508.694 331.508C504.009 325.832 503.686 325.026 496.7 322.228C499.152 318.477 501.912 314.617 504.272 310.915C506.493 311.402 508.893 312.177 511.03 311.559C511.719 310.848 512.308 310.413 512.112 309.308C510.508 300.275 509.389 298.393 513.072 289.759C510.34 280.787 508.975 279.267 515.731 271.704L512.019 265.404L513.293 259.679C509.427 251.898 503.741 241.211 501.173 233.158C503.076 229.986 505.541 226.6 506.448 222.993C506.497 222.797 506.557 222.604 506.601 222.406C506.996 220.624 503.804 195.791 503.135 192.492C502.549 189.606 501.532 185.639 499.863 183.191C495.625 176.973 485.864 175.755 480.994 170.259C475.316 163.85 492.126 149.254 462.853 145.325C458.124 144.69 454.001 144.754 449.324 145.476C448.796 144.797 446.904 142.412 446.293 142.078C439.934 138.605 428.958 135.305 422.069 133.263C419.066 139.082 411.435 140.971 405.19 143.212C401.345 141.808 394.653 139.183 390.656 141.015C389.739 143.205 391.583 143.902 393.296 145.118C390.638 151.453 385.976 156.169 379.54 158.758C369.961 162.61 334.1 168.868 330.044 178.237C329.36 179.818 329.104 181.29 329.287 182.995C332.538 187.684 338.738 180.997 343.654 183.988C345.466 189.112 338.768 193.951 334.893 195.905C328.761 198.997 299.438 213.014 300.983 221.232C306.246 227.219 318.75 217.287 323.615 221.783C325.468 233.555 288.394 241.833 290.187 258.272C290.252 258.862 290.469 259.213 290.719 259.702C296.282 262.683 303.543 252.93 308.022 259.35C310.558 268.684 282.845 280.806 290.588 287.608C291.192 287.729 292.088 288.043 292.681 288.028C296.099 287.937 299.428 282.341 303.666 288.286C304.718 289.763 304.838 291.561 304.493 293.294C302.837 301.625 283.705 321.582 287.339 328.439C287.851 329.404 288.885 330.022 289.93 330.234C298.406 331.956 311.51 315.775 318.476 322.099C320.883 329.692 302.367 345.32 312.311 352.343C318.381 356.63 330.813 346.395 335.58 351.908C336.166 356.67 327.653 363.874 332.575 366.457C336.386 368.457 347.349 367.235 349.087 374.011C349.303 382.329 335.272 389.095 353.518 389.577C355.61 389.632 367.873 383.581 369.092 386.541C372.655 395.198 383.48 408.571 392.033 395.243C398.954 384.46 390.548 376.966 396.081 363.171C377.637 360.775 366.221 355.464 354.669 340.353C340.15 321.361 332.421 292.866 335.693 269.131C337.18 258.344 339.739 251.703 344.307 241.925ZM120.868 809.846C132.881 812.293 170.778 813.393 172.33 797.639C173.998 780.709 179.275 768.814 187.669 753.948C188.708 752.103 190.202 749.426 191.112 747.396C186.951 745.162 181.968 743.153 180.768 738.342C177.927 726.967 185.252 714.219 189.12 704.284C184.363 690.758 190.797 684.677 194.592 672.613C196.192 667.533 170.847 664.982 167.856 664.484C161.117 663.373 154.462 661.797 147.941 659.766C144.049 658.523 140.158 657.106 136.387 655.524C131.83 653.608 125.248 648.227 120.595 647.844C110.912 661.452 91.9187 703.091 90.2658 718.636C90.9222 720.07 90.4076 719.534 91.9636 720.196C99.5576 717.974 105.671 696.725 114.956 701.224C116.006 701.733 116.585 702.39 116.932 703.529C119.197 710.973 78.5786 769.619 82.5229 795.696C82.8448 797.825 83.544 800.995 85.4696 802.232C89.6695 804.919 97.2892 801.071 102.258 802.144C107.859 803.354 114.226 808.1 120.868 809.846ZM274.241 1110.89C284.484 1109.26 292.461 1107.84 300.346 1100.29C303.13 1086.92 304.819 1073.34 307.361 1059.93C307.73 1057.98 308.089 1056.04 308.196 1054.06C292.585 1054.65 285.859 1055.49 270.575 1051.16C270.481 1057.13 269.769 1077.66 273.543 1082.17C276.424 1085.61 285.234 1080.12 286.829 1086.11C284.721 1095.77 260.807 1104.81 253.054 1111.73C260.356 1111.65 266.971 1111.57 274.241 1110.89ZM419.162 201.99C417.389 203.298 416.543 204.232 414.381 204.325C410.201 203.451 410.298 198.15 404.818 197.609C387.567 203.247 360.613 224.597 355.974 242.799C377.851 230.466 400.104 229.68 424.573 234.405C433.847 235.889 443.004 238.034 451.972 240.823C456.627 242.231 463.313 244.614 467.831 245.683C467.96 213.946 460.913 210.05 431.092 204.16C427.091 203.37 423.265 202.493 419.162 201.99ZM446.127 1119.45C460.127 1119.32 475.836 1119.98 479.291 1102.8C480.576 1096.4 485.139 1068 481.1 1063.91C473.949 1063.31 467.006 1063.63 459.986 1061.97C458.235 1061.56 456.096 1061.03 454.341 1060.73C447.576 1066.11 452.406 1087.28 456.966 1093.41C459.526 1096.86 467.123 1097.16 468.55 1101.32C467.213 1109.85 441.6 1112.81 433.882 1117.69C438.533 1119.11 441.244 1119.46 446.127 1119.45ZM95.9172 823.459C96.0502 821.505 96.7527 817.575 96.1991 816.294L94.9924 815.697C94.3721 818.965 94.5369 820.197 95.9172 823.459ZM233.618 955.459C226.893 965.087 226.372 978.531 227.54 989.883C228.277 997.043 233.497 995.505 235.828 999.775C236.445 1008.51 224.336 1022.79 233.546 1030.68C238.415 1034.85 243.288 1035.67 249.329 1035.53C258.357 1035.33 264.795 1025.13 272.119 1028C277.125 1032.35 270.753 1039.27 284.095 1042.01C302.493 1045.78 323.665 1044.3 340.897 1036.78C358.085 1027.26 356.647 1012.55 356.104 995.078C355.957 990.349 355.715 985.127 355.223 980.447C339.278 974.666 337.776 978.038 326.893 964.206C309.539 970.337 297.882 977.535 284.969 958.579C272.154 964.545 262.034 967.638 247.319 963.182C240.868 961.228 237.964 955.7 233.618 955.459ZM387.371 243.264C375.323 244.085 361.1 246.344 352.482 255.689C346.514 262.161 346.898 273.208 347.267 281.435C348.582 310.699 369.105 354.706 404.27 351.722C409.954 351.258 415.424 349.34 420.152 346.153C444.576 328.07 461.108 294.787 465.725 265.19C465.995 263.454 466.364 260.775 465.283 259.283C461.043 253.437 414.067 244.541 405.703 243.794C399.611 243.208 393.486 243.032 387.371 243.264ZM542.123 963.035C528.417 970.342 516.972 975.964 500.578 971.607C493.612 969.756 490.741 964.118 488.441 963.73C476.879 974.584 461.942 984.475 448.672 970.452C436.034 976.007 428.702 980.129 414.521 974.562C414.144 974.415 413.768 974.267 413.394 974.114C412.946 984.623 411.706 1002.47 416.529 1011.43C419.061 1012.96 423.31 1014.52 423.729 1016.76C425.421 1026.96 410.377 1041.51 422.4 1049.51C427.765 1053.08 433.186 1052.67 439.204 1051.89C446.945 1050.88 455.45 1038.67 462.639 1043.41L463.954 1046.69C468.235 1057.54 512.77 1050.67 521.851 1045.68C529.303 1041.58 537.328 1037.69 540.466 1028.85C546.425 1013.8 545.179 978.602 542.123 963.035Z" fill="black"/>
<path d="M399.504 304.809C403.982 304.321 404.714 307.008 407.994 308.896C416.531 313.806 409.159 318.151 403.722 321.607C398.679 322.585 395.116 320.005 391.535 316.866C393.025 312.104 395.486 307.805 399.504 304.809Z" fill="black"/>
<path d="M434.308 277.495C435.949 277.351 438.719 277.57 439.916 278.652C444.681 282.957 434.581 291.13 432.023 293.639C431.486 293.599 430.46 293.367 429.888 293.258C426.962 290.738 425.912 286.805 424.621 283.204C428.045 279.879 429.816 279.187 434.308 277.495Z" fill="black"/>
<path d="M381.577 283.008C384.284 282.896 386.563 283.439 387.948 285.917C389.09 292.258 382.052 296.463 377.157 298.528C374.687 297.972 371.798 292.399 370.414 290.192C374.152 287.331 377.295 285.037 381.577 283.008Z" fill="black"/>
<path d="M407.634 323.842L409.268 323.935C410.857 324.918 410.435 324.35 411.022 325.977C410.472 330.755 406.137 334.816 401.657 336.152C399.158 335.273 397.913 334.472 397.465 331.848C398.667 328.349 404.111 326.261 407.634 323.842Z" fill="black"/>
<path d="M94.9931 815.697L96.1998 816.294C96.7533 817.575 96.0508 821.505 95.9178 823.459C94.5375 820.197 94.3727 818.965 94.9931 815.697Z" fill="black" fill-opacity="0.0705882"/>
<path d="M244.414 790.354C249.116 789.626 252.362 792.959 255.9 795.625C257.818 794.891 259.789 794.24 261.734 793.572C264.186 794.015 266.653 794.765 269.059 795.433C265.491 799.237 262.465 802.494 257.984 805.231C254.561 805.051 250.352 803.868 247.163 804.563C242.132 805.653 233.267 803.77 232.988 797.229C234.539 794.032 240.711 792.193 244.414 790.354Z" fill="black"/>
<path d="M276.86 795.893C278.85 795.647 279.276 795.576 281.241 795.899C282.668 797.064 282.274 796.408 282.613 798.302C281.445 802.571 278.063 805.489 274.387 807.651C271.718 807.881 269.832 807.377 268.276 805.067C266.604 799.106 272.58 797.19 276.86 795.893Z" fill="black"/>
</svg>
