<svg width="772" height="1025" viewBox="0 0 772 1025" fill="none" xmlns="http://www.w3.org/2000/svg">
<g clip-path="url(#clip0_2091_9251)">
<path d="M356.139 55.5418C374.207 53.7173 402.632 60.2127 420.529 63.0173C437.207 65.631 453.509 68.5315 469.034 75.2487C478.732 79.4446 490.272 82.225 500.061 86.5955C513.487 92.6892 526.633 98.9868 539.363 106.474C542.225 108.258 544.988 111.318 547.846 112.986C563.302 122.013 581.704 133.837 595.608 144.875C624.742 168.008 647.025 199.1 663.052 232.403C667.141 240.899 669.212 249.502 674.916 257.351C675.881 258.697 678.471 271.817 679.001 274.104C685.098 300.401 687.101 328.16 686.141 355.102C685.748 365.738 683.011 376.503 681.402 387.019C680.081 390.938 681.46 400.811 680.29 403.768C673.868 420.043 668.006 439.944 660.593 455.636C652.655 472.437 644.576 486.179 634.463 501.334C628.072 510.501 620.218 518.975 613.297 527.623C599.939 544.32 585.835 559.145 568.838 572.177C567.658 573.079 559.595 580.662 559.789 580.604C546.336 584.863 535.824 592.325 522.334 597.276C524.525 600.632 531.2 603.82 532.599 608.87C535.116 617.938 534.235 627.901 535.326 637.273C536.269 645.401 538.765 651.29 540.291 659.204C541.78 666.939 541.785 676.368 543.405 683.883C545.733 694.675 548.202 705.793 550.761 716.538C551.877 721.237 554.593 727.058 555.81 731.84C558.892 743.986 561.514 755.822 563.081 768.229C567.632 773.552 584.886 796.28 587.282 801.949C595.382 821.127 588.058 844.542 581.693 862.566C588.976 870.495 587.482 873.28 586.15 883.129C584.493 895.421 580.629 905.332 572.125 914.578C565.262 922.051 558.378 927.578 550.027 933.242C544.632 937.017 539.19 941.758 533.444 945.335C505.539 962.698 467.164 973.852 434.417 974.66C408.471 975.321 380.063 973.024 354.22 970.742C325.463 968.204 298.702 965.467 271.097 956.164C257.637 951.622 243.353 944.784 230.486 938.491C225.539 936.073 221.394 933.006 216.588 930.279C190.261 915.338 160.308 893.785 143.873 867.973C140.747 863.064 138.846 853.52 136.776 847.825C135.311 843.792 136.183 844.637 132.447 842.728C132.193 840.845 132.504 827.992 132.57 824.95C132.798 814.504 130.07 797.156 131.15 787.696C133.46 776.316 138.911 764.721 144.382 754.61C149.321 746.225 153.029 739.339 153.209 729.276C153.423 717.891 157.327 706.113 159.902 694.974C168.012 659.88 176.144 625.237 187.658 591.072C189.529 585.518 190.279 576.084 191.669 569.754C188.531 567.263 185.397 565.758 182.082 563.561C146.295 539.868 119.236 503.437 106.101 462.633C99.6712 443.422 97.7586 423.427 94.8677 403.767C89.5913 367.885 91.5165 338.752 100.376 303.716C107.491 275.583 114.129 250.4 126.003 223.538C134.067 205.297 141.696 190.569 153.912 174.466C154.916 173.099 153.871 171.259 153.485 169.551C154.035 166.64 176.888 140.769 181.031 136.277C196.475 119.354 213.997 104.452 233.181 91.9288C272.828 66.2115 309.191 57.5324 356.139 55.5418ZM508.356 863.542C527.304 853.169 552.7 842.633 560.497 819.858C562.101 815.175 561.493 810.686 561.084 805.851C560.04 804.907 558.358 803.287 557.241 802.552C555.275 787.816 548.234 781.156 544.758 767.674C540.998 753.079 539.19 737.84 534.052 723.434C526.932 698.808 522.397 672.938 518.417 647.661C516.839 637.603 517.673 611.723 514.36 604.177L509.78 600.553C483.967 603.118 459.133 608.503 432.79 609.542C419.09 610.077 407.479 609.615 393.845 609.238C347.226 608.178 300.801 602.855 255.15 593.343C235.954 589.467 221.224 588.229 204.694 575.785C203.189 581.04 202.24 586.221 200.846 591.46C197.501 604.03 192.417 617.544 189.956 630.261C186.856 646.277 184.256 661.627 180.525 677.516C176.631 694.093 174.948 712.453 171.659 729.192C170.991 733.76 170.574 738.888 170.053 743.551C168.849 754.332 161.324 766.284 160.136 776.279C159.01 785.75 160.322 797.958 165.224 805.992C168.75 812.007 175.356 820.608 181.253 824.746C195.034 834.41 212.692 843.881 228.383 850.069C242.536 855.654 257.983 859.436 272.178 865.356C275.378 866.693 281.567 867.013 284.993 867.905C300.265 870.008 316.135 872.604 331.387 874.324C353.955 876.867 376.878 878.304 399.552 879.337C405.38 879.526 414.268 880.632 419.353 880.47C444.631 879.646 485.886 874.89 508.356 863.542ZM114.202 368.787C116.737 356.035 123.011 347.204 134.03 339.833C134.753 339.344 135.494 338.878 136.249 338.439C129.302 317.061 137.807 285.25 161.943 277.174C164.234 276.407 177.876 274.665 180.837 274.439C185.017 258.174 190.21 242.223 205.765 233.013C207.506 231.959 209.329 231.048 211.216 230.288C202.284 206.373 216.77 177.298 241.051 169.334C247.124 167.343 252.727 167.334 259.05 166.831C252.728 134.911 273.268 113.359 303.654 105.599C307.977 104.606 327.706 104.918 330.872 107.279C338.758 113.16 336.299 115.48 348.042 114.655C367.336 113.299 370.727 125.192 379.782 136.545C382.931 135.764 387.926 134.245 390.858 133.891C399.814 132.809 412.45 135.975 420.088 140.605C420.852 141.07 421.606 141.55 422.351 142.045C434.228 127.706 451.112 116.784 470.77 122.794C481.372 126.035 486.143 133.438 491.982 142.195C491.91 146.386 491.693 155.792 494.016 158.975C496.208 158.942 502.17 156.732 504.598 155.925C516.776 151.879 526.145 154.628 535.472 163.313C541.512 168.935 544.17 178.398 544.223 186.429C544.259 191.544 541.187 197.975 539.216 202.86C552.957 206.217 558.73 210.322 565.241 222.971C568.392 219.101 569.755 218.255 574.159 215.846C585.741 216.618 595.755 217.9 603.671 227.196C616.197 241.9 612.422 259.632 603.273 274.896C610.209 275.635 616.244 277.09 622.179 280.951C628.911 285.325 631.286 292.281 636.25 298.293C635.516 306.53 636.638 313.495 636.135 320.928L633.016 325.974C641.997 330.878 643.407 331.336 648.267 340.805C657.447 358.669 647.108 379.139 632.428 390.283C629.943 392.127 626.378 393.632 623.62 395.63C641.908 415.944 638.002 438.644 617.707 456.615C610.367 463.116 603.483 469.34 593.097 468.997C596.127 484.254 598.203 492.529 588.876 507.15C585.982 511.691 579.177 518.766 573.981 520.69C570.961 521.812 567.26 521.215 564.366 523.842C558.347 529.306 550.981 541.84 543.651 545.427C537.197 548.589 528.673 548.332 520.719 551.924C515.578 559.89 513.114 567.048 503.982 571.973C502.636 572.843 497.589 573.425 496.671 574.049C487.06 580.594 473.96 579.309 464.641 572.723C450.456 562.696 448.247 554.431 451.143 538.263C449.2 537.01 447.533 535.972 445.726 534.519L445.3 535.101C442.581 538.851 440.713 542.737 438.283 546.67C431.413 557.798 420.43 564.159 408.101 567.851C396.933 569.613 387.042 571.223 376.907 563.981L376.386 564.374C372.955 566.996 370.682 570.095 367.557 572.88C362.963 576.97 356.007 579.325 350.112 580.841C339.342 583.604 328.696 578.811 320.443 572.104C317.578 569.775 314.429 567.484 312.002 564.71C311.65 564.311 308.552 559.397 308.67 559.434C304.245 558.16 302.145 562.491 298.01 563.362C293.443 564.321 289.398 562.355 285.178 560.871C275.896 558.165 266.691 553.854 260.712 545.747C259.823 544.546 258.978 543.308 258.177 542.044C239.297 555.49 212.546 556.744 198.085 536.354C197.295 535.232 196.528 534.094 195.784 532.935C195.857 516.715 194.068 503.647 203.683 489.902C206.103 486.441 213.931 478.538 214.168 475.204L213.565 474.87C210.732 476.145 207.744 478.437 204.605 479.817C170.729 494.69 142.419 468.568 155.67 433.727C160.107 422.063 170.997 412.656 183.113 409.414L181.889 400.441C173.116 408.182 159.902 420.282 146.554 417.459C123.1 412.498 116.932 391.342 114.49 369.663L113.587 369.869L113.777 369.383C110.625 385.264 112.563 393.792 114.677 409.429C119.921 448.209 133.944 486.771 159.944 516.432C177.181 536.097 195.831 553.545 220.441 563.64C232.657 569.172 240.138 570.462 252.116 574.495C277.851 583.169 301.316 587.333 328.368 588.827C334.637 589.037 341.97 591.14 348.12 591.077C379.189 590.741 411.363 592.635 442.393 590.93C462.37 589.829 485.329 587.501 505.071 584.726C514.858 583.352 538.487 573.069 547.112 567.043C564.035 555.328 579.119 541.158 591.875 525.006C594.596 521.545 597.506 517.418 599.781 513.611C601.957 509.966 605.769 509.169 607.824 506.599C642.678 462.977 663.629 408.892 667.618 353.11C667.786 350.774 667.582 348.492 667.545 346.17C665.7 316.899 665.663 287.587 653.552 260.253C651.916 256.554 651.276 252.498 649.41 248.476C630.106 206.868 603.089 168.202 563.05 144.307C559.857 142.402 554.939 142.441 551.605 139.997C548.711 137.876 545.596 136.163 542.639 134.163C531.514 129.125 522.355 120.393 511.588 114.954C494.883 106.517 477.291 98.2978 459.499 92.5082C454.748 90.8993 449.928 88.3386 445 87.3454C434.373 85.2026 423.84 82.805 413.291 80.3277C411.157 79.8263 408.629 79.9155 406.472 79.5919C396.447 78.0868 385.745 79.658 375.889 78.6097C358.134 79.4566 340.402 80.7163 322.706 82.387C313.086 83.2429 303.338 83.6173 293.656 85.1685C270.754 88.8379 253.269 99.9161 234.44 112.189C214.486 125.195 200.093 137.967 184.717 156.199C177.436 164.833 169.178 173.539 163.071 183.105C159.08 190.115 157.273 199.992 153.856 206.994C149.006 216.928 143.798 224.933 140.307 235.74C129.972 267.743 119.496 300.829 113.905 333.989C111.39 348.908 108.486 354.175 114.202 368.787ZM570.316 887.345C571.748 881.209 571.863 874.329 570.023 868.267C568.901 864.564 567.386 861.182 567.616 857.212C568.104 848.69 572.251 840.252 573.352 831.589C558.756 859.577 522.198 877.58 493.236 886.721C455.245 898.714 413.846 898.735 374.448 896.706C360.562 895.992 346.53 895.468 332.703 894.068C324.875 893.271 317.011 891.844 309.231 890.649C276.358 885.62 247.598 878.713 216.753 865.912C209.716 862.991 202.626 860.322 195.852 856.808C177.244 847.133 161.072 833.367 148.552 816.538C148.562 823.141 148.514 829.78 149.749 836.293C152.695 851.826 162.732 869.667 173.928 880.842C186.826 893.722 202.218 902.569 217.819 911.63C248.657 929.544 278.333 943.583 313.878 949.881C320.601 951.072 327.569 950.862 334.327 951.916C360.662 956.153 387.282 958.377 413.955 958.566C447.769 958.471 480.577 955.351 510.811 938.811C518.197 934.768 525.076 929.927 532.096 925.297C541.953 918.804 552.061 912.763 560.413 904.299C565.572 899.076 568.046 894.194 570.316 887.345ZM232.286 229.572C235.431 229.723 242.93 229.501 245.212 230.171C261.449 234.94 255.185 243.529 272.682 233.885C268.612 238.174 266.57 240.527 261.588 243.796C262.037 247.262 262.443 255.389 264.725 257.348C266.689 257.077 272.957 250.924 278.612 248.687C282.831 247.685 286.722 247.126 290.998 246.471C293.72 229.254 293.3 215.865 309.557 203.776C315.854 199.093 322.272 196.62 329.376 193.493C327.849 192.896 322.157 190.289 321.251 190.216C310.772 189.367 304.483 196.278 292.448 196.157C286.078 196.092 281.885 194.428 278.258 193.772C266.467 191.64 263.923 172.005 256.942 173.567C247.674 174.013 236.585 176.869 230.673 184.257C220.08 197.494 217.783 218.771 232.286 229.572ZM282.257 543.098L283.002 543.319C291.557 545.925 296.849 551.18 306.66 548.741C330.849 541.179 353.045 518.393 331.648 496.436C323.548 488.119 317.632 480.777 304.655 482.361C302.664 482.607 299.128 482.948 297.293 483.63C281.644 489.461 269.978 508.555 271.777 525.143C272.575 532.5 277.601 537.776 282.257 543.098ZM463.33 329.952L461.344 332.848C452.106 334.57 445.938 334.727 440.215 343.685C431.968 356.594 427.504 381.04 441.364 391.911C444.779 394.589 451.711 396.168 455.968 397.314C480.628 400.957 490.826 382.917 495.305 361.806C496.59 355.747 493.804 350.36 490.869 345.314C485.325 342.048 478.436 338.69 476.522 332.06C475.875 329.82 476.349 327.47 475.162 326.116L473.681 325.839L463.33 329.952ZM560.539 408.068C562.132 406.94 564.004 405.69 565.504 404.478C570.012 400.232 578.317 395.604 584.095 393.544C577.452 378.815 588.834 375.6 590.585 362.139C590.952 359.309 590.795 356.715 590.528 353.88C580.509 350.416 569.352 347.867 559.233 344.182C555.07 342.666 552.606 339.22 548.81 339.49L548.223 339.983C540.107 346.707 531.2 349.617 526.738 360.28C516.362 385.079 534.565 408.847 560.539 408.068ZM507.276 349.87C507.814 362.325 506.361 365.713 501.949 377.284C494.469 396.901 476.097 406.719 456.015 408.311C443.484 409.248 435.393 402.636 426.024 395.416C424.42 394.185 425.317 391.344 423.273 389.197C422.078 389.321 421.296 389.639 420.636 390.846C418.934 393.956 414.825 393.269 412.391 394.61C399.227 401.863 385.653 403.051 371.291 398.229C358.176 416.076 351.422 415.999 333.965 422.52C337.183 424.28 339.487 425.766 342.534 427.787C343.168 429.308 343.928 431.013 344.455 432.556C346.617 433.555 353.52 437.857 353.913 437.886C355.514 433.297 357.227 429.499 360.288 425.673C370.056 413.896 381.898 405.535 397.492 404.073C399.816 403.855 407.057 403.553 408.537 405.256C411.948 409.183 414.261 408.809 418.779 411.331C428.782 416.915 430.934 420.902 434.861 430.599C442.115 420.607 452.985 413.847 465.152 411.761C471.14 410.774 482.761 411.203 487.283 415.446C502.85 430.057 513.212 425.862 527.75 411.473C511.201 392.923 504.564 380.141 517.704 356.381C518.643 354.692 520.541 351.496 520.929 349.718C518.889 349.438 517.872 349.61 515.871 349.817C512.527 350.1 510.652 350.036 507.276 349.87ZM407.745 556.041C420.128 552.632 424.838 549.37 431.465 538.19C442.545 519.5 435.088 498.938 412.661 495.927C410.194 495.592 406.694 494.726 404.781 492.964C404.612 491.685 404.829 491.559 405.424 490.411C404.084 490.012 403.541 490.148 402.17 490.258C393.958 491.129 388.066 494.003 382.681 500.532C360.573 527.324 370.548 556.266 407.745 556.041ZM271.363 373.774C278.532 373.777 279.474 373.115 285.928 369.972C293.784 356.781 291.671 356.746 304.025 345.94C303.925 343.603 303.814 341.841 303.529 339.517C300.91 335.964 294.955 330.182 293.725 327.406C289.345 317.519 294.145 308.256 278.803 306.518C277.129 306.328 275.037 305.908 273.16 306.097C267.621 307.18 260.881 308.111 255.955 311.021C226.468 328.44 236.513 372.502 271.363 373.774ZM394.161 391.797C400.486 391.474 402.945 391.499 408.69 388.063C426.503 377.411 425.698 341.888 411.098 328.869C410.187 328.068 409.252 327.294 408.295 326.549C400.869 327.391 398.626 324.967 391.631 325.504C386.663 327.261 386.668 329.253 383.672 331.067C374.866 336.397 371.897 338.802 367.355 348.034C360.792 361.37 363.322 371.529 372.48 382.811C374.018 384.706 374.034 388.218 377.291 389.104C382.566 391.167 388.546 391.866 394.161 391.797ZM433.714 266.772C434.769 267.321 435.795 268.067 437.043 267.378C446.45 262.189 451.609 254.565 462.983 252.424C467.41 251.591 469.383 254.681 470.985 249.452C473.897 239.947 475.534 229.777 478.402 220.253C471.28 214.989 466.662 211.961 464.783 202.549C463.542 196.338 467.285 190.127 467.167 186.306C464.425 191.885 455.248 199.839 449.024 201.085C437.557 203.379 430.58 200.767 423.725 212.219C411.742 232.24 415.179 252.145 433.714 266.772ZM395.094 474.851C403.935 473.862 410.68 465.893 415.378 458.938L421.358 457.082C430.485 442.472 429.682 429.684 414.339 420.101C409.035 416.789 403.137 416.693 400.375 411.201C400.17 410.794 397.163 410.929 396.674 410.955C391.674 412.065 387.907 412.922 383.593 415.538C361.688 428.824 354.163 456.148 378.484 471.442C384.138 474.997 388.745 475.5 395.094 474.851ZM178.272 352.12C200.596 349.12 203.893 331.426 206.045 312.534C178.071 303.743 185.339 286.078 178.471 281.524C177.34 281.318 176.302 281.096 175.156 280.994C171.24 281.994 159.94 286.798 157.479 289.683C137.938 312.582 144.115 351.146 178.272 352.12ZM413.317 488.187C429.311 487.851 444.025 495.141 447.105 511.911C447.744 515.388 447.875 518.881 448.081 522.4C450.524 524.655 452.261 525.677 455.087 527.471C455.917 527.198 459.809 525.934 460.277 526.065C468.589 528.373 472.295 532.379 481.411 526.81C491.783 520.234 487.727 519.023 492.696 510.37C493.846 508.366 504.263 497.023 506.488 494.753C495.035 492.173 489.514 492.471 482.072 481.443C480.865 479.655 480.894 478.243 480.65 476C457.542 490.148 440.718 481.375 427.763 459.545C423.456 467.693 407.319 474.368 403.269 481.364C406.783 483.084 414.368 477.891 416.254 482.911C415.925 485.056 414.637 486.394 413.317 488.187ZM328.498 410.176C344.764 411.215 354.436 409.13 363.062 394.156C352.053 378.513 351.549 376.687 351.16 357.265C345.441 351.802 339.624 345.219 331.135 345.855C320.702 348.948 323.047 349.641 315.475 355.446C308.496 360.098 303.772 364.874 299.848 372.474C297.95 376.149 296.072 380.803 297.736 385.038C303.222 399 315.651 405.261 328.498 410.176ZM505.04 227.655C496.46 231.446 490.032 239.083 486.303 247.425C484.831 250.719 485.046 257.124 488.695 257.654C501.666 259.535 509.608 261.823 511.975 277.589L512.037 278.893C513.383 279.281 520.997 276.183 522.79 275.443C527.991 273.297 536.715 273.752 540.207 269.189C545.963 261.667 550.137 253.117 550.205 243.546C550.315 235.357 552.323 225.881 544.611 220.26C541.234 217.8 531.892 214.204 527.87 214.898C516.813 216.384 510.969 218.244 505.04 227.655ZM312.863 163.518C314.029 165.169 315.215 166.796 316.418 168.42C324.342 179.113 339.319 186.206 352.548 182.05C360.614 177.963 366.753 170.874 369.647 162.306C377.146 139.904 364.575 125.565 342.103 124.06C336.031 123.653 336.844 121.032 329.618 121.488C328.321 133.64 308.944 135.673 312.863 163.518ZM193.565 275.869C198.348 278.589 206.252 283.076 209.193 287.575C216.997 299.509 213.775 310.124 232.726 303.155C245.972 297.152 250.443 285.87 254.515 272.066C255.638 268.26 249.416 255.194 248.056 250.485C240.606 250.033 238.984 249.808 231.914 247.644C225.467 245.671 217.516 236.659 213.376 236.701C199.763 245.649 194.181 259.949 193.565 275.869ZM213.218 464.836C222.533 456.447 227.168 446.103 236.96 439.561C235.689 435.112 234.795 431.074 233.632 426.705L229.119 430.058C217.31 431.319 205.661 429.509 195.578 422.884C191.454 420.175 188.506 415.697 183.694 416.184C177.449 417.993 171.216 421.503 168.291 427.524C153.05 458.896 184.525 489.996 213.218 464.836ZM573.027 294.757C572.424 296.904 571.826 299.145 570.652 301.065C566.678 307.558 556.711 316.59 560.927 325.062C563.433 330.093 573.058 330.345 577.913 330.505C589.5 330.889 592.368 334.869 599.011 343.442C599.954 344.457 600.756 345.705 602.287 345.634C608.463 345.351 613.916 337.239 617.193 332.88C615.085 333.424 612.715 334.305 610.686 333.882C610.178 332.16 610.23 333.029 610.655 331.177L611.3 330.841L611.232 332.093C612.904 331.718 612.841 331.787 613.989 330.547L613.858 329.613C612.82 328.95 611.761 328.31 610.692 327.694L610.833 326.91C613.402 325.468 621.502 324.539 622.074 323.536C625.765 317.071 622.986 301.667 619.526 296.463C615.494 290.403 611.148 287.299 605.653 285.89C604.248 285.535 602.812 285.303 601.365 285.197C595.162 286.255 578.307 291.741 573.027 294.757ZM281.437 450.998C283.278 452.14 283.234 452.51 285.223 452.548C288.55 447.56 290.919 442.677 295.371 437.936C300.279 432.708 313.704 430.803 312.531 421.41C312.339 419.872 309.136 417.734 307.748 416.76C300.215 411.477 291.784 406.452 285.788 399.369C282.173 395.099 283.641 385.236 281.734 383.521C279.98 384.518 279.418 384.903 277.778 386.016C272.473 389.616 264.674 390.778 260.482 395.974C259.119 397.663 257.081 403.675 256.429 404.302C251.498 409.037 250.454 408.737 249.175 416.05C247.857 423.585 249.338 429.09 253.842 435.203C260.513 444.258 264.359 445.925 274.881 448.3C276.742 448.72 279.798 449.811 281.437 450.998ZM327.731 334.211C348.227 336.5 368.314 336.618 366.643 309.812C360.962 300.862 358.645 296.094 357.907 285.03C353.57 282.867 351.676 281.956 346.873 281.542C339.36 282.039 325.921 285.802 320.372 289.954C307.355 299.695 302.083 316.565 314.828 328.758C317.591 331.402 324.219 334.141 327.731 334.211ZM381.287 254.531C373.499 260.681 370.181 267.963 368.217 277.343C379.81 291.377 368.834 308.469 396.613 309.535C408.758 308.959 419.158 302.5 423.15 290.955C424.649 286.618 426.877 282.039 428.054 277.639C419.074 272.15 412.747 267.762 408.742 257.476C407.087 253.224 406.98 249.309 401.364 249.81C392.362 254.295 391.391 254.92 381.287 254.531ZM516.525 537.02C519.996 537.015 523.22 537.073 526.68 536.674C534.628 535.5 541.234 534.834 546.53 527.828C550.388 522.735 550.567 517.58 553.005 512.258C551.51 506.494 549.356 502.839 544.003 499.708C539.709 497.165 534.728 496.038 529.758 496.499C523.461 498.397 518.958 500.154 513.693 504.197L513.612 504.806C512.092 515.677 491.025 518.954 516.525 537.02ZM415.831 889.673L416.179 889.138C414.656 888.289 413.082 887.838 411.366 887.607C402.716 886.417 393.75 886.668 385.034 886.375C372.184 885.939 359.139 885.216 346.328 884.083C336.536 883.218 326.612 881.849 316.853 880.617C308.473 879.557 300.389 878.126 291.907 878.792L291.427 879.594C293.232 880.947 302.867 881.576 305.792 881.98C319.927 883.931 334.183 886.495 348.41 887.665C362.099 888.792 376.173 888.724 389.91 889.081C398.539 889.306 407.206 890.035 415.831 889.673ZM294.101 82.9136C296.956 82.74 300.112 82.6267 302.903 82.1427C309.24 82.5307 323.748 79.5028 330.807 78.7245C353.269 76.2488 374.69 74.7689 397.355 74.6871C371.108 68.7874 327.791 73.1401 301.796 80.3602C299.004 81.5281 297.023 82.085 294.101 82.9136ZM627.259 337.159C617.79 347.176 616.055 349.847 603.236 354.502C602.287 368.354 599.881 372.567 594.942 385.183C600.012 387.118 604.757 388.346 610.204 388.592C618.226 388.002 627.804 381.902 633.11 376.046C643.685 364.367 643.229 343.874 627.259 337.159ZM372.463 251.521C370.051 250.943 367.246 250.345 364.891 249.691C353.955 261.349 349.085 272.265 329.911 272.895C328.426 272.942 326.94 272.975 325.454 272.996C328.625 277.937 328.537 278.842 334.471 278.356C342.296 275.329 351.149 272.595 359.673 274.566L372.463 251.521ZM247.67 539.485C250.975 538.148 252.74 537.225 255.223 534.503C254.791 532.17 253.641 517.591 253.966 518.204C244.049 515.766 233.811 513.207 225.367 506.935C219.698 502.724 218.893 496.892 215.569 492.204C208.332 498.24 207.25 506.793 207.711 515.682C208.278 526.595 211.55 533.628 220.312 540.151C227.633 541.541 240.612 541.614 247.67 539.485ZM576.157 449.69C580.645 450.677 582.642 450.605 585.117 454.772C587.34 458.512 593.679 457.165 597.658 456.893C634.604 443.289 625.434 396.485 592.2 398.769C592.127 398.944 592.064 399.121 591.99 399.295C588.467 407.986 570.678 404.673 568.198 425.755C567.768 429.446 567.664 433.686 569.147 437.166C570.626 440.632 574.469 442.748 575.732 445.901C576.215 447.104 575.732 448.45 576.157 449.69ZM259.238 384.278C245.073 378.811 235.606 375.744 228.674 361.119C227.983 359.661 225.685 354.445 224.366 354.217C223.329 354.293 222.443 354.357 221.708 354.411C211.172 355.359 206.831 360.058 200.737 368.948C194.58 377.927 191.684 392.669 201.505 400.804C210.722 408.439 219.35 413.337 231.755 414.553C240.721 405.969 241.833 399.283 249.838 390.898C251.695 388.954 256.811 385.835 259.238 384.278ZM381.4 140.921C381.28 148.87 381.946 159.955 378.335 166.694C376.703 169.742 374.398 172.805 372.58 175.766C387.127 172.807 392.371 169.377 406.754 175.687C409.651 178.143 413.412 181.514 416.365 183.739C417.1 172.625 415.765 167.559 418.393 155.651C417.634 153.801 416.696 151.301 415.806 149.571C406.234 143.394 399.683 139.098 388.216 140.56C385.709 140.789 383.919 140.914 381.4 140.921ZM323.767 552.58C329.346 562.601 332.844 562.423 342.792 568.312C348.578 570.331 352.876 570.017 358.283 567.405C362.54 565.349 368.283 561.678 365.128 556.513C363.41 553.193 358.03 547.76 357.386 544.184C356.072 536.884 357.398 529.039 358.963 521.886C359.267 520.496 352.916 519.542 351.907 519.411C346.975 531.907 341.839 537.975 331.417 546.439C329.312 548.143 325.492 550.907 323.767 552.58ZM535.174 486.939C547.573 486.304 559.144 490.914 564.151 503.117C564.817 505.529 565.76 511.167 566.809 512.672C575.313 516.857 591.157 489.965 583.413 477.336C574.631 463.018 563.149 468.693 557.561 452.781C552.727 439.546 552.045 435.334 556.984 421.504C557.288 420.664 557.608 419.831 557.943 419.006C550.32 418.164 544.527 417.654 537.129 415.524C531.939 419.347 523.865 426.418 518.438 428.982C530.261 428.052 535.897 427.524 546.016 435.732C550.75 439.573 554.252 446.658 554.3 452.713C554.373 462.207 553.98 470.445 547.054 477.561C543.111 481.611 539.672 483.787 535.174 486.939ZM465.165 541.095C465.099 555.323 470.437 560.42 483.935 564.615C496.296 566.97 504.066 560.855 507.427 549.197C501.044 545.721 497.15 543.738 492.971 537.335C492.114 536.019 490.381 532.516 489.67 531.561C477.776 538.935 479.231 538.971 465.165 541.095ZM374.703 68.0323C378.878 70.8006 412.816 72.1778 416.936 70.3434C404.267 67.575 387.807 67.5519 374.703 68.0323ZM288.738 255.214C277.181 257.817 266.068 262.28 264.492 275.495C264.047 279.227 258.461 297.654 263.422 298.352C270.804 299.392 280.736 296.966 289.551 298.459C291.519 299.313 293.793 300.24 295.703 301.152C299.271 295.131 310.006 283.376 315.251 278.744C314.189 277.195 310.42 270.72 309.572 269.776C306.053 265.856 297.68 257.402 292.781 255.297C292.374 255.122 289.255 255.198 288.738 255.214ZM321.018 433.003C305.976 439.603 292.638 457.34 294.046 474.162C303.474 473.56 322.447 473.776 330.961 477.197C333.414 478.591 337.728 481.863 339.918 483.766C343.349 479.66 345.072 476.733 349.689 474.088C351.454 467.301 353.168 460.787 350.614 453.865C350.356 453.167 348.621 452.462 348.227 451.729C342.579 441.206 333.613 434.341 321.018 433.003ZM365.606 506.972C369.352 497.453 380.879 492.304 388.461 485.712C376.836 485.901 373.988 482.744 364.619 475.844C363.349 474.909 360.434 472.532 359.098 471.963C355.776 476.739 347.692 484.763 343.033 488.433L343.509 489.031C348.134 494.9 355.097 512.242 360.312 514.964C362.894 514.434 364.65 509.358 365.606 506.972ZM424.978 605.624C433.656 605.85 440.063 604.586 448.611 603.611C451.246 603.312 455.315 604.539 456.463 603.805C452.523 599.609 429.809 600.281 423.499 600.805C414.625 602.855 401.451 600.375 388.627 602.52C394.624 602.908 400.648 603.306 406.612 604.03C413.191 604.832 418.301 605.85 424.978 605.624ZM502.408 439.783C503.386 448.237 502.471 451.462 498.148 458.947C496.313 462.124 489.577 468.884 489.539 471.966C491.961 474.123 492.314 475.489 494.221 477.536C499.021 482.691 507.569 483.1 514.171 482.864C514.717 482.843 515.263 482.822 515.809 482.791C539.127 480.457 554.483 459.473 535.216 439.698C530.833 435.202 524.085 435.236 518.155 435.715C511.692 436.292 508.124 436.39 502.408 439.783ZM202.672 297.101C201.013 293.751 199.36 290.797 195.42 290.121C197.031 292.681 199.276 296.862 202.672 297.101ZM302.605 240.756C304.328 243.922 306.267 247.166 308.536 249.979C315.899 252.953 319.761 257.729 325.758 258.714C340.659 259.344 350.514 259.316 356.066 242.927C345.131 231.559 341.384 214.19 346.523 199.285C342.516 198.709 339.708 198.197 335.61 198.515C312.485 207.271 303.953 214.835 302.605 240.756ZM212.796 570.158C218.904 582.152 269.19 588.313 281.984 590.983C283 591.192 285.46 590.846 286.563 590.616C282.396 587.49 275.022 586.74 269.98 585.712C253.324 582.319 235.987 580.017 220.494 572.665C218.744 571.836 214.765 570.625 212.796 570.158ZM441.862 326.71C436.557 323.713 432.424 321.371 428.317 316.572C426.251 314.159 424.248 307.327 422.247 306.316C420.204 307.923 418.661 309.127 416.492 310.532C414.252 311.983 409.354 314.121 407.678 315.792C407.603 318.074 411.294 318.863 413.292 319.559C422.62 322.804 426.82 331.488 429.283 340.456L429.809 341.314C432.113 339.708 440.379 329.418 441.862 326.71ZM301.586 183.77C303.708 183.673 305.231 183.81 307.097 182.848C309.038 179.81 303.287 176.308 302.087 173.421C297.851 163.225 301.693 149.207 306.817 139.947C313.281 129.29 320.631 123.69 330.987 117.964C322.988 112.962 319.435 111.41 309.831 112.041C295.659 116.019 285.782 117.886 277.607 131.632C269.04 146.036 274.014 162.673 281.916 176.105C285.218 181.716 295.908 183.152 301.586 183.77ZM486.946 230.944C489.062 229.661 489.306 229.408 490.888 227.497C491.268 225.67 491.422 226.476 490.613 224.967C489.146 224.387 488.753 224.263 487.211 223.948C485.977 225.697 484.016 228.892 484.319 231.087C485.446 231.41 485.791 231.205 486.946 230.944ZM225.585 342.364C227.345 329.23 230.359 321.067 240.596 311.603C242.366 309.967 246.317 307.473 245.763 305.39L244.613 305.368C234.31 311.035 228.428 314.846 216.261 315.059C215.205 327.718 212.046 340.912 202.07 349.53C198.991 352.19 195.418 354.726 193.458 358.239L194.011 357.812C206.505 351.758 208.587 345.035 225.585 342.364ZM551.715 271.936C558.95 280.37 563.176 283.051 574.726 281.345C596.473 280.027 610.388 249.584 593.956 233.778C591.304 231.226 582.941 227.378 579.303 227.877C573.85 229.57 570.862 230.894 565.116 230.977C565.787 244.384 564.261 251.83 557.131 263.78C555.715 266.154 552.832 269.871 551.715 271.936ZM465.095 468.971C477.126 469.441 487.325 457.553 487.31 445.948C487.295 434.448 478.616 420.38 465.628 421.965C455.334 424.804 450.727 427.106 444.72 436.747C438.168 447.263 444.208 460.615 454.273 466.268C457.911 468.311 461.001 468.622 465.095 468.971ZM489.948 170.523C488.19 173.686 485.714 179.327 483.943 181.945C476.966 192.259 476.389 201.152 489.367 207.523C489.905 207.79 490.451 208.041 491.003 208.277C500.411 205.621 501.557 208.238 508.169 207.389L508.733 206.959C516.651 200.981 530.455 208.657 532.038 191.391C533.894 171.174 520.551 165.513 502.767 166.595C498.114 167.529 494.228 168.266 489.948 170.523ZM467.462 260.217C458.314 263.719 449.661 271.09 441.946 277.026C439.282 279.491 437.885 282.647 436.232 285.688C429.645 297.83 439.704 315.969 453.572 316.521C458.176 316.704 463.144 316.007 467.591 316.257C477.331 316.806 478.031 315.496 482.041 307.555C484.786 302.5 487.558 297.743 491.292 293.332C492.545 291.852 499.252 286.385 497.002 283.954C493.361 280.021 487.37 276.97 483.388 273.173C481.084 270.964 477.551 263.179 475.845 262.006C471.721 265.127 461.486 273.37 456.54 273.986L455.978 273.655C461.549 270.573 466.617 268.231 469.094 261.343L468.879 260.549L467.462 260.217ZM244.282 447.276C239.285 453.081 238.988 456.968 231.911 459.261C226.506 470.671 227.368 473.679 230.542 486.477C232.508 494.412 250.365 506.835 257.062 505.356C258.782 503.998 259.394 503.054 260.687 501.339C266.458 492.257 270.658 488.323 279.939 482.466C279.648 474.977 280.519 470.329 281.674 463.022C277.537 462.704 259.208 455.708 254.221 453.384C251.229 451.99 247.052 448.736 244.282 447.276ZM453.214 134.695C444.887 135.514 439.667 137.071 433.859 143.902C426.665 152.364 429.869 160.765 430.231 169.421C430.765 182.178 438.153 182.981 439.429 190.331C442.553 193.142 451.742 189.966 454.814 187.574C461.07 182.191 465.547 173.019 472.253 172.508C474.81 168.359 474.6 164.936 473.733 160.506C476.05 158.764 480.756 159.9 480.648 157.551C479.726 137.57 470.652 133.167 453.214 134.695ZM141.562 351.326C137.01 351.57 135.654 351.377 131.768 353.839C131.136 357.172 129.494 365.1 129.391 368.078C129.137 379.461 134.038 390.497 140.557 399.6C143.234 403.339 145.56 406.784 150.427 407.503C159.045 408.776 166.565 403.609 172.323 397.913C179.59 390.342 180.775 385.933 184.351 376.085C185.767 372.183 189.994 368.825 189.973 364.115C185.467 359.257 184.303 360.891 177.877 362.162C171.587 363.363 165.104 363.096 158.933 361.381C152.383 359.614 145.748 351.719 141.562 351.326ZM492.569 320.985C499.446 333.927 510.92 336.486 524.594 335.742C534.162 334.729 539.331 332.293 545.969 325.06C545.838 315.694 547.489 310.676 552.711 302.723C554.782 299.569 557.597 295.659 553.571 292.563C546.063 286.791 536.385 284.354 526.979 284.988C526.617 285.013 526.256 285.043 525.894 285.078C523.335 285.824 512.996 288.699 511.379 290.593C505.414 297.579 500.204 310.081 493.956 317.776C493.619 318.191 492.75 320.478 492.569 320.985ZM380.663 181.233C370.971 184.141 368.863 188.593 363.44 197.196C359.467 203.499 360.356 211.64 360.891 218.797C362.971 220.552 367.315 223.85 368.865 225.622C369.1 227.843 369.358 230.074 369.499 232.302C374.076 237.562 376.978 239.161 384.105 239.681C386.491 239.86 388.882 239.941 391.275 239.924C396.451 238.538 401.866 232.106 404.246 227.548C409.873 216.772 411.261 209.854 410.001 198.25L409.47 197.814C399.799 189.739 396.835 179.199 380.663 181.233Z" fill="black"/>
<path d="M342.352 644.373C343.074 644.205 357.238 646.046 359.852 646.104C372.353 646.397 385.077 648.201 397.461 649.25C411.096 650.136 428.508 648.967 441.439 651.836C448.61 653.424 443.298 684.811 443.381 690.17C443.933 725.72 438.294 715.311 413.778 720.471L413.135 720.607C413.458 730.293 416.001 746.754 417.654 756.598C419.356 766.729 422.414 775.765 422.887 786.605C430.788 795.944 426.801 799.552 428.726 809.857C430.631 820.062 439.134 831.668 433.707 842.754C432.646 844.919 427.827 849.288 425.39 849.634C414.923 851.102 403.976 850.562 393.387 851.38C389.726 851.721 383.479 850.599 380.126 851.087C363.558 853.483 358.066 850.976 343.273 843.404C340.515 844.946 336.153 848.176 333.724 845.114C333.493 843.157 333.956 842.644 334.725 840.876C336.263 837.247 334.957 832.029 335.021 827.755C335.27 811.331 334.52 795.535 335.192 779.074C335.248 763.73 333.76 743.729 331.746 728.515C330.059 715.767 322.065 716.296 315.376 711.781L314.944 711.482C312.08 712.269 308.71 712.683 305.734 713.134C304.907 710.628 304.193 708.866 303.143 706.438C308.177 688.45 309.385 672.912 313.56 656.503C315.743 654.185 320.641 650.477 323.83 650.084C329.411 651.605 325.597 663.053 324.669 667.002C322.396 676.666 319.281 686.158 318.749 696.159C318.547 699.956 318.999 700.879 321.449 703.537C323.475 703.265 326.261 702.735 328.294 702.719C357.556 702.462 386.678 705.682 415.943 705.509C420.681 705.478 425.097 706.086 429.688 704.361C430.424 703.49 430.576 702.662 430.747 701.566C431.498 696.71 433.307 666.094 431.269 663.672C430.771 663.079 430.086 662.749 429.317 662.638C421.701 661.563 409.498 661.674 401.241 661.217C385.211 660.331 369.243 658.763 353.225 657.777C345.194 657.284 337.007 657.541 329.031 656.859C327.646 655.318 326.394 648.427 326.894 646.507C329.476 644.137 336.545 645.527 342.352 644.373ZM383.374 772.807L383.895 772.839C394.909 773.447 395.677 771.155 407.331 775.235C405.627 762.225 402.432 748.695 400.674 735.495C399.921 729.837 398.098 725.778 397.672 719.228C383.546 717.24 368.232 717.833 353.953 716.585C350.593 716.291 343.854 716.239 340.842 715.552C342.143 719.05 344.422 724.54 345.115 728.085C347.726 741.442 348.885 756.183 348.676 769.792C348.507 780.799 346.586 788.713 349.815 799.857C355.793 786.557 369.217 776.148 383.374 772.807ZM389.296 834.048C426.147 834.395 418.524 780.868 387.829 782.908C378.083 785.404 372.858 789.625 367.422 798.173C357.136 814.346 372.924 831.851 389.296 834.048ZM413.903 838.176C417.498 838.627 418.81 838.627 421.828 836.377C421.027 834.431 420.119 832.475 419.505 830.467C417.106 832.355 413.279 834.62 411.887 837.378C412.561 837.704 413.181 837.976 413.903 838.176ZM349.228 833.624C352.23 835.192 355.267 836.44 358.419 837.656C358.235 835.622 352.778 829.077 351.097 827.755C350.753 827.488 350.683 827.483 350.33 827.346C349.93 829.413 349.404 831.526 349.228 833.624Z" fill="black"/>
<path d="M374.702 68.0321C387.806 67.5518 404.267 67.5748 416.935 70.3432C412.815 72.1776 378.877 70.8005 374.702 68.0321Z" fill="black" fill-opacity="0.0117647"/>
<path d="M195.42 290.121C199.36 290.797 201.013 293.751 202.671 297.101C199.276 296.862 197.031 292.681 195.42 290.121Z" fill="black" fill-opacity="0.0117647"/>
<path d="M294.102 82.9137C297.023 82.0851 299.005 81.5282 301.796 80.3604L302.903 82.1428C300.112 82.6269 296.957 82.7401 294.102 82.9137Z" fill="black" fill-opacity="0.054902"/>
</g>
<defs>
<clipPath id="clip0_2091_9251">
<rect width="771.583" height="1024.1" fill="white"/>
</clipPath>
</defs>
</svg>
