<svg width="772" height="1025" viewBox="0 0 772 1025" fill="none" xmlns="http://www.w3.org/2000/svg">
<g clip-path="url(#clip0_2091_9549)">
<path d="M473.126 235.761C511.34 233.484 552.572 240.228 590.194 246.257C607.363 249.047 624.622 251.223 641.944 252.78C649.377 253.459 656.582 253.901 664.187 254.442C670.101 254.863 690.087 251.089 692.517 258.295C694.373 263.809 692.167 274.472 692.758 280.796C693.477 288.491 694.895 296.308 695.607 303.972C698.36 330.74 700.319 357.582 701.476 384.465C702.138 398.601 700.885 413.022 701.336 427.074C701.871 443.819 702.348 460.378 702.265 477.14C702.233 483.791 703.486 490.742 703.295 497.437C699.092 538.544 709.228 578.774 704.808 619.894C704.465 623.88 705.851 639.506 703.568 641.763C688.211 656.964 668.747 677.161 644.983 664.205C642.732 659.589 642.44 656.837 641.708 651.846C634.961 657.784 626.199 663.226 619.115 669.106C586.952 695.795 551.745 717.868 516.292 740.081C506.221 746.266 496.09 752.357 485.901 758.339C482.632 760.285 473.511 765.523 471.206 767.399C460.526 776.076 465.903 797.425 465.247 808.512C464.671 818.245 442.143 823.967 434.479 829.727C427.457 829.771 409.748 827.324 402.891 824.348C401.363 823.687 397.761 820.642 396.344 819.44C397.536 804.64 399.214 788.314 394.701 773.845C383.421 771.677 370.631 770.634 359.18 769.318C346.375 767.742 333.604 765.905 320.874 763.807C311.969 762.421 301.133 760.965 292.511 758.918C269.751 754.442 247.862 752.357 225.256 748.886C192.541 743.87 160.588 736.807 127.211 736.425C120.976 736.349 109.47 733.463 102.48 732.534C107.49 744.919 108.171 749.051 106.045 762.459C100.238 767.901 82.2603 778.899 73.9676 785.237C64.1334 785.447 36.8604 787.602 34.1998 772.732C33.6574 769.7 35.9034 763.184 35.8335 759.611C35.663 750.876 33.9811 742.02 35.2141 733.323C35.7832 729.585 39.8358 724.969 40.2129 720.627C40.569 716.533 39.116 712.604 38.8018 708.77C38.0705 704.301 39.6775 698.026 39.2323 693.678C37.9764 681.402 39.2775 671.598 40.5855 659.437C42.0379 645.927 41.3015 632.189 45.5093 618.953C46.5452 615.691 47.1232 611.998 48.4408 608.774C62.1533 578.5 87.5561 555.69 110.694 532.74C133.184 510.431 152.411 485.844 182.008 472.424C190.018 468.792 194.907 465.676 203.996 464.591C207.869 456.671 208.709 454.147 210.075 445.266C211.178 438.104 215.202 430.848 217.209 423.798C222.709 404.471 232.901 385.185 248.802 372.439C252.122 369.777 260.599 365.025 265.001 362.035C266.769 346.304 265.901 333.438 264.233 317.873C263.669 312.62 265.582 304.949 265.139 299.387C264.777 294.832 263.696 290.496 263.534 285.943C262.834 280.385 267.931 272.387 266.762 267.438C264.677 258.616 278.868 255.513 285.976 254.491C312.727 250.646 340.098 249.034 367.065 246.645C402.47 243.509 437.651 238.518 473.126 235.761ZM54.0786 628.298C70.3563 637.364 67.7091 631.07 82.7849 633.079C96.7766 635.355 110.576 640.212 124.551 642.246C144.517 645.158 165.431 642.787 185.259 645.59C213.228 649.729 240.62 658.356 268.391 663.95C276.042 665.495 285.147 666.557 292.474 668.458C332.98 678.941 373.838 683.76 415.336 688.681C421.196 688.636 426.199 688.573 432.019 689.228C436.565 689.743 441.579 690.83 446.017 690.931C453.123 684.599 459.211 684.377 466.335 679.412C474.601 673.652 482.811 665.425 490.985 659.481C502.912 650.81 515.842 643.035 527.808 634.427C525.064 623.053 524.477 621.101 524.665 609.525C499.076 563.491 397.424 551.342 350.511 538.093C345.623 536.713 335.916 538.035 330.875 536.63C313.192 531.716 298.179 529.898 279.921 529.141C266.824 528.595 251.688 525.232 238.286 524.609C218.867 522.682 188.275 513.61 168.948 516.675C137.661 518.989 133.694 525.333 112.464 546.65C86.2919 572.931 64.6313 591.177 54.0786 628.298ZM276.297 277.655C274.415 286.059 276.544 291.329 276.17 299.293C275.265 318.548 278.137 336.819 277.381 356.103C299.167 350.268 320.759 344.743 343.137 341.616C348.463 340.871 353.802 341.473 359.146 341.136C382.11 339.688 445.573 334.491 463.98 344.887C469.252 347.865 473.283 352.872 478.915 355.078C480.266 355.607 481.598 356.198 482.946 356.74C508.567 332.228 534.598 331.614 567.49 339.278C586.102 342.761 606.67 349.674 624.755 355.61C635.718 359.207 634.326 365.214 648.83 366.821C651.368 371.267 652.194 373.216 653.491 378.193C648.271 397.103 647.527 409.188 643.616 426.5C649.689 427.647 655.94 428.743 661.923 430.198C656.207 384.297 671.824 322.971 661.059 280.035C655.558 279.926 648.544 278.087 643.203 276.632C629.372 272.862 616.043 273.175 601.958 272.265C591.581 271.595 580.767 269.016 570.209 268.791C541.89 266.568 513.647 266.484 485.286 265.686C473.11 265.322 460.93 265.155 448.748 265.187C446.094 265.197 435.515 265.197 433.35 265.556C413.855 266.766 394.405 268.636 375.036 271.164C363.205 272.709 351.386 274.35 339.581 276.086C323.509 278.447 310.266 280.341 293.923 278.998C287.912 278.503 282.392 279.009 276.297 277.655ZM431.956 766.4C435.328 764.48 437.843 758.492 438.891 754.887C444.349 736.107 438.02 721.371 444.976 702.743C434.838 701.059 426.045 701.097 416.049 700.042C389.574 697.244 363.1 693.506 336.783 689.52C320.693 687.085 303.45 682.686 287.488 679.278L227.371 666.43C215.334 663.753 203.875 659.583 191.565 657.873C180.938 656.398 169.499 654.929 158.789 654.484C146.902 653.988 133.097 655.355 121.484 653.486C104.702 650.784 80.9224 641.865 64.3973 643.162C61.9949 643.721 55.0134 645.876 54.5702 648.26C53.4116 654.491 49.7259 670.956 50.4381 676.97C51.2991 684.243 49.5618 705.229 51.0161 710.887C53.1884 713.068 61.8207 712.553 65.8256 713.131C70.9057 713.869 78.1861 715.91 83.3522 717.823C85.0602 718.453 87.9294 719.247 89.8122 719.533C106.972 720.837 123.386 725.935 140.62 726.088C168.226 727.143 195.855 732.382 223.035 736.991C236.239 739.273 250.106 740.087 263.359 742.49C305.254 748.962 347.035 758.479 389.42 760.977C393.315 761.206 397.278 761.423 401.17 761.747C411.573 763.088 421.33 766.241 431.956 766.4ZM220.054 463.272C235.212 462.461 240.112 458.514 253.405 452.618C265.46 447.272 278.674 442.52 291.045 437.943C298.238 435.405 309.038 431.357 316.243 429.472C340.301 423.178 371.19 420.733 394.352 431.758C398.755 433.854 403.265 437.136 407.248 439.96C430.12 420.538 421.619 420.045 452.09 423.914C450.377 405.921 461.262 383.994 470.277 368.82C469.166 365.737 467.917 362.469 467.031 359.336C461.34 355.586 458.209 353.631 451.28 352.097C441.5 349.932 431.658 350.84 421.718 350.583C412.633 350.348 403.117 349.167 394.098 350.105C381.266 351.307 370.286 351.639 357.383 351.415C349.653 351.281 339.225 354.349 331.351 355.022C300.925 360.753 267.12 366.458 245.549 390.882C235.421 402.349 232.644 414.719 227.619 428.336C222.398 442.48 220.26 447.592 220.054 463.272ZM646.331 439.624C644.144 440.004 642.153 440.048 640.627 441.501C638.166 446.822 637.715 452.444 635.744 457.102C629.251 472.467 621.372 487.345 612.266 501.302C610.689 503.718 603.663 510.349 601.303 512.599C589.168 511.385 580.062 511.334 567.971 510.724C562.095 515.912 560.898 517.679 555.675 523.299C564.015 527.73 574.484 533.954 579.36 542.193C583.802 549.695 584.75 552.301 590.932 558.818C595.809 565.48 596.54 568.093 598.607 576.167C605.914 570.903 619.535 560.731 626.027 554.406C637.842 542.88 648.589 531.093 661.319 520.222C660.938 507.742 662.954 495.829 663.812 483.445C664.48 473.803 662.197 463.253 661.408 453.627C661.135 450.328 660.429 447.77 659.641 444.609C655.03 440.047 652.665 439.8 646.331 439.624ZM312.932 469.814C331.639 473.266 350.725 474.311 367.969 478.049C376.271 472.696 389.211 456.367 398.547 449.31C389.508 435.748 359.069 434.54 344.139 436.039C317.908 438.747 297.648 447.398 273.208 456.601C265.691 459.432 257.451 463.543 250.023 466.226C272.721 466.851 290.22 466.114 312.932 469.814ZM586.535 485.732C571.706 504.449 596.172 506.464 606.728 489.606C622.237 464.83 629.842 443.068 634.211 414.221C636.31 401.41 637.842 390.309 641.816 377.615C626.224 368.616 617.837 365.013 600.508 359.961C577.264 353.183 552.761 344.526 528.168 346.877C505.543 349.462 493.137 360.009 479.257 377.083C469.3 389.331 462.424 411.528 463.249 427.302C478.312 427.589 488.255 431.196 502.637 433.766C533.206 439.228 568.576 442.479 594.06 461.812C599.93 466.266 589.991 481.524 586.535 485.732ZM408.738 814.564C416.185 816.09 423.691 817.311 431.238 818.226C431.249 809.3 431.42 785.536 424.871 778.047C421.742 774.468 411.859 775.123 407.131 775.244C409.81 790.279 409.448 799.319 408.738 814.564ZM283.573 266.947C296.019 268.607 313.506 268.72 326.009 266.917C368.353 260.809 410.968 253.882 453.867 254.103C463.258 254.151 472.716 254.314 482.12 254.464C504.186 254.721 526.246 255.346 548.291 256.341C559.531 256.892 571.534 258.057 582.541 258.448C598.143 260.603 607.058 262.478 622.663 262.865C626.637 263.605 630.586 263.611 634.612 264.04C645.422 264.235 657.542 271.185 665.663 265.816C664.009 265.023 639.127 263.591 634.911 263.241C633.2 262.538 624.755 262.139 622.663 262.116C615.401 262.071 596.184 258.241 587.585 257.213C577.496 255.357 566.976 253.056 556.947 251.644C507.931 244.743 460.598 246.171 411.7 252.927C382.979 256.897 353.149 258.361 324.287 261.765C309.722 263.228 298.045 262.728 283.573 266.947ZM680.543 268.518C678.921 269.633 673.42 273.567 671.952 274.177C675.08 292.928 677.382 307.712 675.405 326.851C674.73 334.791 675.621 343.744 674.762 351.595C672.098 376.073 672.53 399.454 672.899 423.901C673.185 443.16 672.365 456.644 675.513 476.163C677.681 489.58 669.758 501.626 676.39 517.425C672.74 530.61 677.91 542.136 677.357 555.792C677.013 564.387 676.536 572.766 675.977 581.342C675.913 590.58 677.586 600.224 677.433 609.512C676.32 624.871 675.01 630.625 679.322 645.959L679.913 647.033C683.595 645.037 688.072 639.169 693.311 635.927C693.203 630.307 692.72 622.22 693.311 616.836C696.389 588.85 692.014 561.443 690.672 533.56C690.246 521.627 691.461 509.84 691.69 497.926C691.823 490.668 690.704 483.234 690.691 475.845C690.59 413.076 690.45 350.835 681.7 288.512C681.217 285.071 681.128 269.459 680.543 268.518ZM658.14 655.578L669.974 655.508C669.007 652.85 665.249 636.671 665.052 636.474C659.857 640.32 650.465 645.59 655.31 654.751C655.654 655.406 657.364 655.559 658.14 655.578ZM529.58 647.199C522.421 651.922 515.285 656.144 508.103 660.848C491.941 671.446 475.244 689.857 457.514 696.081C457.512 705.77 453.491 709.921 453.09 716.717C452.332 729.559 453.409 737.843 451.465 751.06C450.657 755.211 449.953 759.776 447.629 763.342C453.139 762.116 459.987 760.755 464.877 757.926C499.842 737.697 534.394 716.126 567.822 693.43C575.695 688.083 583.448 683.455 591.008 677.498L638.974 640.32C649.027 632.475 652.251 626.601 665.37 620.097C666.877 606.893 664.855 596.104 664.69 582.989C664.594 575.074 667.697 540.305 663.628 534.742C652.29 542.734 644.653 550.725 635.279 560.795C626.11 570.649 609.367 579.524 601.558 589.492C600.369 601.266 598.836 606.746 589.31 614.82C586.933 617.23 580.62 620.548 578.845 623.104C571.416 633.816 565.889 642.793 556.171 651.992C553.665 654.364 541.857 673.62 535.318 665.165C533.221 662.457 531.503 651.91 529.58 647.199ZM444.975 812.136C448.247 810.139 451.588 808.251 454.991 806.484C453.664 792.796 452.365 789.586 454.555 776.115C452.945 775.371 452.858 775.708 450.793 775.873C441.115 779.211 439.835 783.184 441.212 793.502C441.958 799.084 441.368 807.902 443.053 812.74C444.399 812.892 443.762 813.026 444.975 812.136ZM343.985 342.386C347.833 344.77 355.73 345.233 359.075 342.014C353.977 342.43 349.116 342.797 343.985 342.386ZM372.823 498.855C385.88 501.232 393.716 506.865 401.45 509.039C421.68 514.716 501.441 533.757 519.912 527.654C526.406 524.456 534.158 521.373 540.211 518.302C556.521 510.031 577.188 484.262 583.247 467.469C553.867 452.25 525.162 448.785 492.906 443.29C489.252 442.668 474.524 437.959 472.747 438.184C459.846 439.821 447.148 433.563 435.669 433.33C424.453 434.947 416.239 448.993 408.522 455.786C397.949 465.091 387.478 473.963 378.547 485.006C375.798 488.385 374.115 494.563 372.823 498.855ZM150.923 508.206C186.835 502.275 211.225 508.772 246.328 514.157C258.011 515.95 271.325 515.772 283.231 517.876C289.752 518.677 297.707 517.984 304.075 519.217C320.791 522.523 336.787 526.103 353.869 527.241C357.233 527.469 362.453 529.459 365.95 530.089C391.779 534.78 416.344 541.685 441.495 548.97C465.169 555.836 487.876 561.78 508.25 576.688C516.435 582.537 534.93 597.204 535.888 607.465C537.029 619.677 538.398 629.97 536.711 642.183C539.448 645.482 540.629 646.963 542.219 650.981L542.802 651.674C544.841 648.712 546.75 645.12 549.757 642.901C558.151 636.703 564.489 622.348 571.557 615.996C584.946 603.962 593.889 599.334 587.749 578.195C586.869 575.099 585.582 572.137 583.922 569.384C581.353 565.131 576.729 560.013 573.714 555.766C571.095 552.073 568.048 546.866 565.072 543.706C561.745 540.203 557.887 537.241 553.638 534.939C549.658 532.778 541.357 529.542 537.693 531.678C522.593 540.489 521.333 540.623 503.964 539.809C477.809 538.582 452.423 533.197 427.013 526.974C416.929 524.564 406.117 522.32 396.167 519.395C390.028 517.329 384.322 514.24 378.22 512.014C373.889 510.438 368.754 510.4 364.681 508.626C356.351 505.002 361.376 494.457 363.555 488.624C353.899 486.739 345.914 485.854 336.133 485.056C320.688 483.796 305.505 478.84 289.823 478.548C270.901 477.942 251.965 477.848 233.039 477.466C226.196 477.338 217.32 475.057 209.776 474.669C190.984 475.842 164.008 495.197 150.923 508.206Z" fill="black"/>
<path d="M52.2058 723.767C57.5543 724.053 61.7017 724.339 67.0197 725.051C66.8276 728.147 66.3539 734.454 66.7176 737.181C68.6342 751.53 71.443 758.262 70.8446 773.171L64.1213 773.679C56.245 774.016 53.4687 774.366 45.7852 771.963C46.3969 766.864 46.8764 762.198 46.931 757.074C47.0137 749.305 45.1041 728.542 52.2058 723.767Z" fill="#FDFCFB"/>
<path d="M78.826 728.288C82.8016 729.413 86.8478 730.754 90.7948 732.007C92.6129 740.201 100.901 753.972 91.4301 760.03C88.4814 761.607 85.1093 763.806 82.2198 765.593C81.884 753.342 75.9663 739.178 78.826 728.288Z" fill="#FDFCFB"/>
<path d="M587.585 257.212C596.185 258.24 615.402 262.071 622.664 262.115V262.865C607.059 262.478 598.143 260.603 582.541 258.448C584.89 258.195 585.46 258.193 587.585 257.212Z" fill="#BDB9AF" fill-opacity="0.01"/>
<path d="M343.985 342.386C349.116 342.797 353.977 342.43 359.075 342.014C355.73 345.232 347.833 344.77 343.985 342.386Z" fill="#545351" fill-opacity="0.427451"/>
<path d="M622.663 262.115C624.755 262.138 633.2 262.538 634.91 263.241L634.612 264.04C630.586 263.61 626.637 263.605 622.663 262.865V262.115Z" fill="#1C1C1D" fill-opacity="0.654902"/>
</g>
<defs>
<clipPath id="clip0_2091_9549">
<rect width="771.583" height="1024.1" fill="white"/>
</clipPath>
</defs>
</svg>
