<svg width="880" height="1168" viewBox="0 0 880 1168" fill="none" xmlns="http://www.w3.org/2000/svg">
<path d="M364.632 140.76C373.083 129.354 385.157 129.475 398.166 125.376C402.359 124.055 410.817 125.529 415.554 124.488C442.076 119.63 468.844 122.516 490.538 139.819C494.275 142.8 493.773 147.573 501.474 145.985C503.652 145.735 503.576 145.622 505.216 146.534C506.689 149.724 505.72 153.737 505.173 157.187C506.329 159.734 513.323 172.44 514.981 174.037C518.292 178.632 519.185 181.659 520.985 187.043C524.655 205.719 516.609 250.968 513.187 271.112C512.071 277.683 505.736 297.185 502.437 303.307C511.239 302.9 521.447 302.844 530.095 301.821C554.727 298.908 579.083 297.334 603.829 296.073C618.007 295.349 630.72 292.692 645.166 293.366C649.107 290.073 654.502 283.744 658.979 282.816C667.026 284.491 668.286 306.107 670.545 312.701C672.353 311.849 674.993 310.523 676.932 310.089C683.885 308.533 691.23 313.507 696.837 308.049C703.315 302.036 706.002 293.238 711.482 286.607C712.714 285.116 715.646 284.195 717.482 284.877C723.938 287.274 726.06 290.882 723.111 297.585C718.703 307.593 710.849 321.748 700.418 326.39C691.379 330.416 675.136 326.933 670.459 317.456C669.216 320.752 671.862 335.491 672.33 340.576C673.488 347.17 671.651 370.489 664.539 373.106C655.066 376.591 637.592 373.664 627.024 372.702C614.956 371.603 603.937 372.933 591.972 372.651C568.461 372.097 535.557 364.689 514.912 379.051C514.967 400.758 516.752 422.527 517.622 444.276C518.517 460.164 517.18 477.093 518.664 492.9C520.407 511.451 521.621 530.764 526.401 548.78C530.17 562.987 543.397 571.47 552.963 581.719C555.387 584.314 559.919 586.458 562.174 589.435C571.931 602.712 553.727 604.44 545.37 604.258C550.393 615.185 553.597 626.528 558.256 637.25C564.513 651.65 570.728 667.18 577.269 681.301C579.876 680.16 582.425 678.883 585.208 678.347C589.047 678.056 597.174 678.17 593.21 684.409C592.776 685.402 591.294 688.801 591.516 689.702C597.972 715.503 610.576 739.695 619.65 764.806C624.686 778.756 630.936 799.407 638.162 812.102C643.666 802.116 650.875 784.003 662.138 779.771C665.224 778.608 671.138 778.608 673.197 781.79C673.482 786.615 672.878 791.086 672.775 795.86C672.598 803.924 672.444 811.463 671.56 819.499C674.794 815.49 680.508 811.663 684.438 808.025C694.384 798.82 701.855 789.187 708.779 777.564C712.84 770.755 716.045 767.624 723.493 773.207C725.284 778.231 724.463 780.153 722.307 785.075C720.003 790.345 716.763 795.095 713.342 799.692C711.631 802.065 709.811 805.469 708.22 807.352C714.18 806.376 718.201 804.198 723.852 802.293C729.402 800.428 735.59 800.131 741.395 800.16C739.434 812.091 742.838 815.347 733.594 824.067C731.004 828.539 720.151 837.761 715.235 839.905C714.22 841.542 714.117 841.627 713.815 843.486C711.653 844.65 707.068 848.562 705.009 850.199C692.149 860.448 684.067 869.926 667.26 872.84C667.197 865.78 667.631 862.044 670.773 855.594C680.326 850.718 696.717 837.595 704.268 830.118C697.144 828.909 692.006 829.029 693.283 819.488C688.738 821.467 682.533 828.904 677.913 831.322C670.374 835.263 664.391 844.308 657.696 848.072C655.454 838.012 659.703 829.782 661.118 819.847C661.933 814.076 662.469 808.327 662.988 802.521C649.512 822.853 638.596 843.737 625.353 864.041C622.895 867.805 612.127 866.31 607.884 866.065C610.188 853.946 622.193 839.996 628.952 828.014C619.901 814.651 611.905 788.098 606.019 772.916C597.151 750.024 588.083 727.234 579.842 704.102C564.025 721.514 555.837 728.962 531.893 732.036C536.922 750.691 556.301 763.614 568.17 778.163C582.659 795.922 594.773 812.895 601.782 834.989C607.194 852.058 606.521 843.897 596.079 857.22L590.632 855.714C593.472 865.655 598.069 865.905 601.251 876.285C603.578 875.481 605.42 874.563 607.787 874.922C609.504 876.125 608.985 875.327 609.39 877.397C608.072 882.04 604.69 885.022 600.995 887.88C598.919 893.919 598.354 895.664 592.178 892.602C588.402 892.676 583.8 894.929 579.659 895.448C560.45 897.9 519.191 899.314 517.678 872.344C516.898 858.451 537.712 850.262 547.948 845.226C558.223 840.167 570.46 842.044 581.393 843.11C578.615 816.465 558.067 793.151 540.109 774.986C536.228 771.057 531.762 767.487 528.174 763.266C519.635 752.242 505.063 730.97 516.009 717.761C519.418 713.643 527.408 709.109 528.324 707.524C527.472 704.165 524.707 701.439 522.879 698.593C513.498 683.959 499.771 674.811 495.017 657.576L489.236 654.542C491.751 666.017 499.589 686.189 498.622 696.677C497.421 709.68 473.911 731.745 463.354 739.404C455.005 745.455 445.061 750.64 436.343 756.234C430.176 760.215 424.495 764.983 418.571 769.175C419.169 771.735 419.969 775.374 420.928 777.661C424.139 785.303 430.845 791.052 425.061 799.407C406.998 825.505 367.638 823.965 347.72 843.595C364.612 853.729 374.156 866.995 382.128 884.623C385.326 891.689 388.981 887.834 387.163 899.189C402.173 894.666 435.508 882.422 450.25 890.554C452.221 891.644 454.12 893.429 454.793 895.63C455.478 897.872 454.731 900.147 453.519 902.052C446.388 913.287 410.811 929.153 397.799 931.685C395.295 932.17 392.785 932.866 390.332 931.896C388.889 930.362 389.224 931.235 389.164 929.244C392.382 923.387 432.945 911.274 442.691 898.128C420.086 896.132 402.976 903.5 381.437 908.28C375.394 918.483 369.164 917.108 358.411 918.933C355.032 923.918 349.476 925.828 343.63 926.65C320.823 929.849 293.233 938.438 272.764 923.963C262.768 916.891 260.204 909.05 256.367 898.242C254.25 898.077 248.604 897.752 246.833 897.01C230.822 890.355 214.362 887.167 198.049 881.794C192.185 879.861 189.575 874.323 190.087 868.375C191.703 849.612 222.089 860.18 234.343 862.096C221.162 844.388 210.481 844.331 192.41 838.177C192.733 833.911 193.031 830.894 194.337 826.788C197.85 823.622 200.184 820.44 204.905 820.72C216.066 822.111 231.524 832.057 239.092 840.156C245.557 847.074 249.082 858.155 256.513 864.714C259.406 867.269 260.763 870.599 260.487 874.295C259.571 876.548 254.67 878.732 252.418 879.918C253.034 881.412 253.721 882.975 254.258 884.486C270.086 884.178 264.927 886.973 270.435 899.343C276.612 913.219 292.727 921.522 307.525 921.123C324.205 921.317 327.641 923.199 343.077 918.374C330.032 917.61 315.274 916.492 305.89 905.782C299.681 898.693 292.537 883.779 289.751 874.819C289.838 871.831 289.504 871.517 287.231 869.829C285.43 867.85 275.806 843.498 273.377 839.221C271.783 836.409 273.855 833.603 274.911 830.768C278.969 819.864 288.278 813.248 296.926 806.177C325.977 784.727 341.183 752.145 354.571 719.655C359.795 707.153 364.757 694.224 374.19 684.232C377.676 680.537 380.65 678.506 386.039 678.313C391.633 678.113 391.555 678.067 395.339 681.472C395.454 678.889 394.581 675.296 394.283 672.678C393.384 664.779 390.117 649.255 391.296 641.824L391.397 641.219C387.025 640.854 380.518 640.609 376.685 638.932C375.468 637.49 374.967 636.646 373.332 635.801L369.159 639.189L359.631 637.256C357.312 626.517 352.281 614.82 348.69 604.132C333.786 559.944 343.3 514.19 349.555 469.425C352.278 449.944 358.862 434.69 364.536 416.594C353.011 420.93 338.079 424.856 326.025 428.071C315.463 430.888 301.121 436.44 291.263 438.736C273.451 442.885 238.161 446.86 220.807 442.726C210.467 433.439 206.97 428.541 205.149 414.231C200.009 416.982 195.474 421.25 190.586 424.493C186.402 427.268 158.845 443.01 155.022 443.688C153.223 444.007 151.778 444.014 150.257 442.955C147.53 438.245 150.655 426.903 151.464 420.556C157.292 416.308 159.81 415.125 166.292 412.328C166.955 414.725 167.461 416.706 167.969 419.144C173.012 416.718 178.508 413.121 183.206 410.047C191.037 404.922 192.983 400.574 202.817 400.298C202.07 390.833 201.512 382.284 201.524 372.796C199.005 371.377 193.939 374.021 189.467 374.453L188.697 374.524C183.648 372.753 178.554 368.455 173.565 366.016C167.917 363.254 162.179 361.322 156.77 358.193C155.144 354.827 157.078 350.932 158.305 347.341C164.02 343.521 165.351 342.107 172.231 344.858C182.808 349.088 191.15 356.921 201.499 361.56C203.532 344.342 203.55 343.39 219.8 340.47C230.832 338.487 241.419 339.723 251.846 338.148C269.907 335.42 287.634 331.92 305.955 330.668C311.825 330.2 318.536 328.253 324.522 327.461C336.302 325.903 348.102 324.336 359.856 322.594C346.666 306.111 335.889 291.557 333.065 269.82C331.196 255.434 334.291 242.901 335.839 228.714C337.86 225.832 339.611 223.909 341.972 221.276C342.916 204.615 351.63 164.928 359.497 150.297C361.088 146.497 362.513 144.24 364.632 140.76ZM373.822 152.917C365.144 168.063 362.694 179.409 357.934 195.926C350.83 220.581 340.228 241.975 348.302 268.223C354.043 286.888 363.491 307.104 380.057 318.587C383.84 321.182 392.608 323.284 396.948 324.512C402.053 325.957 409.414 322.689 410.382 330.006C410.83 333.388 412.476 336.578 412.136 340.252C409.304 342.385 393.867 340.359 387.845 341.354C384.807 341.855 375.471 343.524 372.909 343.795C371.468 342.707 369.933 341.487 368.437 340.502C335.511 343.154 299.629 344.826 267.198 351.451C248.624 355.245 229.457 352.07 212.326 355.123C209.904 374.414 214.008 393.917 219.127 412.566C220.716 418.356 223.412 424.435 225.069 429.963C271.285 434.035 318.588 413.902 363.04 403.578C370.023 401.956 397.845 384.562 403.388 387.129C406.425 393.931 388.968 401.237 383.764 404.916C382.324 413.922 378.784 414.597 374.352 421.64C371.405 426.322 369.338 431.978 367.857 437.292C357.591 474.129 347.565 543.631 356.558 581.074C360.078 595.726 367.409 609.761 373.018 623.717C384.445 624.492 408.493 624.521 419.274 622.838C430.827 621.036 444.245 617.591 456.327 615.687L529.29 604.486C529.8 603.636 529.1 596.866 528.992 595.298C531.296 594.91 534.002 594.528 536.243 594.003C530.347 587.525 521.126 578.719 517.005 571.065C502.002 543.193 503.95 502.557 502.403 471.585C502.038 464.285 502.59 457.167 502.043 449.915C501.977 438.26 501.437 426.843 500.942 415.205C500.521 405.333 500.686 395.372 500.19 385.499C499.817 377.161 497.218 369.439 497.796 360.857C498.181 355.159 505.827 351.043 510.126 355.617C510.676 356.202 511.932 359.183 512.333 360.122C522.135 357.052 528.112 354.323 538.81 353.341C556.534 351.715 573.602 355.074 591.122 355.625C608.905 356.185 639.229 354.661 656.099 358.676C657.673 350.324 657.964 304.324 653.966 298.516C650.818 298.319 643.518 306.546 638.715 307.662C617.477 312.596 596.369 312.453 574.925 314.175C551.237 316.078 526.99 318.636 503.306 320.901C492.051 321.977 487.448 335.826 483.297 345C487.917 349.261 486.266 351.417 482.306 355.674C484.835 379.164 484.597 401.031 485.176 424.496C485.637 452.346 487.624 480.149 491.13 507.781C493.169 524.816 494.978 539.802 499.546 556.445C501.911 565.061 519.445 602.769 505.236 605.238C496.493 603.796 497.919 584.987 491.378 577.607C490.387 577.493 489.43 577.641 488.738 576.865C483.766 571.293 474.024 466.103 473.475 452.218C472.779 433.615 472.304 415.004 472.049 396.389C472.012 393.734 471.475 362.017 470.58 359.472C467.815 351.611 458.407 325.917 454.693 316.554C454.276 315.503 449.872 312.41 448.611 311.51C445.58 300.483 428.981 281.099 422.264 271.392C399.234 238.114 380.006 171.786 432.245 155.063C441.552 152.083 464.05 149.773 473.963 149.2C459.816 141.795 440.191 136.926 424.413 139.382C417.437 140.033 402.278 142.79 395.756 145.139C385.61 148.792 385.975 152.2 373.822 152.917ZM471.912 189.112C476.136 191.559 482.059 191.603 486.898 191.551C486.629 188.678 486.408 185.716 485.949 182.873C490.25 180.704 494.731 178.617 498.673 175.87C495.088 171.889 491.912 167.755 488.35 163.782C486.465 161.679 485.783 161.897 482.962 162.215C470.844 163.428 464.006 164.556 452.304 166.454C456.974 172.744 466.093 183.954 471.912 189.112ZM495.356 285.488C497.123 280.785 499.455 273.164 499.586 268.341C501.332 259.732 503.9 247.648 504.839 239.133C500.479 246.23 500.457 253.613 495.091 260.061C492.625 263.024 489.868 261.492 489.069 264.422C489.871 266.534 490.191 267.49 490.667 269.692L487.678 267.886C487.65 266.363 487.638 266.815 486.638 265.33C484.544 264.402 485.152 264.316 483.181 264.581C482.337 265.531 482.651 264.973 482.56 266.439C485.092 268.382 485.379 265.373 486.566 267.869C485.092 269.281 485.414 268.014 483.154 269.619L483.328 269.071L483.157 269.62C484.289 270.156 484.661 270.292 485.86 270.659L486.886 271.978L485.987 272.431L486.641 272.862L486.809 271.863L487.342 272.676L487.022 273.083L484.084 271.266L483.588 271.574C484.783 274.549 486.233 273.968 487.038 277.211L486.492 277.833C485.952 276.757 485.497 275.613 484.656 274.784L484.046 275.247C483.616 279.354 485.848 278.307 484.352 283.736L484.848 284.154L486.989 282.857C487.224 284.358 487.397 283.724 486.661 284.866C482.845 285.743 483.972 288.06 482.783 291.511C482.194 293.378 481.259 296.646 480.559 298.345C478.379 299.715 477.007 303.068 475.76 305.485C476.107 306.484 476.115 306.805 476.693 307.628C474.659 308.362 469.364 311.818 467.744 313.327L467.917 314.183L469.469 313.807C470.253 316.786 470.44 317.019 473.204 317.964C472.798 319.337 472.779 318.972 472.796 320.344L473.452 320.25C474.305 318.766 474.917 317.836 475.919 316.448C479.846 314.511 478.584 317.217 481.582 317.682C484.694 314.519 493.814 290.488 495.356 285.488ZM438.241 170.59C420.843 176.889 409.477 183.417 411.683 203.704C413.1 216.739 415.292 225.565 421.465 237.484C423.05 233.205 424.497 229.651 425.361 225.135C426.374 221.268 430.27 205.573 435.945 207.185C438.438 209.953 437.963 213.94 438.068 217.794C445.203 212.092 459.102 195.377 450.601 186.737C446.002 182.063 442.311 175.233 438.241 170.59ZM347.35 918.494C349.929 919.287 352.904 920.251 355.591 919.555C353.199 917.091 350.608 918.083 347.35 918.494ZM588.801 882.353C587.621 880.26 586.48 878.219 584.752 876.553C580.252 872.202 572.034 869.755 574.104 861.97C575.114 858.206 577.595 855.052 579.91 852.001L575.057 851.785C559.442 852.03 550.629 854.562 536.813 861.873C526.443 867.354 526.716 875.812 534.532 883.585C538.268 887.127 545.741 888.553 550.786 888.883C561.755 890.03 578.769 886.705 588.801 882.353ZM483.062 630.515C484.301 633.834 488.061 645.377 489.309 647.459C491.267 645.987 490.355 646.233 492.635 646.369C494.457 647.276 495.772 649.113 496.818 650.869C504.508 654.582 507.348 659.532 513.587 664.608C523.715 672.843 528.843 678.227 535.779 689.2C540.437 696.072 546.698 706.104 551.427 712.446C553.849 709.765 565.849 697.247 565.823 694.133C563.031 686.451 558.232 678.29 555.785 671.007C550.369 654.89 540.838 635.037 537.059 618.869C535.576 617.494 536.43 617.922 534.377 617.603C520.849 624.452 497.988 628.034 483.062 630.515ZM490.54 202.562C486.694 202.934 482.152 203.371 478.721 201.593C481.788 211.646 484.02 217.55 491.218 225.122C492.032 224.741 491.799 224.994 492.1 224.587C492.371 215.119 492.704 211.831 490.54 202.562ZM475.846 254.227C480.923 243.818 483.095 245.686 487.408 238.959C481.193 233.994 478.371 236.039 476.928 227.57C475.886 221.455 467.261 213.408 466.738 206.232C466.495 202.889 465.792 199.055 462.863 197.218C460.18 213.643 451.824 223.951 437.107 230.764C434.396 240.053 432.42 242.13 428.818 250.2C431.187 256.439 438.671 264.74 442.598 270.527C447.845 278.261 453.223 285.993 458.091 293.986L459.731 296.363C464.006 296.255 467.663 288.054 468.846 284.52C472.43 273.813 468.833 271.186 477.633 262.662C476.651 260.27 476.083 256.819 475.846 254.227ZM372.555 720.122L372.177 720.647C368.599 725.706 364.181 737.386 361.605 743.265C350.602 768.382 336.818 789.193 317.42 808.618C309.679 816.368 293.83 826.195 289.119 834.647C291.747 844.553 298.588 854.79 303.11 864.103C307.2 872.527 311.808 882.097 316.913 889.847C323.711 900.164 342.384 901.368 353.739 901.082C357.568 900.763 360.425 900.409 364.214 899.776C362.585 886.773 357.962 875.567 347.31 867.445C336.159 858.948 320.029 851.237 333.138 835.2C347.264 817.919 367.066 812.136 386.911 804.186C391.116 802.487 396.812 797.867 400.802 795.221C384.551 778.682 379.051 753.582 374.664 731.768C374.065 728.791 373.253 722.523 372.555 720.122ZM539.966 728.192L540.986 727.89C538.754 722.814 537.736 720.978 533.606 717.322C532.439 719.814 531.236 721.702 531.304 724.394C532.98 727.753 536.461 727.627 539.966 728.192ZM399.853 763.58C401.324 758.818 408.6 753.947 408.398 753.212C405.188 741.452 400.233 726.567 395.555 715.508L394.86 715.217L394.143 715.622C390.803 717.476 389.291 717.927 385.622 719.027C385.878 719.666 387.579 722.215 388.257 723.943C390.889 730.65 396.063 759.263 399.853 763.58ZM387.531 708.642L389.049 708.094C388.497 706.942 383.226 702.927 381.98 702.579C382.009 705.209 381.528 709.492 383.004 711.111C384.888 710.746 385.945 709.765 387.531 708.642ZM414.406 749.453C421.125 745.997 427.108 741.811 433.706 738.007C450.257 728.529 471.16 716.951 479.19 698.741C481.578 693.323 476.712 677.486 474.992 671.703C473.314 666.062 466.421 635.625 462.786 632.602C461.471 632.465 461.265 632.345 459.975 632.716C447.738 633.697 439.768 636.218 427.959 638.853C422.875 639.988 411.483 641.048 406.107 641.379C407.856 650.909 410.186 661.312 413.465 670.465C415.357 675.746 418.747 681.409 420.247 686.668C418.658 693.837 411.686 701.022 406.548 706.127C405.693 706.971 401.669 710.068 401.287 710.678C405.045 719.01 411.061 734.95 413.264 743.973L414.406 749.453Z" fill="black"/>
<path d="M708.22 807.351C714.18 806.376 718.201 804.198 723.853 802.293C729.402 800.428 735.59 800.131 741.396 800.16C739.434 812.091 742.839 815.347 733.594 824.067C733.559 822.339 734.164 822.071 734.267 820.708C734.917 812.182 733.257 810.711 736.748 802.732L736.234 802.047C734.096 802.966 728.193 802.612 725.541 802.612C727.634 802.988 728.986 803.257 731.022 803.867C721.817 805.595 717.191 809.821 707.867 807.979L708.22 807.351Z" fill="black"/>
<path d="M723.493 773.207C725.284 778.231 724.463 780.153 722.307 785.075C720.003 790.345 716.764 795.096 713.342 799.692L712.07 797.765C718.902 791.697 719.934 785.8 720.151 777.142C720.231 773.926 720.687 774.211 723.493 773.207Z" fill="black"/>
<path d="M585.208 678.347C589.047 678.056 597.174 678.17 593.21 684.409C591.414 683.736 592.012 683.93 589.737 684.666L589.395 683.993L590.039 682.373C587.997 680.948 587.153 679.67 585.208 678.347Z" fill="black"/>
<path d="M364.632 140.76L366.457 141.536C366.79 145.019 362.832 149.455 359.497 150.297C361.088 146.497 362.513 144.24 364.632 140.76Z" fill="black"/>
<path d="M454.966 227.246C468.35 228.431 462.317 250.644 443.626 252.055C440.974 251.561 438.335 250.405 436.451 248.438C434.643 242.462 444.921 240.765 448.639 236.894C451.911 233.486 452.883 231.446 454.966 227.246Z" fill="black"/>
<path d="M490.667 269.692C490.191 267.49 489.871 266.534 489.069 264.422C489.868 261.492 492.625 263.024 495.091 260.061C500.457 253.614 500.479 246.23 504.839 239.133C503.9 247.648 501.332 259.732 499.586 268.341L499.553 267.797C499.449 265.82 499.921 261.514 499.361 260.54C497.591 261.991 496.822 263.362 495.532 265.239C496.79 269.349 498.044 271.305 496.278 275.002C495.514 275.625 495.57 275.616 494.637 275.918L493.945 274.826L493.35 274.922L492.751 277.13L492.167 277.158L491.576 275.434C491.612 272.819 491.362 272.157 490.667 269.692Z" fill="black"/>
<path d="M487.039 277.211L488.247 276.949C489.367 274.781 486.692 270.73 487.678 267.885L490.668 269.692C491.362 272.156 491.613 272.819 491.576 275.434C491.495 291.548 490.065 297.525 476.693 307.627C476.115 306.805 476.107 306.483 475.761 305.485C476.973 305.173 480.488 302.206 481.708 301.248C484.496 298.192 486.878 296.079 487.56 291.949C488.458 290.082 489.757 281.495 488.821 279.175C488.537 278.471 487.361 278.204 486.492 277.833L487.039 277.211Z" fill="black"/>
<path d="M495.532 265.239C496.822 263.362 497.591 261.991 499.361 260.54C499.921 261.514 499.449 265.82 499.553 267.797L499.586 268.341C499.455 273.164 497.123 280.785 495.356 285.488C493.407 284.649 493.786 283.9 494.021 282.273L494.608 282.003C495.379 280.298 494.848 277.909 494.637 275.919C495.57 275.616 495.514 275.625 496.278 275.002C498.044 271.305 496.79 269.349 495.532 265.239Z" fill="black"/>
<path d="M482.783 291.511C483.972 288.06 482.845 285.743 486.661 284.866C487.397 283.724 487.224 284.359 486.989 282.858L484.848 284.154L484.352 283.736C485.848 278.308 483.617 279.354 484.046 275.247L484.656 274.784C485.497 275.613 485.952 276.757 486.492 277.833C487.361 278.204 488.537 278.471 488.821 279.175C489.757 281.495 488.457 290.083 487.56 291.949C485.249 292.328 484.963 292.344 482.783 291.511Z" fill="black" fill-opacity="0.0196078"/>
<path d="M487.039 277.211C486.233 273.968 484.783 274.549 483.588 271.574L484.084 271.265L487.022 273.082L487.342 272.676L486.809 271.863L486.642 272.862L485.987 272.431L486.886 271.978L485.86 270.659C484.661 270.292 484.289 270.156 483.158 269.62L483.329 269.071L483.154 269.618C485.414 268.014 485.093 269.281 486.567 267.869C485.379 265.372 485.092 268.381 482.56 266.439C482.651 264.973 482.338 265.53 483.182 264.58C485.152 264.316 484.544 264.402 486.638 265.33C487.639 266.815 487.65 266.363 487.678 267.885C486.692 270.73 489.367 274.781 488.247 276.949L487.039 277.211Z" fill="black" fill-opacity="0.054902"/>
<path d="M480.559 298.345L481.708 301.248C480.488 302.206 476.973 305.173 475.761 305.485C477.007 303.067 478.38 299.715 480.559 298.345Z" fill="black" fill-opacity="0.0431373"/>
<path d="M347.35 918.494C350.608 918.083 353.199 917.091 355.591 919.555C352.904 920.251 349.929 919.287 347.35 918.494Z" fill="#181618"/>
<path d="M493.35 274.922L493.945 274.826L494.637 275.918C494.848 277.909 495.379 280.298 494.608 282.003L494.021 282.273C493.91 280.002 493.573 277.228 493.35 274.922Z" fill="black"/>
<path d="M639.549 767.777C639.68 764.835 639.634 761.629 640.193 758.744C640.524 757.033 641.117 754.94 642.725 753.982C650.561 749.333 724.885 749.955 737.113 750.993C750.184 752.105 763.998 753.964 776.585 757.768C783.902 759.479 789.428 760.728 794.133 767.201C801.028 774.501 802.505 776.218 799.791 786.124C794.703 795.055 779.276 808.156 770.619 813.796C768.8 815.513 763.627 819.117 761.152 821.005C757.37 823.896 752.637 828.732 749.147 831.19C754.844 835.023 759.104 836.329 765.075 839.186C773.767 843.344 786.08 849.418 793.386 855.566C809.56 869.356 807.69 879.057 794.219 894.261C784.084 905.696 773.619 915.682 762.623 926.244C757.724 931.2 752.973 936.014 748.605 941.455C747.618 943.029 746.808 944.335 745.662 945.829C744.687 947.409 739.474 955.313 740.848 956.75C747.801 963.275 763.062 965.505 772.78 967.86C791.692 972.451 812.954 983.721 801.382 1007.06C785.818 1038.46 740.98 1040.68 710.08 1045.18C665.355 1051.48 620.318 1055.35 575.177 1056.79L485.69 1059.42C475.805 1059.75 465.942 1059.69 456.059 1060.33C438.579 1061.45 421.305 1063.97 403.794 1065.07C393.186 1065.73 385.841 1069.75 375.035 1066.49C375.53 1066.64 356.527 1068.24 354.866 1068.35L297.988 1071.91C290.434 1072.34 282.855 1072.14 275.293 1072.29C262.828 1072.54 250.285 1073.05 237.818 1073.45C222.633 1073.94 207.48 1075.35 192.271 1074.54C174.516 1073.59 155.591 1069.21 139.596 1061.32C122.013 1052.65 77.4756 1022.07 71.3652 1003.49C69.6166 998.167 70.0175 991.705 71.3983 986.338C80.1002 952.53 127.751 956.442 143.11 925.845L143.484 925.092C128.663 909.586 104.882 907.35 88.9698 893.423C78.0396 883.859 91.0988 866.094 98.4701 858.833C111.117 846.384 126.188 839.688 142.871 834.424C149.154 832.439 155.853 828.715 162.193 826.514C167.908 824.541 182.786 816.613 187.105 821.934C189.995 831.436 176.706 833.934 171.54 836.643C156.439 844.559 140.326 848.02 125.05 855.149C117.814 858.531 102.335 867.759 100.535 875.903C101.034 880.483 104.708 882.707 108.343 884.84C124.81 894.495 143.919 899.132 158.272 912.175C165.286 918.551 159.731 925.167 156.289 931.657C147.272 948.669 130.307 958.593 113.312 966.109C104.286 970.067 88.2631 977.989 89.2315 990.017C89.8093 997.197 98.8397 1008.24 103.917 1012.94C108.804 1017.25 114.183 1021.21 119.365 1025.15C129.454 1032.82 139.112 1040.92 150.862 1045.98C160.529 1050.14 170.414 1054.76 180.766 1056.9C199.798 1060.84 219.361 1058.19 238.629 1058.04C290.061 1057.64 341.445 1054.29 392.814 1052.04C408.534 1051.67 424.856 1047.42 440.34 1046.84C473.103 1045.59 505.762 1043.24 538.522 1041.97C551.583 1041.46 564.563 1041.69 577.584 1041.3C622.633 1039.71 667.557 1035.61 712.15 1029.03C732.693 1026.13 765.709 1024.28 780.491 1008.96C803.213 985.409 754.724 980.983 742.052 976.227C735.322 973.706 731.564 972.297 726.454 967.94C715.509 936.858 784.666 898.983 789.519 874.369C791.658 863.516 748.297 846.891 741.926 840.435C735.276 833.694 739.001 828.413 745.394 822.1C756.27 810.75 782.134 795.882 787.267 782.811C786.417 779.623 785.356 777.302 782.898 774.946C773.767 766.203 733.474 762.992 720.876 762.622C700.675 762.918 680.457 762.901 660.308 764.555C653.168 765.137 646.74 768.068 639.549 767.777Z" fill="black"/>
<path d="M745.662 945.829C744.373 944.648 744.242 944.569 743.403 943.074C746.631 937.126 750.846 931.776 755.876 927.248C760.798 922.851 760.895 922.76 765.064 917.473L765.954 917.775C764.608 919.173 764.408 918.91 764.163 920.456C767.819 921.323 766.94 916.732 768.851 914.599C769.45 913.931 772.455 912.323 773.391 911.821C774.075 909.027 772.062 910.504 772.592 907.339L773.368 906.911C774.2 907.966 774.32 908.194 775.398 909.044C776.584 908.468 777.565 906.751 778.096 905.445C780.263 900.472 786.354 897.301 790.363 893.269C795.171 888.444 797.589 879.211 803.441 876.89C802.557 875.464 802.009 877.58 800.007 876.348C802.334 869.111 800.612 864.702 795.525 859.267C794.635 860.299 797.76 864.177 797.943 867.063C795.878 865.135 793.951 859.786 792.759 856.906L793.386 855.566C809.56 869.356 807.69 879.057 794.219 894.261C784.084 905.696 773.619 915.682 762.623 926.244C757.724 931.2 752.973 936.014 748.605 941.455C747.618 943.029 746.808 944.335 745.662 945.829Z" fill="black"/>
<path d="M748.604 941.455C749.506 939.094 749.437 938.603 748.741 936.174L749.374 935.124C757.895 931.725 751.941 926.073 762.623 926.245C757.724 931.201 752.973 936.014 748.604 941.455Z" fill="black"/>
<path d="M776.584 757.769C783.901 759.479 789.428 760.728 794.133 767.202C801.028 774.502 802.505 776.218 799.79 786.125C794.703 795.056 779.276 808.156 770.619 813.796C773.847 808.977 779.824 805.213 783.479 800.622C785.795 797.708 789.228 798.004 790.642 795.426C788.88 790.305 793.118 790.328 795.502 785.953C795.946 785.132 796.95 779.412 797.481 777.461C797.053 776.754 796.334 775.169 795.941 774.359C794.663 775.237 794.412 775.34 793.055 775.956C790.517 773.983 790.808 769.979 788.589 767.532C785.424 764.031 779.35 761.601 776.584 757.769Z" fill="black"/>
<path d="M787.266 782.811C788.441 786.638 782.487 792.586 780 795.723L781.575 794.149C776.368 801.426 754.393 820.623 746.951 821.872C746.437 821.957 745.918 822.031 745.394 822.1C756.27 810.751 782.133 795.883 787.266 782.811Z" fill="black"/>
<path d="M211.352 949.137L212.622 949.217C213.891 950.728 213.511 950.089 213.833 952.211C212.562 955.855 206.056 958.513 202.638 959.881C188.622 965.505 175.834 973.307 162.218 979.705C159.767 980.857 157.539 982.01 155.177 983.355C155.566 984.747 156.352 987.479 157.526 988.34C165.501 993.655 178.7 993.182 187.739 994.283C240.56 1000.7 293.786 996.866 346.503 991.522C351.062 991.06 358.023 990.313 361.666 993.421C363.468 998.121 357.138 1000.84 353.649 1002.17C341.625 1004.5 328.377 1005.45 316.16 1006.5C275.612 1009.93 235.121 1011.93 194.583 1006.3C181.713 1004.51 155.393 1002.19 145.609 991.1C144.05 989.338 147.242 981.011 147.972 978.274C154.251 975.28 160.501 970.923 166.549 967.358C180.452 959.168 195.359 951.811 211.352 949.137Z" fill="black"/>
<path d="M715.235 839.905C725.871 843.834 746.774 859.94 740.985 873.907C738.687 879.456 728.426 887.161 723.14 890.127C720.642 891.952 714.853 894.518 711.796 895.961C695.074 903.951 677.663 910.401 659.777 915.237C621.982 925.144 582.944 932.598 543.796 933.214C540.17 933.271 524.499 933.259 523.714 929.25C525.309 926.204 529.979 924.938 533.808 922.115C540.313 921.414 546.94 922.115 553.489 921.75C600.664 919.138 648.177 908.473 692.69 892.79C697.658 891.045 703.247 887.144 707.541 885.895C713.387 882.342 727.217 877.517 728.917 871.666C731.643 862.284 718.138 852.543 714.112 844.108L713.815 843.486C714.117 841.627 714.22 841.542 715.235 839.905Z" fill="black"/>
<path d="M715.235 839.905C725.872 843.834 746.774 859.94 740.985 873.907C738.687 879.456 728.427 887.161 723.14 890.127C724.508 888.421 725.946 886.151 726.476 883.87C727.086 881.207 732.288 880.317 732.493 879.975C733.508 878.304 737.044 873.895 738.361 871.973C738.784 871.358 738.652 871.021 738.476 870.234C738.156 868.797 736.434 866.71 735.96 865.409C735.145 863.156 734.449 860.316 733.827 857.989L737.198 862.666L737.871 862.278C737.979 861.736 738.162 861.126 738.065 860.596C737.147 855.668 718.891 841.006 715.172 841.525L714.99 842.716C718.594 854.682 737.865 860.847 727.24 877.637C720.995 887.492 721.514 880.899 712.549 884.458C710.216 885.382 710.804 886.157 707.542 885.895C713.387 882.342 727.217 877.517 728.917 871.666C731.643 862.284 718.138 852.543 714.112 844.108L713.815 843.486C714.117 841.627 714.22 841.542 715.235 839.905Z" fill="black"/>
<path d="M525.29 1007.99L528.496 1007.78C530.419 1008.71 529.68 1008.03 530.739 1009.95C530.515 1011.28 530.277 1011.93 529.178 1012.78C523.201 1017.46 488.936 1016.1 479.501 1016.67C470.654 1017.21 461.639 1018.26 452.86 1019.48C435.342 1021.92 418.152 1026.72 401.04 1031.05C392.471 1033.21 383.768 1034.87 375.173 1036.95C364.244 1039.59 335.125 1047.68 324.864 1046.41C322.838 1045.94 320.527 1045.19 318.509 1044.59C319.753 1043.42 321.465 1041.8 323.05 1041.27C347.319 1033.14 373.43 1028.82 398.186 1023.14C425.647 1016.84 451.884 1007.6 480.492 1009.28C486.751 1009.64 494.298 1008 500.703 1008.34C509.066 1008.61 516.935 1008.87 525.29 1007.99Z" fill="black"/>
<path d="M205.674 764.687C210.447 764.886 214.333 776.281 217.399 780.433C225.714 791.691 238.837 800.599 245.814 812.473C253.728 815.473 261.857 825.573 262.196 834.253C262.334 837.766 262.069 842.414 257.791 842.625C255.892 841.154 256.478 841.599 255.449 839.084C254.525 831.892 252.29 829.976 247.742 824.655C246.135 825.818 244.453 827.438 242.961 828.784C238.615 825.18 233.123 818.125 228.506 813.751C219.559 804.916 207.737 797.805 200.587 787.317C194.294 778.089 196.235 770.31 205.674 764.687Z" fill="black"/>
<path d="M734.153 312.911C730.794 311.705 727.914 311.354 726.385 307.829C727.606 301.872 744.276 300.756 749.135 301.271L750.823 302.308C763.701 311.853 747.532 323.026 741.704 330.783C747.013 330.415 756.777 327.399 759.931 332.416C762.344 341.917 751.553 352.647 742.833 353.74C738.578 354.274 732.567 356.295 731.438 350.404C732.408 346.325 738.687 343.288 742.884 338.58C739.086 337.46 737.01 337.298 733.166 337.014C711.802 335.436 728.569 319.673 734.153 312.911Z" fill="black"/>
<path d="M749.135 301.271L750.823 302.308C751.468 305.011 751.696 304.293 750.977 306.623L751.034 305.863L750.162 307.319L749.152 307.306L748.177 306.167C747.846 302.683 747.51 303.932 749.135 301.271Z" fill="black"/>
<path d="M652.517 970.392C655.717 970.347 668.315 969.845 669.883 971.356C677.52 978.713 666.484 980.829 662.458 981.16C640.518 982.979 619.393 986.076 597.43 987.736C592.24 987.89 586.577 988.391 581.564 986.949C578.827 986.162 576.454 983.116 577.595 980.259C579.488 979.66 595.024 978.4 598.497 977.932C616.405 975.52 634.535 971.151 652.517 970.392Z" fill="black"/>
<path d="M262.543 811.965C257.011 801.346 249.93 791.925 242.796 782.32C236.642 774.04 237.464 757.637 249.519 757.66C253.32 759.525 254.181 767.606 256.452 771.61C260.73 779.144 265.167 786.444 268.918 794.269C274.569 805.07 276.648 811.418 267.33 820.594C265.195 817.418 263.754 815.575 262.543 811.965Z" fill="black"/>
<path d="M262.543 811.965C264.554 813.534 264.13 813.682 265.641 815.667C268.181 813.163 268.67 814.874 270.211 812.798C272.868 804.888 264.336 801.591 268.918 794.269C274.569 805.07 276.648 811.418 267.33 820.594C265.195 817.418 263.754 815.575 262.543 811.965Z" fill="black"/>
<path d="M682.413 345.732C697.55 347.554 705.335 343.958 718.617 355.55C728.164 363.879 734.364 365.545 724.668 377.959C713.017 381.814 706.298 370.695 698.245 364.718C693.038 360.909 686.172 358.734 680.931 355.121C676.625 352.158 677.184 347.529 682.413 345.732Z" fill="black"/>
<path d="M537.268 815.211C539.365 814.988 542.668 814.697 544.281 815.838C544.459 816.602 544.621 817.326 544.633 818.113C544.654 819.625 544.3 820.828 543.145 821.855C539.238 825.322 478.985 835.171 469.84 834.955C466.094 834.025 463.718 832.497 462.683 828.562L463.177 827.82C469.991 824.085 526.358 816.157 537.268 815.211Z" fill="black"/>
<path d="M397.891 945.236C400.912 945.088 401.697 944.985 404.685 945.641C406.044 946.998 405.582 946.205 406.005 948.179C405.724 948.778 405.503 949.565 405.004 950.004C399.304 955.045 355.243 961.393 345.861 962.225C342.529 962.522 339.316 962.471 335.984 962.208C333.015 961.49 325.093 957.674 327.423 953.859C326.81 954.15 392.998 945.732 397.891 945.236Z" fill="black"/>
<path d="M494.948 765.804C500.636 764.487 506.357 764.002 511.746 762.918C516.307 761.527 524.394 759.776 527.313 765.023C532.603 774.541 511.269 774.787 505.904 775.762C496.482 777.467 464.756 788.486 457.305 785.166L456.974 784.174C457.911 782.646 458.878 782.132 460.684 781.528C464.569 779.07 473.272 775.95 477.915 774.142L478.419 773.92C484.987 771.04 490.018 770.891 494.948 765.804Z" fill="black"/>
<path d="M460.684 781.528C464.569 779.07 473.272 775.95 477.915 774.142C478.073 775.363 478.406 775.745 477.743 776.366C474.602 779.315 466.492 780.638 462.225 782.098L460.684 781.528Z" fill="black"/>
<path d="M153.35 371.996C165.838 371.595 168.127 381.612 159.366 387.831C157.876 388.888 143.45 390.145 139.86 390.63C135.432 390.977 131.956 391.943 129.196 387.955C128.42 383.516 131.845 379.148 134.084 374.962C140.671 373.762 146.103 373.581 153.35 371.996Z" fill="black"/>
<path d="M452.617 856.746C454.614 856.472 463.099 855.908 464.337 856.872C474.668 864.913 444.211 869.196 438.713 870.759C434.84 871.295 433.502 871.129 429.556 870.764C427.493 868.717 425.057 867.103 425.472 864.052C428.762 862.301 448.367 857.579 452.617 856.746Z" fill="black"/>
<path d="M146.3 395.901C156.881 395.905 155.335 399.297 154.467 408.168C151.026 413.916 148.813 414.567 142.425 415.409C135.565 415.052 130.243 412.216 134.024 404.369C136.513 399.204 141.193 397.506 146.3 395.901Z" fill="black"/>
<path d="M280.692 893.286C282.893 892.305 283.225 891.986 285.537 892.111C290.502 894.381 287.355 896.337 293.284 896.086C295.999 903.626 301.787 906.278 307.28 911.331C309.05 912.962 308.616 916.196 306.459 917.736C294.337 920.222 283.221 903.535 280.692 893.286Z" fill="black"/>
<path d="M287.23 869.829C289.504 871.517 289.838 871.831 289.751 874.819C288.047 882.735 290.619 888.735 293.284 896.086C287.355 896.337 290.502 894.381 285.537 892.111C283.225 891.986 282.893 892.305 280.692 893.286C279.592 888.541 278.136 876.718 280.751 872.002C281.501 870.65 285.411 870.223 287.23 869.829Z" fill="black"/>
<path d="M241.805 930.242L244.17 930.545C245.618 931.537 245.639 932.016 246.34 933.733C245.538 939.938 226.244 943.012 220.61 943.879C217.859 942.892 215.512 941.592 216.418 938.449C219.931 935.181 236.287 931.6 241.805 930.242Z" fill="black"/>
</svg>
