<svg width="772" height="1248" viewBox="0 0 772 1248" fill="none" xmlns="http://www.w3.org/2000/svg">
<g clip-path="url(#clip0_2110_10360)">
<path d="M161.562 430.777C177.439 429.269 188.686 436.807 198.277 448.484C202.976 445.805 207.975 443.69 213.171 442.185C245.206 432.566 274.978 437.934 303.814 453.432C311.399 448.935 317.651 446.17 326.642 445.243C338.063 444.065 348.443 450.027 348.809 462.392C349.192 475.296 339.638 487.229 331.217 496.279C344.052 506.731 368.613 536.276 361.607 556.558C361.088 558.061 359.382 558.357 357.988 558.679C355.108 558.062 354.048 556.904 352.101 554.663L351.795 554.304C351.552 554.768 352.079 571.07 352.041 573.387C371.352 575.804 391.911 573.623 410.808 571.576C478.289 564.337 548.243 560.162 598.934 614.089C608.55 624.323 619.244 627.847 629.905 641.658C637.163 651.151 643.68 661.197 649.381 671.707C657.501 686.529 671.384 723.503 685.569 728.596C704.64 735.448 709.209 701.768 724.971 695.112C728.826 693.529 733.159 693.562 736.987 695.213C750.337 700.825 748.382 717.352 743.389 728.441C729.109 760.093 695.711 775.845 663.142 761.818C646.342 754.589 638.059 740.279 631.86 723.658C630.289 729.809 629.137 740.535 628.214 747.319C626.239 760.888 624.454 774.484 622.843 788.1C620.107 812.118 618.773 837.868 609.668 860.438C605.14 871.669 597.943 879.875 586.672 884.558C574.215 889.732 549.348 887.562 544.012 872.963C542.618 869.122 542.817 864.885 544.566 861.193C547.89 854.071 555.322 850.016 562.34 847.408C560.577 831.919 558.132 813.27 555.126 798.037C551.288 820.863 548.348 838.185 534.692 857.312C528.034 866.05 518.582 872.242 507.911 874.856C499.607 876.823 477.065 877.632 473.75 865.013C472.196 855.082 483.615 851.915 488.396 847.583C510.939 827.136 500.313 789.926 492.522 764.904C491.513 761.663 490.59 759.413 490.009 756.307C451.454 768.252 400.691 769.545 361.282 762.62C355.668 761.629 344.348 760.073 339.51 758.133C336.53 772.874 334.412 789.097 332.25 804.222C328.95 826.853 329.061 850.858 320.015 872.188C310.951 893.565 284.345 900.195 264.243 891.153C254.898 886.949 247.444 877.167 252.485 866.771C256.041 859.448 262.402 857.197 269.536 854.745C272.447 828.16 262.518 784.96 260.707 757.654C256.005 759.17 252.899 759.83 248.015 760.181C241.255 794.399 239.143 828.517 231.289 862.358C228.733 873.367 223.012 883.5 211.845 887.461C197.039 892.716 177.523 893.458 162.679 887.69C153.497 884.066 146.778 873.542 151.655 864.022C155.904 855.722 162.885 853.236 171.179 850.521C174.81 842.524 176.463 829.447 177.498 820.749C183.849 767.349 179.664 713.525 175.202 660.159C173.968 645.404 172.25 632.624 173.788 617.856C170.113 621.554 159.725 632.961 154.797 626.863C146.526 616.636 144.559 590.578 144.185 578.158C141.068 582.353 131.734 591.247 126.998 588.15C114.232 579.804 127.223 539.942 131.315 530.543C100.318 530.385 142.397 488.212 152.456 482.63C145.516 465.355 139.816 439.517 161.562 430.777ZM450.867 581.527C450.571 593.786 449.797 659.391 438.048 662.733C437.122 661.304 433.491 587.627 433.598 582.349C425.826 583.479 417.997 584.178 410.148 584.44C410.1 598.044 395.777 667.449 384.136 672.003L382.979 671.343C383.772 659.189 385.933 648.328 387.547 636.41C389.776 619.951 391.695 602.604 391.633 586.016C384.868 586.569 377.809 587.26 371.047 587.323C370.707 600.508 358.186 677.534 345.538 679.731L344.264 678.572C344.128 674.301 345.846 666.095 346.534 661.399C347.885 652.162 349.062 642.898 350.065 633.621C351.576 619.722 352.291 590.909 354.876 580.073C350.736 586.144 350.727 586.442 343.494 585.47C340.153 601.692 340.252 626.803 317.368 608.397C278.759 653.893 231.329 665.219 183.32 623.461C182.685 622.909 182.067 622.336 181.469 621.743C185.977 674.846 214.55 714.401 251.314 750.573L257.293 749.751C256.865 743.688 255.77 735.098 259.391 730.112C261.101 728.926 261.324 728.805 263.397 728.859C272.198 732.234 276.627 762.444 276.675 771.183C281.855 769.768 300.075 763.805 301.731 770.927C299.548 778.102 285.37 783.047 278.627 784.347C280.704 797.727 289.208 853.384 282.376 862.756C278.03 868.718 269.206 868.375 266.031 872.242L266.773 872.808L271.771 871.811L272.629 872.545C272.81 875.503 272.692 876.54 272.362 879.444C276.629 880.226 279.978 880.893 284.343 881.149C285.467 877.335 286.032 874.364 289.699 872.356C292.115 872.579 291.194 872.235 293.123 873.899L294.977 878.885C309.012 868.55 310.81 857.858 313.301 841.486C316.981 817.299 321.372 742.044 339.998 728.542C341.235 727.646 342.151 727.336 343.659 727.289C347.148 730.422 344.273 740.562 343.19 744.941C351.07 746.908 359.144 748.094 367.107 749.731C367.484 741.491 369.941 713.741 378.868 711.073C389.95 714.576 382.602 743.796 380.548 751.671C395.798 752.568 408.239 753.517 423.5 752.655C423.845 744.611 424.241 726.703 429.947 720.754C432.236 719.885 431.281 719.878 433.523 720.747C437.624 725.255 438.231 732.969 437.937 738.79C437.721 743.58 436.841 748.31 435.32 752.857C443.066 750.85 451.668 750.284 459.631 749.078C463.684 738.689 475.264 701.539 481.782 696.675C484.048 696.244 483.231 696.055 484.903 697.16C490.223 705.656 480.596 736.964 476.695 746.571C490.696 742.731 504.041 738.877 517.363 733.474C522.651 731.823 546.711 717.695 550.57 721.057C559.401 728.738 563.15 754.373 564.528 765.631C566.611 782.663 568.184 782.69 585.364 785.634C587.533 786.005 592.836 786.732 593.368 789.865C594.01 803.124 573.774 797.532 569.489 796.286C571.332 807.092 578.993 844.814 575.439 856.753C574.087 861.3 560.201 861.893 557.393 867.081L557.69 868.314C562.261 867.506 565.453 864.777 569.374 866.751C569.996 869.971 567.54 870.531 568.454 873.313C571.347 874.371 580.838 872.437 583.455 870.995C592.157 866.212 597.416 854.543 599.962 845.535C607.95 817.266 608.112 786.011 615.06 757.56C617.627 754.878 618.395 753.356 617.061 749.772C616.212 750.459 614.884 755.209 614.177 756.967C608.058 762.795 593.371 766.716 586.406 761.932C583.817 755.862 611.367 744.463 617.695 738.783C619.218 727.626 619.393 717.103 620.444 706.067C613.132 715.883 597.559 727.781 584.545 724.359L583.814 723.341C584.872 719.487 589.731 717.116 592.504 714.792C598.602 709.678 614.183 694.694 616.212 687.398C621.3 669.133 601.656 641.012 592.571 627.133C592.756 646.455 591.691 662.463 585.883 681.085C584.72 684.811 583.287 690.571 580.697 693.414L579.671 693.576C577.301 690.416 579.893 669.295 579.965 663.918C580.182 647.466 580.316 630.832 578.361 614.467C570.047 607.102 564.677 603.336 554.933 597.807C550.623 619.297 545.32 665.023 527.317 676.982L526.946 677.225L533.34 626.776C534.739 615.828 536.466 601.111 538.856 590.446C527.233 586.677 519.818 584.73 507.803 582.578C506.995 592.226 505.159 624.633 498.279 630.151C492.53 629.444 492.928 595.686 490.625 593.876C489.623 597.013 489.581 604.82 489.907 608.316C490.716 617.013 488.703 656.373 478.847 659.438C476.446 657.228 476.761 650.538 476.978 647.324C478.428 625.907 473.095 601.96 474.904 580.772C466.966 580.987 458.777 581.104 450.867 581.527ZM298.441 461.766C282.996 456.403 265.98 450.327 249.319 452.589C248.079 453.983 248.484 454.726 248.413 456.994C250.531 460.804 255.446 459.011 259.576 459.26C269.76 459.874 283.498 462.265 291.317 469.241L291.625 470.375C289.006 471.932 254.676 470.462 247.82 470.881C247.325 474.935 247.043 476.839 245.955 480.745C251.114 483.134 261.193 481.667 264.822 487.266C265.042 489.927 265.245 488.885 264.121 491.237C259.45 494.53 246.673 493.544 240.383 494.33C233.034 495.249 225.051 496.992 217.788 497.216C214.697 492.036 224.271 487.275 228.028 485.416C230.28 484.325 232.548 483.266 234.83 482.237L234.702 472.477C228.718 474.099 208.162 481.854 203.798 478.674C202.376 468.882 227.453 461.146 235.101 459.986C238.013 459.544 237.648 456.504 236.863 454.267C227.886 452.851 200.421 463.848 194.664 462.234C182.727 458.887 185.917 447.258 166.581 444.073C154.643 451.018 162.948 473.869 166.337 484.548C152.265 499.101 147.725 504.212 136.764 520.256C139.374 520.047 141.593 519.578 143.936 520.565C145.91 524.361 143.038 535.517 141.869 539.916C138.795 551.488 136.981 561.578 136.016 573.528C145.981 566.201 150.737 563.568 155.015 578.561C158.123 589.457 160.179 601.343 162.016 612.56C167.608 606.525 169.216 605.845 176.703 602.443C201.075 619.783 220.126 640.358 253.85 634.921C280.438 630.636 298.372 610.303 316.206 592.29C322.757 594.074 323.2 595.022 328.034 599.818C330.006 593.191 331.42 588.15 332.819 581.534C333.792 576.925 334.824 560.517 335.993 558.584C337.146 558.237 338.306 557.916 339.473 557.62C341.908 544.291 331.469 531.819 332.203 526.95C336.2 524.574 340.06 527.846 343.77 529.993C338.827 524.197 333.438 517.589 328.146 512.212C325.547 509.181 317.434 500.12 317.898 496.444C319.053 487.294 338.955 469.802 334.331 460.646C324.941 451.704 305.744 473.438 297.366 469.911C295.141 466.67 296.682 464.997 298.441 461.766ZM504.503 852.852C499.639 857.4 497.226 859.36 491.133 862.015C500.577 862.028 512.246 861.321 519.489 853.303C538.179 832.62 544.942 785.816 546.887 758.752C547.366 752.089 544.587 740.393 543.173 734.229L542.094 733.683C532.797 740.158 514.267 749.037 503.297 752.049C508.948 762.411 512.015 773.339 513.5 785.021C518.634 785.432 529.084 785.371 527.679 793.079C525.662 795.902 523.972 796.265 520.706 796.798C518.898 797.114 517.073 797.317 515.241 797.411C519.472 816.397 516.9 837.323 504.503 852.852ZM195.698 761.656C195.4 775.764 192.852 854.428 184.136 862.453C180.958 865.377 174.684 864.494 170.625 864.669C168.51 866.252 166.676 867.357 165.494 869.742C165.215 872.147 165.11 872.356 165.758 874.627L166.92 875.321C172.607 873.866 174.229 869.203 179.355 870.793C181.009 873.306 180.609 873.973 180.337 877.45C194.094 877.355 212.719 878.696 217.063 862.311C221.521 845.488 224.004 828.503 226.508 811.317C220.299 810.724 205.426 809.868 205.55 801.487C209.059 794.931 221.659 796.138 227.893 796.575C232.801 781.558 231.077 765.934 241.115 752.467C228.453 745.466 214.349 730.981 206.357 718.874C204.499 716.058 195.4 701.647 193.66 700.509C194.159 712.44 194.156 729.546 197.339 740.683C199.483 748.188 216.23 761.622 222.25 767.107C227.438 771.843 225.798 779.759 218.228 779.638C210.9 779.213 199.548 766.049 195.698 761.656ZM643.478 698.339L645.257 696.918C645.661 692.559 633.295 671.148 630.256 667.61C632.338 678.026 636.847 692.505 637.379 702.348L643.478 698.339ZM651.901 708.903C648.316 711.74 646.901 712.878 642.885 714.947C644.812 719.71 650.419 732.416 653.876 735.913C657.023 732.726 659.732 730.233 663.047 727.283C660.561 723.496 653.889 711.032 651.901 708.903ZM669.564 734.808C667.158 737.577 664.139 740.676 662.724 743.984C662.852 745.433 662.731 745.426 663.667 746.504C672.758 752.898 683.406 754.528 694.309 752.877C710.725 750.391 723.812 736.957 730.545 722.432C732.283 718.679 734.446 710.143 730.228 707.408L729.702 707.973C719.27 719.521 713.69 741.404 693.11 743.162C684.423 743.903 676.377 739.841 669.564 734.808Z" fill="black"/>
<path d="M314.153 665.098C315.844 665.717 315.791 665.798 317.139 667.072C319.561 672.28 317.341 678.195 315.549 683.356C308.961 702.314 296.706 722.001 278.044 730.948C277.105 731.238 276.946 731.069 275.865 730.975C274.4 728.522 275.946 725.47 277.36 723.16C283.141 714.307 288.326 704.72 293.921 695.826C299.525 686.913 305.621 670.669 314.153 665.098Z" fill="black"/>
<path d="M282.965 643.639C284.382 644.03 284.629 644.192 285.906 644.832C287.089 647.863 286.377 650.68 284.647 653.368C275.061 668.277 258.241 685.296 240.924 690.174C239.006 690.706 239.837 690.847 238.316 690.147C238.409 689.567 238.647 688.247 239.038 687.809C253.19 672.003 261.745 650.349 282.965 643.639Z" fill="black"/>
<path d="M231.277 547.139C236.733 546.973 248.335 547.679 253.481 549.232C272.907 555.099 259.22 564.562 249.681 569.265C263.754 584.115 279.523 578.95 292.023 567.195C292.776 566.487 293.228 566.917 294.321 567.157C295.125 568.166 295.264 568.607 295.351 569.931C296.131 581.776 281.548 587.812 271.911 588.608C268.622 600.201 265.497 603.773 256.853 611.32C221.987 634.766 190.604 574.807 195.377 564.188C203.611 560.597 209.195 587.003 234.386 569.227C223.302 560.395 220.235 557.911 231.277 547.139ZM214.85 585.843C220.34 593.803 224.477 600.342 234.116 603.76C249.74 607.418 252.746 600.562 260.143 588.166C251.518 585.879 245.74 579.754 242.126 578.715C232.576 585.928 227.262 587.558 215.406 585.923L214.85 585.843ZM255.361 555.475C251.295 552.797 238.456 552.08 233.232 552.098C233.675 553.209 233.667 553.964 234.986 554.262C240.971 555.614 249.366 555.437 255.361 555.475Z" fill="black"/>
<path d="M233.234 552.098C238.459 552.08 251.298 552.797 255.364 555.475C249.369 555.437 240.974 555.613 234.989 554.262C233.67 553.964 233.678 553.209 233.234 552.098Z" fill="black" fill-opacity="0.01"/>
<path d="M175.264 495.08C176.517 496.155 176.849 496.639 176.496 498.526C173.33 515.472 170.048 529.211 171.398 546.498C174.921 546.499 183.273 545.852 184.243 550.106C182.657 553.395 179.523 554.737 176.892 558.081C176.899 563.187 183.601 562.621 184.759 568.653C184.21 570.947 183.661 571.391 182.095 573.201C154.038 576.127 150.372 508.97 175.264 495.08Z" fill="black"/>
<path d="M312.026 513.323C329.29 516.972 328.998 568.315 306.534 577.143C305.092 577.054 304.983 576.946 303.669 576.465C302.535 573.505 307.455 565.612 308.872 562.514C306.308 559.78 302.973 556.543 302.109 552.891C302.648 550.529 302.119 551.298 303.926 549.944C306.519 549.462 307.257 549.674 309.779 550.434C313.07 544.378 308.141 520.643 312.026 513.323Z" fill="black"/>
<path d="M207.096 513.495C219.446 513.581 217.178 524.89 210.409 531.334C206.382 531.134 204.2 529.375 202.49 525.573C201.304 522.975 201.284 519.996 202.433 517.383C203.54 514.924 204.679 514.438 207.096 513.495Z" fill="black"/>
<path d="M278.611 516.547C287.673 519.296 293.361 528.184 283.612 534.093C270.736 535.625 272.816 523.971 278.611 516.547Z" fill="black"/>
<path d="M614.176 756.967C614.883 755.208 616.211 750.459 617.06 749.771C618.394 753.356 617.626 754.878 615.059 757.56L614.176 756.967Z" fill="black" fill-opacity="0.0784314"/>
</g>
<defs>
<clipPath id="clip0_2110_10360">
<rect width="772" height="1248" fill="white"/>
</clipPath>
</defs>
</svg>
