<svg width="880" height="1168" viewBox="0 0 880 1168" fill="none" xmlns="http://www.w3.org/2000/svg">
<path d="M551.913 255.259C555.36 252.66 563.481 250.015 567.589 248.78C593.227 241.069 623.733 242.33 649.991 246.371C674.68 250.169 726.031 261.722 746.825 275.064C749.146 282.437 751.507 283.431 750.737 290.135C751.986 290.387 752.271 290.337 753.52 290.314C759.389 295.361 750.834 329.044 748.37 336.3C776.025 337.453 761.146 363.252 764.208 367.328C776.715 366.205 787.911 365.362 795.906 376.68C782.156 391.089 791.966 415.301 783.593 424.687C782.801 424.89 778.786 425.89 778.358 425.722C765.862 420.822 750.041 421.206 738.612 414.438L737.842 413.98C737.472 416.606 736.907 417.42 737.797 419.597C740.329 420.608 743.745 420.105 745.068 422.1C747.817 426.238 747.178 434.098 746.825 438.821C744.652 442.162 742.468 446.545 738.869 447.937C736.725 447.495 736.285 447.273 734.312 446.294C730.639 459.928 728.01 479.703 725.643 493.847L715.024 554.603C712.908 567.371 711.402 581.109 708.996 593.695C706.555 606.47 701.262 620.899 697.977 633.577C693.055 652.557 690.42 669.952 687.506 689.251L687.962 689.97C690.632 690.369 691.607 690.084 693.335 692.553C694.327 693.951 695.063 695.513 695.502 697.167C699.249 711.853 701.103 735.618 703.743 751.176C703.806 751.535 700.812 756.394 700.287 757.369C702.363 763.033 704.542 768.662 706.829 774.245C708.078 777.245 710.826 782.914 711.653 785.794C713.564 792.438 714.317 799.567 716.895 806.205C718.315 809.867 721.451 811.121 722.991 814.321C723.493 815.353 721.657 818.553 722.113 819.87C724.223 826.001 726.767 831.966 728.563 838.206C732.835 853.056 733.822 868.147 733.565 883.528C733.434 891.267 734.979 894.011 729.282 900.278C730.383 901.636 734.227 903.694 733.907 905.719C733.308 909.5 731.398 913.897 730.166 917.656C727.902 924.682 725.849 931.771 724.006 938.923C721.976 947.107 722.073 952.468 716.153 958.935C711.152 960.395 705.956 961.079 700.743 960.971C691.618 960.72 682.316 959.112 673.248 958.068C668.07 957.475 662.823 957.367 657.673 956.722C654.433 956.323 651.382 954.852 648.097 954.629C634.153 953.677 591.647 957.834 581.296 952.308C576.42 949.702 573.945 944.882 571.293 940.291C552.9 956.773 542.69 949.753 521.671 948.031C516.903 953.238 515.761 950.295 509.864 950.3C485.951 950.306 473.083 926.051 474.348 904.578C474.576 900.723 473.364 893.492 476.437 890.606L480.217 889.904C479.369 883.152 471.003 869.784 471.631 863.265L472.422 862.512C474.282 863.037 475.334 863.995 476.902 865.136C477.191 864.662 480.145 842.078 480.325 839.882C481.85 821.279 493.043 804.814 497.401 787.288C498.979 781.009 500.144 774.627 500.888 768.194C501.559 762.491 502.059 756.548 503.244 750.931C504.143 747.041 508.781 747.526 509.304 742.895C511.411 724.251 508.74 705.135 511.202 686.474C513.106 672.034 508.3 660.553 507.113 646.415C506.233 635.944 506.449 625.314 505.58 614.837C504.064 602.068 500.566 588.289 498.985 575.183C494.055 534.304 489.112 492.085 487.964 450.938C487.455 429.293 487.602 407.637 488.405 386.001C489.102 370.062 490.966 354.062 491.438 338.117C492.192 328.443 492.703 321.591 489.661 312.222C488.659 309.135 493.239 294.921 495.416 291.602C500.377 284.037 507.844 269.463 519.152 275.49C522.161 277.093 524.438 280.526 527.82 281.563C530.738 280.131 533.729 274.614 535.87 272.479C541.154 264.469 542.603 260.129 551.913 255.259ZM524.266 659.875C535.189 635.226 541.877 581.2 557.143 563.544C557.343 562.267 557.207 560.844 558.342 560.041C565.272 555.145 622.775 558.736 632.465 560.997C640.01 562.757 650.219 566.053 654.525 573.073C659.515 581.211 652.859 608.381 658.049 622.821C663.313 637.467 679.242 634.684 682.242 656.652L682.869 656.407L683.16 655.745C685.55 647.778 686.326 639.417 688.327 631.456C695.913 601.281 700.104 570.638 704.251 539.851C705.973 527.101 709.56 514.188 711.363 501.412C713.701 485.035 715.509 467.968 718.286 451.619C719.735 443.102 724.229 428.529 728.176 420.724C730.371 416.386 734.939 418.145 734.192 413.495C730.354 412.533 727.086 414.296 724.058 412.991C713.724 408.54 700.578 403.541 695.787 392.566C693.734 387.848 693.768 384.87 693.358 379.934C684.98 377.956 676.06 376.151 667.551 374.806C659.498 373.533 651.622 373.186 643.746 370.785C637.273 368.813 632.727 364.825 626.476 362.425C624.868 355.741 625.233 354.774 626.208 347.94C627.606 338.201 638.482 309.561 652.135 314.485C653.127 315.95 652.968 315.971 652.523 318.232C652.415 318.778 652.295 319.323 652.175 319.866C654.639 321.45 657.45 321.635 660.188 322.487C675.227 327.158 691.082 327.066 706.292 330.944C707.827 331.336 707.992 333.946 708.174 335.269L708.893 335.515C712.509 333.742 717.858 330.209 719.296 336.139C725.889 337.283 726.716 336.362 733.862 338.511C734.455 332.749 734.974 325.741 736.508 320.219C739.171 310.611 740.312 303.153 740.323 293.114C736.36 290.141 730.902 288.42 726.288 286.048C694.339 269.604 655.426 261.091 619.747 260.093C615.372 259.97 601.656 259.732 597.356 260.268C559.342 264.064 541.714 300.046 507.881 317.794C508.112 345.144 506.208 373.245 505.347 400.559C504.483 428.912 504.912 457.289 506.632 485.604C508.29 515.638 510.932 545.61 514.556 575.468C518.386 605.478 523.654 628.639 524.266 659.875ZM566.218 882.547C588.493 879.342 625.621 883.18 647.829 888.273C664.049 891.997 693.472 920.177 712.811 912.745C714.813 909.209 714.117 872.573 714.037 866.288C713.992 862.467 712.435 849.053 711.294 844.952C711.152 844.45 711.009 843.954 710.849 843.458C709.292 846.064 706.595 851.066 704.382 852.84L703.566 852.555C703.321 851.557 702.163 841.422 701.878 839.289C701.131 833.706 698.285 822.362 698.051 817.332C698.074 815.136 697.692 815.319 698.798 814.104L698.508 812.929C699.095 813.659 699.346 813.905 700.002 814.56L700.852 814.173C701.279 811.646 702.095 809.621 699.893 807.985C699.46 806.125 698.707 804.791 697.88 803.074C696.996 805.07 698.468 806.143 696.968 808.812C695.274 800.759 692.223 780.764 688.983 773.498L687.734 774.969C681.535 772.369 681.923 747.167 681.079 740.739C679.396 727.941 676.687 715.195 675.415 702.363C675.569 689.736 677.645 665.595 673.762 653.538C670.67 643.946 649.529 639.474 646.101 621.441C644.168 611.272 643.871 602.564 644.886 591.848C645.006 590.564 645.576 587.103 644.806 586.338C638.596 586.84 639.964 584.342 635.043 581.668C627.475 577.556 614.511 574.128 606.07 575.143C604.793 577.801 601.805 578.018 599.17 577.39C591.915 575.645 568.999 580.555 563.701 578.194L563.037 576.158C562.109 576.272 561.504 576.58 560.974 577.647C553.075 593.473 552.41 615.476 547.145 632.505C543.652 643.809 539.869 654.896 533.308 664.351C530.174 668.868 525.804 671.834 523.218 676.476C525.006 680.97 525.141 695.228 525.011 700.538C524.639 715.742 526.163 734.066 522.502 748.934C520.346 757.694 516.316 772.648 513.06 780.929C505.703 799.652 494.581 820.064 493.47 840.458C493.27 844.16 493.342 847.867 493.686 851.551C494.102 855.754 497.708 872.219 496.477 874.517C495.282 873.782 494.934 873.206 494.068 872.128C493.374 873.639 494.259 875.242 494.056 876.878C493.433 881.914 491.74 886.169 495.276 890.623C499.531 891.906 499.806 887.788 503.49 894.222C507.819 895.807 511.393 892.927 515.76 895.311C518.439 896.777 527.15 894.638 529.719 893.269C540.868 887.309 552.332 882.102 563.183 875.595C565.989 873.913 570.121 872.065 573.391 872.938L574.406 874.118C574.503 873.839 566.867 881.88 566.218 882.547ZM500.311 906.392C498.153 903.079 495.106 899.223 492.454 896.263C492.521 908.645 493.706 915.933 499.151 927.037C503.481 928.281 505.367 929.108 509.491 931.024C513.25 926.969 525.967 912.443 531.875 916.538C535.186 923.439 528.337 935.735 534.483 937.2C538.024 938.044 557.443 941.13 560.219 939.727C565.791 936.904 567.933 919.327 574.903 916.612C576.043 916.167 578.61 916.954 579.83 917.308L580.532 917.519C582.67 916.333 582.613 915.871 584.649 916.213C585.727 917.405 586.902 924.716 587.29 926.821C588.111 931.286 590.478 935.541 591.276 939.75C597.134 939.909 603.538 939.961 609.321 940.485L609.601 939.909C611.945 934.993 615.042 918.682 624.594 923.034C626.032 927.38 626.254 935.244 627.908 941.415C631.752 941.751 636.098 942.231 639.907 942.362C642.331 942.43 644.875 942.841 646.517 941.181C651.183 936.465 646.278 925.549 655.757 925.492C658.323 925.48 660.382 925.48 662.549 927.066C662.982 930.967 660.855 939.607 665.019 943.086C667.499 945.162 673.807 947.409 677.183 947.015C679.744 944.689 679.898 932.29 685.732 929.724C687.791 929.9 686.953 929.501 688.39 930.847C689.879 935.039 686.845 946.388 684.193 949.799C686.708 950.135 689.36 949.77 691.898 949.542C691.019 944.785 690.569 936.63 695.143 933.419C698.211 933.225 701.969 932.535 704.291 934.514C706.789 939.111 701.599 953.665 712.908 949.114C717.704 944.113 719.701 928.475 720.642 921.277C708.283 926.553 704.467 925.355 691.401 924.197C670.642 922.361 650.858 902.217 632.208 899.143C615.452 896.383 588.431 894.341 571.76 895.043C566.533 895.442 553.561 895.95 549.353 897.626C533.766 903.843 517.968 915.021 500.311 906.392ZM751.325 367.123C747.909 377.408 745.519 385.772 739.702 394.863L740.306 395.458L743.511 395.317C743.791 396.005 744.036 396.438 744.065 397.192L744.732 397.674C745.673 394.76 752.043 369.191 751.827 367.642L751.325 367.123ZM709.623 829.069C710.53 827.347 711.693 824.98 712.709 823.383C711.642 821.165 705.215 809.667 703.772 808.509C704.479 812.57 706.811 828.088 708.676 830.421C709.093 829.902 709.378 829.657 709.623 829.069ZM511.847 280.931C509.204 284.72 510.352 285.528 510.646 290.072C510.896 293.949 510.646 297.196 510.269 301.041C512.688 299.369 515.25 297.656 517.617 295.934C521.024 292.838 522.597 291.438 524.56 287.139C519.494 283.567 513.704 282.585 511.847 280.931ZM733.679 385.631L735.122 385.746C735.818 384.755 736.206 382.376 736.576 380.907C738.601 372.881 745.542 356.545 738.088 349.942C734.295 346.582 719.239 347.076 716.849 342.105C715.423 343.641 711.956 347.283 711.522 349.117C710.193 354.753 709.435 367.733 709.623 373.111C709.657 373.856 709.703 374.601 709.777 375.344C723.864 375.44 722.991 378.546 733.679 385.631ZM752.174 353.223C752.289 348.861 752.072 347.387 750.156 343.234C746.334 342.057 743.021 341.369 738.994 341.141C744.515 345.953 748.69 346.035 752.174 353.223ZM735.886 396.622C734.763 393.74 735.156 393.804 731.711 392.217C729.607 391.251 725.723 390.499 723.396 390.894C725.113 393.675 732.333 395.09 735.886 396.622ZM759.919 376.181C760.433 380.496 755.961 398.103 753.663 402.694C753.321 403.38 748.142 406.82 747.07 407.54C756.452 409.742 763.433 409.794 771.639 411.381L774.491 412.12C778.073 409.648 776.932 387.469 784.107 379.919C776.447 377.678 767.892 375.425 759.919 376.181ZM698.736 337.382C693.763 336.155 690.033 336.25 685.208 335.679C674.68 334.435 655.038 332.054 645.93 327.341C644.248 331.236 637.717 352.182 638.556 355.537C644.852 364.261 686.126 367.474 689.599 371.96C691.915 367.104 697.396 343.699 698.736 337.382Z" fill="black"/>
<path d="M551.913 255.259L552.077 256.191C546.034 260.385 542.602 263.029 539.027 269.484L539.734 270.122C547.158 268.896 540.59 260.79 555.271 258.419C554.699 259.589 552.145 261.115 550.985 261.732L551.894 262.949L551.542 262.764L555.064 265.709C554.923 267.606 552.799 268.239 551.507 270.38C550.148 272.632 549.42 274.259 548.624 276.746L548.734 276.712C546.986 278.163 546.489 278.826 544.293 279.204C541.86 277.959 541.541 274.525 538.012 271.729L536.479 272.722L535.87 272.479C541.154 264.469 542.603 260.129 551.913 255.259Z" fill="black"/>
<path d="M520.475 819.043C535.355 824.05 559.199 809.787 575.143 805.424C585.904 802.458 597.094 801.392 608.221 802.27C626.106 803.776 643.763 810.34 659.692 818.147C665.732 821.113 674.173 824.352 678.615 829.599C679.334 830.346 680.172 831.265 680.914 831.96C682.807 832.736 688.02 834.92 689.833 834.926C692.936 834.943 694.852 833.791 698.308 834.379C699.232 835.696 698.873 835.605 698.713 837.692C691.944 849.629 669.81 837.127 661.152 833.392C657.65 831.881 653.995 832.052 650.698 830.706C645.337 828.521 640.438 825.396 634.918 823.44C627.675 820.828 620.123 819.151 612.453 818.461C601.126 817.446 588.089 817.549 577.059 819.961C559.397 823.195 539.896 835.907 522.541 838.205C494.037 841.986 507.693 813.243 523.079 806.838C525.722 805.737 531.445 802.361 532.962 806.011C531.809 810.574 524.881 815.923 521.071 818.627L520.475 819.043Z" fill="black"/>
<path d="M665.024 826.138C670.1 826.845 674.104 827.17 678.615 829.6C679.334 830.347 680.172 831.265 680.913 831.961C677.184 831.795 668.709 827.769 665.024 826.138Z" fill="black"/>
<path d="M685.647 345.75C687.712 346.044 689.172 345.974 690.62 347.366C691.949 350.966 690.084 353.529 686.799 355.206C678.535 353.565 676.938 347.977 685.647 345.75Z" fill="black"/>
<path d="M712.652 355.84C714.659 355.647 715.349 355.36 716.98 356.323C718.971 359.52 717.323 361.564 714.99 364.159C713.713 364.265 713.661 364.379 712.498 363.919C711.545 360.809 710.884 358.535 712.652 355.84Z" fill="black"/>
<path d="M751.325 367.123L751.827 367.641C752.044 369.19 745.673 394.759 744.732 397.674L744.065 397.192C744.037 396.438 743.791 396.004 743.512 395.316L740.307 395.457L739.702 394.862C745.519 385.772 747.909 377.408 751.325 367.123Z" fill="black" fill-opacity="0.0117647"/>
<path d="M696.968 808.812C698.468 806.142 696.996 805.07 697.88 803.074C698.707 804.791 699.46 806.125 699.894 807.985C702.095 809.621 701.279 811.646 700.852 814.172L700.002 814.56C699.346 813.904 699.095 813.659 698.508 812.929L698.799 814.104C697.692 815.319 698.074 815.136 698.051 817.332C697.327 814.56 697.202 811.674 696.968 808.812Z" fill="black"/>
<path d="M723.396 390.894C725.723 390.499 729.607 391.251 731.712 392.217C735.156 393.804 734.763 393.74 735.886 396.622C732.333 395.09 725.113 393.675 723.396 390.894Z" fill="black"/>
<path d="M563.21 263.875L564.233 264.839C563.396 266.675 559.55 269.137 557.35 271.728L556.255 271.218L556.203 270.16C557.535 268.128 560.567 266.392 562.782 264.287L563.21 263.875Z" fill="black"/>
<path d="M577.207 259.612L578.77 259.59L578.97 260.188C576.751 261.861 573.278 263.514 570.46 263.027L569.704 263.916L569.008 263.516C569.668 261.739 569.121 262.426 570.7 261.383L571.641 262.315C573.483 261.52 575.399 260.515 577.207 259.612Z" fill="black"/>
<path d="M281.866 244.334C291.9 243.724 300.894 244.276 310.868 244.94C315.032 245.217 319.76 244.712 323.844 245.342C324.837 246.692 324.483 246.391 324.228 248.643L324.801 249.273C337.42 250.856 353.64 248.18 365.325 252.46C374.606 255.859 386.887 266.971 395.787 272.563C404.405 277.977 412.378 280.498 421.866 283.971C426.085 285.094 430.425 287.735 434.858 287.314C437.091 287.102 437.954 287.086 439.381 288.535C439.801 291.526 437.898 308.702 437.659 313.005C435.705 349.603 433.003 386.158 429.554 422.646C428.077 438.943 426.039 455.184 423.442 471.341C416.254 516.877 406.097 562.43 399.612 608.181C399.307 610.337 398.948 611.803 397.239 613.24C396.51 613.115 395.785 612.972 395.065 612.801C384.044 634.918 385.095 669.307 388.545 692.987C389.317 698.285 390.499 705.22 391.336 710.644C391.429 711.243 390.081 713.666 389.651 714.453C392.553 725.614 403.601 760.449 410.105 767.977C414.134 772.642 424.503 774.393 426.722 779.492C425.042 785.811 415.402 782.834 411.208 781.574L410.732 782.115C413.989 788.708 416.22 801.312 420.544 808.224C421.016 808.977 426.224 813.956 427.399 815.159C428.408 818.53 426.494 820.549 426.961 822.704C429.816 835.856 431.109 849.178 433.274 862.432C433.664 864.828 437.41 864.982 438.263 867.246C439.323 870.058 436.14 874.164 434.782 876.97C436.001 884.521 436.613 914.97 435.668 922.509C430.958 926.142 425.902 934.115 420.128 937.297C416.97 939.042 408.794 939.573 405.211 938.757C402.507 938.136 401.887 934.377 400.996 932.729C398.633 933.761 395.788 937.326 393.804 938.506C389.69 940.953 372.007 949.451 368.322 950.101C366.113 949.73 365.678 949.223 363.91 947.865L363.331 947.415C360.142 948.401 357.919 950.62 355.078 952.211C352.231 953.808 354.387 950.991 351.286 951.852C339.535 955.114 332.283 960.138 319.769 956.585C317.266 954.276 315.586 952.599 313.3 950.078C310.793 950.141 307.418 950.312 304.952 949.884C303.326 949.599 302.532 947.261 301.714 945.624C300.013 947.683 297.857 950.591 295.694 951.937C294.196 951.909 294.929 952.08 293.518 951.122C292.935 951.618 292.324 952.086 291.688 952.508C285.967 956.386 268.055 951.932 261.088 950.477C258.657 949.531 253.192 946.753 251.05 945.265C240.635 951.572 238.624 953.181 226.496 954.03C210.443 955.154 202.543 952.257 191.533 940.035C190.221 938.575 186.142 933.425 185.181 932.569C184.238 933.83 184.143 933.824 182.924 934.72C180.982 934.879 179.623 933.682 177.859 932.598L176.899 932.923C172.478 940.001 173.743 934.32 169.01 934.417C165.977 930.283 161.477 903.592 160.439 897.438C159.963 894.609 157.666 887.007 157.34 884.72C153.84 860.134 176.136 831.915 189.41 812.713C187.564 808.082 187.24 800.508 190.095 796.248C192.173 793.145 195.01 792.803 198.345 792.09C200.146 783.706 203.6 775.876 205.374 767.692C206.052 761.852 208.024 754.94 208.31 749.151C208.303 741.224 210.442 732.897 212.268 725.557C213.984 713.746 214.377 712.406 221.162 708.67C221.99 708.214 215.996 658.072 215.655 655.996C209.341 617.552 201.937 579.831 194.543 541.646C190.97 523.196 188.802 504.691 185.556 486.204C181.587 461.609 172.956 426.055 172.932 401.713C166.441 404.251 162.522 410.075 157.254 413.787C151.429 417.892 121.593 433.626 116.685 430.257C116.34 426.328 120.246 392.425 121.278 387.8C125.533 382.963 135.884 374.658 141.19 370.464C140.022 363.702 139.505 359.624 139.905 352.802C142.429 350.211 143.525 349.766 146.766 348.088C149.091 344.774 147.45 337.472 150.255 334.26C150.999 333.414 154.36 333.527 155.021 332.877C160.031 327.947 162.175 324.937 168.257 321.274C171.758 311.073 171.007 299.437 175.063 290.048C176.815 285.991 180.411 293.101 183.401 280.383L185.116 279.73L185.082 279.091C181.703 278.949 177.717 279.057 176.079 275.739C176.236 273.952 176.997 271.958 178.387 270.86C203.488 251.016 252.554 246.359 281.866 244.334ZM187.85 280.652C186.604 290.189 185.855 305.147 187.066 314.738C193.011 319.262 194.563 320.015 198.718 326.311C204.334 324.462 207.602 322.573 212.845 320.427C220.732 317.258 229.013 315.176 237.461 314.239C242.32 313.658 245.717 312.339 246.666 318.231C255.535 317.854 271.483 315.948 278.477 321.652C281.41 324.044 280.705 328.672 282.104 332.59C278.78 342.411 276.372 350.935 274.893 361.184C274.765 362.068 270.482 364.974 269.375 365.362C260.856 369.284 249.649 369.324 240.112 370.714L207.327 375.687C207.078 378.15 207.136 379.728 205.916 381.873C204.568 382.687 204.247 382.67 202.743 382.935C199.373 387.015 201.206 386.346 196.458 389.269C194.304 394.91 192.802 396.55 188.005 400.373C191.532 410.488 192.658 423.349 194.841 433.983C201.046 464.202 205.747 494.237 210.402 524.706L234.833 674.971C236.46 669.302 237.575 661.015 239.017 656.686C244.74 637.039 248.819 617.061 255.442 597.665C256.394 594.876 255.365 589.549 256.413 585.956C259.073 576.831 266.119 571.556 267.479 562.145C290.983 540.309 344.286 552.848 364.877 574.721C377.795 588.449 381.052 600.551 383.175 618.618C388.758 599.935 394.025 571.328 397.682 551.832C406.971 504.319 413.782 456.355 418.088 408.135C419.642 388.845 421.076 369.546 422.387 350.238C423.448 335.664 424.215 321.561 426.852 307.173C411.805 309.042 392.886 302.124 381.066 293.003C378.069 290.69 371.696 283.931 369.292 282.761C359.112 277.804 345.463 276.225 336.998 267.626C322.87 264.554 327.904 263.807 311.818 264.959C294.515 266.077 276.927 268.39 259.76 270.777C249.326 272.227 239.87 272.852 229.335 275.106C219.689 277.17 210.455 281.173 201.084 282.842C193.32 284.226 198.408 279.274 187.85 280.652ZM208.813 802.92C215.721 811.338 225.107 825.961 237.415 826.315C250.064 826.68 266.753 819.015 280.533 817.053C314.271 812.256 346.31 812.673 380.192 813.927C385.889 814.138 400.167 812.986 404.143 813.46L409.001 812.051C400.277 798.13 403.266 792.86 398.919 780.627C398.098 782.167 396.496 785.902 395.304 786.746C394.121 785.936 381.436 742.781 380.556 737.956C379.99 734.973 379.657 731.956 379.561 728.922C365.36 733.217 310.142 719.073 290.818 723.721C281.724 725.905 278.484 724.656 268.122 730.023C260.851 733.787 256.358 743.676 250.738 743.34C249.881 742.758 249.328 742.684 249.21 741.543C248.597 735.555 252.773 733.268 256.545 729.926C265.119 722.335 275.707 718.103 287.039 716.866C304.487 714.653 321.163 715.913 338.623 716.82C343.138 717.054 363.6 720.51 365.414 719.392C366.643 715.417 371.111 712.195 371.634 708.916C373.201 699.112 373.183 688.521 372.627 678.615C372.402 674.782 371.407 669.901 371.595 666.256C371.779 662.68 374.988 654.023 373.722 650.812L372.184 652.768C371.006 651.919 370.928 650.385 370.623 648.765C365.931 623.871 365.574 595.281 342.87 579.221C328.429 569.007 306.416 564.29 289.083 567.077C286.952 567.42 283.895 567.679 282.405 569.137C283.618 572.212 284.58 570.638 283.922 573.033C279.138 576.215 271.51 580.054 269.365 585.472C259.436 610.537 261.213 639.109 253.28 665.121C246.292 670.95 240.194 686.805 239.543 695.93C238.832 705.882 238.582 716.501 237.244 726.333C236.568 731.306 234.034 737.511 232.695 742.444C232.12 744.554 232.615 747.201 231.944 748.695C230.483 751.963 225.308 756.525 224.045 759.485C220.751 767.213 218.495 775.585 215.744 783.507C213.427 790.185 210.591 795.991 208.813 802.92ZM196.277 823.229C188.181 840.749 182.945 851.807 177.06 870.137C180.576 871.82 187.299 879.148 192.49 882.701C244.209 913.863 278.134 878.213 290.568 882.45C291.067 884.03 289.631 886.209 290.325 886.152C307.892 884.806 323.814 886.745 340.783 891.085C362.735 896.697 407.868 891.222 422.886 873.109C423.271 863.642 419.94 824.045 413.47 818.746C411.621 822.414 411.531 825.431 407.306 826.543C401.049 828.185 394.226 828.362 387.79 828.174C357.778 827.301 327.931 826.497 298.062 830.358C291.517 831.202 281.177 831.544 275.241 833.227C242.099 842.625 221.909 855.497 196.277 823.229ZM138.808 413.38C142.876 411.807 149.932 409.61 152.483 406.291C152.228 403.063 147.217 401.668 145.965 399.356C143.843 395.431 142.501 387.001 142.007 382.588C141.972 382.289 141.943 381.989 141.917 381.689C138.767 384.884 136.414 386.968 132.7 389.56C131.678 398.744 131.513 407.246 130.721 416.287C133.393 415.432 136.322 414.604 138.808 413.38ZM414.181 924.979L424.256 923.73C423.933 911.958 425.305 901.02 424.864 889.539C404.279 901.214 394.197 905.4 369.959 908.354C350.826 910.692 336.31 905.827 317.495 902.708C308.73 901.276 299.868 900.541 290.988 900.495C285.545 900.455 273.329 900.621 268.299 901.755C247.307 906.483 229.621 913.07 207.643 907.019C196.269 903.883 186.08 896.155 176.7 889.037C176.591 888.969 176.482 888.906 176.372 888.838C178.277 899.44 181.368 909.689 183.318 920.205C188.121 914.884 188.145 915.01 194.537 912.432C195.477 914.274 195.921 915.745 197.669 916.686C199.69 916.852 200.571 916.321 202.491 915.58C209.351 917.16 210.243 939.219 223.234 941.13C235.725 942.966 240.549 936.145 248.455 928.155C252.538 924.026 258.593 916.766 264.241 918.072C271.859 919.834 270.025 937.987 278.621 940.149C286.356 941.945 289.841 938.176 296.733 936.328C300.787 935.244 301.682 937.531 303.124 940.577C306.447 937.702 309.887 927.756 316.474 921.443L322.781 920.616C325.498 928.309 327.384 935.712 332.476 942.156C336.383 942.151 349.64 941.997 351.719 938.957C355.291 933.733 361.007 918.916 368.545 917.53C374.386 918.471 376.196 929.199 379.439 934.292L386.672 932.781C390.373 931.127 394.097 929.518 397.842 927.967C400.456 921.032 400.539 918.044 402.344 911.154C404.345 909.951 405.534 908.901 407.804 908.987C412.356 911.234 412.783 919.948 414.181 924.979ZM174.237 869.082C175.886 867.577 182.926 845.739 181.735 844.508C177.608 850.809 170.676 861.645 174.237 869.082ZM182.936 336.588C178.387 339.493 165.418 345.242 164.586 350.637C163.854 355.376 164.708 372.669 161.744 376.369C158.937 376.799 160.095 375.822 156.934 374.905C156.324 377.937 158.131 386.936 159.519 389.506C161.367 386.657 161.31 384.976 163.865 382.595C167.77 378.758 178.452 373.932 183.854 375.888L184.634 376.968C184.08 378.941 183.505 379.378 181.565 380.598C182.468 381.222 182.995 381.736 184.08 381.826C186.18 380.83 186.738 379.121 186.807 376.81C187.198 363.687 184.699 349.517 182.936 336.588ZM260.268 353.857C259.294 348.156 261.201 332.687 264.856 328.528L264.722 327.474C263.048 327.358 262.725 327.306 261.092 327.584C242.545 329.486 218.199 328.737 201.535 335.268C201.929 337.941 202.225 340.895 203.842 342.986C207.273 347.424 205.893 350.367 205.241 355.635C204.844 358.849 205.331 361.007 205.843 364.296C207.808 364.543 211.616 363.416 213.737 362.82C229.071 358.504 244.488 356.035 260.268 353.857ZM157.542 352.809C158.9 350.026 160.846 347.307 160.486 344.663C159.053 343.862 157.802 343.957 156.144 343.853C155.856 346.88 155.199 351.641 155.654 354.496L156.348 354.687L157.542 352.809ZM183.671 842.802C185.027 840.453 186.132 838.822 186.77 836.17L186.566 835.417C185.081 837.379 182.916 840.242 183.671 842.802Z" fill="black"/>
<path d="M225.02 340.939C226.232 341.388 226.66 341.701 227.767 342.34C228.796 344.195 228.657 343.396 228.579 345.444C227.439 347.062 227.543 347.034 225.728 347.748C223.347 347.988 223.277 348.352 221.212 347.474C219.339 344.226 222.456 342.365 225.02 340.939Z" fill="black"/>
<path d="M357.924 256.725C369.307 257.09 372.481 259.792 381.477 266.444C378.322 265.9 365.353 258.936 357.924 256.725Z" fill="black"/>
<path d="M409.001 812.051C410.306 814.503 410.71 814.309 410.464 816.784L409.446 817.623C406.262 817.229 405.869 816.123 404.144 813.459L409.001 812.051Z" fill="black"/>
<path d="M186.566 835.417L186.771 836.169C186.132 838.821 185.028 840.452 183.671 842.802C182.916 840.241 185.081 837.378 186.566 835.417Z" fill="#2D2C2E"/>
</svg>
