<svg width="772" height="1248" viewBox="0 0 772 1248" fill="none" xmlns="http://www.w3.org/2000/svg">
<g clip-path="url(#clip0_2099_9984)">
<path d="M353.913 386.694C359.354 386.16 368.26 386.192 374.013 386.269C430.18 387.024 497.297 404.084 542.917 437.455C577.522 462.767 601.709 502.433 608.194 544.78C610.224 558.033 609.096 574.538 611.772 588.091C612.01 593.094 618.453 599.431 619.446 603.246C623.286 617.991 621.512 622.306 634.453 632.098C644.053 639.362 648.874 654.28 651.007 666.351C655.268 690.47 648.868 710.824 633.855 729.934C599.606 773.449 540.043 805.094 487.864 821.974C469.025 828.067 450.827 831.821 431.549 834.508C431.01 834.636 430.442 834.77 429.897 834.85C348.614 847.19 256.249 824.033 194.961 768.013C187.761 761.432 183.228 755.667 175.069 749.781C172.572 742.401 163.225 727.405 158.992 719.458C146.396 695.815 140.95 664.578 139.085 638.113C137.12 602.948 142.424 565.429 156.933 533.151C163.815 517.838 173.014 505.408 178.433 488.98C180.932 481.404 195.159 464.637 200.636 458.447C243.203 410.333 290.261 390.05 353.913 386.694ZM599.996 750.677C619.982 733.005 638.914 713.986 641.285 684.907C643.205 661.403 634.026 632.251 605.744 629.771C594.62 628.796 574.814 636.279 567.007 644.17C562.176 649.063 557.512 654.012 552.718 658.759C544.89 666.473 536.339 673.42 527.182 679.502C494.37 701.634 454.381 714.334 416.202 723.663C371.822 734.687 321.498 741.14 278.854 720.299C202.442 682.945 210.776 562.895 268.898 512.686C273.836 508.42 292.925 492.525 273.862 491.873C265.13 493.665 259.364 497.587 251.552 501.384C233.762 510.031 213.763 507.172 194.804 505.763C186.891 505.175 182.495 508.801 178.558 515.272C150.99 556.709 144.292 612.519 152.261 660.867C154.475 673.505 166.608 692.024 168.99 705.242C169.195 706.381 168.183 711 167.893 712.341C180.225 749.092 222.658 780.871 255.867 797.391C328.27 833.418 414.61 836.142 490.704 810.408C530.457 797.288 567.491 777.044 599.996 750.677ZM316.776 650.587C306.701 642.05 302.771 631.623 301.624 618.698C299.89 598.752 305.483 581.06 318.39 565.903C337.122 543.907 360.068 530.91 389.787 535.872C413.944 539.906 441.769 556.889 428.525 584.852C423.183 596.128 412.971 601.107 400.866 601.628C391.032 602.123 385.101 599.458 378.972 591.747C377.767 590.211 374.808 588.702 374.755 586.376C375.197 577.878 387.584 569.031 395.037 575.401C397.623 582.091 386.742 580.87 388.224 587.977C392.719 594.237 407.987 590.507 413.654 586.893C425.178 564.777 424.163 565.408 404.043 556.198C391.864 550.623 394.206 547.027 377.652 553.799C374.831 554.253 363.642 553.825 361.714 555.609C354.606 562.188 345.105 563.226 337.842 567.494C303.184 587.86 308.72 626.017 346.201 638.003C376.231 647.613 410.821 649.38 439.792 637.296C462.724 626.712 478.986 600.278 486.57 577.286C489.307 568.988 497.647 546.027 483.617 544.007C470.786 542.159 458.502 547.315 446.174 540.465C415.09 525.717 414.037 494.174 374.908 488.708C367.493 487.672 357.963 486.379 350.166 487.145C317.544 490.673 336.224 510.141 319.214 527.235C310.207 536.288 297.881 527.493 288.643 534.011C286.609 535.508 282.709 540.812 280.693 542.812C261.664 561.68 239.677 582.101 239.564 610.977C239.539 617.364 238.274 624 239.342 630.526C241.36 649.453 254.861 668.771 269.629 680.257C304.84 707.643 352.609 714.516 395.479 709.946C454.076 703.706 499.417 675.279 541.983 636.687C551.272 628.265 563.58 621.489 571.658 611.666C574.964 607.89 580.083 597.795 573.779 594.08C566.722 589.918 556.526 590.997 549.345 586.307C533.137 577.701 523.785 564.124 509.827 552.565C512.178 567.593 509.479 580.524 503.978 594.418C487.399 636.285 442.364 655.316 400.636 661.61C377.03 665.175 340.087 667.716 319.376 652.561C318.499 651.915 317.632 651.257 316.776 650.587ZM320.199 400.514C285.095 407.294 255.582 421.028 228.68 444.711C223.172 449.561 216.411 455.077 212.304 461.198C211.372 462.586 210.621 464.215 210.933 465.922C211.208 467.419 212.095 468.557 213.432 469.315C221.628 473.952 239.534 470.854 248.049 468.025C254.661 465.827 260.923 461.798 266.448 457.575C273.741 452 305.203 420.763 313.432 424.835C314.481 425.355 315.609 426.355 315.993 427.493C316.502 429.001 316.263 430.323 315.408 431.643C313.37 434.79 303.924 439.391 300.522 442.036C279.802 458.153 264.927 477.349 237.131 481.098C221.411 483.218 214.266 478.416 200.716 478.072C198.228 478.008 194.863 480.948 193.208 482.683C191.599 484.371 190.369 486.468 190.527 488.869C190.653 490.799 191.736 492.572 193.241 493.752C199.715 498.834 225.201 497.653 233.491 496.289C237.927 495.598 242.259 494.355 246.386 492.587C261.337 486.01 271.991 475.265 289.262 485.748C306.634 496.292 284.154 518.474 306.909 521.387C316.9 522.666 317.247 507.727 318.091 501.366C323.541 465.567 380.809 475.025 402.997 487.924C422.158 499.06 430.208 520.768 449.939 530.644C474.462 539.98 483.555 523.608 512.717 541.771C527.751 551.615 535.711 565.278 549.936 574.711C563.996 584.036 570.181 577.53 584.6 588.832L587.562 588.19L588.641 588.928L588.568 590.069C587.635 590.56 587.141 590.782 586.276 591.408C589.939 599.014 583.777 617.979 590.268 619.923C600.185 622.897 617.849 618.503 608.505 604.07C605.86 599.986 603.019 599.48 600.941 595.449C597.119 587.204 603.928 579.002 593.151 574.136C580.327 568.394 564.144 566.632 552.213 559.404C547.242 554.035 552.192 548.935 558.497 551.108C568.005 554.385 576.82 558.454 586.446 560.968C591.195 562.207 596.881 560.339 597.424 555.173C599.216 538.111 589.47 510.258 580.747 496.256C579.565 494.334 578.179 492.547 576.607 490.928C573.91 488.183 548.55 483.727 543.434 482.436C529.725 478.978 516.148 474.206 502.269 471.641C497.436 470.785 487.492 470.948 486.845 464.062C493.319 450.209 551.178 480.115 560.664 473.167C561.087 472.005 561.63 470.557 560.706 469.215C548.032 451.824 526.767 437.041 507.189 428.295C502.484 426.194 496.974 426.687 492.607 429.099C483.028 434.389 470.219 442.866 459.367 445.018C442.383 448.386 423.206 446.997 406.817 441.54C397.971 438.599 389.994 433.829 381.692 430.895C366.484 425.52 351.192 428.283 337.912 416.503C330.247 409.702 330.774 398.546 320.199 400.514ZM507.872 679.514C525.483 670.306 545.791 653.78 557.639 637.735C549.893 643.012 540.986 651.111 533.648 657.259C524.351 665.047 515.737 671.507 505.95 678.703C504.493 679.666 500.933 681.72 500.372 683.079C502.764 682.75 505.694 680.787 507.872 679.514ZM499.392 572.053C496.422 580.96 493.389 589.618 489.279 598.078C488.585 599.505 486.271 603.928 486.43 605.215C491.066 597.681 499.951 580.966 499.392 572.053ZM314.385 630.362C323.237 648.478 348.129 655.529 366.928 653.689C352.427 650.502 339.605 648.155 326.872 639.752C323.498 637.522 317.57 631.593 314.385 630.362ZM282.73 514.028C267.219 525.811 248.898 550.593 243.344 569.335C244.152 568.538 244.232 568.53 244.872 567.605C248.767 561.847 253.848 556.683 257.575 551.23C265.275 539.966 274.379 535.036 283.625 525.593C286.903 522.245 288.832 515.678 282.73 514.028ZM246.213 673.713C263.046 715.516 324.933 729.598 364.811 722.03L365.092 721.634C327.455 719.215 295.019 712.451 263.796 689.002C259.352 685.663 249.877 674.608 246.213 673.713ZM352.237 396.927C334.738 400.279 345.75 412.372 356.482 414.851C361.6 416.033 366.734 417.382 372.048 418.001C384.059 419.429 393.597 425.002 404.658 429.537C425.784 438.198 448.097 439.43 469.345 430.198C473.457 428.415 481.002 425.085 483.099 420.98C483.177 416.01 469.356 412.616 465.155 411.33C432.556 401.081 398.53 396.091 364.358 396.548C360.317 396.637 356.276 396.763 352.237 396.927Z" fill="black"/>
<path d="M162.178 631.855C170.272 631.593 168.884 637.626 170.319 643.537C171.046 646.529 171.554 649.539 172.322 652.549C173.515 657.095 174.915 661.586 176.518 666.004C206.054 749.099 291.391 786.789 375.059 784.211C417.783 782.895 461.26 771.189 500.718 755.32C510.209 751.506 519.119 746.661 528.007 741.683C556.618 727.283 586.331 709.044 605.336 682.659C608.951 677.637 612.986 663.402 619.733 663.274C625.822 665.742 622.555 671.994 620.824 676.004C609.822 700.428 584.491 719.879 562.581 733.883C554.856 738.818 546.592 743.529 538.883 748.428C537.422 749.355 531.511 755.186 529.858 756.734C528.62 755.723 528.362 755.296 527.385 754.004C522.166 756.436 517.187 759.159 511.93 761.536C416.791 804.631 286.659 814.058 207.134 733.718C185.878 712.171 170.539 685.51 162.598 656.309C161.04 650.587 159.227 643.713 159.15 637.772C159.109 634.67 160.066 633.829 162.178 631.855Z" fill="black"/>
<path d="M474.337 797.873C477.668 798.367 478.348 798.074 479.435 801.292C477.16 811.712 434.915 811.584 425.62 810.048C423.299 809.927 421.882 809.561 419.639 809.073C418.532 807.727 418.798 808.488 418.9 806.685C423.506 802.675 450.713 802.498 457.698 802.352C459.695 802.309 470.177 798.629 474.337 797.873Z" fill="black"/>
<path d="M613.61 701.22C615.463 701.579 619.126 702.225 618.858 704.718C618.187 714.693 606.454 721.646 601.98 729.007C594.977 740.53 598.603 747.831 581.262 747.788C579.69 747.691 578.972 747.502 577.426 747.148C575.574 745.326 575.615 745.942 575.328 743.888C577.755 740.695 587.205 741.847 591.076 736.423C595.708 729.927 598.28 722.121 603.327 715.954C606.667 711.872 609.867 704.328 613.61 701.22Z" fill="black"/>
<path d="M311.857 799.402C318.654 798.708 324.034 801.974 319.996 809.092C312.458 811.462 309.494 806.1 311.857 799.402Z" fill="black"/>
<path d="M486.508 778.099C489.338 778.513 489.924 778.94 491.51 780.762C492.068 784.997 490.045 786.057 486.22 787.203C483.556 786.843 482.059 786.727 480.414 784.656C479.806 780.518 483.279 779.482 486.508 778.099Z" fill="black"/>
<path d="M223.417 759.653C230.865 760.213 231.793 763.547 228.785 769.543C222.052 770.067 221.326 764.711 223.417 759.653Z" fill="black"/>
<path d="M541.259 771.262C547.778 771.67 548.398 776.984 542.567 780.287C540.462 780.445 540.335 780.506 538.408 779.781C536.056 776.417 538.802 773.602 541.259 771.262Z" fill="black"/>
<path d="M424.279 812.114L426.561 812.419C428.121 813.869 427.72 813.083 427.955 815.277C427.06 817.684 426.725 817.934 424.825 819.695C422.563 818.415 421.655 817.958 420.836 815.722C421.496 813.778 422.56 813.327 424.279 812.114Z" fill="black"/>
<path d="M575.88 749.221C578.539 749.416 579.282 749.69 580.895 751.244C581.06 753.663 580.956 752.993 579.786 755.473C577.493 756.015 576.395 756.442 574.712 754.772C574.313 752.664 575.109 751.286 575.88 749.221Z" fill="black"/>
<path d="M411.292 808.33C413.334 808.732 414.342 808.714 415.851 810.128C416.034 812.254 416.025 811.535 414.833 813.717C414.537 813.705 414.242 813.686 413.947 813.668C411.637 813.504 411.233 813.309 409.906 811.803C410.09 809.573 409.943 810.353 411.292 808.33Z" fill="black"/>
<path d="M332.493 447.518C343.623 444.999 370.528 451.634 382.381 453.545C394.842 455.553 403.324 455.688 416.498 455.423C421.257 456.077 441.678 450.751 444.062 452.781C454.978 462.074 432.461 463.995 430.338 464.315C399.615 469.619 374.759 461.85 344.856 457.498C337 456.355 325.084 460.348 318.193 458.568C315.955 456.972 314.45 454.106 316.265 451.78C319.059 448.2 328.288 448.004 332.493 447.518Z" fill="black"/>
<path d="M511.834 492.008C523.139 491.754 540.781 493.012 543.205 507.333C542.626 509.594 543.132 508.797 541.231 510.296C536.423 510.333 538.579 503.817 534.096 501.862L532.791 502.44C533.164 504.274 533.455 504.928 533.036 506.691C516.458 515.851 486.111 514.178 468.111 510.034C463.605 509.05 448.06 506.665 453.766 498.695C453.972 498.405 454.211 498.139 454.478 497.903C456.967 495.682 463.234 497.979 466.397 499.035C481.357 504.027 507.991 504.645 523.541 502.505C516.953 499.678 503.139 501.264 501.055 496.655C502.456 491.815 507.807 492.189 511.834 492.008Z" fill="black"/>
<path d="M533.644 526.911C540.535 527.984 542.118 531.928 537.376 537.083C530.752 536.924 530.069 531.575 533.644 526.911Z" fill="black" fill-opacity="0.988235"/>
<path d="M300.291 467.297C302.474 467.214 302.681 467.134 304.694 467.837C307.691 470.929 306.078 472.843 303.589 475.636C301.693 476.033 301.458 476.041 299.579 475.577C296.58 472.669 298.112 470.241 300.291 467.297Z" fill="black" fill-opacity="0.988235"/>
<path d="M486.586 476.279C488.709 476.03 490.649 477.507 490.971 479.62C491.293 481.733 489.884 483.721 487.782 484.116C486.358 484.384 484.9 483.853 483.981 482.732C483.062 481.611 482.828 480.078 483.37 478.734C483.913 477.39 485.146 476.449 486.586 476.279Z" fill="black"/>
<path d="M474.843 522.652C477.078 523.362 479.237 523.934 480.387 525.916C480.51 527.953 479.772 528.59 478.575 530.297C475.298 530.16 473.656 530.182 472.578 526.931C472.935 524.721 473.363 524.38 474.843 522.652Z" fill="black"/>
<path d="M500.536 437.843C502.17 437.012 504.169 437.55 505.165 439.088C506.162 440.627 505.835 442.67 504.408 443.821C503.343 444.68 501.881 444.857 500.641 444.277C499.401 443.697 498.601 442.461 498.579 441.093C498.557 439.725 499.316 438.463 500.536 437.843Z" fill="black"/>
<path d="M556.543 508.085C558.143 506.989 560.328 507.388 561.437 508.98C562.545 510.572 562.162 512.76 560.578 513.879C558.977 515.011 556.761 514.622 555.641 513.014C554.521 511.406 554.926 509.193 556.543 508.085Z" fill="black" fill-opacity="0.988235"/>
<path d="M572.883 529.947C574.531 529.378 576.33 530.247 576.908 531.891C577.488 533.536 576.629 535.339 574.988 535.928C573.332 536.521 571.511 535.654 570.927 533.996C570.343 532.338 571.22 530.521 572.883 529.947Z" fill="black" fill-opacity="0.984314"/>
<path d="M428.956 479.962C429.98 479.382 431.243 479.421 432.229 480.065C433.215 480.708 433.76 481.847 433.641 483.018C433.522 484.19 432.76 485.196 431.664 485.629C430.127 486.236 428.381 485.55 427.668 484.059C426.955 482.567 427.517 480.778 428.956 479.962Z" fill="black"/>
<path d="M289.125 423.286C290.342 422.254 292.155 422.353 293.252 423.511C294.351 424.67 294.352 426.484 293.256 427.644C292.49 428.453 291.341 428.774 290.267 428.476C289.193 428.179 288.372 427.313 288.133 426.225C287.893 425.138 288.275 424.007 289.125 423.286Z" fill="black"/>
<path d="M499.392 572.053C499.951 580.967 491.066 597.681 486.43 605.215C486.271 603.928 488.585 599.506 489.279 598.078C493.389 589.618 496.422 580.96 499.392 572.053Z" fill="black" fill-opacity="0.141176"/>
<path d="M505.953 678.704L507.875 679.514C505.697 680.788 502.767 682.75 500.375 683.079C500.936 681.72 504.496 679.666 505.953 678.704Z" fill="black" fill-opacity="0.152941"/>
</g>
<defs>
<clipPath id="clip0_2099_9984">
<rect width="772" height="1248" fill="white"/>
</clipPath>
</defs>
</svg>
