<svg width="880" height="1168" viewBox="0 0 880 1168" fill="none" xmlns="http://www.w3.org/2000/svg">
<g clip-path="url(#clip0_2073_7756)">
<path d="M362.944 226.587C370.377 227.781 377.636 231.544 384.818 233.892C426.627 247.558 474.075 244.95 516.905 237.575C524.645 236.241 532.54 232.089 541.516 230.435C550.233 234.473 558.14 237.706 566.491 242.535C572.051 245.751 582.42 255.183 587.547 256.473C598.611 259.258 612.858 262.004 624.258 263.126C630.902 263.78 638.014 263.449 644.647 265.088C675.627 272.739 696.871 315.685 708.466 342.458C714.625 356.686 719.034 374.436 725.142 389.091C732.716 407.745 742.81 425.405 750.743 443.89C759.424 464.104 766.433 485.053 774.417 505.542C777.012 512.19 781.489 520.58 785.436 526.589C798.325 546.235 814.009 563.809 830.736 580.253C842.793 591.956 855.476 603.202 866.29 616.137C871.525 622.393 875.728 629.431 880 636.338V686.24C875.124 677.668 869.609 666.501 865.394 657.456C850.207 666.199 839.268 678.529 827.217 691.031C820.55 697.954 814.322 704.507 808.671 712.298C802.973 720.145 799.078 728.717 794.578 737.266C786.109 751.444 779.236 764.738 771.514 779.19C782.55 780.438 793.112 779.018 804.444 781.602C821.89 755.042 840.089 730.491 864.607 710.25C869.392 706.304 874.331 700.72 880 698.319V717.145C873.225 724.006 865.588 730.131 858.636 737.026C850.612 744.657 843.956 753.446 836.935 761.915C828.609 771.707 820.248 781.089 814.128 792.512C809.686 800.81 810.826 801.671 801.678 803.046L797.002 801.483L793.318 796.949C781.415 793.915 772.649 797.183 761.391 795.056C757.165 794.263 755.448 791.811 753.515 788.4C740.74 788.138 725.096 791.024 712.327 792.244C683.697 794.976 634.997 789.66 627.389 755.83C626.728 771.023 625.313 784.653 623.323 799.766C621.88 810.733 622.262 820.058 618.27 830.529C622.165 830.324 626.853 829.622 629.465 833.13C633.315 838.308 626.414 844.199 622.741 846.732C606.407 848.106 587.256 843.122 570.608 842.346C565.756 841.593 560.546 842.785 555.771 842.357C528.171 839.865 500.607 838.114 472.857 838.32C472.886 838.696 472.913 839.078 472.936 839.454C473.105 842.198 473.367 843.635 471.542 845.699C467.89 846.31 467.754 841.405 467.412 838.759C460.192 838.08 456.196 838.456 449.151 838.713C446.25 838.57 443.048 836.939 440.132 837.133C409.445 839.175 378.819 837.664 348.135 838.57C331.12 839.072 314.175 841.576 297.167 841.479C291.103 841.445 282.873 841.222 277.668 837.972C275.548 836.563 275.124 832.73 274.902 830.335C273.657 816.859 269.383 803.821 267.778 790.39C265.331 769.916 263.035 749.704 259.682 729.344C250.357 739.769 246.755 747.377 235.542 756.788C218.362 771.211 206.538 778.767 183.442 780.381C177.582 780.792 170.576 781.716 164.601 781.111C158.673 780.513 153.3 778.414 147.11 777.906L146.352 777.849C139.599 785.121 131.267 790.465 124.787 797.685C119.364 803.913 119.46 815.638 110.529 819.106C99.1349 822.448 85.741 809.41 77.7058 804.295C50.1674 786.763 43.8341 776.971 29.5883 748.592C27.8233 748.045 25.8194 747.212 24.0713 746.533C27.6529 741.349 32.3322 738.241 35.9975 733.45C42.7792 724.582 48.5349 714.602 54.4187 705.083C49.4369 686.485 52.2433 676.493 55.4194 658.74C60.1948 631.416 74.7972 607.343 85.9948 582.215C103.326 543.316 108.81 504.996 115.5 463.479C120.407 433.035 132.749 399.249 148.278 372.635C154.2 362.487 161.339 352.723 167.851 342.93C176.969 329.991 188.949 307.944 200.438 297.848C225.722 275.63 264.852 257.61 296.359 245.461C307.437 241.19 322.564 238.741 334.157 236.427C339.462 235.367 350.785 231.524 354.964 231.658C358.426 228.955 358.9 228.481 362.944 226.587ZM290.036 824.027C292.495 824.507 295.249 824.706 297.763 824.951C297.037 817.589 296.921 809.964 296.81 802.555C296.746 798.232 295.628 789.227 300.261 787.311C301.748 787.602 302.871 787.624 303.846 789.341C307.041 794.953 300.413 824.284 309.286 824.689C312.135 820.634 306.275 788.651 313.338 782.765C315.415 782.417 314.454 782.286 316.332 783.09C318.712 787.567 316.404 809.062 317.478 817.537C319.368 818.86 319.987 819.214 321.431 820.988C321.517 822.351 321.352 822.801 320.913 824.05C322.399 824.472 339.65 823.28 341.181 822.26L341.325 821.096C340.035 818.821 337.845 817.708 335.605 816.209C334.724 809.49 333.247 789.849 338.017 783.763C338.728 782.857 340.395 782.999 341.454 783.102C343.782 786.136 342.181 791.856 342.133 796.476C341.422 800.628 340.925 808.504 342.556 812.41C343.134 808.971 342.742 805.68 343.131 802.327C343.546 800.394 344.012 798.466 344.527 796.556C345.47 793.151 347.561 786.033 350.673 784.288C352.767 784.465 351.919 784.043 353.322 785.566C355.14 791.446 349.223 806.844 348.817 814.509C350.038 816.967 348.899 814.138 352.688 815.644C353.657 817.366 353.558 816.494 353.079 818.347C351.187 820.121 348.129 821.045 345.608 822.031C351.993 823.104 368.439 822.55 375.59 822.528C376.714 811.167 375.59 796.208 377.894 784.59C378.158 783.256 379.287 782.611 380.42 782.075C382.31 781.944 382.247 781.864 383.891 782.714C386.012 785.651 384.589 791.463 384.352 795.255C383.845 804.215 383.28 813.174 382.655 822.134L388.195 822.425C388.766 817.583 390.567 771.376 402.078 782.748C402.268 785.48 399.436 797.12 398.776 800.884C397.555 807.779 396.63 814.726 396.005 821.701C401.845 822.659 412.144 822.488 418.183 822.499C419.283 818.883 421.556 807.528 422.731 803.428C424.766 796.339 435.708 762.793 435.526 757.483C434.589 730.12 420.297 695.616 413.534 668.583C406.169 639.144 411.985 612.008 420.476 583.607C425.144 567.574 432.703 550.942 435.622 534.436C437.341 516.679 439.341 498.029 439.513 480.066C439.696 460.961 439.782 439.968 438.956 420.869C438.805 417.367 436.814 414.786 438.77 411.435C440.72 410.261 443.259 410.588 445.667 410.59C451.417 414.784 457.293 411.882 460.119 416.972C463.654 423.339 462.355 437.644 451.787 434.744L452.156 452.226C472.594 441.497 469.347 476.172 454.729 476.04L453.179 476.035L452.536 476.031C451.903 478.493 451.76 490.206 451.486 493.652C454.841 492.18 458.129 490.146 461.562 491.299C465.919 495.115 465.209 506.744 458.552 507.82C455.387 508.331 452.82 505.661 450.518 503.819C450.456 510.651 450.679 515.688 449.874 522.519L459.436 522.374C461.721 526.247 462.229 528.333 462.937 532.688C469.648 505.758 469.063 473.637 467.507 446.138C467.237 441.37 468.401 432.405 467.278 428.194C463.609 414.431 458.875 401.464 455.967 387.439C445.383 385.98 444.161 383.043 441.345 395.578C440.445 399.583 437.864 407.513 436.227 411.208C425.797 434.761 413.424 461.644 383.054 459.941C356.053 459.311 328.777 433.249 319.584 408.586C308.046 377.627 300.503 336.742 301.167 303.399C301.472 288.112 313.164 263.57 324.734 253.412C301.772 255.891 229.759 289.001 212.368 305.916C200.073 317.874 162.345 374.946 153.418 393.046C142.597 415.059 134.835 438.447 130.347 462.561C127.245 479.862 125.494 497.567 122.249 514.846C118.942 532.453 113.423 549.488 108.443 566.576C97.5209 604.047 68.9902 642.103 67.9745 681.786C74.3073 690.015 78.1558 702.494 84.0096 710.478C95.9851 726.624 111.179 744.075 129.385 753.309C134.995 756.149 154.73 762.833 160.974 763.768C178.39 766.38 205.19 762.291 219.38 751.501C234.133 740.288 254.008 720.151 258.806 701.701C260.105 695.61 253.935 679.63 251.898 672.701C250.349 667.488 249.023 662.213 247.925 656.886C243.951 637.912 241.119 618.156 240.366 598.811C240.084 591.545 240.679 584.901 240.768 577.732L241.211 527.804C241.505 506.936 240.319 485.714 242.918 464.995C243.335 461.678 245.385 457.167 249.403 458.535C251.129 462.553 251.069 478.988 251.207 484.102C252.012 514.032 252.537 544.536 252.35 574.47C252.16 604.868 253.155 633.344 261.853 662.88C264.092 670.579 265.694 677.64 268.329 685.516C273.011 699.517 281.44 714.482 277.047 729.492C276.497 731.312 274.337 732.087 272.679 732.749L272.026 733.006C271.982 738.036 275.814 755.544 276.805 761.265C279.094 774.467 284.138 812.41 289.765 823.503L290.036 824.027ZM47.5822 741.589C48.711 746.248 50.269 748.695 52.1595 752.778C59.5971 768.85 70.1862 776.298 83.5339 786.877C88.2858 790.647 92.9829 795.198 98.2937 798.438C100.15 799.555 102.03 800.633 103.934 801.666L106.332 796.852C114.787 785.36 118.457 782.224 129.176 772.922C103.366 760.997 79.8959 739.022 65.1161 714.927C58.6943 726.15 56.0638 731.637 47.5822 741.589ZM353.423 247.195L348.748 249.576C335.771 277 327.774 283.229 338.618 315.463C344.819 333.897 370.533 359.481 388.15 368.046C396.663 372.184 414.035 377.454 423.151 376.761C431.404 376.134 432.462 374.925 441.781 376.188C457.038 367.264 487.07 393.673 514.634 372.918C533.238 357.034 537.123 336.529 539.777 313.143C541.722 296.008 533.841 277.086 527.767 261.224C526.032 256.694 522.815 251.502 521.292 246.866C515.126 248.384 504.209 251.448 498.419 252.241C460.295 257.456 391.233 258.492 357.782 238.716C356.369 241.701 355.16 244.384 353.423 247.195ZM546.69 826.417C546.939 821.518 548.408 812.467 554.922 812.963C558.989 815.912 557.292 821.912 556.672 826.252C562.126 827.421 569.329 827.934 574.966 828.043C575.485 825.351 577.538 816.608 575.941 814.269C575.319 813.363 571.892 811.27 572.068 808.629C572.16 807.295 571.989 808.042 573.118 806.667C581.108 803.114 583.925 806.393 587.444 812.998C586.15 817.486 584.074 823.126 583.378 827.495C585.773 829.086 606.139 830.809 610.063 831.048C607.023 826.491 606.51 826.719 606.447 821.353C606.253 806.701 610.246 792.375 611.831 778.186C616.04 740.169 617.01 702.106 614.74 663.935C613.702 646.489 611.323 626.374 613.36 608.991C615.664 589.372 616.684 571.402 617.221 551.721C617.426 544.187 620.614 526.307 622.131 518.732C622.507 516.816 622.929 514.908 623.391 513.009C624.96 508.029 625.068 502.279 626.448 498.282C631.513 483.664 636.993 469.164 642.976 454.901C645.451 449.15 650.151 428.851 653.709 425.58C655.842 424.944 654.844 424.854 656.812 425.812C659.812 430.203 653.926 442.653 652.848 448.199C652.341 450.809 649.9 457.37 648.902 460.211C634.245 501.742 630.452 544.902 627.977 588.563C627.053 604.708 624.441 621.795 624.475 638.168C625.062 669.741 629.693 703.047 627.766 734.585C629.129 735.823 629.802 735.857 631.627 736.399C633.018 737.939 636.001 746.254 637.758 749.362C649.632 770.372 668.926 776.184 691.698 777.769C708.169 778.916 726.858 773.207 743.352 772.049C748.473 771.639 755.351 772.865 760.519 773.675C766.227 762.228 771.4 750.691 778.079 739.77C785.345 727.896 789.941 713.341 798.684 702.386C815.252 681.62 838.612 655.859 861.339 642.383C852.705 629.471 844.578 622.479 833.462 611.717C799.038 578.4 764.528 544.577 751.017 497.118C741.538 463.822 721.731 432.933 708.922 400.982C702.854 385.83 699.255 369.573 692.816 354.524C682.67 331.288 668.258 301.708 647.744 285.984C636.326 277.232 610.4 280.645 596.621 274.831C597.345 286.352 601.468 303.277 600.51 313.921C598.474 336.495 591.516 359.257 581.359 379.494C573.055 396.024 566.067 411.552 552.914 425.183C533.311 445.03 504.077 470.714 477.845 445.518C477.922 454.777 478.868 463.806 478.967 472.908C479.415 499.049 475.835 525.102 468.352 550.153C465.718 559.111 462.771 568.068 459.806 576.905C457.9 583.27 451.94 593.73 451.872 600.117C451.642 621.755 452.52 645.406 456.706 666.496C464.479 705.665 481.09 742.062 467.324 782.149C463.975 791.902 460.367 802.065 456.711 811.777C455.656 814.914 454.318 818.387 455.668 821.569C458.1 823.748 464.307 823.109 467.838 823.029L468.136 822.299C471.03 815.096 477.729 784.476 489.462 787.807C491.054 791.286 476.252 815.627 477.54 822.066C479.918 823.394 506.009 824.09 510.502 823.976C509.757 819.967 508.899 813.967 511.13 810.414C513.889 809.279 514.834 811.697 515.979 808.327C517.069 805.122 518.715 802.812 521.79 801.249C526.888 802.578 521.53 820.155 520.995 824.706C528.344 825.892 538.878 825.79 546.69 826.417ZM433.481 696.511C436.061 704.73 439.086 714.334 440.99 722.7C447.924 717.584 455.513 717.333 456.272 728.916C456.565 733.382 447.658 735.829 443.554 736.279L444.275 739.724C444.9 742.672 444.913 747.76 445.01 750.919C446.197 748.826 448.344 744.349 450.164 743.243C455.184 742.467 459.389 747.423 460.075 752.031C460.493 754.837 458.796 758.333 457.618 760.808C453.453 766.146 450.98 760.649 447.671 762.918C444.698 767.949 444.268 777.575 442.2 783.147C443.904 784.242 442.989 784.003 445.059 783.815C451.867 779.418 448.1 779.275 457.509 779.834C458.692 780.667 458.648 780.918 459.203 782.246C461.315 779.994 463.928 764.048 465.023 760.113C464.203 758.624 463.306 756.879 462.383 755.482C462.854 742.467 460.62 738.218 457.434 725.489L446.338 682.561C444.58 675.501 443.003 669.125 441.64 661.962C440.668 656.852 440.561 637.011 438.843 635.151C435.71 645.845 433.506 646.683 423.226 649.409C423.471 654.827 425.378 671.748 427.762 675.957C430.594 675.21 433.151 674.007 435.91 675.49C446.253 681.056 447.482 695.274 433.481 696.511ZM430.35 593.513C426.761 604.822 426.046 613.691 424.494 624.943C428.386 624.247 434.284 622.188 436.776 625.884C437.688 627.84 438.578 629.631 439.269 631.678C439.315 627.156 439.77 611.364 438.875 608.09C436.07 606.305 433.022 606.345 431.492 602.991C430.228 600.225 431.202 596.131 430.35 593.513ZM463.072 532.631C457.691 538.056 458.844 542.687 449.429 538.625C447.691 538.984 447.27 538.783 446.128 540.704C443.558 545.229 452.426 547.091 452.362 551.849C452.24 561.134 448.295 564.465 440.172 565.594C438.216 567.113 435.086 580.031 433.602 583.886C432.248 586.39 430.422 592.726 429.774 595.594C431.596 591.819 433.422 588.34 434.566 584.291C436.815 584.428 437.439 584.924 439.28 586.11L439.866 586.492C441.145 585.785 441.392 582.038 443.505 579.455C445.222 578.365 445.778 578.508 447.832 578.508L448.495 578.514C451.088 575.924 460.738 539.313 463.072 532.631ZM532.994 243.826C535.276 245.901 536.115 249.962 537.594 252.955C544.197 267.39 551.969 286.722 552.519 302.697C553.359 327.079 545.553 357.427 529.394 375.933C515.583 391.749 488.253 397.027 468.952 389.66C475.773 407.808 480.812 440.128 502.121 444.353C517.558 444.166 529.995 431.368 540.542 421.159C553.072 408.449 560.472 393.148 568.561 377.693C576.774 362.002 580.218 350.809 584.444 333.894C588.534 317.504 587.843 308.158 585.271 291.657C584.479 286.585 584.336 280.815 583.486 275.747L582.87 275.295C578.456 272.007 574.909 268.066 570.899 264.607C562.194 257.098 544.611 244.628 532.994 243.826ZM432.604 387.556C400.788 391.455 376.58 382.78 353.782 360.603C335.833 343.143 324.23 326.925 320.749 301.527C318.298 283.651 328.156 265.653 337.615 251.426C336.609 250.704 334.239 251.073 332.695 251.11C327.995 275.22 301.104 282.419 309.882 320.798C315.588 345.742 317.506 371.011 327.025 396.351C329.66 403.276 333.109 409.862 337.3 415.971C345.711 428.41 355.364 438.397 369.513 444.125C390.458 452.603 396.536 449.914 410.48 434.186C419.59 422.936 423.966 408.846 428.919 395.466C430.097 392.285 430.666 390.969 432.345 388.002L432.604 387.556ZM440.602 797.947C438.95 798.249 437.659 798.101 436.962 799.373C433.348 805.994 431.633 815.638 429.402 822.733L444.681 823.075C447.116 816.87 449.543 805.367 453.683 799.886C453.097 799.162 442.16 797.97 440.602 797.947ZM455.766 459.407C452.625 462.531 451.564 464.687 454.017 468.642C456.179 469.466 455.763 469.133 458.412 468.697C459.521 467.339 460.271 466.017 460.015 464.143C459.811 462.65 458.98 461.315 457.73 460.474C457.08 460.03 456.495 459.691 455.766 459.407ZM425.56 632.271C424.848 634.741 423.456 638.653 424.236 640.969C425.901 642.132 426.499 642.058 428.852 641.647L429.7 641.493C431.303 639.36 431.997 638.613 432.864 636.013C432.328 633.03 429.804 633.515 427.179 633.634L425.56 632.271Z" fill="black"/>
<path d="M189.708 607.4C191.394 607.868 191.332 607.805 192.637 608.94C194.591 613.097 193.675 619.114 193.372 623.796C194.496 622.656 195.642 621.544 196.808 620.449C199.728 617.745 206.699 611.672 210.01 615.772C211.106 620.004 208.052 628.975 206.842 633.549C214.187 636.326 214.26 637.837 216.352 645.092C215.536 646.466 212.946 650.709 212.217 651.331C206.801 655.985 204.975 657.302 204.589 664.745C204.466 667.123 200.912 669.29 198.717 670.648C190.818 675.855 186.081 668.03 182.893 661.465L175.657 663.467C162.478 658.175 166.804 649.82 173.752 641.1C166.76 633.264 161.051 620.586 176.907 620.067C177.369 619.04 177.861 618.025 178.382 617.027C181.036 612.014 184.331 609.06 189.708 607.4ZM180.079 638.043L180.586 638.932C182.294 637.872 184.183 636.452 185.93 635.294C186.445 632.79 187.124 622.656 185.503 620.905C183.375 622.975 178.321 627.372 177.609 629.579C178.142 632.933 179.648 633.623 180.079 638.043ZM181.011 653.806C181.936 653.013 182.755 651.913 183.537 650.96C183.424 648.314 181.936 645.964 180.515 643.746C177.766 646.386 174.191 648.599 176.731 652.375C178.579 653.453 178.886 653.493 181.011 653.806ZM197.222 662.418L198.555 660.696C197.775 657.182 195.454 654.154 193.152 651.514C191.776 650.995 191.364 651.149 189.925 651.308C189.583 653.664 195.36 662.566 197.222 662.418ZM195.173 636.406L197.433 637.193C199.079 635.225 202.795 625.593 200.971 623.779C197.664 627.412 195.818 631.233 194.192 635.864L194.475 636.731L195.173 636.406Z" fill="black"/>
<path d="M345.583 477.888C352.688 477.692 353.462 484.537 355.422 490.282C365.093 484.87 368.968 490.938 366.461 500.496C377.791 509.651 378.987 514.887 364.953 521.104L365.117 527.307C363.339 530.298 361.983 531.943 359.786 534.666L354.601 535.379C350.027 535.152 339.562 532.653 334.52 531.623C334.581 528.495 335.056 526.971 334.53 523.692C332.996 520.915 328.721 519.414 326.189 517.497C324.222 516.008 321.952 513.69 321.85 511.28C321.005 503.572 325.906 502.251 329.354 498.56C330.514 497.318 326.557 492.665 331.283 485.459C333.326 485.033 336.173 484.75 338.3 484.475C340.877 481.905 342.662 480.039 345.583 477.888ZM331.465 509.965C333.772 511.649 336.155 513.088 339.087 512.909C342.463 510.837 342.009 506.754 342.074 502.891C337.938 511.414 332.361 503.971 329.129 507.306C329.701 508.709 330.294 509.014 331.465 509.965ZM342.615 500.82C345.964 498.738 347.767 501.84 347.638 498.754C347.542 496.448 346.798 491.619 345.458 489.83C340.372 497.819 340.902 492.101 342.472 501.942L342.615 500.82ZM354.812 524.247L355.778 523.818C354.401 518.994 351.816 520.504 347.793 518.251C346.353 519.595 346.301 519.641 345.541 521.478C346.291 524.736 351.987 524.202 354.812 524.247ZM363.394 513.83L364.484 513.524C363.912 512.273 362.62 511.633 361.265 511.252C357.554 510.209 356.208 505.813 354.347 503.985L352.484 504.878C352.914 508.509 360.237 512.409 363.394 513.83Z" fill="black"/>
<path d="M354.347 503.984C356.208 505.813 357.554 510.209 361.265 511.252C362.62 511.632 363.912 512.273 364.484 513.523L363.394 513.829C360.237 512.409 352.914 508.508 352.484 504.878L354.347 503.984Z" fill="black" fill-opacity="0.0784314"/>
<path d="M567.324 471.865C584.53 470.053 575.285 493.137 570.363 500.722C571.595 500.803 572.821 500.892 574.047 500.988C576.152 501.154 581.148 501.432 581.895 503.209C585.813 512.617 577.863 527.375 570.403 533.214C563.749 538.417 558.381 536.108 553.923 530.076C551.69 531.084 549.729 531.678 547.413 532.428C536.323 534.964 522.738 538.187 527.622 519.985C529.63 512.506 533.079 505.885 540.029 501.905C521.263 485.903 540.019 488.198 549.003 485.575C553.241 484.338 560.01 474.361 567.324 471.865ZM555.178 505.261C559.269 502.088 574.766 489.353 568.89 483.614L566.594 483.648C556.441 487.214 564.237 489.818 558.148 496.306C555.098 497.154 554.003 496.43 552.119 497.83C551.57 500.125 552.846 502.45 553.951 504.556L555.178 505.261ZM564.531 524.443C571.042 525.916 573.774 520.668 574.869 515.179C574.966 514.696 575.057 514.211 575.142 513.725C572.114 513.548 567.858 513.17 564.952 513.406C560.062 515.928 559.499 513.602 554.422 515.002L554.313 515.585C563.818 517.71 559.099 519.864 564.531 524.443ZM537.775 522.189C540.704 521.53 543.295 520.956 546.165 520.074C544.714 516.713 544.165 515.661 543.717 512.06C541.4 514.069 536.314 517.9 535.901 520.688L536.474 521.792L537.775 522.189Z" fill="black"/>
<path d="M730.976 558.219C737.187 558.4 739.525 559.994 741.607 565.726C749.369 565.631 752.346 565.171 759.218 568.579L758.203 576.067C768.001 578.964 777.195 581.975 767.613 593.199C766.678 594.288 763.752 596.94 763.37 598.144C759.731 609.63 755.785 621.669 741.664 612.116C740.192 610.799 739.611 608.335 738.909 606.356C738.014 610.223 737.797 611.711 734.786 614.563C731.387 617.893 724.269 621.275 720.762 616.416C716.941 611.112 719.849 602.432 721.064 596.433C707.81 596.222 714.494 583.914 717.887 576.934C722.153 574.053 723.054 573.58 728.13 573.01C727.491 567.307 726.288 562.417 730.976 558.219ZM731.313 605.438C733.525 600.122 734.706 593.262 735.909 587.661C735.174 587.302 734.438 586.943 733.708 586.578C733.542 589.503 726.624 599.706 729.989 605.193L731.313 605.438ZM744.686 588.865C746.494 586.68 745.251 582.255 745.017 579.135C743.158 578.992 742.331 579.015 740.466 579.158C739.679 582.602 739.537 583.543 737.871 586.635C738.869 587.798 742.542 588.117 744.686 588.865ZM752.135 601.235C753.857 599.917 754.41 599.946 755.095 598.121C753.669 596.963 752.237 596.917 750.39 596.569L748.297 597.305C748.177 599.529 750.144 600.641 752.135 601.235Z" fill="black"/>
<path d="M358.451 250.128C368.058 251.574 377.561 255.33 387.434 256.989C407.24 260.318 427.429 261.188 447.477 262.027C456.933 262.363 466.983 260.451 476.38 260.985C489.944 261.756 502.884 259.713 516.364 259.013C517.751 258.941 518.681 260.113 519.464 261.005C519.231 270.226 497.119 275.069 489.867 275.628C488.042 275.836 486.109 275.976 484.269 276.142C484.778 279.845 486.057 288.399 485.296 292.409C484.66 295.763 483.081 296.677 479.458 297.642C462.806 302.078 444.625 299.983 427.606 298.912C423.27 298.639 416.939 299.224 412.865 298.187C412.267 296.437 412.949 278.4 412.994 275.57C403.327 274.24 392.666 273.652 383.189 271.459C371.313 268.71 342.03 268.534 358.451 250.128ZM420.117 276.013C420.803 279.699 421.524 284.258 422.463 287.822L436.35 288.817C447.649 289.729 463.295 291.61 474.113 289.864C474.273 279.634 474.326 278.061 484.598 276.206C481.3 276.084 471.335 275.486 468.552 275.711C450.608 276.883 438.077 276.216 420.117 276.013Z" fill="black"/>
<path d="M343.131 802.327C342.741 805.68 343.134 808.971 342.556 812.41C340.925 808.503 341.422 800.627 342.133 796.476C342.254 798.283 342.18 800.935 343.131 802.327Z" fill="black" fill-opacity="0.0392157"/>
<path d="M429.774 595.594C430.421 592.726 432.248 586.389 433.602 583.886L434.565 584.291C433.422 588.34 431.596 591.819 429.774 595.594Z" fill="black"/>
</g>
<defs>
<clipPath id="clip0_2073_7756">
<rect width="880" height="1168" fill="white"/>
</clipPath>
</defs>
</svg>
