<svg width="772" height="1248" viewBox="0 0 772 1248" fill="none" xmlns="http://www.w3.org/2000/svg">
<g clip-path="url(#clip0_2103_10125)">
<path d="M428.689 453.634C448.72 451.155 484.594 459.195 504.705 465.118C541.916 476.077 622.487 508.158 640.438 541.832C644.43 549.311 646.076 558.916 643.461 567.117C640.078 577.755 630.283 582.49 619.598 581.604C615.6 581.271 610.699 578.806 606.993 580.77C606.78 581.187 606.53 581.683 606.231 582.26C608.06 590.666 612.339 604.08 614.387 612.117C620.756 636.913 625.09 662.184 627.339 687.686C628.753 704.267 626.943 716.241 630.789 732.25C627.26 739.708 623.718 746.04 613.509 743.151C604.604 740.635 585.318 718.892 582.289 736.552C580.973 744.248 581.436 761.067 578.555 766.722C564.782 793.802 526.131 729.721 518.747 726.454C513.262 728.819 521.765 774.449 513.111 780.347C495.526 792.34 471.053 734.376 459.323 734.596C455.19 738.624 456.424 753.041 456.383 759.062C456.249 770.098 456.056 781.127 455.801 792.157C454.671 854.545 451.584 916.872 446.546 979.065C444.667 1001.65 442.599 1024.21 440.344 1046.77C438.815 1060.96 435.951 1080.7 435.409 1094.53C446.311 1104.63 475.282 1104.96 488.533 1117.01C495.411 1123.26 502.97 1134.59 494.934 1143.24C476.063 1163.53 431.826 1148.04 413.119 1133.78C407.317 1129.36 405.351 1105.85 404.24 1098.39C397.951 1056.53 393.832 1014.37 391.898 972.087C390.004 935.366 389.497 898.475 387.093 861.803C386.842 857.056 386.384 833.564 380.724 833.662C367.49 844.228 371.596 997.864 372.252 1019.52C372.668 1034.27 373.196 1049.01 373.836 1063.76C374.006 1067.97 375.982 1095.37 373.045 1097.52C352.593 1112.49 324.947 1123.29 300.017 1128.04C293.697 1129.24 280.734 1124.74 281.982 1117.82C285.958 1095.77 324.637 1084 337.233 1070.73C337.046 1063.23 332.814 1038.83 331.726 1029.76C328.411 1001.77 325.711 973.714 323.628 945.61C315.134 839.774 310.649 733.651 310.182 627.48C310.119 607.744 310.559 588.012 311.501 568.3C312.088 557.309 313.098 546.329 313.871 535.354C314.024 533.179 313.906 532.832 312.845 531.284C309.8 531.129 304.613 540.164 302.331 543.255C285.659 566.127 266.803 586.966 242.759 602.216C219.993 616.657 173.136 632.934 155.342 603.599C154.258 590.042 158.79 583.283 165.555 571.867C166.903 569.59 168.711 566.542 169.018 563.909C164.515 561.111 152.746 560.567 145.814 553.946C141.196 550.095 136.186 543.885 136.056 537.494C135.487 509.392 161.366 510.569 179.31 508.589C186.936 507.686 194.541 506.617 202.12 505.383C269.138 495.01 333.883 476.287 399.7 460.362C411.014 457.624 416.333 454.774 428.689 453.634ZM403.068 886.488C404.993 945.196 407.287 1004.34 414.16 1062.68C414.726 1067.49 416.333 1082.63 418.163 1086.1L418.992 1086.32C423.089 1081.36 426.48 1038.84 427.398 1029.44C435.678 946.329 440.358 862.906 441.424 779.397C442.894 710.403 442.252 640.667 436.502 571.943C434.257 545.112 436.167 527.046 414.81 507.666C413.545 506.518 412.186 505.837 410.524 505.542C400.902 508.959 420.181 559.462 397.542 552.912C392.962 551.588 390.255 542.493 385.932 540.334C378.69 534.778 358.518 537.203 357.051 529.78C354.31 515.901 367.164 498.37 371.32 485.837C371.785 484.435 370.79 483.72 369.982 483.105C369.246 483.158 367.781 483.216 367.123 483.35C360.688 484.816 341.864 487.893 338.188 492.921C336.051 495.844 333.875 506.343 333.054 510.51C323.341 559.831 324.205 615.097 324.917 665.438C326.216 737.819 329.279 810.164 334.103 882.4C336.38 922.046 339.496 961.637 343.447 1001.15C345.559 1021.36 347.845 1041.39 351.768 1061.35C352.423 1064.68 354.198 1070.5 357.666 1071.8C358.343 1071.35 358.526 1071.45 358.558 1070.86C359.284 1057.58 358.171 1041.52 357.871 1028.22C357.076 996.694 356.776 965.153 356.973 933.618C357.04 900.212 357.358 871.492 363.02 837.604C366.843 814.728 386.543 792.565 397.609 824.771C401.959 837.428 402.359 871.949 403.068 886.488ZM564.393 750.226C570.24 738.502 563.649 718.734 578.564 713.95C598.399 707.594 615.661 741.841 613.229 701.226C610.614 657.674 601.635 613.568 586.617 572.384C585.258 568.615 583.398 564.796 580.485 562.093C574.371 559.762 561.36 568.421 553.765 568.559C525.54 569.074 499.184 568.347 473.598 554.72C467.46 551.451 458.057 544.534 451.477 543.318C449.518 546.428 449.048 548.781 449.485 552.502C452.408 577.374 453.903 602.061 454.878 627.126C455.754 649.643 455.903 672.976 456.413 695.541C456.49 698.984 466.965 709.892 469.046 713.365C477.666 725.857 488.238 745.126 498.437 755.93L499.869 756.356C501.271 755.509 501.411 755.022 501.821 753.413C503.178 748.087 501.844 740.659 501.716 735.101C501.536 727.247 501.659 700.623 508.414 696.357C510.018 695.346 512.166 695.029 514.005 695.462C522.156 697.381 552.769 754.693 564.393 750.226ZM573.811 545.459C580.826 542.473 591.194 537.947 594.224 530.393C595.101 528.202 595.083 525.835 594.016 523.715C585.556 506.909 513.001 482.887 492.355 476.944C474.781 471.886 448.969 466.48 430.674 468.258C423.895 468.909 412.668 469.186 415.856 478.94C422.802 500.196 446.242 520.512 463.916 532.172C492.354 550.934 523.14 557.793 556.295 550.736C562.271 549.468 568.13 547.703 573.811 545.459ZM194.625 555.761C189.074 566.994 166.359 586.11 171.552 599.693C177.615 605.047 184.119 605.618 192.006 605.173C224.734 603.323 252.626 580.374 273.344 556.881C279.979 549.358 315.306 504.908 314.998 498.874C314.947 497.873 314.573 497.676 313.984 496.92L312.638 496.731C288.451 502.678 263.743 508.986 239.277 513.659C229.213 515.584 219.123 517.374 209.01 519.027C204.203 519.793 190.697 520.528 187.572 524.448C186.965 525.21 186.942 526.369 187.165 527.342C193.409 537.843 194.572 542.988 194.625 555.761ZM387.232 490.835C382.655 495.467 374.839 509.145 374.205 516.04C374.011 518.146 378.074 520.678 379.755 521.815C382.846 522.932 386.015 524.509 389.06 523.23C391.996 519.283 390.555 495.259 388.208 491.413L387.232 490.835ZM476.893 1137.56C479.133 1136.97 480.031 1136.95 481.569 1135.24C484.006 1123.68 444.194 1115.75 435.875 1112.58C435.425 1112.58 434.975 1112.58 434.524 1112.58C410.904 1130.32 464.297 1140.68 476.893 1137.56ZM155.729 528.475C152.603 529.233 148.943 531.745 150.225 535.157C153.868 544.855 163.946 548.06 172.882 547.786C175.606 546.981 179.9 544.822 178.01 541.223C174.204 533.972 163.467 529.472 155.729 528.475ZM341.974 1087.2C334.476 1090.48 308.996 1103.8 305.861 1110.45L306.167 1111.22C308.711 1111.83 311.423 1110.82 313.921 1109.98C321.043 1107.56 350.91 1098.04 352.147 1091.4C350.389 1087 346.196 1086.88 341.974 1087.2ZM613.588 536.585C610.419 540.232 608.426 545.583 606.414 550.1C609.382 560.907 611.522 565.872 623.45 567.481C629.247 566.754 630.88 562.355 629.887 557.009C628.077 547.247 622.731 540.398 613.588 536.585Z" fill="black"/>
<path d="M376.262 99.5638C381.365 98.5486 395.203 99.5059 400.602 100.737C414.369 103.875 419.048 106.817 426.514 117.975C426.775 128.523 425.183 138.909 424.744 149.426C424.357 158.699 422.885 213.759 426.791 219.438C429.17 222.895 440.501 224.715 444.513 225.876C454.704 228.823 466.914 232.628 473.851 241.123C476.972 244.944 478.563 249.668 477.966 254.606C476.066 270.331 457.931 272.035 449.903 278.737C449.558 279.025 449.141 279.413 448.846 279.757C445.938 283.137 448.665 286.913 450.588 289.972C461.025 306.576 464.367 324.935 462.5 344.361C459.435 376.253 446.122 409.77 420.813 430.477C406.416 442.256 389.003 447.7 370.471 445.88C355.987 443.663 338.129 435.158 328.065 424.477C302.093 396.914 298.604 349.484 311.491 315.305C313.085 311.077 323.659 289.553 323.541 287.51C323.513 287.016 323.506 287.073 323.168 286.808C318.364 283.038 308.663 282.445 302.703 280.9C294.626 278.807 287.152 275.992 280.409 270.992C276.292 267.94 272.865 264.004 272.193 258.755C268.268 228.084 333.814 221.72 336.334 217.904C341.925 209.44 324.819 136.679 342.265 114.512C350.125 104.525 364.241 100.996 376.262 99.5638ZM361.055 428.032C421.573 454.123 464.122 350.933 442.824 305.946C434.939 289.289 431.308 284.861 412.897 286.014C403.17 287.157 393.397 287.864 383.606 288.132C370.158 288.441 345.035 284.591 336.696 296.687C322.79 316.858 316.963 344.544 319.62 368.844C322.254 390.142 329.464 405.29 346.159 418.437C350.778 422.143 355.77 425.359 361.055 428.032ZM383.109 251.611C391.374 250.934 401.143 250.657 409.305 253.513C424.87 258.962 430.412 269.328 448.415 262.798C453.921 260.801 470.543 253.126 456.948 246.696C432.367 235.069 387.668 227.514 361.027 231.22C338.588 232.693 318.522 235.405 298.271 245.123C260.513 263.242 334.994 274.214 340.653 271.088C357.151 261.974 361.227 255.05 383.109 251.611ZM354.618 196.504C358.768 197.788 396.86 199.046 402.07 198.598C404.348 197.146 408.823 194.399 409.039 191.458C410.207 175.564 409.295 159.395 410.046 143.427C410.177 140.642 408.702 137.812 405.886 137.128L405.277 137.419C394.433 142.511 375.619 142.214 363.821 142.013C360.314 141.954 350.133 138.535 349.696 143.345C348.713 154.138 347.415 188.349 354.618 196.504ZM382.799 127.301C388.716 126.841 403.734 126.866 404.725 119.73C402.162 113.022 387.437 113.219 381.381 113.592C375.794 113.994 356.091 116.447 356.79 124.045C360.871 129.589 376.614 127.634 382.799 127.301ZM389.048 273.297C394.46 273.029 403.483 273.097 408.109 270.6L408.612 269.925C406.962 265.931 391.56 265.563 387.227 265.901C382.257 266.433 371.504 267.976 367.698 271.094L367.55 272.207C371.224 274.805 384.166 273.522 389.048 273.297ZM406.305 217.897L406.925 216.602C404.932 211.741 362.185 211.927 355.78 212.272C355.223 214.329 355.133 213.478 356.083 215.305C358.819 216.75 372.321 215.778 376.629 215.806C386.891 215.873 396.08 216.234 406.305 217.897Z" fill="black"/>
<path d="M400.779 320.627C413.284 319.395 427.052 327.755 413.511 339.205C401.1 345.228 391.684 328.101 400.779 320.627Z" fill="black"/>
<path d="M352.192 319.444C366.931 321.553 366.94 334.954 354.612 339.295C352.938 339.216 351.383 339.172 349.817 338.508C347.287 337.443 345.323 335.36 344.408 332.771C343.519 330.164 343.733 327.306 345.002 324.86C346.733 321.557 348.937 320.545 352.192 319.444Z" fill="black"/>
<path d="M57.2314 380.326C69.0891 379.585 79.8874 386.476 84.4204 397.464C93.2811 418.945 98.1981 442.676 103.755 465.215C112.996 502.696 120.905 540.593 127.722 578.583C128.766 584.453 132.226 603.388 128.359 608.053C126.204 610.655 123.134 611.13 120.027 611.599C117.801 610.758 115.552 609.869 113.957 608.008C103.424 595.707 52.7496 431.056 47.2163 403.698C45.9357 397.367 45.996 391.125 46.2075 384.711C49.6769 382.388 53.2695 381.534 57.2314 380.326ZM104.234 536.466C103.347 528.98 101.188 520.374 99.5098 512.973C92.1571 480.544 85.2347 447.837 75.7048 415.97C73.8476 409.759 71.6966 403.869 64.414 403.874C64.1306 408.713 64.8913 413.026 66.0183 417.707C68.919 429.756 99.3464 531.429 103.571 535.9C103.913 536.263 103.892 536.227 104.234 536.466Z" fill="black"/>
</g>
<defs>
<clipPath id="clip0_2103_10125">
<rect width="772" height="1248" fill="white"/>
</clipPath>
</defs>
</svg>
