<svg width="772" height="1025" viewBox="0 0 772 1025" fill="none" xmlns="http://www.w3.org/2000/svg">
<g clip-path="url(#clip0_2091_9526)">
<path d="M171.362 274.097C169.304 269.873 166.539 266.121 165.64 261.671C165.299 259.98 164.918 259.319 163.713 258.616L163.107 259.301C162.896 264.673 158.427 273.906 155.877 278.612C154.135 281.825 151.714 285.584 147.936 286.451C138.652 288.582 140.786 279.724 136.506 276.994C136.038 276.962 135.499 276.925 134.889 276.884C131.438 282.817 129.407 290.256 123.598 294.53C122.104 295.63 120.445 295.662 118.752 295.262C116.514 293.326 110.833 280.16 109.388 276.633C101.735 257.959 104.433 237.574 112.402 219.513C115.544 212.391 119.121 210.864 124.986 206.374C144.755 186.854 169.825 175.005 195.648 165.753C202.846 163.174 214.662 163.404 222.435 160.506L223.18 160.791C223.979 161.103 224.115 161.132 224.711 161.777C228.038 162.275 244.636 162.663 248.02 162.117C262.891 162.925 284.047 176.962 290.148 190.435C300.714 213.763 300.478 245.674 301.653 271.014C302.782 295.383 303.853 318.554 304.022 342.792C304.073 350.129 306.45 358.523 306.935 365.926C309.266 399.991 316.327 456.378 353.584 469.922C378.294 478.904 413.049 467.889 439.191 467.895C452.84 467.9 467.171 467.191 480.916 468.064C483.391 468.223 487.704 470.543 490.371 470.83C527.08 476.479 548.838 483.609 578.014 454.952C616.044 417.594 628.123 365.917 654.005 320.823C668.194 296.744 684.082 274.562 706.74 257.535C710.274 254.878 744.08 226.184 748.458 238.676C750.181 243.599 737.134 255.976 733.079 261.333C729.82 265.631 723.303 273.189 721.199 279.522C720.753 280.589 721.978 282.172 722.465 283.042C721.187 285.373 717.372 286.099 714.752 286.905C703.493 301.214 693.841 338.824 692.124 357.429C691.555 368.674 691.502 380.683 689.767 391.755C677.091 472.805 647.048 565.441 567.713 603.797C563.007 606.076 561.175 608.52 555.663 610.324C558.804 625.869 561.485 639.844 562.737 655.729C563.725 668.273 562.076 682.043 562.888 693.92C564.238 713.678 570.979 727.488 564.562 747.879C555.517 752.49 553.115 759.773 547.272 763.096C534.739 770.221 513.284 783.076 498.598 777.744C491.527 775.178 503.602 758.49 506.567 755.789C511.211 751.553 519.86 745.723 522.724 740.531L523.049 739.934C514.802 726.896 510.137 713.836 504.753 699.586C499.69 707.678 495.165 706.963 499.965 717.076C511.871 742.16 499.087 757.365 474.502 762.996C459.21 766.494 435.203 773.074 420.663 767.584L420.748 767.771C419.684 765.943 418.404 764.525 418.662 762.451C419.61 754.822 430.203 750.861 435.604 748.102C445.316 743.145 454.236 739.412 462.486 732.604C461.351 727.775 457.373 721.471 456.447 716.965C455.298 711.381 454.955 703.213 454.351 697.406C453.852 692.619 452.436 686.484 452.152 682.137C451.356 670.828 451.189 661.418 455.05 650.578C456.905 645.381 456.425 646.002 459.34 641.18C458.369 640.582 457.181 640.535 456.07 640.758C435.401 644.895 411.16 648.973 390.101 648.299L389.474 648.275C389.567 663.428 392.139 677.01 391.949 691.863C385.178 701.818 384.053 747.082 384.317 760.553C379.153 765.199 373.239 767.18 365.609 766.764C356.101 766.248 313.316 766.213 307.952 758.49C298.585 744.996 338.515 737.162 344.753 732.065C346.021 731.033 340.531 721.74 340.388 720.1C339.68 717.322 339.636 714.943 338.715 712.242C326.973 688.857 331.717 669.58 332.205 644.426C321.814 639.938 310.063 638.479 299.713 632.115C295.966 629.807 288.09 625.693 284.261 624.738C279.931 638.104 284.525 654.352 287.386 667.904C288.536 673.359 291.706 680.32 292.223 686.068C293.067 695.443 290.643 701.074 293.261 710.52C283.961 725.502 274.697 729.287 260.324 738.674C257.729 740.367 253.688 742.096 251.681 744.305C255.962 746.15 296.938 734.748 299.973 728.479C301.811 724.676 308.801 705.023 307.044 701.52C299.638 686.748 299.692 667.775 307.622 653.092C309.271 650.01 314.462 646.758 318.26 649.354C319.859 654.475 315.244 663.586 315.059 670.336C314.757 681.287 315.774 682.295 318.696 692.473C322.974 707.361 315.533 720.504 310.729 733.236C302.799 737.291 295.721 743.947 286.829 747C279.584 749.484 226.236 767.783 229.252 750.299C230.854 741.012 271.881 723.363 278.924 714.873C279.288 714.428 279.052 709.465 279.151 708.703C280.697 696.809 278.509 686.139 274.706 674.93C270.285 662.297 269.65 648.568 269.767 635.262C269.792 632.373 274.118 621.668 275.202 617.736C274.748 616.969 257.309 597.967 256.337 597.182C255.697 594.545 254.36 591.568 253.015 589.049C247.739 579.17 244.466 567.879 240.496 557.566C237.94 550.928 237.716 529.975 235.843 525.662L234.952 526.986C233.197 521.197 234.784 482.355 234.459 473.186C234.179 465.287 234.206 453.118 234.217 444.885C233.736 442.424 236.247 439.923 236.225 437.94C236.07 423.819 238.127 410.209 239.636 396.234C240.179 391.211 239.697 385.587 240.127 380.469C240.548 375.462 241.294 370.528 242.336 365.607C242.454 365.019 243.524 364.55 244.105 364.17C245.585 351.073 249.022 336.918 249.82 324.128C250.822 308.073 249.593 287.991 248.215 271.829C247.448 262.829 248.709 256.073 245.776 247.362C240.499 254.877 231.591 268.078 226.31 251.63C223.73 255.009 222.368 257.387 217.965 258.598C211.978 257.597 214.802 252.646 212.623 250.692C211.073 255.911 210.256 258.27 207.99 263.307C206.547 264.149 201.469 267.275 200.264 267.264C195.954 267.223 192.418 258.132 189.51 257.62C188.861 260.937 185.032 266.617 183.414 271.67C176.851 274.607 178.501 278.234 171.362 274.097ZM246.567 500.813C246.148 502.945 247.016 503.508 247.187 505.518C248.184 535.711 257.279 574.559 277.333 597.896C290.212 612.891 306.528 621.393 324.911 627.557C329.031 628.934 331.951 630.562 336.493 630.932C337.488 628.811 338.487 626.607 340.013 624.809C342.369 622.037 345.987 618.703 349.746 618.34C350.886 618.738 351.636 619.061 352.252 620.18C353.958 623.279 349.392 629.18 348.333 632.25C346.232 638.326 345.618 645.527 344.931 651.92C344.302 657.773 343.117 663.703 343.252 669.604C343.731 690.592 354.682 717.814 364.092 736.412C361.362 738.949 358.958 741.873 356.492 744.662C354.159 745.67 352.448 744.48 350.067 744.621C346.075 744.855 327.087 748.283 324.973 750.545C326.628 751.781 329.323 751.629 331.38 752.039C346.525 755.086 354.485 756.041 370.001 756.334C372.894 748.055 371.257 739.377 372.101 730.828C372.803 723.715 372.932 716.215 373.986 709.195C375.157 701.397 377.69 693.475 378.21 685.6C378.791 676.816 377.641 667.43 377.462 658.594C377.376 654.316 376.094 630.674 378.803 628.236C380.969 626.291 384.841 624.316 387.792 624.604C391.523 626.918 389.8 631.5 391.309 635.191C394.893 637.693 409.41 635.461 414.259 634.951C421.425 634.195 428.647 634.6 435.823 634.125C443.672 633.604 452.677 631.787 460.367 630.029C462.976 629.432 464.918 627.557 467.391 626.959C472.473 625.717 477.995 626.373 483.137 625.002C490.752 622.969 506.434 615.867 514.107 617.871C515.353 618.199 515.45 618.375 516.112 619.459C515.295 623.619 510.655 626.953 508.239 630.357C505.381 657.715 512.023 679.723 522.492 704.572C525.09 710.742 527.336 717 530.126 723.1C532.85 729.053 538.455 734.73 539.659 741.117C540.058 743.238 539.932 745.734 538.521 747.48C535.365 751.377 531.607 749.479 527.615 750.211C524.355 750.803 514.053 761.801 511.84 764.947L512.056 765.99C513.235 766.488 514.099 766.465 515.366 766.295C518.879 765.814 523.289 764.818 526.569 763.482C533.806 760.523 547.523 751.869 551.928 745.594C558.588 736.107 549.95 708.182 548.914 697.33C548.395 691.898 550.011 686.602 550.018 681.188C550.023 676.529 549.187 671.836 548.963 667.172C548.66 660.891 548.829 654.633 548.309 648.352C547 632.514 541.868 616.992 539.571 601.236C541.068 598.529 542.621 595.008 545.582 593.619C550.901 591.135 552.547 599.197 556.49 600.381C561.796 599.18 580.674 586.535 585.65 582.563C627.502 549.135 650.137 500.695 664.05 450.11C666.143 442.502 668.487 435.206 670.011 427.436C670.749 423.675 670.995 419.88 671.611 416.111C671.956 414.031 673.463 412.72 673.791 410.642C675.356 400.66 677.061 390.272 677.882 380.204C678.321 374.757 678.919 369.261 679.089 363.8C679.253 358.777 678.96 353.615 679.593 348.623C680.203 343.82 681.732 338.849 682.84 334.128C685.636 322.182 688.783 311.417 693.6 300.118C697.51 290.942 706.576 278.591 707.713 269.201C691.49 285.227 677.577 303.432 666.371 323.291C639.136 371.779 627.625 423.571 585.263 462.779C536.077 508.301 501.881 478.143 447.369 477.832C386.543 478.6 325.109 509.303 302.272 428.5C289.858 384.575 292.267 339.503 288.957 294.449C288.192 284.024 289.834 273.523 288.164 263.177C285.633 247.485 288.956 226.928 281.513 212.208C279.575 205.027 279.427 200.96 275.088 195.004C242.351 150.052 175.951 179.913 139.44 204.06C136.913 205.731 133.67 208.571 129.996 210.386L129.402 210.672C124.474 218.894 120.739 227.294 118.611 236.742C117.858 240.09 116.661 252.294 118.567 255.133C121.397 254.064 125.028 252.622 127.931 251.847C149.105 246.193 170.378 240.898 191.581 235.372C196.016 234.302 200.758 234.087 205.159 232.928C210.873 231.422 216.357 229.654 222.084 228.063C229.832 225.911 237.605 225.717 245.583 225.571C247.649 225.534 252.151 225.228 253.345 227.35C264.664 247.47 261.825 271.225 263.219 293.375C263.612 299.603 265.188 305.753 265.127 312.028C264.83 315.285 262.822 318.503 262.496 321.746C260.566 340.992 254.882 359.538 253.869 378.865C253.558 384.803 253.096 391.046 252.59 396.964C251.854 405.56 250.001 414.138 249.352 422.777C247.949 441.258 247.059 459.773 246.683 478.301C246.521 485.795 246.815 493.412 246.567 500.813ZM149.527 256.348C147.982 257.089 147.133 257.188 146.378 258.837C146.509 262.27 147.636 266.234 149.119 269.342C150.961 266.248 153.385 261.365 152.465 257.668C152.353 257.218 152.285 257.121 152.087 256.658C151.219 256.499 150.413 256.329 149.527 256.348ZM490.774 744.451C490.98 741.457 491.41 738.129 490.843 735.17C489.131 726.229 480.05 711.17 488.402 703.096C494.152 697.535 494.519 702.281 495.208 692.004C496.044 679.553 494.358 667.787 493.897 655.453C493.624 648.147 494.444 640.688 493.79 633.439C493.352 633.006 493.318 632.789 492.681 632.731C485.698 634.002 473.77 635.953 467.987 639.914C467.837 640.893 467.862 641.525 468.006 642.498C468.693 647.156 465.529 662.854 465.337 669.229C465 680.42 468.42 690.674 466.984 702.352C470.825 708.041 470.277 714.779 472.93 720.891C474.106 723.598 477.472 726.205 477.79 728.953C476.369 733.822 472.756 735.943 470.496 740.174C465.563 742.453 461.153 745.365 456.355 747.844C451.736 750.234 446.431 752.268 442.141 755.162L440.93 757.008C442.036 758.033 444.277 757.875 445.76 757.811C458.098 757.307 480.95 751.811 490.774 744.451Z" fill="black"/>
<path d="M239.129 186.129C240.593 185.891 242.008 185.939 243.406 186.49C245.652 187.375 247.266 188.862 248.197 191.103C249.359 193.903 249.192 197.318 247.927 200.054C246.689 202.729 244.198 205.041 241.386 205.983C239.032 206.037 234.786 206.577 232.695 205.62C231.469 205.06 230.852 204.212 230.382 202.995C229.116 199.721 231.254 194.665 232.653 191.712C234.148 188.553 235.937 187.282 239.129 186.129Z" fill="black"/>
<path d="M131.697 221.973C132.29 221.959 132.943 221.921 133.527 222.031C134.968 222.3 135.766 223.098 136.466 224.347C137.874 226.861 137.343 230.254 136.416 232.844C135.257 236.084 133.594 237.779 130.476 239.224C129.099 239.158 127.804 239.012 126.451 238.746C125.211 237.601 124.598 236.37 124.241 234.707C123.622 231.823 124.717 228.096 126.428 225.692C128.151 223.27 128.806 222.544 131.697 221.973Z" fill="black"/>
<path d="M179.577 291.062C182.47 290.791 186.66 291.312 189.115 292.952C192.975 295.533 190.362 301.524 191.324 305.292C191.61 306.41 191.845 307.539 192.104 308.664C190.817 312.502 177.756 318.012 173.576 321.356C180.117 320.307 209.818 309.546 216.105 306.501C224.412 302.478 230.327 293.733 240.365 293.061L241.174 294.026C243.254 302.291 234.124 324.242 231.452 333.268C228.88 341.954 226.449 351.051 224.408 359.873C218.188 386.55 213.354 413.531 209.926 440.708C211.257 441.232 212.755 441.788 213.808 442.792C216.509 445.369 215.076 451.658 215.056 455.098C207.059 465.656 205.133 475.377 193.006 483.75C189.792 485.971 186.075 487.254 182.739 489.328L182.07 489.059C182.158 487.787 182.291 486.721 181.843 485.496C176.912 483.686 170.253 484.254 164.941 483.375C153.506 481.483 141.901 478.787 130.705 475.811C118.017 472.266 105.109 467.772 93.2078 462.117C68.678 450.474 47.6483 433.169 33.9464 409.596C31.3442 405.119 28.6148 400.665 26.886 395.765C22.5051 383.347 21.4952 368.623 27.2599 356.577C29.2268 355.465 30.4187 353.584 32.3079 352.433C36.2071 350.06 47.7374 347.392 52.4354 346.764C60.3235 345.71 68.5766 350.879 74.6443 355.424C78.026 351.988 83.633 350.467 88.0568 348.493C98.7563 343.72 109.666 340.614 121.131 338.265C125.77 337.314 130.839 337.29 135.223 335.425C140.88 333.018 145.322 328.61 150.099 324.856C155.298 320.77 160.925 316.722 166.786 313.648C169.659 312.141 173.266 312.415 176.459 312.333C173.083 310.982 168.884 311.922 166.136 309.19C165.384 306.814 164.333 304.279 165.145 301.79C166.883 296.452 175.086 293.574 179.577 291.062ZM152.202 351.141C152.478 357.92 152.638 361.334 147.552 366.937C142.73 372.342 135.946 375.593 128.712 375.968C123.231 376.198 119.261 374.915 114.712 371.982C114.596 365.558 114.61 364.07 116.257 357.714C117.612 356.453 125.799 349.342 126.16 348.69C116.726 346.814 89.3104 358.267 80.0937 363.029L80.6095 363.564C83.5035 366.589 85.8027 370.103 88.1834 373.478C99.8921 390.077 115.63 410.255 133.807 419.883C143.094 424.802 188.506 439.093 196.635 435.491C199.466 431.666 203.754 377.976 208.415 373.783L209.382 370.89C210.301 366.533 211.433 363.495 210.454 359.248C210.635 358.573 210.888 357.958 211.271 357.35C214.436 352.34 215.216 343.098 216.976 337.157C218.798 331.006 221.807 325.77 223.031 319.808L224.563 315.864C225.496 313.512 226.1 313.074 225.814 310.812C224.528 311.593 224.248 312.643 223.59 314.036C222.983 315.653 222.422 317.223 221.699 318.794C219.607 322.399 219.593 321.829 215.53 322.18C213.149 320.102 215.336 319.389 212.833 318.055C205.126 320.26 169.383 336.575 164.004 332.286C162.866 331.378 161.923 328.181 161.279 326.776C157.704 329.533 140.369 341.972 139.62 345.449C146.401 346.154 147.708 346.02 152.202 351.141ZM193.999 372.492C195.329 370.974 196.639 369.78 196.947 367.706C195.845 365.139 193.98 364.25 191.607 362.901C188.807 362.848 185.977 362.711 183.185 362.951C182.267 366.24 181.898 369.552 181.496 372.932C183.703 373.816 185.902 374.742 188.153 375.509L193.999 372.492ZM126.854 364.525C129.254 364.658 133.379 365.401 135.468 364.301C137.346 363.302 138.345 362.943 139.512 361.106C139.494 359.935 139.603 359.639 138.698 358.777C136.441 356.627 133.078 357.061 130.246 357.25C129.054 359.654 127.907 362.057 126.854 364.525ZM208.819 366.265C208.15 367.81 206.696 370.954 206.255 372.411C200.801 383.48 188.627 388.892 176.301 386.353C171.247 385.312 169.85 382.496 167.523 378.231C168.002 364.789 170.522 360.249 179.343 351.015C183.521 350.226 185.879 349.311 189.441 347.089C200.172 353.146 201.104 346.746 209.898 359.849C209.694 361.875 209.612 364.471 208.819 366.265ZM38.3702 359.128C34.9848 365.517 38.1411 380.189 40.1633 386.895C41.4934 391.307 43.6799 395.363 45.8572 399.4C57.4446 420.885 76.0796 437.007 97.5947 448.239C118.763 459.287 161.198 473.344 185.047 473.613C185.758 471.188 186.44 468.75 187.093 466.307C187.852 461.133 192.586 456.23 195.22 451.797C187.723 448.839 179.466 447.366 171.605 445.681C151.657 441.404 132.435 436.955 115.345 425.242C107.863 420.113 100.674 414.699 94.7293 407.799C84.5485 395.981 70.7709 371.803 58.5816 363.881C52.0392 359.63 45.9797 358.509 38.3702 359.128Z" fill="black"/>
<path d="M140.103 391.276C142.091 391.163 144.241 390.91 146.111 391.735C148.177 392.646 149.818 394.105 150.5 396.308C151.998 401.142 149.584 405.699 147.556 409.933C145.775 411.079 143.813 411.965 141.922 412.916C140.714 413.543 138.646 413.792 137.278 413.819C135.736 413.848 134.536 413.488 133.472 412.314C130.794 409.357 131.662 403.077 131.839 399.386C132.392 398.75 132.908 398.147 133.356 397.432C135.445 394.102 136.553 392.941 140.103 391.276Z" fill="black"/>
<path d="M179.343 351.015C183.521 350.225 185.879 349.311 189.441 347.088C200.172 353.145 201.104 346.745 209.898 359.848C209.694 361.874 209.612 364.47 208.819 366.264C208.15 367.809 206.696 370.953 206.255 372.411C200.801 383.479 188.627 388.891 176.301 386.352C171.247 385.311 169.85 382.495 167.523 378.23C168.002 364.788 170.522 360.249 179.343 351.015ZM181.496 372.931C183.703 373.815 185.902 374.741 188.153 375.509L193.999 372.491C195.329 370.974 196.639 369.779 196.947 367.706C195.845 365.138 193.98 364.249 191.607 362.9C188.807 362.847 185.977 362.711 183.185 362.95C182.267 366.239 181.898 369.551 181.496 372.931Z" fill="black"/>
<path d="M210.454 359.248C211.432 363.495 210.301 366.533 209.382 370.89L208.818 366.265C209.611 364.471 209.694 361.875 209.898 359.849L210.454 359.248Z" fill="black" fill-opacity="0.494118"/>
<path d="M208.819 366.265L209.383 370.89L208.416 373.783L206.255 372.412C206.697 370.954 208.15 367.81 208.819 366.265Z" fill="black" fill-opacity="0.0392157"/>
<path d="M223.59 314.036L224.562 315.864L223.03 319.808L221.698 318.793C222.421 317.222 222.982 315.653 223.59 314.036Z" fill="black" fill-opacity="0.180392"/>
<path d="M223.591 314.036C224.248 312.644 224.529 311.593 225.815 310.812C226.101 313.074 225.497 313.512 224.563 315.865L223.591 314.036Z" fill="black" fill-opacity="0.403922"/>
<path d="M222.436 160.505C225.06 158.296 236.172 159.522 239.914 159.631C243.984 159.75 244.82 160.989 248.021 162.117C244.637 162.663 228.039 162.275 224.712 161.776C224.116 161.131 223.979 161.103 223.18 160.79L222.436 160.505Z" fill="black" fill-opacity="0.972549"/>
</g>
<defs>
<clipPath id="clip0_2091_9526">
<rect width="771.583" height="1024.1" fill="white"/>
</clipPath>
</defs>
</svg>
