<svg width="772" height="1248" viewBox="0 0 772 1248" fill="none" xmlns="http://www.w3.org/2000/svg">
<g clip-path="url(#clip0_2099_9956)">
<path d="M453.507 563.302C458.012 563.128 462.504 563.893 466.696 565.549C475.022 568.833 482.757 576.624 485.918 584.961C501.195 625.255 466.256 659.789 446.473 690.928C440.116 700.94 437.236 707.107 433.046 717.734C436.917 723.639 440.327 732.39 432.806 737.789C429.51 740.153 424.859 738.453 423.087 734.852C420.356 729.306 422.349 723.115 423.918 717.503C420.298 712.274 414.783 707.07 410.242 702.579C387.061 677.777 350.683 652.458 348.796 614.616C348.441 604.9 351.9 593.567 360.674 588.13C379.366 576.546 394.899 588.355 404.841 603.337C407.548 597.834 410.866 592.653 414.731 587.89C424.861 575.184 436.788 565.186 453.507 563.302ZM399.147 610.874C396.46 604.373 389.476 595.101 382.998 593.294C354.152 585.248 352.549 617.809 362.497 635.938C369.683 649.039 375.552 656.193 384.581 666.218C397.623 679.831 416.769 696.193 427.718 709.672C431.725 701.171 435.393 693.213 440.695 685.078C457.956 658.6 490.733 625.335 479.451 590.796C477.034 583.397 472.046 576.8 464.912 573.459C461.147 571.663 456.983 570.866 452.82 571.142C431.828 575.092 416.495 594.753 408.256 613.568C406.022 618.668 406.961 637.132 396.962 633.464C391.76 629.198 397.551 616.505 399.147 610.874Z" fill="black"/>
<path d="M490.958 709.136L491.678 710.214C491.24 718.642 490.921 732.706 487.262 740.287C486.077 742.737 485.06 742.792 482.895 743.401C478.148 735.613 484.836 715.607 490.958 709.136Z" fill="black"/>
<path d="M532.884 642.135L534.282 642.366L534.402 643.073C528.241 649.137 517.252 679.52 511.996 688.703L510.792 688.173C507.911 681.494 524.223 651.056 528.918 644.792C529.664 643.798 531.697 642.72 532.884 642.135Z" fill="black"/>
<path d="M377.748 258.634C399.15 255.417 418.635 268.28 424.719 288.931C450.833 262.734 498.994 243.346 508.874 295.324C509.141 295.025 509.412 294.728 509.686 294.435C519.131 284.287 533.956 278.929 547.246 284.025C569.008 292.37 581.663 318.07 582.193 340.256C590.519 336.415 599.217 333.702 608.263 336.363C636.404 344.65 633.308 378.939 627.14 400.59L627.573 400.651C658.018 405.218 653.088 444.248 643.677 465.29C672.269 469.097 673.574 500.28 662.889 521.604C664.693 523.624 666.278 525.832 667.606 528.189C673.366 538.373 671.52 551.93 665.607 561.543C650.369 586.327 627.689 607.639 607.562 628.461C560.519 677.132 514.891 728.063 487.297 790.683C486.691 792.054 480.892 794.784 481.019 797.337C476.462 818.811 468.327 843.149 441.446 841.352C420.158 838.207 408.855 818.732 399.305 801.438C391.043 799.634 381.716 787.129 374.954 781.353C367.044 774.589 359.196 767.769 350.854 761.475C349.018 760.091 347.173 758.623 345.173 757.496C344.209 756.942 338.151 756.186 337.793 755.448C336.991 753.742 336.195 750.568 334.607 749.471C310.37 732.701 282.353 720.634 255.246 709.525C225.945 697.49 196.507 687.009 169.667 669.654C152.175 658.344 126.776 637.096 130.856 613.379C132.371 604.573 137.694 598.381 144.996 593.55C144.627 593.203 144.266 592.849 143.911 592.487C127.525 575.776 117.729 538.917 136.547 520.683C136.035 515.028 135.917 511.603 137.099 506.071C128.666 487.031 122.54 461.576 144.545 449.335C131.149 418.757 144.229 379.646 183.144 385.444C179.341 363.621 183.682 340.296 210.988 338.238C217.341 337.759 223.697 339.881 229.604 342.117C230.841 337.654 232.587 333.346 234.807 329.281C251.222 299.286 282.592 289.7 312.655 306.547C320.174 277.348 349.584 261.543 377.748 258.634ZM472.772 796.009C455.781 799.537 427.206 804.332 409.64 803.814C413.38 809.634 417.785 816.678 422.293 821.846C428.323 828.11 434.955 833.71 444.186 833.783C462.545 833.923 470.887 812.261 472.902 797.051C472.954 796.667 472.852 796.38 472.772 796.009ZM474.506 787.173C470.717 781.073 450.253 781.53 443.513 781.975C428.633 784.674 417.619 787.453 404.703 795.984C415.048 795.777 424.879 795.752 435.148 794.217C440.926 793.607 471.866 789.915 474.506 787.173ZM418.037 294.327C409.248 242.759 320.182 270.697 320.681 312.459C320.723 316.009 328.742 329.842 330.423 334.069C344.079 368.423 355.994 406.688 363.107 442.978C363.664 445.205 365.12 451.67 365.989 453.413C369.843 477.659 374.212 499.243 377.735 524.009C375.26 520.122 365.627 479.31 363.771 471.941C363.661 469.112 362.951 466.865 362.235 464.136C354.991 434.377 347.428 403.691 337.155 374.716C335.357 370.26 332.304 366.269 330.118 362.023C325.159 352.389 321.955 342.046 318.362 331.871C315.155 323.475 314.959 316.908 306.562 311.994C283.771 298.66 255.727 308.122 242.813 330.406C239.614 335.927 237.669 341.224 236.005 347.339L236.117 347.45C238.547 349.869 240.752 352.063 240.657 355.746C240.565 359.347 238.961 361.837 235.31 361.999C229.812 360.421 229.211 354.783 228.698 349.849C220.536 347.077 209.228 343.822 201.471 348.229C177.438 361.886 194.972 399.395 203.807 416.354C217.829 443.266 233.248 465.257 249.348 490.483C255.187 499.698 266.391 515.608 270.669 524.968C263.37 518.68 254.469 506.736 248.55 498.748C229.736 473.36 211.228 446.921 196.53 418.922C192.247 410.762 188.939 401.946 184.885 393.564C176.438 392.065 167.675 391.204 159.961 396.556C145.973 406.261 144.471 431 151.225 445.263C153.06 449.139 156.151 447.812 155.247 453.756C155.147 454.401 155.036 455.045 154.918 455.688C157.799 459.046 167.731 464.585 172.092 467.275C181.193 472.89 200.333 488.491 202.415 498.971C201.891 501.207 202.399 500.453 200.496 501.784C197.687 501.752 176.063 485.037 174.751 482.463C167.289 467.816 157.448 468.568 145.637 458.722C139.644 458.678 137.25 471.232 137.228 475.832C137.174 486.806 141.348 496.971 145.941 506.731C182.975 522.841 240.952 594.116 263.413 629.089C253.635 621.52 243.676 608.848 235.376 599.623C213.966 575.829 174.294 527.581 144.845 515.205C145.1 531.261 128.529 531.752 135.329 559.057C143.748 592.862 164.822 598.245 191.062 616.48C207.91 628.089 271.136 676.875 276.655 693.469L276.296 693.956C271.464 691.391 249.697 671.83 244.008 667.016C227.862 653.238 211.141 640.136 193.893 627.76C185.25 621.581 175.85 614.75 166.156 610.454C163.534 609.293 158.784 608.439 157.79 605.309C156.765 601.481 152.599 601.124 149.027 600.161C143.764 603.674 139.956 607.864 138.729 614.263C137.112 622.684 140.894 631.556 145.627 638.345C169.643 672.774 251.084 698.771 290.498 716.309C293.059 717.472 295.75 718.758 298.321 719.854C313.138 727.874 327.385 735.424 341.576 744.564C345.876 747.331 353.626 750.427 357.531 753.56C361.397 756.655 366.217 763.084 369.991 766.759C378.389 774.93 389.807 783.718 397.063 792.712C420.165 774.65 456.966 766.423 483.195 782.236C500.153 745.302 521.477 715.522 547.063 684.097C580.012 643.116 620.74 608.765 653.088 567.405C662.7 555.113 667.765 541.799 658.098 528.31C643.097 545.392 626.786 561.107 610.323 576.765C603.582 583.176 590.246 596.672 582.804 601.717C586.912 590.688 598.517 580.921 606.66 572.47C619.917 558.71 633.876 545.408 646.353 530.916C655.331 520.488 662.81 509.101 661.469 494.742C660.89 484.391 653.965 472.388 642.342 472.705C636.984 472.851 637.599 485.856 631.607 487.029L629.657 485.646C625.847 486.39 589.167 550.345 576.559 559.221L575.891 559.686C578.44 553.319 585.851 541.525 589.636 535.215C599.48 518.648 609.732 502.328 620.387 486.27C632.851 467.843 645.523 454.267 643.226 429.86C642.348 420.581 637.35 408.415 626.366 408.146C623.703 408.08 622.373 412.518 621.459 414.411C607.123 449.932 583.778 480.354 563.929 512.798C555.898 525.827 547.538 542.803 539.243 554.877C545.637 537.078 553.59 519.878 563.009 503.476C573.569 485.343 609.579 430.603 613.407 413.921C614.565 411.956 615.778 408.643 616.662 406.431C623.605 390.031 628.328 364.22 616.083 349.452C609.311 343.979 603.795 342.181 595.237 343.559C588.959 344.763 578.444 347.997 577.894 355.429C577.399 358.583 574.312 362.636 572.481 365.433C565.887 373.997 568.51 376.822 563.901 385.585C562.695 387.879 555.822 390.26 556.837 394.568C557.154 396.841 557.709 397.636 556.692 399.814C554.566 402.026 552.253 401.299 551.398 402.928C548.424 408.599 545.235 415.877 542.682 421.662C531.226 448.301 521.733 475.741 514.281 503.765C509.598 521.247 506.034 539.812 499.969 556.741C506.776 491.824 527.123 429.056 559.698 372.489C565.595 364.192 566.885 363.933 566.732 353.904C569.105 350.602 571.799 348.087 574.667 345.232C574.628 333.035 572.531 324.06 567.054 313.106C553.374 286.849 530.806 282.645 509.206 302.881C508.645 315.609 507.86 324.395 506.054 337.149C505.425 340.417 504.867 343.697 504.382 346.989C504.046 348.668 502.917 353.791 502.851 355.218C491.609 402.037 482.018 449.238 474.096 496.731C473.618 499.451 471.921 507.187 469.7 508.741C468.339 505.121 470.437 491.911 470.926 487.314C475.807 441.386 486.681 397.23 495.703 352.03C496.77 348.956 498.316 336.675 498.716 333.179C499.613 330.82 500.632 319.672 500.916 316.779C501.85 303.985 502.816 287.825 493.641 277.819C475.707 258.262 441.996 282.525 426.481 293.338C426.956 306.498 424.611 327.563 423.81 341.199L423.338 349.591C422.448 358.701 422.158 389.415 423.253 398.913L423.862 411.192C424.291 417.503 424.73 427.434 425.841 433.402L425.485 436.562L424.645 436.552C422.567 434.51 420.852 428.186 420.014 425.325C419.972 422.412 418.86 415.23 418.168 412.322C415.089 379.948 414.888 349.018 417.838 316.615C418.431 310.104 419.108 300.63 418.037 294.327ZM307.854 697.595C317.188 704.743 331.601 718.075 338.149 727.618C329.445 721.738 313.952 708.844 305.935 701.458C305.054 700.495 304.935 700.556 304.776 699.301L307.854 697.595ZM305.86 684.303C305.964 684.382 306.079 684.449 306.229 684.528C306.079 684.449 305.964 684.382 305.86 684.303ZM306.672 681.998H306.671H306.672ZM310.336 676.963H310.337H310.336ZM306.152 671.525L305.366 671.86L306.152 671.525ZM308.87 666.852H308.871H308.87ZM306.292 665.328C306.793 665.385 307.104 665.436 307.358 665.446C307.104 665.436 306.793 665.385 306.292 665.328ZM318.316 657.819V657.818V657.819ZM319.822 657.125C319.855 657.132 319.889 657.141 319.925 657.149C319.889 657.141 319.855 657.132 319.822 657.125ZM318.729 657.115C318.772 657.106 318.814 657.098 318.854 657.091C318.814 657.098 318.772 657.106 318.729 657.115ZM318.99 657.069C319.026 657.064 319.06 657.06 319.093 657.057C319.06 657.06 319.026 657.064 318.99 657.069ZM319.384 657.052C319.423 657.055 319.463 657.06 319.504 657.065C319.463 657.06 319.423 657.055 319.384 657.052ZM319.316 657.05C319.278 657.049 319.239 657.048 319.198 657.05C319.239 657.048 319.278 657.049 319.316 657.05ZM284.075 570.131C284.104 569.986 284.134 569.838 284.165 569.687C284.134 569.838 284.104 569.986 284.075 570.131ZM284.237 569.334C284.269 569.181 284.302 569.025 284.336 568.867C284.302 569.025 284.269 569.181 284.237 569.334ZM284.597 567.692C284.645 567.483 284.698 567.272 284.75 567.06C284.698 567.272 284.645 567.483 284.597 567.692ZM284.84 566.691C284.886 566.511 284.935 566.331 284.983 566.149C284.935 566.331 284.886 566.511 284.84 566.691ZM285.082 565.776C285.145 565.546 285.213 565.317 285.28 565.088C285.213 565.317 285.145 565.546 285.082 565.776ZM285.349 564.851C285.393 564.705 285.44 564.561 285.486 564.417C285.44 564.561 285.393 564.705 285.349 564.851ZM285.646 563.918C285.664 563.867 285.682 563.817 285.699 563.767C285.682 563.817 285.664 563.867 285.646 563.918ZM285.951 563.069C285.977 563.001 286.004 562.934 286.03 562.866C286.004 562.934 285.977 563.001 285.951 563.069ZM286.119 562.644C286.152 562.564 286.186 562.485 286.219 562.406C286.186 562.485 286.152 562.564 286.119 562.644ZM286.293 562.231C286.323 562.162 286.355 562.093 286.386 562.025C286.355 562.093 286.323 562.162 286.293 562.231ZM286.836 561.122C286.89 561.024 286.947 560.929 287.003 560.836C286.947 560.929 286.89 561.024 286.836 561.122ZM287.033 560.782C287.074 560.716 287.117 560.652 287.158 560.589C287.117 560.652 287.074 560.716 287.033 560.782ZM287.239 560.464C287.272 560.416 287.306 560.37 287.339 560.324C287.306 560.37 287.272 560.416 287.239 560.464ZM287.454 560.166C287.484 560.128 287.515 560.092 287.545 560.055C287.515 560.092 287.483 560.128 287.454 560.166ZM305.135 547.465H305.136H305.135ZM332.69 540.598C333.473 542.664 334.256 544.757 335.016 546.828C334.256 544.757 333.473 542.664 332.69 540.598ZM314.893 536.895C314.67 537.01 314.436 537.146 314.191 537.309H314.19C314.435 537.146 314.669 537.011 314.892 536.895H314.893ZM318.022 526.864H318.023H318.022ZM321.665 513.773H321.666H321.665ZM319.616 500.75H319.617H319.616ZM320.863 497.239H320.862H320.863ZM353.634 472.375H353.635H353.634ZM352.097 465.816H352.096H352.097ZM357.246 463.963C356.933 464.011 356.619 464.069 356.308 464.136C356.619 464.069 356.933 464.011 357.246 463.963ZM358.648 463.808H358.647H358.648ZM284.423 568.464C284.463 568.279 284.506 568.092 284.549 567.903C284.506 568.092 284.463 568.279 284.423 568.464ZM286.643 561.486C286.688 561.397 286.735 561.31 286.781 561.225C286.735 561.31 286.688 561.397 286.643 561.486ZM286.643 561.486C286.605 561.56 286.569 561.634 286.532 561.71C286.569 561.634 286.605 561.56 286.643 561.486Z" fill="black"/>
<path d="M274.203 446.708C271.899 444.207 269.188 441.168 267.163 438.471C261.223 430.555 234.123 388.107 243.677 380.387C244.739 380.216 245.417 380.247 246.422 380.681C265.037 388.702 309.567 485.63 318.945 507.167C319.659 509.032 322.792 516.86 323.959 518.284C327.205 526.52 342.146 563.298 341.976 570.268C340.61 569.642 327.284 541.889 325.52 538.003C325.012 535.679 322.082 528.992 320.754 526.934C306.265 493.553 290.174 460.892 272.537 429.062C265.503 416.47 256.603 400.265 247.412 389.356C252.934 409.867 265.844 427.497 274.203 446.708Z" fill="black"/>
<path d="M320.439 657.272C291.909 616.157 268.039 572.944 234.062 535.716C232.826 534.363 231.514 532.445 230.953 530.695L231.487 529.956C231.964 529.992 232.295 529.995 232.748 530.097C245.829 533.047 273.286 574.553 281.174 585.76C282.153 587.285 286.066 593.528 287.165 594.189C301.608 617.943 317.114 641.41 331.558 665.2C339.055 677.546 350.739 694.157 356.767 706.905C353.507 704.73 328.732 669.301 324.8 664.054C324.14 662.323 321.661 658.759 320.439 657.272Z" fill="black"/>
<path d="M305.934 701.458C305.053 700.495 304.934 700.556 304.775 699.3L307.853 697.594C317.187 704.742 331.6 718.075 338.149 727.618C329.445 721.738 313.951 708.843 305.934 701.458Z" fill="black"/>
</g>
<defs>
<clipPath id="clip0_2099_9956">
<rect width="772" height="1248" fill="white"/>
</clipPath>
</defs>
</svg>
