<svg width="772" height="1248" viewBox="0 0 772 1248" fill="none" xmlns="http://www.w3.org/2000/svg">
<g clip-path="url(#clip0_2103_10165)">
<path d="M556.851 292.384C557.983 292.453 559.781 292.565 560.685 292.932C569.225 298.914 558.865 318.826 562.805 327.528C564.952 332.267 572.991 327.352 574.843 332.078C573.971 340.943 560.777 341.853 553.409 343.119C552.984 343.513 552.638 343.832 552.369 344.357C548.634 351.632 544.643 432.347 543.614 446.199L535.267 559.661C534.078 577.719 532.296 595.884 532.122 614.043C532.005 626.297 532.876 639.551 533.41 651.818C534.231 670.715 532.819 702.311 539.531 719.684C543.924 722.414 550.298 719.642 553.345 724.285C553.963 731.439 550.336 729.587 545.015 731.403C539.878 736.85 548.996 736.96 549.047 743.73C547.018 747.679 543.172 748.404 539.03 749.873C540.203 766.277 542.972 781.664 544.259 797.928C545.08 808.306 543.688 820.664 543.27 831.261C543.06 841.322 543.82 851.529 543.319 861.571C542.96 868.36 542.031 875.282 541.897 882.071C541.916 894.77 537.375 907.201 536.885 919.882C535.621 952.563 531.296 985.53 534.182 1018.18C534.452 1026.37 531.655 1034.33 533.211 1042.47C534.324 1048.59 541.346 1051.43 546.523 1053.91C549.954 1054.95 563.846 1060.68 558.71 1066.16C552.187 1073.12 530.313 1073.81 521.873 1072.66C513.392 1071.51 507.318 1068.3 500.582 1064.11C494.168 1060.12 488.021 1057.28 482.092 1053.22C481.424 1057.69 482.801 1068.06 478.345 1070.38C473.681 1072.95 471.696 1067.86 471.604 1064.04C471.205 1047.46 465.495 1028.49 464.545 1012.51C462.565 979.187 464.883 944.915 465.691 911.534C465.881 903.691 465.112 895.794 465.168 887.945C465.723 869.597 466.218 851.005 465.883 832.656C465.802 828.159 465.9 821.163 464.964 816.928C463.695 815.6 463.195 815.374 461.61 814.387C460.044 811.749 458.261 775.978 458.085 770.11C458.013 767.691 461.605 763.645 461.115 755.692C460.1 755.016 440.16 757.063 437.271 757.331C399.425 760.854 361.376 761.707 323.41 759.879C323.547 763.968 324.33 768.629 324.998 772.7C326.658 782.797 328.455 792.98 330.316 803.041C335.193 829.433 339.13 855.648 341.745 882.351C342.195 886.933 343.468 891.455 343.95 896.037C345.302 910.565 345.284 925.269 346.353 939.803C347.605 956.835 349.577 973.836 350.917 990.862C351.891 1004.45 352.55 1019.51 355.636 1032.85C359.465 1043.71 369.954 1051.57 377.197 1060.03C379.813 1063.09 382.377 1067.39 378.38 1070L375.659 1069.31C375.484 1070.53 377.064 1071.48 378.303 1073.54C377.39 1078.2 373.03 1078.97 368.836 1079.28C361.398 1079.83 353.492 1080.59 346.077 1079.63C339.934 1078.83 333.839 1076.05 327.731 1074.86C318.721 1073 309.565 1071.94 300.613 1069.84C298.787 1079 300.725 1075.38 301.841 1082.71C300.783 1084.58 298.871 1085.42 296.958 1086.58C291.882 1086.59 283.172 1087.73 280.799 1082.41C281.018 1078.29 283.172 1076.97 286.182 1073.98L286.902 1066.94C288.89 1055.25 288.28 1041.92 288.125 1030.03C287.687 1024.27 288.839 1016.92 288.207 1011.32C286.548 996.603 286.852 982.928 288.019 968.218C288.493 962.24 287.242 954.745 287.316 948.596C286.822 942.709 287.733 936.061 287.1 930.242C285.577 916.244 284.783 902.168 283.794 888.158C283.323 881.473 281.334 874.331 280.606 867.634C277.811 841.913 273.688 816.496 268.452 791.17C266.934 783.845 268.106 770.701 265.059 763.389C265.039 763.34 254.079 761.963 253.383 760.348C250.346 757.593 244.198 745.095 242.021 743.925C239.876 744.839 238.009 746.192 235.725 745.735C230.03 741.829 235.177 728.331 232.631 721.415C228.506 710.208 223.826 699.362 220.376 687.887C215.957 673.195 213.026 658.418 209.925 643.427C205.068 619.942 200.588 596.301 198.677 572.362C197.164 553.416 197.133 534.781 196.603 515.842C195.998 494.193 195.215 472.4 195.544 450.728C195.767 436.116 196.172 421.161 197.436 406.611C197.994 400.199 199.492 393.832 199.866 387.413C199.968 385.649 199.962 384.062 199.42 382.359C194.795 378.85 161.351 386.074 167.285 372.131C170.487 370.456 194.959 372.348 199.129 373.147C200.316 371.645 202.002 369.788 203.281 368.303C203.71 365.521 204.133 361.724 203.468 359.045C200.852 348.502 199.765 346.869 211.124 343.643C231.5 337.854 251.109 328.574 271.706 323.509C288.668 319.617 306.328 317.168 323.532 314.812C337.788 312.992 352.067 309.814 366.513 311.496C373.419 312.301 379.455 311.007 386.124 311.12C407.82 311.49 429.552 310.104 451.219 311.362C462.643 312.025 472.179 308.429 483.346 307.076C497.889 305.34 512.314 304.712 526.574 301.057C529.423 300.326 532.895 299.804 535.784 300.359C538.822 300.942 539.099 303.441 540.528 305.77C543.821 306.285 546.662 306.04 548.392 309.019C548.509 310.741 548.294 314.567 545.99 314.956C536.066 316.63 525.859 317.382 515.828 318.187C481.303 320.971 446.676 322.294 412.04 322.155C398.146 321.995 384.14 322.526 370.366 321.107C361.58 320.171 352.773 320.269 344.059 321.316C308.073 325.641 272.928 329.683 239.113 343.672C231.143 346.969 222.144 349.391 213.867 352.817C214.615 363.675 216.759 365.461 220.663 374.481C246.627 373.783 270.868 370.894 296.703 369.299C316.679 368.064 337.148 367.736 357.127 366.349C363.135 365.932 371.677 364.35 377.908 363.564L441.017 355.128C468.834 351.447 494.842 350.197 521.538 341.068C528.356 338.737 537.129 337.705 544.402 335.523C545.897 322.434 549.928 303.657 556.851 292.384ZM221.137 383.56C224.732 412.734 228.64 441.868 232.861 470.957C236.259 493.057 241.009 516.245 242.205 538.519C243.55 563.582 244.77 588.433 245.148 613.525C245.436 632.635 246.421 650.63 244.637 669.88C243.841 678.472 246.968 690.111 246.136 699.026C245.969 708.076 242.899 720.379 246.174 728.392L248.241 734.2C258.328 735.376 261.329 738.24 271.883 738.1C283.967 718.77 300.483 720.141 318.621 728.453C320.763 729.434 320.909 734.638 323.243 735.388C348.077 741.25 384.381 733.34 409.621 731.311C430.993 729.593 451.122 727.039 471.328 726.034C475.234 720.665 482.517 714.645 483.87 725.486C494.476 725.973 510.132 725.254 519.813 728.197C521.484 726.991 523.421 725.516 525.116 724.407C524.269 714.907 522.761 705.376 521.496 695.919C520.78 690.562 519.56 685.864 519.561 680.434C521.637 677.113 521.914 677.083 524.623 674.408C525.512 653.476 522.341 631.483 523.037 610.356C523.956 582.472 527.1 554.293 528.808 526.577L534.292 448.832C535.166 436.599 534.951 424.028 536.484 411.922C538.361 397.092 539.306 382.326 539.996 367.402C540.162 363.806 543.005 347.697 541.642 345.688L540.361 345.706C534.228 347.391 526.186 348.686 520.45 350.833C494.891 360.399 467.164 359.493 440.928 364.241C421.079 367.833 402.33 369.25 382.758 372.138C350.307 376.925 319.155 376.946 286.537 378.814C269.705 380.039 252.873 382.247 236.02 383.16C232.49 383.357 224.41 383.936 221.137 383.56ZM463.743 736.046C460.829 736.162 447.517 737.155 445.892 736.576C439.327 738.124 359.786 746.314 358.629 745.711C358.061 745.412 357.52 744.973 357.009 744.589C353.715 745.887 355.518 746.509 351.6 746.71C348.18 746.887 344.6 746.479 341.275 746.674C335.814 746.99 329.912 744.687 326.669 749.976C327.697 751.055 335.92 750.921 338.376 751.116C361.815 750.677 385.582 752.469 409.092 750.787C424.236 749.708 439.467 747.898 454.615 746.655C457.596 746.411 460.613 745.814 463.573 745.759L463.743 736.046ZM484.507 734.273C481.534 735.54 475.688 739.696 473.738 742.225L473.355 743.876C475.771 745.028 509.067 741.396 515.066 741.36C518.072 741.14 523.423 741.012 526.02 739.989L525.711 739.306C514.722 735.266 503.673 735.004 492.13 735.101C489.412 735.12 487.043 735.339 484.507 734.273ZM298.993 739.903C301.825 739.806 306.801 739.958 309.113 738.599C308.801 736.826 307.447 736.009 305.821 734.864C304.419 733.895 303.004 732.938 301.578 732C299.701 731.969 295.456 731.774 293.769 731.896C287.522 733.907 285.567 736.076 280.752 740.385C285.025 740.348 295.275 740.525 298.993 739.903ZM281.334 752.572C291.731 752.639 301.531 752.365 311.935 751.451L312.652 750.726L312.437 749.245C311.873 749.233 311.594 749.135 311.16 749.336C307.212 749.544 281.852 750.671 280.204 752.499L281.334 752.572ZM523.5 1056.68C523.694 1055.09 522.144 1049.94 521.652 1048.07C519.036 1048.08 515.671 1047.99 513.158 1048.39L512.944 1049.09C516.416 1051.64 519.917 1054.29 523.5 1056.68ZM300.868 1057.74C309.314 1055.82 318.01 1053.69 326.701 1054.27C333.984 1056.3 336.519 1059.12 343.125 1062.37C346.492 1064.03 351.048 1065.57 354.654 1066.85C351.87 1057.63 349.363 1048.31 347.135 1038.94C344.85 1037.35 341.55 1035.33 340.05 1033.16C339.505 1028.81 341.235 1028.37 344.564 1026.13C341.862 997.383 339.437 968.614 337.285 939.827C336.603 929.864 336.688 916.305 335.591 906.86C330.775 865.38 325.18 824.21 317.288 783.169C316.438 778.745 315.274 764.815 313.023 761.567C312.048 760.153 308.397 760.854 306.597 760.89C301.521 761.262 281.219 761.682 278.254 763.547C277.532 767.008 280.378 769.866 280.184 772.346C278.854 789.36 282.984 802.815 287.166 818.897C288.13 822.602 284.55 828.281 285.482 832.175C286.804 844.204 288.615 856.178 290.029 868.189C290.701 873.899 292.731 881.522 293.116 886.982C293.744 895.873 293.948 904.971 294.555 913.947C294.863 918.499 296.408 923.971 296.502 927.384C296.651 932.777 296.205 939.242 296.321 944.946C296.472 952.435 297.144 960.241 297.054 967.627C296.969 974.586 295.637 982.136 295.623 989.174C295.609 996.316 296.875 1003.47 297.293 1010.51C297.6 1015.67 297.222 1022.49 297.045 1027.73C299.147 1028.75 300.767 1029.25 302.036 1031.15C303.65 1037.57 301.662 1050.61 300.868 1057.74ZM236.93 706.948C237.337 692.445 235.748 679.904 235.685 665.499C235.649 657.211 237.008 648.93 237.069 640.758C237.005 615.365 236.104 589.978 234.366 564.642C233.748 554.297 233.764 544.389 232.687 533.988C229.499 503.196 223.034 472.98 219.388 442.224C218.719 436.586 214.636 398.795 212.216 396.499C211.71 399.538 210.925 405.253 209.171 407.726L206.861 407.963C206.068 410.324 205.64 423.84 205.499 427.365C204.621 449.363 204.39 471.382 204.806 493.394C204.939 499.874 205.78 506.521 205.772 512.95C205.727 539.438 206.624 566.01 210.207 592.28C210.58 595.015 210.047 598.666 210.605 601.269C217.29 632.458 222.483 662.677 231.878 693.28C233.529 697.844 235.214 702.402 236.93 706.948ZM513.484 750.476C507.337 750.951 475.373 752.536 472.16 754.632C467.055 765.192 475.97 801.834 477.362 815.015C479.156 832.004 478.406 847.696 479.091 864.265L483.207 988.528C483.643 1004.34 483.22 1021.48 485.013 1037.19C485.327 1039.94 490.202 1040.78 492.511 1041.26C502.482 1041.51 510.722 1038.6 521.528 1038.2L522.036 1038.19C522.706 1034.08 524.972 1026.86 524.751 1023.27C522.542 987.462 526.491 952.039 528.118 916.275C528.578 906.19 531.352 895.989 532.18 885.928C533.031 874.99 534.358 863.777 534.284 852.814C534.21 841.815 533.454 831.109 534.595 820.097C537.03 796.581 531.168 773.346 529.934 749.794C524.514 750.068 518.831 750.11 513.484 750.476Z" fill="black"/>
<path d="M311.159 749.336C311.593 749.135 311.872 749.233 312.436 749.245L312.651 750.725L311.934 751.451C301.53 752.365 291.73 752.639 281.333 752.572L280.203 752.499C281.851 750.671 307.211 749.543 311.159 749.336Z" fill="black" fill-opacity="0.0117647"/>
<path d="M557.188 255.906C566.158 256.97 577.295 254.697 586.272 256.204C588.18 256.523 590.581 258.104 591.404 259.85C592.526 262.214 593.422 268.526 592.751 270.963C589.045 271.558 582.615 268.672 578.886 268.34C573.04 267.82 565.919 268.405 560.003 268.608C548.397 269.028 536.788 269.343 525.176 269.553C508.142 269.795 493.316 268.438 476.023 268.813C454.317 269.126 432.792 272.732 411.125 273.253C361.034 274.459 310.891 272.31 261.462 281.971C247.352 284.729 236.238 289.525 222.907 293.022C195.511 300.208 169.129 308.007 143.757 320.987C137.784 323.991 130.378 326.637 124.916 330.545C124.764 379.415 130 428.806 134.333 477.454C136.346 500.057 136.33 522.694 140.058 545.084C141.198 551.931 143.264 558.709 143.895 565.649C145.991 590.927 147.478 616.255 148.352 641.599C148.531 648.064 147.902 655.566 148.264 661.733C149 674.292 149.64 686.412 149.984 699.008C162.613 690.751 165.161 691.36 175.164 703.207C174.478 715.181 181.169 740.354 181.096 753.894C182.137 760.555 176.334 760.305 174.628 763.206C173.879 764.479 175.752 769.781 168.626 769.726C162.051 767.447 162.569 754.357 158.708 748.983C157.853 752.091 161.457 752.67 158.998 755.771C157.328 756.314 156.631 756.417 155.272 757.471C154.615 764.242 159.991 769.092 155.093 774.564C153.714 775.424 152.381 776.118 150.769 776.435C149.34 776.715 148.195 776.466 147.039 775.57C141.963 771.633 140.524 737.277 139.873 728.989C132.939 738.447 129.429 751.548 124.921 762.261C123.576 765.46 120.834 766.527 117.69 765.137C112.874 759.665 118.922 754.272 119.05 747.24C117.871 745.455 117.613 745.235 117.157 743.2C118.109 739.544 121.356 735.826 123.094 732.444C128.768 721.396 131.722 714.523 140.721 705.796C141.018 690.8 139.758 675.389 139.295 660.361C139.105 654.17 139.57 646.73 139.214 640.849C136.406 618.351 138.96 589.55 134.63 567.863C128.985 539.586 128.462 515.833 125.9 487.644C121.253 436.512 116.883 386.753 115.825 335.394C112.595 337.307 109.906 338.855 106.293 336.808C104.597 330.697 111.524 327.011 115.823 324.523C115.628 316.077 114.271 306.881 115.008 298.418C115.269 295.42 116.347 294.231 118.855 292.988C121.525 293.155 120.491 292.824 122.771 294.276C125.389 297.741 123.943 313.324 124.947 320.054C138.946 313.778 150.74 307.377 165.345 301.607C183.087 294.599 199.05 290.008 217.45 285.238C225.364 283.186 234.451 279.002 242.415 277.164C261.554 272.75 287.393 268.012 306.86 266.811C341.54 264.67 376.818 264.774 411.542 264.322C424.927 264.147 436.257 262.521 449.311 261.447C461.544 260.524 473.797 259.89 486.059 259.546C491.424 259.396 501.008 260.45 504.998 260.452C512.69 260.457 550.611 261.195 555.082 259.555C555.776 258.031 556.266 257.317 557.188 255.906ZM159.001 716.997C159.824 719.69 160.699 722.359 161.627 725.016C161.496 721.354 161.28 705.748 159.87 703.767C157.384 705.181 153.477 707.094 151.784 709.191C151.729 712.335 156.849 714.322 159.001 716.997ZM158.051 747.843C157.929 745.004 154.649 733.602 152.874 731.658C152.647 736.789 151.687 742.012 154.498 746.204C155.715 746.807 156.778 747.35 158.051 747.843Z" fill="black"/>
<path d="M581.457 274.042C584.724 274.384 587.284 275.657 587.509 279.152C588.192 289.797 589.832 299.954 591.849 310.387C592.922 315.933 592.172 323.476 592.825 329.237C594.97 348.047 596.488 366.873 600.425 385.411C602.114 393.55 601.041 401.982 601.34 410.263C601.553 416.066 603.473 422.976 603.424 428.6C603.29 444.718 603.857 460.785 603.729 476.902L603.083 514.476C603.01 519.269 602.748 524.493 602.784 529.237C602.809 532.313 604.753 535.676 604.905 539.638C605.795 562.841 606.082 585.977 606.204 609.189C606.228 613.482 607.685 617.967 607.788 621.508C607.752 625.798 606.1 630.642 606.551 634.92C608.063 649.295 608.453 663.756 609.574 678.143C610.458 689.557 611.031 700.897 611.025 712.347C611.025 713.109 609.135 718.825 608.788 720.263C611.89 726.594 620.692 717.856 621.411 732.304C621.899 742.079 623.819 755.333 628.817 763.821C630.475 766.63 624.081 769.415 623.386 771.39C621.752 775.089 622.246 779.257 616.937 779.988C609.739 776.502 612.415 751.792 607.983 742.956C605.533 744.309 604.668 765.698 603.077 769.525C601.998 772.115 599.481 773.62 597.079 774.711L596.451 774.997L596.183 776.496C593.495 784.491 589.795 797.008 586.095 803.955C581.518 811.578 568.74 799.768 580.567 792.541C584.34 790.231 592.794 748.483 593.141 742.304C591.983 743.09 588.722 745.229 588.046 746.198C585.236 750.232 584.907 758.507 577.504 755.119C570.137 746.606 585.577 733.669 594.324 732.28C596.616 723.359 597.262 717.85 597.865 708.581C598.194 702.018 600.188 694.334 600.206 687.857C600.175 671.452 598.682 655.109 597.542 638.765C597.158 633.324 598.115 626.986 597.841 621.441C596.573 596.085 596.768 570.685 595.866 545.315C595.701 540.783 593.751 536.262 593.471 531.729C593.69 491.231 596.524 450.627 592.648 410.23C591.764 401.017 592.892 392.945 590.825 383.551C587.845 370.002 587.089 355.552 584.864 341.829C583.31 332.254 583.541 322.473 582.566 312.854C581.225 301.777 578.348 290.655 578.655 279.372C578.754 276.155 579.383 275.942 581.457 274.042Z" fill="black"/>
</g>
<defs>
<clipPath id="clip0_2103_10165">
<rect width="772" height="1248" fill="white"/>
</clipPath>
</defs>
</svg>
