<svg width="772" height="1248" viewBox="0 0 772 1248" fill="none" xmlns="http://www.w3.org/2000/svg">
<g clip-path="url(#clip0_2110_10336)">
<path d="M374.699 118.714C375.292 118.8 375.275 118.783 375.782 118.901C378.077 119.44 389.877 132.157 391.066 134.838C394.071 141.613 395.285 150.78 397.205 158.028C400.809 171.624 404.923 185.187 409.104 198.617C423.604 245.193 448.878 301.63 474.896 343C479.811 342.765 486.507 341.979 490.456 345.308C491.691 348.947 487.87 351.058 484.979 352.209L484.275 352.484C482.516 355.187 485.718 365.62 477.861 364.326C475.113 366.017 475.596 367.106 473.109 369.304C470.814 370.04 469.265 369.706 466.901 369.46L471.116 445.153C478.033 450.37 491.449 468.292 498.431 475.184C499.434 471.032 499.437 467.264 503.955 466.159C510.602 467.937 506.903 479.825 506.039 485.102C510.191 490.167 531.335 512.237 513.865 512.34C511.303 512.355 507.943 506.255 502.976 506.683C501.138 512.891 505.418 527.321 499.903 531.659C497.976 532.228 497.739 532.228 495.782 531.766C493.987 530.643 493.336 528.162 492.461 526.049C487.862 565.461 491.02 587.359 494.015 626.56C496.665 661.233 500.404 698.588 501.703 733.145C507.138 733.097 516.253 732.597 518.752 738.746C517.728 745.552 507.736 744.205 502.624 744.041C508.01 840.56 511.106 937.188 511.911 1033.85C520.901 1034.14 577.585 1035.25 581.988 1038.64C583.311 1039.65 583.335 1040.53 583.567 1042.06C583.329 1042.87 583.128 1043.62 582.549 1044.28C577.635 1049.79 542.735 1050.45 533.465 1051.09C539.693 1052.93 560.912 1053.27 568.839 1054.1C605.814 1057.96 642.392 1063.94 679.244 1068.61C681.048 1068.84 682.809 1069.93 684.095 1071.17C684.973 1073.38 684.882 1072.43 684.455 1074.76C681.474 1079.32 671.759 1077.84 666.62 1077.93C658.063 1078.09 649.505 1078.36 640.953 1078.75C606.875 1080.07 572.816 1081.68 538.772 1083.58C524.18 1084.42 509.225 1085.16 494.651 1086.36C489.259 1086.8 491.056 1088.82 486.816 1089.91C484.225 1089.24 484.649 1089.04 482.494 1086.92C460.017 1087.45 432.451 1089.96 409.684 1091.41C351.886 1095.5 294.061 1099.2 236.212 1102.49C208.616 1104.16 113.059 1110.71 92.1046 1099.59C90.2065 1098.58 88.2883 1097.13 87.755 1094.93C87.399 1093.46 87.8781 1092.01 88.7674 1090.83C100.481 1075.34 212.601 1061.93 235.794 1057.73C236.599 1052.42 237.184 1049.58 238.639 1044.41C214.28 1044.42 189.758 1046.66 165.415 1047.55C159.812 1047.75 138.622 1050.06 134.337 1048.28C132.563 1046.42 133.121 1047.31 132.401 1044.58C133.234 1041.39 135.387 1039.96 138.739 1039.78C172.152 1037.97 205.717 1035.35 239.2 1035.02C240.465 1027.39 240.771 1009.75 241.186 1001.34L244.311 945.019L254.401 741.311C249.116 739.909 238.199 736.363 237.861 729.745C240.473 723.206 249.533 725.284 255.159 725.924C258.103 672.775 260.548 619.594 262.491 566.397L264.006 520.277C264.238 510.589 264.123 498.099 265.094 488.787C259.995 490.966 254.47 492.73 249.2 494.524C249.133 500.464 250.276 532.033 249.001 534.482C247.472 536.075 247.219 536.16 245.047 536.603C237.617 534.28 240.035 504.59 240.029 497.384C235.187 499.014 205.767 508.627 212.176 492.947C214.822 486.472 232.969 471.453 239.689 468.872C239.458 462.764 238.736 458.8 239.72 452.698C251.435 445.394 259.469 452.421 270.431 446.978C273.557 445.425 271.298 429.643 272.903 424.995C276.421 414.805 286.267 421.172 281.821 429.505C280.681 431.666 280.72 437.391 280.626 440.104C285.647 435.811 291.969 432.319 297.612 428.611C296.705 407.999 299.598 384.259 303.86 364.185C294.05 365.603 283.416 367.467 273.643 368.377C271.574 368.57 266.336 367.869 265.287 366.099C261.091 359.016 268.08 354.26 270.973 349.309C272.571 346.576 270.164 341.053 272.883 337.665C277.761 331.587 283.709 325.623 288.93 320.039C296.355 312.098 301.889 305.195 308.224 296.493C332.426 263.839 351.239 227.519 363.948 188.915C366.624 180.941 370.608 169.653 371.607 161.558C372.965 150.548 370.769 137.045 371.492 125.759C371.73 122.057 371.917 121.091 374.699 118.714ZM282.013 481.811C282.017 563.364 281.239 644.914 279.68 726.454C309.716 724.133 339.956 723.231 369.997 720.781L475.058 711.933C472.071 648.083 471.083 581.995 465.938 518.373C456.442 508.477 382.573 423.12 379.752 422.051C361.151 438.761 331.439 455.906 309.278 468.184C301.034 472.752 289.778 477.215 282.013 481.811ZM478.42 1033.45C480.697 1032.97 480.674 1033.38 481.903 1032C482.471 1026.96 482.035 1015.14 481.967 1009.67L481.059 959.9C480.597 916.701 479.808 873.503 478.693 830.316C477.895 802.742 476.043 771.341 476.008 744.053L440.895 744.096C435.568 759.166 435.719 773.833 432.868 789.305C432.299 792.395 430.513 793.9 427.436 794.022C425.253 793.09 424.231 792.182 423.422 789.689C420.155 779.622 418.084 754.906 418.798 744.504C409.124 744.522 397.015 744.87 387.558 744.461C386.529 753.346 386.011 778.574 383.57 784.443C381.51 785.454 382.428 785.271 380.066 785.058C372.196 780.469 370.865 752.81 370.28 744.163C355.661 744.01 341.277 743.237 326.82 743.023C322.32 756.582 322.069 768.489 320.935 782.468C320.787 784.296 319.349 786.374 317.727 787.349C316.434 787.41 314.82 787.489 313.911 786.332C307.007 777.551 307.817 751.335 306.541 741.701C297.42 740.763 288.347 740.464 279.251 739.592C278.106 806.374 276.466 873.143 274.331 939.9L272.33 997.675C272.004 1007.78 271.985 1021.81 271.047 1031.61C295.88 1032.37 320.725 1032.61 345.568 1032.34C345.282 997.638 347.992 964.257 348.045 930.034C344.763 930.04 338.141 930.534 335.833 927.944C330.82 922.32 338.476 916.762 343.994 916.537C357.849 915.976 372 916.634 385.88 916.488C397.229 916.366 408.228 917.128 419.493 915.525C421.883 916.5 425.218 917.609 426.914 919.413C428.036 922.972 426.913 923.703 424.575 926.22C424.447 929.937 426.394 943.623 426.734 948.663L429.694 992.751C430.444 1005.3 430.706 1021.62 433.785 1033.5C447.764 1033.22 464.474 1032.6 478.42 1033.45ZM317.126 343.592C360.508 345.9 405.073 342.39 449.006 342.41L446.367 335.916C439.586 319.633 433.179 303.196 427.153 286.619C424.118 278.306 418.141 257.898 414.03 251.89C417.138 265.686 420.125 279.51 422.991 293.358C424.347 299.886 428.554 314.411 425.737 320.247C424.096 321.594 425.018 321.246 422.863 321.286C419.28 319.574 418.524 317.17 417.611 313.809C414.046 300.681 392.028 179.427 388.525 175.951C375.536 226.942 346.5 299.885 317.126 343.592ZM235.913 1067.67C201.993 1070.55 135.884 1081 105.044 1093.29C126.632 1097.52 160.121 1096.66 182.524 1095.71C245.536 1093.13 308.5 1089.5 371.391 1084.82C407.525 1082.34 445.339 1079.42 481.512 1077.92C481.49 1072.15 481.805 1061.29 482.374 1055.47C451.495 1055.85 421.5 1054.18 389.82 1055.13C348.313 1056.63 306.887 1058.81 265.827 1064.9C262.079 1065.45 250.776 1066.34 248.149 1067.78C244.466 1072.54 249.924 1090.4 239.854 1085.1C237.511 1083.87 236.249 1070.53 235.913 1067.67ZM334.096 359.031C329.768 366.17 324.498 365.494 316.804 366.067C320.489 382.786 319.428 398.768 320.176 415.667C329.195 411.241 338.994 408.124 348.123 403.841C351.895 402.071 363.789 393.539 366.249 393.585C372.228 393.696 372.597 395.514 380.944 394.118C383.99 396.578 387.309 399.428 388.868 403.101C388.775 404.916 388.701 405.841 388.893 407.634C405.121 422.274 421.859 436.338 439.078 449.799C446.296 455.551 454.882 462.853 462.154 468.169C461.652 464.785 461.216 462.094 461.115 458.683C457.62 454.627 454.507 451.075 451.378 446.721C435.924 424.393 412.081 406.784 394.494 385.972C389.508 380.073 376.262 370.461 385.991 364.398C386.931 363.82 387.897 363.285 388.887 362.795C390.558 364.916 391.346 366.285 394.203 366.836C404.883 368.897 405.646 382.229 414.898 384.802C419.544 386.094 425.865 396.808 429.088 400.542C433.851 406.061 438.448 410.999 443.326 416.166C439.348 391.436 448.794 378.169 448.532 357.845C428.701 356.502 403.564 355.243 383.704 356.146C369.277 356.773 347.885 357.149 334.096 359.031ZM362.529 930.284C362.626 940.577 362.484 950.869 362.105 961.149C361.803 969.65 358.125 1029.07 359.478 1032.06L360.554 1032.34C378.6 1032.65 396.315 1032.35 414.423 1032.83C414.398 1021.31 415.508 929.675 414.168 927.286L413.809 927.201L362.529 930.284ZM256.021 1033.42C257.613 1033.33 259.579 1033.27 261.129 1033.1C263.487 1010.67 263.724 977.499 264.464 954.586C266.302 903.88 267.608 853.15 268.383 802.413C268.762 785.789 269.567 758.3 269.397 740.659C269.142 740.251 268.887 739.836 268.631 739.422C266.75 739.099 265.857 739.154 263.929 739.172L252.464 967.919C252.085 975.524 248.341 1028.72 249.537 1032.92C251.133 1034.01 253.655 1033.43 256.021 1033.42ZM493.189 1033.41L502.25 1033.45C501.93 960.491 500.159 887.543 496.936 814.655C496.263 798.379 495.475 782.109 494.571 765.844C494.355 761.89 493.831 747.697 493.116 744.419C491.986 743.614 490.714 743.907 489.242 743.974C491.346 808.354 492.649 872.759 493.15 937.176C493.456 958.279 493.606 979.394 493.602 1000.5C493.621 1008.84 494.076 1026.07 493.189 1033.41ZM281.493 454.057C281.479 457.2 280.931 468.603 282.655 470.606L284.138 469.986C310.835 456.44 345.167 433.481 365.956 411.927C365.205 410.712 362.719 406.49 361.884 405.759C355.185 411.879 344.416 416.384 336.663 421.29C319.501 432.149 297.638 442.23 281.493 454.057ZM460.114 438.696C460.417 435.939 457.554 385.508 456.58 381.892C456.018 398.582 454.708 415.751 455.167 432.338C456.726 434.488 458.278 436.803 460.114 438.696ZM511.615 1057.86L512.016 1076.03C547.326 1073.57 582.689 1071.93 618.072 1071.11L622.997 1070.58C615.999 1066.95 524.195 1059.07 511.615 1057.86ZM502.497 1077.21C503.086 1074.08 502.608 1060.92 502.57 1056.74L493.147 1056.01C493.358 1062.74 493.764 1070.35 493.122 1076.97C496.265 1076.96 499.369 1076.89 502.497 1077.21ZM472.222 476.318C475.469 478.792 484.398 485.81 487.631 487.102C485.509 482.467 475.732 468.565 471.874 466.518C472.037 469.777 472.239 473.057 472.222 476.318ZM356.935 1042.04C357.063 1044.32 356.744 1045.37 357.839 1047.08C364.699 1047.27 372.281 1046.66 379.217 1046.4L411.709 1045.46L412.417 1044.45L411.815 1043.51C408.642 1042.83 404.654 1042.92 401.374 1042.84C386.586 1042.44 371.732 1041.76 356.935 1042.04ZM309.093 423.338C312.518 418.406 309.747 402.45 309.839 396.17C309.843 395.932 309.339 394.674 309.197 394.357C308.102 401.144 305.946 415.758 307.472 422.429C308.215 422.916 308.271 423.02 309.093 423.338ZM473.844 489.351C475.396 509.674 476.472 530.453 477.856 550.859C477.667 556.369 478.515 563.806 479.194 569.24C480.109 567.252 479.565 525.073 479.028 521.377C479.032 514.562 478.09 507.999 478.092 501.164C478.095 493.663 480.775 493.258 473.844 489.351ZM261.762 1055.21C262.525 1046.14 259.415 1044.16 250.703 1043.91C249.998 1043.9 249.294 1043.89 248.589 1043.9C248.438 1048.21 248.247 1051.83 247.834 1056.16C252.958 1056.01 256.675 1055.8 261.762 1055.21ZM285.497 349.006C283.257 351.145 279.146 354.643 277.933 357.261L278.047 358.405C279.339 358.692 280.308 358.414 281.62 358.2L289.266 357.19C286.883 354.488 286.369 353.406 286.05 349.561L285.497 349.006ZM426.785 744.236C426.87 746.509 426.956 755.698 427.668 756.832L428.199 755.497C428.935 752.414 430.562 747.917 430.19 745.187C428.93 744.151 428.743 744.461 426.785 744.236ZM251.279 457.696C248.862 458.785 248.082 458.986 248.127 461.92L248.902 462.777C249.617 462.466 249.901 462.451 250.422 461.956C252.119 460.831 254.924 459.507 255.311 457.991C253.41 457.552 253.249 457.572 251.279 457.696ZM238.926 480.683C235.885 482.93 227.975 488.455 225.952 491.022L226.164 491.756L226.811 491.693C231.392 490.312 235.148 489.248 239.82 488.18C239.852 485.856 240.023 483.311 239.563 481.066L238.926 480.683ZM475.535 735.083L475.101 720.769L469.361 721.141C434.992 724.779 400.555 727.746 366.07 730.038C353.552 730.854 336.052 732.396 323.936 732.536C328.927 733.456 330.759 733.676 335.868 733.852C352.943 734.687 370.031 735.229 387.124 735.485C416.719 735.729 445.945 734.937 475.535 735.083ZM488.441 696.808C488.612 703.853 487.991 709.392 490.973 715.626C488.647 719.562 486.902 729.55 489.88 733.139L491.563 733.17L490.687 733.621C494.091 730.891 490.781 720.458 491.506 715.821C490.65 708.246 490.171 701.177 489.684 693.585C489.535 691.878 488.871 684.005 488.246 683.14C488.157 687.528 487.895 692.506 488.441 696.808ZM293.829 341.175C298.38 341.778 302.482 341.897 307.055 342.084C327.338 313.076 344.846 274.742 357.292 241.594C358.471 238.455 362.632 228.002 362.399 225.334C348.793 253.398 333.615 280.673 316.937 307.029C311.414 315.936 300.799 333.099 293.239 340.17L293.829 341.175ZM270.619 598.515C270.247 612.775 264.061 723.98 265.196 726.04C266.783 727.131 267.344 726.911 269.396 726.851C271.664 723.974 270.649 656.334 271.453 647.096C271.681 644.469 271.837 633.165 271.807 629.783C272.494 624.512 272.941 582.813 271.984 578.864L271.745 578.967C271.086 580.367 271.235 582.161 271.213 583.753C271.094 587.963 271.074 594.521 270.619 598.515ZM271.745 459.444C264.453 464.322 256.05 469.942 248.58 474.498C248.925 477.147 248.913 483.484 250.004 484.47L250.588 484.425L264.191 479.74C264.497 475.723 264.346 472.116 267.07 469.031C269.356 468.031 269.965 468.585 272.656 469.574L271.998 469.557L272.759 469.438C272.9 467.312 272.885 461.167 271.745 459.444ZM313.412 1050.22C318.505 1049.73 344.066 1048.86 346.547 1047.56C346.761 1045.22 346.559 1044.74 345.924 1042.46C342.287 1041.28 304.328 1042.18 298.147 1042.36C293.876 1042.49 273.785 1042.81 270.952 1043.73L270.471 1044.58C271.048 1045.27 271.415 1045.68 272.055 1046.32C271.044 1048.55 269.788 1050.65 270.123 1053.05C272.132 1054.52 308.331 1050.57 313.412 1050.22ZM405.628 435.422C423.386 457.528 442.862 477.945 461.241 499.496C462.766 501.284 463.898 502.898 465.811 504.307C463.97 495.932 464.073 489.565 463.888 480.963C458.078 476.141 445.506 466.77 439.504 462.292C434.189 458.326 409.495 437.166 405.628 435.422Z" fill="black"/>
<path d="M365.613 492.618C366.273 492.523 366.938 492.459 367.605 492.424C404.376 490.506 419.451 535.543 425.228 564.398C430.166 589.062 435.448 613.646 436.583 638.856C441.309 644.822 453.382 655.212 454.174 661.805C454.757 666.656 449.835 665.961 447.628 667.582C446.832 668.167 443.768 672.896 442.764 673.646C426.682 685.687 394.13 687.881 375.891 688.039C353.826 687.753 322.623 685.864 303.063 674.663C295.949 670.586 295.728 665.431 293.74 663.993C292.482 663.085 289.532 663.908 287.582 662.756C283.944 655.949 301.04 642.506 305.913 637.546C306.249 594.294 307.746 499.28 365.613 492.618ZM348.884 563.489C342.507 598.637 335.166 621.574 309.593 647.381C335.585 638.454 371.997 638.076 399.029 642.878C395.043 640.91 383.734 636.394 383.022 631.702C384.078 630.026 383.52 630.581 385.395 629.71C392.961 629.758 421.86 644.639 428.773 648.753C418.502 637.729 398.901 621.769 384.068 618.467C380.534 616.961 377.522 615.895 378.254 611.471C386.828 604.115 412.389 624.56 419.123 630.228L419.586 629.618C417.784 624.061 395.768 609.807 389.313 606.609C386.554 605.243 378.357 601.945 376.851 600.363L376.722 598.98C382.036 593.058 401.418 602.187 407.086 605.504C399.295 597.514 389.199 593.786 379.035 589.912C376.928 589.108 374.532 588.346 373.508 586.278C376.891 579.13 396.254 587.068 402.256 588.34C398.637 585.89 372.461 571.025 372.076 570.324C375.527 563.325 392.46 568.539 397.765 570.386C389.413 564.811 374.063 559.477 364.123 561.497C358.27 561.847 354.675 562.27 348.884 563.489ZM386.577 553.039C389.111 553.175 393.149 553.778 395.154 552.324C396.479 550.105 397.856 548.286 397.956 545.722C396.509 541.435 392.535 541.248 388.454 540.416C387.543 545.097 386.925 548.245 386.577 553.039ZM415.052 673.847C420.277 672.457 429.722 670.611 432.985 666.351C433.232 665.212 433.634 664.535 432.864 663.542C429.504 659.197 413.021 655.894 408.02 654.919C400.631 653.42 393.125 652.567 385.588 652.378C388.839 667.107 381.364 662.75 378.481 668.838C379.107 671.519 379.624 671.549 378.545 673.53C375.441 675.108 370.595 675.437 367.653 673.341C366.763 670.97 366.901 668.588 364.4 668.027C353.481 665.596 354.556 661.641 352.871 651.812C350.22 651.257 348.924 651.513 346.236 651.769C338.875 652.189 308.436 654.188 309.268 664.261C311.407 667.893 316.529 669.392 320.357 670.501C350.499 679.234 384.491 680.263 415.052 673.847ZM376.898 551.482C377.178 547.735 377.396 543.09 377.885 539.435L368.486 539.212C368.609 543.266 368.628 547.554 369.209 551.549C371.023 551.613 375.411 551.914 376.898 551.482ZM349.642 552.983C352.753 552.725 355.905 552.527 358.97 551.95C358.632 549.484 358.52 545.037 357.078 543.632L356.174 543.661C352.119 544.38 349.229 544.459 346.664 547.789C346.336 550.172 347.355 551.947 349.642 552.983ZM414.474 564.681C413.144 566.292 411.567 568.307 410.205 569.838C412.059 580.374 415.395 599.032 419.732 608.667L420.773 609.619C420.845 604.599 417.011 568.093 414.474 564.681ZM407.828 538.057C400.581 522.003 388.802 500.401 367.901 502.382C319.426 506.865 317.363 588.817 315.924 624.079C326.667 606.709 329.805 598.499 335.197 578.306L337.184 568.656C332.813 556.731 332.554 541.04 346.701 536.249C349.58 535.274 352.76 534.642 355.737 534.009C356.089 529.569 357.661 520.714 363.988 521.493C367.448 521.918 370.121 524.903 372.709 527.058C379.31 519.524 386.397 517.782 388.517 529.641C398 531.436 400.544 531.629 407.828 538.057ZM411.629 554L411.992 553.323C411.277 551.94 409.289 547.757 408.321 546.967C407.563 549.49 406.688 550.816 407.25 553.049C409.029 553.901 409.611 553.825 411.629 554Z" fill="black"/>
<path d="M397.943 934.543C399.738 934.702 401.705 934.836 402.881 936.311C409.563 944.69 407.329 972.44 406.969 982.812C419.349 987.882 405.532 993.976 402.731 997.882C398.697 998.766 393.367 994.939 391.509 991.514C389.109 987.084 393.718 985.195 397.168 983.799C397.311 968.918 398.295 954.44 395.444 939.857C394.994 937.554 396.429 936.238 397.943 934.543Z" fill="black"/>
<path d="M456.579 381.892C457.553 385.508 460.416 435.939 460.113 438.696C458.277 436.802 456.725 434.487 455.166 432.338C454.707 415.75 456.017 398.582 456.579 381.892Z" fill="black" fill-opacity="0.0117647"/>
<path d="M479.026 521.376C479.564 525.073 480.107 567.252 479.192 569.24C478.514 563.806 477.666 556.369 477.855 550.859C480.098 548.357 478.431 527.66 479.026 521.376Z" fill="black" fill-opacity="0.0941176"/>
<path d="M488.438 696.808C488.625 695.559 489.131 694.724 489.681 693.584C490.168 701.177 490.646 708.246 491.503 715.821L490.969 715.626C487.988 709.392 488.609 703.852 488.438 696.808Z" fill="black" fill-opacity="0.0392157"/>
<path d="M271.211 583.753C271.233 582.161 271.085 580.367 271.743 578.967L271.982 578.864C272.94 582.812 272.493 624.512 271.806 629.783C271.123 622.288 271.622 606.37 271.67 598.391C272.019 593.905 271.92 588.185 271.211 583.753Z" fill="black" fill-opacity="0.403922"/>
<path d="M251.278 457.695C253.248 457.572 253.409 457.552 255.311 457.99C254.924 459.507 252.118 460.831 250.421 461.956C249.9 462.451 249.617 462.466 248.902 462.777L248.127 461.92C248.081 458.986 248.861 458.784 251.278 457.695Z" fill="black" fill-opacity="0.01"/>
<path d="M488.438 696.808C487.892 692.506 488.154 687.527 488.243 683.14C488.868 684.005 489.533 691.878 489.681 693.584C489.131 694.724 488.626 695.559 488.438 696.808Z" fill="black" fill-opacity="0.2"/>
<path d="M271.211 583.753C271.92 588.185 272.019 593.906 271.67 598.391L270.617 598.515C271.073 594.521 271.092 587.963 271.211 583.753Z" fill="black" fill-opacity="0.0745098"/>
</g>
<defs>
<clipPath id="clip0_2110_10336">
<rect width="772" height="1248" fill="white"/>
</clipPath>
</defs>
</svg>
