<svg width="772" height="1248" viewBox="0 0 772 1248" fill="none" xmlns="http://www.w3.org/2000/svg">
<g clip-path="url(#clip0_2110_10427)">
<path d="M551.007 391.499C574.194 390.646 635.911 388.534 655.239 398.492C667.179 404.646 677.297 418.569 680.985 431.484C682.82 437.925 683.594 444.557 685.618 451.008C693.615 455.274 694.62 458.298 689.647 465.952C693.371 477.077 696.199 489.968 699.009 501.434C711.029 550.589 720.001 601.841 718.093 652.61C717.934 656.791 717.435 660.922 717.313 665.054C718.398 666.723 718.709 667.18 719.379 669.045C718.715 672.208 719.007 670.447 717.191 672.854C708.182 684.791 703.282 697.131 686.251 699.764C691.609 727.886 698.613 762.669 676.481 785.509C657.043 805.569 623.666 810.993 602.795 790.134C587.015 774.369 585.534 752.639 585.497 731.914C564.541 737.21 546.36 743.078 524.734 747.49C524.981 750.007 525.19 752.53 525.36 755.052C528.047 796.453 512.823 852.961 464.56 859.907C451.813 860.943 447.055 853.503 434.129 851.242C397.822 844.892 394.513 805.856 393.755 778.739C379.039 778.861 363.006 780.165 348.052 780.579C318.189 781.371 288.309 781.213 258.457 780.092C245.491 780.079 230.688 778.726 217.492 778.087C216.023 800.055 212.564 818.683 195.325 834.838C179.773 849.414 155.423 856.812 135.761 845.246C131.929 843.162 127.437 837.141 123.891 835.283C95.9002 820.658 90.9186 790.823 93.2378 760.421C86.9676 758.922 65.3484 756.198 69.5054 746.844C72.0928 744.803 72.4128 746.21 74.6199 745.18C69.9516 737.472 66.8863 743.596 63.8959 728.148C61.9534 727.734 56.9529 726.85 55.7064 725.601C51.127 721.019 49.8702 705.827 54.0503 701.074C56.4866 698.307 69.982 699.368 74.064 699.447C63.312 687.753 66.5516 667.839 68.6063 653.476C64.2196 654.006 58.6004 654.505 56.0063 650.087C56.6932 643.36 66.6839 644.445 71.4376 644.603C72.0697 639.746 74.8558 625.31 77.5298 622.404C101.753 596.061 155.854 582.987 188.616 575.61C181.174 573.181 176.947 568.838 178.666 560.531C179.971 554.147 183.789 548.557 189.26 545.018C198.376 539.222 208.663 540.148 218.666 542.41C219.821 538.561 223.271 530.969 224.974 526.8C229.292 516.033 233.858 505.367 238.669 494.811C242.385 486.683 247.069 477.316 250.274 469.108C246.817 469.823 228.748 472.82 236.414 461.844C237.655 460.068 252.55 460.078 256.537 459.999C262.017 447.424 274.95 430.361 289.117 427.79C348.843 416.956 408.062 402.935 468.55 396.625C496.506 393.708 522.945 392.466 551.007 391.499ZM269.096 468.58C259.577 488.091 250.703 508.673 241.9 528.573C236.909 539.855 225.598 562.191 223.642 573.184C223.799 573.004 223.957 572.826 224.112 572.644C230.04 565.673 238.157 546.029 242.768 536.726C250.575 520.976 258.956 505.607 266.229 489.586C268.257 485.118 268.748 479.648 271.077 475.517C271.92 474.023 273.063 473.016 274.832 472.912C276.451 472.817 277.644 473.397 278.777 474.502C279.435 475.144 279.692 476.304 279.715 477.199C279.96 486.77 243.273 554.59 236.562 571.033C248.452 568.984 260.286 566.732 272.198 564.765C278.877 563.662 286.491 563.512 292.932 562.468C328.94 560.271 361.582 560.638 397.536 565.142C404.843 566.033 412.138 567.019 419.419 568.101C425.223 569.014 429.515 570.599 435.384 569.477C445.42 567.56 466.105 574.86 475.197 578.596C475.829 578.862 476.454 579.143 477.071 579.442C481.867 563.798 485.885 547.929 490.387 532.228C496.622 510.485 501.322 493.463 500.955 470.742C485.176 469.79 468.592 469.918 452.748 469.783C403.338 469.361 352.964 466.09 303.614 467.712C293.015 467.932 279.414 468.698 269.096 468.58ZM641.128 636.444C655.568 634.524 663.778 634.53 675.865 643.695C681.692 642.58 690.128 641.215 696.04 640.831C694.968 616.352 691.908 591.999 686.879 568.018C683.685 568.11 680.132 568.375 677.127 568.567C672.665 568.851 661.974 572.31 658.317 569.467C656.427 568 653.538 556.105 652.801 553.221C647.254 531.581 643.292 509.6 637.611 487.993C636.484 483.697 633.034 475.403 639.885 474.548C646.754 476.091 647.601 492.813 649.625 499.015C650.125 496.74 650.808 493.104 651.509 491.009L651.765 490.88L651.899 490.1C651.734 494.83 650.027 499.29 650.155 503.344C651.685 511.307 662.108 557.584 665.046 562.104C667.509 562.036 668.222 561.128 670.422 559.527L684.837 558.734C681.077 541.08 676.414 523.629 670.867 506.451C668.398 498.857 665.369 491.49 662.803 483.916C661.992 481.52 662.913 478.24 665.735 477.505C667.588 477.022 668.155 477.522 669.745 478.322C676.152 486.929 691.207 544.844 693.84 556.955C696.339 557.638 698.314 557.915 700.252 559.579C701.307 562.593 697.887 564.092 695.48 565.364C699.039 582.948 701.782 600.687 703.708 618.522C704.281 623.988 703.989 635.724 706.268 639.576L707.256 640.197C709.005 639.746 708.438 640.24 709.279 639.021C711.723 596.403 696.985 531.342 686.794 489.866C685.892 486.21 682.576 470.865 681.01 468.582C679.327 467.687 679.894 467.957 677.621 468.266C659.56 469.893 641.342 470.09 623.214 470.438C620.984 470.48 618.753 470.382 616.571 470.895C616.863 473.662 621.063 476.929 621.861 479.995C636.203 534.923 650.18 578.644 641.128 636.444ZM552.374 569.922C552.053 565.976 551.735 563.14 550.125 559.464C542.18 556.826 537.687 557.131 529.309 557.792C525.432 558.258 522.461 558.653 518.599 559.47C518.552 566.615 517.831 573.03 516.768 580.098C522.197 578.181 528.891 575.455 534.223 573.952C540.77 572.076 545.639 571.141 552.374 569.922ZM588.868 707.643C593.896 706.735 598.937 705.888 603.984 705.096L609.128 681.257C608.885 681.117 608.641 680.977 608.397 680.843C603.435 682.78 592.653 683.944 587.045 684.657C587.222 687.777 587.807 706.278 588.868 707.643ZM583.516 717.941C564.788 722.219 541.153 725.711 523.452 730.586C523.74 732.536 524.084 736.954 525.408 738.093C532.686 736.442 582.456 724.669 584.766 720.933C585.241 720.159 585.113 719.3 585.144 718.417C584.107 717.801 584.662 717.887 583.516 717.941ZM472.603 689.051L473.286 689.416C489.187 697.911 494.309 720.025 498.141 736.247C501.468 726.759 481.914 682.719 474.232 680.239C469.751 681.269 457.923 683.213 456.423 687.698C455.093 691.671 446.57 718.593 447.052 720.769C451.728 711.494 454.95 703.664 466.318 698.636C467.146 698.271 470.307 697.99 471.399 697.728C466.609 697.32 456.462 697.156 457.463 690.038C461.066 685.035 467.924 687.339 472.603 689.051ZM145.091 839.871C156.264 842.662 165.269 842.522 175.798 836.806C185.655 831.456 188.198 819.079 191.043 808.97C192.508 803.76 195.595 780.238 193.634 775.966L190.802 775.418C192.368 796.264 191.432 829.506 163.399 833.826C161.066 834.186 158.172 833.674 156.062 834.752L155.762 835.295C152.674 840.816 148.297 838.847 142.852 838.774C143.714 839.311 144.104 839.652 145.091 839.871ZM517.556 681.379C517.912 683.725 518.307 687.972 519.441 689.813C532.138 682.86 562.133 682.5 576.691 677.125C577.537 676.815 577.216 673.39 577.117 672.768C576.118 672.129 576.605 672.159 575.67 672.317C557.536 675.76 535.891 679.545 517.556 681.379ZM102.485 683.688C102.796 682.531 102.877 683 102.59 681.836C100.058 671.568 100.866 665.767 107.665 658.204C102.561 655.645 100.113 654.048 94.366 653.476C91.113 660.617 87.5912 683.152 95.9672 686.924C99.2983 686.894 99.8658 686.059 102.485 683.688ZM456.059 731.049C448.775 756.746 444.345 783.998 449.282 810.579C450.034 814.625 452.732 825.996 457.017 827.263C458.362 826.757 458.32 826.843 459.267 825.782C461.287 823.899 463.311 821.913 465.517 820.268C454.328 810.56 454.037 792.352 451.099 779.823C448.777 769.927 456.162 731.354 456.059 731.049ZM403.31 774.808C403.236 795.186 403.176 816.666 418.299 833.064C420.656 835.618 425.518 839.109 428.945 839.963C413.837 824.18 408.8 803.894 407.344 782.974C407.006 778.123 408.253 775.351 403.31 774.808ZM145.013 760.403C151.177 762.176 156.685 762.584 163.023 763.382C167.627 763.87 172.669 764.321 177.219 764.955C177.12 758.593 176.164 753.498 175.965 747.764C171.937 747.594 167.912 747.356 163.891 747.063C161.192 761.56 156.41 757.404 145.013 760.403ZM561.59 419.541C561.765 421.794 561.909 422.288 560.722 424.163C554.487 428.696 484.631 430.105 471.377 431.098C448.66 432.801 274.188 448.388 268.76 456.775C271.83 457.341 288.176 454.644 292.642 454.252C324.814 451.424 355.895 448.138 388.23 446.537C446.648 443.096 507.654 444.853 566.178 445.858C602.838 446.489 639.093 446.6 675.634 449.726C674.896 446.481 672.135 433.223 670.629 431.008C668.441 430.401 667.716 430.112 665.418 430.242L664.93 431.085C665.851 433.172 666.99 434.935 666.539 437.036C662.998 441.668 646.48 438.421 641.122 438.472C635.314 438.526 625.896 438.153 620.99 438.074C605.288 437.821 601.284 434.771 594.238 423.024C592.037 419.352 568.469 420.931 561.59 419.541ZM305.856 750.007C305.785 744.309 307.531 720.568 306.554 717.289C304.733 716.241 303.23 716.692 301.054 716.924C298.293 716.948 298.372 716.467 296.626 717.984C295.449 721.189 296.25 726.009 296.42 729.733C294.356 734.242 296.199 743.992 296.925 749.08C300.124 749.3 302.684 749.556 305.856 750.007ZM61.3311 709.118C61.1689 712.024 60.9592 714.998 60.9696 717.905C68.0255 716.546 72.5439 719.52 80.1166 719.958C92.7258 720.69 105.877 722.012 118.474 722.195C121.742 722.414 125.09 722.597 128.336 722.969C128.804 719.014 129.317 713.2 130.155 709.441C123.829 710.184 117.078 709.611 110.666 709.477C98.8479 709.239 87.0249 708.667 75.1947 708.996C70.6958 709.063 65.7989 709.233 61.3311 709.118ZM616.449 700.336C621.941 685.809 627.121 668.094 637.709 656.614C639.428 654.755 649.448 648.064 649.454 647.315C648.126 647.236 647.059 647.144 645.712 647.223C627.189 652.214 619.271 676.473 615.797 693.298C615.266 695.864 613.901 701.238 614.699 703.548C615.76 702.841 615.985 701.604 616.449 700.336ZM143.979 747.618L145.629 745.723C147.109 741.457 147.301 733.822 147.392 729.203L147.894 728.806C148.5 726.96 148.166 727.192 147.529 724.919C147.907 722.219 149.095 716.461 147.938 714.395C145.253 713.822 143.717 714.078 140.993 714.303C136.342 717.801 137.426 743.127 139.954 747.648C141.358 748.374 142.539 748.495 143.979 747.618ZM350.002 683.073C350.677 680.166 351.333 677.162 352.059 674.28C354.719 668.588 357.117 665.895 360.611 660.8C361.275 659.831 360.753 658.893 360.443 657.967C357.48 654.944 352.576 653.439 348.576 651.647C343.302 662.592 345.077 672.256 350.002 683.073ZM479.71 400.136C482.176 399.882 483.787 399.959 485.802 398.559C484.241 398.095 485.063 398.146 483.27 398.783C480.837 398.996 479.166 398.978 476.923 399.969C478.093 400.101 478.515 400.194 479.71 400.136ZM115.972 817.385L115.835 816.898C114.997 814.028 113.885 812.047 113.061 809.366C110.382 800.646 108.511 790.902 107.724 781.81C107.242 776.259 108.373 769.671 107.595 764.028C105.448 763.151 104.568 763.102 102.32 762.767C100.555 779.433 103.349 805.35 115.972 817.385ZM681.546 651.757C686.197 657.034 688.098 665.761 688.568 672.598C688.568 674.706 688.251 676.723 689.458 678.271C691.274 678.57 693.365 677.613 695.211 677.003C695.498 673.426 697.003 651.836 695.864 649.819L681.546 651.757ZM644.231 780.475L646.974 778.976L647.029 778.02C636.752 767.051 632.04 742.036 629.102 727.429C628.438 733.419 630.108 778.8 632.29 782.931C635.862 784.321 640.915 782.023 644.231 780.475ZM76.8715 687.278C79.142 689.544 81.5325 691.823 83.5049 694.346C85.3713 694.486 88.375 695.078 89.6776 694.304L89.5051 694.127C83.806 689.374 82.3682 683.999 81.6757 676.62C80.9071 668.868 81.911 661.044 84.6118 653.738L77.4822 653.719C76.293 664.237 74.829 676.796 76.8715 687.278ZM315.837 654.926L318.28 648.942C296.73 648.887 267.283 650.38 245.579 651.562C237.299 651.434 225.55 652.403 218.322 652.025C216.587 652.05 213.942 651.861 212.525 652.628C215.558 653.603 218.866 653.317 222.07 653.244C233.511 653.317 246.045 653.494 257.432 653.153C271.542 653.518 304.44 651.221 315.837 654.926ZM678.51 703.115C672.964 699.355 674.372 696.223 672.165 695.004C672.452 722.944 680.211 762.06 658.597 784.516C656.598 786.594 652.106 789.878 649.656 791.785C652.313 790.774 655.422 789.689 658 788.598C670.038 780.817 677.541 772.444 681.131 758.148C686.032 738.624 676.261 720.939 678.51 703.115ZM463.746 840.761C487.043 835.606 499.697 804.454 499.549 782.492C499.472 782.2 499.396 781.907 499.319 781.615C498.002 792.553 492.82 814.856 483.899 820.914C476.253 826.112 473.891 827.732 468.594 836.928C467.883 838.165 464.331 839.152 463.746 840.761ZM144.326 795.058C144.859 797.471 145.328 800.006 145.975 802.389C149.391 814.96 151.943 832.083 168.975 822.729L169.962 821.34L169.439 820.712L168.611 820.676C159.602 820.201 154.396 812.011 150.124 804.997C149.115 803.339 145.277 795.862 144.326 795.058ZM285.505 731.402C285.768 726.887 285.856 722.932 285.885 718.423C280.583 717.332 277.596 717.009 272.165 717.149C272.516 722.396 272.827 727.222 272.891 732.487C276.552 732.073 282.313 731.89 285.505 731.402ZM191.247 556.617L191.194 566.214C194.188 566.221 196.967 566.428 199.801 565.493C199.943 560.233 195.426 558.669 191.247 556.617ZM203.417 776.929C203.111 788.281 203.056 799.683 199.956 810.682C199.439 812.516 199.036 814.375 198.66 816.24C199.768 815.46 200.4 814.089 201.1 812.882C205.133 802.584 208.891 789.116 208.403 777.953C208.348 776.697 204.325 776.911 203.417 776.929ZM319.83 725.144C341.641 725.455 391.995 728.904 415.786 721.439C416.247 721.293 416.667 718.155 416.796 717.381C417.656 711.811 418.817 707.881 420.513 702.488C413.992 703.012 407.463 703.42 400.928 703.712C388.472 704.237 386.436 704.901 374.626 708.204C367.271 710.221 359.68 711.25 352.054 711.269C334.13 711.238 323.922 709.623 310.776 699.849C310.549 699.678 281.759 699.197 278.145 699.142L141.852 697.125C141.895 698.789 141.756 703.17 142.436 704.297C143.52 704.383 149.689 704.754 150.147 705.144C156.164 710.208 154.016 711.043 162.358 709.386C176.248 706.625 190.151 707.448 204.301 707.399C228.682 707.344 253.015 708.021 277.4 708.009C285.856 708.009 286.915 712.408 295.836 708.667C301.897 706.126 312.585 710.342 318.195 711.622C319.335 716.369 319.484 720.3 319.83 725.144ZM668.216 681.653L668.965 682.281C667.301 676.949 663.906 670.227 659.707 666.419C658.372 665.98 658.347 665.895 656.891 665.98C655.836 666.559 653.813 667.394 653.465 668.271C657.397 669.569 659.566 670.038 662.395 673.11L662.724 673.463C664.839 675.767 666.619 678.935 668.216 681.653ZM511.075 727.569C511.359 723.694 507.479 706.942 504.7 704.962C504.884 711.531 507.746 720.3 509.692 726.613C510.281 727.1 510.409 727.332 511.075 727.569ZM494.414 691.214C491.958 683.841 488.431 675.407 481.64 670.94L479.374 670.696C483.434 675.279 486.977 679.313 490.198 684.56C491.201 686.193 493.323 690.203 494.414 691.214ZM660.566 686.68C655.519 711.549 662.504 734.529 659.707 760.269C659 764.814 657.689 767.544 657.128 771.042L657.896 771.146L657.269 770.311L657.348 769.97L658.311 770.11C658.908 768.568 660.487 764.845 660.895 763.437C666.869 744.486 664.077 706.004 660.566 686.68ZM486.69 585.187C487.949 581.289 492.383 563.152 491.421 559.837C489.838 565.646 485.518 579.985 486.69 585.187ZM475.603 703.749L475.238 704.291C473.847 706.339 469.944 710.245 469.722 711.183L471.979 709.971C474.702 709.404 476.934 709.575 478.666 708.222C478.324 706.272 477.009 705.26 475.603 703.749ZM201.498 749.879C202.243 754.912 201.622 765.052 204.674 767.49C206.418 767.758 207.27 767.813 209.036 767.837C208.1 763.638 206.787 752.706 204.398 750.665L201.498 749.879ZM162.188 733.103C194.278 733.304 226.368 733.273 258.457 733.005L261.379 732.871C263.88 729.958 262.448 722.445 263.226 717.174L197.772 717.027C191.698 717.046 173.722 716.784 168.424 717.484C165.998 717.527 164.423 717.259 162.618 718.746C160.071 722.713 162.102 727.88 162.188 733.103ZM647.504 428.013C641.518 427.151 610.341 423.274 606.715 425.26C608.604 428.405 612.785 428.299 616.101 428.363C624.446 428.526 633.131 429.252 641.445 429.085C645.974 429.761 652.277 429.603 656.964 429.616C653.002 428.605 651.551 428.319 647.504 428.013ZM119.183 756.478C123.817 757.167 133.007 759.318 136.66 758.093C133.553 756.271 122.48 755.808 119.183 756.478ZM193.927 767.161C194.208 763.096 193.269 754.827 192.88 750.421C191.868 749.263 190.645 749.275 188.907 748.812C189.435 753.352 189.448 763.955 191.379 766.49L193.927 767.161ZM372.483 661.513C375.297 684.578 359.437 680.891 358.542 685.163C360.254 685.596 361.24 685.827 362.99 686.034C373.026 686.357 377.797 684.103 378.64 672.263C379.017 666.967 378.137 662.848 372.483 661.513ZM573.294 569.951C572.537 561.862 571.099 541.229 569.348 534.853C569.251 546.337 569.467 557.816 569.405 569.299C571.134 569.969 571.398 569.902 573.294 569.951ZM601.424 724.955C602.472 741.847 601.826 765.765 613.139 778.367C615.559 781.042 617.71 783.961 621.325 784.564L622.477 783.906C617.71 763.754 616.205 746.637 618.296 725.79C618.552 723.286 619.691 716.741 619.679 714.754C614.797 723.03 615.547 717.509 610.024 721.098C608.281 724.955 605.435 724.382 601.424 724.955ZM678.017 675.504C676.018 665.041 675.335 662.805 670.824 653.104C668.106 653.165 664.15 653.14 661.56 653.439C669.185 658.966 670.166 661.873 674.75 670.057C675.621 671.604 676.901 674.225 678.017 675.504ZM287.155 740.829C282.545 741.006 278.194 741.195 273.575 741.073C271.469 744.577 269.522 745.814 265.301 745.686C255.73 745.4 247.025 744.528 237.37 744.906C241.732 746.015 247.939 746.289 252.361 747.015C263.727 747.612 276.754 748.477 288.154 749.361C287.724 746.399 287.339 743.821 287.155 740.829ZM327.879 436.778C375.627 430.417 423.572 425.637 471.635 422.444C487.91 421.356 504.193 420.384 520.481 419.529C527.574 419.15 535.934 419.13 542.807 418.451C528.051 416.615 503.107 417.427 488.051 417.702C476.305 418.067 464.255 417.694 452.589 418.369C401.511 421.32 350.1 424.852 299.838 434.813C292.306 436.305 285.087 439.156 278.842 443.632C294.186 440.944 312.37 438.694 327.879 436.778ZM357.082 457.223L356.355 457.326C351.041 458.057 345.724 457.827 340.965 458.43C342.576 459.311 369.421 458.956 373.007 458.844C379.348 459.379 390.919 459.222 397.673 459.351L442.299 460.391L479.565 461.215C484.814 461.314 496.595 461.668 501.402 461.065C500.865 457.562 512.376 448.942 512.541 461.666C516.11 462.463 518.576 460.255 520.416 457.653C521.53 456.079 523.009 455.418 524.93 455.242C527.49 455.007 528.64 459.438 530.648 460.746C531.37 461.366 532.373 461.748 533.337 461.775C547.661 462.169 561.99 461.416 576.327 461.309L627.554 460.635C642.67 460.434 658.933 460.474 673.872 458.672C661.59 457.176 645.157 456.905 632.68 456.533C611.28 455.874 589.873 455.358 568.468 454.984C512.136 453.766 455.226 452.616 398.947 455.014C385.425 455.59 370.491 456.05 357.082 457.223ZM295.839 573.496C319.28 574.233 436.022 575.761 450.114 586.504L456.684 582.87C415.405 574.345 373.35 570.148 331.2 570.346C321.004 570.312 304.084 570.251 294.164 571.694C291.75 571.62 280.591 571.97 279.056 572.942C284.336 573.624 290.476 573.564 295.839 573.496ZM519.946 701.263C520.378 704.712 521.495 719.166 522.658 720.513L522.984 720.684C530.845 719.507 538.531 717.6 546.321 716.186C557.681 714.127 568.785 712.043 580.06 709.508C579.264 705.778 578.471 688.697 577.684 687.497L577.373 687.43C568.699 689.825 559.985 691.964 551.288 694.255C540.862 697.003 530.739 700.263 519.946 701.263ZM482.368 808.842C488.321 794.625 492.366 770.439 490.173 755.461C489.071 767.685 488.22 780.36 486.045 792.468C485.412 795.996 481.395 806.429 482.368 808.842ZM128.944 731.969C111.392 731.067 91.1423 729.532 73.7708 729.507C75.3026 734.035 76.4729 735.942 81.1881 738.008C95.5698 744.309 114.653 746.265 130.182 748.008C129.434 741.987 129.07 738.026 128.944 731.969ZM455.175 670.063C448.546 672.287 442.993 676.918 439.612 683.036L439.938 683.39C446.018 680.221 453.553 677.369 455.44 670.148L455.175 670.063ZM177.846 774.01C167.79 773.279 157.425 771.524 147.563 770.981C150.548 782.681 153.464 795.204 161.384 804.68C163.996 807.806 167.365 812.699 171.888 811.809C172.911 810.28 173.028 809.963 173.591 808.208C176.677 795.314 177.586 787.282 177.846 774.01ZM215.347 551.52C209.232 549.613 207.403 549.421 201.015 549.925L201.476 550.472C204.152 553.588 209.234 556.235 209.408 560.253C209.508 562.576 208.841 563.403 209.85 565.456L209.299 564.554L209.869 565.508C210.552 564.412 210.848 563.822 211.404 562.685C212.464 558.923 213.384 554.866 215.347 551.52ZM606.318 668.143C602.113 668.801 588.892 669.752 586.722 671.793C586.363 673.189 586.149 674.414 587.088 675.663C592.232 674.365 603.46 673.628 606.136 671.19L606.891 668.783L606.318 668.143ZM165.272 590.569C144.11 595.443 110.823 608.635 92.4229 619.698L92.5557 620.118L92.8617 620.131C108.283 612.178 131.165 604.924 147.553 597.902C151.375 596.265 163.378 592.586 166.152 590.867L165.272 590.569ZM114.191 653.402C116.998 656.035 118.85 657.589 120.663 661.196C125.769 671.367 110.766 694.346 100.666 694.968L100.266 695.742C103.037 696.503 106.46 695.34 109.123 694.352C118.209 690.702 122 689.106 132.02 689.112C132.035 677.186 132.503 665.267 133.423 653.378C127.012 653.287 120.601 653.293 114.191 653.402ZM508.645 748.148C509.936 776.021 510.866 812.394 490.652 833.966C481.48 843.759 473.654 847.415 461.472 851.687C464.586 851.26 468.26 850.858 471.284 850.188C511.655 833.802 518.048 786.752 516.1 748.861L508.645 748.148ZM512.556 470.909C510.609 481.492 497.505 576.616 498.811 581.208L502.937 579.482L503.69 578.954C504.602 572.778 504.916 566.17 506.071 560.061C511.574 530.981 513.584 500.927 517.063 471.483C515.354 470.737 514.474 470.904 512.556 470.909ZM216.934 768.928C230.759 769.488 244.586 770.652 258.394 771.152C290.388 772.359 322.415 772.474 354.417 771.487C362.469 771.256 369.929 770.975 377.953 770.36C383.603 769.921 387.708 770.622 393.563 769.507C394.498 768.538 394.674 765.796 394.905 764.296C392.686 762.797 324.898 761.853 316.806 760.927C310.994 768.361 308.815 768.355 299.716 766.734C296.501 763.9 295.254 762.541 293.102 758.8C279.002 757.331 263.832 756.832 249.517 755.418C241.367 754.614 224.548 752.731 216.852 752.95C217.015 758.276 217.043 763.602 216.934 768.928ZM443.648 692.396C435.251 696.863 431.315 699.691 428.918 709.453C426.124 720.842 419.686 755.68 420.155 765.783L420.647 766.35C422.52 766.417 424.871 766.807 426.279 765.783C432.717 748.294 436.489 724.053 440.965 705.62C441.472 703.53 443.986 694.279 444.067 692.811L443.648 692.396ZM647.675 677.461C638.306 685.596 637.959 687.326 636.52 700.952C634.978 715.589 641.701 750.872 648.985 762.773L650.411 763.705C650.753 761.859 649.302 755.022 648.869 750.659C646.645 728.282 644.054 701.738 653.861 680.721C653.697 680.282 653.526 679.843 653.355 679.411C651.563 677.979 650.009 677.674 647.675 677.461ZM476.213 718.112C457.977 733.395 455.217 786.191 468.598 805.899L469.522 805.576C474.652 783.955 472.699 758.014 476.953 735.961C477.327 734.017 478.063 732.603 479.553 731.348L482.903 730.336C483.537 726.558 479.605 719.849 476.213 718.112ZM116.979 765.162C116.585 783.26 119.528 813.12 130.827 827.763C136.085 828.531 143.602 829.225 148.457 830.158C135.929 812.193 132.991 789.415 133.268 767.855L116.979 765.162ZM623.269 561.922C624.878 561.555 626.335 561.509 627.377 560.516C625.878 549.921 620.398 534.781 618.04 523.872C614.443 507.219 610.951 489.368 608.476 472.57C595.189 472.435 581.907 472.127 568.63 471.649C570.347 478.387 571.312 488.857 572.502 496.202C576.449 519.961 579.615 543.843 581.992 567.811C595.505 566.343 609.762 563.966 623.269 561.922ZM441.432 749.361C439.75 754.729 438.175 760.238 436.393 765.564C432.46 777.331 426.586 776.411 416.376 774.747C416.524 792.511 420.436 817.623 433.566 830.548L434.116 831.084C437.495 833.784 445.58 838.829 449.828 836.038L450.281 834.801C449.356 833.205 448.841 832.845 448.13 831.785C436.245 814.07 437.502 786.618 439.374 766.271C439.764 762.017 441.853 751.932 441.432 749.361ZM412.139 732.103C380.029 736.576 355.679 734.803 323.667 734.443C323.573 738.678 322.747 745.717 325.34 748.989C326.638 750.628 328.516 750.275 330.679 750.421C356.174 752.584 383.556 752.011 409.671 754.912C410.917 751.03 414.4 735.083 412.868 732.097L412.139 732.103ZM550.419 409.189C564.395 409.66 589.057 408.131 600.363 415.786C620.472 414.819 647.016 416.017 666.57 421.298C660.072 410.514 653.337 405.876 640.805 402.924C628.018 399.913 610.865 399.979 597.578 399.779C582.809 399.557 564.727 399.148 550.036 400.087C529.495 401.011 508.968 401.787 488.501 403.854C469.035 405.821 449.024 406.756 429.779 410.392L429.424 411.013L428.259 410.889C428.548 410.774 428.838 410.658 429.127 410.543L428.302 410.965L428.82 411.042L428.261 410.908L429.588 410.483C428.181 409.454 539.578 408.786 550.419 409.189ZM387.462 651.087L373.322 651.721C377.949 653.061 383.374 654.53 385.74 658.966C389.671 666.346 387.235 690.727 377.967 693.432C345.319 702.957 331.762 681.08 337.818 653.098L327.519 653.597C324.498 656.827 321.472 660.246 319.331 664.152C305.544 687.509 316.403 700.001 341.348 701.598C358.646 702.707 382.149 701.982 393.179 686.156C397.127 679.697 400.242 660.27 400.203 652.488C395.109 650.989 392.772 650.752 387.462 651.087ZM554.976 551.683C558.036 554.263 558.629 555.548 559.971 559.425C561.357 526.457 558.154 502.822 556.832 471.096C548.788 471.077 539.286 471.296 531.357 470.907C525.222 494.195 524.38 525.776 519.795 550.506C532.144 547.856 543.051 547.025 554.976 551.683ZM630.779 569.981C615.656 571.9 597.09 575.311 582.523 576.775C584.894 605.48 584.059 634.78 586.265 662.202C591.793 661.044 596.414 660.325 602.015 659.551L611.262 657.967C617.241 646.827 620.301 642.72 632.418 637.583C633.558 625.786 633.735 613.848 634.789 602.385L627.024 604.311C608.708 596.703 621.16 585.888 633.985 584.767C633.656 580.483 633.406 574.418 632.302 570.413C631.303 569.806 631.821 569.861 630.779 569.981ZM142.59 660.118C142.029 669.581 141.753 679.063 141.762 688.545C157.837 688.509 303.157 690.824 304.95 689.971C305.036 688.405 304.822 687.674 304.526 686.114C304.273 672.665 306.187 672.768 308.84 661.848C268.479 662.354 228.111 662.165 187.756 661.276C178.969 661.111 149.913 661.373 142.59 660.118ZM569.955 578.989C566.474 584.103 565.193 585.579 558.86 582.686C542.653 590.279 531.973 589.954 514.379 590.552C511.3 610.789 509.006 626.687 512.92 646.864C514.344 654.201 514.981 664.804 515.726 672.439C533.043 670.13 560.615 665.352 577.075 664.292C576.922 643.927 576.373 623.567 575.427 603.226C575.111 596.855 574.851 585.373 573.973 579.362C572.657 578.646 571.491 578.906 569.955 578.989ZM464.665 588.26C456.952 598.143 397.55 612.794 382.215 616.09C374.155 617.778 366.028 619.131 357.856 620.143C324.564 624.286 285.241 624.335 251.379 625.018L154.355 627.857C139.9 628.193 125.448 628.65 111.001 629.216C102.45 629.539 92.0962 629.753 83.7286 630.819C82.6351 635.341 81.5642 639.874 80.517 644.408C86.4483 644.109 91.931 643.981 97.8757 644.353C104.018 645.011 109.412 644.365 115.603 644.432C131.813 644.694 148.027 644.682 164.237 644.39C217.159 643.622 265.759 641.934 318.573 639.557L361.872 637.656C366.228 637.467 377.946 637.351 381.617 636.645C382.235 633.244 382.976 629.801 386.347 628.132C408.445 617.163 459.019 595.529 482.342 591.454C476.099 590.988 470.127 591.164 464.665 588.26ZM491.658 595.968L491.059 596.3C484.027 600.122 472.861 602.743 464.983 605.637C441.902 614.11 418.25 621.953 396.31 633.159C393.352 634.67 390.737 637.522 390.205 640.849C397.671 643.89 410.491 641.239 408.835 655.499C407.527 666.754 406.159 687.85 397.399 695.431C402.688 695.26 406.614 694.883 411.876 694.255C416.37 693.828 420.861 693.365 425.348 692.878C432.976 671.763 451.56 646.376 478.147 654.353C487.563 657.181 494.757 669.563 500.146 677.613C500.333 650.362 501.796 626.937 500.924 599.415C497.059 598.433 495.335 597.629 491.658 595.968ZM232.9 580.934C226.555 581.861 218.193 584.296 211.901 585.973C185.187 593.09 159.502 602.975 133.926 613.379C127.255 616.09 119.158 617.254 112.327 620.289C123.298 620.051 134.532 619.003 145.712 618.692L315.25 614.811C325.298 613.945 335.53 613.61 345.604 612.824C370.843 610.85 394.355 604.078 418.573 597.194C425.19 595.313 432.638 592.759 439.386 591.578C424.035 587.559 397.208 586.718 380.836 585.695C346.101 583.65 311.322 582.424 276.528 582.018C262.823 581.748 246.103 580.761 232.9 580.934Z" fill="black"/>
<path d="M389.673 615.194C397.407 616.607 398.046 621.797 395.198 628.898C393.551 633.005 385.854 634.279 381.618 635.522C365.135 630.763 379.529 617.428 389.673 615.194Z" fill="black"/>
<path d="M386.899 597.354C394.581 599.834 414.135 643.874 410.808 653.362C406.976 637.14 401.854 615.026 385.952 606.531L385.27 606.166C380.59 604.453 373.732 602.15 370.13 607.153C369.129 614.27 379.275 614.435 384.065 614.843C382.974 615.105 379.812 615.385 378.985 615.751C367.616 620.778 364.395 628.609 359.719 637.884C359.237 635.708 367.76 608.786 369.09 604.813C370.59 600.328 382.418 598.384 386.899 597.354Z" fill="black" fill-opacity="0.01"/>
<path d="M403.112 595.785C403.189 596.078 403.265 596.37 403.342 596.663C403.49 618.624 390.836 649.776 367.539 654.931C368.124 653.322 371.676 652.335 372.387 651.098C377.684 641.903 380.046 640.282 387.692 635.084C396.613 629.027 401.796 606.723 403.112 595.785Z" fill="black" fill-opacity="0.01"/>
<path d="M421.427 610.577L422.307 610.875C419.533 612.594 407.531 616.273 403.708 617.91C387.32 624.932 364.439 632.186 349.017 640.139L348.711 640.126L348.578 639.706C366.978 628.643 400.265 615.451 421.427 610.577Z" fill="black" fill-opacity="0.0196078"/>
<path d="M389.121 598.667C391.313 613.645 387.269 637.832 381.315 652.048C380.343 649.635 384.36 639.203 384.993 635.674C387.168 623.566 388.019 610.891 389.121 598.667Z" fill="black" fill-opacity="0.0509804"/>
<path d="M365.887 624.93C373.114 625.308 384.864 624.339 393.143 624.467C396.001 626.399 400.694 624.833 404.997 626.058C393.61 626.399 381.076 626.222 369.635 626.149L365.887 624.93Z" fill="black" fill-opacity="0.0431373"/>
<path d="M381.117 617.222C382.574 617.137 382.598 617.222 383.933 617.661C388.133 621.47 391.528 628.191 393.192 633.523L392.442 632.896C390.845 630.178 389.065 627.009 386.95 624.706L386.621 624.352C383.793 621.281 381.623 620.812 377.691 619.514C378.039 618.636 380.062 617.801 381.117 617.222Z" fill="black" fill-opacity="0.0235294"/>
<path d="M383.311 631.789C383.141 628.066 382.34 623.246 383.516 620.04C385.263 618.523 385.184 619.005 387.945 618.98C388.359 623.258 386.398 628.822 383.311 631.789Z" fill="black" fill-opacity="0.0156863"/>
<path d="M382.246 614.054C385.024 616.035 388.905 632.786 388.621 636.662C387.954 636.424 387.827 636.193 387.238 635.705C385.291 629.392 382.43 620.623 382.246 614.054Z" fill="black" fill-opacity="0.01"/>
<path d="M377.922 615.099L380.188 615.343C386.979 619.81 390.507 628.243 392.962 635.617C391.871 634.605 389.75 630.596 388.746 628.962C385.525 623.716 381.983 619.682 377.922 615.099Z" fill="black" fill-opacity="0.0588235"/>
<path d="M387.836 612.683C388.799 615.998 384.364 634.135 383.105 638.033C381.934 632.831 386.254 618.492 387.836 612.683Z" fill="black" fill-opacity="0.0588235"/>
<path d="M383.324 636.708C383.735 629.73 383.943 620.187 386.875 614.008C387.512 616.281 387.845 616.05 387.24 617.896L386.737 618.292C386.156 620.9 383.967 632.838 384.975 634.812L383.324 636.708Z" fill="black" fill-opacity="0.933333"/>
<path d="M401.465 626.086C397.878 626.198 371.033 626.553 369.422 625.672C374.181 625.068 379.499 625.299 384.812 624.568L385.539 624.464C388.449 626.462 396.626 624.91 401.465 626.086Z" fill="black" fill-opacity="0.0823529"/>
<path d="M393.833 626.244C388.471 626.312 382.33 626.372 377.051 625.69C378.586 624.719 389.745 624.368 392.158 624.442L393.833 626.244Z" fill="black" fill-opacity="0.0627451"/>
<path d="M376.703 624.511C380.001 623.841 391.073 624.304 394.18 626.126C390.527 627.351 381.337 625.2 376.703 624.511Z" fill="black" fill-opacity="0.0980392"/>
<path d="M386.137 619.919C386.515 621.089 386.728 622.015 387.325 623.088C386.917 624.495 385.338 628.219 384.741 629.76L383.778 629.62L383.699 629.961L384.327 630.796L383.559 630.693C384.119 627.195 385.43 624.465 386.137 619.919Z" fill="black" fill-opacity="0.168627"/>
<path d="M384.691 633.618C383.684 631.643 385.872 619.706 386.453 617.098C386.362 621.717 386.17 629.352 384.691 633.618Z" fill="black" fill-opacity="0.145098"/>
<path d="M383.742 624.553C387.79 624.859 389.24 625.144 393.202 626.156C388.515 626.143 382.212 626.301 377.684 625.625L383.09 625.338L383.742 624.553Z" fill="black" fill-opacity="0.168627"/>
<path d="M384.539 619.959C386.335 621.781 386.197 627.875 386.339 630.757C384.309 628.789 384.666 623.067 384.539 619.959Z" fill="#232429"/>
<path d="M390.216 625.922C387.012 625.995 383.705 626.281 380.672 625.306C382.088 624.538 384.734 624.727 386.468 624.703L390.216 625.922Z" fill="black" fill-opacity="0.521569"/>
<path d="M387.35 624.938C389.143 624.301 388.322 624.25 389.882 624.714C387.868 626.114 386.257 626.037 383.791 626.292C382.595 626.349 382.174 626.256 381.004 626.124C383.246 625.133 384.918 625.151 387.35 624.938Z" fill="black" fill-opacity="0.580392"/>
</g>
<defs>
<clipPath id="clip0_2110_10427">
<rect width="772" height="1248" fill="white"/>
</clipPath>
</defs>
</svg>
