<svg width="772" height="1248" viewBox="0 0 772 1248" fill="none" xmlns="http://www.w3.org/2000/svg">
<g clip-path="url(#clip0_2103_10158)">
<path d="M394.98 430.427C396.117 422.569 400.229 409.866 407.136 405.888C429.319 393.112 430.662 426.758 428.572 438.139C434.012 432.034 440.497 428.891 446.558 435.754C460.892 451.982 430.064 480.621 419.931 492.016C418.566 493.551 416.534 494.554 415.354 496.189C411.556 501.827 408.813 505.545 401.513 503.564C401.985 517.765 399.558 526.613 395.866 540.279C411.827 544.773 421.98 548.75 436.206 557.203C454.944 546.62 471.981 533.736 480.329 512.931C478.317 504.563 477.185 499.8 477.468 490.978C459.159 481.212 464.764 453.852 486.098 453.296C486.991 441.94 488.744 433.286 499.948 427.884C515.718 429.057 520.994 437.369 523.363 452.244C531.853 447.078 542.048 445.496 551.705 447.846C563.474 450.642 573.954 462.002 570.244 474.102C564.712 492.144 543.397 499.961 526.675 499.68C526.382 502.136 526.018 504.569 525.683 507.015C522.965 526.821 500.456 543.373 485.682 522.849C485.101 522.044 484.545 521.22 484.016 520.381C480.776 536.535 458.321 557.341 443.31 563.447C455.697 570.554 467.328 585.573 468.149 600.153C501.225 601.446 538.048 587.993 556.936 559.545C550.176 556.482 546.08 553.575 543.35 546.408C533.096 519.501 574.908 492.568 585.13 525.123C585.392 525.971 585.636 526.827 585.855 527.688C598.807 515.661 629.29 497.008 633.312 529.54C634.215 536.843 624.352 545.011 622.073 550.464C618.806 556.327 615.478 557.876 609.23 559.901L608.413 560.355C608.828 568.745 609.285 576.621 603.354 583.234C595.162 592.367 580.997 589.893 572.713 582.348C566.684 576.855 564.824 569.895 563.975 562.192C544.619 596.021 506.711 611.752 468.762 606.696C468.5 621.575 463.85 630.015 456.897 642.677C469.582 644.14 487.561 649.691 500.189 653.256C513.94 657.241 527.833 660.727 541.837 663.707C545.141 653.817 548.248 650.325 556.358 643.811C555.54 636.931 557.583 633.951 562.283 629.43C570.126 618.467 576.485 610.423 590.884 607.752C598.423 606.353 605.914 608.346 611.284 614.031C612.875 615.713 614.253 617.839 615.99 619.332C627.418 612.995 633.636 607.278 647.972 611.002C660.558 614.274 666.282 628.814 662.673 640.587C661.863 643.226 659.668 646.681 658.138 648.991C675.156 653.207 684.939 671.976 670.378 685.218C661.728 693.085 652.543 695.443 641.108 694.493C641.035 712.847 624.633 731.981 605.774 731.951C598.253 731.896 591.079 728.794 585.898 723.347C579.607 716.832 577.825 709.69 577.571 700.934C556.883 700.209 540.407 693.03 538.851 670.471C517.484 667.759 495.114 660.703 474.673 654.134C467.777 651.922 459.392 649.819 452.899 647.229C450.375 650.398 448.839 652.123 445.952 654.968C465.184 665.279 486.634 701.019 500.342 717.972C502.832 715.76 501.369 713.791 507.7 711.366C518.206 707.338 530.151 709.392 540.239 713.603C561.582 722.567 586.666 744.327 575.118 769.86C571.41 778.056 565.31 787.508 556.345 790.768C531.851 799.671 507.719 773.504 499.239 752.926C495.584 744.053 494.622 734.114 496.502 724.852C478.003 700.032 464.786 679.478 441.57 657.814C425.987 669.045 416.874 671.574 398.297 676.004C401.184 685.407 403.746 693.475 408.668 702.079C421.731 709.276 424.464 713.042 428.725 727.758L429.215 729.471C431.712 726.095 438.265 714.754 439.4 713.779C447.126 712.804 451.894 708.654 458.913 713.645C462.833 716.43 465.815 723.694 465.985 728.392C467.214 762.145 445.394 793.943 425.317 819.329C425.233 819.433 425.148 819.536 425.064 819.64C426.343 825.837 427.537 829.03 430.797 834.472C448.397 863.85 486.169 845.727 500.381 822.979C501.804 820.7 502.584 818.799 503.286 816.16C500.49 812.053 494.657 804.546 499.318 799.878C504.165 797.678 508.308 801.669 509.822 806.008C517.593 828.293 491.007 850.017 472.3 856.373C446.946 864.99 427.807 850.992 420.147 827.117L420.012 826.696C419.108 828.829 418.121 831.157 417.084 833.223C405.053 857.159 368.872 871.345 343.933 860.608C334.138 856.416 326.417 848.494 322.48 838.598C319.892 832.035 315.272 816.191 317.835 809.823C321.539 800.615 338.036 817.55 330.875 824.478C329.051 824.765 328.581 824.789 326.738 824.673C325.971 826.617 327.558 829.908 328.126 831.888C333.991 852.309 353.02 858.634 372.324 853.704C373.628 853.619 376.574 852.808 377.984 852.467C380.584 851.675 384.221 849.889 386.803 848.719C390.76 846.922 394.438 844.831 397.746 842.004C400.633 829.847 397.155 824.271 403.781 815.179C407.207 815.307 408.611 815.319 411.987 814.881L399.557 814.497C393.351 813.095 389.933 812.187 384.426 809.049L381.813 807.385L378.553 805.874C371.364 811.718 361.881 796.855 359.206 791.597C358.318 789.848 358.089 787.331 357.911 785.405C354.486 777.429 351.792 770.92 351.035 761.487C350.141 750.336 353.253 730.226 367.767 728.989C372.958 728.544 376.931 731.951 380.683 735.302C381.913 726.223 383.16 724.047 386.743 715.595C387.413 707.186 390.507 698.978 398.366 695.004C395.751 688.752 394.069 683.95 391.981 677.491C373.507 679.618 352.407 681.635 333.9 679.276C331.346 700.812 318.871 733.115 299.512 744.62C306.885 752.188 311.814 759.659 311.734 771.134C312.251 784.503 304.507 793.955 298.655 804.186C288.171 822.504 257.82 845.173 239.166 825.892C219.888 805.959 233.683 765.54 252.41 749.568C264.878 738.934 272.08 735.881 287.274 738.989C311.86 725.522 321.403 704.389 326.557 677.985C310.738 675.901 294.446 669.636 283.178 658.034C277.994 675.212 253.744 687.034 237.728 692.445C232.48 694.218 227.029 694.59 221.92 697.143C227.826 708.758 230.084 717.698 225.57 730.555C221.424 742.365 214.273 756.819 202.695 762.663C193.05 767.532 186.295 762.834 181.243 754.76C173.639 764.9 164.764 774.211 152.07 775.923C130.385 778.848 122.963 757.825 131.201 740.762C132.546 737.971 140.47 727.173 140.283 726.57L138.141 726.582C128.273 732.639 109.115 705.425 118.644 699.892L121.159 700.605C123.227 683.859 138.442 667.528 156.503 673.5C167.131 677.016 173.351 686.041 178.073 695.687C186.677 686.711 199.491 687.296 210.695 689.569L218.657 692.817C222.373 689.807 224.387 688.058 228.694 685.803L229.205 684.95C230.762 679.173 235.277 674.347 235.419 670.745C235.702 663.579 237.761 649.697 233.763 643.933C232.824 644.085 231.881 644.213 230.935 644.317C227.443 644.713 220.53 643.232 217.709 640.929L214.578 638.381L212.305 639.698C211.283 643.604 211.242 644.646 208.092 647.26L206.105 648.692C194.959 652.312 180.95 641.471 173.905 633.726C171.151 634.128 156.473 654.249 142.432 653.951C115.053 653.36 122.132 631.136 136.142 615.786C129.098 615.31 122.149 612.166 118.83 605.763C112.507 593.561 120.364 585.749 130.263 580.299C133.501 580.8 136.822 581.07 140.089 581.378L141.16 581.401C148.65 581.033 151.715 581.971 158.545 584.673C160.016 579.555 164.283 571.065 169.831 570.541C181.783 569.412 192.666 584.034 198.931 592.734C200.697 595.186 202.245 597.798 204.375 599.302C209.463 593.1 225.998 587.339 233.868 588.245C235.326 588.413 244.649 588.113 245.444 587.312C249.707 583.02 252.442 576.771 255.781 572.1L256.081 571.688L256.168 571.114C255.933 566.554 259.711 562.072 259.359 558.958C253.144 547.417 217.128 534.031 203.849 529.951C202.36 556.818 176.015 571 151.275 562.423C148.601 561.496 143.698 558.805 142.56 556.119C143.412 553.378 144.423 554.763 145.463 552.408C144.217 551.449 143.721 551.262 142.282 550.585C139.231 545.99 132.87 531.118 132.552 526.213C130.772 498.798 185.909 470.667 203.64 496.778C209.956 506.079 207.335 512.157 201.061 519.977C208.124 522.346 215.022 523.996 222.165 526.708C252.071 538.069 269.808 554.442 291.248 576.873C302.87 564.463 310.946 558.021 325.967 549.559C317.015 532.045 308.821 511.494 297.462 495.928C292.024 500.185 288.918 502.087 282.492 505.143C279.572 506.531 272.026 509.23 270.036 510.879C263.403 517.5 248.827 521.37 242.967 512.071C233.228 505.832 230.937 500.114 231.714 488.889C228.357 483.812 225.317 476.827 231.987 473.19C228.845 455.047 237.088 439.361 257.193 446.783C263.051 419.352 286.138 419.357 293.109 447.301C297.279 441.206 299.552 440.278 305.754 436.434C313.344 429.135 323.061 430.001 325.763 441.072C332.572 459.413 329.902 455.974 323.172 472.13C321.956 479.698 317.748 486.459 311.495 490.893C308.293 493.203 306.113 494.021 302.153 494.504C312.204 502.33 328.82 534.792 332.508 546.832C351.822 537.975 365.919 535.754 386.756 538.515C392.674 521.524 391.922 519.359 395.343 501.911C372.044 497.554 360.054 482.022 356.917 459.341C358.178 450.7 360.201 448.474 367.85 444.716C371.16 439.53 364.202 419.852 374.22 417.348C385.127 414.622 390.88 421.561 394.98 430.427Z" fill="black"/>
<path d="M207.613 605.032C227.748 596.221 237.714 594.409 259.604 601.816C263.961 603.29 269.537 606.478 273.2 609.333C270.106 624.39 271.116 638.29 279.112 651.769C268.316 667.016 246.63 681.275 228.697 685.803L229.207 684.95C230.765 679.173 235.28 674.346 235.422 670.745C235.704 663.579 237.764 649.697 233.766 643.932C232.826 644.085 231.883 644.213 230.938 644.316C227.445 644.712 220.532 643.232 217.711 640.928L214.581 638.381C222.361 625.986 214.445 615.688 207.613 605.032Z" fill="#FEFEFE"/>
<path d="M262.519 560.38C266.734 563.502 269.781 565.83 273.619 569.43C277.885 573.433 282.603 579.05 287.157 582.45C281.501 589.632 278.983 593.002 275.481 601.731C266.986 594.769 259.024 591.251 248.426 588.466C250.933 583.804 255.127 576.748 256.081 571.687L256.169 571.114C258.441 566.641 259.756 564.497 262.519 560.38Z" fill="#FEFEFE"/>
<path d="M411.987 814.881L413.756 814.692C417.465 821.109 402.663 837.994 397.746 842.004C400.633 829.847 397.155 824.271 403.781 815.179C407.207 815.307 408.611 815.32 411.987 814.881Z" fill="#FEFEFE"/>
<path d="M173.906 633.725L175.152 631.142C177.472 631.647 180.365 635.755 182.401 637.205C191.699 643.817 202.476 643.414 212.306 639.697C211.284 643.603 211.243 644.645 208.093 647.26L206.106 648.692C194.96 652.311 180.951 641.471 173.906 633.725Z" fill="#F54B2D"/>
<path d="M398.369 695.004C400.079 698.594 400.933 700.257 403.137 703.536C393.082 708.526 395.305 705.949 386.746 715.595C387.417 707.186 390.51 698.978 398.369 695.004Z" fill="#FB6101"/>
<path d="M138.141 726.582C128.273 732.639 109.115 705.425 118.644 699.892L121.159 700.605C122.181 714.943 123.318 721.402 138.141 726.582Z" fill="#A5CEF6"/>
<path d="M357.914 785.405C366.705 794.759 367.843 797.501 378.556 805.874C371.367 811.718 361.884 796.855 359.209 791.597C358.321 789.848 358.091 787.331 357.914 785.405Z" fill="#FB6101"/>
<path d="M302.156 494.504C302.247 494.165 320.698 475.015 323.175 472.13C321.959 479.698 317.751 486.459 311.498 490.893C308.296 493.203 306.116 494.021 302.156 494.504Z" fill="#A5CEF6"/>
<path d="M242.969 512.071C244.524 512.04 247.014 512.392 248.618 512.552C255.962 513.286 262.823 511.573 270.037 510.879C263.405 517.5 248.829 521.37 242.969 512.071Z" fill="#A5CEF6"/>
<path d="M231.716 488.889C228.359 483.811 225.319 476.827 231.988 473.189C233.699 476.384 234.308 477.381 236.557 480.207C233.744 483.604 233.537 484.942 231.716 488.889Z" fill="#A5CEF6"/>
<path d="M305.758 436.434C313.347 429.135 323.064 430.001 325.766 441.072C319.204 435.312 314.125 434.895 305.758 436.434Z" fill="#A5CEF6"/>
<path d="M367.851 444.716C368.414 446.768 368.612 447.221 368.334 449.308C366.678 452.121 362.873 451.754 360.998 454.064C360.278 454.951 358.87 458.864 358.36 460.107C357.23 459.979 357.704 460.212 356.918 459.341C358.18 450.7 360.202 448.474 367.851 444.716Z" fill="#F54B2D"/>
<path d="M562.285 629.43C561.258 637.315 563.476 639.838 556.36 643.811C555.542 636.931 557.585 633.951 562.285 629.43Z" fill="#8ADBD2"/>
<path d="M401.515 503.564L401.504 502.766C402.331 501.565 413.75 496.671 415.356 496.189C411.558 501.827 408.815 505.545 401.515 503.564Z" fill="#FB6101"/>
<path d="M609.231 559.901L608.469 559.052C609.249 557.282 620.239 551.011 622.073 550.464C618.806 556.327 615.478 557.876 609.231 559.901Z" fill="#FEA103"/>
<path d="M140.09 581.378L141.161 581.401C137.374 584.191 135.777 584.006 131.363 583.495C132.374 582.737 138.288 581.79 140.09 581.378Z" fill="#646162"/>
<path d="M461.19 608.011C453.133 653.286 412.659 666.595 372.309 669.88C347.065 671.939 312.776 671.287 291.383 655.267C284.757 650.306 280.168 636.76 279.531 628.637C278.27 583.952 329.302 549.721 369.473 546.451C391.067 544.693 427.842 558.341 443.61 572.028C445.36 573.6 447.974 576.086 449.829 577.358C454.771 582.244 461.801 589.686 461.274 597.227C461.042 600.544 456.89 599.79 456.739 603.659C458.03 606.032 459.019 606.516 461.19 608.011Z" fill="#FEFEFE"/>
<path d="M570.218 636.748C573.244 629.588 575.876 626.175 582.57 621.678C587.117 618.631 596.358 615.066 601.874 616.608C612.467 619.57 606.397 626.907 609.572 631.873C614.083 635.383 617.673 630.368 621.129 627.449C626.998 622.489 631.558 620.49 639.128 619.643C644.638 619.692 650.282 620.027 654.525 624.091C661.644 630.91 653.251 641.538 646.869 645.224L646.57 645.413C642.803 647.784 640.53 647.601 637.964 652.177C638.043 656.071 641.566 656.498 644.754 656.748C648.405 655.681 651.434 655.602 655.085 656.522C680.332 662.884 668.05 682.232 648.862 685.346C645.369 685.303 636.544 684.943 633.502 683.987C632.569 682.658 632.289 682.232 631.131 681.111L629.705 680.879C628.601 681.915 628.577 682.11 627.846 683.383C625.773 683.274 624.231 682.603 623.225 683.493C622.817 689.989 627.309 692.232 632.429 694.261C631.497 700.659 628.534 711.147 622.634 714.852C619.483 717.643 616.947 719.891 612.943 721.396C596.096 723.913 587.416 721.427 586.038 702.719L587.568 701.665C595.998 695.827 596.76 693.103 598.54 683.383C589.269 673.609 583.216 683 579.102 691.513C560.496 692.055 539.349 685.596 552.206 662.921C553.256 660.684 554.494 658.533 555.69 656.376C564.222 649.307 572.388 644.743 583.808 646.589C587.922 647.26 592.048 650.099 595.26 646.437C593.932 638.04 576.958 636.608 570.218 636.748Z" fill="#8ADBD2"/>
<path d="M644.753 656.748C648.404 655.681 651.434 655.602 655.085 656.522C680.331 662.884 668.049 682.232 648.862 685.346L647.661 684.657C648.289 680.587 648.587 674.365 648.508 670.252C648.435 666.534 644.308 660.812 642.797 657.363L644.753 656.748Z" fill="#FEFEFE"/>
<path d="M639.129 619.643C644.639 619.692 650.283 620.027 654.525 624.092C661.645 630.91 653.252 641.538 646.87 645.225C647.382 631.562 645.383 631.605 639.129 619.643Z" fill="#FEFEFE"/>
<path d="M604.184 704.7C608.328 707.753 611.894 712.232 616.508 714.474C618.093 715.248 620.08 713.761 622.634 714.852C619.483 717.643 616.947 719.891 612.942 721.397C609.395 718.283 605.476 709.38 604.184 704.7Z" fill="#FEFEFE"/>
<path d="M555.691 656.376C557.726 658.594 558.5 659.466 560.898 661.263C558.902 661.678 553.99 662.811 552.207 662.921C553.257 660.684 554.495 658.533 555.691 656.376Z" fill="#BDE8EA"/>
<path d="M595.695 653.335C611.208 652.543 627.793 663.658 610.05 675.901C592.227 684.541 583.2 664.548 595.695 653.335Z" fill="black"/>
<path d="M388.399 742.347C389.18 728.483 400.247 701.184 417.516 717.899C428.178 728.215 417.034 765.473 421.968 771.298C426.384 770.476 429.686 752.633 432.097 747.453C435.772 739.556 440.42 724.261 450.37 721.799C452.632 721.238 454.709 721.464 456.442 722.676C460.794 731.567 456.369 747.405 453.329 756.57C443.487 786.258 420.937 821.584 385.295 799.104L384.36 798.702C367.903 791.615 352.932 765.607 360.974 747.892C362.9 743.651 365.554 740.257 368.569 736.722C381.92 741.902 393.163 766.716 395.77 766.624C399.278 761.286 397.152 759.044 394.62 754.315C392.516 750.378 390.528 746.296 388.399 742.347Z" fill="#FB6101"/>
<path d="M384.359 798.701C386.362 795.789 392.351 793.942 395.654 792.803C392.701 795.283 389.169 798.555 385.294 799.104L384.359 798.701Z" fill="#FEDF87"/>
<path d="M402.795 740.622C404.022 741.128 404.017 741.28 404.838 742.292C406.073 748.623 408.293 764.51 405.497 769.988C399.56 765.326 399.584 746.448 402.795 740.622Z" fill="black"/>
<path d="M135.925 751.963C139.592 741.463 144.315 735.577 152.842 728.167C155.687 725.693 158.517 724.413 160.917 721.36C161.404 719.325 161.511 720.281 160.568 718.398C153.929 713.895 127.62 723.365 128.506 705.065C129.166 691.434 143.105 677.71 157.243 682.372C165.715 685.163 170.013 692.329 173.79 699.831C165.496 711.592 166.324 724.175 181.494 728.782C198.461 725.376 196.843 710.367 185.623 701.439C194.775 696.351 206.653 696.955 216.036 701.196C225.391 714.602 216.288 737.021 206.353 747.819C201.775 752.883 195.942 758.245 188.737 754.138C183.286 747.752 188.71 732.646 182.911 731.384C179.928 733.523 178.654 741.384 176.356 745.747C173.864 750.427 170.574 754.644 166.636 758.203C165.283 759.446 162.458 761.944 160.735 762.67C150.405 769.702 132.031 770.415 135.925 751.963Z" fill="#A5CEF6"/>
<path d="M135.927 751.963C138.656 755.863 141.453 760.244 146.581 761.359C149.747 762.048 158.089 761.061 160.738 762.67C150.408 769.702 132.034 770.415 135.927 751.963Z" fill="#FEFEFE"/>
<path d="M188.738 754.138C189.292 753.76 193.24 752.572 194.201 752.231C197.621 751.018 202.94 746.978 206.355 747.819C201.777 752.883 195.943 758.245 188.738 754.138Z" fill="#FEFEFE"/>
<path d="M275.849 747.185C280.285 746.655 288.01 746.936 292.047 748.959C323.823 764.894 285.41 814.601 265.039 822.724C257.823 824.539 253.106 824.363 245.938 822.242C231.784 806.325 236.697 789.269 246.244 771.932C252.596 760.397 262.783 750.549 275.849 747.185Z" fill="#8ADBD2"/>
<path d="M273.957 762.261L276.57 762.28C283.579 766.673 276.304 784.967 273.493 790.353C270.13 796.794 267.421 801.724 261.042 805.314C250.501 802.139 257.174 776.179 262.606 770.037C266.813 765.272 268.104 764.693 273.957 762.261Z" fill="black"/>
<path d="M269.769 775.661L269.946 775.856C270.56 778.818 263.872 790.012 262.039 792.913L261.759 792.845L261.539 791.938C263.987 785.503 265.421 781.146 269.769 775.661Z" fill="#8ADBD2"/>
<path d="M414.718 411.109C426.101 412.176 419.073 438.887 423.723 445.417C429.725 447.707 435.855 438.532 441.898 441.045C445.033 445.384 440.073 453.494 437.323 457.255C425.759 473.069 411.83 495.054 389.544 491.197C379.812 488.025 370.201 480.337 366.534 470.703C363.22 462 370.052 459.521 376.307 457.778C377.052 450.064 374.609 428.493 382.037 424.294C387.897 423.377 391.87 432.945 396.943 436.085C397.378 436.053 397.812 436.021 398.247 435.989C404.151 425.089 403.511 418.385 414.718 411.109Z" fill="#F54B2D"/>
<path d="M405.85 452.332C416.083 452.968 415.911 462.484 412.408 469.782C408.811 477.18 402.416 482.843 394.636 485.521C374.309 481.23 389.458 454.81 405.85 452.332Z" fill="black"/>
<path d="M403.949 461.922C406.019 465.039 397.457 471.929 395.18 473.618C392.262 469.446 400.885 463.536 403.949 461.922Z" fill="#FB6101"/>
<path d="M273.644 434.515C288.401 434.284 286.879 457.759 290.299 461.387C292.106 461.163 292.886 459.079 294.212 457.539C297.171 454.106 300.638 451.143 304.492 448.755C308.781 446.109 318.344 442.105 322.485 448.09C323.287 449.251 322.966 451.783 322.435 453.078C315.312 470.448 299.54 485.716 282.969 494.14C275.486 498.149 247.699 509.746 239.635 500.282C234.694 494.482 247.745 483.655 248.888 477.598C246.696 473.718 234.726 474.881 239.232 462.856C243.861 450.504 248.581 453.191 258.582 451.539L259.33 451.409C260.072 452.597 259.668 452.323 260.758 452.95C266.402 445.249 262.659 440.663 273.644 434.515Z" fill="#A5CEF6"/>
<path d="M276.841 461.977C292.262 461.033 289.389 484.381 272.334 488.904C261.784 486.971 262.206 479.901 266.002 471.39C268.159 466.556 271.756 463.56 276.841 461.977Z" fill="black"/>
<path d="M502.306 437.587C513.062 435.834 515.686 445.848 519.429 453.636C517.51 456.109 516.481 457.597 514.852 460.269C514.824 463.312 514.289 468.383 516.67 470.469C518.854 469.945 523.305 461.377 529.507 458.817C538.545 455.085 559.909 453.904 564.245 465.177C564.307 469.421 559.418 476.461 556.456 479.416C547.199 488.653 538.944 489.871 526.78 490.061C525.715 486.039 524.971 479.787 520.405 478.85C519.492 479.586 518.864 480.121 518.007 480.919C511.099 474.519 500.525 464.237 494.452 478.174C493.225 486.195 492.921 489.453 493.934 497.51C506.128 507.653 506.237 498.683 516.561 496.327C518.613 496.795 517.984 496.335 519.021 497.887C519.97 504.764 512.887 519.574 505.846 521.766C490.239 526.624 486.525 512.476 485.193 500.454C484.553 494.678 483.808 493.512 487.697 488.156C487.847 487.949 488.021 486.409 487.877 486.139C482.936 484.1 475.59 482.042 473.144 476.802C470.485 471.109 478.769 465.664 483.099 463.789C506.029 467.779 483.434 450.261 502.306 437.587Z" fill="#8ADBD2"/>
<path d="M534.784 724.675C537.473 730.512 535.879 730.135 536.52 735.948C539.455 740.208 555.714 755.777 560.82 752.328C562.079 743.638 540.441 731.152 539.769 724.461L540.485 724.205C548.295 725.211 559.465 734.278 565.048 739.805C575.944 750.585 568.074 770.524 557.764 779.098C543.881 790.646 523.234 777.319 514.211 765.198C506.949 755.442 502.736 742.822 503.72 730.384C505.101 716.296 520.878 717.734 530.596 719.464C532.209 721.993 532.552 722.597 534.784 724.675Z" fill="#9D84C8"/>
<path d="M523.887 735.351C534.333 740.086 536.368 750.927 537.254 761.426C537.527 764.668 537.451 765.984 535.973 768.934C532.991 769.305 530.983 767.471 529.831 764.887C527.414 759.464 521.06 740.269 523.887 735.351Z" fill="black"/>
<path d="M165.26 588.819C168.519 583.024 171.92 577.793 179.669 581.972C183.906 584.258 188.192 589.279 190.82 593.275C191.189 597.083 191.173 595.929 194.038 598.412C196.014 600.126 198.899 601.927 198.987 604.834L197.033 606.551C197.611 609.112 200.768 611.295 202.815 612.903C227.02 631.946 193.278 640.557 179.978 623.701C182.264 616.346 183.476 613.635 183.698 605.922C182.272 603.055 181.368 600.355 178.436 599.244C175.561 600.916 176.231 602.526 172.975 603.862C171.792 603.346 171.557 602.476 170.948 601.289C167.691 601.03 166.164 606.73 165.917 609.424C165.483 614.153 168.112 615.737 171.481 618.15C166.208 628.613 157.85 637.205 147.535 642.769C126.218 652.281 129.71 633.104 140.589 624.049C141.745 623.409 155.985 613.434 156.459 611.392C156.791 609.966 156.694 610.192 156.182 609.166C151.504 605.165 140.676 606.453 133.515 605.485C132.505 605.37 131.5 605.208 130.504 605.002C127.451 604.394 126.164 604.12 124.405 601.462C123.678 595.462 129.583 593.386 134.286 591.702C148.969 585.489 164.977 598.124 169.775 596.356C170.382 593.241 167.336 590.972 165.26 588.819Z" fill="#F54B2D"/>
<path d="M140.589 624.049C139.013 632.623 138.836 638.186 147.535 642.769C126.217 652.281 129.71 633.104 140.589 624.049Z" fill="#FEFEFE"/>
<path d="M134.286 591.702C133.77 594.68 132.986 597.48 132.217 600.399C133.169 601.943 134.686 603.701 134.541 605.155L133.515 605.485C132.505 605.37 131.5 605.208 130.504 605.002C127.451 604.394 126.164 604.12 124.405 601.462C123.678 595.462 129.583 593.386 134.286 591.702Z" fill="#FEFEFE"/>
<path d="M179.545 495.627C182.892 495.252 190.4 495.646 193.204 497.432C198.574 500.853 196.618 507.309 195.995 512.377C195.835 513.677 196.641 517.776 196.931 519.215C192.092 517.956 169.91 513.889 168.015 519.282C171.381 527.052 189.052 527.302 196.953 528.991C195.117 538.467 191.826 542.494 184.955 548.92C177.093 554.347 159.857 559.396 151.798 552.599C123.132 528.423 152.061 499.67 179.545 495.627Z" fill="#FEDF87"/>
<path d="M590.281 554.653C593.121 557.635 596.023 559.205 599.497 561.396C600.369 563.006 600.649 563.867 600.911 565.667C601.399 568.944 600.503 572.275 598.442 574.87C590.354 585.274 574.181 578.351 572.455 566.315C571.31 558.328 589.879 560.423 588.964 550.878C587.233 548.347 582.875 549.826 579.968 550.522C572.759 552.685 550.852 553.057 549.552 542.679C547.496 526.273 574.743 506.21 580.888 532.664L580.516 533.979C579.486 537.688 578.167 542.728 580.23 546.381C584.521 548.939 591.104 538.858 593.554 535.626C599.381 527.947 607.335 522.108 617.088 520.943C620.775 521.055 622.269 521.148 625.859 521.868C625.511 526.282 625.767 530.283 623.323 533.859C618.502 541.714 610.115 546.385 602.118 550.197C594.773 542.879 592.969 546.903 590.281 554.653Z" fill="#FEA103"/>
<path d="M617.09 520.942C620.777 521.055 622.271 521.148 625.861 521.867C625.513 526.282 625.769 530.283 623.325 533.859C621.978 526.795 621.741 526.578 617.09 520.942Z" fill="#FEFEFE"/>
<path d="M530.598 719.465C538.756 721.305 539.155 720.702 539.52 729.087L538.698 729.739C537.69 728.027 536.665 725.869 535.137 724.748L534.786 724.675C532.554 722.597 532.211 721.994 530.598 719.465Z" fill="#997BBC"/>
<path d="M577.645 621.44L579.608 621.788C578.775 623.262 574.849 625.091 573.116 626.029L571.486 626.261L571.27 625.584C573.254 623.61 575.185 622.751 577.645 621.44Z" fill="#DEDDDD"/>
<path d="M672.561 668.704C675.157 672.75 672.67 675.73 669.751 678.484L669.629 677.917C671.665 673.865 672.098 673.237 672.561 668.704Z" fill="#646162"/>
<path d="M275.938 635.98C277.525 639.222 279.573 644.701 280.706 648.04C277.523 645.676 276.495 639.618 275.938 635.98Z" fill="#646162"/>
<path d="M372.325 853.704C371.158 853.186 370.098 852.869 369.336 851.778L368.879 851.894L369.168 852.193L368.208 851.876C369.1 851.492 369.28 851.291 370.098 850.724L370.219 849.853C366.166 847.909 348.338 854.502 352.802 841.425L352.379 840.627C352.032 839.963 350.478 837.702 350.431 837.336C349.551 830.493 349.841 823.168 350.111 816.252C350.238 812.998 352.623 807.3 353.961 804.168C354.575 804.302 355.186 804.454 355.794 804.619L357.138 803.028C358.924 802.833 366.721 816.776 373.238 813.242C376.606 811.413 379.934 811.005 381.815 807.385L384.427 809.049C381.365 814.869 378.435 812.845 373.374 816.392C374.019 817.641 374.236 817.556 374.013 818.421C373.612 819.981 376.05 824.034 376.909 825.624L377.47 825.63L378.304 822.845C379.824 825.392 377.697 830.121 376.448 832.437L378.256 834.637L377.001 835.862C375.755 835.246 376.076 835.283 375.221 833.857C374.831 836.416 376.023 837.61 374.849 838.695C372.492 836.325 373.161 837.275 372.767 833.418C369.228 835.782 375.259 843.296 371.603 846.075C371.461 846.416 371.318 846.757 371.176 847.104C374.641 847.756 375.156 848.055 377.068 850.998C377.38 851.486 377.686 851.973 377.986 852.467C376.576 852.808 373.63 853.619 372.325 853.704Z" fill="#8D5832" fill-opacity="0.0235294"/>
<path d="M212.307 639.698L214.58 638.381L217.711 640.929C220.532 643.232 227.445 644.713 230.937 644.317C231.883 644.213 232.826 644.085 233.765 643.933C237.764 649.697 235.704 663.579 235.421 670.745C235.279 674.347 230.764 679.173 229.207 684.95C227.553 683.609 219.784 680.386 219.744 679.228C219.652 676.559 224.249 669.435 223.711 666.522C223.059 662.056 216.548 659.582 214.543 656.912C211.13 652.367 213.768 651.056 208.094 647.26C211.244 644.646 211.285 643.604 212.307 639.698Z" fill="#DEDDDD" fill-opacity="0.709804"/>
<path d="M208.092 647.26C213.767 651.056 211.129 652.366 214.541 656.912C216.547 659.581 223.057 662.055 223.709 666.522C224.247 669.435 219.65 676.558 219.742 679.228C219.782 680.385 227.551 683.609 229.205 684.95L228.694 685.803C224.387 688.057 222.373 689.806 218.657 692.817L210.695 689.569C207.261 682.878 206.166 667.247 206.134 659.38C206.12 655.968 208.024 651.538 206.105 648.692L208.092 647.26Z" fill="#AFACAC" fill-opacity="0.329412"/>
<path d="M384.427 809.049C389.934 812.187 393.353 813.095 399.558 814.497C397.983 817.251 399.062 819.195 397.531 820.249C393.814 819.542 393.731 810.883 387.75 813.924C384.202 818.799 385.697 842.095 386.683 848.018L386.805 848.719C384.222 849.889 380.585 851.675 377.985 852.467C377.686 851.973 377.38 851.486 377.067 850.998C375.155 848.055 374.641 847.756 371.176 847.104C371.318 846.757 371.46 846.416 371.602 846.074C375.258 843.296 369.228 835.782 372.767 833.418C373.161 837.275 372.492 836.324 374.849 838.695C376.023 837.61 374.831 836.416 375.221 833.856C376.076 835.282 375.755 835.246 377.001 835.861L378.256 834.636L376.448 832.437C377.697 830.121 379.824 825.392 378.304 822.845L377.47 825.63L376.909 825.624C376.05 824.033 373.612 819.981 374.013 818.421C374.236 817.556 374.019 817.641 373.374 816.392C378.435 812.845 381.365 814.868 384.427 809.049Z" fill="#9A623F" fill-opacity="0.133333"/>
<path d="M386.804 848.719L386.682 848.018C385.696 842.095 384.201 818.799 387.749 813.924C393.73 810.883 393.813 819.542 397.53 820.249C399.061 819.195 397.982 817.251 399.557 814.497L411.988 814.88C408.611 815.319 407.208 815.307 403.781 815.179C397.156 824.271 400.634 829.847 397.747 842.004C394.439 844.831 390.761 846.921 386.804 848.719Z" fill="#D0B7A7" fill-opacity="0.631373"/>
</g>
<defs>
<clipPath id="clip0_2103_10158">
<rect width="772" height="1248" fill="white"/>
</clipPath>
</defs>
</svg>
